<svg xmlns="http://www.w3.org/2000/svg" width="1600" height="900" viewBox="0 0 1600 900" role="img" aria-label="51 शक्तिपीठ: माता सती के अंगों के गिरने की पौराणिक कथा और महत्व">
  <defs>
    <radialGradient id="bgGlow" cx="50%" cy="43%" r="75%">
      <stop offset="0%" stop-color="#f9a8d4" stop-opacity="0.46"/>
      <stop offset="45%" stop-color="#5a1237" stop-opacity="0.92"/>
      <stop offset="100%" stop-color="#2b0718"/>
    </radialGradient>
    <linearGradient id="glassPanel" x1="0%" y1="0%" x2="100%" y2="100%">
      <stop offset="0%" stop-color="#ffffff" stop-opacity="0.58"/>
      <stop offset="42%" stop-color="#f9a8d4" stop-opacity="0.22"/>
      <stop offset="100%" stop-color="#ffffff" stop-opacity="0.08"/>
    </linearGradient>
    <radialGradient id="glassOrb" cx="34%" cy="24%" r="68%">
      <stop offset="0%" stop-color="#ffffff" stop-opacity="0.94"/>
      <stop offset="34%" stop-color="#f9a8d4" stop-opacity="0.62"/>
      <stop offset="100%" stop-color="#5a1237" stop-opacity="0.22"/>
    </radialGradient>
    <linearGradient id="glassMountain" x1="0%" y1="0%" x2="100%" y2="100%">
      <stop offset="0%" stop-color="#ffffff" stop-opacity="0.48"/>
      <stop offset="100%" stop-color="#f9a8d4" stop-opacity="0.22"/>
    </linearGradient>
    <filter id="softGlow" x="-30%" y="-30%" width="160%" height="160%">
      <feGaussianBlur stdDeviation="18" result="blur"/>
      <feColorMatrix in="blur" type="matrix" values="1 0 0 0 0  0 1 0 0 0  0 0 1 0 0  0 0 0 0.75 0"/>
      <feMerge>
        <feMergeNode/>
        <feMergeNode in="SourceGraphic"/>
      </feMerge>
    </filter>
    <filter id="grain">
      <feTurbulence type="fractalNoise" baseFrequency="0.82" numOctaves="3" seed="940"/>
      <feColorMatrix type="saturate" values="0"/>
      <feComponentTransfer>
        <feFuncA type="table" tableValues="0 0.075"/>
      </feComponentTransfer>
    </filter>
  </defs>
  <rect width="1600" height="900" fill="url(#bgGlow)"/>
  <g opacity="0.72"><circle cx="521" cy="86" r="3.1" fill="#fbbf24" opacity="0.48" />
<circle cx="502" cy="805" r="2.0" fill="#fbbf24" opacity="0.67" />
<circle cx="483" cy="448" r="2.9" fill="#fbbf24" opacity="0.36" />
<circle cx="464" cy="267" r="1.8" fill="#fbbf24" opacity="0.55" />
<circle cx="597" cy="810" r="1.1" fill="#fbbf24" opacity="0.22" />
<circle cx="578" cy="629" r="2.4" fill="#fbbf24" opacity="0.41" />
<circle cx="559" cy="272" r="0.9" fill="#fbbf24" opacity="0.60" />
<circle cx="540" cy="91" r="2.2" fill="#fbbf24" opacity="0.29" />
<circle cx="673" cy="438" r="2.3" fill="#fbbf24" opacity="0.46" />
<circle cx="654" cy="257" r="1.2" fill="#fbbf24" opacity="0.65" />
<circle cx="498" cy="127" r="2.0" fill="#fbbf24" opacity="0.23" />
<circle cx="1221" cy="308" r="3.1" fill="#fbbf24" opacity="0.54" />
<circle cx="460" cy="665" r="1.8" fill="#fbbf24" opacity="0.35" />
<circle cx="479" cy="846" r="2.9" fill="#fbbf24" opacity="0.66" />
<circle cx="422" cy="851" r="2.4" fill="#fbbf24" opacity="0.47" />
<circle cx="441" cy="132" r="1.1" fill="#fbbf24" opacity="0.28" />
<circle cx="384" cy="489" r="2.2" fill="#fbbf24" opacity="0.59" />
<circle cx="403" cy="670" r="0.9" fill="#fbbf24" opacity="0.40" />
<circle cx="1354" cy="479" r="2.8" fill="#fbbf24" opacity="0.25" />
<circle cx="1373" cy="660" r="1.5" fill="#fbbf24" opacity="0.56" />
<circle cx="489" cy="572" r="2.3" fill="#fbbf24" opacity="0.64" />
<circle cx="470" cy="391" r="1.2" fill="#fbbf24" opacity="0.33" />
<circle cx="451" cy="210" r="2.1" fill="#fbbf24" opacity="0.26" />
<circle cx="432" cy="29" r="1.0" fill="#fbbf24" opacity="0.45" />
<circle cx="565" cy="396" r="2.7" fill="#fbbf24" opacity="0.40" />
<circle cx="546" cy="215" r="1.6" fill="#fbbf24" opacity="0.59" />
<circle cx="527" cy="34" r="2.5" fill="#fbbf24" opacity="0.52" />
<circle cx="508" cy="753" r="1.4" fill="#fbbf24" opacity="0.21" />
<circle cx="1345" cy="220" r="1.5" fill="#fbbf24" opacity="0.62" />
<circle cx="1326" cy="39" r="2.8" fill="#fbbf24" opacity="0.31" />
<circle cx="480" cy="781" r="1.4" fill="#fbbf24" opacity="0.23" />
<circle cx="499" cy="62" r="2.5" fill="#fbbf24" opacity="0.54" />
<circle cx="518" cy="243" r="1.6" fill="#fbbf24" opacity="0.61" />
<circle cx="537" cy="424" r="2.7" fill="#fbbf24" opacity="0.42" />
<circle cx="556" cy="605" r="1.0" fill="#fbbf24" opacity="0.47" />
<circle cx="575" cy="786" r="2.1" fill="#fbbf24" opacity="0.28" />
<circle cx="594" cy="67" r="1.2" fill="#fbbf24" opacity="0.35" />
<circle cx="613" cy="248" r="2.3" fill="#fbbf24" opacity="0.66" />
<circle cx="632" cy="429" r="3.0" fill="#fbbf24" opacity="0.21" />
<circle cx="651" cy="610" r="1.7" fill="#fbbf24" opacity="0.52" />
<circle cx="703" cy="822" r="1.7" fill="#fbbf24" opacity="0.50" />
<circle cx="684" cy="641" r="3.0" fill="#fbbf24" opacity="0.19" />
<circle cx="741" cy="284" r="1.9" fill="#fbbf24" opacity="0.38" />
<circle cx="722" cy="103" r="0.8" fill="#fbbf24" opacity="0.57" />
<circle cx="627" cy="646" r="1.3" fill="#fbbf24" opacity="0.26" />
<circle cx="608" cy="465" r="2.6" fill="#fbbf24" opacity="0.45" />
<circle cx="665" cy="108" r="1.5" fill="#fbbf24" opacity="0.64" />
<circle cx="646" cy="827" r="2.8" fill="#fbbf24" opacity="0.33" />
<circle cx="1559" cy="274" r="0.9" fill="#fbbf24" opacity="0.48" />
<circle cx="1540" cy="93" r="2.2" fill="#fbbf24" opacity="0.67" />
<circle cx="694" cy="363" r="2.4" fill="#fbbf24" opacity="0.59" />
<circle cx="713" cy="544" r="1.1" fill="#fbbf24" opacity="0.40" />
<circle cx="656" cy="1" r="2.2" fill="#fbbf24" opacity="0.21" />
<circle cx="675" cy="182" r="0.9" fill="#fbbf24" opacity="0.52" />
<circle cx="770" cy="539" r="2.0" fill="#fbbf24" opacity="0.35" />
<circle cx="789" cy="720" r="3.1" fill="#fbbf24" opacity="0.66" />
<circle cx="732" cy="177" r="1.8" fill="#fbbf24" opacity="0.47" />
<circle cx="751" cy="358" r="2.9" fill="#fbbf24" opacity="0.28" />
<circle cx="846" cy="11" r="1.6" fill="#fbbf24" opacity="0.57" />
<circle cx="1569" cy="192" r="2.7" fill="#fbbf24" opacity="0.38" />
<circle cx="461" cy="404" r="2.7" fill="#fbbf24" opacity="0.18" />
<circle cx="442" cy="223" r="1.6" fill="#fbbf24" opacity="0.37" />
<circle cx="423" cy="42" r="2.5" fill="#fbbf24" opacity="0.30" />
<circle cx="404" cy="761" r="1.4" fill="#fbbf24" opacity="0.49" />
<circle cx="385" cy="580" r="2.3" fill="#fbbf24" opacity="0.42" />
<circle cx="366" cy="399" r="1.2" fill="#fbbf24" opacity="0.61" />
<circle cx="347" cy="218" r="2.1" fill="#fbbf24" opacity="0.54" />
<circle cx="328" cy="37" r="1.0" fill="#fbbf24" opacity="0.23" /></g>
  <circle cx="507" cy="276" r="230" fill="#f9a8d4" opacity="0.08"/>
  <circle cx="1165" cy="657" r="275" fill="#fbbf24" opacity="0.08"/>
  <g filter="url(#softGlow)">
    
      <ellipse cx="800" cy="404" rx="34" ry="110" fill="#f9a8d4" opacity="0.42" transform="rotate(0 800 500)" />
<ellipse cx="800" cy="404" rx="34" ry="110" fill="#f9a8d4" opacity="0.42" transform="rotate(20 800 500)" />
<ellipse cx="800" cy="404" rx="34" ry="110" fill="#f9a8d4" opacity="0.42" transform="rotate(40 800 500)" />
<ellipse cx="800" cy="404" rx="34" ry="110" fill="#f9a8d4" opacity="0.42" transform="rotate(60 800 500)" />
<ellipse cx="800" cy="404" rx="34" ry="110" fill="#f9a8d4" opacity="0.42" transform="rotate(80 800 500)" />
<ellipse cx="800" cy="404" rx="34" ry="110" fill="#f9a8d4" opacity="0.42" transform="rotate(100 800 500)" />
<ellipse cx="800" cy="404" rx="34" ry="110" fill="#f9a8d4" opacity="0.42" transform="rotate(120 800 500)" />
<ellipse cx="800" cy="404" rx="34" ry="110" fill="#f9a8d4" opacity="0.42" transform="rotate(140 800 500)" />
<ellipse cx="800" cy="404" rx="34" ry="110" fill="#f9a8d4" opacity="0.42" transform="rotate(160 800 500)" />
<ellipse cx="800" cy="404" rx="34" ry="110" fill="#f9a8d4" opacity="0.42" transform="rotate(180 800 500)" />
<ellipse cx="800" cy="404" rx="34" ry="110" fill="#f9a8d4" opacity="0.42" transform="rotate(200 800 500)" />
<ellipse cx="800" cy="404" rx="34" ry="110" fill="#f9a8d4" opacity="0.42" transform="rotate(220 800 500)" />
<ellipse cx="800" cy="404" rx="34" ry="110" fill="#f9a8d4" opacity="0.42" transform="rotate(240 800 500)" />
<ellipse cx="800" cy="404" rx="34" ry="110" fill="#f9a8d4" opacity="0.42" transform="rotate(260 800 500)" />
<ellipse cx="800" cy="404" rx="34" ry="110" fill="#f9a8d4" opacity="0.42" transform="rotate(280 800 500)" />
<ellipse cx="800" cy="404" rx="34" ry="110" fill="#f9a8d4" opacity="0.42" transform="rotate(300 800 500)" />
<ellipse cx="800" cy="404" rx="34" ry="110" fill="#f9a8d4" opacity="0.42" transform="rotate(320 800 500)" />
<ellipse cx="800" cy="404" rx="34" ry="110" fill="#f9a8d4" opacity="0.42" transform="rotate(340 800 500)" />
      <ellipse cx="800" cy="438" rx="26" ry="82" fill="#fbbf24" opacity="0.5" transform="rotate(0 800 500)" />
<ellipse cx="800" cy="438" rx="26" ry="82" fill="#fbbf24" opacity="0.5" transform="rotate(30 800 500)" />
<ellipse cx="800" cy="438" rx="26" ry="82" fill="#fbbf24" opacity="0.5" transform="rotate(60 800 500)" />
<ellipse cx="800" cy="438" rx="26" ry="82" fill="#fbbf24" opacity="0.5" transform="rotate(90 800 500)" />
<ellipse cx="800" cy="438" rx="26" ry="82" fill="#fbbf24" opacity="0.5" transform="rotate(120 800 500)" />
<ellipse cx="800" cy="438" rx="26" ry="82" fill="#fbbf24" opacity="0.5" transform="rotate(150 800 500)" />
<ellipse cx="800" cy="438" rx="26" ry="82" fill="#fbbf24" opacity="0.5" transform="rotate(180 800 500)" />
<ellipse cx="800" cy="438" rx="26" ry="82" fill="#fbbf24" opacity="0.5" transform="rotate(210 800 500)" />
<ellipse cx="800" cy="438" rx="26" ry="82" fill="#fbbf24" opacity="0.5" transform="rotate(240 800 500)" />
<ellipse cx="800" cy="438" rx="26" ry="82" fill="#fbbf24" opacity="0.5" transform="rotate(270 800 500)" />
<ellipse cx="800" cy="438" rx="26" ry="82" fill="#fbbf24" opacity="0.5" transform="rotate(300 800 500)" />
<ellipse cx="800" cy="438" rx="26" ry="82" fill="#fbbf24" opacity="0.5" transform="rotate(330 800 500)" />
      <circle cx="800" cy="500" r="74" fill="url(#glassOrb)" opacity="0.92"/>
      <path d="M585 690 C680 590 920 590 1015 690 C890 735 710 735 585 690 Z" fill="#f9a8d4" opacity="0.32"/>
    
  </g>
  <g opacity="0.78">
    <rect x="88" y="82" width="1424" height="736" rx="46" fill="none" stroke="#ffffff" stroke-opacity="0.2" stroke-width="2"/>
    <path d="M150 150 C320 82 525 78 720 126" stroke="#fff7ed" stroke-opacity="0.44" stroke-width="7" stroke-linecap="round"/>
    <path d="M1332 710 C1215 775 1005 792 855 752" stroke="#f9a8d4" stroke-opacity="0.42" stroke-width="8" stroke-linecap="round"/>
  </g>
  <g transform="translate(126 714)">
    <rect width="420" height="86" rx="28" fill="#ffffff" opacity="0.12"/>
    <rect x="1" y="1" width="418" height="84" rx="27" fill="none" stroke="#ffffff" stroke-opacity="0.22"/>
    <text x="36" y="56" font-family="Georgia, 'Noto Serif Devanagari', serif" font-size="40" font-weight="700" fill="#fff7ed">कमल</text>
    <circle cx="352" cy="43" r="15" fill="#f9a8d4" opacity="0.9"/>
  </g>
  <rect width="1600" height="900" filter="url(#grain)" opacity="0.34"/>
</svg>
