<svg xmlns="http://www.w3.org/2000/svg" width="1600" height="900" viewBox="0 0 1600 900" role="img" aria-label="आदि शंकराचार्य: सनातन धर्म के महान पुनरुद्धारक और अद्वैत वेदांत के प्रणेता">
  <defs>
    <radialGradient id="bgGlow" cx="50%" cy="43%" r="75%">
      <stop offset="0%" stop-color="#fcd34d" stop-opacity="0.46"/>
      <stop offset="45%" stop-color="#5b3311" stop-opacity="0.92"/>
      <stop offset="100%" stop-color="#201104"/>
    </radialGradient>
    <linearGradient id="glassPanel" x1="0%" y1="0%" x2="100%" y2="100%">
      <stop offset="0%" stop-color="#ffffff" stop-opacity="0.58"/>
      <stop offset="42%" stop-color="#fcd34d" stop-opacity="0.22"/>
      <stop offset="100%" stop-color="#ffffff" stop-opacity="0.08"/>
    </linearGradient>
    <radialGradient id="glassOrb" cx="34%" cy="24%" r="68%">
      <stop offset="0%" stop-color="#ffffff" stop-opacity="0.94"/>
      <stop offset="34%" stop-color="#fcd34d" stop-opacity="0.62"/>
      <stop offset="100%" stop-color="#5b3311" stop-opacity="0.22"/>
    </radialGradient>
    <linearGradient id="glassMountain" x1="0%" y1="0%" x2="100%" y2="100%">
      <stop offset="0%" stop-color="#ffffff" stop-opacity="0.48"/>
      <stop offset="100%" stop-color="#fcd34d" stop-opacity="0.22"/>
    </linearGradient>
    <filter id="softGlow" x="-30%" y="-30%" width="160%" height="160%">
      <feGaussianBlur stdDeviation="18" result="blur"/>
      <feColorMatrix in="blur" type="matrix" values="1 0 0 0 0  0 1 0 0 0  0 0 1 0 0  0 0 0 0.75 0"/>
      <feMerge>
        <feMergeNode/>
        <feMergeNode in="SourceGraphic"/>
      </feMerge>
    </filter>
    <filter id="grain">
      <feTurbulence type="fractalNoise" baseFrequency="0.82" numOctaves="3" seed="430"/>
      <feColorMatrix type="saturate" values="0"/>
      <feComponentTransfer>
        <feFuncA type="table" tableValues="0 0.075"/>
      </feComponentTransfer>
    </filter>
  </defs>
  <rect width="1600" height="900" fill="url(#bgGlow)"/>
  <g opacity="0.72"><circle cx="1000" cy="95" r="2.6" fill="#fb923c" opacity="0.55" />
<circle cx="1019" cy="276" r="1.3" fill="#fb923c" opacity="0.36" />
<circle cx="1038" cy="633" r="2.8" fill="#fb923c" opacity="0.67" />
<circle cx="1057" cy="814" r="1.5" fill="#fb923c" opacity="0.48" />
<circle cx="1076" cy="819" r="3.0" fill="#fb923c" opacity="0.29" />
<circle cx="1095" cy="100" r="1.7" fill="#fb923c" opacity="0.60" />
<circle cx="1114" cy="457" r="0.8" fill="#fb923c" opacity="0.41" />
<circle cx="1133" cy="638" r="1.9" fill="#fb923c" opacity="0.22" />
<circle cx="848" cy="643" r="1.0" fill="#fb923c" opacity="0.57" />
<circle cx="867" cy="824" r="2.1" fill="#fb923c" opacity="0.38" />
<circle cx="1425" cy="260" r="1.5" fill="#fb923c" opacity="0.52" />
<circle cx="1406" cy="79" r="2.8" fill="#fb923c" opacity="0.21" />
<circle cx="1387" cy="798" r="1.3" fill="#fb923c" opacity="0.64" />
<circle cx="1368" cy="617" r="2.6" fill="#fb923c" opacity="0.33" />
<circle cx="1501" cy="84" r="1.9" fill="#fb923c" opacity="0.28" />
<circle cx="1482" cy="803" r="0.8" fill="#fb923c" opacity="0.47" />
<circle cx="1463" cy="622" r="1.7" fill="#fb923c" opacity="0.40" />
<circle cx="1444" cy="441" r="3.0" fill="#fb923c" opacity="0.59" />
<circle cx="1273" cy="612" r="2.3" fill="#fb923c" opacity="0.54" />
<circle cx="1254" cy="431" r="1.2" fill="#fb923c" opacity="0.23" />
<circle cx="666" cy="887" r="1.2" fill="#fb923c" opacity="0.19" />
<circle cx="685" cy="168" r="2.3" fill="#fb923c" opacity="0.50" />
<circle cx="628" cy="525" r="1.0" fill="#fb923c" opacity="0.31" />
<circle cx="647" cy="706" r="2.1" fill="#fb923c" opacity="0.62" />
<circle cx="590" cy="711" r="1.6" fill="#fb923c" opacity="0.43" />
<circle cx="609" cy="892" r="2.7" fill="#fb923c" opacity="0.24" />
<circle cx="552" cy="349" r="1.4" fill="#fb923c" opacity="0.55" />
<circle cx="571" cy="530" r="2.5" fill="#fb923c" opacity="0.36" />
<circle cx="514" cy="535" r="2.8" fill="#fb923c" opacity="0.67" />
<circle cx="533" cy="716" r="1.5" fill="#fb923c" opacity="0.48" />
<circle cx="67" cy="678" r="2.9" fill="#fb923c" opacity="0.60" />
<circle cx="48" cy="497" r="1.8" fill="#fb923c" opacity="0.29" />
<circle cx="105" cy="140" r="3.1" fill="#fb923c" opacity="0.48" />
<circle cx="86" cy="859" r="2.0" fill="#fb923c" opacity="0.67" />
<circle cx="143" cy="854" r="0.9" fill="#fb923c" opacity="0.34" />
<circle cx="124" cy="673" r="2.2" fill="#fb923c" opacity="0.53" />
<circle cx="181" cy="316" r="1.1" fill="#fb923c" opacity="0.22" />
<circle cx="162" cy="135" r="2.4" fill="#fb923c" opacity="0.41" />
<circle cx="219" cy="326" r="2.1" fill="#fb923c" opacity="0.54" />
<circle cx="200" cy="145" r="1.0" fill="#fb923c" opacity="0.27" />
<circle cx="76" cy="809" r="2.6" fill="#fb923c" opacity="0.51" />
<circle cx="95" cy="90" r="1.3" fill="#fb923c" opacity="0.32" />
<circle cx="114" cy="271" r="2.8" fill="#fb923c" opacity="0.39" />
<circle cx="133" cy="452" r="1.5" fill="#fb923c" opacity="0.20" />
<circle cx="0" cy="85" r="3.0" fill="#fb923c" opacity="0.27" />
<circle cx="19" cy="266" r="1.7" fill="#fb923c" opacity="0.58" />
<circle cx="38" cy="447" r="0.8" fill="#fb923c" opacity="0.65" />
<circle cx="57" cy="628" r="1.9" fill="#fb923c" opacity="0.46" />
<circle cx="228" cy="457" r="1.0" fill="#fb923c" opacity="0.45" />
<circle cx="247" cy="638" r="2.1" fill="#fb923c" opacity="0.26" />
<circle cx="21" cy="264" r="1.9" fill="#fb923c" opacity="0.38" />
<circle cx="2" cy="83" r="0.8" fill="#fb923c" opacity="0.57" />
<circle cx="1583" cy="802" r="1.7" fill="#fb923c" opacity="0.50" />
<circle cx="1564" cy="621" r="3.0" fill="#fb923c" opacity="0.19" />
<circle cx="1545" cy="440" r="1.5" fill="#fb923c" opacity="0.62" />
<circle cx="1526" cy="259" r="2.8" fill="#fb923c" opacity="0.31" />
<circle cx="1507" cy="78" r="1.3" fill="#fb923c" opacity="0.24" />
<circle cx="1488" cy="797" r="2.6" fill="#fb923c" opacity="0.43" />
<circle cx="173" cy="812" r="1.1" fill="#fb923c" opacity="0.44" />
<circle cx="154" cy="631" r="2.4" fill="#fb923c" opacity="0.63" />
<circle cx="30" cy="719" r="1.6" fill="#fb923c" opacity="0.47" />
<circle cx="49" cy="0" r="2.7" fill="#fb923c" opacity="0.28" />
<circle cx="1592" cy="357" r="1.4" fill="#fb923c" opacity="0.59" />
<circle cx="11" cy="538" r="2.5" fill="#fb923c" opacity="0.40" />
<circle cx="106" cy="895" r="1.2" fill="#fb923c" opacity="0.23" />
<circle cx="125" cy="176" r="2.3" fill="#fb923c" opacity="0.54" />
<circle cx="68" cy="533" r="1.0" fill="#fb923c" opacity="0.35" />
<circle cx="87" cy="714" r="2.1" fill="#fb923c" opacity="0.66" /></g>
  <circle cx="434" cy="305" r="230" fill="#fcd34d" opacity="0.08"/>
  <circle cx="1196" cy="712" r="275" fill="#fb923c" opacity="0.08"/>
  <g filter="url(#softGlow)">
    
      <path d="M520 300 h560 a44 44 0 0 1 44 44 v280 a44 44 0 0 1 -44 44 H520 a44 44 0 0 1 -44 -44 V344 a44 44 0 0 1 44 -44 Z" fill="url(#glassPanel)" opacity="0.72"/>
      <path d="M800 320 v330" stroke="#fff7ed" stroke-width="9" opacity="0.48"/>
      <path d="M555 380 h185" stroke="#fb923c" stroke-width="10" stroke-linecap="round" opacity="0.35" />
<path d="M555 416 h185" stroke="#fb923c" stroke-width="10" stroke-linecap="round" opacity="0.385" />
<path d="M555 452 h185" stroke="#fb923c" stroke-width="10" stroke-linecap="round" opacity="0.42" />
<path d="M555 488 h185" stroke="#fb923c" stroke-width="10" stroke-linecap="round" opacity="0.45499999999999996" />
<path d="M555 524 h185" stroke="#fb923c" stroke-width="10" stroke-linecap="round" opacity="0.49" />
<path d="M555 560 h185" stroke="#fb923c" stroke-width="10" stroke-linecap="round" opacity="0.525" />
<path d="M555 596 h185" stroke="#fb923c" stroke-width="10" stroke-linecap="round" opacity="0.56" />
      <path d="M865 380 h185" stroke="#fcd34d" stroke-width="10" stroke-linecap="round" opacity="0.35" />
<path d="M865 416 h185" stroke="#fcd34d" stroke-width="10" stroke-linecap="round" opacity="0.385" />
<path d="M865 452 h185" stroke="#fcd34d" stroke-width="10" stroke-linecap="round" opacity="0.42" />
<path d="M865 488 h185" stroke="#fcd34d" stroke-width="10" stroke-linecap="round" opacity="0.45499999999999996" />
<path d="M865 524 h185" stroke="#fcd34d" stroke-width="10" stroke-linecap="round" opacity="0.49" />
<path d="M865 560 h185" stroke="#fcd34d" stroke-width="10" stroke-linecap="round" opacity="0.525" />
<path d="M865 596 h185" stroke="#fcd34d" stroke-width="10" stroke-linecap="round" opacity="0.56" />
    
  </g>
  <g opacity="0.78">
    <rect x="88" y="82" width="1424" height="736" rx="46" fill="none" stroke="#ffffff" stroke-opacity="0.2" stroke-width="2"/>
    <path d="M150 150 C320 82 525 78 720 126" stroke="#fff7ed" stroke-opacity="0.44" stroke-width="7" stroke-linecap="round"/>
    <path d="M1332 710 C1215 775 1005 792 855 752" stroke="#fcd34d" stroke-opacity="0.42" stroke-width="8" stroke-linecap="round"/>
  </g>
  <g transform="translate(126 714)">
    <rect width="420" height="86" rx="28" fill="#ffffff" opacity="0.12"/>
    <rect x="1" y="1" width="418" height="84" rx="27" fill="none" stroke="#ffffff" stroke-opacity="0.22"/>
    <text x="36" y="56" font-family="Georgia, 'Noto Serif Devanagari', serif" font-size="40" font-weight="700" fill="#fff7ed">ग्रंथ</text>
    <circle cx="352" cy="43" r="15" fill="#fcd34d" opacity="0.9"/>
  </g>
  <rect width="1600" height="900" filter="url(#grain)" opacity="0.34"/>
</svg>
