<svg xmlns="http://www.w3.org/2000/svg" width="1600" height="900" viewBox="0 0 1600 900" role="img" aria-label="अद्वैत और द्वैत वेदांत में मुख्य अंतर: आत्मा, परमात्मा और प्रकृति का संबंध, शंकराचार्य बनाम मध्वाचार्य दर्शन की समीक्षा">
  <defs>
    <radialGradient id="bgGlow" cx="50%" cy="43%" r="75%">
      <stop offset="0%" stop-color="#fcd34d" stop-opacity="0.46"/>
      <stop offset="45%" stop-color="#5b3311" stop-opacity="0.92"/>
      <stop offset="100%" stop-color="#201104"/>
    </radialGradient>
    <linearGradient id="glassPanel" x1="0%" y1="0%" x2="100%" y2="100%">
      <stop offset="0%" stop-color="#ffffff" stop-opacity="0.58"/>
      <stop offset="42%" stop-color="#fcd34d" stop-opacity="0.22"/>
      <stop offset="100%" stop-color="#ffffff" stop-opacity="0.08"/>
    </linearGradient>
    <radialGradient id="glassOrb" cx="34%" cy="24%" r="68%">
      <stop offset="0%" stop-color="#ffffff" stop-opacity="0.94"/>
      <stop offset="34%" stop-color="#fcd34d" stop-opacity="0.62"/>
      <stop offset="100%" stop-color="#5b3311" stop-opacity="0.22"/>
    </radialGradient>
    <linearGradient id="glassMountain" x1="0%" y1="0%" x2="100%" y2="100%">
      <stop offset="0%" stop-color="#ffffff" stop-opacity="0.48"/>
      <stop offset="100%" stop-color="#fcd34d" stop-opacity="0.22"/>
    </linearGradient>
    <filter id="softGlow" x="-30%" y="-30%" width="160%" height="160%">
      <feGaussianBlur stdDeviation="18" result="blur"/>
      <feColorMatrix in="blur" type="matrix" values="1 0 0 0 0  0 1 0 0 0  0 0 1 0 0  0 0 0 0.75 0"/>
      <feMerge>
        <feMergeNode/>
        <feMergeNode in="SourceGraphic"/>
      </feMerge>
    </filter>
    <filter id="grain">
      <feTurbulence type="fractalNoise" baseFrequency="0.82" numOctaves="3" seed="27"/>
      <feColorMatrix type="saturate" values="0"/>
      <feComponentTransfer>
        <feFuncA type="table" tableValues="0 0.075"/>
      </feComponentTransfer>
    </filter>
  </defs>
  <rect width="1600" height="900" fill="url(#bgGlow)"/>
  <g opacity="0.72"><circle cx="548" cy="371" r="1.4" fill="#fb923c" opacity="0.61" />
<circle cx="567" cy="552" r="2.5" fill="#fb923c" opacity="0.42" />
<circle cx="586" cy="9" r="1.6" fill="#fb923c" opacity="0.23" />
<circle cx="605" cy="190" r="2.7" fill="#fb923c" opacity="0.54" />
<circle cx="472" cy="547" r="1.0" fill="#fb923c" opacity="0.37" />
<circle cx="491" cy="728" r="2.1" fill="#fb923c" opacity="0.18" />
<circle cx="510" cy="185" r="1.2" fill="#fb923c" opacity="0.49" />
<circle cx="529" cy="366" r="2.3" fill="#fb923c" opacity="0.30" />
<circle cx="396" cy="723" r="3.0" fill="#fb923c" opacity="0.63" />
<circle cx="415" cy="4" r="1.7" fill="#fb923c" opacity="0.44" />
<circle cx="197" cy="404" r="2.7" fill="#fb923c" opacity="0.62" />
<circle cx="178" cy="223" r="1.6" fill="#fb923c" opacity="0.31" />
<circle cx="159" cy="42" r="2.5" fill="#fb923c" opacity="0.24" />
<circle cx="140" cy="761" r="1.4" fill="#fb923c" opacity="0.43" />
<circle cx="121" cy="580" r="2.3" fill="#fb923c" opacity="0.36" />
<circle cx="102" cy="399" r="1.2" fill="#fb923c" opacity="0.55" />
<circle cx="83" cy="218" r="2.1" fill="#fb923c" opacity="0.48" />
<circle cx="64" cy="37" r="1.0" fill="#fb923c" opacity="0.67" />
<circle cx="349" cy="756" r="1.1" fill="#fb923c" opacity="0.64" />
<circle cx="330" cy="575" r="2.4" fill="#fb923c" opacity="0.33" />
<circle cx="1038" cy="467" r="2.4" fill="#fb923c" opacity="0.53" />
<circle cx="1057" cy="648" r="1.1" fill="#fb923c" opacity="0.34" />
<circle cx="1000" cy="105" r="2.2" fill="#fb923c" opacity="0.65" />
<circle cx="1019" cy="286" r="0.9" fill="#fb923c" opacity="0.46" />
<circle cx="1114" cy="643" r="2.0" fill="#fb923c" opacity="0.29" />
<circle cx="1133" cy="824" r="3.1" fill="#fb923c" opacity="0.60" />
<circle cx="1076" cy="281" r="1.8" fill="#fb923c" opacity="0.41" />
<circle cx="1095" cy="462" r="2.9" fill="#fb923c" opacity="0.22" />
<circle cx="886" cy="115" r="1.6" fill="#fb923c" opacity="0.55" />
<circle cx="905" cy="296" r="2.7" fill="#fb923c" opacity="0.36" />
<circle cx="1047" cy="258" r="1.7" fill="#fb923c" opacity="0.44" />
<circle cx="1028" cy="77" r="3.0" fill="#fb923c" opacity="0.63" />
<circle cx="1085" cy="620" r="1.9" fill="#fb923c" opacity="0.32" />
<circle cx="1066" cy="439" r="0.8" fill="#fb923c" opacity="0.51" />
<circle cx="971" cy="82" r="1.3" fill="#fb923c" opacity="0.20" />
<circle cx="952" cy="801" r="2.6" fill="#fb923c" opacity="0.39" />
<circle cx="1009" cy="444" r="1.5" fill="#fb923c" opacity="0.58" />
<circle cx="990" cy="263" r="2.8" fill="#fb923c" opacity="0.27" />
<circle cx="895" cy="610" r="0.9" fill="#fb923c" opacity="0.46" />
<circle cx="876" cy="429" r="2.2" fill="#fb923c" opacity="0.65" />
<circle cx="824" cy="885" r="3.0" fill="#fb923c" opacity="0.67" />
<circle cx="843" cy="166" r="1.7" fill="#fb923c" opacity="0.48" />
<circle cx="862" cy="347" r="0.8" fill="#fb923c" opacity="0.55" />
<circle cx="881" cy="528" r="1.9" fill="#fb923c" opacity="0.36" />
<circle cx="900" cy="709" r="2.6" fill="#fb923c" opacity="0.41" />
<circle cx="919" cy="890" r="1.3" fill="#fb923c" opacity="0.22" />
<circle cx="938" cy="171" r="2.8" fill="#fb923c" opacity="0.29" />
<circle cx="957" cy="352" r="1.5" fill="#fb923c" opacity="0.60" />
<circle cx="672" cy="533" r="2.2" fill="#fb923c" opacity="0.19" />
<circle cx="691" cy="714" r="0.9" fill="#fb923c" opacity="0.50" />
<circle cx="833" cy="676" r="2.3" fill="#fb923c" opacity="0.58" />
<circle cx="814" cy="495" r="1.2" fill="#fb923c" opacity="0.27" />
<circle cx="795" cy="314" r="2.1" fill="#fb923c" opacity="0.20" />
<circle cx="776" cy="133" r="1.0" fill="#fb923c" opacity="0.39" />
<circle cx="909" cy="500" r="2.7" fill="#fb923c" opacity="0.34" />
<circle cx="890" cy="319" r="1.6" fill="#fb923c" opacity="0.53" />
<circle cx="871" cy="138" r="2.5" fill="#fb923c" opacity="0.46" />
<circle cx="852" cy="857" r="1.4" fill="#fb923c" opacity="0.65" />
<circle cx="681" cy="324" r="1.5" fill="#fb923c" opacity="0.60" />
<circle cx="662" cy="143" r="2.8" fill="#fb923c" opacity="0.29" />
<circle cx="842" cy="127" r="1.2" fill="#fb923c" opacity="0.21" />
<circle cx="861" cy="308" r="2.3" fill="#fb923c" opacity="0.52" />
<circle cx="804" cy="665" r="1.0" fill="#fb923c" opacity="0.33" />
<circle cx="823" cy="846" r="2.1" fill="#fb923c" opacity="0.64" />
<circle cx="766" cy="851" r="1.6" fill="#fb923c" opacity="0.45" />
<circle cx="785" cy="132" r="2.7" fill="#fb923c" opacity="0.26" />
<circle cx="728" cy="489" r="1.4" fill="#fb923c" opacity="0.57" />
<circle cx="747" cy="670" r="2.5" fill="#fb923c" opacity="0.38" /></g>
  <circle cx="506" cy="277" r="230" fill="#fcd34d" opacity="0.08"/>
  <circle cx="1168" cy="676" r="275" fill="#fb923c" opacity="0.08"/>
  <g filter="url(#softGlow)">
    
      <path d="M520 300 h560 a44 44 0 0 1 44 44 v280 a44 44 0 0 1 -44 44 H520 a44 44 0 0 1 -44 -44 V344 a44 44 0 0 1 44 -44 Z" fill="url(#glassPanel)" opacity="0.72"/>
      <path d="M800 320 v330" stroke="#fff7ed" stroke-width="9" opacity="0.48"/>
      <path d="M555 380 h185" stroke="#fb923c" stroke-width="10" stroke-linecap="round" opacity="0.35" />
<path d="M555 416 h185" stroke="#fb923c" stroke-width="10" stroke-linecap="round" opacity="0.385" />
<path d="M555 452 h185" stroke="#fb923c" stroke-width="10" stroke-linecap="round" opacity="0.42" />
<path d="M555 488 h185" stroke="#fb923c" stroke-width="10" stroke-linecap="round" opacity="0.45499999999999996" />
<path d="M555 524 h185" stroke="#fb923c" stroke-width="10" stroke-linecap="round" opacity="0.49" />
<path d="M555 560 h185" stroke="#fb923c" stroke-width="10" stroke-linecap="round" opacity="0.525" />
<path d="M555 596 h185" stroke="#fb923c" stroke-width="10" stroke-linecap="round" opacity="0.56" />
      <path d="M865 380 h185" stroke="#fcd34d" stroke-width="10" stroke-linecap="round" opacity="0.35" />
<path d="M865 416 h185" stroke="#fcd34d" stroke-width="10" stroke-linecap="round" opacity="0.385" />
<path d="M865 452 h185" stroke="#fcd34d" stroke-width="10" stroke-linecap="round" opacity="0.42" />
<path d="M865 488 h185" stroke="#fcd34d" stroke-width="10" stroke-linecap="round" opacity="0.45499999999999996" />
<path d="M865 524 h185" stroke="#fcd34d" stroke-width="10" stroke-linecap="round" opacity="0.49" />
<path d="M865 560 h185" stroke="#fcd34d" stroke-width="10" stroke-linecap="round" opacity="0.525" />
<path d="M865 596 h185" stroke="#fcd34d" stroke-width="10" stroke-linecap="round" opacity="0.56" />
    
  </g>
  <g opacity="0.78">
    <rect x="88" y="82" width="1424" height="736" rx="46" fill="none" stroke="#ffffff" stroke-opacity="0.2" stroke-width="2"/>
    <path d="M150 150 C320 82 525 78 720 126" stroke="#fff7ed" stroke-opacity="0.44" stroke-width="7" stroke-linecap="round"/>
    <path d="M1332 710 C1215 775 1005 792 855 752" stroke="#fcd34d" stroke-opacity="0.42" stroke-width="8" stroke-linecap="round"/>
  </g>
  <g transform="translate(126 714)">
    <rect width="420" height="86" rx="28" fill="#ffffff" opacity="0.12"/>
    <rect x="1" y="1" width="418" height="84" rx="27" fill="none" stroke="#ffffff" stroke-opacity="0.22"/>
    <text x="36" y="56" font-family="Georgia, 'Noto Serif Devanagari', serif" font-size="40" font-weight="700" fill="#fff7ed">ग्रंथ</text>
    <circle cx="352" cy="43" r="15" fill="#fcd34d" opacity="0.9"/>
  </g>
  <rect width="1600" height="900" filter="url(#grain)" opacity="0.34"/>
</svg>
