<svg xmlns="http://www.w3.org/2000/svg" width="1600" height="900" viewBox="0 0 1600 900" role="img" aria-label="अमरनाथ गुफा: प्राकृतिक हिमलिंग की कथा और कबूतरों का रहस्य">
  <defs>
    <radialGradient id="bgGlow" cx="50%" cy="43%" r="75%">
      <stop offset="0%" stop-color="#c4b5fd" stop-opacity="0.46"/>
      <stop offset="45%" stop-color="#3a2267" stop-opacity="0.92"/>
      <stop offset="100%" stop-color="#130b2a"/>
    </radialGradient>
    <linearGradient id="glassPanel" x1="0%" y1="0%" x2="100%" y2="100%">
      <stop offset="0%" stop-color="#ffffff" stop-opacity="0.58"/>
      <stop offset="42%" stop-color="#c4b5fd" stop-opacity="0.22"/>
      <stop offset="100%" stop-color="#ffffff" stop-opacity="0.08"/>
    </linearGradient>
    <radialGradient id="glassOrb" cx="34%" cy="24%" r="68%">
      <stop offset="0%" stop-color="#ffffff" stop-opacity="0.94"/>
      <stop offset="34%" stop-color="#c4b5fd" stop-opacity="0.62"/>
      <stop offset="100%" stop-color="#3a2267" stop-opacity="0.22"/>
    </radialGradient>
    <linearGradient id="glassMountain" x1="0%" y1="0%" x2="100%" y2="100%">
      <stop offset="0%" stop-color="#ffffff" stop-opacity="0.48"/>
      <stop offset="100%" stop-color="#c4b5fd" stop-opacity="0.22"/>
    </linearGradient>
    <filter id="softGlow" x="-30%" y="-30%" width="160%" height="160%">
      <feGaussianBlur stdDeviation="18" result="blur"/>
      <feColorMatrix in="blur" type="matrix" values="1 0 0 0 0  0 1 0 0 0  0 0 1 0 0  0 0 0 0.75 0"/>
      <feMerge>
        <feMergeNode/>
        <feMergeNode in="SourceGraphic"/>
      </feMerge>
    </filter>
    <filter id="grain">
      <feTurbulence type="fractalNoise" baseFrequency="0.82" numOctaves="3" seed="892"/>
      <feColorMatrix type="saturate" values="0"/>
      <feComponentTransfer>
        <feFuncA type="table" tableValues="0 0.075"/>
      </feComponentTransfer>
    </filter>
  </defs>
  <rect width="1600" height="900" fill="url(#bgGlow)"/>
  <g opacity="0.72"><circle cx="1204" cy="115" r="2.2" fill="#fcd34d" opacity="0.35" />
<circle cx="1223" cy="296" r="0.9" fill="#fcd34d" opacity="0.66" />
<circle cx="1242" cy="653" r="2.4" fill="#fcd34d" opacity="0.47" />
<circle cx="1261" cy="834" r="1.1" fill="#fcd34d" opacity="0.28" />
<circle cx="1128" cy="291" r="1.8" fill="#fcd34d" opacity="0.61" />
<circle cx="1147" cy="472" r="2.9" fill="#fcd34d" opacity="0.42" />
<circle cx="1166" cy="829" r="2.0" fill="#fcd34d" opacity="0.23" />
<circle cx="1185" cy="110" r="3.1" fill="#fcd34d" opacity="0.54" />
<circle cx="1052" cy="467" r="1.4" fill="#fcd34d" opacity="0.37" />
<circle cx="1071" cy="648" r="2.5" fill="#fcd34d" opacity="0.18" />
<circle cx="533" cy="364" r="1.1" fill="#fcd34d" opacity="0.32" />
<circle cx="514" cy="183" r="2.4" fill="#fcd34d" opacity="0.51" />
<circle cx="495" cy="2" r="0.9" fill="#fcd34d" opacity="0.44" />
<circle cx="476" cy="721" r="2.2" fill="#fcd34d" opacity="0.63" />
<circle cx="457" cy="540" r="3.1" fill="#fcd34d" opacity="0.56" />
<circle cx="438" cy="359" r="2.0" fill="#fcd34d" opacity="0.25" />
<circle cx="419" cy="178" r="2.9" fill="#fcd34d" opacity="0.18" />
<circle cx="400" cy="897" r="1.8" fill="#fcd34d" opacity="0.37" />
<circle cx="685" cy="716" r="1.9" fill="#fcd34d" opacity="0.34" />
<circle cx="666" cy="535" r="0.8" fill="#fcd34d" opacity="0.53" />
<circle cx="542" cy="427" r="0.8" fill="#fcd34d" opacity="0.23" />
<circle cx="561" cy="608" r="1.9" fill="#fcd34d" opacity="0.54" />
<circle cx="504" cy="65" r="3.0" fill="#fcd34d" opacity="0.35" />
<circle cx="523" cy="246" r="1.7" fill="#fcd34d" opacity="0.66" />
<circle cx="618" cy="603" r="2.8" fill="#fcd34d" opacity="0.49" />
<circle cx="637" cy="784" r="1.5" fill="#fcd34d" opacity="0.30" />
<circle cx="580" cy="241" r="2.6" fill="#fcd34d" opacity="0.61" />
<circle cx="599" cy="422" r="1.3" fill="#fcd34d" opacity="0.42" />
<circle cx="390" cy="75" r="2.4" fill="#fcd34d" opacity="0.25" />
<circle cx="409" cy="256" r="1.1" fill="#fcd34d" opacity="0.56" />
<circle cx="551" cy="218" r="2.5" fill="#fcd34d" opacity="0.64" />
<circle cx="532" cy="37" r="1.4" fill="#fcd34d" opacity="0.33" />
<circle cx="589" cy="580" r="2.7" fill="#fcd34d" opacity="0.52" />
<circle cx="570" cy="399" r="1.6" fill="#fcd34d" opacity="0.21" />
<circle cx="475" cy="42" r="2.1" fill="#fcd34d" opacity="0.40" />
<circle cx="456" cy="761" r="1.0" fill="#fcd34d" opacity="0.59" />
<circle cx="513" cy="404" r="2.3" fill="#fcd34d" opacity="0.28" />
<circle cx="494" cy="223" r="1.2" fill="#fcd34d" opacity="0.47" />
<circle cx="399" cy="570" r="1.7" fill="#fcd34d" opacity="0.66" />
<circle cx="380" cy="389" r="3.0" fill="#fcd34d" opacity="0.35" />
<circle cx="328" cy="177" r="1.4" fill="#fcd34d" opacity="0.37" />
<circle cx="347" cy="358" r="2.5" fill="#fcd34d" opacity="0.18" />
<circle cx="366" cy="539" r="1.6" fill="#fcd34d" opacity="0.25" />
<circle cx="385" cy="720" r="2.7" fill="#fcd34d" opacity="0.56" />
<circle cx="404" cy="1" r="1.0" fill="#fcd34d" opacity="0.61" />
<circle cx="423" cy="182" r="2.1" fill="#fcd34d" opacity="0.42" />
<circle cx="442" cy="363" r="1.2" fill="#fcd34d" opacity="0.49" />
<circle cx="461" cy="544" r="2.3" fill="#fcd34d" opacity="0.30" />
<circle cx="176" cy="725" r="3.0" fill="#fcd34d" opacity="0.39" />
<circle cx="195" cy="6" r="1.7" fill="#fcd34d" opacity="0.20" />
<circle cx="337" cy="636" r="3.1" fill="#fcd34d" opacity="0.46" />
<circle cx="318" cy="455" r="2.0" fill="#fcd34d" opacity="0.65" />
<circle cx="299" cy="274" r="2.9" fill="#fcd34d" opacity="0.58" />
<circle cx="280" cy="93" r="1.8" fill="#fcd34d" opacity="0.27" />
<circle cx="413" cy="460" r="1.1" fill="#fcd34d" opacity="0.22" />
<circle cx="394" cy="279" r="2.4" fill="#fcd34d" opacity="0.41" />
<circle cx="375" cy="98" r="0.9" fill="#fcd34d" opacity="0.34" />
<circle cx="356" cy="817" r="2.2" fill="#fcd34d" opacity="0.53" />
<circle cx="185" cy="284" r="2.3" fill="#fcd34d" opacity="0.48" />
<circle cx="166" cy="103" r="1.2" fill="#fcd34d" opacity="0.67" />
<circle cx="282" cy="87" r="2.8" fill="#fcd34d" opacity="0.45" />
<circle cx="301" cy="268" r="1.5" fill="#fcd34d" opacity="0.26" />
<circle cx="244" cy="625" r="2.6" fill="#fcd34d" opacity="0.57" />
<circle cx="263" cy="806" r="1.3" fill="#fcd34d" opacity="0.38" />
<circle cx="206" cy="811" r="0.8" fill="#fcd34d" opacity="0.19" />
<circle cx="225" cy="92" r="1.9" fill="#fcd34d" opacity="0.50" />
<circle cx="168" cy="449" r="3.0" fill="#fcd34d" opacity="0.31" />
<circle cx="187" cy="630" r="1.7" fill="#fcd34d" opacity="0.62" /></g>
  <circle cx="458" cy="309" r="230" fill="#c4b5fd" opacity="0.08"/>
  <circle cx="1120" cy="628" r="275" fill="#fcd34d" opacity="0.08"/>
  <g filter="url(#softGlow)">
    
    <ellipse cx="800" cy="285" rx="16" ry="90" fill="#c4b5fd" opacity="0.22" transform="rotate(0 800 460)" />
<ellipse cx="800" cy="285" rx="16" ry="90" fill="#c4b5fd" opacity="0.22" transform="rotate(11.25 800 460)" />
<ellipse cx="800" cy="285" rx="16" ry="90" fill="#c4b5fd" opacity="0.22" transform="rotate(22.5 800 460)" />
<ellipse cx="800" cy="285" rx="16" ry="90" fill="#c4b5fd" opacity="0.22" transform="rotate(33.75 800 460)" />
<ellipse cx="800" cy="285" rx="16" ry="90" fill="#c4b5fd" opacity="0.22" transform="rotate(45 800 460)" />
<ellipse cx="800" cy="285" rx="16" ry="90" fill="#c4b5fd" opacity="0.22" transform="rotate(56.25 800 460)" />
<ellipse cx="800" cy="285" rx="16" ry="90" fill="#c4b5fd" opacity="0.22" transform="rotate(67.5 800 460)" />
<ellipse cx="800" cy="285" rx="16" ry="90" fill="#c4b5fd" opacity="0.22" transform="rotate(78.75 800 460)" />
<ellipse cx="800" cy="285" rx="16" ry="90" fill="#c4b5fd" opacity="0.22" transform="rotate(90 800 460)" />
<ellipse cx="800" cy="285" rx="16" ry="90" fill="#c4b5fd" opacity="0.22" transform="rotate(101.25 800 460)" />
<ellipse cx="800" cy="285" rx="16" ry="90" fill="#c4b5fd" opacity="0.22" transform="rotate(112.5 800 460)" />
<ellipse cx="800" cy="285" rx="16" ry="90" fill="#c4b5fd" opacity="0.22" transform="rotate(123.75 800 460)" />
<ellipse cx="800" cy="285" rx="16" ry="90" fill="#c4b5fd" opacity="0.22" transform="rotate(135 800 460)" />
<ellipse cx="800" cy="285" rx="16" ry="90" fill="#c4b5fd" opacity="0.22" transform="rotate(146.25 800 460)" />
<ellipse cx="800" cy="285" rx="16" ry="90" fill="#c4b5fd" opacity="0.22" transform="rotate(157.5 800 460)" />
<ellipse cx="800" cy="285" rx="16" ry="90" fill="#c4b5fd" opacity="0.22" transform="rotate(168.75 800 460)" />
<ellipse cx="800" cy="285" rx="16" ry="90" fill="#c4b5fd" opacity="0.22" transform="rotate(180 800 460)" />
<ellipse cx="800" cy="285" rx="16" ry="90" fill="#c4b5fd" opacity="0.22" transform="rotate(191.25 800 460)" />
<ellipse cx="800" cy="285" rx="16" ry="90" fill="#c4b5fd" opacity="0.22" transform="rotate(202.5 800 460)" />
<ellipse cx="800" cy="285" rx="16" ry="90" fill="#c4b5fd" opacity="0.22" transform="rotate(213.75 800 460)" />
<ellipse cx="800" cy="285" rx="16" ry="90" fill="#c4b5fd" opacity="0.22" transform="rotate(225 800 460)" />
<ellipse cx="800" cy="285" rx="16" ry="90" fill="#c4b5fd" opacity="0.22" transform="rotate(236.25 800 460)" />
<ellipse cx="800" cy="285" rx="16" ry="90" fill="#c4b5fd" opacity="0.22" transform="rotate(247.5 800 460)" />
<ellipse cx="800" cy="285" rx="16" ry="90" fill="#c4b5fd" opacity="0.22" transform="rotate(258.75 800 460)" />
<ellipse cx="800" cy="285" rx="16" ry="90" fill="#c4b5fd" opacity="0.22" transform="rotate(270 800 460)" />
<ellipse cx="800" cy="285" rx="16" ry="90" fill="#c4b5fd" opacity="0.22" transform="rotate(281.25 800 460)" />
<ellipse cx="800" cy="285" rx="16" ry="90" fill="#c4b5fd" opacity="0.22" transform="rotate(292.5 800 460)" />
<ellipse cx="800" cy="285" rx="16" ry="90" fill="#c4b5fd" opacity="0.22" transform="rotate(303.75 800 460)" />
<ellipse cx="800" cy="285" rx="16" ry="90" fill="#c4b5fd" opacity="0.22" transform="rotate(315 800 460)" />
<ellipse cx="800" cy="285" rx="16" ry="90" fill="#c4b5fd" opacity="0.22" transform="rotate(326.25 800 460)" />
<ellipse cx="800" cy="285" rx="16" ry="90" fill="#c4b5fd" opacity="0.22" transform="rotate(337.5 800 460)" />
<ellipse cx="800" cy="285" rx="16" ry="90" fill="#c4b5fd" opacity="0.22" transform="rotate(348.75 800 460)" />
    <ellipse cx="800" cy="348" rx="20" ry="72" fill="#fcd34d" opacity="0.32" transform="rotate(0 800 460)" />
<ellipse cx="800" cy="348" rx="20" ry="72" fill="#fcd34d" opacity="0.32" transform="rotate(20 800 460)" />
<ellipse cx="800" cy="348" rx="20" ry="72" fill="#fcd34d" opacity="0.32" transform="rotate(40 800 460)" />
<ellipse cx="800" cy="348" rx="20" ry="72" fill="#fcd34d" opacity="0.32" transform="rotate(60 800 460)" />
<ellipse cx="800" cy="348" rx="20" ry="72" fill="#fcd34d" opacity="0.32" transform="rotate(80 800 460)" />
<ellipse cx="800" cy="348" rx="20" ry="72" fill="#fcd34d" opacity="0.32" transform="rotate(100 800 460)" />
<ellipse cx="800" cy="348" rx="20" ry="72" fill="#fcd34d" opacity="0.32" transform="rotate(120 800 460)" />
<ellipse cx="800" cy="348" rx="20" ry="72" fill="#fcd34d" opacity="0.32" transform="rotate(140 800 460)" />
<ellipse cx="800" cy="348" rx="20" ry="72" fill="#fcd34d" opacity="0.32" transform="rotate(160 800 460)" />
<ellipse cx="800" cy="348" rx="20" ry="72" fill="#fcd34d" opacity="0.32" transform="rotate(180 800 460)" />
<ellipse cx="800" cy="348" rx="20" ry="72" fill="#fcd34d" opacity="0.32" transform="rotate(200 800 460)" />
<ellipse cx="800" cy="348" rx="20" ry="72" fill="#fcd34d" opacity="0.32" transform="rotate(220 800 460)" />
<ellipse cx="800" cy="348" rx="20" ry="72" fill="#fcd34d" opacity="0.32" transform="rotate(240 800 460)" />
<ellipse cx="800" cy="348" rx="20" ry="72" fill="#fcd34d" opacity="0.32" transform="rotate(260 800 460)" />
<ellipse cx="800" cy="348" rx="20" ry="72" fill="#fcd34d" opacity="0.32" transform="rotate(280 800 460)" />
<ellipse cx="800" cy="348" rx="20" ry="72" fill="#fcd34d" opacity="0.32" transform="rotate(300 800 460)" />
<ellipse cx="800" cy="348" rx="20" ry="72" fill="#fcd34d" opacity="0.32" transform="rotate(320 800 460)" />
<ellipse cx="800" cy="348" rx="20" ry="72" fill="#fcd34d" opacity="0.32" transform="rotate(340 800 460)" />
    <circle cx="800" cy="460" r="140" fill="url(#glassOrb)" opacity="0.78"/>
    <text x="800" y="525" text-anchor="middle" font-family="Georgia, 'Noto Serif Devanagari', serif" font-size="210" font-weight="700" fill="#fff7ed" opacity="0.9">ॐ</text>
  
  </g>
  <g opacity="0.78">
    <rect x="88" y="82" width="1424" height="736" rx="46" fill="none" stroke="#ffffff" stroke-opacity="0.2" stroke-width="2"/>
    <path d="M150 150 C320 82 525 78 720 126" stroke="#fff7ed" stroke-opacity="0.44" stroke-width="7" stroke-linecap="round"/>
    <path d="M1332 710 C1215 775 1005 792 855 752" stroke="#c4b5fd" stroke-opacity="0.42" stroke-width="8" stroke-linecap="round"/>
  </g>
  <g transform="translate(126 714)">
    <rect width="420" height="86" rx="28" fill="#ffffff" opacity="0.12"/>
    <rect x="1" y="1" width="418" height="84" rx="27" fill="none" stroke="#ffffff" stroke-opacity="0.22"/>
    <text x="36" y="56" font-family="Georgia, 'Noto Serif Devanagari', serif" font-size="40" font-weight="700" fill="#fff7ed">ॐ</text>
    <circle cx="352" cy="43" r="15" fill="#c4b5fd" opacity="0.9"/>
  </g>
  <rect width="1600" height="900" filter="url(#grain)" opacity="0.34"/>
</svg>
