<svg xmlns="http://www.w3.org/2000/svg" width="1600" height="900" viewBox="0 0 1600 900" role="img" aria-label="प्राचीन हिंदू ध्यान विधियाँ: प्राणायाम, त्राटक, मंत्र जप और निराकार ध्यान का व्यावहारिक व वैज्ञानिक मार्गदर्शक">
  <defs>
    <radialGradient id="bgGlow" cx="50%" cy="43%" r="75%">
      <stop offset="0%" stop-color="#a7f3d0" stop-opacity="0.46"/>
      <stop offset="45%" stop-color="#0f4d3f" stop-opacity="0.92"/>
      <stop offset="100%" stop-color="#05231d"/>
    </radialGradient>
    <linearGradient id="glassPanel" x1="0%" y1="0%" x2="100%" y2="100%">
      <stop offset="0%" stop-color="#ffffff" stop-opacity="0.58"/>
      <stop offset="42%" stop-color="#a7f3d0" stop-opacity="0.22"/>
      <stop offset="100%" stop-color="#ffffff" stop-opacity="0.08"/>
    </linearGradient>
    <radialGradient id="glassOrb" cx="34%" cy="24%" r="68%">
      <stop offset="0%" stop-color="#ffffff" stop-opacity="0.94"/>
      <stop offset="34%" stop-color="#a7f3d0" stop-opacity="0.62"/>
      <stop offset="100%" stop-color="#0f4d3f" stop-opacity="0.22"/>
    </radialGradient>
    <linearGradient id="glassMountain" x1="0%" y1="0%" x2="100%" y2="100%">
      <stop offset="0%" stop-color="#ffffff" stop-opacity="0.48"/>
      <stop offset="100%" stop-color="#a7f3d0" stop-opacity="0.22"/>
    </linearGradient>
    <filter id="softGlow" x="-30%" y="-30%" width="160%" height="160%">
      <feGaussianBlur stdDeviation="18" result="blur"/>
      <feColorMatrix in="blur" type="matrix" values="1 0 0 0 0  0 1 0 0 0  0 0 1 0 0  0 0 0 0.75 0"/>
      <feMerge>
        <feMergeNode/>
        <feMergeNode in="SourceGraphic"/>
      </feMerge>
    </filter>
    <filter id="grain">
      <feTurbulence type="fractalNoise" baseFrequency="0.82" numOctaves="3" seed="920"/>
      <feColorMatrix type="saturate" values="0"/>
      <feComponentTransfer>
        <feFuncA type="table" tableValues="0 0.075"/>
      </feComponentTransfer>
    </filter>
  </defs>
  <rect width="1600" height="900" fill="url(#bgGlow)"/>
  <g opacity="0.72"><circle cx="974" cy="865" r="1.2" fill="#fde68a" opacity="0.45" />
<circle cx="993" cy="146" r="2.3" fill="#fde68a" opacity="0.26" />
<circle cx="936" cy="223" r="1.0" fill="#fde68a" opacity="0.33" />
<circle cx="955" cy="404" r="2.1" fill="#fde68a" opacity="0.64" />
<circle cx="1050" cy="585" r="1.6" fill="#fde68a" opacity="0.19" />
<circle cx="1069" cy="766" r="2.7" fill="#fde68a" opacity="0.50" />
<circle cx="1012" cy="47" r="1.4" fill="#fde68a" opacity="0.57" />
<circle cx="1031" cy="228" r="2.5" fill="#fde68a" opacity="0.38" />
<circle cx="822" cy="317" r="2.8" fill="#fde68a" opacity="0.43" />
<circle cx="841" cy="498" r="1.5" fill="#fde68a" opacity="0.24" />
<circle cx="835" cy="858" r="2.1" fill="#fde68a" opacity="0.38" />
<circle cx="816" cy="677" r="1.0" fill="#fde68a" opacity="0.57" />
<circle cx="873" cy="320" r="2.3" fill="#fde68a" opacity="0.26" />
<circle cx="854" cy="139" r="1.2" fill="#fde68a" opacity="0.45" />
<circle cx="911" cy="134" r="2.5" fill="#fde68a" opacity="0.62" />
<circle cx="892" cy="853" r="1.4" fill="#fde68a" opacity="0.31" />
<circle cx="949" cy="496" r="2.7" fill="#fde68a" opacity="0.50" />
<circle cx="930" cy="315" r="1.6" fill="#fde68a" opacity="0.19" />
<circle cx="987" cy="310" r="2.9" fill="#fde68a" opacity="0.40" />
<circle cx="968" cy="129" r="1.8" fill="#fde68a" opacity="0.59" />
<circle cx="1480" cy="821" r="1.4" fill="#fde68a" opacity="0.47" />
<circle cx="1499" cy="102" r="2.5" fill="#fde68a" opacity="0.28" />
<circle cx="1518" cy="283" r="1.6" fill="#fde68a" opacity="0.35" />
<circle cx="1537" cy="464" r="2.7" fill="#fde68a" opacity="0.66" />
<circle cx="1556" cy="645" r="1.0" fill="#fde68a" opacity="0.21" />
<circle cx="1575" cy="826" r="2.9" fill="#fde68a" opacity="0.52" />
<circle cx="1594" cy="107" r="1.2" fill="#fde68a" opacity="0.59" />
<circle cx="13" cy="288" r="2.3" fill="#fde68a" opacity="0.40" />
<circle cx="1328" cy="469" r="1.4" fill="#fde68a" opacity="0.45" />
<circle cx="1347" cy="650" r="2.5" fill="#fde68a" opacity="0.26" />
<circle cx="1489" cy="612" r="1.5" fill="#fde68a" opacity="0.56" />
<circle cx="1470" cy="431" r="2.8" fill="#fde68a" opacity="0.25" />
<circle cx="1451" cy="250" r="1.3" fill="#fde68a" opacity="0.18" />
<circle cx="1432" cy="69" r="2.6" fill="#fde68a" opacity="0.37" />
<circle cx="1565" cy="436" r="1.1" fill="#fde68a" opacity="0.32" />
<circle cx="1546" cy="255" r="2.4" fill="#fde68a" opacity="0.51" />
<circle cx="1527" cy="74" r="0.9" fill="#fde68a" opacity="0.44" />
<circle cx="1508" cy="793" r="2.2" fill="#fde68a" opacity="0.63" />
<circle cx="1337" cy="260" r="3.1" fill="#fde68a" opacity="0.54" />
<circle cx="1318" cy="79" r="2.0" fill="#fde68a" opacity="0.23" />
<circle cx="94" cy="403" r="0.8" fill="#fde68a" opacity="0.33" />
<circle cx="113" cy="584" r="1.9" fill="#fde68a" opacity="0.64" />
<circle cx="56" cy="41" r="3.0" fill="#fde68a" opacity="0.45" />
<circle cx="75" cy="222" r="1.7" fill="#fde68a" opacity="0.26" />
<circle cx="170" cy="579" r="2.8" fill="#fde68a" opacity="0.59" />
<circle cx="189" cy="760" r="1.5" fill="#fde68a" opacity="0.40" />
<circle cx="132" cy="217" r="2.6" fill="#fde68a" opacity="0.21" />
<circle cx="151" cy="398" r="1.3" fill="#fde68a" opacity="0.52" />
<circle cx="1542" cy="51" r="2.4" fill="#fde68a" opacity="0.31" />
<circle cx="1561" cy="232" r="1.9" fill="#fde68a" opacity="0.62" />
<circle cx="103" cy="862" r="2.5" fill="#fde68a" opacity="0.24" />
<circle cx="84" cy="681" r="1.4" fill="#fde68a" opacity="0.43" />
<circle cx="141" cy="324" r="2.7" fill="#fde68a" opacity="0.62" />
<circle cx="122" cy="143" r="1.6" fill="#fde68a" opacity="0.31" />
<circle cx="27" cy="686" r="2.1" fill="#fde68a" opacity="0.50" />
<circle cx="8" cy="505" r="1.0" fill="#fde68a" opacity="0.19" />
<circle cx="65" cy="148" r="2.3" fill="#fde68a" opacity="0.38" />
<circle cx="46" cy="867" r="1.2" fill="#fde68a" opacity="0.57" />
<circle cx="1551" cy="314" r="1.7" fill="#fde68a" opacity="0.22" />
<circle cx="1532" cy="133" r="3.0" fill="#fde68a" opacity="0.41" />
<circle cx="844" cy="653" r="1.8" fill="#fde68a" opacity="0.29" />
<circle cx="863" cy="834" r="2.9" fill="#fde68a" opacity="0.60" />
<circle cx="882" cy="115" r="2.0" fill="#fde68a" opacity="0.67" />
<circle cx="901" cy="296" r="3.1" fill="#fde68a" opacity="0.48" />
<circle cx="768" cy="829" r="2.2" fill="#fde68a" opacity="0.55" />
<circle cx="787" cy="110" r="0.9" fill="#fde68a" opacity="0.36" />
<circle cx="806" cy="291" r="2.4" fill="#fde68a" opacity="0.43" />
<circle cx="825" cy="472" r="1.1" fill="#fde68a" opacity="0.24" /></g>
  <circle cx="516" cy="283" r="230" fill="#a7f3d0" opacity="0.08"/>
  <circle cx="1094" cy="666" r="275" fill="#fde68a" opacity="0.08"/>
  <g filter="url(#softGlow)">
    
      <circle cx="800" cy="455" r="245" fill="none" stroke="#a7f3d0" stroke-width="18" opacity="0.28"/>
      <circle cx="800" cy="455" r="175" fill="none" stroke="#fde68a" stroke-width="12" opacity="0.42"/>
      <text x="800" y="520" text-anchor="middle" font-family="Georgia, 'Noto Serif Devanagari', serif" font-size="230" font-weight="700" fill="#fff7ed" opacity="0.92">ॐ</text>
      <path d="M596 700 C700 624 900 624 1004 700" stroke="#a7f3d0" stroke-width="22" stroke-linecap="round" opacity="0.42" fill="none"/>
    
  </g>
  <g opacity="0.78">
    <rect x="88" y="82" width="1424" height="736" rx="46" fill="none" stroke="#ffffff" stroke-opacity="0.2" stroke-width="2"/>
    <path d="M150 150 C320 82 525 78 720 126" stroke="#fff7ed" stroke-opacity="0.44" stroke-width="7" stroke-linecap="round"/>
    <path d="M1332 710 C1215 775 1005 792 855 752" stroke="#a7f3d0" stroke-opacity="0.42" stroke-width="8" stroke-linecap="round"/>
  </g>
  <g transform="translate(126 714)">
    <rect width="420" height="86" rx="28" fill="#ffffff" opacity="0.12"/>
    <rect x="1" y="1" width="418" height="84" rx="27" fill="none" stroke="#ffffff" stroke-opacity="0.22"/>
    <text x="36" y="56" font-family="Georgia, 'Noto Serif Devanagari', serif" font-size="40" font-weight="700" fill="#fff7ed">ॐ</text>
    <circle cx="352" cy="43" r="15" fill="#a7f3d0" opacity="0.9"/>
  </g>
  <rect width="1600" height="900" filter="url(#grain)" opacity="0.34"/>
</svg>
