<svg xmlns="http://www.w3.org/2000/svg" width="1600" height="900" viewBox="0 0 1600 900" role="img" aria-label="अष्टावक्र गीता: परम ज्ञान, अद्वैत दर्शन और मानसिक मुक्ति की क्रांतिकारी कुंजी: राजा जनक और अष्टावक्र मुनि का संवाद">
  <defs>
    <radialGradient id="bgGlow" cx="50%" cy="43%" r="75%">
      <stop offset="0%" stop-color="#7dd3fc" stop-opacity="0.46"/>
      <stop offset="45%" stop-color="#0f3a5f" stop-opacity="0.92"/>
      <stop offset="100%" stop-color="#06152f"/>
    </radialGradient>
    <linearGradient id="glassPanel" x1="0%" y1="0%" x2="100%" y2="100%">
      <stop offset="0%" stop-color="#ffffff" stop-opacity="0.58"/>
      <stop offset="42%" stop-color="#7dd3fc" stop-opacity="0.22"/>
      <stop offset="100%" stop-color="#ffffff" stop-opacity="0.08"/>
    </linearGradient>
    <radialGradient id="glassOrb" cx="34%" cy="24%" r="68%">
      <stop offset="0%" stop-color="#ffffff" stop-opacity="0.94"/>
      <stop offset="34%" stop-color="#7dd3fc" stop-opacity="0.62"/>
      <stop offset="100%" stop-color="#0f3a5f" stop-opacity="0.22"/>
    </radialGradient>
    <linearGradient id="glassMountain" x1="0%" y1="0%" x2="100%" y2="100%">
      <stop offset="0%" stop-color="#ffffff" stop-opacity="0.48"/>
      <stop offset="100%" stop-color="#7dd3fc" stop-opacity="0.22"/>
    </linearGradient>
    <filter id="softGlow" x="-30%" y="-30%" width="160%" height="160%">
      <feGaussianBlur stdDeviation="18" result="blur"/>
      <feColorMatrix in="blur" type="matrix" values="1 0 0 0 0  0 1 0 0 0  0 0 1 0 0  0 0 0 0.75 0"/>
      <feMerge>
        <feMergeNode/>
        <feMergeNode in="SourceGraphic"/>
      </feMerge>
    </filter>
    <filter id="grain">
      <feTurbulence type="fractalNoise" baseFrequency="0.82" numOctaves="3" seed="874"/>
      <feColorMatrix type="saturate" values="0"/>
      <feComponentTransfer>
        <feFuncA type="table" tableValues="0 0.075"/>
      </feComponentTransfer>
    </filter>
  </defs>
  <rect width="1600" height="900" fill="url(#bgGlow)"/>
  <g opacity="0.72"><circle cx="1309" cy="674" r="2.7" fill="#facc15" opacity="0.22" />
<circle cx="1290" cy="493" r="1.6" fill="#facc15" opacity="0.41" />
<circle cx="1271" cy="136" r="2.5" fill="#facc15" opacity="0.60" />
<circle cx="1252" cy="855" r="1.4" fill="#facc15" opacity="0.29" />
<circle cx="1233" cy="850" r="2.3" fill="#facc15" opacity="0.48" />
<circle cx="1214" cy="669" r="1.2" fill="#facc15" opacity="0.67" />
<circle cx="1195" cy="312" r="2.1" fill="#facc15" opacity="0.36" />
<circle cx="1176" cy="131" r="1.0" fill="#facc15" opacity="0.55" />
<circle cx="1157" cy="126" r="1.9" fill="#facc15" opacity="0.24" />
<circle cx="1138" cy="845" r="0.8" fill="#facc15" opacity="0.43" />
<circle cx="1486" cy="575" r="0.8" fill="#facc15" opacity="0.27" />
<circle cx="1505" cy="756" r="1.9" fill="#facc15" opacity="0.58" />
<circle cx="1448" cy="213" r="3.0" fill="#facc15" opacity="0.39" />
<circle cx="1467" cy="394" r="1.7" fill="#facc15" opacity="0.20" />
<circle cx="1562" cy="751" r="2.8" fill="#facc15" opacity="0.53" />
<circle cx="1581" cy="32" r="1.5" fill="#facc15" opacity="0.34" />
<circle cx="1524" cy="389" r="2.6" fill="#facc15" opacity="0.65" />
<circle cx="1543" cy="570" r="1.3" fill="#facc15" opacity="0.46" />
<circle cx="1334" cy="223" r="2.4" fill="#facc15" opacity="0.29" />
<circle cx="1353" cy="404" r="1.1" fill="#facc15" opacity="0.60" />
<circle cx="1541" cy="616" r="1.1" fill="#facc15" opacity="0.22" />
<circle cx="1522" cy="435" r="2.4" fill="#facc15" opacity="0.41" />
<circle cx="1503" cy="254" r="0.9" fill="#facc15" opacity="0.30" />
<circle cx="1484" cy="73" r="2.2" fill="#facc15" opacity="0.53" />
<circle cx="1465" cy="792" r="3.1" fill="#facc15" opacity="0.42" />
<circle cx="1446" cy="611" r="2.0" fill="#facc15" opacity="0.61" />
<circle cx="1427" cy="430" r="2.9" fill="#facc15" opacity="0.54" />
<circle cx="1408" cy="249" r="1.8" fill="#facc15" opacity="0.23" />
<circle cx="93" cy="68" r="1.9" fill="#facc15" opacity="0.24" />
<circle cx="74" cy="787" r="0.8" fill="#facc15" opacity="0.43" />
<circle cx="1532" cy="825" r="1.8" fill="#facc15" opacity="0.31" />
<circle cx="1551" cy="106" r="2.9" fill="#facc15" opacity="0.62" />
<circle cx="1570" cy="287" r="2.0" fill="#facc15" opacity="0.19" />
<circle cx="1589" cy="468" r="3.1" fill="#facc15" opacity="0.50" />
<circle cx="1456" cy="101" r="2.2" fill="#facc15" opacity="0.57" />
<circle cx="1475" cy="282" r="0.9" fill="#facc15" opacity="0.38" />
<circle cx="1494" cy="463" r="2.4" fill="#facc15" opacity="0.45" />
<circle cx="1513" cy="644" r="1.1" fill="#facc15" opacity="0.26" />
<circle cx="84" cy="277" r="1.0" fill="#facc15" opacity="0.25" />
<circle cx="103" cy="458" r="2.1" fill="#facc15" opacity="0.56" />
<circle cx="1523" cy="130" r="1.3" fill="#facc15" opacity="0.40" />
<circle cx="1504" cy="849" r="2.6" fill="#facc15" opacity="0.59" />
<circle cx="1561" cy="492" r="1.5" fill="#facc15" opacity="0.28" />
<circle cx="1542" cy="311" r="2.8" fill="#facc15" opacity="0.47" />
<circle cx="1599" cy="306" r="1.7" fill="#facc15" opacity="0.64" />
<circle cx="1580" cy="125" r="3.0" fill="#facc15" opacity="0.33" />
<circle cx="37" cy="668" r="1.9" fill="#facc15" opacity="0.52" />
<circle cx="18" cy="487" r="0.8" fill="#facc15" opacity="0.21" />
<circle cx="75" cy="482" r="2.1" fill="#facc15" opacity="0.38" />
<circle cx="56" cy="301" r="1.0" fill="#facc15" opacity="0.57" />
<circle cx="1290" cy="339" r="2.8" fill="#facc15" opacity="0.49" />
<circle cx="1309" cy="520" r="1.5" fill="#facc15" opacity="0.30" />
<circle cx="1252" cy="877" r="2.6" fill="#facc15" opacity="0.61" />
<circle cx="1271" cy="158" r="1.3" fill="#facc15" opacity="0.42" />
<circle cx="1214" cy="163" r="0.8" fill="#facc15" opacity="0.23" />
<circle cx="1233" cy="344" r="1.9" fill="#facc15" opacity="0.54" />
<circle cx="1176" cy="701" r="3.0" fill="#facc15" opacity="0.35" />
<circle cx="1195" cy="882" r="1.7" fill="#facc15" opacity="0.66" />
<circle cx="1138" cy="691" r="1.2" fill="#facc15" opacity="0.47" />
<circle cx="1157" cy="872" r="2.3" fill="#facc15" opacity="0.28" />
<circle cx="1281" cy="784" r="3.1" fill="#facc15" opacity="0.32" />
<circle cx="1262" cy="603" r="2.0" fill="#facc15" opacity="0.51" />
<circle cx="1243" cy="422" r="2.9" fill="#facc15" opacity="0.44" />
<circle cx="1224" cy="241" r="1.8" fill="#facc15" opacity="0.63" />
<circle cx="1357" cy="608" r="1.1" fill="#facc15" opacity="0.58" />
<circle cx="1338" cy="427" r="2.4" fill="#facc15" opacity="0.27" />
<circle cx="1319" cy="246" r="0.9" fill="#facc15" opacity="0.20" />
<circle cx="1300" cy="65" r="2.2" fill="#facc15" opacity="0.39" /></g>
  <circle cx="463" cy="272" r="230" fill="#7dd3fc" opacity="0.08"/>
  <circle cx="1121" cy="635" r="275" fill="#facc15" opacity="0.08"/>
  <g filter="url(#softGlow)">
    
      <circle cx="806" cy="430" r="185" fill="none" stroke="#facc15" stroke-width="20" opacity="0.78"/>
      <line x1="806" y1="430" x2="806" y2="245" stroke="#facc15" stroke-width="7" opacity="0.58" transform="rotate(0 806 430)" />
<line x1="806" y1="430" x2="806" y2="245" stroke="#facc15" stroke-width="7" opacity="0.58" transform="rotate(15 806 430)" />
<line x1="806" y1="430" x2="806" y2="245" stroke="#facc15" stroke-width="7" opacity="0.58" transform="rotate(30 806 430)" />
<line x1="806" y1="430" x2="806" y2="245" stroke="#facc15" stroke-width="7" opacity="0.58" transform="rotate(45 806 430)" />
<line x1="806" y1="430" x2="806" y2="245" stroke="#facc15" stroke-width="7" opacity="0.58" transform="rotate(60 806 430)" />
<line x1="806" y1="430" x2="806" y2="245" stroke="#facc15" stroke-width="7" opacity="0.58" transform="rotate(75 806 430)" />
<line x1="806" y1="430" x2="806" y2="245" stroke="#facc15" stroke-width="7" opacity="0.58" transform="rotate(90 806 430)" />
<line x1="806" y1="430" x2="806" y2="245" stroke="#facc15" stroke-width="7" opacity="0.58" transform="rotate(105 806 430)" />
<line x1="806" y1="430" x2="806" y2="245" stroke="#facc15" stroke-width="7" opacity="0.58" transform="rotate(120 806 430)" />
<line x1="806" y1="430" x2="806" y2="245" stroke="#facc15" stroke-width="7" opacity="0.58" transform="rotate(135 806 430)" />
<line x1="806" y1="430" x2="806" y2="245" stroke="#facc15" stroke-width="7" opacity="0.58" transform="rotate(150 806 430)" />
<line x1="806" y1="430" x2="806" y2="245" stroke="#facc15" stroke-width="7" opacity="0.58" transform="rotate(165 806 430)" />
<line x1="806" y1="430" x2="806" y2="245" stroke="#facc15" stroke-width="7" opacity="0.58" transform="rotate(180 806 430)" />
<line x1="806" y1="430" x2="806" y2="245" stroke="#facc15" stroke-width="7" opacity="0.58" transform="rotate(195 806 430)" />
<line x1="806" y1="430" x2="806" y2="245" stroke="#facc15" stroke-width="7" opacity="0.58" transform="rotate(210 806 430)" />
<line x1="806" y1="430" x2="806" y2="245" stroke="#facc15" stroke-width="7" opacity="0.58" transform="rotate(225 806 430)" />
<line x1="806" y1="430" x2="806" y2="245" stroke="#facc15" stroke-width="7" opacity="0.58" transform="rotate(240 806 430)" />
<line x1="806" y1="430" x2="806" y2="245" stroke="#facc15" stroke-width="7" opacity="0.58" transform="rotate(255 806 430)" />
<line x1="806" y1="430" x2="806" y2="245" stroke="#facc15" stroke-width="7" opacity="0.58" transform="rotate(270 806 430)" />
<line x1="806" y1="430" x2="806" y2="245" stroke="#facc15" stroke-width="7" opacity="0.58" transform="rotate(285 806 430)" />
<line x1="806" y1="430" x2="806" y2="245" stroke="#facc15" stroke-width="7" opacity="0.58" transform="rotate(300 806 430)" />
<line x1="806" y1="430" x2="806" y2="245" stroke="#facc15" stroke-width="7" opacity="0.58" transform="rotate(315 806 430)" />
<line x1="806" y1="430" x2="806" y2="245" stroke="#facc15" stroke-width="7" opacity="0.58" transform="rotate(330 806 430)" />
<line x1="806" y1="430" x2="806" y2="245" stroke="#facc15" stroke-width="7" opacity="0.58" transform="rotate(345 806 430)" />
      <circle cx="806" cy="430" r="64" fill="url(#glassOrb)" opacity="0.92"/>
      <path d="M545 585 C660 525 940 525 1055 585 C975 655 625 655 545 585 Z" fill="#7dd3fc" opacity="0.18"/>
    
  </g>
  <g opacity="0.78">
    <rect x="88" y="82" width="1424" height="736" rx="46" fill="none" stroke="#ffffff" stroke-opacity="0.2" stroke-width="2"/>
    <path d="M150 150 C320 82 525 78 720 126" stroke="#fff7ed" stroke-opacity="0.44" stroke-width="7" stroke-linecap="round"/>
    <path d="M1332 710 C1215 775 1005 792 855 752" stroke="#7dd3fc" stroke-opacity="0.42" stroke-width="8" stroke-linecap="round"/>
  </g>
  <g transform="translate(126 714)">
    <rect width="420" height="86" rx="28" fill="#ffffff" opacity="0.12"/>
    <rect x="1" y="1" width="418" height="84" rx="27" fill="none" stroke="#ffffff" stroke-opacity="0.22"/>
    <text x="36" y="56" font-family="Georgia, 'Noto Serif Devanagari', serif" font-size="40" font-weight="700" fill="#fff7ed">चक्र</text>
    <circle cx="352" cy="43" r="15" fill="#7dd3fc" opacity="0.9"/>
  </g>
  <rect width="1600" height="900" filter="url(#grain)" opacity="0.34"/>
</svg>
