<svg xmlns="http://www.w3.org/2000/svg" width="1600" height="900" viewBox="0 0 1600 900" role="img" aria-label="आयुर्वेद: जीवन का विज्ञान और संपूर्ण स्वास्थ्य की प्राचीन भारतीय पद्धति">
  <defs>
    <radialGradient id="bgGlow" cx="50%" cy="43%" r="75%">
      <stop offset="0%" stop-color="#fcd34d" stop-opacity="0.46"/>
      <stop offset="45%" stop-color="#5b3311" stop-opacity="0.92"/>
      <stop offset="100%" stop-color="#201104"/>
    </radialGradient>
    <linearGradient id="glassPanel" x1="0%" y1="0%" x2="100%" y2="100%">
      <stop offset="0%" stop-color="#ffffff" stop-opacity="0.58"/>
      <stop offset="42%" stop-color="#fcd34d" stop-opacity="0.22"/>
      <stop offset="100%" stop-color="#ffffff" stop-opacity="0.08"/>
    </linearGradient>
    <radialGradient id="glassOrb" cx="34%" cy="24%" r="68%">
      <stop offset="0%" stop-color="#ffffff" stop-opacity="0.94"/>
      <stop offset="34%" stop-color="#fcd34d" stop-opacity="0.62"/>
      <stop offset="100%" stop-color="#5b3311" stop-opacity="0.22"/>
    </radialGradient>
    <linearGradient id="glassMountain" x1="0%" y1="0%" x2="100%" y2="100%">
      <stop offset="0%" stop-color="#ffffff" stop-opacity="0.48"/>
      <stop offset="100%" stop-color="#fcd34d" stop-opacity="0.22"/>
    </linearGradient>
    <filter id="softGlow" x="-30%" y="-30%" width="160%" height="160%">
      <feGaussianBlur stdDeviation="18" result="blur"/>
      <feColorMatrix in="blur" type="matrix" values="1 0 0 0 0  0 1 0 0 0  0 0 1 0 0  0 0 0 0.75 0"/>
      <feMerge>
        <feMergeNode/>
        <feMergeNode in="SourceGraphic"/>
      </feMerge>
    </filter>
    <filter id="grain">
      <feTurbulence type="fractalNoise" baseFrequency="0.82" numOctaves="3" seed="304"/>
      <feColorMatrix type="saturate" values="0"/>
      <feComponentTransfer>
        <feFuncA type="table" tableValues="0 0.075"/>
      </feComponentTransfer>
    </filter>
  </defs>
  <rect width="1600" height="900" fill="url(#bgGlow)"/>
  <g opacity="0.72"><circle cx="1396" cy="807" r="3.0" fill="#fb923c" opacity="0.27" />
<circle cx="1415" cy="88" r="1.7" fill="#fb923c" opacity="0.58" />
<circle cx="1434" cy="445" r="0.8" fill="#fb923c" opacity="0.39" />
<circle cx="1453" cy="626" r="1.9" fill="#fb923c" opacity="0.20" />
<circle cx="1320" cy="83" r="2.6" fill="#fb923c" opacity="0.53" />
<circle cx="1339" cy="264" r="1.3" fill="#fb923c" opacity="0.34" />
<circle cx="1358" cy="621" r="2.8" fill="#fb923c" opacity="0.65" />
<circle cx="1377" cy="802" r="1.5" fill="#fb923c" opacity="0.46" />
<circle cx="1244" cy="259" r="2.2" fill="#fb923c" opacity="0.29" />
<circle cx="1263" cy="440" r="0.9" fill="#fb923c" opacity="0.60" />
<circle cx="981" cy="512" r="2.7" fill="#fb923c" opacity="0.30" />
<circle cx="962" cy="331" r="1.6" fill="#fb923c" opacity="0.49" />
<circle cx="943" cy="150" r="2.5" fill="#fb923c" opacity="0.42" />
<circle cx="924" cy="869" r="1.4" fill="#fb923c" opacity="0.61" />
<circle cx="905" cy="688" r="2.3" fill="#fb923c" opacity="0.54" />
<circle cx="886" cy="507" r="1.2" fill="#fb923c" opacity="0.23" />
<circle cx="867" cy="326" r="2.1" fill="#fb923c" opacity="0.66" />
<circle cx="848" cy="145" r="1.0" fill="#fb923c" opacity="0.35" />
<circle cx="1133" cy="864" r="1.1" fill="#fb923c" opacity="0.32" />
<circle cx="1114" cy="683" r="2.4" fill="#fb923c" opacity="0.51" />
<circle cx="990" cy="471" r="2.4" fill="#fb923c" opacity="0.21" />
<circle cx="1009" cy="652" r="1.1" fill="#fb923c" opacity="0.52" />
<circle cx="952" cy="109" r="2.2" fill="#fb923c" opacity="0.33" />
<circle cx="971" cy="290" r="0.9" fill="#fb923c" opacity="0.64" />
<circle cx="1066" cy="647" r="2.0" fill="#fb923c" opacity="0.47" />
<circle cx="1085" cy="828" r="3.1" fill="#fb923c" opacity="0.28" />
<circle cx="1028" cy="285" r="1.8" fill="#fb923c" opacity="0.59" />
<circle cx="1047" cy="466" r="2.9" fill="#fb923c" opacity="0.40" />
<circle cx="838" cy="119" r="1.6" fill="#fb923c" opacity="0.23" />
<circle cx="857" cy="300" r="2.7" fill="#fb923c" opacity="0.54" />
<circle cx="999" cy="262" r="1.7" fill="#fb923c" opacity="0.62" />
<circle cx="980" cy="81" r="3.0" fill="#fb923c" opacity="0.31" />
<circle cx="1037" cy="624" r="1.9" fill="#fb923c" opacity="0.50" />
<circle cx="1018" cy="443" r="0.8" fill="#fb923c" opacity="0.19" />
<circle cx="923" cy="86" r="1.3" fill="#fb923c" opacity="0.38" />
<circle cx="904" cy="805" r="2.6" fill="#fb923c" opacity="0.57" />
<circle cx="961" cy="448" r="1.5" fill="#fb923c" opacity="0.26" />
<circle cx="942" cy="267" r="2.8" fill="#fb923c" opacity="0.45" />
<circle cx="847" cy="614" r="0.9" fill="#fb923c" opacity="0.64" />
<circle cx="828" cy="433" r="2.2" fill="#fb923c" opacity="0.33" />
<circle cx="776" cy="325" r="3.0" fill="#fb923c" opacity="0.35" />
<circle cx="795" cy="506" r="1.7" fill="#fb923c" opacity="0.66" />
<circle cx="814" cy="687" r="0.8" fill="#fb923c" opacity="0.23" />
<circle cx="833" cy="868" r="1.9" fill="#fb923c" opacity="0.54" />
<circle cx="852" cy="149" r="2.6" fill="#fb923c" opacity="0.59" />
<circle cx="871" cy="330" r="1.3" fill="#fb923c" opacity="0.40" />
<circle cx="890" cy="511" r="2.8" fill="#fb923c" opacity="0.47" />
<circle cx="909" cy="692" r="1.5" fill="#fb923c" opacity="0.28" />
<circle cx="624" cy="873" r="2.2" fill="#fb923c" opacity="0.37" />
<circle cx="643" cy="154" r="0.9" fill="#fb923c" opacity="0.18" />
<circle cx="785" cy="680" r="2.3" fill="#fb923c" opacity="0.40" />
<circle cx="766" cy="499" r="1.2" fill="#fb923c" opacity="0.59" />
<circle cx="747" cy="318" r="2.1" fill="#fb923c" opacity="0.52" />
<circle cx="728" cy="137" r="1.0" fill="#fb923c" opacity="0.21" />
<circle cx="861" cy="504" r="2.7" fill="#fb923c" opacity="0.66" />
<circle cx="842" cy="323" r="1.6" fill="#fb923c" opacity="0.35" />
<circle cx="823" cy="142" r="2.5" fill="#fb923c" opacity="0.28" />
<circle cx="804" cy="861" r="1.4" fill="#fb923c" opacity="0.47" />
<circle cx="633" cy="328" r="1.5" fill="#fb923c" opacity="0.42" />
<circle cx="614" cy="147" r="2.8" fill="#fb923c" opacity="0.61" />
<circle cx="730" cy="235" r="2.0" fill="#fb923c" opacity="0.39" />
<circle cx="749" cy="416" r="3.1" fill="#fb923c" opacity="0.20" />
<circle cx="692" cy="773" r="1.8" fill="#fb923c" opacity="0.51" />
<circle cx="711" cy="54" r="2.9" fill="#fb923c" opacity="0.32" />
<circle cx="654" cy="59" r="2.4" fill="#fb923c" opacity="0.63" />
<circle cx="673" cy="240" r="1.1" fill="#fb923c" opacity="0.44" />
<circle cx="616" cy="597" r="2.2" fill="#fb923c" opacity="0.25" />
<circle cx="635" cy="778" r="0.9" fill="#fb923c" opacity="0.56" /></g>
  <circle cx="442" cy="293" r="230" fill="#fcd34d" opacity="0.08"/>
  <circle cx="1104" cy="702" r="275" fill="#fb923c" opacity="0.08"/>
  <g filter="url(#softGlow)">
    
      <path d="M520 300 h560 a44 44 0 0 1 44 44 v280 a44 44 0 0 1 -44 44 H520 a44 44 0 0 1 -44 -44 V344 a44 44 0 0 1 44 -44 Z" fill="url(#glassPanel)" opacity="0.72"/>
      <path d="M800 320 v330" stroke="#fff7ed" stroke-width="9" opacity="0.48"/>
      <path d="M555 380 h185" stroke="#fb923c" stroke-width="10" stroke-linecap="round" opacity="0.35" />
<path d="M555 416 h185" stroke="#fb923c" stroke-width="10" stroke-linecap="round" opacity="0.385" />
<path d="M555 452 h185" stroke="#fb923c" stroke-width="10" stroke-linecap="round" opacity="0.42" />
<path d="M555 488 h185" stroke="#fb923c" stroke-width="10" stroke-linecap="round" opacity="0.45499999999999996" />
<path d="M555 524 h185" stroke="#fb923c" stroke-width="10" stroke-linecap="round" opacity="0.49" />
<path d="M555 560 h185" stroke="#fb923c" stroke-width="10" stroke-linecap="round" opacity="0.525" />
<path d="M555 596 h185" stroke="#fb923c" stroke-width="10" stroke-linecap="round" opacity="0.56" />
      <path d="M865 380 h185" stroke="#fcd34d" stroke-width="10" stroke-linecap="round" opacity="0.35" />
<path d="M865 416 h185" stroke="#fcd34d" stroke-width="10" stroke-linecap="round" opacity="0.385" />
<path d="M865 452 h185" stroke="#fcd34d" stroke-width="10" stroke-linecap="round" opacity="0.42" />
<path d="M865 488 h185" stroke="#fcd34d" stroke-width="10" stroke-linecap="round" opacity="0.45499999999999996" />
<path d="M865 524 h185" stroke="#fcd34d" stroke-width="10" stroke-linecap="round" opacity="0.49" />
<path d="M865 560 h185" stroke="#fcd34d" stroke-width="10" stroke-linecap="round" opacity="0.525" />
<path d="M865 596 h185" stroke="#fcd34d" stroke-width="10" stroke-linecap="round" opacity="0.56" />
    
  </g>
  <g opacity="0.78">
    <rect x="88" y="82" width="1424" height="736" rx="46" fill="none" stroke="#ffffff" stroke-opacity="0.2" stroke-width="2"/>
    <path d="M150 150 C320 82 525 78 720 126" stroke="#fff7ed" stroke-opacity="0.44" stroke-width="7" stroke-linecap="round"/>
    <path d="M1332 710 C1215 775 1005 792 855 752" stroke="#fcd34d" stroke-opacity="0.42" stroke-width="8" stroke-linecap="round"/>
  </g>
  <g transform="translate(126 714)">
    <rect width="420" height="86" rx="28" fill="#ffffff" opacity="0.12"/>
    <rect x="1" y="1" width="418" height="84" rx="27" fill="none" stroke="#ffffff" stroke-opacity="0.22"/>
    <text x="36" y="56" font-family="Georgia, 'Noto Serif Devanagari', serif" font-size="40" font-weight="700" fill="#fff7ed">ग्रंथ</text>
    <circle cx="352" cy="43" r="15" fill="#fcd34d" opacity="0.9"/>
  </g>
  <rect width="1600" height="900" filter="url(#grain)" opacity="0.34"/>
</svg>
