<svg xmlns="http://www.w3.org/2000/svg" width="1600" height="900" viewBox="0 0 1600 900" role="img" aria-label="भगवद गीता के 5 प्रमुख उपदेश जो आपका जीवन बदल सकते हैं">
  <defs>
    <radialGradient id="bgGlow" cx="50%" cy="43%" r="75%">
      <stop offset="0%" stop-color="#7dd3fc" stop-opacity="0.46"/>
      <stop offset="45%" stop-color="#0f3a5f" stop-opacity="0.92"/>
      <stop offset="100%" stop-color="#06152f"/>
    </radialGradient>
    <linearGradient id="glassPanel" x1="0%" y1="0%" x2="100%" y2="100%">
      <stop offset="0%" stop-color="#ffffff" stop-opacity="0.58"/>
      <stop offset="42%" stop-color="#7dd3fc" stop-opacity="0.22"/>
      <stop offset="100%" stop-color="#ffffff" stop-opacity="0.08"/>
    </linearGradient>
    <radialGradient id="glassOrb" cx="34%" cy="24%" r="68%">
      <stop offset="0%" stop-color="#ffffff" stop-opacity="0.94"/>
      <stop offset="34%" stop-color="#7dd3fc" stop-opacity="0.62"/>
      <stop offset="100%" stop-color="#0f3a5f" stop-opacity="0.22"/>
    </radialGradient>
    <linearGradient id="glassMountain" x1="0%" y1="0%" x2="100%" y2="100%">
      <stop offset="0%" stop-color="#ffffff" stop-opacity="0.48"/>
      <stop offset="100%" stop-color="#7dd3fc" stop-opacity="0.22"/>
    </linearGradient>
    <filter id="softGlow" x="-30%" y="-30%" width="160%" height="160%">
      <feGaussianBlur stdDeviation="18" result="blur"/>
      <feColorMatrix in="blur" type="matrix" values="1 0 0 0 0  0 1 0 0 0  0 0 1 0 0  0 0 0 0.75 0"/>
      <feMerge>
        <feMergeNode/>
        <feMergeNode in="SourceGraphic"/>
      </feMerge>
    </filter>
    <filter id="grain">
      <feTurbulence type="fractalNoise" baseFrequency="0.82" numOctaves="3" seed="759"/>
      <feColorMatrix type="saturate" values="0"/>
      <feComponentTransfer>
        <feFuncA type="table" tableValues="0 0.075"/>
      </feComponentTransfer>
    </filter>
  </defs>
  <rect width="1600" height="900" fill="url(#bgGlow)"/>
  <g opacity="0.72"><circle cx="1298" cy="861" r="2.4" fill="#facc15" opacity="0.27" />
<circle cx="1317" cy="142" r="1.1" fill="#facc15" opacity="0.58" />
<circle cx="1260" cy="323" r="2.2" fill="#facc15" opacity="0.65" />
<circle cx="1279" cy="504" r="0.9" fill="#facc15" opacity="0.46" />
<circle cx="1222" cy="137" r="2.0" fill="#facc15" opacity="0.53" />
<circle cx="1241" cy="318" r="3.1" fill="#facc15" opacity="0.34" />
<circle cx="1184" cy="499" r="1.8" fill="#facc15" opacity="0.41" />
<circle cx="1203" cy="680" r="2.9" fill="#facc15" opacity="0.22" />
<circle cx="1450" cy="313" r="1.6" fill="#facc15" opacity="0.29" />
<circle cx="1469" cy="494" r="2.7" fill="#facc15" opacity="0.60" />
<circle cx="1039" cy="854" r="2.5" fill="#facc15" opacity="0.22" />
<circle cx="1020" cy="673" r="1.4" fill="#facc15" opacity="0.41" />
<circle cx="1077" cy="316" r="2.7" fill="#facc15" opacity="0.60" />
<circle cx="1058" cy="135" r="1.6" fill="#facc15" opacity="0.29" />
<circle cx="963" cy="678" r="2.1" fill="#facc15" opacity="0.48" />
<circle cx="944" cy="497" r="1.0" fill="#facc15" opacity="0.67" />
<circle cx="1001" cy="140" r="2.3" fill="#facc15" opacity="0.36" />
<circle cx="982" cy="859" r="1.2" fill="#facc15" opacity="0.55" />
<circle cx="1191" cy="306" r="1.7" fill="#facc15" opacity="0.24" />
<circle cx="1172" cy="125" r="3.0" fill="#facc15" opacity="0.43" />
<circle cx="84" cy="309" r="1.8" fill="#facc15" opacity="0.31" />
<circle cx="103" cy="490" r="2.9" fill="#facc15" opacity="0.62" />
<circle cx="122" cy="671" r="2.0" fill="#facc15" opacity="0.19" />
<circle cx="141" cy="852" r="3.1" fill="#facc15" opacity="0.50" />
<circle cx="8" cy="485" r="2.2" fill="#facc15" opacity="0.57" />
<circle cx="27" cy="666" r="0.9" fill="#facc15" opacity="0.38" />
<circle cx="46" cy="847" r="2.4" fill="#facc15" opacity="0.45" />
<circle cx="65" cy="128" r="1.1" fill="#facc15" opacity="0.26" />
<circle cx="1532" cy="661" r="1.8" fill="#facc15" opacity="0.29" />
<circle cx="1551" cy="842" r="2.9" fill="#facc15" opacity="0.60" />
<circle cx="93" cy="100" r="1.9" fill="#facc15" opacity="0.40" />
<circle cx="74" cy="819" r="0.8" fill="#facc15" opacity="0.59" />
<circle cx="55" cy="638" r="1.7" fill="#facc15" opacity="0.52" />
<circle cx="36" cy="457" r="3.0" fill="#facc15" opacity="0.21" />
<circle cx="17" cy="276" r="1.5" fill="#facc15" opacity="0.64" />
<circle cx="1598" cy="95" r="2.8" fill="#facc15" opacity="0.33" />
<circle cx="1579" cy="814" r="1.3" fill="#facc15" opacity="0.26" />
<circle cx="1560" cy="633" r="2.6" fill="#facc15" opacity="0.45" />
<circle cx="1541" cy="452" r="1.9" fill="#facc15" opacity="0.42" />
<circle cx="1522" cy="271" r="0.8" fill="#facc15" opacity="0.61" />
<circle cx="66" cy="723" r="2.8" fill="#facc15" opacity="0.49" />
<circle cx="85" cy="4" r="1.5" fill="#facc15" opacity="0.30" />
<circle cx="28" cy="361" r="2.6" fill="#facc15" opacity="0.61" />
<circle cx="47" cy="542" r="1.3" fill="#facc15" opacity="0.42" />
<circle cx="1590" cy="547" r="0.8" fill="#facc15" opacity="0.23" />
<circle cx="9" cy="728" r="1.9" fill="#facc15" opacity="0.54" />
<circle cx="1552" cy="185" r="3.0" fill="#facc15" opacity="0.35" />
<circle cx="1571" cy="366" r="1.7" fill="#facc15" opacity="0.66" />
<circle cx="218" cy="175" r="1.2" fill="#facc15" opacity="0.47" />
<circle cx="237" cy="356" r="2.3" fill="#facc15" opacity="0.28" />
<circle cx="75" cy="514" r="2.1" fill="#facc15" opacity="0.40" />
<circle cx="56" cy="333" r="1.0" fill="#facc15" opacity="0.59" />
<circle cx="113" cy="876" r="2.3" fill="#facc15" opacity="0.28" />
<circle cx="94" cy="695" r="1.2" fill="#facc15" opacity="0.47" />
<circle cx="151" cy="690" r="2.5" fill="#facc15" opacity="0.64" />
<circle cx="132" cy="509" r="1.4" fill="#facc15" opacity="0.33" />
<circle cx="189" cy="152" r="2.7" fill="#facc15" opacity="0.52" />
<circle cx="170" cy="871" r="1.6" fill="#facc15" opacity="0.21" />
<circle cx="1523" cy="866" r="2.9" fill="#facc15" opacity="0.38" />
<circle cx="1504" cy="685" r="1.8" fill="#facc15" opacity="0.57" />
<circle cx="816" cy="581" r="2.2" fill="#facc15" opacity="0.45" />
<circle cx="835" cy="762" r="0.9" fill="#facc15" opacity="0.26" />
<circle cx="854" cy="43" r="2.4" fill="#facc15" opacity="0.33" />
<circle cx="873" cy="224" r="1.1" fill="#facc15" opacity="0.64" />
<circle cx="892" cy="405" r="1.8" fill="#facc15" opacity="0.19" />
<circle cx="911" cy="586" r="2.9" fill="#facc15" opacity="0.50" />
<circle cx="930" cy="767" r="2.0" fill="#facc15" opacity="0.57" />
<circle cx="949" cy="48" r="3.1" fill="#facc15" opacity="0.38" /></g>
  <circle cx="448" cy="295" r="230" fill="#7dd3fc" opacity="0.08"/>
  <circle cx="1146" cy="696" r="275" fill="#facc15" opacity="0.08"/>
  <g filter="url(#softGlow)">
    
      <circle cx="797" cy="430" r="185" fill="none" stroke="#facc15" stroke-width="20" opacity="0.78"/>
      <line x1="797" y1="430" x2="797" y2="245" stroke="#facc15" stroke-width="7" opacity="0.58" transform="rotate(0 797 430)" />
<line x1="797" y1="430" x2="797" y2="245" stroke="#facc15" stroke-width="7" opacity="0.58" transform="rotate(15 797 430)" />
<line x1="797" y1="430" x2="797" y2="245" stroke="#facc15" stroke-width="7" opacity="0.58" transform="rotate(30 797 430)" />
<line x1="797" y1="430" x2="797" y2="245" stroke="#facc15" stroke-width="7" opacity="0.58" transform="rotate(45 797 430)" />
<line x1="797" y1="430" x2="797" y2="245" stroke="#facc15" stroke-width="7" opacity="0.58" transform="rotate(60 797 430)" />
<line x1="797" y1="430" x2="797" y2="245" stroke="#facc15" stroke-width="7" opacity="0.58" transform="rotate(75 797 430)" />
<line x1="797" y1="430" x2="797" y2="245" stroke="#facc15" stroke-width="7" opacity="0.58" transform="rotate(90 797 430)" />
<line x1="797" y1="430" x2="797" y2="245" stroke="#facc15" stroke-width="7" opacity="0.58" transform="rotate(105 797 430)" />
<line x1="797" y1="430" x2="797" y2="245" stroke="#facc15" stroke-width="7" opacity="0.58" transform="rotate(120 797 430)" />
<line x1="797" y1="430" x2="797" y2="245" stroke="#facc15" stroke-width="7" opacity="0.58" transform="rotate(135 797 430)" />
<line x1="797" y1="430" x2="797" y2="245" stroke="#facc15" stroke-width="7" opacity="0.58" transform="rotate(150 797 430)" />
<line x1="797" y1="430" x2="797" y2="245" stroke="#facc15" stroke-width="7" opacity="0.58" transform="rotate(165 797 430)" />
<line x1="797" y1="430" x2="797" y2="245" stroke="#facc15" stroke-width="7" opacity="0.58" transform="rotate(180 797 430)" />
<line x1="797" y1="430" x2="797" y2="245" stroke="#facc15" stroke-width="7" opacity="0.58" transform="rotate(195 797 430)" />
<line x1="797" y1="430" x2="797" y2="245" stroke="#facc15" stroke-width="7" opacity="0.58" transform="rotate(210 797 430)" />
<line x1="797" y1="430" x2="797" y2="245" stroke="#facc15" stroke-width="7" opacity="0.58" transform="rotate(225 797 430)" />
<line x1="797" y1="430" x2="797" y2="245" stroke="#facc15" stroke-width="7" opacity="0.58" transform="rotate(240 797 430)" />
<line x1="797" y1="430" x2="797" y2="245" stroke="#facc15" stroke-width="7" opacity="0.58" transform="rotate(255 797 430)" />
<line x1="797" y1="430" x2="797" y2="245" stroke="#facc15" stroke-width="7" opacity="0.58" transform="rotate(270 797 430)" />
<line x1="797" y1="430" x2="797" y2="245" stroke="#facc15" stroke-width="7" opacity="0.58" transform="rotate(285 797 430)" />
<line x1="797" y1="430" x2="797" y2="245" stroke="#facc15" stroke-width="7" opacity="0.58" transform="rotate(300 797 430)" />
<line x1="797" y1="430" x2="797" y2="245" stroke="#facc15" stroke-width="7" opacity="0.58" transform="rotate(315 797 430)" />
<line x1="797" y1="430" x2="797" y2="245" stroke="#facc15" stroke-width="7" opacity="0.58" transform="rotate(330 797 430)" />
<line x1="797" y1="430" x2="797" y2="245" stroke="#facc15" stroke-width="7" opacity="0.58" transform="rotate(345 797 430)" />
      <circle cx="797" cy="430" r="64" fill="url(#glassOrb)" opacity="0.92"/>
      <path d="M545 585 C660 525 940 525 1055 585 C975 655 625 655 545 585 Z" fill="#7dd3fc" opacity="0.18"/>
    
  </g>
  <g opacity="0.78">
    <rect x="88" y="82" width="1424" height="736" rx="46" fill="none" stroke="#ffffff" stroke-opacity="0.2" stroke-width="2"/>
    <path d="M150 150 C320 82 525 78 720 126" stroke="#fff7ed" stroke-opacity="0.44" stroke-width="7" stroke-linecap="round"/>
    <path d="M1332 710 C1215 775 1005 792 855 752" stroke="#7dd3fc" stroke-opacity="0.42" stroke-width="8" stroke-linecap="round"/>
  </g>
  <g transform="translate(126 714)">
    <rect width="420" height="86" rx="28" fill="#ffffff" opacity="0.12"/>
    <rect x="1" y="1" width="418" height="84" rx="27" fill="none" stroke="#ffffff" stroke-opacity="0.22"/>
    <text x="36" y="56" font-family="Georgia, 'Noto Serif Devanagari', serif" font-size="40" font-weight="700" fill="#fff7ed">चक्र</text>
    <circle cx="352" cy="43" r="15" fill="#7dd3fc" opacity="0.9"/>
  </g>
  <rect width="1600" height="900" filter="url(#grain)" opacity="0.34"/>
</svg>
