<svg xmlns="http://www.w3.org/2000/svg" width="1600" height="900" viewBox="0 0 1600 900" role="img" aria-label="नवधा भक्ति: श्री राम द्वारा शबरी को दिए गए भक्ति के 9 सोपान, रामचरितमानस का दिव्य उपदेश और व्यावहारिक अर्थ">
  <defs>
    <radialGradient id="bgGlow" cx="50%" cy="43%" r="75%">
      <stop offset="0%" stop-color="#fdba74" stop-opacity="0.46"/>
      <stop offset="45%" stop-color="#5b2a0a" stop-opacity="0.92"/>
      <stop offset="100%" stop-color="#1f1208"/>
    </radialGradient>
    <linearGradient id="glassPanel" x1="0%" y1="0%" x2="100%" y2="100%">
      <stop offset="0%" stop-color="#ffffff" stop-opacity="0.58"/>
      <stop offset="42%" stop-color="#fdba74" stop-opacity="0.22"/>
      <stop offset="100%" stop-color="#ffffff" stop-opacity="0.08"/>
    </linearGradient>
    <radialGradient id="glassOrb" cx="34%" cy="24%" r="68%">
      <stop offset="0%" stop-color="#ffffff" stop-opacity="0.94"/>
      <stop offset="34%" stop-color="#fdba74" stop-opacity="0.62"/>
      <stop offset="100%" stop-color="#5b2a0a" stop-opacity="0.22"/>
    </radialGradient>
    <linearGradient id="glassMountain" x1="0%" y1="0%" x2="100%" y2="100%">
      <stop offset="0%" stop-color="#ffffff" stop-opacity="0.48"/>
      <stop offset="100%" stop-color="#fdba74" stop-opacity="0.22"/>
    </linearGradient>
    <filter id="softGlow" x="-30%" y="-30%" width="160%" height="160%">
      <feGaussianBlur stdDeviation="18" result="blur"/>
      <feColorMatrix in="blur" type="matrix" values="1 0 0 0 0  0 1 0 0 0  0 0 1 0 0  0 0 0 0.75 0"/>
      <feMerge>
        <feMergeNode/>
        <feMergeNode in="SourceGraphic"/>
      </feMerge>
    </filter>
    <filter id="grain">
      <feTurbulence type="fractalNoise" baseFrequency="0.82" numOctaves="3" seed="482"/>
      <feColorMatrix type="saturate" values="0"/>
      <feComponentTransfer>
        <feFuncA type="table" tableValues="0 0.075"/>
      </feComponentTransfer>
    </filter>
  </defs>
  <rect width="1600" height="900" fill="url(#bgGlow)"/>
  <g opacity="0.72"><circle cx="596" cy="891" r="3.0" fill="#86efac" opacity="0.61" />
<circle cx="615" cy="172" r="1.7" fill="#86efac" opacity="0.42" />
<circle cx="634" cy="529" r="0.8" fill="#86efac" opacity="0.23" />
<circle cx="653" cy="710" r="1.9" fill="#86efac" opacity="0.54" />
<circle cx="520" cy="167" r="2.6" fill="#86efac" opacity="0.37" />
<circle cx="539" cy="348" r="1.3" fill="#86efac" opacity="0.18" />
<circle cx="558" cy="705" r="2.8" fill="#86efac" opacity="0.49" />
<circle cx="577" cy="886" r="1.5" fill="#86efac" opacity="0.30" />
<circle cx="444" cy="343" r="2.2" fill="#86efac" opacity="0.63" />
<circle cx="463" cy="524" r="0.9" fill="#86efac" opacity="0.44" />
<circle cx="757" cy="756" r="1.9" fill="#86efac" opacity="0.24" />
<circle cx="738" cy="575" r="0.8" fill="#86efac" opacity="0.43" />
<circle cx="719" cy="394" r="1.7" fill="#86efac" opacity="0.36" />
<circle cx="700" cy="213" r="3.0" fill="#86efac" opacity="0.55" />
<circle cx="681" cy="32" r="1.5" fill="#86efac" opacity="0.48" />
<circle cx="662" cy="751" r="2.8" fill="#86efac" opacity="0.67" />
<circle cx="643" cy="570" r="1.3" fill="#86efac" opacity="0.60" />
<circle cx="624" cy="389" r="2.6" fill="#86efac" opacity="0.29" />
<circle cx="909" cy="208" r="2.7" fill="#86efac" opacity="0.30" />
<circle cx="890" cy="27" r="1.6" fill="#86efac" opacity="0.49" />
<circle cx="766" cy="819" r="1.6" fill="#86efac" opacity="0.33" />
<circle cx="785" cy="100" r="2.7" fill="#86efac" opacity="0.64" />
<circle cx="728" cy="457" r="1.4" fill="#86efac" opacity="0.45" />
<circle cx="747" cy="638" r="2.5" fill="#86efac" opacity="0.26" />
<circle cx="842" cy="95" r="1.2" fill="#86efac" opacity="0.59" />
<circle cx="861" cy="276" r="2.3" fill="#86efac" opacity="0.40" />
<circle cx="804" cy="633" r="1.0" fill="#86efac" opacity="0.21" />
<circle cx="823" cy="814" r="2.1" fill="#86efac" opacity="0.52" />
<circle cx="614" cy="467" r="0.8" fill="#86efac" opacity="0.35" />
<circle cx="633" cy="648" r="1.9" fill="#86efac" opacity="0.66" />
<circle cx="7" cy="274" r="0.9" fill="#86efac" opacity="0.24" />
<circle cx="1588" cy="93" r="2.2" fill="#86efac" opacity="0.43" />
<circle cx="45" cy="636" r="1.1" fill="#86efac" opacity="0.62" />
<circle cx="26" cy="455" r="2.4" fill="#86efac" opacity="0.31" />
<circle cx="1531" cy="98" r="2.9" fill="#86efac" opacity="0.50" />
<circle cx="1512" cy="817" r="1.8" fill="#86efac" opacity="0.19" />
<circle cx="1569" cy="460" r="3.1" fill="#86efac" opacity="0.38" />
<circle cx="1550" cy="279" r="2.0" fill="#86efac" opacity="0.57" />
<circle cx="1455" cy="730" r="2.5" fill="#86efac" opacity="0.26" />
<circle cx="1436" cy="549" r="1.4" fill="#86efac" opacity="0.45" />
<circle cx="1384" cy="337" r="2.2" fill="#86efac" opacity="0.47" />
<circle cx="1403" cy="518" r="0.9" fill="#86efac" opacity="0.28" />
<circle cx="1422" cy="699" r="2.4" fill="#86efac" opacity="0.35" />
<circle cx="1441" cy="880" r="1.1" fill="#86efac" opacity="0.66" />
<circle cx="1460" cy="161" r="1.8" fill="#86efac" opacity="0.21" />
<circle cx="1479" cy="342" r="2.9" fill="#86efac" opacity="0.52" />
<circle cx="1498" cy="523" r="2.0" fill="#86efac" opacity="0.59" />
<circle cx="1517" cy="704" r="3.1" fill="#86efac" opacity="0.40" />
<circle cx="1232" cy="885" r="1.4" fill="#86efac" opacity="0.49" />
<circle cx="1251" cy="166" r="2.5" fill="#86efac" opacity="0.30" />
<circle cx="1393" cy="128" r="1.5" fill="#86efac" opacity="0.38" />
<circle cx="1374" cy="847" r="2.8" fill="#86efac" opacity="0.57" />
<circle cx="1355" cy="666" r="1.3" fill="#86efac" opacity="0.50" />
<circle cx="1336" cy="485" r="2.6" fill="#86efac" opacity="0.19" />
<circle cx="1469" cy="852" r="1.9" fill="#86efac" opacity="0.64" />
<circle cx="1450" cy="671" r="0.8" fill="#86efac" opacity="0.33" />
<circle cx="1431" cy="490" r="1.7" fill="#86efac" opacity="0.26" />
<circle cx="1412" cy="309" r="3.0" fill="#86efac" opacity="0.45" />
<circle cx="1241" cy="676" r="3.1" fill="#86efac" opacity="0.40" />
<circle cx="1222" cy="495" r="2.0" fill="#86efac" opacity="0.59" />
<circle cx="1402" cy="479" r="1.2" fill="#86efac" opacity="0.55" />
<circle cx="1421" cy="660" r="2.3" fill="#86efac" opacity="0.36" />
<circle cx="1364" cy="117" r="1.0" fill="#86efac" opacity="0.67" />
<circle cx="1383" cy="298" r="2.1" fill="#86efac" opacity="0.48" />
<circle cx="1326" cy="303" r="1.6" fill="#86efac" opacity="0.29" />
<circle cx="1345" cy="484" r="2.7" fill="#86efac" opacity="0.60" />
<circle cx="1288" cy="841" r="1.4" fill="#86efac" opacity="0.41" />
<circle cx="1307" cy="122" r="2.5" fill="#86efac" opacity="0.22" /></g>
  <circle cx="454" cy="325" r="230" fill="#fdba74" opacity="0.08"/>
  <circle cx="1096" cy="664" r="275" fill="#86efac" opacity="0.08"/>
  <g filter="url(#softGlow)">
    
      <path d="M660 225 C500 405 500 610 660 770" fill="none" stroke="#86efac" stroke-width="23" stroke-linecap="round" opacity="0.78"/>
      <path d="M660 225 C760 410 760 585 660 770" fill="none" stroke="#fdba74" stroke-width="7" opacity="0.74"/>
      <line x1="658" y1="225" x2="658" y2="770" stroke="#fff7ed" stroke-width="4" opacity="0.68"/>
      <line x1="700" y1="505" x2="1045" y2="505" stroke="#86efac" stroke-width="13" stroke-linecap="round" opacity="0.82"/>
      <path d="M1045 505 l-58 -32 l16 32 l-16 32 Z" fill="#86efac" opacity="0.86"/>
    
  </g>
  <g opacity="0.78">
    <rect x="88" y="82" width="1424" height="736" rx="46" fill="none" stroke="#ffffff" stroke-opacity="0.2" stroke-width="2"/>
    <path d="M150 150 C320 82 525 78 720 126" stroke="#fff7ed" stroke-opacity="0.44" stroke-width="7" stroke-linecap="round"/>
    <path d="M1332 710 C1215 775 1005 792 855 752" stroke="#fdba74" stroke-opacity="0.42" stroke-width="8" stroke-linecap="round"/>
  </g>
  <g transform="translate(126 714)">
    <rect width="420" height="86" rx="28" fill="#ffffff" opacity="0.12"/>
    <rect x="1" y="1" width="418" height="84" rx="27" fill="none" stroke="#ffffff" stroke-opacity="0.22"/>
    <text x="36" y="56" font-family="Georgia, 'Noto Serif Devanagari', serif" font-size="40" font-weight="700" fill="#fff7ed">धनुष</text>
    <circle cx="352" cy="43" r="15" fill="#fdba74" opacity="0.9"/>
  </g>
  <rect width="1600" height="900" filter="url(#grain)" opacity="0.34"/>
</svg>
