<svg xmlns="http://www.w3.org/2000/svg" width="1600" height="900" viewBox="0 0 1600 900" role="img" aria-label="शंख बजाने के स्वास्थ्य और आध्यात्मिक लाभ: वैज्ञानिक विश्लेषण और महत्व">
  <defs>
    <radialGradient id="bgGlow" cx="50%" cy="43%" r="75%">
      <stop offset="0%" stop-color="#fde047" stop-opacity="0.46"/>
      <stop offset="45%" stop-color="#5a2508" stop-opacity="0.92"/>
      <stop offset="100%" stop-color="#1e1404"/>
    </radialGradient>
    <linearGradient id="glassPanel" x1="0%" y1="0%" x2="100%" y2="100%">
      <stop offset="0%" stop-color="#ffffff" stop-opacity="0.58"/>
      <stop offset="42%" stop-color="#fde047" stop-opacity="0.22"/>
      <stop offset="100%" stop-color="#ffffff" stop-opacity="0.08"/>
    </linearGradient>
    <radialGradient id="glassOrb" cx="34%" cy="24%" r="68%">
      <stop offset="0%" stop-color="#ffffff" stop-opacity="0.94"/>
      <stop offset="34%" stop-color="#fde047" stop-opacity="0.62"/>
      <stop offset="100%" stop-color="#5a2508" stop-opacity="0.22"/>
    </radialGradient>
    <linearGradient id="glassMountain" x1="0%" y1="0%" x2="100%" y2="100%">
      <stop offset="0%" stop-color="#ffffff" stop-opacity="0.48"/>
      <stop offset="100%" stop-color="#fde047" stop-opacity="0.22"/>
    </linearGradient>
    <filter id="softGlow" x="-30%" y="-30%" width="160%" height="160%">
      <feGaussianBlur stdDeviation="18" result="blur"/>
      <feColorMatrix in="blur" type="matrix" values="1 0 0 0 0  0 1 0 0 0  0 0 1 0 0  0 0 0 0.75 0"/>
      <feMerge>
        <feMergeNode/>
        <feMergeNode in="SourceGraphic"/>
      </feMerge>
    </filter>
    <filter id="grain">
      <feTurbulence type="fractalNoise" baseFrequency="0.82" numOctaves="3" seed="487"/>
      <feColorMatrix type="saturate" values="0"/>
      <feComponentTransfer>
        <feFuncA type="table" tableValues="0 0.075"/>
      </feComponentTransfer>
    </filter>
  </defs>
  <rect width="1600" height="900" fill="url(#bgGlow)"/>
  <g opacity="0.72"><circle cx="1575" cy="152" r="0.9" fill="#f97316" opacity="0.40" />
<circle cx="1556" cy="871" r="2.2" fill="#f97316" opacity="0.59" />
<circle cx="13" cy="690" r="1.1" fill="#f97316" opacity="0.52" />
<circle cx="1594" cy="509" r="2.4" fill="#f97316" opacity="0.21" />
<circle cx="1499" cy="328" r="2.9" fill="#f97316" opacity="0.66" />
<circle cx="1480" cy="147" r="1.8" fill="#f97316" opacity="0.35" />
<circle cx="1537" cy="866" r="3.1" fill="#f97316" opacity="0.28" />
<circle cx="1518" cy="685" r="2.0" fill="#f97316" opacity="0.47" />
<circle cx="1423" cy="700" r="1.7" fill="#f97316" opacity="0.38" />
<circle cx="1404" cy="519" r="3.0" fill="#f97316" opacity="0.57" />
<circle cx="812" cy="1" r="1.0" fill="#f97316" opacity="0.45" />
<circle cx="831" cy="182" r="2.1" fill="#f97316" opacity="0.26" />
<circle cx="850" cy="363" r="1.2" fill="#f97316" opacity="0.33" />
<circle cx="869" cy="544" r="2.3" fill="#f97316" opacity="0.64" />
<circle cx="736" cy="177" r="1.4" fill="#f97316" opacity="0.21" />
<circle cx="755" cy="358" r="2.5" fill="#f97316" opacity="0.52" />
<circle cx="774" cy="539" r="1.6" fill="#f97316" opacity="0.59" />
<circle cx="793" cy="720" r="2.7" fill="#f97316" opacity="0.40" />
<circle cx="964" cy="549" r="1.8" fill="#f97316" opacity="0.47" />
<circle cx="983" cy="730" r="2.9" fill="#f97316" opacity="0.28" />
<circle cx="775" cy="210" r="1.7" fill="#f97316" opacity="0.44" />
<circle cx="756" cy="29" r="3.0" fill="#f97316" opacity="0.63" />
<circle cx="813" cy="572" r="1.9" fill="#f97316" opacity="0.32" />
<circle cx="794" cy="391" r="0.8" fill="#f97316" opacity="0.51" />
<circle cx="699" cy="34" r="1.3" fill="#f97316" opacity="0.20" />
<circle cx="680" cy="753" r="2.6" fill="#f97316" opacity="0.39" />
<circle cx="737" cy="396" r="1.5" fill="#f97316" opacity="0.58" />
<circle cx="718" cy="215" r="2.8" fill="#f97316" opacity="0.27" />
<circle cx="623" cy="758" r="2.5" fill="#f97316" opacity="0.42" />
<circle cx="604" cy="577" r="1.4" fill="#f97316" opacity="0.61" />
<circle cx="830" cy="811" r="2.4" fill="#f97316" opacity="0.53" />
<circle cx="849" cy="92" r="1.1" fill="#f97316" opacity="0.34" />
<circle cx="792" cy="449" r="2.2" fill="#f97316" opacity="0.65" />
<circle cx="811" cy="630" r="0.9" fill="#f97316" opacity="0.46" />
<circle cx="906" cy="87" r="2.0" fill="#f97316" opacity="0.29" />
<circle cx="925" cy="268" r="3.1" fill="#f97316" opacity="0.60" />
<circle cx="868" cy="625" r="1.8" fill="#f97316" opacity="0.41" />
<circle cx="887" cy="806" r="2.9" fill="#f97316" opacity="0.22" />
<circle cx="678" cy="263" r="0.8" fill="#f97316" opacity="0.51" />
<circle cx="697" cy="444" r="1.9" fill="#f97316" opacity="0.32" />
<circle cx="561" cy="456" r="2.3" fill="#f97316" opacity="0.58" />
<circle cx="542" cy="275" r="1.2" fill="#f97316" opacity="0.27" />
<circle cx="523" cy="94" r="2.1" fill="#f97316" opacity="0.20" />
<circle cx="504" cy="813" r="1.0" fill="#f97316" opacity="0.39" />
<circle cx="637" cy="280" r="2.7" fill="#f97316" opacity="0.34" />
<circle cx="618" cy="99" r="1.6" fill="#f97316" opacity="0.53" />
<circle cx="599" cy="818" r="2.5" fill="#f97316" opacity="0.46" />
<circle cx="580" cy="637" r="1.4" fill="#f97316" opacity="0.65" />
<circle cx="409" cy="808" r="3.1" fill="#f97316" opacity="0.56" />
<circle cx="390" cy="627" r="2.0" fill="#f97316" opacity="0.25" />
<circle cx="552" cy="665" r="3.0" fill="#f97316" opacity="0.67" />
<circle cx="571" cy="846" r="1.7" fill="#f97316" opacity="0.48" />
<circle cx="590" cy="127" r="0.8" fill="#f97316" opacity="0.55" />
<circle cx="609" cy="308" r="1.9" fill="#f97316" opacity="0.36" />
<circle cx="628" cy="489" r="2.6" fill="#f97316" opacity="0.41" />
<circle cx="647" cy="670" r="1.3" fill="#f97316" opacity="0.22" />
<circle cx="666" cy="851" r="2.8" fill="#f97316" opacity="0.29" />
<circle cx="685" cy="132" r="1.5" fill="#f97316" opacity="0.60" />
<circle cx="400" cy="117" r="1.4" fill="#f97316" opacity="0.65" />
<circle cx="419" cy="298" r="2.5" fill="#f97316" opacity="0.46" />
<circle cx="803" cy="874" r="1.3" fill="#f97316" opacity="0.54" />
<circle cx="784" cy="693" r="2.6" fill="#f97316" opacity="0.23" />
<circle cx="841" cy="336" r="1.5" fill="#f97316" opacity="0.42" />
<circle cx="822" cy="155" r="2.8" fill="#f97316" opacity="0.61" />
<circle cx="879" cy="150" r="1.7" fill="#f97316" opacity="0.28" />
<circle cx="860" cy="869" r="3.0" fill="#f97316" opacity="0.47" />
<circle cx="917" cy="512" r="1.9" fill="#f97316" opacity="0.66" />
<circle cx="898" cy="331" r="0.8" fill="#f97316" opacity="0.35" /></g>
  <circle cx="485" cy="318" r="230" fill="#fde047" opacity="0.08"/>
  <circle cx="1127" cy="705" r="275" fill="#f97316" opacity="0.08"/>
  <g filter="url(#softGlow)">
    
      <path d="M800 705 C635 585 690 445 772 358 C765 458 875 465 842 275 C995 405 1025 595 800 705 Z" fill="#f97316" opacity="0.75"/>
      <path d="M805 670 C725 598 742 506 807 438 C802 514 888 535 878 442 C950 538 928 632 805 670 Z" fill="#fde047" opacity="0.84"/>
      <path d="M615 728 h370" stroke="#fff7ed" stroke-width="20" stroke-linecap="round" opacity="0.44"/>
      <path d="M690 760 h220" stroke="#f97316" stroke-width="18" stroke-linecap="round" opacity="0.52"/>
    
  </g>
  <g opacity="0.78">
    <rect x="88" y="82" width="1424" height="736" rx="46" fill="none" stroke="#ffffff" stroke-opacity="0.2" stroke-width="2"/>
    <path d="M150 150 C320 82 525 78 720 126" stroke="#fff7ed" stroke-opacity="0.44" stroke-width="7" stroke-linecap="round"/>
    <path d="M1332 710 C1215 775 1005 792 855 752" stroke="#fde047" stroke-opacity="0.42" stroke-width="8" stroke-linecap="round"/>
  </g>
  <g transform="translate(126 714)">
    <rect width="420" height="86" rx="28" fill="#ffffff" opacity="0.12"/>
    <rect x="1" y="1" width="418" height="84" rx="27" fill="none" stroke="#ffffff" stroke-opacity="0.22"/>
    <text x="36" y="56" font-family="Georgia, 'Noto Serif Devanagari', serif" font-size="40" font-weight="700" fill="#fff7ed">दीप</text>
    <circle cx="352" cy="43" r="15" fill="#fde047" opacity="0.9"/>
  </g>
  <rect width="1600" height="900" filter="url(#grain)" opacity="0.34"/>
</svg>
