<svg xmlns="http://www.w3.org/2000/svg" width="1600" height="900" viewBox="0 0 1600 900" role="img" aria-label="ब्रह्म सूत्र: उपनिषदों के ज्ञान का तार्किक और दार्शनिक सार: प्रस्थानत्रयी, ब्रह्म जिज्ञासा और वेदान्त दर्शन का रहस्य">
  <defs>
    <radialGradient id="bgGlow" cx="50%" cy="43%" r="75%">
      <stop offset="0%" stop-color="#fcd34d" stop-opacity="0.46"/>
      <stop offset="45%" stop-color="#5b3311" stop-opacity="0.92"/>
      <stop offset="100%" stop-color="#201104"/>
    </radialGradient>
    <linearGradient id="glassPanel" x1="0%" y1="0%" x2="100%" y2="100%">
      <stop offset="0%" stop-color="#ffffff" stop-opacity="0.58"/>
      <stop offset="42%" stop-color="#fcd34d" stop-opacity="0.22"/>
      <stop offset="100%" stop-color="#ffffff" stop-opacity="0.08"/>
    </linearGradient>
    <radialGradient id="glassOrb" cx="34%" cy="24%" r="68%">
      <stop offset="0%" stop-color="#ffffff" stop-opacity="0.94"/>
      <stop offset="34%" stop-color="#fcd34d" stop-opacity="0.62"/>
      <stop offset="100%" stop-color="#5b3311" stop-opacity="0.22"/>
    </radialGradient>
    <linearGradient id="glassMountain" x1="0%" y1="0%" x2="100%" y2="100%">
      <stop offset="0%" stop-color="#ffffff" stop-opacity="0.48"/>
      <stop offset="100%" stop-color="#fcd34d" stop-opacity="0.22"/>
    </linearGradient>
    <filter id="softGlow" x="-30%" y="-30%" width="160%" height="160%">
      <feGaussianBlur stdDeviation="18" result="blur"/>
      <feColorMatrix in="blur" type="matrix" values="1 0 0 0 0  0 1 0 0 0  0 0 1 0 0  0 0 0 0.75 0"/>
      <feMerge>
        <feMergeNode/>
        <feMergeNode in="SourceGraphic"/>
      </feMerge>
    </filter>
    <filter id="grain">
      <feTurbulence type="fractalNoise" baseFrequency="0.82" numOctaves="3" seed="109"/>
      <feColorMatrix type="saturate" values="0"/>
      <feComponentTransfer>
        <feFuncA type="table" tableValues="0 0.075"/>
      </feComponentTransfer>
    </filter>
  </defs>
  <rect width="1600" height="900" fill="url(#bgGlow)"/>
  <g opacity="0.72"><circle cx="617" cy="326" r="3.1" fill="#fb923c" opacity="0.22" />
<circle cx="598" cy="145" r="2.0" fill="#fb923c" opacity="0.41" />
<circle cx="1475" cy="688" r="2.9" fill="#fb923c" opacity="0.60" />
<circle cx="1456" cy="507" r="1.8" fill="#fb923c" opacity="0.29" />
<circle cx="693" cy="150" r="1.1" fill="#fb923c" opacity="0.46" />
<circle cx="674" cy="869" r="2.4" fill="#fb923c" opacity="0.65" />
<circle cx="655" cy="512" r="0.9" fill="#fb923c" opacity="0.34" />
<circle cx="636" cy="331" r="2.2" fill="#fb923c" opacity="0.53" />
<circle cx="769" cy="678" r="2.3" fill="#fb923c" opacity="0.20" />
<circle cx="750" cy="497" r="1.2" fill="#fb923c" opacity="0.39" />
<circle cx="1426" cy="303" r="2.8" fill="#fb923c" opacity="0.49" />
<circle cx="1445" cy="484" r="1.5" fill="#fb923c" opacity="0.30" />
<circle cx="1388" cy="841" r="2.6" fill="#fb923c" opacity="0.61" />
<circle cx="1407" cy="122" r="1.3" fill="#fb923c" opacity="0.42" />
<circle cx="1350" cy="127" r="0.8" fill="#fb923c" opacity="0.23" />
<circle cx="1369" cy="308" r="1.9" fill="#fb923c" opacity="0.54" />
<circle cx="1312" cy="665" r="3.0" fill="#fb923c" opacity="0.35" />
<circle cx="1331" cy="846" r="1.7" fill="#fb923c" opacity="0.66" />
<circle cx="1578" cy="655" r="1.2" fill="#fb923c" opacity="0.51" />
<circle cx="1597" cy="836" r="2.3" fill="#fb923c" opacity="0.32" />
<circle cx="1417" cy="852" r="3.1" fill="#fb923c" opacity="0.58" />
<circle cx="1398" cy="671" r="2.0" fill="#fb923c" opacity="0.27" />
<circle cx="1379" cy="490" r="2.9" fill="#fb923c" opacity="0.20" />
<circle cx="1360" cy="309" r="1.8" fill="#fb923c" opacity="0.39" />
<circle cx="1493" cy="676" r="1.1" fill="#fb923c" opacity="0.34" />
<circle cx="1474" cy="495" r="2.4" fill="#fb923c" opacity="0.53" />
<circle cx="1455" cy="314" r="0.9" fill="#fb923c" opacity="0.46" />
<circle cx="1436" cy="133" r="2.2" fill="#fb923c" opacity="0.65" />
<circle cx="1569" cy="500" r="2.3" fill="#fb923c" opacity="0.56" />
<circle cx="1550" cy="319" r="1.2" fill="#fb923c" opacity="0.25" />
<circle cx="576" cy="393" r="1.4" fill="#fb923c" opacity="0.67" />
<circle cx="595" cy="574" r="2.5" fill="#fb923c" opacity="0.48" />
<circle cx="614" cy="755" r="1.6" fill="#fb923c" opacity="0.55" />
<circle cx="633" cy="36" r="2.7" fill="#fb923c" opacity="0.36" />
<circle cx="652" cy="217" r="1.0" fill="#fb923c" opacity="0.41" />
<circle cx="671" cy="398" r="2.1" fill="#fb923c" opacity="0.22" />
<circle cx="690" cy="579" r="1.2" fill="#fb923c" opacity="0.29" />
<circle cx="709" cy="760" r="2.3" fill="#fb923c" opacity="0.60" />
<circle cx="728" cy="41" r="3.0" fill="#fb923c" opacity="0.65" />
<circle cx="747" cy="222" r="1.7" fill="#fb923c" opacity="0.46" />
<circle cx="799" cy="434" r="2.5" fill="#fb923c" opacity="0.44" />
<circle cx="780" cy="253" r="1.4" fill="#fb923c" opacity="0.63" />
<circle cx="837" cy="796" r="2.7" fill="#fb923c" opacity="0.32" />
<circle cx="818" cy="615" r="1.6" fill="#fb923c" opacity="0.51" />
<circle cx="723" cy="258" r="2.1" fill="#fb923c" opacity="0.20" />
<circle cx="704" cy="77" r="1.0" fill="#fb923c" opacity="0.39" />
<circle cx="761" cy="620" r="2.3" fill="#fb923c" opacity="0.58" />
<circle cx="742" cy="439" r="1.2" fill="#fb923c" opacity="0.27" />
<circle cx="951" cy="786" r="1.7" fill="#fb923c" opacity="0.42" />
<circle cx="932" cy="605" r="3.0" fill="#fb923c" opacity="0.61" />
<circle cx="790" cy="643" r="0.8" fill="#fb923c" opacity="0.39" />
<circle cx="809" cy="824" r="1.9" fill="#fb923c" opacity="0.20" />
<circle cx="752" cy="281" r="3.0" fill="#fb923c" opacity="0.51" />
<circle cx="771" cy="462" r="1.7" fill="#fb923c" opacity="0.32" />
<circle cx="866" cy="819" r="2.8" fill="#fb923c" opacity="0.65" />
<circle cx="885" cy="100" r="1.5" fill="#fb923c" opacity="0.46" />
<circle cx="828" cy="457" r="2.6" fill="#fb923c" opacity="0.27" />
<circle cx="847" cy="638" r="1.3" fill="#fb923c" opacity="0.58" />
<circle cx="942" cy="291" r="2.4" fill="#fb923c" opacity="0.37" />
<circle cx="961" cy="472" r="1.1" fill="#fb923c" opacity="0.18" />
<circle cx="1389" cy="580" r="1.1" fill="#fb923c" opacity="0.48" />
<circle cx="1370" cy="399" r="2.4" fill="#fb923c" opacity="0.67" />
<circle cx="1351" cy="218" r="0.9" fill="#fb923c" opacity="0.60" />
<circle cx="1332" cy="37" r="2.2" fill="#fb923c" opacity="0.29" />
<circle cx="1313" cy="756" r="3.1" fill="#fb923c" opacity="0.22" />
<circle cx="1294" cy="575" r="2.0" fill="#fb923c" opacity="0.41" />
<circle cx="1275" cy="394" r="2.9" fill="#fb923c" opacity="0.34" />
<circle cx="1256" cy="213" r="1.8" fill="#fb923c" opacity="0.53" /></g>
  <circle cx="467" cy="276" r="230" fill="#fcd34d" opacity="0.08"/>
  <circle cx="1085" cy="637" r="275" fill="#fb923c" opacity="0.08"/>
  <g filter="url(#softGlow)">
    
      <path d="M520 300 h560 a44 44 0 0 1 44 44 v280 a44 44 0 0 1 -44 44 H520 a44 44 0 0 1 -44 -44 V344 a44 44 0 0 1 44 -44 Z" fill="url(#glassPanel)" opacity="0.72"/>
      <path d="M800 320 v330" stroke="#fff7ed" stroke-width="9" opacity="0.48"/>
      <path d="M555 380 h185" stroke="#fb923c" stroke-width="10" stroke-linecap="round" opacity="0.35" />
<path d="M555 416 h185" stroke="#fb923c" stroke-width="10" stroke-linecap="round" opacity="0.385" />
<path d="M555 452 h185" stroke="#fb923c" stroke-width="10" stroke-linecap="round" opacity="0.42" />
<path d="M555 488 h185" stroke="#fb923c" stroke-width="10" stroke-linecap="round" opacity="0.45499999999999996" />
<path d="M555 524 h185" stroke="#fb923c" stroke-width="10" stroke-linecap="round" opacity="0.49" />
<path d="M555 560 h185" stroke="#fb923c" stroke-width="10" stroke-linecap="round" opacity="0.525" />
<path d="M555 596 h185" stroke="#fb923c" stroke-width="10" stroke-linecap="round" opacity="0.56" />
      <path d="M865 380 h185" stroke="#fcd34d" stroke-width="10" stroke-linecap="round" opacity="0.35" />
<path d="M865 416 h185" stroke="#fcd34d" stroke-width="10" stroke-linecap="round" opacity="0.385" />
<path d="M865 452 h185" stroke="#fcd34d" stroke-width="10" stroke-linecap="round" opacity="0.42" />
<path d="M865 488 h185" stroke="#fcd34d" stroke-width="10" stroke-linecap="round" opacity="0.45499999999999996" />
<path d="M865 524 h185" stroke="#fcd34d" stroke-width="10" stroke-linecap="round" opacity="0.49" />
<path d="M865 560 h185" stroke="#fcd34d" stroke-width="10" stroke-linecap="round" opacity="0.525" />
<path d="M865 596 h185" stroke="#fcd34d" stroke-width="10" stroke-linecap="round" opacity="0.56" />
    
  </g>
  <g opacity="0.78">
    <rect x="88" y="82" width="1424" height="736" rx="46" fill="none" stroke="#ffffff" stroke-opacity="0.2" stroke-width="2"/>
    <path d="M150 150 C320 82 525 78 720 126" stroke="#fff7ed" stroke-opacity="0.44" stroke-width="7" stroke-linecap="round"/>
    <path d="M1332 710 C1215 775 1005 792 855 752" stroke="#fcd34d" stroke-opacity="0.42" stroke-width="8" stroke-linecap="round"/>
  </g>
  <g transform="translate(126 714)">
    <rect width="420" height="86" rx="28" fill="#ffffff" opacity="0.12"/>
    <rect x="1" y="1" width="418" height="84" rx="27" fill="none" stroke="#ffffff" stroke-opacity="0.22"/>
    <text x="36" y="56" font-family="Georgia, 'Noto Serif Devanagari', serif" font-size="40" font-weight="700" fill="#fff7ed">ग्रंथ</text>
    <circle cx="352" cy="43" r="15" fill="#fcd34d" opacity="0.9"/>
  </g>
  <rect width="1600" height="900" filter="url(#grain)" opacity="0.34"/>
</svg>
