<svg xmlns="http://www.w3.org/2000/svg" width="1600" height="900" viewBox="0 0 1600 900" role="img" aria-label="चैतन्य महाप्रभु: संकीर्तन आंदोलन के जनक और गौड़ीय वैष्णव संप्रदाय">
  <defs>
    <radialGradient id="bgGlow" cx="50%" cy="43%" r="75%">
      <stop offset="0%" stop-color="#c4b5fd" stop-opacity="0.46"/>
      <stop offset="45%" stop-color="#3a2267" stop-opacity="0.92"/>
      <stop offset="100%" stop-color="#130b2a"/>
    </radialGradient>
    <linearGradient id="glassPanel" x1="0%" y1="0%" x2="100%" y2="100%">
      <stop offset="0%" stop-color="#ffffff" stop-opacity="0.58"/>
      <stop offset="42%" stop-color="#c4b5fd" stop-opacity="0.22"/>
      <stop offset="100%" stop-color="#ffffff" stop-opacity="0.08"/>
    </linearGradient>
    <radialGradient id="glassOrb" cx="34%" cy="24%" r="68%">
      <stop offset="0%" stop-color="#ffffff" stop-opacity="0.94"/>
      <stop offset="34%" stop-color="#c4b5fd" stop-opacity="0.62"/>
      <stop offset="100%" stop-color="#3a2267" stop-opacity="0.22"/>
    </radialGradient>
    <linearGradient id="glassMountain" x1="0%" y1="0%" x2="100%" y2="100%">
      <stop offset="0%" stop-color="#ffffff" stop-opacity="0.48"/>
      <stop offset="100%" stop-color="#c4b5fd" stop-opacity="0.22"/>
    </linearGradient>
    <filter id="softGlow" x="-30%" y="-30%" width="160%" height="160%">
      <feGaussianBlur stdDeviation="18" result="blur"/>
      <feColorMatrix in="blur" type="matrix" values="1 0 0 0 0  0 1 0 0 0  0 0 1 0 0  0 0 0 0.75 0"/>
      <feMerge>
        <feMergeNode/>
        <feMergeNode in="SourceGraphic"/>
      </feMerge>
    </filter>
    <filter id="grain">
      <feTurbulence type="fractalNoise" baseFrequency="0.82" numOctaves="3" seed="563"/>
      <feColorMatrix type="saturate" values="0"/>
      <feComponentTransfer>
        <feFuncA type="table" tableValues="0 0.075"/>
      </feComponentTransfer>
    </filter>
  </defs>
  <rect width="1600" height="900" fill="url(#bgGlow)"/>
  <g opacity="0.72"><circle cx="1019" cy="44" r="2.9" fill="#fcd34d" opacity="0.44" />
<circle cx="1000" cy="763" r="1.8" fill="#fcd34d" opacity="0.63" />
<circle cx="1057" cy="582" r="3.1" fill="#fcd34d" opacity="0.56" />
<circle cx="1038" cy="401" r="2.0" fill="#fcd34d" opacity="0.25" />
<circle cx="1095" cy="768" r="0.9" fill="#fcd34d" opacity="0.18" />
<circle cx="1076" cy="587" r="2.2" fill="#fcd34d" opacity="0.37" />
<circle cx="1133" cy="406" r="1.1" fill="#fcd34d" opacity="0.30" />
<circle cx="1114" cy="225" r="2.4" fill="#fcd34d" opacity="0.49" />
<circle cx="867" cy="396" r="2.1" fill="#fcd34d" opacity="0.42" />
<circle cx="848" cy="215" r="1.0" fill="#fcd34d" opacity="0.61" />
<circle cx="904" cy="553" r="2.2" fill="#fcd34d" opacity="0.39" />
<circle cx="923" cy="734" r="0.9" fill="#fcd34d" opacity="0.20" />
<circle cx="942" cy="15" r="2.4" fill="#fcd34d" opacity="0.27" />
<circle cx="961" cy="196" r="1.1" fill="#fcd34d" opacity="0.58" />
<circle cx="980" cy="377" r="1.8" fill="#fcd34d" opacity="0.63" />
<circle cx="999" cy="558" r="2.9" fill="#fcd34d" opacity="0.44" />
<circle cx="1018" cy="739" r="2.0" fill="#fcd34d" opacity="0.51" />
<circle cx="1037" cy="20" r="3.1" fill="#fcd34d" opacity="0.32" />
<circle cx="752" cy="201" r="2.2" fill="#fcd34d" opacity="0.37" />
<circle cx="771" cy="382" r="0.9" fill="#fcd34d" opacity="0.18" />
<circle cx="1155" cy="590" r="2.9" fill="#fcd34d" opacity="0.62" />
<circle cx="1136" cy="409" r="1.8" fill="#fcd34d" opacity="0.31" />
<circle cx="1193" cy="52" r="3.1" fill="#fcd34d" opacity="0.50" />
<circle cx="1174" cy="771" r="2.0" fill="#fcd34d" opacity="0.19" />
<circle cx="1231" cy="766" r="0.9" fill="#fcd34d" opacity="0.36" />
<circle cx="1212" cy="585" r="2.2" fill="#fcd34d" opacity="0.55" />
<circle cx="1269" cy="228" r="1.1" fill="#fcd34d" opacity="0.24" />
<circle cx="1250" cy="47" r="2.4" fill="#fcd34d" opacity="0.43" />
<circle cx="1307" cy="42" r="1.3" fill="#fcd34d" opacity="0.64" />
<circle cx="1288" cy="761" r="2.6" fill="#fcd34d" opacity="0.33" />
<circle cx="154" cy="799" r="1.2" fill="#fcd34d" opacity="0.21" />
<circle cx="173" cy="80" r="2.3" fill="#fcd34d" opacity="0.52" />
<circle cx="116" cy="437" r="1.0" fill="#fcd34d" opacity="0.33" />
<circle cx="135" cy="618" r="2.1" fill="#fcd34d" opacity="0.64" />
<circle cx="78" cy="623" r="1.6" fill="#fcd34d" opacity="0.45" />
<circle cx="97" cy="804" r="2.7" fill="#fcd34d" opacity="0.26" />
<circle cx="40" cy="261" r="1.4" fill="#fcd34d" opacity="0.57" />
<circle cx="59" cy="442" r="2.5" fill="#fcd34d" opacity="0.38" />
<circle cx="2" cy="251" r="2.0" fill="#fcd34d" opacity="0.23" />
<circle cx="21" cy="432" r="3.1" fill="#fcd34d" opacity="0.54" />
<circle cx="1109" cy="176" r="1.9" fill="#fcd34d" opacity="0.66" />
<circle cx="1090" cy="895" r="0.8" fill="#fcd34d" opacity="0.35" />
<circle cx="1071" cy="714" r="1.7" fill="#fcd34d" opacity="0.28" />
<circle cx="1052" cy="533" r="3.0" fill="#fcd34d" opacity="0.47" />
<circle cx="1033" cy="352" r="1.5" fill="#fcd34d" opacity="0.40" />
<circle cx="1014" cy="171" r="2.8" fill="#fcd34d" opacity="0.59" />
<circle cx="995" cy="890" r="1.3" fill="#fcd34d" opacity="0.52" />
<circle cx="976" cy="709" r="2.6" fill="#fcd34d" opacity="0.21" />
<circle cx="1261" cy="528" r="2.7" fill="#fcd34d" opacity="0.64" />
<circle cx="1242" cy="347" r="1.6" fill="#fcd34d" opacity="0.33" />
<circle cx="1164" cy="385" r="2.6" fill="#fcd34d" opacity="0.67" />
<circle cx="1183" cy="566" r="1.3" fill="#fcd34d" opacity="0.48" />
<circle cx="1202" cy="747" r="2.8" fill="#fcd34d" opacity="0.55" />
<circle cx="1221" cy="28" r="1.5" fill="#fcd34d" opacity="0.36" />
<circle cx="1088" cy="561" r="3.0" fill="#fcd34d" opacity="0.43" />
<circle cx="1107" cy="742" r="1.7" fill="#fcd34d" opacity="0.24" />
<circle cx="1126" cy="23" r="0.8" fill="#fcd34d" opacity="0.31" />
<circle cx="1145" cy="204" r="1.9" fill="#fcd34d" opacity="0.62" />
<circle cx="1316" cy="737" r="1.8" fill="#fcd34d" opacity="0.19" />
<circle cx="1335" cy="18" r="2.9" fill="#fcd34d" opacity="0.50" />
<circle cx="1127" cy="826" r="0.9" fill="#fcd34d" opacity="0.66" />
<circle cx="1108" cy="645" r="2.2" fill="#fcd34d" opacity="0.35" />
<circle cx="1165" cy="288" r="1.1" fill="#fcd34d" opacity="0.54" />
<circle cx="1146" cy="107" r="2.4" fill="#fcd34d" opacity="0.23" />
<circle cx="1051" cy="650" r="2.9" fill="#fcd34d" opacity="0.42" />
<circle cx="1032" cy="469" r="1.8" fill="#fcd34d" opacity="0.61" />
<circle cx="1089" cy="112" r="3.1" fill="#fcd34d" opacity="0.30" />
<circle cx="1070" cy="831" r="2.0" fill="#fcd34d" opacity="0.49" /></g>
  <circle cx="481" cy="314" r="230" fill="#c4b5fd" opacity="0.08"/>
  <circle cx="1123" cy="663" r="275" fill="#fcd34d" opacity="0.08"/>
  <g filter="url(#softGlow)">
    
    <ellipse cx="800" cy="285" rx="16" ry="90" fill="#c4b5fd" opacity="0.22" transform="rotate(0 800 460)" />
<ellipse cx="800" cy="285" rx="16" ry="90" fill="#c4b5fd" opacity="0.22" transform="rotate(11.25 800 460)" />
<ellipse cx="800" cy="285" rx="16" ry="90" fill="#c4b5fd" opacity="0.22" transform="rotate(22.5 800 460)" />
<ellipse cx="800" cy="285" rx="16" ry="90" fill="#c4b5fd" opacity="0.22" transform="rotate(33.75 800 460)" />
<ellipse cx="800" cy="285" rx="16" ry="90" fill="#c4b5fd" opacity="0.22" transform="rotate(45 800 460)" />
<ellipse cx="800" cy="285" rx="16" ry="90" fill="#c4b5fd" opacity="0.22" transform="rotate(56.25 800 460)" />
<ellipse cx="800" cy="285" rx="16" ry="90" fill="#c4b5fd" opacity="0.22" transform="rotate(67.5 800 460)" />
<ellipse cx="800" cy="285" rx="16" ry="90" fill="#c4b5fd" opacity="0.22" transform="rotate(78.75 800 460)" />
<ellipse cx="800" cy="285" rx="16" ry="90" fill="#c4b5fd" opacity="0.22" transform="rotate(90 800 460)" />
<ellipse cx="800" cy="285" rx="16" ry="90" fill="#c4b5fd" opacity="0.22" transform="rotate(101.25 800 460)" />
<ellipse cx="800" cy="285" rx="16" ry="90" fill="#c4b5fd" opacity="0.22" transform="rotate(112.5 800 460)" />
<ellipse cx="800" cy="285" rx="16" ry="90" fill="#c4b5fd" opacity="0.22" transform="rotate(123.75 800 460)" />
<ellipse cx="800" cy="285" rx="16" ry="90" fill="#c4b5fd" opacity="0.22" transform="rotate(135 800 460)" />
<ellipse cx="800" cy="285" rx="16" ry="90" fill="#c4b5fd" opacity="0.22" transform="rotate(146.25 800 460)" />
<ellipse cx="800" cy="285" rx="16" ry="90" fill="#c4b5fd" opacity="0.22" transform="rotate(157.5 800 460)" />
<ellipse cx="800" cy="285" rx="16" ry="90" fill="#c4b5fd" opacity="0.22" transform="rotate(168.75 800 460)" />
<ellipse cx="800" cy="285" rx="16" ry="90" fill="#c4b5fd" opacity="0.22" transform="rotate(180 800 460)" />
<ellipse cx="800" cy="285" rx="16" ry="90" fill="#c4b5fd" opacity="0.22" transform="rotate(191.25 800 460)" />
<ellipse cx="800" cy="285" rx="16" ry="90" fill="#c4b5fd" opacity="0.22" transform="rotate(202.5 800 460)" />
<ellipse cx="800" cy="285" rx="16" ry="90" fill="#c4b5fd" opacity="0.22" transform="rotate(213.75 800 460)" />
<ellipse cx="800" cy="285" rx="16" ry="90" fill="#c4b5fd" opacity="0.22" transform="rotate(225 800 460)" />
<ellipse cx="800" cy="285" rx="16" ry="90" fill="#c4b5fd" opacity="0.22" transform="rotate(236.25 800 460)" />
<ellipse cx="800" cy="285" rx="16" ry="90" fill="#c4b5fd" opacity="0.22" transform="rotate(247.5 800 460)" />
<ellipse cx="800" cy="285" rx="16" ry="90" fill="#c4b5fd" opacity="0.22" transform="rotate(258.75 800 460)" />
<ellipse cx="800" cy="285" rx="16" ry="90" fill="#c4b5fd" opacity="0.22" transform="rotate(270 800 460)" />
<ellipse cx="800" cy="285" rx="16" ry="90" fill="#c4b5fd" opacity="0.22" transform="rotate(281.25 800 460)" />
<ellipse cx="800" cy="285" rx="16" ry="90" fill="#c4b5fd" opacity="0.22" transform="rotate(292.5 800 460)" />
<ellipse cx="800" cy="285" rx="16" ry="90" fill="#c4b5fd" opacity="0.22" transform="rotate(303.75 800 460)" />
<ellipse cx="800" cy="285" rx="16" ry="90" fill="#c4b5fd" opacity="0.22" transform="rotate(315 800 460)" />
<ellipse cx="800" cy="285" rx="16" ry="90" fill="#c4b5fd" opacity="0.22" transform="rotate(326.25 800 460)" />
<ellipse cx="800" cy="285" rx="16" ry="90" fill="#c4b5fd" opacity="0.22" transform="rotate(337.5 800 460)" />
<ellipse cx="800" cy="285" rx="16" ry="90" fill="#c4b5fd" opacity="0.22" transform="rotate(348.75 800 460)" />
    <ellipse cx="800" cy="348" rx="20" ry="72" fill="#fcd34d" opacity="0.32" transform="rotate(0 800 460)" />
<ellipse cx="800" cy="348" rx="20" ry="72" fill="#fcd34d" opacity="0.32" transform="rotate(20 800 460)" />
<ellipse cx="800" cy="348" rx="20" ry="72" fill="#fcd34d" opacity="0.32" transform="rotate(40 800 460)" />
<ellipse cx="800" cy="348" rx="20" ry="72" fill="#fcd34d" opacity="0.32" transform="rotate(60 800 460)" />
<ellipse cx="800" cy="348" rx="20" ry="72" fill="#fcd34d" opacity="0.32" transform="rotate(80 800 460)" />
<ellipse cx="800" cy="348" rx="20" ry="72" fill="#fcd34d" opacity="0.32" transform="rotate(100 800 460)" />
<ellipse cx="800" cy="348" rx="20" ry="72" fill="#fcd34d" opacity="0.32" transform="rotate(120 800 460)" />
<ellipse cx="800" cy="348" rx="20" ry="72" fill="#fcd34d" opacity="0.32" transform="rotate(140 800 460)" />
<ellipse cx="800" cy="348" rx="20" ry="72" fill="#fcd34d" opacity="0.32" transform="rotate(160 800 460)" />
<ellipse cx="800" cy="348" rx="20" ry="72" fill="#fcd34d" opacity="0.32" transform="rotate(180 800 460)" />
<ellipse cx="800" cy="348" rx="20" ry="72" fill="#fcd34d" opacity="0.32" transform="rotate(200 800 460)" />
<ellipse cx="800" cy="348" rx="20" ry="72" fill="#fcd34d" opacity="0.32" transform="rotate(220 800 460)" />
<ellipse cx="800" cy="348" rx="20" ry="72" fill="#fcd34d" opacity="0.32" transform="rotate(240 800 460)" />
<ellipse cx="800" cy="348" rx="20" ry="72" fill="#fcd34d" opacity="0.32" transform="rotate(260 800 460)" />
<ellipse cx="800" cy="348" rx="20" ry="72" fill="#fcd34d" opacity="0.32" transform="rotate(280 800 460)" />
<ellipse cx="800" cy="348" rx="20" ry="72" fill="#fcd34d" opacity="0.32" transform="rotate(300 800 460)" />
<ellipse cx="800" cy="348" rx="20" ry="72" fill="#fcd34d" opacity="0.32" transform="rotate(320 800 460)" />
<ellipse cx="800" cy="348" rx="20" ry="72" fill="#fcd34d" opacity="0.32" transform="rotate(340 800 460)" />
    <circle cx="800" cy="460" r="140" fill="url(#glassOrb)" opacity="0.78"/>
    <text x="800" y="525" text-anchor="middle" font-family="Georgia, 'Noto Serif Devanagari', serif" font-size="210" font-weight="700" fill="#fff7ed" opacity="0.9">ॐ</text>
  
  </g>
  <g opacity="0.78">
    <rect x="88" y="82" width="1424" height="736" rx="46" fill="none" stroke="#ffffff" stroke-opacity="0.2" stroke-width="2"/>
    <path d="M150 150 C320 82 525 78 720 126" stroke="#fff7ed" stroke-opacity="0.44" stroke-width="7" stroke-linecap="round"/>
    <path d="M1332 710 C1215 775 1005 792 855 752" stroke="#c4b5fd" stroke-opacity="0.42" stroke-width="8" stroke-linecap="round"/>
  </g>
  <g transform="translate(126 714)">
    <rect width="420" height="86" rx="28" fill="#ffffff" opacity="0.12"/>
    <rect x="1" y="1" width="418" height="84" rx="27" fill="none" stroke="#ffffff" stroke-opacity="0.22"/>
    <text x="36" y="56" font-family="Georgia, 'Noto Serif Devanagari', serif" font-size="40" font-weight="700" fill="#fff7ed">ॐ</text>
    <circle cx="352" cy="43" r="15" fill="#c4b5fd" opacity="0.9"/>
  </g>
  <rect width="1600" height="900" filter="url(#grain)" opacity="0.34"/>
</svg>
