<svg xmlns="http://www.w3.org/2000/svg" width="1600" height="900" viewBox="0 0 1600 900" role="img" aria-label="चाणक्य नीति: जीवन, करियर और सफलता के 15 अचूक मार्गदर्शक सूत्र: व्यावहारिक नीति और कूटनीति का सार">
  <defs>
    <radialGradient id="bgGlow" cx="50%" cy="43%" r="75%">
      <stop offset="0%" stop-color="#c4b5fd" stop-opacity="0.46"/>
      <stop offset="45%" stop-color="#3a2267" stop-opacity="0.92"/>
      <stop offset="100%" stop-color="#130b2a"/>
    </radialGradient>
    <linearGradient id="glassPanel" x1="0%" y1="0%" x2="100%" y2="100%">
      <stop offset="0%" stop-color="#ffffff" stop-opacity="0.58"/>
      <stop offset="42%" stop-color="#c4b5fd" stop-opacity="0.22"/>
      <stop offset="100%" stop-color="#ffffff" stop-opacity="0.08"/>
    </linearGradient>
    <radialGradient id="glassOrb" cx="34%" cy="24%" r="68%">
      <stop offset="0%" stop-color="#ffffff" stop-opacity="0.94"/>
      <stop offset="34%" stop-color="#c4b5fd" stop-opacity="0.62"/>
      <stop offset="100%" stop-color="#3a2267" stop-opacity="0.22"/>
    </radialGradient>
    <linearGradient id="glassMountain" x1="0%" y1="0%" x2="100%" y2="100%">
      <stop offset="0%" stop-color="#ffffff" stop-opacity="0.48"/>
      <stop offset="100%" stop-color="#c4b5fd" stop-opacity="0.22"/>
    </linearGradient>
    <filter id="softGlow" x="-30%" y="-30%" width="160%" height="160%">
      <feGaussianBlur stdDeviation="18" result="blur"/>
      <feColorMatrix in="blur" type="matrix" values="1 0 0 0 0  0 1 0 0 0  0 0 1 0 0  0 0 0 0.75 0"/>
      <feMerge>
        <feMergeNode/>
        <feMergeNode in="SourceGraphic"/>
      </feMerge>
    </filter>
    <filter id="grain">
      <feTurbulence type="fractalNoise" baseFrequency="0.82" numOctaves="3" seed="825"/>
      <feColorMatrix type="saturate" values="0"/>
      <feComponentTransfer>
        <feFuncA type="table" tableValues="0 0.075"/>
      </feComponentTransfer>
    </filter>
  </defs>
  <rect width="1600" height="900" fill="url(#bgGlow)"/>
  <g opacity="0.72"><circle cx="1426" cy="589" r="0.8" fill="#fcd34d" opacity="0.55" />
<circle cx="1445" cy="770" r="1.9" fill="#fcd34d" opacity="0.36" />
<circle cx="1388" cy="51" r="3.0" fill="#fcd34d" opacity="0.43" />
<circle cx="1407" cy="232" r="1.7" fill="#fcd34d" opacity="0.24" />
<circle cx="1350" cy="765" r="2.8" fill="#fcd34d" opacity="0.31" />
<circle cx="1369" cy="46" r="1.5" fill="#fcd34d" opacity="0.62" />
<circle cx="1312" cy="227" r="2.6" fill="#fcd34d" opacity="0.19" />
<circle cx="1331" cy="408" r="1.3" fill="#fcd34d" opacity="0.50" />
<circle cx="1578" cy="41" r="2.4" fill="#fcd34d" opacity="0.57" />
<circle cx="1597" cy="222" r="1.1" fill="#fcd34d" opacity="0.38" />
<circle cx="591" cy="206" r="2.5" fill="#fcd34d" opacity="0.24" />
<circle cx="572" cy="25" r="1.4" fill="#fcd34d" opacity="0.43" />
<circle cx="629" cy="568" r="2.7" fill="#fcd34d" opacity="0.62" />
<circle cx="610" cy="387" r="1.6" fill="#fcd34d" opacity="0.31" />
<circle cx="515" cy="30" r="2.1" fill="#fcd34d" opacity="0.50" />
<circle cx="496" cy="749" r="1.0" fill="#fcd34d" opacity="0.19" />
<circle cx="553" cy="392" r="2.3" fill="#fcd34d" opacity="0.38" />
<circle cx="534" cy="211" r="1.2" fill="#fcd34d" opacity="0.57" />
<circle cx="743" cy="558" r="1.7" fill="#fcd34d" opacity="0.26" />
<circle cx="724" cy="377" r="3.0" fill="#fcd34d" opacity="0.45" />
<circle cx="1236" cy="561" r="1.8" fill="#fcd34d" opacity="0.33" />
<circle cx="1255" cy="742" r="2.9" fill="#fcd34d" opacity="0.64" />
<circle cx="1274" cy="23" r="2.0" fill="#fcd34d" opacity="0.21" />
<circle cx="1293" cy="204" r="3.1" fill="#fcd34d" opacity="0.52" />
<circle cx="1160" cy="737" r="2.2" fill="#fcd34d" opacity="0.59" />
<circle cx="1179" cy="18" r="0.9" fill="#fcd34d" opacity="0.40" />
<circle cx="1198" cy="199" r="2.4" fill="#fcd34d" opacity="0.47" />
<circle cx="1217" cy="380" r="1.1" fill="#fcd34d" opacity="0.28" />
<circle cx="1084" cy="13" r="1.0" fill="#fcd34d" opacity="0.31" />
<circle cx="1103" cy="194" r="2.1" fill="#fcd34d" opacity="0.62" />
<circle cx="1245" cy="352" r="1.1" fill="#fcd34d" opacity="0.42" />
<circle cx="1226" cy="171" r="2.4" fill="#fcd34d" opacity="0.61" />
<circle cx="1207" cy="890" r="0.9" fill="#fcd34d" opacity="0.54" />
<circle cx="1188" cy="709" r="2.2" fill="#fcd34d" opacity="0.23" />
<circle cx="1169" cy="528" r="3.1" fill="#fcd34d" opacity="0.66" />
<circle cx="1150" cy="347" r="2.0" fill="#fcd34d" opacity="0.35" />
<circle cx="1131" cy="166" r="2.9" fill="#fcd34d" opacity="0.28" />
<circle cx="1112" cy="885" r="1.8" fill="#fcd34d" opacity="0.47" />
<circle cx="1093" cy="704" r="1.9" fill="#fcd34d" opacity="0.44" />
<circle cx="1074" cy="523" r="0.8" fill="#fcd34d" opacity="0.63" />
<circle cx="1218" cy="75" r="2.8" fill="#fcd34d" opacity="0.51" />
<circle cx="1237" cy="256" r="1.5" fill="#fcd34d" opacity="0.32" />
<circle cx="1180" cy="613" r="2.6" fill="#fcd34d" opacity="0.63" />
<circle cx="1199" cy="794" r="1.3" fill="#fcd34d" opacity="0.44" />
<circle cx="1142" cy="799" r="0.8" fill="#fcd34d" opacity="0.25" />
<circle cx="1161" cy="80" r="1.9" fill="#fcd34d" opacity="0.56" />
<circle cx="1104" cy="437" r="3.0" fill="#fcd34d" opacity="0.37" />
<circle cx="1123" cy="618" r="1.7" fill="#fcd34d" opacity="0.18" />
<circle cx="1370" cy="427" r="1.2" fill="#fcd34d" opacity="0.49" />
<circle cx="1389" cy="608" r="2.3" fill="#fcd34d" opacity="0.30" />
<circle cx="1227" cy="766" r="2.1" fill="#fcd34d" opacity="0.42" />
<circle cx="1208" cy="585" r="1.0" fill="#fcd34d" opacity="0.61" />
<circle cx="1265" cy="228" r="2.3" fill="#fcd34d" opacity="0.30" />
<circle cx="1246" cy="47" r="1.2" fill="#fcd34d" opacity="0.49" />
<circle cx="1303" cy="42" r="2.5" fill="#fcd34d" opacity="0.66" />
<circle cx="1284" cy="761" r="1.4" fill="#fcd34d" opacity="0.35" />
<circle cx="1341" cy="404" r="2.7" fill="#fcd34d" opacity="0.54" />
<circle cx="1322" cy="223" r="1.6" fill="#fcd34d" opacity="0.23" />
<circle cx="1075" cy="218" r="2.9" fill="#fcd34d" opacity="0.40" />
<circle cx="1056" cy="37" r="1.8" fill="#fcd34d" opacity="0.59" />
<circle cx="1264" cy="833" r="2.2" fill="#fcd34d" opacity="0.47" />
<circle cx="1283" cy="114" r="0.9" fill="#fcd34d" opacity="0.28" />
<circle cx="1302" cy="295" r="2.4" fill="#fcd34d" opacity="0.35" />
<circle cx="1321" cy="476" r="1.1" fill="#fcd34d" opacity="0.66" />
<circle cx="444" cy="657" r="1.8" fill="#fcd34d" opacity="0.21" />
<circle cx="463" cy="838" r="2.9" fill="#fcd34d" opacity="0.52" />
<circle cx="482" cy="119" r="2.0" fill="#fcd34d" opacity="0.59" />
<circle cx="501" cy="300" r="3.1" fill="#fcd34d" opacity="0.40" /></g>
  <circle cx="492" cy="279" r="230" fill="#c4b5fd" opacity="0.08"/>
  <circle cx="1130" cy="650" r="275" fill="#fcd34d" opacity="0.08"/>
  <g filter="url(#softGlow)">
    
    <ellipse cx="800" cy="285" rx="16" ry="90" fill="#c4b5fd" opacity="0.22" transform="rotate(0 800 460)" />
<ellipse cx="800" cy="285" rx="16" ry="90" fill="#c4b5fd" opacity="0.22" transform="rotate(11.25 800 460)" />
<ellipse cx="800" cy="285" rx="16" ry="90" fill="#c4b5fd" opacity="0.22" transform="rotate(22.5 800 460)" />
<ellipse cx="800" cy="285" rx="16" ry="90" fill="#c4b5fd" opacity="0.22" transform="rotate(33.75 800 460)" />
<ellipse cx="800" cy="285" rx="16" ry="90" fill="#c4b5fd" opacity="0.22" transform="rotate(45 800 460)" />
<ellipse cx="800" cy="285" rx="16" ry="90" fill="#c4b5fd" opacity="0.22" transform="rotate(56.25 800 460)" />
<ellipse cx="800" cy="285" rx="16" ry="90" fill="#c4b5fd" opacity="0.22" transform="rotate(67.5 800 460)" />
<ellipse cx="800" cy="285" rx="16" ry="90" fill="#c4b5fd" opacity="0.22" transform="rotate(78.75 800 460)" />
<ellipse cx="800" cy="285" rx="16" ry="90" fill="#c4b5fd" opacity="0.22" transform="rotate(90 800 460)" />
<ellipse cx="800" cy="285" rx="16" ry="90" fill="#c4b5fd" opacity="0.22" transform="rotate(101.25 800 460)" />
<ellipse cx="800" cy="285" rx="16" ry="90" fill="#c4b5fd" opacity="0.22" transform="rotate(112.5 800 460)" />
<ellipse cx="800" cy="285" rx="16" ry="90" fill="#c4b5fd" opacity="0.22" transform="rotate(123.75 800 460)" />
<ellipse cx="800" cy="285" rx="16" ry="90" fill="#c4b5fd" opacity="0.22" transform="rotate(135 800 460)" />
<ellipse cx="800" cy="285" rx="16" ry="90" fill="#c4b5fd" opacity="0.22" transform="rotate(146.25 800 460)" />
<ellipse cx="800" cy="285" rx="16" ry="90" fill="#c4b5fd" opacity="0.22" transform="rotate(157.5 800 460)" />
<ellipse cx="800" cy="285" rx="16" ry="90" fill="#c4b5fd" opacity="0.22" transform="rotate(168.75 800 460)" />
<ellipse cx="800" cy="285" rx="16" ry="90" fill="#c4b5fd" opacity="0.22" transform="rotate(180 800 460)" />
<ellipse cx="800" cy="285" rx="16" ry="90" fill="#c4b5fd" opacity="0.22" transform="rotate(191.25 800 460)" />
<ellipse cx="800" cy="285" rx="16" ry="90" fill="#c4b5fd" opacity="0.22" transform="rotate(202.5 800 460)" />
<ellipse cx="800" cy="285" rx="16" ry="90" fill="#c4b5fd" opacity="0.22" transform="rotate(213.75 800 460)" />
<ellipse cx="800" cy="285" rx="16" ry="90" fill="#c4b5fd" opacity="0.22" transform="rotate(225 800 460)" />
<ellipse cx="800" cy="285" rx="16" ry="90" fill="#c4b5fd" opacity="0.22" transform="rotate(236.25 800 460)" />
<ellipse cx="800" cy="285" rx="16" ry="90" fill="#c4b5fd" opacity="0.22" transform="rotate(247.5 800 460)" />
<ellipse cx="800" cy="285" rx="16" ry="90" fill="#c4b5fd" opacity="0.22" transform="rotate(258.75 800 460)" />
<ellipse cx="800" cy="285" rx="16" ry="90" fill="#c4b5fd" opacity="0.22" transform="rotate(270 800 460)" />
<ellipse cx="800" cy="285" rx="16" ry="90" fill="#c4b5fd" opacity="0.22" transform="rotate(281.25 800 460)" />
<ellipse cx="800" cy="285" rx="16" ry="90" fill="#c4b5fd" opacity="0.22" transform="rotate(292.5 800 460)" />
<ellipse cx="800" cy="285" rx="16" ry="90" fill="#c4b5fd" opacity="0.22" transform="rotate(303.75 800 460)" />
<ellipse cx="800" cy="285" rx="16" ry="90" fill="#c4b5fd" opacity="0.22" transform="rotate(315 800 460)" />
<ellipse cx="800" cy="285" rx="16" ry="90" fill="#c4b5fd" opacity="0.22" transform="rotate(326.25 800 460)" />
<ellipse cx="800" cy="285" rx="16" ry="90" fill="#c4b5fd" opacity="0.22" transform="rotate(337.5 800 460)" />
<ellipse cx="800" cy="285" rx="16" ry="90" fill="#c4b5fd" opacity="0.22" transform="rotate(348.75 800 460)" />
    <ellipse cx="800" cy="348" rx="20" ry="72" fill="#fcd34d" opacity="0.32" transform="rotate(0 800 460)" />
<ellipse cx="800" cy="348" rx="20" ry="72" fill="#fcd34d" opacity="0.32" transform="rotate(20 800 460)" />
<ellipse cx="800" cy="348" rx="20" ry="72" fill="#fcd34d" opacity="0.32" transform="rotate(40 800 460)" />
<ellipse cx="800" cy="348" rx="20" ry="72" fill="#fcd34d" opacity="0.32" transform="rotate(60 800 460)" />
<ellipse cx="800" cy="348" rx="20" ry="72" fill="#fcd34d" opacity="0.32" transform="rotate(80 800 460)" />
<ellipse cx="800" cy="348" rx="20" ry="72" fill="#fcd34d" opacity="0.32" transform="rotate(100 800 460)" />
<ellipse cx="800" cy="348" rx="20" ry="72" fill="#fcd34d" opacity="0.32" transform="rotate(120 800 460)" />
<ellipse cx="800" cy="348" rx="20" ry="72" fill="#fcd34d" opacity="0.32" transform="rotate(140 800 460)" />
<ellipse cx="800" cy="348" rx="20" ry="72" fill="#fcd34d" opacity="0.32" transform="rotate(160 800 460)" />
<ellipse cx="800" cy="348" rx="20" ry="72" fill="#fcd34d" opacity="0.32" transform="rotate(180 800 460)" />
<ellipse cx="800" cy="348" rx="20" ry="72" fill="#fcd34d" opacity="0.32" transform="rotate(200 800 460)" />
<ellipse cx="800" cy="348" rx="20" ry="72" fill="#fcd34d" opacity="0.32" transform="rotate(220 800 460)" />
<ellipse cx="800" cy="348" rx="20" ry="72" fill="#fcd34d" opacity="0.32" transform="rotate(240 800 460)" />
<ellipse cx="800" cy="348" rx="20" ry="72" fill="#fcd34d" opacity="0.32" transform="rotate(260 800 460)" />
<ellipse cx="800" cy="348" rx="20" ry="72" fill="#fcd34d" opacity="0.32" transform="rotate(280 800 460)" />
<ellipse cx="800" cy="348" rx="20" ry="72" fill="#fcd34d" opacity="0.32" transform="rotate(300 800 460)" />
<ellipse cx="800" cy="348" rx="20" ry="72" fill="#fcd34d" opacity="0.32" transform="rotate(320 800 460)" />
<ellipse cx="800" cy="348" rx="20" ry="72" fill="#fcd34d" opacity="0.32" transform="rotate(340 800 460)" />
    <circle cx="800" cy="460" r="140" fill="url(#glassOrb)" opacity="0.78"/>
    <text x="800" y="525" text-anchor="middle" font-family="Georgia, 'Noto Serif Devanagari', serif" font-size="210" font-weight="700" fill="#fff7ed" opacity="0.9">ॐ</text>
  
  </g>
  <g opacity="0.78">
    <rect x="88" y="82" width="1424" height="736" rx="46" fill="none" stroke="#ffffff" stroke-opacity="0.2" stroke-width="2"/>
    <path d="M150 150 C320 82 525 78 720 126" stroke="#fff7ed" stroke-opacity="0.44" stroke-width="7" stroke-linecap="round"/>
    <path d="M1332 710 C1215 775 1005 792 855 752" stroke="#c4b5fd" stroke-opacity="0.42" stroke-width="8" stroke-linecap="round"/>
  </g>
  <g transform="translate(126 714)">
    <rect width="420" height="86" rx="28" fill="#ffffff" opacity="0.12"/>
    <rect x="1" y="1" width="418" height="84" rx="27" fill="none" stroke="#ffffff" stroke-opacity="0.22"/>
    <text x="36" y="56" font-family="Georgia, 'Noto Serif Devanagari', serif" font-size="40" font-weight="700" fill="#fff7ed">ॐ</text>
    <circle cx="352" cy="43" r="15" fill="#c4b5fd" opacity="0.9"/>
  </g>
  <rect width="1600" height="900" filter="url(#grain)" opacity="0.34"/>
</svg>
