<svg xmlns="http://www.w3.org/2000/svg" width="1600" height="900" viewBox="0 0 1600 900" role="img" aria-label="चार वेद: सनातन ज्ञान का मूल स्रोत और उनका महत्व">
  <defs>
    <radialGradient id="bgGlow" cx="50%" cy="43%" r="75%">
      <stop offset="0%" stop-color="#fcd34d" stop-opacity="0.46"/>
      <stop offset="45%" stop-color="#5b3311" stop-opacity="0.92"/>
      <stop offset="100%" stop-color="#201104"/>
    </radialGradient>
    <linearGradient id="glassPanel" x1="0%" y1="0%" x2="100%" y2="100%">
      <stop offset="0%" stop-color="#ffffff" stop-opacity="0.58"/>
      <stop offset="42%" stop-color="#fcd34d" stop-opacity="0.22"/>
      <stop offset="100%" stop-color="#ffffff" stop-opacity="0.08"/>
    </linearGradient>
    <radialGradient id="glassOrb" cx="34%" cy="24%" r="68%">
      <stop offset="0%" stop-color="#ffffff" stop-opacity="0.94"/>
      <stop offset="34%" stop-color="#fcd34d" stop-opacity="0.62"/>
      <stop offset="100%" stop-color="#5b3311" stop-opacity="0.22"/>
    </radialGradient>
    <linearGradient id="glassMountain" x1="0%" y1="0%" x2="100%" y2="100%">
      <stop offset="0%" stop-color="#ffffff" stop-opacity="0.48"/>
      <stop offset="100%" stop-color="#fcd34d" stop-opacity="0.22"/>
    </linearGradient>
    <filter id="softGlow" x="-30%" y="-30%" width="160%" height="160%">
      <feGaussianBlur stdDeviation="18" result="blur"/>
      <feColorMatrix in="blur" type="matrix" values="1 0 0 0 0  0 1 0 0 0  0 0 1 0 0  0 0 0 0.75 0"/>
      <feMerge>
        <feMergeNode/>
        <feMergeNode in="SourceGraphic"/>
      </feMerge>
    </filter>
    <filter id="grain">
      <feTurbulence type="fractalNoise" baseFrequency="0.82" numOctaves="3" seed="286"/>
      <feColorMatrix type="saturate" values="0"/>
      <feComponentTransfer>
        <feFuncA type="table" tableValues="0 0.075"/>
      </feComponentTransfer>
    </filter>
  </defs>
  <rect width="1600" height="900" fill="url(#bgGlow)"/>
  <g opacity="0.72"><circle cx="535" cy="740" r="0.9" fill="#fb923c" opacity="0.32" />
<circle cx="516" cy="559" r="2.2" fill="#fb923c" opacity="0.51" />
<circle cx="573" cy="378" r="1.1" fill="#fb923c" opacity="0.44" />
<circle cx="554" cy="197" r="2.4" fill="#fb923c" opacity="0.63" />
<circle cx="459" cy="16" r="2.9" fill="#fb923c" opacity="0.58" />
<circle cx="440" cy="735" r="1.8" fill="#fb923c" opacity="0.27" />
<circle cx="497" cy="554" r="3.1" fill="#fb923c" opacity="0.20" />
<circle cx="478" cy="373" r="2.0" fill="#fb923c" opacity="0.39" />
<circle cx="383" cy="388" r="1.7" fill="#fb923c" opacity="0.30" />
<circle cx="364" cy="207" r="3.0" fill="#fb923c" opacity="0.49" />
<circle cx="1564" cy="429" r="2.6" fill="#fb923c" opacity="0.41" />
<circle cx="1583" cy="610" r="1.3" fill="#fb923c" opacity="0.22" />
<circle cx="2" cy="791" r="2.8" fill="#fb923c" opacity="0.29" />
<circle cx="21" cy="72" r="1.5" fill="#fb923c" opacity="0.60" />
<circle cx="1488" cy="605" r="3.0" fill="#fb923c" opacity="0.67" />
<circle cx="1507" cy="786" r="1.7" fill="#fb923c" opacity="0.48" />
<circle cx="1526" cy="67" r="0.8" fill="#fb923c" opacity="0.55" />
<circle cx="1545" cy="248" r="1.9" fill="#fb923c" opacity="0.36" />
<circle cx="116" cy="77" r="1.0" fill="#fb923c" opacity="0.43" />
<circle cx="135" cy="258" r="2.1" fill="#fb923c" opacity="0.24" />
<circle cx="1591" cy="870" r="0.9" fill="#fb923c" opacity="0.36" />
<circle cx="1572" cy="689" r="2.2" fill="#fb923c" opacity="0.55" />
<circle cx="29" cy="332" r="1.1" fill="#fb923c" opacity="0.24" />
<circle cx="10" cy="151" r="2.4" fill="#fb923c" opacity="0.43" />
<circle cx="1515" cy="694" r="2.9" fill="#fb923c" opacity="0.62" />
<circle cx="1496" cy="513" r="1.8" fill="#fb923c" opacity="0.31" />
<circle cx="1553" cy="156" r="3.1" fill="#fb923c" opacity="0.50" />
<circle cx="1534" cy="875" r="2.0" fill="#fb923c" opacity="0.19" />
<circle cx="1439" cy="518" r="1.7" fill="#fb923c" opacity="0.34" />
<circle cx="1420" cy="337" r="3.0" fill="#fb923c" opacity="0.53" />
<circle cx="1582" cy="571" r="1.6" fill="#fb923c" opacity="0.31" />
<circle cx="1" cy="752" r="2.7" fill="#fb923c" opacity="0.62" />
<circle cx="1544" cy="209" r="1.4" fill="#fb923c" opacity="0.43" />
<circle cx="1563" cy="390" r="2.5" fill="#fb923c" opacity="0.24" />
<circle cx="58" cy="747" r="1.2" fill="#fb923c" opacity="0.57" />
<circle cx="77" cy="28" r="2.3" fill="#fb923c" opacity="0.38" />
<circle cx="20" cy="385" r="1.0" fill="#fb923c" opacity="0.19" />
<circle cx="39" cy="566" r="2.1" fill="#fb923c" opacity="0.50" />
<circle cx="1430" cy="23" r="2.4" fill="#fb923c" opacity="0.29" />
<circle cx="1449" cy="204" r="1.1" fill="#fb923c" opacity="0.60" />
<circle cx="1313" cy="780" r="1.5" fill="#fb923c" opacity="0.50" />
<circle cx="1294" cy="599" r="2.8" fill="#fb923c" opacity="0.19" />
<circle cx="1275" cy="418" r="1.3" fill="#fb923c" opacity="0.62" />
<circle cx="1256" cy="237" r="2.6" fill="#fb923c" opacity="0.31" />
<circle cx="1389" cy="604" r="1.9" fill="#fb923c" opacity="0.26" />
<circle cx="1370" cy="423" r="0.8" fill="#fb923c" opacity="0.45" />
<circle cx="1351" cy="242" r="1.7" fill="#fb923c" opacity="0.38" />
<circle cx="1332" cy="61" r="3.0" fill="#fb923c" opacity="0.57" />
<circle cx="1161" cy="232" r="2.3" fill="#fb923c" opacity="0.48" />
<circle cx="1142" cy="51" r="1.2" fill="#fb923c" opacity="0.67" />
<circle cx="1368" cy="425" r="2.2" fill="#fb923c" opacity="0.59" />
<circle cx="1387" cy="606" r="0.9" fill="#fb923c" opacity="0.40" />
<circle cx="1406" cy="787" r="2.4" fill="#fb923c" opacity="0.47" />
<circle cx="1425" cy="68" r="1.1" fill="#fb923c" opacity="0.28" />
<circle cx="1444" cy="249" r="1.8" fill="#fb923c" opacity="0.33" />
<circle cx="1463" cy="430" r="2.9" fill="#fb923c" opacity="0.64" />
<circle cx="1482" cy="611" r="2.0" fill="#fb923c" opacity="0.21" />
<circle cx="1501" cy="792" r="3.1" fill="#fb923c" opacity="0.52" />
<circle cx="1216" cy="777" r="3.0" fill="#fb923c" opacity="0.57" />
<circle cx="1235" cy="58" r="1.7" fill="#fb923c" opacity="0.38" />
<circle cx="723" cy="634" r="2.9" fill="#fb923c" opacity="0.32" />
<circle cx="704" cy="453" r="1.8" fill="#fb923c" opacity="0.51" />
<circle cx="761" cy="96" r="3.1" fill="#fb923c" opacity="0.20" />
<circle cx="742" cy="815" r="2.0" fill="#fb923c" opacity="0.39" />
<circle cx="799" cy="810" r="0.9" fill="#fb923c" opacity="0.56" />
<circle cx="780" cy="629" r="2.2" fill="#fb923c" opacity="0.25" />
<circle cx="837" cy="272" r="1.1" fill="#fb923c" opacity="0.44" />
<circle cx="818" cy="91" r="2.4" fill="#fb923c" opacity="0.63" /></g>
  <circle cx="501" cy="254" r="230" fill="#fcd34d" opacity="0.08"/>
  <circle cx="1103" cy="681" r="275" fill="#fb923c" opacity="0.08"/>
  <g filter="url(#softGlow)">
    
      <path d="M520 300 h560 a44 44 0 0 1 44 44 v280 a44 44 0 0 1 -44 44 H520 a44 44 0 0 1 -44 -44 V344 a44 44 0 0 1 44 -44 Z" fill="url(#glassPanel)" opacity="0.72"/>
      <path d="M800 320 v330" stroke="#fff7ed" stroke-width="9" opacity="0.48"/>
      <path d="M555 380 h185" stroke="#fb923c" stroke-width="10" stroke-linecap="round" opacity="0.35" />
<path d="M555 416 h185" stroke="#fb923c" stroke-width="10" stroke-linecap="round" opacity="0.385" />
<path d="M555 452 h185" stroke="#fb923c" stroke-width="10" stroke-linecap="round" opacity="0.42" />
<path d="M555 488 h185" stroke="#fb923c" stroke-width="10" stroke-linecap="round" opacity="0.45499999999999996" />
<path d="M555 524 h185" stroke="#fb923c" stroke-width="10" stroke-linecap="round" opacity="0.49" />
<path d="M555 560 h185" stroke="#fb923c" stroke-width="10" stroke-linecap="round" opacity="0.525" />
<path d="M555 596 h185" stroke="#fb923c" stroke-width="10" stroke-linecap="round" opacity="0.56" />
      <path d="M865 380 h185" stroke="#fcd34d" stroke-width="10" stroke-linecap="round" opacity="0.35" />
<path d="M865 416 h185" stroke="#fcd34d" stroke-width="10" stroke-linecap="round" opacity="0.385" />
<path d="M865 452 h185" stroke="#fcd34d" stroke-width="10" stroke-linecap="round" opacity="0.42" />
<path d="M865 488 h185" stroke="#fcd34d" stroke-width="10" stroke-linecap="round" opacity="0.45499999999999996" />
<path d="M865 524 h185" stroke="#fcd34d" stroke-width="10" stroke-linecap="round" opacity="0.49" />
<path d="M865 560 h185" stroke="#fcd34d" stroke-width="10" stroke-linecap="round" opacity="0.525" />
<path d="M865 596 h185" stroke="#fcd34d" stroke-width="10" stroke-linecap="round" opacity="0.56" />
    
  </g>
  <g opacity="0.78">
    <rect x="88" y="82" width="1424" height="736" rx="46" fill="none" stroke="#ffffff" stroke-opacity="0.2" stroke-width="2"/>
    <path d="M150 150 C320 82 525 78 720 126" stroke="#fff7ed" stroke-opacity="0.44" stroke-width="7" stroke-linecap="round"/>
    <path d="M1332 710 C1215 775 1005 792 855 752" stroke="#fcd34d" stroke-opacity="0.42" stroke-width="8" stroke-linecap="round"/>
  </g>
  <g transform="translate(126 714)">
    <rect width="420" height="86" rx="28" fill="#ffffff" opacity="0.12"/>
    <rect x="1" y="1" width="418" height="84" rx="27" fill="none" stroke="#ffffff" stroke-opacity="0.22"/>
    <text x="36" y="56" font-family="Georgia, 'Noto Serif Devanagari', serif" font-size="40" font-weight="700" fill="#fff7ed">ग्रंथ</text>
    <circle cx="352" cy="43" r="15" fill="#fcd34d" opacity="0.9"/>
  </g>
  <rect width="1600" height="900" filter="url(#grain)" opacity="0.34"/>
</svg>
