<svg xmlns="http://www.w3.org/2000/svg" width="1600" height="900" viewBox="0 0 1600 900" role="img" aria-label="चरण स्पर्श (पैर छूना): बड़ों के पैर छूने का वैज्ञानिक और ऊर्जा प्रवाह विज्ञान">
  <defs>
    <radialGradient id="bgGlow" cx="50%" cy="43%" r="75%">
      <stop offset="0%" stop-color="#fde047" stop-opacity="0.46"/>
      <stop offset="45%" stop-color="#5a2508" stop-opacity="0.92"/>
      <stop offset="100%" stop-color="#1e1404"/>
    </radialGradient>
    <linearGradient id="glassPanel" x1="0%" y1="0%" x2="100%" y2="100%">
      <stop offset="0%" stop-color="#ffffff" stop-opacity="0.58"/>
      <stop offset="42%" stop-color="#fde047" stop-opacity="0.22"/>
      <stop offset="100%" stop-color="#ffffff" stop-opacity="0.08"/>
    </linearGradient>
    <radialGradient id="glassOrb" cx="34%" cy="24%" r="68%">
      <stop offset="0%" stop-color="#ffffff" stop-opacity="0.94"/>
      <stop offset="34%" stop-color="#fde047" stop-opacity="0.62"/>
      <stop offset="100%" stop-color="#5a2508" stop-opacity="0.22"/>
    </radialGradient>
    <linearGradient id="glassMountain" x1="0%" y1="0%" x2="100%" y2="100%">
      <stop offset="0%" stop-color="#ffffff" stop-opacity="0.48"/>
      <stop offset="100%" stop-color="#fde047" stop-opacity="0.22"/>
    </linearGradient>
    <filter id="softGlow" x="-30%" y="-30%" width="160%" height="160%">
      <feGaussianBlur stdDeviation="18" result="blur"/>
      <feColorMatrix in="blur" type="matrix" values="1 0 0 0 0  0 1 0 0 0  0 0 1 0 0  0 0 0 0.75 0"/>
      <feMerge>
        <feMergeNode/>
        <feMergeNode in="SourceGraphic"/>
      </feMerge>
    </filter>
    <filter id="grain">
      <feTurbulence type="fractalNoise" baseFrequency="0.82" numOctaves="3" seed="761"/>
      <feColorMatrix type="saturate" values="0"/>
      <feComponentTransfer>
        <feFuncA type="table" tableValues="0 0.075"/>
      </feComponentTransfer>
    </filter>
  </defs>
  <rect width="1600" height="900" fill="url(#bgGlow)"/>
  <g opacity="0.72"><circle cx="175" cy="544" r="2.5" fill="#f97316" opacity="0.32" />
<circle cx="156" cy="363" r="1.4" fill="#f97316" opacity="0.51" />
<circle cx="213" cy="182" r="2.7" fill="#f97316" opacity="0.44" />
<circle cx="194" cy="1" r="1.6" fill="#f97316" opacity="0.63" />
<circle cx="99" cy="720" r="2.1" fill="#f97316" opacity="0.58" />
<circle cx="80" cy="539" r="1.0" fill="#f97316" opacity="0.27" />
<circle cx="137" cy="358" r="2.3" fill="#f97316" opacity="0.20" />
<circle cx="118" cy="177" r="1.2" fill="#f97316" opacity="0.39" />
<circle cx="327" cy="896" r="1.7" fill="#f97316" opacity="0.34" />
<circle cx="308" cy="715" r="3.0" fill="#f97316" opacity="0.53" />
<circle cx="132" cy="269" r="2.6" fill="#f97316" opacity="0.21" />
<circle cx="151" cy="450" r="1.3" fill="#f97316" opacity="0.52" />
<circle cx="170" cy="631" r="2.8" fill="#f97316" opacity="0.59" />
<circle cx="189" cy="812" r="1.5" fill="#f97316" opacity="0.40" />
<circle cx="56" cy="445" r="3.0" fill="#f97316" opacity="0.47" />
<circle cx="75" cy="626" r="1.7" fill="#f97316" opacity="0.28" />
<circle cx="94" cy="807" r="0.8" fill="#f97316" opacity="0.35" />
<circle cx="113" cy="88" r="1.9" fill="#f97316" opacity="0.66" />
<circle cx="1580" cy="621" r="1.8" fill="#f97316" opacity="0.65" />
<circle cx="1599" cy="802" r="2.9" fill="#f97316" opacity="0.46" />
<circle cx="383" cy="478" r="1.7" fill="#f97316" opacity="0.58" />
<circle cx="364" cy="297" r="3.0" fill="#f97316" opacity="0.27" />
<circle cx="421" cy="840" r="1.9" fill="#f97316" opacity="0.46" />
<circle cx="402" cy="659" r="0.8" fill="#f97316" opacity="0.65" />
<circle cx="307" cy="302" r="1.3" fill="#f97316" opacity="0.34" />
<circle cx="288" cy="121" r="2.6" fill="#f97316" opacity="0.53" />
<circle cx="345" cy="664" r="1.5" fill="#f97316" opacity="0.22" />
<circle cx="326" cy="483" r="2.8" fill="#f97316" opacity="0.41" />
<circle cx="535" cy="830" r="0.9" fill="#f97316" opacity="0.60" />
<circle cx="516" cy="649" r="2.2" fill="#f97316" opacity="0.29" />
<circle cx="374" cy="687" r="2.4" fill="#f97316" opacity="0.49" />
<circle cx="393" cy="868" r="1.1" fill="#f97316" opacity="0.30" />
<circle cx="336" cy="325" r="2.2" fill="#f97316" opacity="0.61" />
<circle cx="355" cy="506" r="0.9" fill="#f97316" opacity="0.42" />
<circle cx="450" cy="863" r="2.0" fill="#f97316" opacity="0.25" />
<circle cx="469" cy="144" r="3.1" fill="#f97316" opacity="0.56" />
<circle cx="412" cy="501" r="1.8" fill="#f97316" opacity="0.37" />
<circle cx="431" cy="682" r="2.9" fill="#f97316" opacity="0.18" />
<circle cx="526" cy="335" r="1.6" fill="#f97316" opacity="0.51" />
<circle cx="545" cy="516" r="2.7" fill="#f97316" opacity="0.32" />
<circle cx="169" cy="228" r="2.3" fill="#f97316" opacity="0.22" />
<circle cx="150" cy="47" r="1.2" fill="#f97316" opacity="0.41" />
<circle cx="131" cy="766" r="2.1" fill="#f97316" opacity="0.34" />
<circle cx="112" cy="585" r="1.0" fill="#f97316" opacity="0.53" />
<circle cx="245" cy="52" r="2.7" fill="#f97316" opacity="0.48" />
<circle cx="226" cy="771" r="1.6" fill="#f97316" opacity="0.67" />
<circle cx="207" cy="590" r="2.5" fill="#f97316" opacity="0.60" />
<circle cx="188" cy="409" r="1.4" fill="#f97316" opacity="0.29" />
<circle cx="321" cy="776" r="1.5" fill="#f97316" opacity="0.24" />
<circle cx="302" cy="595" r="2.8" fill="#f97316" opacity="0.43" />
<circle cx="160" cy="437" r="3.0" fill="#f97316" opacity="0.31" />
<circle cx="179" cy="618" r="1.7" fill="#f97316" opacity="0.62" />
<circle cx="198" cy="799" r="0.8" fill="#f97316" opacity="0.19" />
<circle cx="217" cy="80" r="1.9" fill="#f97316" opacity="0.50" />
<circle cx="236" cy="261" r="2.6" fill="#f97316" opacity="0.55" />
<circle cx="255" cy="442" r="1.3" fill="#f97316" opacity="0.36" />
<circle cx="274" cy="623" r="2.8" fill="#f97316" opacity="0.43" />
<circle cx="293" cy="804" r="1.5" fill="#f97316" opacity="0.24" />
<circle cx="312" cy="85" r="2.2" fill="#f97316" opacity="0.33" />
<circle cx="331" cy="266" r="0.9" fill="#f97316" opacity="0.64" />
<circle cx="123" cy="138" r="2.9" fill="#f97316" opacity="0.30" />
<circle cx="104" cy="857" r="1.8" fill="#f97316" opacity="0.49" />
<circle cx="161" cy="500" r="3.1" fill="#f97316" opacity="0.18" />
<circle cx="142" cy="319" r="2.0" fill="#f97316" opacity="0.37" />
<circle cx="199" cy="314" r="0.9" fill="#f97316" opacity="0.54" />
<circle cx="180" cy="133" r="2.2" fill="#f97316" opacity="0.23" />
<circle cx="237" cy="676" r="1.1" fill="#f97316" opacity="0.42" />
<circle cx="218" cy="495" r="2.4" fill="#f97316" opacity="0.61" /></g>
  <circle cx="489" cy="262" r="230" fill="#fde047" opacity="0.08"/>
  <circle cx="1151" cy="639" r="275" fill="#f97316" opacity="0.08"/>
  <g filter="url(#softGlow)">
    
      <path d="M800 705 C635 585 690 445 772 358 C765 458 875 465 842 275 C995 405 1025 595 800 705 Z" fill="#f97316" opacity="0.75"/>
      <path d="M805 670 C725 598 742 506 807 438 C802 514 888 535 878 442 C950 538 928 632 805 670 Z" fill="#fde047" opacity="0.84"/>
      <path d="M615 728 h370" stroke="#fff7ed" stroke-width="20" stroke-linecap="round" opacity="0.44"/>
      <path d="M690 760 h220" stroke="#f97316" stroke-width="18" stroke-linecap="round" opacity="0.52"/>
    
  </g>
  <g opacity="0.78">
    <rect x="88" y="82" width="1424" height="736" rx="46" fill="none" stroke="#ffffff" stroke-opacity="0.2" stroke-width="2"/>
    <path d="M150 150 C320 82 525 78 720 126" stroke="#fff7ed" stroke-opacity="0.44" stroke-width="7" stroke-linecap="round"/>
    <path d="M1332 710 C1215 775 1005 792 855 752" stroke="#fde047" stroke-opacity="0.42" stroke-width="8" stroke-linecap="round"/>
  </g>
  <g transform="translate(126 714)">
    <rect width="420" height="86" rx="28" fill="#ffffff" opacity="0.12"/>
    <rect x="1" y="1" width="418" height="84" rx="27" fill="none" stroke="#ffffff" stroke-opacity="0.22"/>
    <text x="36" y="56" font-family="Georgia, 'Noto Serif Devanagari', serif" font-size="40" font-weight="700" fill="#fff7ed">दीप</text>
    <circle cx="352" cy="43" r="15" fill="#fde047" opacity="0.9"/>
  </g>
  <rect width="1600" height="900" filter="url(#grain)" opacity="0.34"/>
</svg>
