<svg xmlns="http://www.w3.org/2000/svg" width="1600" height="900" viewBox="0 0 1600 900" role="img" aria-label="चार धाम यात्रा: सनातन धर्म के चार सबसे पवित्र धामों का इतिहास और महत्व">
  <defs>
    <radialGradient id="bgGlow" cx="50%" cy="43%" r="75%">
      <stop offset="0%" stop-color="#fb923c" stop-opacity="0.46"/>
      <stop offset="45%" stop-color="#67330f" stop-opacity="0.92"/>
      <stop offset="100%" stop-color="#210b05"/>
    </radialGradient>
    <linearGradient id="glassPanel" x1="0%" y1="0%" x2="100%" y2="100%">
      <stop offset="0%" stop-color="#ffffff" stop-opacity="0.58"/>
      <stop offset="42%" stop-color="#fb923c" stop-opacity="0.22"/>
      <stop offset="100%" stop-color="#ffffff" stop-opacity="0.08"/>
    </linearGradient>
    <radialGradient id="glassOrb" cx="34%" cy="24%" r="68%">
      <stop offset="0%" stop-color="#ffffff" stop-opacity="0.94"/>
      <stop offset="34%" stop-color="#fb923c" stop-opacity="0.62"/>
      <stop offset="100%" stop-color="#67330f" stop-opacity="0.22"/>
    </radialGradient>
    <linearGradient id="glassMountain" x1="0%" y1="0%" x2="100%" y2="100%">
      <stop offset="0%" stop-color="#ffffff" stop-opacity="0.48"/>
      <stop offset="100%" stop-color="#fb923c" stop-opacity="0.22"/>
    </linearGradient>
    <filter id="softGlow" x="-30%" y="-30%" width="160%" height="160%">
      <feGaussianBlur stdDeviation="18" result="blur"/>
      <feColorMatrix in="blur" type="matrix" values="1 0 0 0 0  0 1 0 0 0  0 0 1 0 0  0 0 0 0.75 0"/>
      <feMerge>
        <feMergeNode/>
        <feMergeNode in="SourceGraphic"/>
      </feMerge>
    </filter>
    <filter id="grain">
      <feTurbulence type="fractalNoise" baseFrequency="0.82" numOctaves="3" seed="150"/>
      <feColorMatrix type="saturate" values="0"/>
      <feComponentTransfer>
        <feFuncA type="table" tableValues="0 0.075"/>
      </feComponentTransfer>
    </filter>
  </defs>
  <rect width="1600" height="900" fill="url(#bgGlow)"/>
  <g opacity="0.72"><circle cx="938" cy="173" r="1.6" fill="#fef3c7" opacity="0.49" />
<circle cx="957" cy="354" r="2.7" fill="#fef3c7" opacity="0.30" />
<circle cx="900" cy="535" r="1.4" fill="#fef3c7" opacity="0.37" />
<circle cx="919" cy="716" r="2.5" fill="#fef3c7" opacity="0.18" />
<circle cx="862" cy="349" r="1.2" fill="#fef3c7" opacity="0.25" />
<circle cx="881" cy="530" r="2.3" fill="#fef3c7" opacity="0.56" />
<circle cx="824" cy="711" r="1.0" fill="#fef3c7" opacity="0.63" />
<circle cx="843" cy="892" r="2.1" fill="#fef3c7" opacity="0.44" />
<circle cx="786" cy="721" r="2.4" fill="#fef3c7" opacity="0.47" />
<circle cx="805" cy="2" r="1.1" fill="#fef3c7" opacity="0.28" />
<circle cx="183" cy="190" r="0.9" fill="#fef3c7" opacity="0.34" />
<circle cx="164" cy="9" r="2.2" fill="#fef3c7" opacity="0.53" />
<circle cx="221" cy="552" r="1.1" fill="#fef3c7" opacity="0.22" />
<circle cx="202" cy="371" r="2.4" fill="#fef3c7" opacity="0.41" />
<circle cx="107" cy="14" r="2.9" fill="#fef3c7" opacity="0.60" />
<circle cx="88" cy="733" r="1.8" fill="#fef3c7" opacity="0.29" />
<circle cx="145" cy="376" r="3.1" fill="#fef3c7" opacity="0.48" />
<circle cx="126" cy="195" r="2.0" fill="#fef3c7" opacity="0.67" />
<circle cx="31" cy="738" r="1.7" fill="#fef3c7" opacity="0.32" />
<circle cx="12" cy="557" r="3.0" fill="#fef3c7" opacity="0.51" />
<circle cx="156" cy="881" r="2.6" fill="#fef3c7" opacity="0.35" />
<circle cx="175" cy="162" r="1.3" fill="#fef3c7" opacity="0.66" />
<circle cx="194" cy="343" r="2.8" fill="#fef3c7" opacity="0.23" />
<circle cx="213" cy="524" r="1.5" fill="#fef3c7" opacity="0.54" />
<circle cx="80" cy="157" r="3.0" fill="#fef3c7" opacity="0.61" />
<circle cx="99" cy="338" r="1.7" fill="#fef3c7" opacity="0.42" />
<circle cx="118" cy="519" r="0.8" fill="#fef3c7" opacity="0.49" />
<circle cx="137" cy="700" r="1.9" fill="#fef3c7" opacity="0.30" />
<circle cx="308" cy="529" r="1.0" fill="#fef3c7" opacity="0.37" />
<circle cx="327" cy="710" r="2.1" fill="#fef3c7" opacity="0.18" />
<circle cx="165" cy="440" r="2.7" fill="#fef3c7" opacity="0.34" />
<circle cx="146" cy="259" r="1.6" fill="#fef3c7" opacity="0.53" />
<circle cx="127" cy="78" r="2.5" fill="#fef3c7" opacity="0.46" />
<circle cx="108" cy="797" r="1.4" fill="#fef3c7" opacity="0.65" />
<circle cx="89" cy="616" r="2.3" fill="#fef3c7" opacity="0.58" />
<circle cx="70" cy="435" r="1.2" fill="#fef3c7" opacity="0.27" />
<circle cx="51" cy="254" r="2.1" fill="#fef3c7" opacity="0.20" />
<circle cx="32" cy="73" r="1.0" fill="#fef3c7" opacity="0.39" />
<circle cx="317" cy="88" r="1.9" fill="#fef3c7" opacity="0.32" />
<circle cx="298" cy="807" r="0.8" fill="#fef3c7" opacity="0.51" />
<circle cx="810" cy="163" r="2.0" fill="#fef3c7" opacity="0.39" />
<circle cx="829" cy="344" r="3.1" fill="#fef3c7" opacity="0.20" />
<circle cx="772" cy="701" r="1.8" fill="#fef3c7" opacity="0.51" />
<circle cx="791" cy="882" r="2.9" fill="#fef3c7" opacity="0.32" />
<circle cx="734" cy="887" r="2.4" fill="#fef3c7" opacity="0.63" />
<circle cx="753" cy="168" r="1.1" fill="#fef3c7" opacity="0.44" />
<circle cx="696" cy="525" r="2.2" fill="#fef3c7" opacity="0.25" />
<circle cx="715" cy="706" r="0.9" fill="#fef3c7" opacity="0.56" />
<circle cx="658" cy="711" r="1.2" fill="#fef3c7" opacity="0.41" />
<circle cx="677" cy="892" r="2.3" fill="#fef3c7" opacity="0.22" />
<circle cx="211" cy="854" r="1.3" fill="#fef3c7" opacity="0.44" />
<circle cx="192" cy="673" r="2.6" fill="#fef3c7" opacity="0.63" />
<circle cx="249" cy="316" r="1.5" fill="#fef3c7" opacity="0.32" />
<circle cx="230" cy="135" r="2.8" fill="#fef3c7" opacity="0.51" />
<circle cx="287" cy="130" r="1.7" fill="#fef3c7" opacity="0.18" />
<circle cx="268" cy="849" r="3.0" fill="#fef3c7" opacity="0.37" />
<circle cx="325" cy="492" r="1.9" fill="#fef3c7" opacity="0.56" />
<circle cx="306" cy="311" r="0.8" fill="#fef3c7" opacity="0.25" />
<circle cx="363" cy="502" r="2.9" fill="#fef3c7" opacity="0.46" />
<circle cx="344" cy="321" r="1.8" fill="#fef3c7" opacity="0.65" />
<circle cx="1560" cy="645" r="3.0" fill="#fef3c7" opacity="0.57" />
<circle cx="1579" cy="826" r="1.7" fill="#fef3c7" opacity="0.38" />
<circle cx="1598" cy="107" r="0.8" fill="#fef3c7" opacity="0.45" />
<circle cx="17" cy="288" r="1.9" fill="#fef3c7" opacity="0.26" />
<circle cx="36" cy="469" r="2.6" fill="#fef3c7" opacity="0.31" />
<circle cx="55" cy="650" r="1.3" fill="#fef3c7" opacity="0.62" />
<circle cx="74" cy="831" r="2.8" fill="#fef3c7" opacity="0.19" />
<circle cx="93" cy="8" r="1.5" fill="#fef3c7" opacity="0.50" /></g>
  <circle cx="488" cy="255" r="230" fill="#fb923c" opacity="0.08"/>
  <circle cx="1106" cy="626" r="275" fill="#fef3c7" opacity="0.08"/>
  <g filter="url(#softGlow)">
    
      <path d="M450 705 h700 v-48 H450 Z" fill="url(#glassPanel)" opacity="0.72"/>
      <path d="M535 657 v-250 h530 v250 Z" fill="url(#glassPanel)" opacity="0.48"/>
      <path d="M495 407 h610 L800 210 Z" fill="#fef3c7" opacity="0.6"/>
      <path d="M645 657 V500 a155 155 0 0 1 310 0 v157 Z" fill="#210b05" opacity="0.74"/>
      <path d="M800 210 v-88" stroke="#fb923c" stroke-width="9" opacity="0.88"/>
      <path d="M800 126 c48 -26 72 6 115 -15 c-34 60 -78 38 -115 64 Z" fill="#fb923c" opacity="0.82"/>
    
  </g>
  <g opacity="0.78">
    <rect x="88" y="82" width="1424" height="736" rx="46" fill="none" stroke="#ffffff" stroke-opacity="0.2" stroke-width="2"/>
    <path d="M150 150 C320 82 525 78 720 126" stroke="#fff7ed" stroke-opacity="0.44" stroke-width="7" stroke-linecap="round"/>
    <path d="M1332 710 C1215 775 1005 792 855 752" stroke="#fb923c" stroke-opacity="0.42" stroke-width="8" stroke-linecap="round"/>
  </g>
  <g transform="translate(126 714)">
    <rect width="420" height="86" rx="28" fill="#ffffff" opacity="0.12"/>
    <rect x="1" y="1" width="418" height="84" rx="27" fill="none" stroke="#ffffff" stroke-opacity="0.22"/>
    <text x="36" y="56" font-family="Georgia, 'Noto Serif Devanagari', serif" font-size="40" font-weight="700" fill="#fff7ed">मंदिर</text>
    <circle cx="352" cy="43" r="15" fill="#fb923c" opacity="0.9"/>
  </g>
  <rect width="1600" height="900" filter="url(#grain)" opacity="0.34"/>
</svg>
