<svg xmlns="http://www.w3.org/2000/svg" width="1600" height="900" viewBox="0 0 1600 900" role="img" aria-label="छोटा चार धाम यात्रा (उत्तराखंड): केदारनाथ, बद्रीनाथ, गंगोत्री और यमुनोत्री का गाइड">
  <defs>
    <radialGradient id="bgGlow" cx="50%" cy="43%" r="75%">
      <stop offset="0%" stop-color="#fb923c" stop-opacity="0.46"/>
      <stop offset="45%" stop-color="#67330f" stop-opacity="0.92"/>
      <stop offset="100%" stop-color="#210b05"/>
    </radialGradient>
    <linearGradient id="glassPanel" x1="0%" y1="0%" x2="100%" y2="100%">
      <stop offset="0%" stop-color="#ffffff" stop-opacity="0.58"/>
      <stop offset="42%" stop-color="#fb923c" stop-opacity="0.22"/>
      <stop offset="100%" stop-color="#ffffff" stop-opacity="0.08"/>
    </linearGradient>
    <radialGradient id="glassOrb" cx="34%" cy="24%" r="68%">
      <stop offset="0%" stop-color="#ffffff" stop-opacity="0.94"/>
      <stop offset="34%" stop-color="#fb923c" stop-opacity="0.62"/>
      <stop offset="100%" stop-color="#67330f" stop-opacity="0.22"/>
    </radialGradient>
    <linearGradient id="glassMountain" x1="0%" y1="0%" x2="100%" y2="100%">
      <stop offset="0%" stop-color="#ffffff" stop-opacity="0.48"/>
      <stop offset="100%" stop-color="#fb923c" stop-opacity="0.22"/>
    </linearGradient>
    <filter id="softGlow" x="-30%" y="-30%" width="160%" height="160%">
      <feGaussianBlur stdDeviation="18" result="blur"/>
      <feColorMatrix in="blur" type="matrix" values="1 0 0 0 0  0 1 0 0 0  0 0 1 0 0  0 0 0 0.75 0"/>
      <feMerge>
        <feMergeNode/>
        <feMergeNode in="SourceGraphic"/>
      </feMerge>
    </filter>
    <filter id="grain">
      <feTurbulence type="fractalNoise" baseFrequency="0.82" numOctaves="3" seed="279"/>
      <feColorMatrix type="saturate" values="0"/>
      <feComponentTransfer>
        <feFuncA type="table" tableValues="0 0.075"/>
      </feComponentTransfer>
    </filter>
  </defs>
  <rect width="1600" height="900" fill="url(#bgGlow)"/>
  <g opacity="0.72"><circle cx="148" cy="543" r="3.0" fill="#fef3c7" opacity="0.63" />
<circle cx="167" cy="724" r="1.7" fill="#fef3c7" opacity="0.44" />
<circle cx="186" cy="181" r="0.8" fill="#fef3c7" opacity="0.25" />
<circle cx="205" cy="362" r="1.9" fill="#fef3c7" opacity="0.56" />
<circle cx="72" cy="719" r="2.6" fill="#fef3c7" opacity="0.39" />
<circle cx="91" cy="0" r="1.3" fill="#fef3c7" opacity="0.20" />
<circle cx="110" cy="357" r="2.8" fill="#fef3c7" opacity="0.51" />
<circle cx="129" cy="538" r="1.5" fill="#fef3c7" opacity="0.32" />
<circle cx="1596" cy="895" r="2.2" fill="#fef3c7" opacity="0.65" />
<circle cx="15" cy="176" r="0.9" fill="#fef3c7" opacity="0.46" />
<circle cx="245" cy="748" r="2.7" fill="#fef3c7" opacity="0.66" />
<circle cx="226" cy="567" r="1.6" fill="#fef3c7" opacity="0.35" />
<circle cx="207" cy="386" r="2.5" fill="#fef3c7" opacity="0.28" />
<circle cx="188" cy="205" r="1.4" fill="#fef3c7" opacity="0.47" />
<circle cx="169" cy="24" r="2.3" fill="#fef3c7" opacity="0.40" />
<circle cx="150" cy="743" r="1.2" fill="#fef3c7" opacity="0.59" />
<circle cx="131" cy="562" r="2.1" fill="#fef3c7" opacity="0.52" />
<circle cx="112" cy="381" r="1.0" fill="#fef3c7" opacity="0.21" />
<circle cx="397" cy="200" r="1.1" fill="#fef3c7" opacity="0.18" />
<circle cx="378" cy="19" r="2.4" fill="#fef3c7" opacity="0.37" />
<circle cx="254" cy="707" r="0.8" fill="#fef3c7" opacity="0.21" />
<circle cx="273" cy="888" r="1.9" fill="#fef3c7" opacity="0.52" />
<circle cx="216" cy="345" r="3.0" fill="#fef3c7" opacity="0.33" />
<circle cx="235" cy="526" r="1.7" fill="#fef3c7" opacity="0.64" />
<circle cx="330" cy="883" r="2.8" fill="#fef3c7" opacity="0.47" />
<circle cx="349" cy="164" r="1.5" fill="#fef3c7" opacity="0.28" />
<circle cx="292" cy="521" r="2.6" fill="#fef3c7" opacity="0.59" />
<circle cx="311" cy="702" r="1.3" fill="#fef3c7" opacity="0.40" />
<circle cx="102" cy="355" r="2.4" fill="#fef3c7" opacity="0.23" />
<circle cx="121" cy="536" r="1.1" fill="#fef3c7" opacity="0.54" />
<circle cx="199" cy="266" r="1.7" fill="#fef3c7" opacity="0.62" />
<circle cx="180" cy="85" r="3.0" fill="#fef3c7" opacity="0.31" />
<circle cx="237" cy="628" r="1.9" fill="#fef3c7" opacity="0.50" />
<circle cx="218" cy="447" r="0.8" fill="#fef3c7" opacity="0.19" />
<circle cx="123" cy="90" r="1.3" fill="#fef3c7" opacity="0.38" />
<circle cx="104" cy="809" r="2.6" fill="#fef3c7" opacity="0.57" />
<circle cx="161" cy="452" r="1.5" fill="#fef3c7" opacity="0.26" />
<circle cx="142" cy="271" r="2.8" fill="#fef3c7" opacity="0.45" />
<circle cx="47" cy="618" r="0.9" fill="#fef3c7" opacity="0.64" />
<circle cx="28" cy="437" r="2.2" fill="#fef3c7" opacity="0.33" />
<circle cx="1576" cy="329" r="1.4" fill="#fef3c7" opacity="0.35" />
<circle cx="1595" cy="510" r="2.5" fill="#fef3c7" opacity="0.66" />
<circle cx="14" cy="691" r="1.6" fill="#fef3c7" opacity="0.23" />
<circle cx="33" cy="768" r="2.7" fill="#fef3c7" opacity="0.54" />
<circle cx="52" cy="49" r="1.0" fill="#fef3c7" opacity="0.59" />
<circle cx="71" cy="230" r="2.1" fill="#fef3c7" opacity="0.40" />
<circle cx="90" cy="411" r="1.2" fill="#fef3c7" opacity="0.47" />
<circle cx="109" cy="592" r="2.3" fill="#fef3c7" opacity="0.28" />
<circle cx="1424" cy="773" r="3.0" fill="#fef3c7" opacity="0.37" />
<circle cx="1443" cy="54" r="1.7" fill="#fef3c7" opacity="0.18" />
<circle cx="1585" cy="16" r="3.1" fill="#fef3c7" opacity="0.26" />
<circle cx="1566" cy="735" r="2.0" fill="#fef3c7" opacity="0.45" />
<circle cx="1547" cy="554" r="2.9" fill="#fef3c7" opacity="0.38" />
<circle cx="1528" cy="373" r="1.8" fill="#fef3c7" opacity="0.57" />
<circle cx="61" cy="740" r="1.1" fill="#fef3c7" opacity="0.52" />
<circle cx="42" cy="559" r="2.4" fill="#fef3c7" opacity="0.21" />
<circle cx="23" cy="378" r="0.9" fill="#fef3c7" opacity="0.64" />
<circle cx="4" cy="197" r="2.2" fill="#fef3c7" opacity="0.33" />
<circle cx="1433" cy="564" r="2.3" fill="#fef3c7" opacity="0.28" />
<circle cx="1414" cy="383" r="1.2" fill="#fef3c7" opacity="0.47" />
<circle cx="1594" cy="471" r="2.0" fill="#fef3c7" opacity="0.43" />
<circle cx="13" cy="652" r="3.1" fill="#fef3c7" opacity="0.24" />
<circle cx="1556" cy="109" r="1.8" fill="#fef3c7" opacity="0.55" />
<circle cx="1575" cy="290" r="2.9" fill="#fef3c7" opacity="0.36" />
<circle cx="1518" cy="295" r="2.4" fill="#fef3c7" opacity="0.67" />
<circle cx="1537" cy="476" r="1.1" fill="#fef3c7" opacity="0.48" />
<circle cx="1480" cy="833" r="2.2" fill="#fef3c7" opacity="0.29" />
<circle cx="1499" cy="114" r="0.9" fill="#fef3c7" opacity="0.60" /></g>
  <circle cx="490" cy="261" r="230" fill="#fb923c" opacity="0.08"/>
  <circle cx="1112" cy="650" r="275" fill="#fef3c7" opacity="0.08"/>
  <g filter="url(#softGlow)">
    
      <path d="M450 705 h700 v-48 H450 Z" fill="url(#glassPanel)" opacity="0.72"/>
      <path d="M535 657 v-250 h530 v250 Z" fill="url(#glassPanel)" opacity="0.48"/>
      <path d="M495 407 h610 L800 210 Z" fill="#fef3c7" opacity="0.6"/>
      <path d="M645 657 V500 a155 155 0 0 1 310 0 v157 Z" fill="#210b05" opacity="0.74"/>
      <path d="M800 210 v-88" stroke="#fb923c" stroke-width="9" opacity="0.88"/>
      <path d="M800 126 c48 -26 72 6 115 -15 c-34 60 -78 38 -115 64 Z" fill="#fb923c" opacity="0.82"/>
    
  </g>
  <g opacity="0.78">
    <rect x="88" y="82" width="1424" height="736" rx="46" fill="none" stroke="#ffffff" stroke-opacity="0.2" stroke-width="2"/>
    <path d="M150 150 C320 82 525 78 720 126" stroke="#fff7ed" stroke-opacity="0.44" stroke-width="7" stroke-linecap="round"/>
    <path d="M1332 710 C1215 775 1005 792 855 752" stroke="#fb923c" stroke-opacity="0.42" stroke-width="8" stroke-linecap="round"/>
  </g>
  <g transform="translate(126 714)">
    <rect width="420" height="86" rx="28" fill="#ffffff" opacity="0.12"/>
    <rect x="1" y="1" width="418" height="84" rx="27" fill="none" stroke="#ffffff" stroke-opacity="0.22"/>
    <text x="36" y="56" font-family="Georgia, 'Noto Serif Devanagari', serif" font-size="40" font-weight="700" fill="#fff7ed">मंदिर</text>
    <circle cx="352" cy="43" r="15" fill="#fb923c" opacity="0.9"/>
  </g>
  <rect width="1600" height="900" filter="url(#grain)" opacity="0.34"/>
</svg>
