<svg xmlns="http://www.w3.org/2000/svg" width="1600" height="900" viewBox="0 0 1600 900" role="img" aria-label="ब्रह्म (Brahman) क्या है? हिंदू दर्शन में निराकार ईश्वर, सच्चिदानंद स्वरूप, और उपनिषदों की गूढ़ दार्शनिक व्याख्या">
  <defs>
    <radialGradient id="bgGlow" cx="50%" cy="43%" r="75%">
      <stop offset="0%" stop-color="#fcd34d" stop-opacity="0.46"/>
      <stop offset="45%" stop-color="#5b3311" stop-opacity="0.92"/>
      <stop offset="100%" stop-color="#201104"/>
    </radialGradient>
    <linearGradient id="glassPanel" x1="0%" y1="0%" x2="100%" y2="100%">
      <stop offset="0%" stop-color="#ffffff" stop-opacity="0.58"/>
      <stop offset="42%" stop-color="#fcd34d" stop-opacity="0.22"/>
      <stop offset="100%" stop-color="#ffffff" stop-opacity="0.08"/>
    </linearGradient>
    <radialGradient id="glassOrb" cx="34%" cy="24%" r="68%">
      <stop offset="0%" stop-color="#ffffff" stop-opacity="0.94"/>
      <stop offset="34%" stop-color="#fcd34d" stop-opacity="0.62"/>
      <stop offset="100%" stop-color="#5b3311" stop-opacity="0.22"/>
    </radialGradient>
    <linearGradient id="glassMountain" x1="0%" y1="0%" x2="100%" y2="100%">
      <stop offset="0%" stop-color="#ffffff" stop-opacity="0.48"/>
      <stop offset="100%" stop-color="#fcd34d" stop-opacity="0.22"/>
    </linearGradient>
    <filter id="softGlow" x="-30%" y="-30%" width="160%" height="160%">
      <feGaussianBlur stdDeviation="18" result="blur"/>
      <feColorMatrix in="blur" type="matrix" values="1 0 0 0 0  0 1 0 0 0  0 0 1 0 0  0 0 0 0.75 0"/>
      <feMerge>
        <feMergeNode/>
        <feMergeNode in="SourceGraphic"/>
      </feMerge>
    </filter>
    <filter id="grain">
      <feTurbulence type="fractalNoise" baseFrequency="0.82" numOctaves="3" seed="255"/>
      <feColorMatrix type="saturate" values="0"/>
      <feComponentTransfer>
        <feFuncA type="table" tableValues="0 0.075"/>
      </feComponentTransfer>
    </filter>
  </defs>
  <rect width="1600" height="900" fill="url(#bgGlow)"/>
  <g opacity="0.72"><circle cx="1244" cy="31" r="1.4" fill="#fb923c" opacity="0.31" />
<circle cx="1263" cy="212" r="2.5" fill="#fb923c" opacity="0.62" />
<circle cx="1282" cy="569" r="1.6" fill="#fb923c" opacity="0.43" />
<circle cx="1301" cy="750" r="2.7" fill="#fb923c" opacity="0.24" />
<circle cx="1168" cy="207" r="1.0" fill="#fb923c" opacity="0.57" />
<circle cx="1187" cy="388" r="2.1" fill="#fb923c" opacity="0.38" />
<circle cx="1206" cy="745" r="1.2" fill="#fb923c" opacity="0.19" />
<circle cx="1225" cy="26" r="2.3" fill="#fb923c" opacity="0.50" />
<circle cx="1396" cy="579" r="2.2" fill="#fb923c" opacity="0.29" />
<circle cx="1415" cy="760" r="0.9" fill="#fb923c" opacity="0.60" />
<circle cx="525" cy="208" r="1.9" fill="#fb923c" opacity="0.42" />
<circle cx="506" cy="27" r="0.8" fill="#fb923c" opacity="0.61" />
<circle cx="487" cy="746" r="1.7" fill="#fb923c" opacity="0.50" />
<circle cx="468" cy="565" r="3.0" fill="#fb923c" opacity="0.19" />
<circle cx="449" cy="384" r="1.5" fill="#fb923c" opacity="0.62" />
<circle cx="430" cy="203" r="2.8" fill="#fb923c" opacity="0.31" />
<circle cx="411" cy="22" r="1.3" fill="#fb923c" opacity="0.24" />
<circle cx="392" cy="741" r="2.6" fill="#fb923c" opacity="0.43" />
<circle cx="373" cy="756" r="1.1" fill="#fb923c" opacity="0.36" />
<circle cx="354" cy="575" r="2.4" fill="#fb923c" opacity="0.55" />
<circle cx="1462" cy="663" r="0.8" fill="#fb923c" opacity="0.29" />
<circle cx="1481" cy="844" r="1.9" fill="#fb923c" opacity="0.60" />
<circle cx="1424" cy="301" r="3.0" fill="#fb923c" opacity="0.41" />
<circle cx="1443" cy="482" r="1.7" fill="#fb923c" opacity="0.22" />
<circle cx="1538" cy="839" r="2.8" fill="#fb923c" opacity="0.55" />
<circle cx="1557" cy="120" r="1.5" fill="#fb923c" opacity="0.36" />
<circle cx="1500" cy="477" r="2.6" fill="#fb923c" opacity="0.67" />
<circle cx="1519" cy="658" r="1.3" fill="#fb923c" opacity="0.48" />
<circle cx="14" cy="115" r="1.6" fill="#fb923c" opacity="0.27" />
<circle cx="33" cy="296" r="2.7" fill="#fb923c" opacity="0.58" />
<circle cx="1471" cy="626" r="2.5" fill="#fb923c" opacity="0.20" />
<circle cx="1452" cy="445" r="1.4" fill="#fb923c" opacity="0.39" />
<circle cx="1509" cy="88" r="2.7" fill="#fb923c" opacity="0.58" />
<circle cx="1490" cy="807" r="1.6" fill="#fb923c" opacity="0.27" />
<circle cx="1395" cy="450" r="2.1" fill="#fb923c" opacity="0.46" />
<circle cx="1376" cy="269" r="1.0" fill="#fb923c" opacity="0.65" />
<circle cx="1433" cy="812" r="2.3" fill="#fb923c" opacity="0.34" />
<circle cx="1414" cy="631" r="1.2" fill="#fb923c" opacity="0.53" />
<circle cx="23" cy="274" r="0.9" fill="#fb923c" opacity="0.18" />
<circle cx="4" cy="93" r="2.2" fill="#fb923c" opacity="0.37" />
<circle cx="1248" cy="181" r="2.2" fill="#fb923c" opacity="0.43" />
<circle cx="1267" cy="362" r="0.9" fill="#fb923c" opacity="0.24" />
<circle cx="1286" cy="543" r="2.4" fill="#fb923c" opacity="0.35" />
<circle cx="1305" cy="724" r="1.1" fill="#fb923c" opacity="0.62" />
<circle cx="1324" cy="5" r="1.8" fill="#fb923c" opacity="0.67" />
<circle cx="1343" cy="186" r="2.9" fill="#fb923c" opacity="0.48" />
<circle cx="1362" cy="367" r="2.0" fill="#fb923c" opacity="0.55" />
<circle cx="1381" cy="548" r="3.1" fill="#fb923c" opacity="0.36" />
<circle cx="1400" cy="533" r="3.0" fill="#fb923c" opacity="0.41" />
<circle cx="1419" cy="714" r="1.7" fill="#fb923c" opacity="0.22" />
<circle cx="1257" cy="872" r="3.1" fill="#fb923c" opacity="0.52" />
<circle cx="1238" cy="691" r="2.0" fill="#fb923c" opacity="0.21" />
<circle cx="1219" cy="510" r="2.9" fill="#fb923c" opacity="0.64" />
<circle cx="1200" cy="329" r="1.8" fill="#fb923c" opacity="0.33" />
<circle cx="1333" cy="696" r="1.1" fill="#fb923c" opacity="0.28" />
<circle cx="1314" cy="515" r="2.4" fill="#fb923c" opacity="0.47" />
<circle cx="1295" cy="334" r="0.9" fill="#fb923c" opacity="0.40" />
<circle cx="1276" cy="153" r="2.2" fill="#fb923c" opacity="0.59" />
<circle cx="1409" cy="324" r="1.5" fill="#fb923c" opacity="0.50" />
<circle cx="1390" cy="143" r="2.8" fill="#fb923c" opacity="0.19" />
<circle cx="1266" cy="831" r="1.2" fill="#fb923c" opacity="0.43" />
<circle cx="1285" cy="112" r="2.3" fill="#fb923c" opacity="0.24" />
<circle cx="1228" cy="469" r="1.0" fill="#fb923c" opacity="0.55" />
<circle cx="1247" cy="650" r="2.1" fill="#fb923c" opacity="0.36" />
<circle cx="1190" cy="655" r="1.6" fill="#fb923c" opacity="0.67" />
<circle cx="1209" cy="836" r="2.7" fill="#fb923c" opacity="0.48" />
<circle cx="1152" cy="293" r="1.4" fill="#fb923c" opacity="0.29" />
<circle cx="1171" cy="474" r="2.5" fill="#fb923c" opacity="0.60" /></g>
  <circle cx="466" cy="317" r="230" fill="#fcd34d" opacity="0.08"/>
  <circle cx="1088" cy="656" r="275" fill="#fb923c" opacity="0.08"/>
  <g filter="url(#softGlow)">
    
      <path d="M520 300 h560 a44 44 0 0 1 44 44 v280 a44 44 0 0 1 -44 44 H520 a44 44 0 0 1 -44 -44 V344 a44 44 0 0 1 44 -44 Z" fill="url(#glassPanel)" opacity="0.72"/>
      <path d="M800 320 v330" stroke="#fff7ed" stroke-width="9" opacity="0.48"/>
      <path d="M555 380 h185" stroke="#fb923c" stroke-width="10" stroke-linecap="round" opacity="0.35" />
<path d="M555 416 h185" stroke="#fb923c" stroke-width="10" stroke-linecap="round" opacity="0.385" />
<path d="M555 452 h185" stroke="#fb923c" stroke-width="10" stroke-linecap="round" opacity="0.42" />
<path d="M555 488 h185" stroke="#fb923c" stroke-width="10" stroke-linecap="round" opacity="0.45499999999999996" />
<path d="M555 524 h185" stroke="#fb923c" stroke-width="10" stroke-linecap="round" opacity="0.49" />
<path d="M555 560 h185" stroke="#fb923c" stroke-width="10" stroke-linecap="round" opacity="0.525" />
<path d="M555 596 h185" stroke="#fb923c" stroke-width="10" stroke-linecap="round" opacity="0.56" />
      <path d="M865 380 h185" stroke="#fcd34d" stroke-width="10" stroke-linecap="round" opacity="0.35" />
<path d="M865 416 h185" stroke="#fcd34d" stroke-width="10" stroke-linecap="round" opacity="0.385" />
<path d="M865 452 h185" stroke="#fcd34d" stroke-width="10" stroke-linecap="round" opacity="0.42" />
<path d="M865 488 h185" stroke="#fcd34d" stroke-width="10" stroke-linecap="round" opacity="0.45499999999999996" />
<path d="M865 524 h185" stroke="#fcd34d" stroke-width="10" stroke-linecap="round" opacity="0.49" />
<path d="M865 560 h185" stroke="#fcd34d" stroke-width="10" stroke-linecap="round" opacity="0.525" />
<path d="M865 596 h185" stroke="#fcd34d" stroke-width="10" stroke-linecap="round" opacity="0.56" />
    
  </g>
  <g opacity="0.78">
    <rect x="88" y="82" width="1424" height="736" rx="46" fill="none" stroke="#ffffff" stroke-opacity="0.2" stroke-width="2"/>
    <path d="M150 150 C320 82 525 78 720 126" stroke="#fff7ed" stroke-opacity="0.44" stroke-width="7" stroke-linecap="round"/>
    <path d="M1332 710 C1215 775 1005 792 855 752" stroke="#fcd34d" stroke-opacity="0.42" stroke-width="8" stroke-linecap="round"/>
  </g>
  <g transform="translate(126 714)">
    <rect width="420" height="86" rx="28" fill="#ffffff" opacity="0.12"/>
    <rect x="1" y="1" width="418" height="84" rx="27" fill="none" stroke="#ffffff" stroke-opacity="0.22"/>
    <text x="36" y="56" font-family="Georgia, 'Noto Serif Devanagari', serif" font-size="40" font-weight="700" fill="#fff7ed">ग्रंथ</text>
    <circle cx="352" cy="43" r="15" fill="#fcd34d" opacity="0.9"/>
  </g>
  <rect width="1600" height="900" filter="url(#grain)" opacity="0.34"/>
</svg>
