<svg xmlns="http://www.w3.org/2000/svg" width="1600" height="900" viewBox="0 0 1600 900" role="img" aria-label="भगवान विष्णु के 10 अवतार (दशावतार): पौराणिक कथाएँ और डार्विन का विकासवाद">
  <defs>
    <radialGradient id="bgGlow" cx="50%" cy="43%" r="75%">
      <stop offset="0%" stop-color="#7dd3fc" stop-opacity="0.46"/>
      <stop offset="45%" stop-color="#0f3a5f" stop-opacity="0.92"/>
      <stop offset="100%" stop-color="#06152f"/>
    </radialGradient>
    <linearGradient id="glassPanel" x1="0%" y1="0%" x2="100%" y2="100%">
      <stop offset="0%" stop-color="#ffffff" stop-opacity="0.58"/>
      <stop offset="42%" stop-color="#7dd3fc" stop-opacity="0.22"/>
      <stop offset="100%" stop-color="#ffffff" stop-opacity="0.08"/>
    </linearGradient>
    <radialGradient id="glassOrb" cx="34%" cy="24%" r="68%">
      <stop offset="0%" stop-color="#ffffff" stop-opacity="0.94"/>
      <stop offset="34%" stop-color="#7dd3fc" stop-opacity="0.62"/>
      <stop offset="100%" stop-color="#0f3a5f" stop-opacity="0.22"/>
    </radialGradient>
    <linearGradient id="glassMountain" x1="0%" y1="0%" x2="100%" y2="100%">
      <stop offset="0%" stop-color="#ffffff" stop-opacity="0.48"/>
      <stop offset="100%" stop-color="#7dd3fc" stop-opacity="0.22"/>
    </linearGradient>
    <filter id="softGlow" x="-30%" y="-30%" width="160%" height="160%">
      <feGaussianBlur stdDeviation="18" result="blur"/>
      <feColorMatrix in="blur" type="matrix" values="1 0 0 0 0  0 1 0 0 0  0 0 1 0 0  0 0 0 0.75 0"/>
      <feMerge>
        <feMergeNode/>
        <feMergeNode in="SourceGraphic"/>
      </feMerge>
    </filter>
    <filter id="grain">
      <feTurbulence type="fractalNoise" baseFrequency="0.82" numOctaves="3" seed="855"/>
      <feColorMatrix type="saturate" values="0"/>
      <feComponentTransfer>
        <feFuncA type="table" tableValues="0 0.075"/>
      </feComponentTransfer>
    </filter>
  </defs>
  <rect width="1600" height="900" fill="url(#bgGlow)"/>
  <g opacity="0.72"><circle cx="723" cy="536" r="1.3" fill="#facc15" opacity="0.22" />
<circle cx="704" cy="355" r="2.6" fill="#facc15" opacity="0.41" />
<circle cx="761" cy="174" r="1.5" fill="#facc15" opacity="0.34" />
<circle cx="742" cy="893" r="2.8" fill="#facc15" opacity="0.53" />
<circle cx="799" cy="360" r="1.7" fill="#facc15" opacity="0.46" />
<circle cx="780" cy="179" r="3.0" fill="#facc15" opacity="0.65" />
<circle cx="837" cy="898" r="1.9" fill="#facc15" opacity="0.58" />
<circle cx="818" cy="717" r="0.8" fill="#facc15" opacity="0.27" />
<circle cx="875" cy="184" r="2.1" fill="#facc15" opacity="0.24" />
<circle cx="856" cy="3" r="1.0" fill="#facc15" opacity="0.43" />
<circle cx="144" cy="589" r="2.2" fill="#facc15" opacity="0.29" />
<circle cx="163" cy="770" r="0.9" fill="#facc15" opacity="0.60" />
<circle cx="182" cy="51" r="2.4" fill="#facc15" opacity="0.67" />
<circle cx="201" cy="232" r="1.1" fill="#facc15" opacity="0.48" />
<circle cx="220" cy="413" r="1.8" fill="#facc15" opacity="0.53" />
<circle cx="239" cy="594" r="2.9" fill="#facc15" opacity="0.34" />
<circle cx="258" cy="775" r="2.0" fill="#facc15" opacity="0.41" />
<circle cx="277" cy="56" r="3.1" fill="#facc15" opacity="0.22" />
<circle cx="296" cy="41" r="3.0" fill="#facc15" opacity="0.31" />
<circle cx="315" cy="222" r="1.7" fill="#facc15" opacity="0.62" />
<circle cx="171" cy="798" r="2.9" fill="#facc15" opacity="0.24" />
<circle cx="152" cy="617" r="1.8" fill="#facc15" opacity="0.43" />
<circle cx="209" cy="260" r="3.1" fill="#facc15" opacity="0.62" />
<circle cx="190" cy="79" r="2.0" fill="#facc15" opacity="0.31" />
<circle cx="247" cy="74" r="0.9" fill="#facc15" opacity="0.48" />
<circle cx="228" cy="793" r="2.2" fill="#facc15" opacity="0.67" />
<circle cx="285" cy="436" r="1.1" fill="#facc15" opacity="0.36" />
<circle cx="266" cy="255" r="2.4" fill="#facc15" opacity="0.55" />
<circle cx="19" cy="446" r="2.1" fill="#facc15" opacity="0.22" />
<circle cx="0" cy="265" r="1.0" fill="#facc15" opacity="0.41" />
<circle cx="162" cy="107" r="2.0" fill="#facc15" opacity="0.19" />
<circle cx="181" cy="288" r="3.1" fill="#facc15" opacity="0.50" />
<circle cx="124" cy="645" r="1.8" fill="#facc15" opacity="0.31" />
<circle cx="143" cy="826" r="2.9" fill="#facc15" opacity="0.62" />
<circle cx="86" cy="831" r="2.4" fill="#facc15" opacity="0.43" />
<circle cx="105" cy="112" r="1.1" fill="#facc15" opacity="0.24" />
<circle cx="48" cy="469" r="2.2" fill="#facc15" opacity="0.55" />
<circle cx="67" cy="650" r="0.9" fill="#facc15" opacity="0.36" />
<circle cx="314" cy="655" r="1.2" fill="#facc15" opacity="0.67" />
<circle cx="333" cy="836" r="2.3" fill="#facc15" opacity="0.48" />
<circle cx="125" cy="384" r="2.7" fill="#facc15" opacity="0.56" />
<circle cx="106" cy="203" r="1.6" fill="#facc15" opacity="0.25" />
<circle cx="87" cy="22" r="2.5" fill="#facc15" opacity="0.18" />
<circle cx="68" cy="741" r="1.4" fill="#facc15" opacity="0.37" />
<circle cx="49" cy="560" r="2.3" fill="#facc15" opacity="0.30" />
<circle cx="30" cy="379" r="1.2" fill="#facc15" opacity="0.49" />
<circle cx="11" cy="198" r="2.1" fill="#facc15" opacity="0.42" />
<circle cx="1592" cy="17" r="1.0" fill="#facc15" opacity="0.61" />
<circle cx="1573" cy="32" r="1.9" fill="#facc15" opacity="0.58" />
<circle cx="1554" cy="751" r="0.8" fill="#facc15" opacity="0.27" />
<circle cx="116" cy="825" r="2.6" fill="#facc15" opacity="0.65" />
<circle cx="135" cy="106" r="1.3" fill="#facc15" opacity="0.46" />
<circle cx="154" cy="287" r="2.8" fill="#facc15" opacity="0.53" />
<circle cx="173" cy="468" r="1.5" fill="#facc15" opacity="0.34" />
<circle cx="40" cy="101" r="3.0" fill="#facc15" opacity="0.41" />
<circle cx="59" cy="282" r="1.7" fill="#facc15" opacity="0.22" />
<circle cx="78" cy="463" r="0.8" fill="#facc15" opacity="0.29" />
<circle cx="97" cy="644" r="1.9" fill="#facc15" opacity="0.60" />
<circle cx="1564" cy="473" r="1.0" fill="#facc15" opacity="0.63" />
<circle cx="1583" cy="654" r="2.1" fill="#facc15" opacity="0.44" />
<circle cx="367" cy="134" r="0.9" fill="#facc15" opacity="0.56" />
<circle cx="348" cy="853" r="2.2" fill="#facc15" opacity="0.25" />
<circle cx="405" cy="496" r="1.1" fill="#facc15" opacity="0.44" />
<circle cx="386" cy="315" r="2.4" fill="#facc15" opacity="0.63" />
<circle cx="291" cy="858" r="2.9" fill="#facc15" opacity="0.32" />
<circle cx="272" cy="677" r="1.8" fill="#facc15" opacity="0.51" />
<circle cx="329" cy="320" r="3.1" fill="#facc15" opacity="0.20" />
<circle cx="310" cy="139" r="2.0" fill="#facc15" opacity="0.39" /></g>
  <circle cx="449" cy="322" r="230" fill="#7dd3fc" opacity="0.08"/>
  <circle cx="1091" cy="631" r="275" fill="#facc15" opacity="0.08"/>
  <g filter="url(#softGlow)">
    
      <circle cx="778" cy="430" r="185" fill="none" stroke="#facc15" stroke-width="20" opacity="0.78"/>
      <line x1="778" y1="430" x2="778" y2="245" stroke="#facc15" stroke-width="7" opacity="0.58" transform="rotate(0 778 430)" />
<line x1="778" y1="430" x2="778" y2="245" stroke="#facc15" stroke-width="7" opacity="0.58" transform="rotate(15 778 430)" />
<line x1="778" y1="430" x2="778" y2="245" stroke="#facc15" stroke-width="7" opacity="0.58" transform="rotate(30 778 430)" />
<line x1="778" y1="430" x2="778" y2="245" stroke="#facc15" stroke-width="7" opacity="0.58" transform="rotate(45 778 430)" />
<line x1="778" y1="430" x2="778" y2="245" stroke="#facc15" stroke-width="7" opacity="0.58" transform="rotate(60 778 430)" />
<line x1="778" y1="430" x2="778" y2="245" stroke="#facc15" stroke-width="7" opacity="0.58" transform="rotate(75 778 430)" />
<line x1="778" y1="430" x2="778" y2="245" stroke="#facc15" stroke-width="7" opacity="0.58" transform="rotate(90 778 430)" />
<line x1="778" y1="430" x2="778" y2="245" stroke="#facc15" stroke-width="7" opacity="0.58" transform="rotate(105 778 430)" />
<line x1="778" y1="430" x2="778" y2="245" stroke="#facc15" stroke-width="7" opacity="0.58" transform="rotate(120 778 430)" />
<line x1="778" y1="430" x2="778" y2="245" stroke="#facc15" stroke-width="7" opacity="0.58" transform="rotate(135 778 430)" />
<line x1="778" y1="430" x2="778" y2="245" stroke="#facc15" stroke-width="7" opacity="0.58" transform="rotate(150 778 430)" />
<line x1="778" y1="430" x2="778" y2="245" stroke="#facc15" stroke-width="7" opacity="0.58" transform="rotate(165 778 430)" />
<line x1="778" y1="430" x2="778" y2="245" stroke="#facc15" stroke-width="7" opacity="0.58" transform="rotate(180 778 430)" />
<line x1="778" y1="430" x2="778" y2="245" stroke="#facc15" stroke-width="7" opacity="0.58" transform="rotate(195 778 430)" />
<line x1="778" y1="430" x2="778" y2="245" stroke="#facc15" stroke-width="7" opacity="0.58" transform="rotate(210 778 430)" />
<line x1="778" y1="430" x2="778" y2="245" stroke="#facc15" stroke-width="7" opacity="0.58" transform="rotate(225 778 430)" />
<line x1="778" y1="430" x2="778" y2="245" stroke="#facc15" stroke-width="7" opacity="0.58" transform="rotate(240 778 430)" />
<line x1="778" y1="430" x2="778" y2="245" stroke="#facc15" stroke-width="7" opacity="0.58" transform="rotate(255 778 430)" />
<line x1="778" y1="430" x2="778" y2="245" stroke="#facc15" stroke-width="7" opacity="0.58" transform="rotate(270 778 430)" />
<line x1="778" y1="430" x2="778" y2="245" stroke="#facc15" stroke-width="7" opacity="0.58" transform="rotate(285 778 430)" />
<line x1="778" y1="430" x2="778" y2="245" stroke="#facc15" stroke-width="7" opacity="0.58" transform="rotate(300 778 430)" />
<line x1="778" y1="430" x2="778" y2="245" stroke="#facc15" stroke-width="7" opacity="0.58" transform="rotate(315 778 430)" />
<line x1="778" y1="430" x2="778" y2="245" stroke="#facc15" stroke-width="7" opacity="0.58" transform="rotate(330 778 430)" />
<line x1="778" y1="430" x2="778" y2="245" stroke="#facc15" stroke-width="7" opacity="0.58" transform="rotate(345 778 430)" />
      <circle cx="778" cy="430" r="64" fill="url(#glassOrb)" opacity="0.92"/>
      <path d="M545 585 C660 525 940 525 1055 585 C975 655 625 655 545 585 Z" fill="#7dd3fc" opacity="0.18"/>
    
  </g>
  <g opacity="0.78">
    <rect x="88" y="82" width="1424" height="736" rx="46" fill="none" stroke="#ffffff" stroke-opacity="0.2" stroke-width="2"/>
    <path d="M150 150 C320 82 525 78 720 126" stroke="#fff7ed" stroke-opacity="0.44" stroke-width="7" stroke-linecap="round"/>
    <path d="M1332 710 C1215 775 1005 792 855 752" stroke="#7dd3fc" stroke-opacity="0.42" stroke-width="8" stroke-linecap="round"/>
  </g>
  <g transform="translate(126 714)">
    <rect width="420" height="86" rx="28" fill="#ffffff" opacity="0.12"/>
    <rect x="1" y="1" width="418" height="84" rx="27" fill="none" stroke="#ffffff" stroke-opacity="0.22"/>
    <text x="36" y="56" font-family="Georgia, 'Noto Serif Devanagari', serif" font-size="40" font-weight="700" fill="#fff7ed">चक्र</text>
    <circle cx="352" cy="43" r="15" fill="#7dd3fc" opacity="0.9"/>
  </g>
  <rect width="1600" height="900" filter="url(#grain)" opacity="0.34"/>
</svg>
