<svg xmlns="http://www.w3.org/2000/svg" width="1600" height="900" viewBox="0 0 1600 900" role="img" aria-label="ध्यान और योग: हिंदू दर्शन का विश्व को सबसे बड़ा उपहार">
  <defs>
    <radialGradient id="bgGlow" cx="50%" cy="43%" r="75%">
      <stop offset="0%" stop-color="#a7f3d0" stop-opacity="0.46"/>
      <stop offset="45%" stop-color="#0f4d3f" stop-opacity="0.92"/>
      <stop offset="100%" stop-color="#05231d"/>
    </radialGradient>
    <linearGradient id="glassPanel" x1="0%" y1="0%" x2="100%" y2="100%">
      <stop offset="0%" stop-color="#ffffff" stop-opacity="0.58"/>
      <stop offset="42%" stop-color="#a7f3d0" stop-opacity="0.22"/>
      <stop offset="100%" stop-color="#ffffff" stop-opacity="0.08"/>
    </linearGradient>
    <radialGradient id="glassOrb" cx="34%" cy="24%" r="68%">
      <stop offset="0%" stop-color="#ffffff" stop-opacity="0.94"/>
      <stop offset="34%" stop-color="#a7f3d0" stop-opacity="0.62"/>
      <stop offset="100%" stop-color="#0f4d3f" stop-opacity="0.22"/>
    </radialGradient>
    <linearGradient id="glassMountain" x1="0%" y1="0%" x2="100%" y2="100%">
      <stop offset="0%" stop-color="#ffffff" stop-opacity="0.48"/>
      <stop offset="100%" stop-color="#a7f3d0" stop-opacity="0.22"/>
    </linearGradient>
    <filter id="softGlow" x="-30%" y="-30%" width="160%" height="160%">
      <feGaussianBlur stdDeviation="18" result="blur"/>
      <feColorMatrix in="blur" type="matrix" values="1 0 0 0 0  0 1 0 0 0  0 0 1 0 0  0 0 0 0.75 0"/>
      <feMerge>
        <feMergeNode/>
        <feMergeNode in="SourceGraphic"/>
      </feMerge>
    </filter>
    <filter id="grain">
      <feTurbulence type="fractalNoise" baseFrequency="0.82" numOctaves="3" seed="597"/>
      <feColorMatrix type="saturate" values="0"/>
      <feComponentTransfer>
        <feFuncA type="table" tableValues="0 0.075"/>
      </feComponentTransfer>
    </filter>
  </defs>
  <rect width="1600" height="900" fill="url(#bgGlow)"/>
  <g opacity="0.72"><circle cx="1432" cy="235" r="1.0" fill="#fde68a" opacity="0.55" />
<circle cx="1451" cy="416" r="2.1" fill="#fde68a" opacity="0.36" />
<circle cx="1470" cy="773" r="1.2" fill="#fde68a" opacity="0.67" />
<circle cx="1489" cy="54" r="2.3" fill="#fde68a" opacity="0.48" />
<circle cx="1508" cy="59" r="1.4" fill="#fde68a" opacity="0.29" />
<circle cx="1527" cy="240" r="2.5" fill="#fde68a" opacity="0.60" />
<circle cx="1546" cy="597" r="1.6" fill="#fde68a" opacity="0.41" />
<circle cx="1565" cy="778" r="2.7" fill="#fde68a" opacity="0.22" />
<circle cx="1280" cy="783" r="1.8" fill="#fde68a" opacity="0.57" />
<circle cx="1299" cy="64" r="2.9" fill="#fde68a" opacity="0.38" />
<circle cx="705" cy="552" r="2.3" fill="#fde68a" opacity="0.56" />
<circle cx="686" cy="371" r="1.2" fill="#fde68a" opacity="0.25" />
<circle cx="667" cy="190" r="2.1" fill="#fde68a" opacity="0.18" />
<circle cx="648" cy="9" r="1.0" fill="#fde68a" opacity="0.37" />
<circle cx="781" cy="376" r="2.7" fill="#fde68a" opacity="0.32" />
<circle cx="762" cy="195" r="1.6" fill="#fde68a" opacity="0.51" />
<circle cx="743" cy="14" r="2.5" fill="#fde68a" opacity="0.44" />
<circle cx="724" cy="733" r="1.4" fill="#fde68a" opacity="0.63" />
<circle cx="553" cy="4" r="3.1" fill="#fde68a" opacity="0.58" />
<circle cx="534" cy="723" r="2.0" fill="#fde68a" opacity="0.27" />
<circle cx="714" cy="615" r="2.8" fill="#fde68a" opacity="0.55" />
<circle cx="733" cy="796" r="1.5" fill="#fde68a" opacity="0.36" />
<circle cx="676" cy="253" r="2.6" fill="#fde68a" opacity="0.67" />
<circle cx="695" cy="434" r="1.3" fill="#fde68a" opacity="0.48" />
<circle cx="638" cy="439" r="0.8" fill="#fde68a" opacity="0.29" />
<circle cx="657" cy="620" r="1.9" fill="#fde68a" opacity="0.60" />
<circle cx="600" cy="77" r="3.0" fill="#fde68a" opacity="0.41" />
<circle cx="619" cy="258" r="1.7" fill="#fde68a" opacity="0.22" />
<circle cx="562" cy="263" r="2.0" fill="#fde68a" opacity="0.53" />
<circle cx="581" cy="444" r="3.1" fill="#fde68a" opacity="0.34" />
<circle cx="51" cy="406" r="2.1" fill="#fde68a" opacity="0.64" />
<circle cx="32" cy="225" r="1.0" fill="#fde68a" opacity="0.33" />
<circle cx="89" cy="768" r="2.3" fill="#fde68a" opacity="0.52" />
<circle cx="70" cy="587" r="1.2" fill="#fde68a" opacity="0.21" />
<circle cx="127" cy="582" r="2.5" fill="#fde68a" opacity="0.38" />
<circle cx="108" cy="401" r="1.4" fill="#fde68a" opacity="0.57" />
<circle cx="165" cy="44" r="2.7" fill="#fde68a" opacity="0.26" />
<circle cx="146" cy="763" r="1.6" fill="#fde68a" opacity="0.45" />
<circle cx="203" cy="54" r="1.3" fill="#fde68a" opacity="0.62" />
<circle cx="184" cy="773" r="2.6" fill="#fde68a" opacity="0.31" />
<circle cx="60" cy="201" r="1.0" fill="#fde68a" opacity="0.55" />
<circle cx="79" cy="382" r="2.1" fill="#fde68a" opacity="0.36" />
<circle cx="98" cy="563" r="1.2" fill="#fde68a" opacity="0.43" />
<circle cx="117" cy="744" r="2.3" fill="#fde68a" opacity="0.24" />
<circle cx="1584" cy="377" r="1.4" fill="#fde68a" opacity="0.31" />
<circle cx="3" cy="558" r="2.5" fill="#fde68a" opacity="0.62" />
<circle cx="22" cy="739" r="1.6" fill="#fde68a" opacity="0.19" />
<circle cx="41" cy="20" r="2.7" fill="#fde68a" opacity="0.50" />
<circle cx="212" cy="749" r="1.8" fill="#fde68a" opacity="0.53" />
<circle cx="231" cy="30" r="2.9" fill="#fde68a" opacity="0.34" />
<circle cx="69" cy="892" r="1.1" fill="#fde68a" opacity="0.46" />
<circle cx="50" cy="711" r="2.4" fill="#fde68a" opacity="0.65" />
<circle cx="31" cy="530" r="0.9" fill="#fde68a" opacity="0.58" />
<circle cx="12" cy="349" r="2.2" fill="#fde68a" opacity="0.27" />
<circle cx="1593" cy="168" r="3.1" fill="#fde68a" opacity="0.20" />
<circle cx="1574" cy="887" r="2.0" fill="#fde68a" opacity="0.39" />
<circle cx="1555" cy="706" r="2.9" fill="#fde68a" opacity="0.32" />
<circle cx="1536" cy="525" r="1.8" fill="#fde68a" opacity="0.51" />
<circle cx="221" cy="540" r="2.7" fill="#fde68a" opacity="0.48" />
<circle cx="202" cy="359" r="1.6" fill="#fde68a" opacity="0.67" />
<circle cx="910" cy="343" r="2.4" fill="#fde68a" opacity="0.37" />
<circle cx="929" cy="524" r="1.1" fill="#fde68a" opacity="0.18" />
<circle cx="872" cy="881" r="2.2" fill="#fde68a" opacity="0.49" />
<circle cx="891" cy="162" r="0.9" fill="#fde68a" opacity="0.30" />
<circle cx="986" cy="519" r="2.0" fill="#fde68a" opacity="0.63" />
<circle cx="1005" cy="700" r="3.1" fill="#fde68a" opacity="0.44" />
<circle cx="948" cy="157" r="1.8" fill="#fde68a" opacity="0.25" />
<circle cx="967" cy="338" r="2.9" fill="#fde68a" opacity="0.56" /></g>
  <circle cx="498" cy="289" r="230" fill="#a7f3d0" opacity="0.08"/>
  <circle cx="1100" cy="646" r="275" fill="#fde68a" opacity="0.08"/>
  <g filter="url(#softGlow)">
    
      <circle cx="800" cy="455" r="245" fill="none" stroke="#a7f3d0" stroke-width="18" opacity="0.28"/>
      <circle cx="800" cy="455" r="175" fill="none" stroke="#fde68a" stroke-width="12" opacity="0.42"/>
      <text x="800" y="520" text-anchor="middle" font-family="Georgia, 'Noto Serif Devanagari', serif" font-size="230" font-weight="700" fill="#fff7ed" opacity="0.92">ॐ</text>
      <path d="M596 700 C700 624 900 624 1004 700" stroke="#a7f3d0" stroke-width="22" stroke-linecap="round" opacity="0.42" fill="none"/>
    
  </g>
  <g opacity="0.78">
    <rect x="88" y="82" width="1424" height="736" rx="46" fill="none" stroke="#ffffff" stroke-opacity="0.2" stroke-width="2"/>
    <path d="M150 150 C320 82 525 78 720 126" stroke="#fff7ed" stroke-opacity="0.44" stroke-width="7" stroke-linecap="round"/>
    <path d="M1332 710 C1215 775 1005 792 855 752" stroke="#a7f3d0" stroke-opacity="0.42" stroke-width="8" stroke-linecap="round"/>
  </g>
  <g transform="translate(126 714)">
    <rect width="420" height="86" rx="28" fill="#ffffff" opacity="0.12"/>
    <rect x="1" y="1" width="418" height="84" rx="27" fill="none" stroke="#ffffff" stroke-opacity="0.22"/>
    <text x="36" y="56" font-family="Georgia, 'Noto Serif Devanagari', serif" font-size="40" font-weight="700" fill="#fff7ed">ॐ</text>
    <circle cx="352" cy="43" r="15" fill="#a7f3d0" opacity="0.9"/>
  </g>
  <rect width="1600" height="900" filter="url(#grain)" opacity="0.34"/>
</svg>
