<svg xmlns="http://www.w3.org/2000/svg" width="1600" height="900" viewBox="0 0 1600 900" role="img" aria-label="जीवन के चार पुरुषार्थ: धर्म, अर्थ, काम और मोक्ष का संतुलन, जीवन का वास्तविक उद्देश्य और प्राचीन सनातन मार्ग">
  <defs>
    <radialGradient id="bgGlow" cx="50%" cy="43%" r="75%">
      <stop offset="0%" stop-color="#c4b5fd" stop-opacity="0.46"/>
      <stop offset="45%" stop-color="#3a2267" stop-opacity="0.92"/>
      <stop offset="100%" stop-color="#130b2a"/>
    </radialGradient>
    <linearGradient id="glassPanel" x1="0%" y1="0%" x2="100%" y2="100%">
      <stop offset="0%" stop-color="#ffffff" stop-opacity="0.58"/>
      <stop offset="42%" stop-color="#c4b5fd" stop-opacity="0.22"/>
      <stop offset="100%" stop-color="#ffffff" stop-opacity="0.08"/>
    </linearGradient>
    <radialGradient id="glassOrb" cx="34%" cy="24%" r="68%">
      <stop offset="0%" stop-color="#ffffff" stop-opacity="0.94"/>
      <stop offset="34%" stop-color="#c4b5fd" stop-opacity="0.62"/>
      <stop offset="100%" stop-color="#3a2267" stop-opacity="0.22"/>
    </radialGradient>
    <linearGradient id="glassMountain" x1="0%" y1="0%" x2="100%" y2="100%">
      <stop offset="0%" stop-color="#ffffff" stop-opacity="0.48"/>
      <stop offset="100%" stop-color="#c4b5fd" stop-opacity="0.22"/>
    </linearGradient>
    <filter id="softGlow" x="-30%" y="-30%" width="160%" height="160%">
      <feGaussianBlur stdDeviation="18" result="blur"/>
      <feColorMatrix in="blur" type="matrix" values="1 0 0 0 0  0 1 0 0 0  0 0 1 0 0  0 0 0 0.75 0"/>
      <feMerge>
        <feMergeNode/>
        <feMergeNode in="SourceGraphic"/>
      </feMerge>
    </filter>
    <filter id="grain">
      <feTurbulence type="fractalNoise" baseFrequency="0.82" numOctaves="3" seed="566"/>
      <feColorMatrix type="saturate" values="0"/>
      <feComponentTransfer>
        <feFuncA type="table" tableValues="0 0.075"/>
      </feComponentTransfer>
    </filter>
  </defs>
  <rect width="1600" height="900" fill="url(#bgGlow)"/>
  <g opacity="0.72"><circle cx="1293" cy="598" r="1.1" fill="#fcd34d" opacity="0.44" />
<circle cx="1274" cy="417" r="2.4" fill="#fcd34d" opacity="0.63" />
<circle cx="1255" cy="60" r="0.9" fill="#fcd34d" opacity="0.32" />
<circle cx="1236" cy="779" r="2.2" fill="#fcd34d" opacity="0.51" />
<circle cx="1217" cy="774" r="3.1" fill="#fcd34d" opacity="0.20" />
<circle cx="1198" cy="593" r="2.0" fill="#fcd34d" opacity="0.39" />
<circle cx="1179" cy="236" r="2.9" fill="#fcd34d" opacity="0.58" />
<circle cx="1160" cy="55" r="1.8" fill="#fcd34d" opacity="0.27" />
<circle cx="1141" cy="50" r="2.7" fill="#fcd34d" opacity="0.46" />
<circle cx="1122" cy="769" r="1.6" fill="#fcd34d" opacity="0.65" />
<circle cx="1022" cy="555" r="2.4" fill="#fcd34d" opacity="0.65" />
<circle cx="1041" cy="736" r="1.1" fill="#fcd34d" opacity="0.46" />
<circle cx="984" cy="193" r="2.2" fill="#fcd34d" opacity="0.27" />
<circle cx="1003" cy="374" r="0.9" fill="#fcd34d" opacity="0.58" />
<circle cx="1098" cy="731" r="2.0" fill="#fcd34d" opacity="0.41" />
<circle cx="1117" cy="12" r="3.1" fill="#fcd34d" opacity="0.22" />
<circle cx="1060" cy="369" r="1.8" fill="#fcd34d" opacity="0.53" />
<circle cx="1079" cy="550" r="2.9" fill="#fcd34d" opacity="0.34" />
<circle cx="870" cy="203" r="1.6" fill="#fcd34d" opacity="0.67" />
<circle cx="889" cy="384" r="2.7" fill="#fcd34d" opacity="0.48" />
<circle cx="1013" cy="828" r="2.7" fill="#fcd34d" opacity="0.24" />
<circle cx="994" cy="647" r="1.6" fill="#fcd34d" opacity="0.43" />
<circle cx="975" cy="466" r="2.5" fill="#fcd34d" opacity="0.36" />
<circle cx="956" cy="285" r="1.4" fill="#fcd34d" opacity="0.55" />
<circle cx="937" cy="104" r="2.3" fill="#fcd34d" opacity="0.48" />
<circle cx="918" cy="823" r="1.2" fill="#fcd34d" opacity="0.67" />
<circle cx="899" cy="642" r="2.1" fill="#fcd34d" opacity="0.60" />
<circle cx="880" cy="461" r="1.0" fill="#fcd34d" opacity="0.29" />
<circle cx="1165" cy="280" r="1.1" fill="#fcd34d" opacity="0.26" />
<circle cx="1146" cy="99" r="2.4" fill="#fcd34d" opacity="0.45" />
<circle cx="1004" cy="137" r="1.0" fill="#fcd34d" opacity="0.33" />
<circle cx="1023" cy="318" r="2.1" fill="#fcd34d" opacity="0.64" />
<circle cx="1042" cy="499" r="1.2" fill="#fcd34d" opacity="0.21" />
<circle cx="1061" cy="680" r="2.3" fill="#fcd34d" opacity="0.52" />
<circle cx="928" cy="313" r="1.4" fill="#fcd34d" opacity="0.59" />
<circle cx="947" cy="494" r="2.5" fill="#fcd34d" opacity="0.40" />
<circle cx="966" cy="675" r="1.6" fill="#fcd34d" opacity="0.51" />
<circle cx="985" cy="856" r="2.7" fill="#fcd34d" opacity="0.32" />
<circle cx="1156" cy="489" r="2.6" fill="#fcd34d" opacity="0.31" />
<circle cx="1175" cy="670" r="1.3" fill="#fcd34d" opacity="0.62" />
<circle cx="995" cy="6" r="1.3" fill="#fcd34d" opacity="0.46" />
<circle cx="976" cy="725" r="2.6" fill="#fcd34d" opacity="0.65" />
<circle cx="1033" cy="368" r="1.5" fill="#fcd34d" opacity="0.34" />
<circle cx="1014" cy="187" r="2.8" fill="#fcd34d" opacity="0.53" />
<circle cx="1071" cy="182" r="1.7" fill="#fcd34d" opacity="0.66" />
<circle cx="1052" cy="1" r="3.0" fill="#fcd34d" opacity="0.35" />
<circle cx="1109" cy="544" r="1.9" fill="#fcd34d" opacity="0.54" />
<circle cx="1090" cy="363" r="0.8" fill="#fcd34d" opacity="0.27" />
<circle cx="1147" cy="358" r="2.1" fill="#fcd34d" opacity="0.40" />
<circle cx="1128" cy="177" r="1.0" fill="#fcd34d" opacity="0.59" />
<circle cx="762" cy="551" r="2.0" fill="#fcd34d" opacity="0.37" />
<circle cx="781" cy="732" r="3.1" fill="#fcd34d" opacity="0.18" />
<circle cx="724" cy="189" r="1.8" fill="#fcd34d" opacity="0.49" />
<circle cx="743" cy="370" r="2.9" fill="#fcd34d" opacity="0.30" />
<circle cx="686" cy="375" r="2.4" fill="#fcd34d" opacity="0.61" />
<circle cx="705" cy="556" r="1.1" fill="#fcd34d" opacity="0.42" />
<circle cx="648" cy="13" r="2.2" fill="#fcd34d" opacity="0.23" />
<circle cx="667" cy="194" r="0.9" fill="#fcd34d" opacity="0.54" />
<circle cx="610" cy="3" r="2.8" fill="#fcd34d" opacity="0.35" />
<circle cx="629" cy="184" r="1.5" fill="#fcd34d" opacity="0.66" />
<circle cx="753" cy="96" r="2.3" fill="#fcd34d" opacity="0.38" />
<circle cx="734" cy="815" r="1.2" fill="#fcd34d" opacity="0.57" />
<circle cx="715" cy="634" r="2.1" fill="#fcd34d" opacity="0.50" />
<circle cx="696" cy="453" r="1.0" fill="#fcd34d" opacity="0.19" />
<circle cx="829" cy="820" r="2.7" fill="#fcd34d" opacity="0.64" />
<circle cx="810" cy="639" r="1.6" fill="#fcd34d" opacity="0.33" />
<circle cx="791" cy="458" r="2.5" fill="#fcd34d" opacity="0.26" />
<circle cx="772" cy="277" r="1.4" fill="#fcd34d" opacity="0.45" /></g>
  <circle cx="423" cy="272" r="230" fill="#c4b5fd" opacity="0.08"/>
  <circle cx="1121" cy="665" r="275" fill="#fcd34d" opacity="0.08"/>
  <g filter="url(#softGlow)">
    
    <ellipse cx="800" cy="285" rx="16" ry="90" fill="#c4b5fd" opacity="0.22" transform="rotate(0 800 460)" />
<ellipse cx="800" cy="285" rx="16" ry="90" fill="#c4b5fd" opacity="0.22" transform="rotate(11.25 800 460)" />
<ellipse cx="800" cy="285" rx="16" ry="90" fill="#c4b5fd" opacity="0.22" transform="rotate(22.5 800 460)" />
<ellipse cx="800" cy="285" rx="16" ry="90" fill="#c4b5fd" opacity="0.22" transform="rotate(33.75 800 460)" />
<ellipse cx="800" cy="285" rx="16" ry="90" fill="#c4b5fd" opacity="0.22" transform="rotate(45 800 460)" />
<ellipse cx="800" cy="285" rx="16" ry="90" fill="#c4b5fd" opacity="0.22" transform="rotate(56.25 800 460)" />
<ellipse cx="800" cy="285" rx="16" ry="90" fill="#c4b5fd" opacity="0.22" transform="rotate(67.5 800 460)" />
<ellipse cx="800" cy="285" rx="16" ry="90" fill="#c4b5fd" opacity="0.22" transform="rotate(78.75 800 460)" />
<ellipse cx="800" cy="285" rx="16" ry="90" fill="#c4b5fd" opacity="0.22" transform="rotate(90 800 460)" />
<ellipse cx="800" cy="285" rx="16" ry="90" fill="#c4b5fd" opacity="0.22" transform="rotate(101.25 800 460)" />
<ellipse cx="800" cy="285" rx="16" ry="90" fill="#c4b5fd" opacity="0.22" transform="rotate(112.5 800 460)" />
<ellipse cx="800" cy="285" rx="16" ry="90" fill="#c4b5fd" opacity="0.22" transform="rotate(123.75 800 460)" />
<ellipse cx="800" cy="285" rx="16" ry="90" fill="#c4b5fd" opacity="0.22" transform="rotate(135 800 460)" />
<ellipse cx="800" cy="285" rx="16" ry="90" fill="#c4b5fd" opacity="0.22" transform="rotate(146.25 800 460)" />
<ellipse cx="800" cy="285" rx="16" ry="90" fill="#c4b5fd" opacity="0.22" transform="rotate(157.5 800 460)" />
<ellipse cx="800" cy="285" rx="16" ry="90" fill="#c4b5fd" opacity="0.22" transform="rotate(168.75 800 460)" />
<ellipse cx="800" cy="285" rx="16" ry="90" fill="#c4b5fd" opacity="0.22" transform="rotate(180 800 460)" />
<ellipse cx="800" cy="285" rx="16" ry="90" fill="#c4b5fd" opacity="0.22" transform="rotate(191.25 800 460)" />
<ellipse cx="800" cy="285" rx="16" ry="90" fill="#c4b5fd" opacity="0.22" transform="rotate(202.5 800 460)" />
<ellipse cx="800" cy="285" rx="16" ry="90" fill="#c4b5fd" opacity="0.22" transform="rotate(213.75 800 460)" />
<ellipse cx="800" cy="285" rx="16" ry="90" fill="#c4b5fd" opacity="0.22" transform="rotate(225 800 460)" />
<ellipse cx="800" cy="285" rx="16" ry="90" fill="#c4b5fd" opacity="0.22" transform="rotate(236.25 800 460)" />
<ellipse cx="800" cy="285" rx="16" ry="90" fill="#c4b5fd" opacity="0.22" transform="rotate(247.5 800 460)" />
<ellipse cx="800" cy="285" rx="16" ry="90" fill="#c4b5fd" opacity="0.22" transform="rotate(258.75 800 460)" />
<ellipse cx="800" cy="285" rx="16" ry="90" fill="#c4b5fd" opacity="0.22" transform="rotate(270 800 460)" />
<ellipse cx="800" cy="285" rx="16" ry="90" fill="#c4b5fd" opacity="0.22" transform="rotate(281.25 800 460)" />
<ellipse cx="800" cy="285" rx="16" ry="90" fill="#c4b5fd" opacity="0.22" transform="rotate(292.5 800 460)" />
<ellipse cx="800" cy="285" rx="16" ry="90" fill="#c4b5fd" opacity="0.22" transform="rotate(303.75 800 460)" />
<ellipse cx="800" cy="285" rx="16" ry="90" fill="#c4b5fd" opacity="0.22" transform="rotate(315 800 460)" />
<ellipse cx="800" cy="285" rx="16" ry="90" fill="#c4b5fd" opacity="0.22" transform="rotate(326.25 800 460)" />
<ellipse cx="800" cy="285" rx="16" ry="90" fill="#c4b5fd" opacity="0.22" transform="rotate(337.5 800 460)" />
<ellipse cx="800" cy="285" rx="16" ry="90" fill="#c4b5fd" opacity="0.22" transform="rotate(348.75 800 460)" />
    <ellipse cx="800" cy="348" rx="20" ry="72" fill="#fcd34d" opacity="0.32" transform="rotate(0 800 460)" />
<ellipse cx="800" cy="348" rx="20" ry="72" fill="#fcd34d" opacity="0.32" transform="rotate(20 800 460)" />
<ellipse cx="800" cy="348" rx="20" ry="72" fill="#fcd34d" opacity="0.32" transform="rotate(40 800 460)" />
<ellipse cx="800" cy="348" rx="20" ry="72" fill="#fcd34d" opacity="0.32" transform="rotate(60 800 460)" />
<ellipse cx="800" cy="348" rx="20" ry="72" fill="#fcd34d" opacity="0.32" transform="rotate(80 800 460)" />
<ellipse cx="800" cy="348" rx="20" ry="72" fill="#fcd34d" opacity="0.32" transform="rotate(100 800 460)" />
<ellipse cx="800" cy="348" rx="20" ry="72" fill="#fcd34d" opacity="0.32" transform="rotate(120 800 460)" />
<ellipse cx="800" cy="348" rx="20" ry="72" fill="#fcd34d" opacity="0.32" transform="rotate(140 800 460)" />
<ellipse cx="800" cy="348" rx="20" ry="72" fill="#fcd34d" opacity="0.32" transform="rotate(160 800 460)" />
<ellipse cx="800" cy="348" rx="20" ry="72" fill="#fcd34d" opacity="0.32" transform="rotate(180 800 460)" />
<ellipse cx="800" cy="348" rx="20" ry="72" fill="#fcd34d" opacity="0.32" transform="rotate(200 800 460)" />
<ellipse cx="800" cy="348" rx="20" ry="72" fill="#fcd34d" opacity="0.32" transform="rotate(220 800 460)" />
<ellipse cx="800" cy="348" rx="20" ry="72" fill="#fcd34d" opacity="0.32" transform="rotate(240 800 460)" />
<ellipse cx="800" cy="348" rx="20" ry="72" fill="#fcd34d" opacity="0.32" transform="rotate(260 800 460)" />
<ellipse cx="800" cy="348" rx="20" ry="72" fill="#fcd34d" opacity="0.32" transform="rotate(280 800 460)" />
<ellipse cx="800" cy="348" rx="20" ry="72" fill="#fcd34d" opacity="0.32" transform="rotate(300 800 460)" />
<ellipse cx="800" cy="348" rx="20" ry="72" fill="#fcd34d" opacity="0.32" transform="rotate(320 800 460)" />
<ellipse cx="800" cy="348" rx="20" ry="72" fill="#fcd34d" opacity="0.32" transform="rotate(340 800 460)" />
    <circle cx="800" cy="460" r="140" fill="url(#glassOrb)" opacity="0.78"/>
    <text x="800" y="525" text-anchor="middle" font-family="Georgia, 'Noto Serif Devanagari', serif" font-size="210" font-weight="700" fill="#fff7ed" opacity="0.9">ॐ</text>
  
  </g>
  <g opacity="0.78">
    <rect x="88" y="82" width="1424" height="736" rx="46" fill="none" stroke="#ffffff" stroke-opacity="0.2" stroke-width="2"/>
    <path d="M150 150 C320 82 525 78 720 126" stroke="#fff7ed" stroke-opacity="0.44" stroke-width="7" stroke-linecap="round"/>
    <path d="M1332 710 C1215 775 1005 792 855 752" stroke="#c4b5fd" stroke-opacity="0.42" stroke-width="8" stroke-linecap="round"/>
  </g>
  <g transform="translate(126 714)">
    <rect width="420" height="86" rx="28" fill="#ffffff" opacity="0.12"/>
    <rect x="1" y="1" width="418" height="84" rx="27" fill="none" stroke="#ffffff" stroke-opacity="0.22"/>
    <text x="36" y="56" font-family="Georgia, 'Noto Serif Devanagari', serif" font-size="40" font-weight="700" fill="#fff7ed">ॐ</text>
    <circle cx="352" cy="43" r="15" fill="#c4b5fd" opacity="0.9"/>
  </g>
  <rect width="1600" height="900" filter="url(#grain)" opacity="0.34"/>
</svg>
