<svg xmlns="http://www.w3.org/2000/svg" width="1600" height="900" viewBox="0 0 1600 900" role="img" aria-label="चार आश्रम व्यवस्था: ब्रह्मचर्य, गृहस्थ, वानप्रस्थ और संन्यास का वैज्ञानिक विभाजन, जीवन का अनुशासन और महत्व">
  <defs>
    <radialGradient id="bgGlow" cx="50%" cy="43%" r="75%">
      <stop offset="0%" stop-color="#fdba74" stop-opacity="0.46"/>
      <stop offset="45%" stop-color="#5b2a0a" stop-opacity="0.92"/>
      <stop offset="100%" stop-color="#1f1208"/>
    </radialGradient>
    <linearGradient id="glassPanel" x1="0%" y1="0%" x2="100%" y2="100%">
      <stop offset="0%" stop-color="#ffffff" stop-opacity="0.58"/>
      <stop offset="42%" stop-color="#fdba74" stop-opacity="0.22"/>
      <stop offset="100%" stop-color="#ffffff" stop-opacity="0.08"/>
    </linearGradient>
    <radialGradient id="glassOrb" cx="34%" cy="24%" r="68%">
      <stop offset="0%" stop-color="#ffffff" stop-opacity="0.94"/>
      <stop offset="34%" stop-color="#fdba74" stop-opacity="0.62"/>
      <stop offset="100%" stop-color="#5b2a0a" stop-opacity="0.22"/>
    </radialGradient>
    <linearGradient id="glassMountain" x1="0%" y1="0%" x2="100%" y2="100%">
      <stop offset="0%" stop-color="#ffffff" stop-opacity="0.48"/>
      <stop offset="100%" stop-color="#fdba74" stop-opacity="0.22"/>
    </linearGradient>
    <filter id="softGlow" x="-30%" y="-30%" width="160%" height="160%">
      <feGaussianBlur stdDeviation="18" result="blur"/>
      <feColorMatrix in="blur" type="matrix" values="1 0 0 0 0  0 1 0 0 0  0 0 1 0 0  0 0 0 0.75 0"/>
      <feMerge>
        <feMergeNode/>
        <feMergeNode in="SourceGraphic"/>
      </feMerge>
    </filter>
    <filter id="grain">
      <feTurbulence type="fractalNoise" baseFrequency="0.82" numOctaves="3" seed="211"/>
      <feColorMatrix type="saturate" values="0"/>
      <feComponentTransfer>
        <feFuncA type="table" tableValues="0 0.075"/>
      </feComponentTransfer>
    </filter>
  </defs>
  <rect width="1600" height="900" fill="url(#bgGlow)"/>
  <g opacity="0.72"><circle cx="196" cy="383" r="1.4" fill="#86efac" opacity="0.27" />
<circle cx="215" cy="564" r="2.5" fill="#86efac" opacity="0.58" />
<circle cx="234" cy="21" r="1.6" fill="#86efac" opacity="0.39" />
<circle cx="253" cy="202" r="2.7" fill="#86efac" opacity="0.20" />
<circle cx="120" cy="559" r="1.0" fill="#86efac" opacity="0.53" />
<circle cx="139" cy="740" r="2.1" fill="#86efac" opacity="0.34" />
<circle cx="158" cy="197" r="1.2" fill="#86efac" opacity="0.65" />
<circle cx="177" cy="378" r="2.3" fill="#86efac" opacity="0.46" />
<circle cx="44" cy="735" r="3.0" fill="#86efac" opacity="0.29" />
<circle cx="63" cy="16" r="1.7" fill="#86efac" opacity="0.60" />
<circle cx="741" cy="500" r="2.7" fill="#86efac" opacity="0.54" />
<circle cx="722" cy="319" r="1.6" fill="#86efac" opacity="0.23" />
<circle cx="703" cy="138" r="2.5" fill="#86efac" opacity="0.66" />
<circle cx="684" cy="857" r="1.4" fill="#86efac" opacity="0.35" />
<circle cx="665" cy="676" r="2.3" fill="#86efac" opacity="0.28" />
<circle cx="646" cy="495" r="1.2" fill="#86efac" opacity="0.47" />
<circle cx="627" cy="314" r="2.1" fill="#86efac" opacity="0.40" />
<circle cx="608" cy="133" r="1.0" fill="#86efac" opacity="0.59" />
<circle cx="893" cy="852" r="1.1" fill="#86efac" opacity="0.56" />
<circle cx="874" cy="671" r="2.4" fill="#86efac" opacity="0.25" />
<circle cx="750" cy="227" r="0.8" fill="#86efac" opacity="0.45" />
<circle cx="769" cy="408" r="1.9" fill="#86efac" opacity="0.26" />
<circle cx="712" cy="765" r="3.0" fill="#86efac" opacity="0.57" />
<circle cx="731" cy="46" r="1.7" fill="#86efac" opacity="0.38" />
<circle cx="826" cy="403" r="2.8" fill="#86efac" opacity="0.21" />
<circle cx="845" cy="584" r="1.5" fill="#86efac" opacity="0.52" />
<circle cx="788" cy="41" r="2.6" fill="#86efac" opacity="0.33" />
<circle cx="807" cy="222" r="1.3" fill="#86efac" opacity="0.64" />
<circle cx="598" cy="775" r="2.4" fill="#86efac" opacity="0.47" />
<circle cx="617" cy="56" r="1.1" fill="#86efac" opacity="0.28" />
<circle cx="759" cy="18" r="2.5" fill="#86efac" opacity="0.54" />
<circle cx="740" cy="737" r="1.4" fill="#86efac" opacity="0.23" />
<circle cx="797" cy="380" r="2.7" fill="#86efac" opacity="0.42" />
<circle cx="778" cy="199" r="1.6" fill="#86efac" opacity="0.61" />
<circle cx="683" cy="742" r="2.1" fill="#86efac" opacity="0.30" />
<circle cx="664" cy="561" r="1.0" fill="#86efac" opacity="0.49" />
<circle cx="721" cy="204" r="2.3" fill="#86efac" opacity="0.18" />
<circle cx="702" cy="23" r="1.2" fill="#86efac" opacity="0.37" />
<circle cx="607" cy="370" r="1.7" fill="#86efac" opacity="0.56" />
<circle cx="588" cy="189" r="3.0" fill="#86efac" opacity="0.25" />
<circle cx="536" cy="877" r="1.4" fill="#86efac" opacity="0.27" />
<circle cx="555" cy="158" r="2.5" fill="#86efac" opacity="0.58" />
<circle cx="574" cy="339" r="1.6" fill="#86efac" opacity="0.65" />
<circle cx="593" cy="520" r="2.7" fill="#86efac" opacity="0.46" />
<circle cx="612" cy="701" r="1.0" fill="#86efac" opacity="0.51" />
<circle cx="631" cy="882" r="2.1" fill="#86efac" opacity="0.32" />
<circle cx="650" cy="163" r="1.2" fill="#86efac" opacity="0.39" />
<circle cx="669" cy="344" r="2.3" fill="#86efac" opacity="0.20" />
<circle cx="384" cy="525" r="3.0" fill="#86efac" opacity="0.29" />
<circle cx="403" cy="706" r="1.7" fill="#86efac" opacity="0.60" />
<circle cx="481" cy="668" r="3.1" fill="#86efac" opacity="0.18" />
<circle cx="462" cy="487" r="2.0" fill="#86efac" opacity="0.37" />
<circle cx="443" cy="306" r="2.9" fill="#86efac" opacity="0.30" />
<circle cx="424" cy="125" r="1.8" fill="#86efac" opacity="0.49" />
<circle cx="557" cy="492" r="1.1" fill="#86efac" opacity="0.44" />
<circle cx="538" cy="311" r="2.4" fill="#86efac" opacity="0.63" />
<circle cx="519" cy="130" r="0.9" fill="#86efac" opacity="0.56" />
<circle cx="500" cy="849" r="2.2" fill="#86efac" opacity="0.25" />
<circle cx="329" cy="316" r="2.3" fill="#86efac" opacity="0.20" />
<circle cx="310" cy="135" r="1.2" fill="#86efac" opacity="0.39" />
<circle cx="490" cy="223" r="2.0" fill="#86efac" opacity="0.67" />
<circle cx="509" cy="404" r="3.1" fill="#86efac" opacity="0.48" />
<circle cx="452" cy="761" r="1.8" fill="#86efac" opacity="0.29" />
<circle cx="471" cy="42" r="2.9" fill="#86efac" opacity="0.60" />
<circle cx="414" cy="47" r="2.4" fill="#86efac" opacity="0.41" />
<circle cx="433" cy="228" r="1.1" fill="#86efac" opacity="0.22" />
<circle cx="376" cy="585" r="2.2" fill="#86efac" opacity="0.53" />
<circle cx="395" cy="766" r="0.9" fill="#86efac" opacity="0.34" /></g>
  <circle cx="434" cy="325" r="230" fill="#fdba74" opacity="0.08"/>
  <circle cx="1136" cy="674" r="275" fill="#86efac" opacity="0.08"/>
  <g filter="url(#softGlow)">
    
      <path d="M660 225 C500 405 500 610 660 770" fill="none" stroke="#86efac" stroke-width="23" stroke-linecap="round" opacity="0.78"/>
      <path d="M660 225 C760 410 760 585 660 770" fill="none" stroke="#fdba74" stroke-width="7" opacity="0.74"/>
      <line x1="658" y1="225" x2="658" y2="770" stroke="#fff7ed" stroke-width="4" opacity="0.68"/>
      <line x1="700" y1="505" x2="1045" y2="505" stroke="#86efac" stroke-width="13" stroke-linecap="round" opacity="0.82"/>
      <path d="M1045 505 l-58 -32 l16 32 l-16 32 Z" fill="#86efac" opacity="0.86"/>
    
  </g>
  <g opacity="0.78">
    <rect x="88" y="82" width="1424" height="736" rx="46" fill="none" stroke="#ffffff" stroke-opacity="0.2" stroke-width="2"/>
    <path d="M150 150 C320 82 525 78 720 126" stroke="#fff7ed" stroke-opacity="0.44" stroke-width="7" stroke-linecap="round"/>
    <path d="M1332 710 C1215 775 1005 792 855 752" stroke="#fdba74" stroke-opacity="0.42" stroke-width="8" stroke-linecap="round"/>
  </g>
  <g transform="translate(126 714)">
    <rect width="420" height="86" rx="28" fill="#ffffff" opacity="0.12"/>
    <rect x="1" y="1" width="418" height="84" rx="27" fill="none" stroke="#ffffff" stroke-opacity="0.22"/>
    <text x="36" y="56" font-family="Georgia, 'Noto Serif Devanagari', serif" font-size="40" font-weight="700" fill="#fff7ed">धनुष</text>
    <circle cx="352" cy="43" r="15" fill="#fdba74" opacity="0.9"/>
  </g>
  <rect width="1600" height="900" filter="url(#grain)" opacity="0.34"/>
</svg>
