<svg xmlns="http://www.w3.org/2000/svg" width="1600" height="900" viewBox="0 0 1600 900" role="img" aria-label="गरुड़ पुराण: मृत्यु का रहस्य, यमलोक की यात्रा, कर्मफल और उसके बाद का शाश्वत सत्य">
  <defs>
    <radialGradient id="bgGlow" cx="50%" cy="43%" r="75%">
      <stop offset="0%" stop-color="#fcd34d" stop-opacity="0.46"/>
      <stop offset="45%" stop-color="#5b3311" stop-opacity="0.92"/>
      <stop offset="100%" stop-color="#201104"/>
    </radialGradient>
    <linearGradient id="glassPanel" x1="0%" y1="0%" x2="100%" y2="100%">
      <stop offset="0%" stop-color="#ffffff" stop-opacity="0.58"/>
      <stop offset="42%" stop-color="#fcd34d" stop-opacity="0.22"/>
      <stop offset="100%" stop-color="#ffffff" stop-opacity="0.08"/>
    </linearGradient>
    <radialGradient id="glassOrb" cx="34%" cy="24%" r="68%">
      <stop offset="0%" stop-color="#ffffff" stop-opacity="0.94"/>
      <stop offset="34%" stop-color="#fcd34d" stop-opacity="0.62"/>
      <stop offset="100%" stop-color="#5b3311" stop-opacity="0.22"/>
    </radialGradient>
    <linearGradient id="glassMountain" x1="0%" y1="0%" x2="100%" y2="100%">
      <stop offset="0%" stop-color="#ffffff" stop-opacity="0.48"/>
      <stop offset="100%" stop-color="#fcd34d" stop-opacity="0.22"/>
    </linearGradient>
    <filter id="softGlow" x="-30%" y="-30%" width="160%" height="160%">
      <feGaussianBlur stdDeviation="18" result="blur"/>
      <feColorMatrix in="blur" type="matrix" values="1 0 0 0 0  0 1 0 0 0  0 0 1 0 0  0 0 0 0.75 0"/>
      <feMerge>
        <feMergeNode/>
        <feMergeNode in="SourceGraphic"/>
      </feMerge>
    </filter>
    <filter id="grain">
      <feTurbulence type="fractalNoise" baseFrequency="0.82" numOctaves="3" seed="687"/>
      <feColorMatrix type="saturate" values="0"/>
      <feComponentTransfer>
        <feFuncA type="table" tableValues="0 0.075"/>
      </feComponentTransfer>
    </filter>
  </defs>
  <rect width="1600" height="900" fill="url(#bgGlow)"/>
  <g opacity="0.72"><circle cx="1416" cy="715" r="2.6" fill="#fb923c" opacity="0.23" />
<circle cx="1435" cy="896" r="1.3" fill="#fb923c" opacity="0.54" />
<circle cx="1454" cy="353" r="2.8" fill="#fb923c" opacity="0.35" />
<circle cx="1473" cy="534" r="1.5" fill="#fb923c" opacity="0.66" />
<circle cx="1492" cy="435" r="3.0" fill="#fb923c" opacity="0.47" />
<circle cx="1511" cy="616" r="1.7" fill="#fb923c" opacity="0.28" />
<circle cx="1530" cy="177" r="0.8" fill="#fb923c" opacity="0.59" />
<circle cx="1549" cy="254" r="1.9" fill="#fb923c" opacity="0.40" />
<circle cx="1264" cy="259" r="1.0" fill="#fb923c" opacity="0.25" />
<circle cx="1283" cy="440" r="2.1" fill="#fb923c" opacity="0.56" />
<circle cx="241" cy="744" r="1.5" fill="#fb923c" opacity="0.24" />
<circle cx="222" cy="563" r="2.8" fill="#fb923c" opacity="0.43" />
<circle cx="203" cy="382" r="1.3" fill="#fb923c" opacity="0.36" />
<circle cx="184" cy="201" r="2.6" fill="#fb923c" opacity="0.55" />
<circle cx="317" cy="568" r="1.9" fill="#fb923c" opacity="0.50" />
<circle cx="298" cy="387" r="0.8" fill="#fb923c" opacity="0.19" />
<circle cx="279" cy="206" r="1.7" fill="#fb923c" opacity="0.62" />
<circle cx="260" cy="25" r="3.0" fill="#fb923c" opacity="0.31" />
<circle cx="89" cy="196" r="2.3" fill="#fb923c" opacity="0.26" />
<circle cx="70" cy="15" r="1.2" fill="#fb923c" opacity="0.45" />
<circle cx="250" cy="807" r="1.2" fill="#fb923c" opacity="0.23" />
<circle cx="269" cy="88" r="2.3" fill="#fb923c" opacity="0.54" />
<circle cx="212" cy="445" r="1.0" fill="#fb923c" opacity="0.35" />
<circle cx="231" cy="626" r="2.1" fill="#fb923c" opacity="0.66" />
<circle cx="174" cy="631" r="1.6" fill="#fb923c" opacity="0.47" />
<circle cx="193" cy="812" r="2.7" fill="#fb923c" opacity="0.28" />
<circle cx="136" cy="269" r="1.4" fill="#fb923c" opacity="0.59" />
<circle cx="155" cy="450" r="2.5" fill="#fb923c" opacity="0.40" />
<circle cx="98" cy="455" r="2.8" fill="#fb923c" opacity="0.21" />
<circle cx="117" cy="636" r="1.5" fill="#fb923c" opacity="0.52" />
<circle cx="1187" cy="598" r="2.9" fill="#fb923c" opacity="0.64" />
<circle cx="1168" cy="417" r="1.8" fill="#fb923c" opacity="0.33" />
<circle cx="1225" cy="60" r="3.1" fill="#fb923c" opacity="0.52" />
<circle cx="1206" cy="779" r="2.0" fill="#fb923c" opacity="0.21" />
<circle cx="1263" cy="774" r="0.9" fill="#fb923c" opacity="0.38" />
<circle cx="1244" cy="593" r="2.2" fill="#fb923c" opacity="0.57" />
<circle cx="1301" cy="236" r="1.1" fill="#fb923c" opacity="0.26" />
<circle cx="1282" cy="55" r="2.4" fill="#fb923c" opacity="0.45" />
<circle cx="1339" cy="246" r="2.1" fill="#fb923c" opacity="0.62" />
<circle cx="1320" cy="65" r="1.0" fill="#fb923c" opacity="0.31" />
<circle cx="1196" cy="393" r="1.8" fill="#fb923c" opacity="0.19" />
<circle cx="1215" cy="574" r="2.9" fill="#fb923c" opacity="0.50" />
<circle cx="1234" cy="755" r="2.0" fill="#fb923c" opacity="0.57" />
<circle cx="1253" cy="36" r="3.1" fill="#fb923c" opacity="0.38" />
<circle cx="1120" cy="569" r="2.2" fill="#fb923c" opacity="0.45" />
<circle cx="1139" cy="750" r="0.9" fill="#fb923c" opacity="0.26" />
<circle cx="1158" cy="31" r="2.4" fill="#fb923c" opacity="0.33" />
<circle cx="1177" cy="212" r="1.1" fill="#fb923c" opacity="0.64" />
<circle cx="1348" cy="41" r="2.6" fill="#fb923c" opacity="0.67" />
<circle cx="1367" cy="222" r="1.3" fill="#fb923c" opacity="0.48" />
<circle cx="1205" cy="184" r="1.9" fill="#fb923c" opacity="0.60" />
<circle cx="1186" cy="3" r="0.8" fill="#fb923c" opacity="0.29" />
<circle cx="1167" cy="722" r="1.7" fill="#fb923c" opacity="0.22" />
<circle cx="1148" cy="541" r="3.0" fill="#fb923c" opacity="0.41" />
<circle cx="1129" cy="360" r="1.5" fill="#fb923c" opacity="0.34" />
<circle cx="1110" cy="179" r="2.8" fill="#fb923c" opacity="0.53" />
<circle cx="1091" cy="898" r="1.3" fill="#fb923c" opacity="0.46" />
<circle cx="1072" cy="717" r="2.6" fill="#fb923c" opacity="0.65" />
<circle cx="1357" cy="732" r="1.1" fill="#fb923c" opacity="0.62" />
<circle cx="1338" cy="551" r="2.4" fill="#fb923c" opacity="0.31" />
<circle cx="1214" cy="535" r="1.6" fill="#fb923c" opacity="0.51" />
<circle cx="1233" cy="716" r="2.7" fill="#fb923c" opacity="0.32" />
<circle cx="1176" cy="173" r="1.4" fill="#fb923c" opacity="0.63" />
<circle cx="1195" cy="354" r="2.5" fill="#fb923c" opacity="0.44" />
<circle cx="1290" cy="711" r="1.2" fill="#fb923c" opacity="0.27" />
<circle cx="1309" cy="892" r="2.3" fill="#fb923c" opacity="0.58" />
<circle cx="1252" cy="349" r="1.0" fill="#fb923c" opacity="0.39" />
<circle cx="1271" cy="530" r="2.1" fill="#fb923c" opacity="0.20" /></g>
  <circle cx="462" cy="273" r="230" fill="#fcd34d" opacity="0.08"/>
  <circle cx="1084" cy="660" r="275" fill="#fb923c" opacity="0.08"/>
  <g filter="url(#softGlow)">
    
      <path d="M520 300 h560 a44 44 0 0 1 44 44 v280 a44 44 0 0 1 -44 44 H520 a44 44 0 0 1 -44 -44 V344 a44 44 0 0 1 44 -44 Z" fill="url(#glassPanel)" opacity="0.72"/>
      <path d="M800 320 v330" stroke="#fff7ed" stroke-width="9" opacity="0.48"/>
      <path d="M555 380 h185" stroke="#fb923c" stroke-width="10" stroke-linecap="round" opacity="0.35" />
<path d="M555 416 h185" stroke="#fb923c" stroke-width="10" stroke-linecap="round" opacity="0.385" />
<path d="M555 452 h185" stroke="#fb923c" stroke-width="10" stroke-linecap="round" opacity="0.42" />
<path d="M555 488 h185" stroke="#fb923c" stroke-width="10" stroke-linecap="round" opacity="0.45499999999999996" />
<path d="M555 524 h185" stroke="#fb923c" stroke-width="10" stroke-linecap="round" opacity="0.49" />
<path d="M555 560 h185" stroke="#fb923c" stroke-width="10" stroke-linecap="round" opacity="0.525" />
<path d="M555 596 h185" stroke="#fb923c" stroke-width="10" stroke-linecap="round" opacity="0.56" />
      <path d="M865 380 h185" stroke="#fcd34d" stroke-width="10" stroke-linecap="round" opacity="0.35" />
<path d="M865 416 h185" stroke="#fcd34d" stroke-width="10" stroke-linecap="round" opacity="0.385" />
<path d="M865 452 h185" stroke="#fcd34d" stroke-width="10" stroke-linecap="round" opacity="0.42" />
<path d="M865 488 h185" stroke="#fcd34d" stroke-width="10" stroke-linecap="round" opacity="0.45499999999999996" />
<path d="M865 524 h185" stroke="#fcd34d" stroke-width="10" stroke-linecap="round" opacity="0.49" />
<path d="M865 560 h185" stroke="#fcd34d" stroke-width="10" stroke-linecap="round" opacity="0.525" />
<path d="M865 596 h185" stroke="#fcd34d" stroke-width="10" stroke-linecap="round" opacity="0.56" />
    
  </g>
  <g opacity="0.78">
    <rect x="88" y="82" width="1424" height="736" rx="46" fill="none" stroke="#ffffff" stroke-opacity="0.2" stroke-width="2"/>
    <path d="M150 150 C320 82 525 78 720 126" stroke="#fff7ed" stroke-opacity="0.44" stroke-width="7" stroke-linecap="round"/>
    <path d="M1332 710 C1215 775 1005 792 855 752" stroke="#fcd34d" stroke-opacity="0.42" stroke-width="8" stroke-linecap="round"/>
  </g>
  <g transform="translate(126 714)">
    <rect width="420" height="86" rx="28" fill="#ffffff" opacity="0.12"/>
    <rect x="1" y="1" width="418" height="84" rx="27" fill="none" stroke="#ffffff" stroke-opacity="0.22"/>
    <text x="36" y="56" font-family="Georgia, 'Noto Serif Devanagari', serif" font-size="40" font-weight="700" fill="#fff7ed">ग्रंथ</text>
    <circle cx="352" cy="43" r="15" fill="#fcd34d" opacity="0.9"/>
  </g>
  <rect width="1600" height="900" filter="url(#grain)" opacity="0.34"/>
</svg>
