<svg xmlns="http://www.w3.org/2000/svg" width="1600" height="900" viewBox="0 0 1600 900" role="img" aria-label="गायत्री मंत्र का अर्थ, वैज्ञानिक रहस्य और अद्भुत लाभ: मानसिक और शारीरिक विकास की कुंजी">
  <defs>
    <radialGradient id="bgGlow" cx="50%" cy="43%" r="75%">
      <stop offset="0%" stop-color="#fde047" stop-opacity="0.46"/>
      <stop offset="45%" stop-color="#5a2508" stop-opacity="0.92"/>
      <stop offset="100%" stop-color="#1e1404"/>
    </radialGradient>
    <linearGradient id="glassPanel" x1="0%" y1="0%" x2="100%" y2="100%">
      <stop offset="0%" stop-color="#ffffff" stop-opacity="0.58"/>
      <stop offset="42%" stop-color="#fde047" stop-opacity="0.22"/>
      <stop offset="100%" stop-color="#ffffff" stop-opacity="0.08"/>
    </linearGradient>
    <radialGradient id="glassOrb" cx="34%" cy="24%" r="68%">
      <stop offset="0%" stop-color="#ffffff" stop-opacity="0.94"/>
      <stop offset="34%" stop-color="#fde047" stop-opacity="0.62"/>
      <stop offset="100%" stop-color="#5a2508" stop-opacity="0.22"/>
    </radialGradient>
    <linearGradient id="glassMountain" x1="0%" y1="0%" x2="100%" y2="100%">
      <stop offset="0%" stop-color="#ffffff" stop-opacity="0.48"/>
      <stop offset="100%" stop-color="#fde047" stop-opacity="0.22"/>
    </linearGradient>
    <filter id="softGlow" x="-30%" y="-30%" width="160%" height="160%">
      <feGaussianBlur stdDeviation="18" result="blur"/>
      <feColorMatrix in="blur" type="matrix" values="1 0 0 0 0  0 1 0 0 0  0 0 1 0 0  0 0 0 0.75 0"/>
      <feMerge>
        <feMergeNode/>
        <feMergeNode in="SourceGraphic"/>
      </feMerge>
    </filter>
    <filter id="grain">
      <feTurbulence type="fractalNoise" baseFrequency="0.82" numOctaves="3" seed="475"/>
      <feColorMatrix type="saturate" values="0"/>
      <feComponentTransfer>
        <feFuncA type="table" tableValues="0 0.075"/>
      </feComponentTransfer>
    </filter>
  </defs>
  <rect width="1600" height="900" fill="url(#bgGlow)"/>
  <g opacity="0.72"><circle cx="260" cy="447" r="2.2" fill="#f97316" opacity="0.37" />
<circle cx="279" cy="628" r="0.9" fill="#f97316" opacity="0.18" />
<circle cx="298" cy="85" r="2.4" fill="#f97316" opacity="0.49" />
<circle cx="317" cy="266" r="1.1" fill="#f97316" opacity="0.30" />
<circle cx="184" cy="623" r="1.8" fill="#f97316" opacity="0.63" />
<circle cx="203" cy="804" r="2.9" fill="#f97316" opacity="0.44" />
<circle cx="222" cy="261" r="2.0" fill="#f97316" opacity="0.25" />
<circle cx="241" cy="442" r="3.1" fill="#f97316" opacity="0.56" />
<circle cx="108" cy="799" r="1.4" fill="#f97316" opacity="0.39" />
<circle cx="127" cy="80" r="2.5" fill="#f97316" opacity="0.20" />
<circle cx="165" cy="324" r="1.9" fill="#f97316" opacity="0.28" />
<circle cx="146" cy="143" r="0.8" fill="#f97316" opacity="0.47" />
<circle cx="127" cy="862" r="1.7" fill="#f97316" opacity="0.40" />
<circle cx="108" cy="681" r="3.0" fill="#f97316" opacity="0.59" />
<circle cx="89" cy="500" r="1.5" fill="#f97316" opacity="0.52" />
<circle cx="70" cy="319" r="2.8" fill="#f97316" opacity="0.21" />
<circle cx="51" cy="138" r="1.3" fill="#f97316" opacity="0.64" />
<circle cx="32" cy="857" r="2.6" fill="#f97316" opacity="0.33" />
<circle cx="317" cy="676" r="2.7" fill="#f97316" opacity="0.30" />
<circle cx="298" cy="495" r="1.6" fill="#f97316" opacity="0.49" />
<circle cx="174" cy="51" r="2.4" fill="#f97316" opacity="0.19" />
<circle cx="193" cy="232" r="1.1" fill="#f97316" opacity="0.50" />
<circle cx="136" cy="589" r="2.2" fill="#f97316" opacity="0.31" />
<circle cx="155" cy="770" r="0.9" fill="#f97316" opacity="0.62" />
<circle cx="250" cy="227" r="2.0" fill="#f97316" opacity="0.45" />
<circle cx="269" cy="408" r="3.1" fill="#f97316" opacity="0.26" />
<circle cx="212" cy="765" r="1.8" fill="#f97316" opacity="0.57" />
<circle cx="231" cy="46" r="2.9" fill="#f97316" opacity="0.38" />
<circle cx="22" cy="599" r="1.6" fill="#f97316" opacity="0.21" />
<circle cx="41" cy="780" r="2.7" fill="#f97316" opacity="0.52" />
<circle cx="183" cy="742" r="1.7" fill="#f97316" opacity="0.24" />
<circle cx="164" cy="561" r="3.0" fill="#f97316" opacity="0.43" />
<circle cx="221" cy="204" r="1.9" fill="#f97316" opacity="0.62" />
<circle cx="202" cy="23" r="0.8" fill="#f97316" opacity="0.35" />
<circle cx="107" cy="566" r="1.3" fill="#f97316" opacity="0.54" />
<circle cx="88" cy="385" r="2.6" fill="#f97316" opacity="0.23" />
<circle cx="145" cy="28" r="1.5" fill="#f97316" opacity="0.42" />
<circle cx="126" cy="747" r="2.8" fill="#f97316" opacity="0.61" />
<circle cx="31" cy="194" r="0.9" fill="#f97316" opacity="0.30" />
<circle cx="12" cy="13" r="2.2" fill="#f97316" opacity="0.49" />
<circle cx="1560" cy="701" r="3.0" fill="#f97316" opacity="0.51" />
<circle cx="1579" cy="882" r="1.7" fill="#f97316" opacity="0.32" />
<circle cx="1598" cy="163" r="0.8" fill="#f97316" opacity="0.39" />
<circle cx="17" cy="344" r="1.9" fill="#f97316" opacity="0.20" />
<circle cx="36" cy="525" r="2.6" fill="#f97316" opacity="0.25" />
<circle cx="55" cy="706" r="1.3" fill="#f97316" opacity="0.56" />
<circle cx="74" cy="887" r="2.8" fill="#f97316" opacity="0.63" />
<circle cx="93" cy="168" r="1.5" fill="#f97316" opacity="0.44" />
<circle cx="1408" cy="349" r="2.2" fill="#f97316" opacity="0.53" />
<circle cx="1427" cy="530" r="0.9" fill="#f97316" opacity="0.34" />
<circle cx="1505" cy="492" r="2.3" fill="#f97316" opacity="0.42" />
<circle cx="1486" cy="311" r="1.2" fill="#f97316" opacity="0.61" />
<circle cx="1467" cy="130" r="2.1" fill="#f97316" opacity="0.50" />
<circle cx="1448" cy="849" r="1.0" fill="#f97316" opacity="0.23" />
<circle cx="1581" cy="316" r="2.7" fill="#f97316" opacity="0.18" />
<circle cx="1562" cy="135" r="1.6" fill="#f97316" opacity="0.37" />
<circle cx="1543" cy="854" r="2.5" fill="#f97316" opacity="0.30" />
<circle cx="1524" cy="673" r="1.4" fill="#f97316" opacity="0.49" />
<circle cx="1353" cy="140" r="1.5" fill="#f97316" opacity="0.44" />
<circle cx="1334" cy="859" r="2.8" fill="#f97316" opacity="0.63" />
<circle cx="1514" cy="47" r="1.2" fill="#f97316" opacity="0.41" />
<circle cx="1533" cy="228" r="2.3" fill="#f97316" opacity="0.22" />
<circle cx="1476" cy="585" r="1.0" fill="#f97316" opacity="0.53" />
<circle cx="1495" cy="766" r="2.1" fill="#f97316" opacity="0.34" />
<circle cx="1438" cy="771" r="1.6" fill="#f97316" opacity="0.65" />
<circle cx="1457" cy="52" r="2.7" fill="#f97316" opacity="0.46" />
<circle cx="1400" cy="409" r="1.4" fill="#f97316" opacity="0.27" />
<circle cx="1419" cy="590" r="2.5" fill="#f97316" opacity="0.58" /></g>
  <circle cx="426" cy="277" r="230" fill="#fde047" opacity="0.08"/>
  <circle cx="1088" cy="656" r="275" fill="#f97316" opacity="0.08"/>
  <g filter="url(#softGlow)">
    
      <path d="M800 705 C635 585 690 445 772 358 C765 458 875 465 842 275 C995 405 1025 595 800 705 Z" fill="#f97316" opacity="0.75"/>
      <path d="M805 670 C725 598 742 506 807 438 C802 514 888 535 878 442 C950 538 928 632 805 670 Z" fill="#fde047" opacity="0.84"/>
      <path d="M615 728 h370" stroke="#fff7ed" stroke-width="20" stroke-linecap="round" opacity="0.44"/>
      <path d="M690 760 h220" stroke="#f97316" stroke-width="18" stroke-linecap="round" opacity="0.52"/>
    
  </g>
  <g opacity="0.78">
    <rect x="88" y="82" width="1424" height="736" rx="46" fill="none" stroke="#ffffff" stroke-opacity="0.2" stroke-width="2"/>
    <path d="M150 150 C320 82 525 78 720 126" stroke="#fff7ed" stroke-opacity="0.44" stroke-width="7" stroke-linecap="round"/>
    <path d="M1332 710 C1215 775 1005 792 855 752" stroke="#fde047" stroke-opacity="0.42" stroke-width="8" stroke-linecap="round"/>
  </g>
  <g transform="translate(126 714)">
    <rect width="420" height="86" rx="28" fill="#ffffff" opacity="0.12"/>
    <rect x="1" y="1" width="418" height="84" rx="27" fill="none" stroke="#ffffff" stroke-opacity="0.22"/>
    <text x="36" y="56" font-family="Georgia, 'Noto Serif Devanagari', serif" font-size="40" font-weight="700" fill="#fff7ed">दीप</text>
    <circle cx="352" cy="43" r="15" fill="#fde047" opacity="0.9"/>
  </g>
  <rect width="1600" height="900" filter="url(#grain)" opacity="0.34"/>
</svg>
