<svg xmlns="http://www.w3.org/2000/svg" width="1600" height="900" viewBox="0 0 1600 900" role="img" aria-label="गोस्वामी तुलसीदास: रामचरितमानस की रचना और भक्ति काल का स्वर्ण युग">
  <defs>
    <radialGradient id="bgGlow" cx="50%" cy="43%" r="75%">
      <stop offset="0%" stop-color="#fdba74" stop-opacity="0.46"/>
      <stop offset="45%" stop-color="#5b2a0a" stop-opacity="0.92"/>
      <stop offset="100%" stop-color="#1f1208"/>
    </radialGradient>
    <linearGradient id="glassPanel" x1="0%" y1="0%" x2="100%" y2="100%">
      <stop offset="0%" stop-color="#ffffff" stop-opacity="0.58"/>
      <stop offset="42%" stop-color="#fdba74" stop-opacity="0.22"/>
      <stop offset="100%" stop-color="#ffffff" stop-opacity="0.08"/>
    </linearGradient>
    <radialGradient id="glassOrb" cx="34%" cy="24%" r="68%">
      <stop offset="0%" stop-color="#ffffff" stop-opacity="0.94"/>
      <stop offset="34%" stop-color="#fdba74" stop-opacity="0.62"/>
      <stop offset="100%" stop-color="#5b2a0a" stop-opacity="0.22"/>
    </radialGradient>
    <linearGradient id="glassMountain" x1="0%" y1="0%" x2="100%" y2="100%">
      <stop offset="0%" stop-color="#ffffff" stop-opacity="0.48"/>
      <stop offset="100%" stop-color="#fdba74" stop-opacity="0.22"/>
    </linearGradient>
    <filter id="softGlow" x="-30%" y="-30%" width="160%" height="160%">
      <feGaussianBlur stdDeviation="18" result="blur"/>
      <feColorMatrix in="blur" type="matrix" values="1 0 0 0 0  0 1 0 0 0  0 0 1 0 0  0 0 0 0.75 0"/>
      <feMerge>
        <feMergeNode/>
        <feMergeNode in="SourceGraphic"/>
      </feMerge>
    </filter>
    <filter id="grain">
      <feTurbulence type="fractalNoise" baseFrequency="0.82" numOctaves="3" seed="5"/>
      <feColorMatrix type="saturate" values="0"/>
      <feComponentTransfer>
        <feFuncA type="table" tableValues="0 0.075"/>
      </feComponentTransfer>
    </filter>
  </defs>
  <rect width="1600" height="900" fill="url(#bgGlow)"/>
  <g opacity="0.72"><circle cx="1204" cy="219" r="2.2" fill="#86efac" opacity="0.39" />
<circle cx="1223" cy="400" r="0.9" fill="#86efac" opacity="0.20" />
<circle cx="1242" cy="757" r="2.4" fill="#86efac" opacity="0.51" />
<circle cx="1261" cy="38" r="1.1" fill="#86efac" opacity="0.32" />
<circle cx="1128" cy="395" r="1.8" fill="#86efac" opacity="0.65" />
<circle cx="1147" cy="576" r="2.9" fill="#86efac" opacity="0.46" />
<circle cx="1166" cy="33" r="2.0" fill="#86efac" opacity="0.27" />
<circle cx="1185" cy="214" r="3.1" fill="#86efac" opacity="0.58" />
<circle cx="1052" cy="571" r="1.4" fill="#86efac" opacity="0.41" />
<circle cx="1071" cy="752" r="2.5" fill="#86efac" opacity="0.22" />
<circle cx="661" cy="92" r="2.7" fill="#86efac" opacity="0.60" />
<circle cx="642" cy="811" r="1.6" fill="#86efac" opacity="0.29" />
<circle cx="623" cy="630" r="2.5" fill="#86efac" opacity="0.22" />
<circle cx="604" cy="449" r="1.4" fill="#86efac" opacity="0.41" />
<circle cx="585" cy="268" r="2.3" fill="#86efac" opacity="0.34" />
<circle cx="566" cy="87" r="1.2" fill="#86efac" opacity="0.53" />
<circle cx="547" cy="806" r="2.1" fill="#86efac" opacity="0.46" />
<circle cx="528" cy="625" r="1.0" fill="#86efac" opacity="0.65" />
<circle cx="813" cy="444" r="2.7" fill="#86efac" opacity="0.62" />
<circle cx="794" cy="263" r="1.6" fill="#86efac" opacity="0.31" />
<circle cx="670" cy="51" r="2.4" fill="#86efac" opacity="0.51" />
<circle cx="689" cy="232" r="1.1" fill="#86efac" opacity="0.32" />
<circle cx="632" cy="589" r="2.2" fill="#86efac" opacity="0.63" />
<circle cx="651" cy="770" r="0.9" fill="#86efac" opacity="0.44" />
<circle cx="746" cy="227" r="2.0" fill="#86efac" opacity="0.27" />
<circle cx="765" cy="408" r="3.1" fill="#86efac" opacity="0.58" />
<circle cx="708" cy="765" r="1.8" fill="#86efac" opacity="0.39" />
<circle cx="727" cy="46" r="2.9" fill="#86efac" opacity="0.20" />
<circle cx="518" cy="599" r="1.6" fill="#86efac" opacity="0.53" />
<circle cx="537" cy="780" r="2.7" fill="#86efac" opacity="0.34" />
<circle cx="679" cy="742" r="1.7" fill="#86efac" opacity="0.42" />
<circle cx="660" cy="561" r="3.0" fill="#86efac" opacity="0.61" />
<circle cx="717" cy="204" r="1.9" fill="#86efac" opacity="0.30" />
<circle cx="698" cy="23" r="0.8" fill="#86efac" opacity="0.49" />
<circle cx="603" cy="566" r="1.3" fill="#86efac" opacity="0.18" />
<circle cx="584" cy="385" r="2.6" fill="#86efac" opacity="0.37" />
<circle cx="641" cy="28" r="1.5" fill="#86efac" opacity="0.56" />
<circle cx="622" cy="747" r="2.8" fill="#86efac" opacity="0.25" />
<circle cx="527" cy="194" r="0.9" fill="#86efac" opacity="0.44" />
<circle cx="508" cy="13" r="2.2" fill="#86efac" opacity="0.63" />
<circle cx="456" cy="805" r="3.0" fill="#86efac" opacity="0.65" />
<circle cx="475" cy="86" r="1.7" fill="#86efac" opacity="0.46" />
<circle cx="494" cy="267" r="0.8" fill="#86efac" opacity="0.53" />
<circle cx="513" cy="448" r="1.9" fill="#86efac" opacity="0.34" />
<circle cx="532" cy="629" r="2.6" fill="#86efac" opacity="0.39" />
<circle cx="551" cy="810" r="1.3" fill="#86efac" opacity="0.20" />
<circle cx="570" cy="91" r="2.8" fill="#86efac" opacity="0.27" />
<circle cx="589" cy="272" r="1.5" fill="#86efac" opacity="0.58" />
<circle cx="304" cy="453" r="2.2" fill="#86efac" opacity="0.67" />
<circle cx="323" cy="634" r="0.9" fill="#86efac" opacity="0.48" />
<circle cx="465" cy="260" r="2.3" fill="#86efac" opacity="0.20" />
<circle cx="446" cy="79" r="1.2" fill="#86efac" opacity="0.39" />
<circle cx="427" cy="798" r="2.1" fill="#86efac" opacity="0.32" />
<circle cx="408" cy="617" r="1.0" fill="#86efac" opacity="0.51" />
<circle cx="541" cy="84" r="2.7" fill="#86efac" opacity="0.46" />
<circle cx="522" cy="803" r="1.6" fill="#86efac" opacity="0.65" />
<circle cx="503" cy="622" r="2.5" fill="#86efac" opacity="0.58" />
<circle cx="484" cy="441" r="1.4" fill="#86efac" opacity="0.27" />
<circle cx="313" cy="808" r="1.5" fill="#86efac" opacity="0.22" />
<circle cx="294" cy="627" r="2.8" fill="#86efac" opacity="0.41" />
<circle cx="1306" cy="715" r="2.0" fill="#86efac" opacity="0.19" />
<circle cx="1325" cy="896" r="3.1" fill="#86efac" opacity="0.50" />
<circle cx="1268" cy="353" r="1.8" fill="#86efac" opacity="0.31" />
<circle cx="1287" cy="534" r="2.9" fill="#86efac" opacity="0.62" />
<circle cx="1230" cy="539" r="2.4" fill="#86efac" opacity="0.43" />
<circle cx="1249" cy="720" r="1.1" fill="#86efac" opacity="0.24" />
<circle cx="1192" cy="177" r="2.2" fill="#86efac" opacity="0.55" />
<circle cx="1211" cy="358" r="0.9" fill="#86efac" opacity="0.36" /></g>
  <circle cx="478" cy="309" r="230" fill="#fdba74" opacity="0.08"/>
  <circle cx="1160" cy="638" r="275" fill="#86efac" opacity="0.08"/>
  <g filter="url(#softGlow)">
    
      <path d="M660 225 C500 405 500 610 660 770" fill="none" stroke="#86efac" stroke-width="23" stroke-linecap="round" opacity="0.78"/>
      <path d="M660 225 C760 410 760 585 660 770" fill="none" stroke="#fdba74" stroke-width="7" opacity="0.74"/>
      <line x1="658" y1="225" x2="658" y2="770" stroke="#fff7ed" stroke-width="4" opacity="0.68"/>
      <line x1="700" y1="505" x2="1045" y2="505" stroke="#86efac" stroke-width="13" stroke-linecap="round" opacity="0.82"/>
      <path d="M1045 505 l-58 -32 l16 32 l-16 32 Z" fill="#86efac" opacity="0.86"/>
    
  </g>
  <g opacity="0.78">
    <rect x="88" y="82" width="1424" height="736" rx="46" fill="none" stroke="#ffffff" stroke-opacity="0.2" stroke-width="2"/>
    <path d="M150 150 C320 82 525 78 720 126" stroke="#fff7ed" stroke-opacity="0.44" stroke-width="7" stroke-linecap="round"/>
    <path d="M1332 710 C1215 775 1005 792 855 752" stroke="#fdba74" stroke-opacity="0.42" stroke-width="8" stroke-linecap="round"/>
  </g>
  <g transform="translate(126 714)">
    <rect width="420" height="86" rx="28" fill="#ffffff" opacity="0.12"/>
    <rect x="1" y="1" width="418" height="84" rx="27" fill="none" stroke="#ffffff" stroke-opacity="0.22"/>
    <text x="36" y="56" font-family="Georgia, 'Noto Serif Devanagari', serif" font-size="40" font-weight="700" fill="#fff7ed">धनुष</text>
    <circle cx="352" cy="43" r="15" fill="#fdba74" opacity="0.9"/>
  </g>
  <rect width="1600" height="900" filter="url(#grain)" opacity="0.34"/>
</svg>
