<svg xmlns="http://www.w3.org/2000/svg" width="1600" height="900" viewBox="0 0 1600 900" role="img" aria-label="ज्ञान योग क्या है? विवेक और बुद्धि से सत्य की खोज, साधन चतुष्टय, श्रवण-मनन-निदिध्यासन और मोक्ष का वेदांतिक मार्ग">
  <defs>
    <radialGradient id="bgGlow" cx="50%" cy="43%" r="75%">
      <stop offset="0%" stop-color="#fcd34d" stop-opacity="0.46"/>
      <stop offset="45%" stop-color="#5b3311" stop-opacity="0.92"/>
      <stop offset="100%" stop-color="#201104"/>
    </radialGradient>
    <linearGradient id="glassPanel" x1="0%" y1="0%" x2="100%" y2="100%">
      <stop offset="0%" stop-color="#ffffff" stop-opacity="0.58"/>
      <stop offset="42%" stop-color="#fcd34d" stop-opacity="0.22"/>
      <stop offset="100%" stop-color="#ffffff" stop-opacity="0.08"/>
    </linearGradient>
    <radialGradient id="glassOrb" cx="34%" cy="24%" r="68%">
      <stop offset="0%" stop-color="#ffffff" stop-opacity="0.94"/>
      <stop offset="34%" stop-color="#fcd34d" stop-opacity="0.62"/>
      <stop offset="100%" stop-color="#5b3311" stop-opacity="0.22"/>
    </radialGradient>
    <linearGradient id="glassMountain" x1="0%" y1="0%" x2="100%" y2="100%">
      <stop offset="0%" stop-color="#ffffff" stop-opacity="0.48"/>
      <stop offset="100%" stop-color="#fcd34d" stop-opacity="0.22"/>
    </linearGradient>
    <filter id="softGlow" x="-30%" y="-30%" width="160%" height="160%">
      <feGaussianBlur stdDeviation="18" result="blur"/>
      <feColorMatrix in="blur" type="matrix" values="1 0 0 0 0  0 1 0 0 0  0 0 1 0 0  0 0 0 0.75 0"/>
      <feMerge>
        <feMergeNode/>
        <feMergeNode in="SourceGraphic"/>
      </feMerge>
    </filter>
    <filter id="grain">
      <feTurbulence type="fractalNoise" baseFrequency="0.82" numOctaves="3" seed="343"/>
      <feColorMatrix type="saturate" values="0"/>
      <feComponentTransfer>
        <feFuncA type="table" tableValues="0 0.075"/>
      </feComponentTransfer>
    </filter>
  </defs>
  <rect width="1600" height="900" fill="url(#bgGlow)"/>
  <g opacity="0.72"><circle cx="283" cy="760" r="1.3" fill="#fb923c" opacity="0.58" />
<circle cx="264" cy="579" r="2.6" fill="#fb923c" opacity="0.27" />
<circle cx="321" cy="398" r="1.5" fill="#fb923c" opacity="0.20" />
<circle cx="302" cy="217" r="2.8" fill="#fb923c" opacity="0.39" />
<circle cx="359" cy="584" r="1.7" fill="#fb923c" opacity="0.32" />
<circle cx="340" cy="403" r="3.0" fill="#fb923c" opacity="0.51" />
<circle cx="397" cy="222" r="1.9" fill="#fb923c" opacity="0.44" />
<circle cx="378" cy="41" r="0.8" fill="#fb923c" opacity="0.63" />
<circle cx="131" cy="212" r="2.9" fill="#fb923c" opacity="0.56" />
<circle cx="112" cy="31" r="1.8" fill="#fb923c" opacity="0.25" />
<circle cx="1192" cy="657" r="1.4" fill="#fb923c" opacity="0.27" />
<circle cx="1211" cy="838" r="2.5" fill="#fb923c" opacity="0.58" />
<circle cx="1230" cy="119" r="1.6" fill="#fb923c" opacity="0.65" />
<circle cx="1249" cy="300" r="2.7" fill="#fb923c" opacity="0.46" />
<circle cx="1268" cy="481" r="1.0" fill="#fb923c" opacity="0.51" />
<circle cx="1287" cy="662" r="2.1" fill="#fb923c" opacity="0.32" />
<circle cx="1306" cy="843" r="1.2" fill="#fb923c" opacity="0.39" />
<circle cx="1325" cy="124" r="2.3" fill="#fb923c" opacity="0.20" />
<circle cx="1040" cy="305" r="3.0" fill="#fb923c" opacity="0.25" />
<circle cx="1059" cy="486" r="1.7" fill="#fb923c" opacity="0.56" />
<circle cx="1443" cy="358" r="2.1" fill="#fb923c" opacity="0.64" />
<circle cx="1424" cy="177" r="1.0" fill="#fb923c" opacity="0.33" />
<circle cx="1481" cy="720" r="2.3" fill="#fb923c" opacity="0.52" />
<circle cx="1462" cy="539" r="1.2" fill="#fb923c" opacity="0.21" />
<circle cx="1519" cy="534" r="2.5" fill="#fb923c" opacity="0.38" />
<circle cx="1500" cy="353" r="1.4" fill="#fb923c" opacity="0.57" />
<circle cx="1557" cy="896" r="2.7" fill="#fb923c" opacity="0.26" />
<circle cx="1538" cy="715" r="1.6" fill="#fb923c" opacity="0.45" />
<circle cx="1595" cy="710" r="2.9" fill="#fb923c" opacity="0.66" />
<circle cx="1576" cy="529" r="1.8" fill="#fb923c" opacity="0.35" />
<circle cx="1210" cy="799" r="2.8" fill="#fb923c" opacity="0.23" />
<circle cx="1229" cy="80" r="1.5" fill="#fb923c" opacity="0.54" />
<circle cx="1172" cy="437" r="2.6" fill="#fb923c" opacity="0.35" />
<circle cx="1191" cy="618" r="1.3" fill="#fb923c" opacity="0.66" />
<circle cx="1134" cy="623" r="0.8" fill="#fb923c" opacity="0.47" />
<circle cx="1153" cy="804" r="1.9" fill="#fb923c" opacity="0.28" />
<circle cx="1096" cy="261" r="3.0" fill="#fb923c" opacity="0.59" />
<circle cx="1115" cy="442" r="1.7" fill="#fb923c" opacity="0.40" />
<circle cx="1058" cy="251" r="1.2" fill="#fb923c" opacity="0.25" />
<circle cx="1077" cy="432" r="2.3" fill="#fb923c" opacity="0.56" />
<circle cx="1461" cy="176" r="1.1" fill="#fb923c" opacity="0.22" />
<circle cx="1442" cy="895" r="2.4" fill="#fb923c" opacity="0.41" />
<circle cx="1423" cy="714" r="0.9" fill="#fb923c" opacity="0.34" />
<circle cx="1404" cy="533" r="2.2" fill="#fb923c" opacity="0.53" />
<circle cx="1385" cy="352" r="3.1" fill="#fb923c" opacity="0.46" />
<circle cx="1366" cy="171" r="2.0" fill="#fb923c" opacity="0.65" />
<circle cx="1347" cy="890" r="2.9" fill="#fb923c" opacity="0.58" />
<circle cx="1328" cy="709" r="1.8" fill="#fb923c" opacity="0.27" />
<circle cx="717" cy="528" r="1.9" fill="#fb923c" opacity="0.20" />
<circle cx="698" cy="347" r="0.8" fill="#fb923c" opacity="0.39" />
<circle cx="1452" cy="385" r="1.8" fill="#fb923c" opacity="0.55" />
<circle cx="1471" cy="566" r="2.9" fill="#fb923c" opacity="0.36" />
<circle cx="1490" cy="747" r="2.0" fill="#fb923c" opacity="0.43" />
<circle cx="1509" cy="28" r="3.1" fill="#fb923c" opacity="0.24" />
<circle cx="1376" cy="561" r="2.2" fill="#fb923c" opacity="0.31" />
<circle cx="1395" cy="742" r="0.9" fill="#fb923c" opacity="0.62" />
<circle cx="1414" cy="23" r="2.4" fill="#fb923c" opacity="0.19" />
<circle cx="1433" cy="204" r="1.1" fill="#fb923c" opacity="0.50" />
<circle cx="708" cy="737" r="1.0" fill="#fb923c" opacity="0.57" />
<circle cx="727" cy="18" r="2.1" fill="#fb923c" opacity="0.38" />
<circle cx="1415" cy="594" r="2.5" fill="#fb923c" opacity="0.54" />
<circle cx="1396" cy="413" r="1.4" fill="#fb923c" opacity="0.23" />
<circle cx="1453" cy="56" r="2.7" fill="#fb923c" opacity="0.42" />
<circle cx="1434" cy="775" r="1.6" fill="#fb923c" opacity="0.61" />
<circle cx="1339" cy="418" r="2.1" fill="#fb923c" opacity="0.30" />
<circle cx="1320" cy="237" r="1.0" fill="#fb923c" opacity="0.49" />
<circle cx="1377" cy="780" r="2.3" fill="#fb923c" opacity="0.18" />
<circle cx="1358" cy="599" r="1.2" fill="#fb923c" opacity="0.37" /></g>
  <circle cx="505" cy="298" r="230" fill="#fcd34d" opacity="0.08"/>
  <circle cx="1107" cy="677" r="275" fill="#fb923c" opacity="0.08"/>
  <g filter="url(#softGlow)">
    
      <path d="M520 300 h560 a44 44 0 0 1 44 44 v280 a44 44 0 0 1 -44 44 H520 a44 44 0 0 1 -44 -44 V344 a44 44 0 0 1 44 -44 Z" fill="url(#glassPanel)" opacity="0.72"/>
      <path d="M800 320 v330" stroke="#fff7ed" stroke-width="9" opacity="0.48"/>
      <path d="M555 380 h185" stroke="#fb923c" stroke-width="10" stroke-linecap="round" opacity="0.35" />
<path d="M555 416 h185" stroke="#fb923c" stroke-width="10" stroke-linecap="round" opacity="0.385" />
<path d="M555 452 h185" stroke="#fb923c" stroke-width="10" stroke-linecap="round" opacity="0.42" />
<path d="M555 488 h185" stroke="#fb923c" stroke-width="10" stroke-linecap="round" opacity="0.45499999999999996" />
<path d="M555 524 h185" stroke="#fb923c" stroke-width="10" stroke-linecap="round" opacity="0.49" />
<path d="M555 560 h185" stroke="#fb923c" stroke-width="10" stroke-linecap="round" opacity="0.525" />
<path d="M555 596 h185" stroke="#fb923c" stroke-width="10" stroke-linecap="round" opacity="0.56" />
      <path d="M865 380 h185" stroke="#fcd34d" stroke-width="10" stroke-linecap="round" opacity="0.35" />
<path d="M865 416 h185" stroke="#fcd34d" stroke-width="10" stroke-linecap="round" opacity="0.385" />
<path d="M865 452 h185" stroke="#fcd34d" stroke-width="10" stroke-linecap="round" opacity="0.42" />
<path d="M865 488 h185" stroke="#fcd34d" stroke-width="10" stroke-linecap="round" opacity="0.45499999999999996" />
<path d="M865 524 h185" stroke="#fcd34d" stroke-width="10" stroke-linecap="round" opacity="0.49" />
<path d="M865 560 h185" stroke="#fcd34d" stroke-width="10" stroke-linecap="round" opacity="0.525" />
<path d="M865 596 h185" stroke="#fcd34d" stroke-width="10" stroke-linecap="round" opacity="0.56" />
    
  </g>
  <g opacity="0.78">
    <rect x="88" y="82" width="1424" height="736" rx="46" fill="none" stroke="#ffffff" stroke-opacity="0.2" stroke-width="2"/>
    <path d="M150 150 C320 82 525 78 720 126" stroke="#fff7ed" stroke-opacity="0.44" stroke-width="7" stroke-linecap="round"/>
    <path d="M1332 710 C1215 775 1005 792 855 752" stroke="#fcd34d" stroke-opacity="0.42" stroke-width="8" stroke-linecap="round"/>
  </g>
  <g transform="translate(126 714)">
    <rect width="420" height="86" rx="28" fill="#ffffff" opacity="0.12"/>
    <rect x="1" y="1" width="418" height="84" rx="27" fill="none" stroke="#ffffff" stroke-opacity="0.22"/>
    <text x="36" y="56" font-family="Georgia, 'Noto Serif Devanagari', serif" font-size="40" font-weight="700" fill="#fff7ed">ग्रंथ</text>
    <circle cx="352" cy="43" r="15" fill="#fcd34d" opacity="0.9"/>
  </g>
  <rect width="1600" height="900" filter="url(#grain)" opacity="0.34"/>
</svg>
