<svg xmlns="http://www.w3.org/2000/svg" width="1600" height="900" viewBox="0 0 1600 900" role="img" aria-label="हनुमान जी की अष्टसिद्धि और नौ निधियाँ: अर्थ, पौराणिक कथाएँ और वैज्ञानिक विश्लेषण">
  <defs>
    <radialGradient id="bgGlow" cx="50%" cy="43%" r="75%">
      <stop offset="0%" stop-color="#fdba74" stop-opacity="0.46"/>
      <stop offset="45%" stop-color="#5b2a0a" stop-opacity="0.92"/>
      <stop offset="100%" stop-color="#1f1208"/>
    </radialGradient>
    <linearGradient id="glassPanel" x1="0%" y1="0%" x2="100%" y2="100%">
      <stop offset="0%" stop-color="#ffffff" stop-opacity="0.58"/>
      <stop offset="42%" stop-color="#fdba74" stop-opacity="0.22"/>
      <stop offset="100%" stop-color="#ffffff" stop-opacity="0.08"/>
    </linearGradient>
    <radialGradient id="glassOrb" cx="34%" cy="24%" r="68%">
      <stop offset="0%" stop-color="#ffffff" stop-opacity="0.94"/>
      <stop offset="34%" stop-color="#fdba74" stop-opacity="0.62"/>
      <stop offset="100%" stop-color="#5b2a0a" stop-opacity="0.22"/>
    </radialGradient>
    <linearGradient id="glassMountain" x1="0%" y1="0%" x2="100%" y2="100%">
      <stop offset="0%" stop-color="#ffffff" stop-opacity="0.48"/>
      <stop offset="100%" stop-color="#fdba74" stop-opacity="0.22"/>
    </linearGradient>
    <filter id="softGlow" x="-30%" y="-30%" width="160%" height="160%">
      <feGaussianBlur stdDeviation="18" result="blur"/>
      <feColorMatrix in="blur" type="matrix" values="1 0 0 0 0  0 1 0 0 0  0 0 1 0 0  0 0 0 0.75 0"/>
      <feMerge>
        <feMergeNode/>
        <feMergeNode in="SourceGraphic"/>
      </feMerge>
    </filter>
    <filter id="grain">
      <feTurbulence type="fractalNoise" baseFrequency="0.82" numOctaves="3" seed="436"/>
      <feColorMatrix type="saturate" values="0"/>
      <feComponentTransfer>
        <feFuncA type="table" tableValues="0 0.075"/>
      </feComponentTransfer>
    </filter>
  </defs>
  <rect width="1600" height="900" fill="url(#bgGlow)"/>
  <g opacity="0.72"><circle cx="498" cy="161" r="1.6" fill="#86efac" opacity="0.27" />
<circle cx="517" cy="342" r="2.7" fill="#86efac" opacity="0.58" />
<circle cx="460" cy="523" r="1.4" fill="#86efac" opacity="0.65" />
<circle cx="479" cy="704" r="2.5" fill="#86efac" opacity="0.46" />
<circle cx="422" cy="337" r="1.2" fill="#86efac" opacity="0.53" />
<circle cx="441" cy="518" r="2.3" fill="#86efac" opacity="0.34" />
<circle cx="384" cy="699" r="1.0" fill="#86efac" opacity="0.41" />
<circle cx="403" cy="880" r="2.1" fill="#86efac" opacity="0.22" />
<circle cx="650" cy="513" r="0.8" fill="#86efac" opacity="0.29" />
<circle cx="669" cy="694" r="1.9" fill="#86efac" opacity="0.60" />
<circle cx="1583" cy="862" r="2.5" fill="#86efac" opacity="0.30" />
<circle cx="1564" cy="681" r="1.4" fill="#86efac" opacity="0.49" />
<circle cx="21" cy="324" r="2.7" fill="#86efac" opacity="0.18" />
<circle cx="2" cy="143" r="1.6" fill="#86efac" opacity="0.37" />
<circle cx="1507" cy="686" r="2.1" fill="#86efac" opacity="0.56" />
<circle cx="1488" cy="505" r="1.0" fill="#86efac" opacity="0.25" />
<circle cx="1545" cy="148" r="2.3" fill="#86efac" opacity="0.44" />
<circle cx="1526" cy="867" r="1.2" fill="#86efac" opacity="0.63" />
<circle cx="135" cy="314" r="1.7" fill="#86efac" opacity="0.32" />
<circle cx="116" cy="133" r="3.0" fill="#86efac" opacity="0.51" />
<circle cx="628" cy="653" r="1.8" fill="#86efac" opacity="0.43" />
<circle cx="647" cy="834" r="2.9" fill="#86efac" opacity="0.24" />
<circle cx="666" cy="115" r="2.0" fill="#86efac" opacity="0.31" />
<circle cx="685" cy="296" r="3.1" fill="#86efac" opacity="0.62" />
<circle cx="552" cy="829" r="1.4" fill="#86efac" opacity="0.19" />
<circle cx="571" cy="110" r="2.5" fill="#86efac" opacity="0.50" />
<circle cx="590" cy="291" r="1.6" fill="#86efac" opacity="0.57" />
<circle cx="609" cy="472" r="2.7" fill="#86efac" opacity="0.38" />
<circle cx="476" cy="105" r="1.0" fill="#86efac" opacity="0.41" />
<circle cx="495" cy="286" r="2.1" fill="#86efac" opacity="0.22" />
<circle cx="637" cy="444" r="1.1" fill="#86efac" opacity="0.34" />
<circle cx="618" cy="263" r="2.4" fill="#86efac" opacity="0.53" />
<circle cx="599" cy="82" r="0.9" fill="#86efac" opacity="0.46" />
<circle cx="580" cy="801" r="2.2" fill="#86efac" opacity="0.65" />
<circle cx="561" cy="620" r="3.1" fill="#86efac" opacity="0.58" />
<circle cx="542" cy="439" r="2.0" fill="#86efac" opacity="0.27" />
<circle cx="523" cy="258" r="2.9" fill="#86efac" opacity="0.20" />
<circle cx="504" cy="77" r="1.8" fill="#86efac" opacity="0.39" />
<circle cx="485" cy="796" r="1.9" fill="#86efac" opacity="0.36" />
<circle cx="466" cy="615" r="2.4" fill="#86efac" opacity="0.55" />
<circle cx="1378" cy="167" r="2.8" fill="#86efac" opacity="0.43" />
<circle cx="1397" cy="348" r="1.5" fill="#86efac" opacity="0.24" />
<circle cx="1340" cy="705" r="2.6" fill="#86efac" opacity="0.55" />
<circle cx="1359" cy="886" r="1.3" fill="#86efac" opacity="0.36" />
<circle cx="1302" cy="891" r="0.8" fill="#86efac" opacity="0.67" />
<circle cx="1321" cy="172" r="1.9" fill="#86efac" opacity="0.48" />
<circle cx="1264" cy="529" r="3.0" fill="#86efac" opacity="0.29" />
<circle cx="1283" cy="710" r="1.7" fill="#86efac" opacity="0.60" />
<circle cx="1530" cy="519" r="1.2" fill="#86efac" opacity="0.41" />
<circle cx="1549" cy="700" r="2.3" fill="#86efac" opacity="0.22" />
<circle cx="1387" cy="626" r="2.1" fill="#86efac" opacity="0.52" />
<circle cx="1368" cy="445" r="1.0" fill="#86efac" opacity="0.21" />
<circle cx="1425" cy="88" r="2.3" fill="#86efac" opacity="0.40" />
<circle cx="1406" cy="807" r="1.2" fill="#86efac" opacity="0.59" />
<circle cx="1463" cy="802" r="2.5" fill="#86efac" opacity="0.26" />
<circle cx="1444" cy="621" r="1.4" fill="#86efac" opacity="0.45" />
<circle cx="1501" cy="264" r="2.7" fill="#86efac" opacity="0.64" />
<circle cx="1482" cy="83" r="1.6" fill="#86efac" opacity="0.33" />
<circle cx="1235" cy="78" r="2.9" fill="#86efac" opacity="0.50" />
<circle cx="1216" cy="797" r="1.8" fill="#86efac" opacity="0.19" />
<circle cx="1360" cy="25" r="1.4" fill="#86efac" opacity="0.53" />
<circle cx="1379" cy="206" r="2.5" fill="#86efac" opacity="0.34" />
<circle cx="1398" cy="387" r="1.6" fill="#86efac" opacity="0.41" />
<circle cx="1417" cy="568" r="2.7" fill="#86efac" opacity="0.22" />
<circle cx="1436" cy="749" r="1.0" fill="#86efac" opacity="0.27" />
<circle cx="1455" cy="30" r="2.1" fill="#86efac" opacity="0.58" />
<circle cx="1474" cy="211" r="1.2" fill="#86efac" opacity="0.65" />
<circle cx="1493" cy="392" r="2.3" fill="#86efac" opacity="0.46" /></g>
  <circle cx="440" cy="327" r="230" fill="#fdba74" opacity="0.08"/>
  <circle cx="1178" cy="698" r="275" fill="#86efac" opacity="0.08"/>
  <g filter="url(#softGlow)">
    
      <path d="M660 225 C500 405 500 610 660 770" fill="none" stroke="#86efac" stroke-width="23" stroke-linecap="round" opacity="0.78"/>
      <path d="M660 225 C760 410 760 585 660 770" fill="none" stroke="#fdba74" stroke-width="7" opacity="0.74"/>
      <line x1="658" y1="225" x2="658" y2="770" stroke="#fff7ed" stroke-width="4" opacity="0.68"/>
      <line x1="700" y1="505" x2="1045" y2="505" stroke="#86efac" stroke-width="13" stroke-linecap="round" opacity="0.82"/>
      <path d="M1045 505 l-58 -32 l16 32 l-16 32 Z" fill="#86efac" opacity="0.86"/>
    
  </g>
  <g opacity="0.78">
    <rect x="88" y="82" width="1424" height="736" rx="46" fill="none" stroke="#ffffff" stroke-opacity="0.2" stroke-width="2"/>
    <path d="M150 150 C320 82 525 78 720 126" stroke="#fff7ed" stroke-opacity="0.44" stroke-width="7" stroke-linecap="round"/>
    <path d="M1332 710 C1215 775 1005 792 855 752" stroke="#fdba74" stroke-opacity="0.42" stroke-width="8" stroke-linecap="round"/>
  </g>
  <g transform="translate(126 714)">
    <rect width="420" height="86" rx="28" fill="#ffffff" opacity="0.12"/>
    <rect x="1" y="1" width="418" height="84" rx="27" fill="none" stroke="#ffffff" stroke-opacity="0.22"/>
    <text x="36" y="56" font-family="Georgia, 'Noto Serif Devanagari', serif" font-size="40" font-weight="700" fill="#fff7ed">धनुष</text>
    <circle cx="352" cy="43" r="15" fill="#fdba74" opacity="0.9"/>
  </g>
  <rect width="1600" height="900" filter="url(#grain)" opacity="0.34"/>
</svg>
