<svg xmlns="http://www.w3.org/2000/svg" width="1600" height="900" viewBox="0 0 1600 900" role="img" aria-label="हिंदू धर्म में प्रमुख त्योहारों का वैज्ञानिक और आध्यात्मिक महत्व">
  <defs>
    <radialGradient id="bgGlow" cx="50%" cy="43%" r="75%">
      <stop offset="0%" stop-color="#c4b5fd" stop-opacity="0.46"/>
      <stop offset="45%" stop-color="#3a2267" stop-opacity="0.92"/>
      <stop offset="100%" stop-color="#130b2a"/>
    </radialGradient>
    <linearGradient id="glassPanel" x1="0%" y1="0%" x2="100%" y2="100%">
      <stop offset="0%" stop-color="#ffffff" stop-opacity="0.58"/>
      <stop offset="42%" stop-color="#c4b5fd" stop-opacity="0.22"/>
      <stop offset="100%" stop-color="#ffffff" stop-opacity="0.08"/>
    </linearGradient>
    <radialGradient id="glassOrb" cx="34%" cy="24%" r="68%">
      <stop offset="0%" stop-color="#ffffff" stop-opacity="0.94"/>
      <stop offset="34%" stop-color="#c4b5fd" stop-opacity="0.62"/>
      <stop offset="100%" stop-color="#3a2267" stop-opacity="0.22"/>
    </radialGradient>
    <linearGradient id="glassMountain" x1="0%" y1="0%" x2="100%" y2="100%">
      <stop offset="0%" stop-color="#ffffff" stop-opacity="0.48"/>
      <stop offset="100%" stop-color="#c4b5fd" stop-opacity="0.22"/>
    </linearGradient>
    <filter id="softGlow" x="-30%" y="-30%" width="160%" height="160%">
      <feGaussianBlur stdDeviation="18" result="blur"/>
      <feColorMatrix in="blur" type="matrix" values="1 0 0 0 0  0 1 0 0 0  0 0 1 0 0  0 0 0 0.75 0"/>
      <feMerge>
        <feMergeNode/>
        <feMergeNode in="SourceGraphic"/>
      </feMerge>
    </filter>
    <filter id="grain">
      <feTurbulence type="fractalNoise" baseFrequency="0.82" numOctaves="3" seed="711"/>
      <feColorMatrix type="saturate" values="0"/>
      <feComponentTransfer>
        <feFuncA type="table" tableValues="0 0.075"/>
      </feComponentTransfer>
    </filter>
  </defs>
  <rect width="1600" height="900" fill="url(#bgGlow)"/>
  <g opacity="0.72"><circle cx="1145" cy="282" r="1.5" fill="#fcd34d" opacity="0.46" />
<circle cx="1126" cy="101" r="2.8" fill="#fcd34d" opacity="0.65" />
<circle cx="1107" cy="644" r="1.3" fill="#fcd34d" opacity="0.34" />
<circle cx="1088" cy="463" r="2.6" fill="#fcd34d" opacity="0.53" />
<circle cx="1221" cy="106" r="1.9" fill="#fcd34d" opacity="0.20" />
<circle cx="1202" cy="825" r="0.8" fill="#fcd34d" opacity="0.39" />
<circle cx="1183" cy="468" r="1.7" fill="#fcd34d" opacity="0.58" />
<circle cx="1164" cy="287" r="3.0" fill="#fcd34d" opacity="0.27" />
<circle cx="1297" cy="634" r="3.1" fill="#fcd34d" opacity="0.44" />
<circle cx="1278" cy="453" r="2.0" fill="#fcd34d" opacity="0.63" />
<circle cx="1570" cy="687" r="2.8" fill="#fcd34d" opacity="0.57" />
<circle cx="1589" cy="868" r="1.5" fill="#fcd34d" opacity="0.38" />
<circle cx="1532" cy="325" r="2.6" fill="#fcd34d" opacity="0.19" />
<circle cx="1551" cy="506" r="1.3" fill="#fcd34d" opacity="0.50" />
<circle cx="1494" cy="511" r="0.8" fill="#fcd34d" opacity="0.31" />
<circle cx="1513" cy="692" r="1.9" fill="#fcd34d" opacity="0.62" />
<circle cx="1456" cy="149" r="3.0" fill="#fcd34d" opacity="0.43" />
<circle cx="1475" cy="330" r="1.7" fill="#fcd34d" opacity="0.24" />
<circle cx="122" cy="139" r="2.8" fill="#fcd34d" opacity="0.59" />
<circle cx="141" cy="320" r="1.5" fill="#fcd34d" opacity="0.40" />
<circle cx="1561" cy="336" r="3.1" fill="#fcd34d" opacity="0.66" />
<circle cx="1542" cy="155" r="2.0" fill="#fcd34d" opacity="0.35" />
<circle cx="1523" cy="874" r="2.9" fill="#fcd34d" opacity="0.28" />
<circle cx="1504" cy="693" r="1.8" fill="#fcd34d" opacity="0.47" />
<circle cx="37" cy="160" r="1.1" fill="#fcd34d" opacity="0.42" />
<circle cx="18" cy="879" r="2.4" fill="#fcd34d" opacity="0.61" />
<circle cx="1599" cy="698" r="0.9" fill="#fcd34d" opacity="0.54" />
<circle cx="1580" cy="517" r="2.2" fill="#fcd34d" opacity="0.23" />
<circle cx="113" cy="884" r="2.3" fill="#fcd34d" opacity="0.64" />
<circle cx="94" cy="703" r="1.2" fill="#fcd34d" opacity="0.33" />
<circle cx="1552" cy="545" r="1.4" fill="#fcd34d" opacity="0.25" />
<circle cx="1571" cy="726" r="2.5" fill="#fcd34d" opacity="0.56" />
<circle cx="1590" cy="7" r="1.6" fill="#fcd34d" opacity="0.63" />
<circle cx="9" cy="188" r="2.7" fill="#fcd34d" opacity="0.44" />
<circle cx="28" cy="369" r="1.0" fill="#fcd34d" opacity="0.49" />
<circle cx="47" cy="550" r="2.1" fill="#fcd34d" opacity="0.30" />
<circle cx="66" cy="731" r="1.2" fill="#fcd34d" opacity="0.37" />
<circle cx="85" cy="12" r="2.3" fill="#fcd34d" opacity="0.18" />
<circle cx="104" cy="193" r="3.0" fill="#fcd34d" opacity="0.23" />
<circle cx="123" cy="374" r="1.7" fill="#fcd34d" opacity="0.54" />
<circle cx="175" cy="482" r="1.7" fill="#fcd34d" opacity="0.52" />
<circle cx="156" cy="301" r="3.0" fill="#fcd34d" opacity="0.21" />
<circle cx="213" cy="844" r="1.9" fill="#fcd34d" opacity="0.40" />
<circle cx="194" cy="663" r="0.8" fill="#fcd34d" opacity="0.59" />
<circle cx="99" cy="306" r="1.3" fill="#fcd34d" opacity="0.28" />
<circle cx="80" cy="125" r="2.6" fill="#fcd34d" opacity="0.47" />
<circle cx="137" cy="668" r="1.5" fill="#fcd34d" opacity="0.66" />
<circle cx="118" cy="487" r="2.8" fill="#fcd34d" opacity="0.35" />
<circle cx="327" cy="834" r="0.9" fill="#fcd34d" opacity="0.50" />
<circle cx="308" cy="653" r="2.2" fill="#fcd34d" opacity="0.19" />
<circle cx="230" cy="691" r="0.8" fill="#fcd34d" opacity="0.61" />
<circle cx="249" cy="872" r="1.9" fill="#fcd34d" opacity="0.42" />
<circle cx="192" cy="329" r="3.0" fill="#fcd34d" opacity="0.23" />
<circle cx="211" cy="510" r="1.7" fill="#fcd34d" opacity="0.54" />
<circle cx="306" cy="867" r="2.8" fill="#fcd34d" opacity="0.37" />
<circle cx="325" cy="148" r="1.5" fill="#fcd34d" opacity="0.18" />
<circle cx="268" cy="505" r="2.6" fill="#fcd34d" opacity="0.49" />
<circle cx="287" cy="686" r="1.3" fill="#fcd34d" opacity="0.30" />
<circle cx="382" cy="339" r="2.4" fill="#fcd34d" opacity="0.59" />
<circle cx="401" cy="520" r="1.1" fill="#fcd34d" opacity="0.40" />
<circle cx="829" cy="64" r="2.7" fill="#fcd34d" opacity="0.56" />
<circle cx="810" cy="783" r="1.6" fill="#fcd34d" opacity="0.25" />
<circle cx="791" cy="602" r="0.9" fill="#fcd34d" opacity="0.18" />
<circle cx="772" cy="421" r="2.2" fill="#fcd34d" opacity="0.37" />
<circle cx="753" cy="240" r="3.1" fill="#fcd34d" opacity="0.30" />
<circle cx="734" cy="59" r="2.0" fill="#fcd34d" opacity="0.49" />
<circle cx="715" cy="778" r="2.9" fill="#fcd34d" opacity="0.42" />
<circle cx="696" cy="597" r="1.8" fill="#fcd34d" opacity="0.61" /></g>
  <circle cx="459" cy="308" r="230" fill="#c4b5fd" opacity="0.08"/>
  <circle cx="1157" cy="649" r="275" fill="#fcd34d" opacity="0.08"/>
  <g filter="url(#softGlow)">
    
    <ellipse cx="800" cy="285" rx="16" ry="90" fill="#c4b5fd" opacity="0.22" transform="rotate(0 800 460)" />
<ellipse cx="800" cy="285" rx="16" ry="90" fill="#c4b5fd" opacity="0.22" transform="rotate(11.25 800 460)" />
<ellipse cx="800" cy="285" rx="16" ry="90" fill="#c4b5fd" opacity="0.22" transform="rotate(22.5 800 460)" />
<ellipse cx="800" cy="285" rx="16" ry="90" fill="#c4b5fd" opacity="0.22" transform="rotate(33.75 800 460)" />
<ellipse cx="800" cy="285" rx="16" ry="90" fill="#c4b5fd" opacity="0.22" transform="rotate(45 800 460)" />
<ellipse cx="800" cy="285" rx="16" ry="90" fill="#c4b5fd" opacity="0.22" transform="rotate(56.25 800 460)" />
<ellipse cx="800" cy="285" rx="16" ry="90" fill="#c4b5fd" opacity="0.22" transform="rotate(67.5 800 460)" />
<ellipse cx="800" cy="285" rx="16" ry="90" fill="#c4b5fd" opacity="0.22" transform="rotate(78.75 800 460)" />
<ellipse cx="800" cy="285" rx="16" ry="90" fill="#c4b5fd" opacity="0.22" transform="rotate(90 800 460)" />
<ellipse cx="800" cy="285" rx="16" ry="90" fill="#c4b5fd" opacity="0.22" transform="rotate(101.25 800 460)" />
<ellipse cx="800" cy="285" rx="16" ry="90" fill="#c4b5fd" opacity="0.22" transform="rotate(112.5 800 460)" />
<ellipse cx="800" cy="285" rx="16" ry="90" fill="#c4b5fd" opacity="0.22" transform="rotate(123.75 800 460)" />
<ellipse cx="800" cy="285" rx="16" ry="90" fill="#c4b5fd" opacity="0.22" transform="rotate(135 800 460)" />
<ellipse cx="800" cy="285" rx="16" ry="90" fill="#c4b5fd" opacity="0.22" transform="rotate(146.25 800 460)" />
<ellipse cx="800" cy="285" rx="16" ry="90" fill="#c4b5fd" opacity="0.22" transform="rotate(157.5 800 460)" />
<ellipse cx="800" cy="285" rx="16" ry="90" fill="#c4b5fd" opacity="0.22" transform="rotate(168.75 800 460)" />
<ellipse cx="800" cy="285" rx="16" ry="90" fill="#c4b5fd" opacity="0.22" transform="rotate(180 800 460)" />
<ellipse cx="800" cy="285" rx="16" ry="90" fill="#c4b5fd" opacity="0.22" transform="rotate(191.25 800 460)" />
<ellipse cx="800" cy="285" rx="16" ry="90" fill="#c4b5fd" opacity="0.22" transform="rotate(202.5 800 460)" />
<ellipse cx="800" cy="285" rx="16" ry="90" fill="#c4b5fd" opacity="0.22" transform="rotate(213.75 800 460)" />
<ellipse cx="800" cy="285" rx="16" ry="90" fill="#c4b5fd" opacity="0.22" transform="rotate(225 800 460)" />
<ellipse cx="800" cy="285" rx="16" ry="90" fill="#c4b5fd" opacity="0.22" transform="rotate(236.25 800 460)" />
<ellipse cx="800" cy="285" rx="16" ry="90" fill="#c4b5fd" opacity="0.22" transform="rotate(247.5 800 460)" />
<ellipse cx="800" cy="285" rx="16" ry="90" fill="#c4b5fd" opacity="0.22" transform="rotate(258.75 800 460)" />
<ellipse cx="800" cy="285" rx="16" ry="90" fill="#c4b5fd" opacity="0.22" transform="rotate(270 800 460)" />
<ellipse cx="800" cy="285" rx="16" ry="90" fill="#c4b5fd" opacity="0.22" transform="rotate(281.25 800 460)" />
<ellipse cx="800" cy="285" rx="16" ry="90" fill="#c4b5fd" opacity="0.22" transform="rotate(292.5 800 460)" />
<ellipse cx="800" cy="285" rx="16" ry="90" fill="#c4b5fd" opacity="0.22" transform="rotate(303.75 800 460)" />
<ellipse cx="800" cy="285" rx="16" ry="90" fill="#c4b5fd" opacity="0.22" transform="rotate(315 800 460)" />
<ellipse cx="800" cy="285" rx="16" ry="90" fill="#c4b5fd" opacity="0.22" transform="rotate(326.25 800 460)" />
<ellipse cx="800" cy="285" rx="16" ry="90" fill="#c4b5fd" opacity="0.22" transform="rotate(337.5 800 460)" />
<ellipse cx="800" cy="285" rx="16" ry="90" fill="#c4b5fd" opacity="0.22" transform="rotate(348.75 800 460)" />
    <ellipse cx="800" cy="348" rx="20" ry="72" fill="#fcd34d" opacity="0.32" transform="rotate(0 800 460)" />
<ellipse cx="800" cy="348" rx="20" ry="72" fill="#fcd34d" opacity="0.32" transform="rotate(20 800 460)" />
<ellipse cx="800" cy="348" rx="20" ry="72" fill="#fcd34d" opacity="0.32" transform="rotate(40 800 460)" />
<ellipse cx="800" cy="348" rx="20" ry="72" fill="#fcd34d" opacity="0.32" transform="rotate(60 800 460)" />
<ellipse cx="800" cy="348" rx="20" ry="72" fill="#fcd34d" opacity="0.32" transform="rotate(80 800 460)" />
<ellipse cx="800" cy="348" rx="20" ry="72" fill="#fcd34d" opacity="0.32" transform="rotate(100 800 460)" />
<ellipse cx="800" cy="348" rx="20" ry="72" fill="#fcd34d" opacity="0.32" transform="rotate(120 800 460)" />
<ellipse cx="800" cy="348" rx="20" ry="72" fill="#fcd34d" opacity="0.32" transform="rotate(140 800 460)" />
<ellipse cx="800" cy="348" rx="20" ry="72" fill="#fcd34d" opacity="0.32" transform="rotate(160 800 460)" />
<ellipse cx="800" cy="348" rx="20" ry="72" fill="#fcd34d" opacity="0.32" transform="rotate(180 800 460)" />
<ellipse cx="800" cy="348" rx="20" ry="72" fill="#fcd34d" opacity="0.32" transform="rotate(200 800 460)" />
<ellipse cx="800" cy="348" rx="20" ry="72" fill="#fcd34d" opacity="0.32" transform="rotate(220 800 460)" />
<ellipse cx="800" cy="348" rx="20" ry="72" fill="#fcd34d" opacity="0.32" transform="rotate(240 800 460)" />
<ellipse cx="800" cy="348" rx="20" ry="72" fill="#fcd34d" opacity="0.32" transform="rotate(260 800 460)" />
<ellipse cx="800" cy="348" rx="20" ry="72" fill="#fcd34d" opacity="0.32" transform="rotate(280 800 460)" />
<ellipse cx="800" cy="348" rx="20" ry="72" fill="#fcd34d" opacity="0.32" transform="rotate(300 800 460)" />
<ellipse cx="800" cy="348" rx="20" ry="72" fill="#fcd34d" opacity="0.32" transform="rotate(320 800 460)" />
<ellipse cx="800" cy="348" rx="20" ry="72" fill="#fcd34d" opacity="0.32" transform="rotate(340 800 460)" />
    <circle cx="800" cy="460" r="140" fill="url(#glassOrb)" opacity="0.78"/>
    <text x="800" y="525" text-anchor="middle" font-family="Georgia, 'Noto Serif Devanagari', serif" font-size="210" font-weight="700" fill="#fff7ed" opacity="0.9">ॐ</text>
  
  </g>
  <g opacity="0.78">
    <rect x="88" y="82" width="1424" height="736" rx="46" fill="none" stroke="#ffffff" stroke-opacity="0.2" stroke-width="2"/>
    <path d="M150 150 C320 82 525 78 720 126" stroke="#fff7ed" stroke-opacity="0.44" stroke-width="7" stroke-linecap="round"/>
    <path d="M1332 710 C1215 775 1005 792 855 752" stroke="#c4b5fd" stroke-opacity="0.42" stroke-width="8" stroke-linecap="round"/>
  </g>
  <g transform="translate(126 714)">
    <rect width="420" height="86" rx="28" fill="#ffffff" opacity="0.12"/>
    <rect x="1" y="1" width="418" height="84" rx="27" fill="none" stroke="#ffffff" stroke-opacity="0.22"/>
    <text x="36" y="56" font-family="Georgia, 'Noto Serif Devanagari', serif" font-size="40" font-weight="700" fill="#fff7ed">ॐ</text>
    <circle cx="352" cy="43" r="15" fill="#c4b5fd" opacity="0.9"/>
  </g>
  <rect width="1600" height="900" filter="url(#grain)" opacity="0.34"/>
</svg>
