<svg xmlns="http://www.w3.org/2000/svg" width="1600" height="900" viewBox="0 0 1600 900" role="img" aria-label="हिंदू जीवन शैली और पर्यावरण संरक्षण: प्रकृति को पूजने का विज्ञान">
  <defs>
    <radialGradient id="bgGlow" cx="50%" cy="43%" r="75%">
      <stop offset="0%" stop-color="#c4b5fd" stop-opacity="0.46"/>
      <stop offset="45%" stop-color="#3a2267" stop-opacity="0.92"/>
      <stop offset="100%" stop-color="#130b2a"/>
    </radialGradient>
    <linearGradient id="glassPanel" x1="0%" y1="0%" x2="100%" y2="100%">
      <stop offset="0%" stop-color="#ffffff" stop-opacity="0.58"/>
      <stop offset="42%" stop-color="#c4b5fd" stop-opacity="0.22"/>
      <stop offset="100%" stop-color="#ffffff" stop-opacity="0.08"/>
    </linearGradient>
    <radialGradient id="glassOrb" cx="34%" cy="24%" r="68%">
      <stop offset="0%" stop-color="#ffffff" stop-opacity="0.94"/>
      <stop offset="34%" stop-color="#c4b5fd" stop-opacity="0.62"/>
      <stop offset="100%" stop-color="#3a2267" stop-opacity="0.22"/>
    </radialGradient>
    <linearGradient id="glassMountain" x1="0%" y1="0%" x2="100%" y2="100%">
      <stop offset="0%" stop-color="#ffffff" stop-opacity="0.48"/>
      <stop offset="100%" stop-color="#c4b5fd" stop-opacity="0.22"/>
    </linearGradient>
    <filter id="softGlow" x="-30%" y="-30%" width="160%" height="160%">
      <feGaussianBlur stdDeviation="18" result="blur"/>
      <feColorMatrix in="blur" type="matrix" values="1 0 0 0 0  0 1 0 0 0  0 0 1 0 0  0 0 0 0.75 0"/>
      <feMerge>
        <feMergeNode/>
        <feMergeNode in="SourceGraphic"/>
      </feMerge>
    </filter>
    <filter id="grain">
      <feTurbulence type="fractalNoise" baseFrequency="0.82" numOctaves="3" seed="459"/>
      <feColorMatrix type="saturate" values="0"/>
      <feComponentTransfer>
        <feFuncA type="table" tableValues="0 0.075"/>
      </feComponentTransfer>
    </filter>
  </defs>
  <rect width="1600" height="900" fill="url(#bgGlow)"/>
  <g opacity="0.72"><circle cx="662" cy="333" r="2.0" fill="#fcd34d" opacity="0.41" />
<circle cx="681" cy="514" r="3.1" fill="#fcd34d" opacity="0.22" />
<circle cx="624" cy="695" r="1.8" fill="#fcd34d" opacity="0.29" />
<circle cx="643" cy="876" r="2.9" fill="#fcd34d" opacity="0.60" />
<circle cx="738" cy="157" r="2.4" fill="#fcd34d" opacity="0.65" />
<circle cx="757" cy="338" r="1.1" fill="#fcd34d" opacity="0.46" />
<circle cx="700" cy="519" r="2.2" fill="#fcd34d" opacity="0.53" />
<circle cx="719" cy="700" r="0.9" fill="#fcd34d" opacity="0.34" />
<circle cx="814" cy="881" r="2.8" fill="#fcd34d" opacity="0.43" />
<circle cx="833" cy="162" r="1.5" fill="#fcd34d" opacity="0.24" />
<circle cx="219" cy="82" r="2.1" fill="#fcd34d" opacity="0.66" />
<circle cx="200" cy="801" r="1.0" fill="#fcd34d" opacity="0.35" />
<circle cx="257" cy="444" r="2.3" fill="#fcd34d" opacity="0.54" />
<circle cx="238" cy="263" r="1.2" fill="#fcd34d" opacity="0.23" />
<circle cx="295" cy="258" r="2.5" fill="#fcd34d" opacity="0.40" />
<circle cx="276" cy="77" r="1.4" fill="#fcd34d" opacity="0.59" />
<circle cx="333" cy="620" r="2.7" fill="#fcd34d" opacity="0.28" />
<circle cx="314" cy="439" r="1.6" fill="#fcd34d" opacity="0.47" />
<circle cx="67" cy="630" r="1.3" fill="#fcd34d" opacity="0.64" />
<circle cx="48" cy="449" r="2.6" fill="#fcd34d" opacity="0.33" />
<circle cx="256" cy="773" r="1.4" fill="#fcd34d" opacity="0.21" />
<circle cx="275" cy="54" r="2.5" fill="#fcd34d" opacity="0.52" />
<circle cx="294" cy="235" r="1.6" fill="#fcd34d" opacity="0.59" />
<circle cx="313" cy="416" r="2.7" fill="#fcd34d" opacity="0.40" />
<circle cx="332" cy="597" r="1.0" fill="#fcd34d" opacity="0.45" />
<circle cx="351" cy="674" r="2.1" fill="#fcd34d" opacity="0.26" />
<circle cx="370" cy="855" r="1.2" fill="#fcd34d" opacity="0.33" />
<circle cx="389" cy="136" r="2.3" fill="#fcd34d" opacity="0.64" />
<circle cx="408" cy="225" r="2.2" fill="#fcd34d" opacity="0.23" />
<circle cx="427" cy="406" r="0.9" fill="#fcd34d" opacity="0.54" />
<circle cx="201" cy="460" r="2.3" fill="#fcd34d" opacity="0.62" />
<circle cx="182" cy="279" r="1.2" fill="#fcd34d" opacity="0.31" />
<circle cx="163" cy="202" r="2.1" fill="#fcd34d" opacity="0.24" />
<circle cx="144" cy="21" r="1.0" fill="#fcd34d" opacity="0.43" />
<circle cx="277" cy="284" r="2.7" fill="#fcd34d" opacity="0.38" />
<circle cx="258" cy="103" r="1.6" fill="#fcd34d" opacity="0.57" />
<circle cx="239" cy="822" r="2.5" fill="#fcd34d" opacity="0.50" />
<circle cx="220" cy="641" r="1.4" fill="#fcd34d" opacity="0.19" />
<circle cx="353" cy="16" r="3.1" fill="#fcd34d" opacity="0.64" />
<circle cx="334" cy="735" r="2.0" fill="#fcd34d" opacity="0.33" />
<circle cx="470" cy="19" r="2.4" fill="#fcd34d" opacity="0.57" />
<circle cx="489" cy="200" r="1.1" fill="#fcd34d" opacity="0.38" />
<circle cx="432" cy="557" r="2.2" fill="#fcd34d" opacity="0.19" />
<circle cx="451" cy="738" r="0.9" fill="#fcd34d" opacity="0.50" />
<circle cx="546" cy="195" r="2.0" fill="#fcd34d" opacity="0.33" />
<circle cx="565" cy="376" r="3.1" fill="#fcd34d" opacity="0.64" />
<circle cx="508" cy="733" r="1.8" fill="#fcd34d" opacity="0.45" />
<circle cx="527" cy="14" r="2.9" fill="#fcd34d" opacity="0.26" />
<circle cx="622" cy="371" r="0.8" fill="#fcd34d" opacity="0.59" />
<circle cx="641" cy="552" r="1.9" fill="#fcd34d" opacity="0.40" />
<circle cx="479" cy="318" r="1.7" fill="#fcd34d" opacity="0.48" />
<circle cx="460" cy="137" r="3.0" fill="#fcd34d" opacity="0.67" />
<circle cx="517" cy="680" r="1.9" fill="#fcd34d" opacity="0.36" />
<circle cx="498" cy="499" r="0.8" fill="#fcd34d" opacity="0.55" />
<circle cx="403" cy="142" r="1.3" fill="#fcd34d" opacity="0.24" />
<circle cx="384" cy="861" r="2.6" fill="#fcd34d" opacity="0.43" />
<circle cx="441" cy="504" r="1.5" fill="#fcd34d" opacity="0.62" />
<circle cx="422" cy="323" r="2.8" fill="#fcd34d" opacity="0.31" />
<circle cx="631" cy="866" r="2.5" fill="#fcd34d" opacity="0.50" />
<circle cx="612" cy="685" r="1.4" fill="#fcd34d" opacity="0.19" />
<circle cx="228" cy="109" r="1.0" fill="#fcd34d" opacity="0.57" />
<circle cx="247" cy="290" r="2.1" fill="#fcd34d" opacity="0.38" />
<circle cx="266" cy="471" r="1.2" fill="#fcd34d" opacity="0.45" />
<circle cx="285" cy="652" r="2.3" fill="#fcd34d" opacity="0.26" />
<circle cx="152" cy="285" r="1.4" fill="#fcd34d" opacity="0.33" />
<circle cx="171" cy="466" r="2.5" fill="#fcd34d" opacity="0.64" />
<circle cx="190" cy="647" r="1.6" fill="#fcd34d" opacity="0.21" />
<circle cx="209" cy="828" r="2.7" fill="#fcd34d" opacity="0.52" /></g>
  <circle cx="516" cy="323" r="230" fill="#c4b5fd" opacity="0.08"/>
  <circle cx="1174" cy="656" r="275" fill="#fcd34d" opacity="0.08"/>
  <g filter="url(#softGlow)">
    
    <ellipse cx="800" cy="285" rx="16" ry="90" fill="#c4b5fd" opacity="0.22" transform="rotate(0 800 460)" />
<ellipse cx="800" cy="285" rx="16" ry="90" fill="#c4b5fd" opacity="0.22" transform="rotate(11.25 800 460)" />
<ellipse cx="800" cy="285" rx="16" ry="90" fill="#c4b5fd" opacity="0.22" transform="rotate(22.5 800 460)" />
<ellipse cx="800" cy="285" rx="16" ry="90" fill="#c4b5fd" opacity="0.22" transform="rotate(33.75 800 460)" />
<ellipse cx="800" cy="285" rx="16" ry="90" fill="#c4b5fd" opacity="0.22" transform="rotate(45 800 460)" />
<ellipse cx="800" cy="285" rx="16" ry="90" fill="#c4b5fd" opacity="0.22" transform="rotate(56.25 800 460)" />
<ellipse cx="800" cy="285" rx="16" ry="90" fill="#c4b5fd" opacity="0.22" transform="rotate(67.5 800 460)" />
<ellipse cx="800" cy="285" rx="16" ry="90" fill="#c4b5fd" opacity="0.22" transform="rotate(78.75 800 460)" />
<ellipse cx="800" cy="285" rx="16" ry="90" fill="#c4b5fd" opacity="0.22" transform="rotate(90 800 460)" />
<ellipse cx="800" cy="285" rx="16" ry="90" fill="#c4b5fd" opacity="0.22" transform="rotate(101.25 800 460)" />
<ellipse cx="800" cy="285" rx="16" ry="90" fill="#c4b5fd" opacity="0.22" transform="rotate(112.5 800 460)" />
<ellipse cx="800" cy="285" rx="16" ry="90" fill="#c4b5fd" opacity="0.22" transform="rotate(123.75 800 460)" />
<ellipse cx="800" cy="285" rx="16" ry="90" fill="#c4b5fd" opacity="0.22" transform="rotate(135 800 460)" />
<ellipse cx="800" cy="285" rx="16" ry="90" fill="#c4b5fd" opacity="0.22" transform="rotate(146.25 800 460)" />
<ellipse cx="800" cy="285" rx="16" ry="90" fill="#c4b5fd" opacity="0.22" transform="rotate(157.5 800 460)" />
<ellipse cx="800" cy="285" rx="16" ry="90" fill="#c4b5fd" opacity="0.22" transform="rotate(168.75 800 460)" />
<ellipse cx="800" cy="285" rx="16" ry="90" fill="#c4b5fd" opacity="0.22" transform="rotate(180 800 460)" />
<ellipse cx="800" cy="285" rx="16" ry="90" fill="#c4b5fd" opacity="0.22" transform="rotate(191.25 800 460)" />
<ellipse cx="800" cy="285" rx="16" ry="90" fill="#c4b5fd" opacity="0.22" transform="rotate(202.5 800 460)" />
<ellipse cx="800" cy="285" rx="16" ry="90" fill="#c4b5fd" opacity="0.22" transform="rotate(213.75 800 460)" />
<ellipse cx="800" cy="285" rx="16" ry="90" fill="#c4b5fd" opacity="0.22" transform="rotate(225 800 460)" />
<ellipse cx="800" cy="285" rx="16" ry="90" fill="#c4b5fd" opacity="0.22" transform="rotate(236.25 800 460)" />
<ellipse cx="800" cy="285" rx="16" ry="90" fill="#c4b5fd" opacity="0.22" transform="rotate(247.5 800 460)" />
<ellipse cx="800" cy="285" rx="16" ry="90" fill="#c4b5fd" opacity="0.22" transform="rotate(258.75 800 460)" />
<ellipse cx="800" cy="285" rx="16" ry="90" fill="#c4b5fd" opacity="0.22" transform="rotate(270 800 460)" />
<ellipse cx="800" cy="285" rx="16" ry="90" fill="#c4b5fd" opacity="0.22" transform="rotate(281.25 800 460)" />
<ellipse cx="800" cy="285" rx="16" ry="90" fill="#c4b5fd" opacity="0.22" transform="rotate(292.5 800 460)" />
<ellipse cx="800" cy="285" rx="16" ry="90" fill="#c4b5fd" opacity="0.22" transform="rotate(303.75 800 460)" />
<ellipse cx="800" cy="285" rx="16" ry="90" fill="#c4b5fd" opacity="0.22" transform="rotate(315 800 460)" />
<ellipse cx="800" cy="285" rx="16" ry="90" fill="#c4b5fd" opacity="0.22" transform="rotate(326.25 800 460)" />
<ellipse cx="800" cy="285" rx="16" ry="90" fill="#c4b5fd" opacity="0.22" transform="rotate(337.5 800 460)" />
<ellipse cx="800" cy="285" rx="16" ry="90" fill="#c4b5fd" opacity="0.22" transform="rotate(348.75 800 460)" />
    <ellipse cx="800" cy="348" rx="20" ry="72" fill="#fcd34d" opacity="0.32" transform="rotate(0 800 460)" />
<ellipse cx="800" cy="348" rx="20" ry="72" fill="#fcd34d" opacity="0.32" transform="rotate(20 800 460)" />
<ellipse cx="800" cy="348" rx="20" ry="72" fill="#fcd34d" opacity="0.32" transform="rotate(40 800 460)" />
<ellipse cx="800" cy="348" rx="20" ry="72" fill="#fcd34d" opacity="0.32" transform="rotate(60 800 460)" />
<ellipse cx="800" cy="348" rx="20" ry="72" fill="#fcd34d" opacity="0.32" transform="rotate(80 800 460)" />
<ellipse cx="800" cy="348" rx="20" ry="72" fill="#fcd34d" opacity="0.32" transform="rotate(100 800 460)" />
<ellipse cx="800" cy="348" rx="20" ry="72" fill="#fcd34d" opacity="0.32" transform="rotate(120 800 460)" />
<ellipse cx="800" cy="348" rx="20" ry="72" fill="#fcd34d" opacity="0.32" transform="rotate(140 800 460)" />
<ellipse cx="800" cy="348" rx="20" ry="72" fill="#fcd34d" opacity="0.32" transform="rotate(160 800 460)" />
<ellipse cx="800" cy="348" rx="20" ry="72" fill="#fcd34d" opacity="0.32" transform="rotate(180 800 460)" />
<ellipse cx="800" cy="348" rx="20" ry="72" fill="#fcd34d" opacity="0.32" transform="rotate(200 800 460)" />
<ellipse cx="800" cy="348" rx="20" ry="72" fill="#fcd34d" opacity="0.32" transform="rotate(220 800 460)" />
<ellipse cx="800" cy="348" rx="20" ry="72" fill="#fcd34d" opacity="0.32" transform="rotate(240 800 460)" />
<ellipse cx="800" cy="348" rx="20" ry="72" fill="#fcd34d" opacity="0.32" transform="rotate(260 800 460)" />
<ellipse cx="800" cy="348" rx="20" ry="72" fill="#fcd34d" opacity="0.32" transform="rotate(280 800 460)" />
<ellipse cx="800" cy="348" rx="20" ry="72" fill="#fcd34d" opacity="0.32" transform="rotate(300 800 460)" />
<ellipse cx="800" cy="348" rx="20" ry="72" fill="#fcd34d" opacity="0.32" transform="rotate(320 800 460)" />
<ellipse cx="800" cy="348" rx="20" ry="72" fill="#fcd34d" opacity="0.32" transform="rotate(340 800 460)" />
    <circle cx="800" cy="460" r="140" fill="url(#glassOrb)" opacity="0.78"/>
    <text x="800" y="525" text-anchor="middle" font-family="Georgia, 'Noto Serif Devanagari', serif" font-size="210" font-weight="700" fill="#fff7ed" opacity="0.9">ॐ</text>
  
  </g>
  <g opacity="0.78">
    <rect x="88" y="82" width="1424" height="736" rx="46" fill="none" stroke="#ffffff" stroke-opacity="0.2" stroke-width="2"/>
    <path d="M150 150 C320 82 525 78 720 126" stroke="#fff7ed" stroke-opacity="0.44" stroke-width="7" stroke-linecap="round"/>
    <path d="M1332 710 C1215 775 1005 792 855 752" stroke="#c4b5fd" stroke-opacity="0.42" stroke-width="8" stroke-linecap="round"/>
  </g>
  <g transform="translate(126 714)">
    <rect width="420" height="86" rx="28" fill="#ffffff" opacity="0.12"/>
    <rect x="1" y="1" width="418" height="84" rx="27" fill="none" stroke="#ffffff" stroke-opacity="0.22"/>
    <text x="36" y="56" font-family="Georgia, 'Noto Serif Devanagari', serif" font-size="40" font-weight="700" fill="#fff7ed">ॐ</text>
    <circle cx="352" cy="43" r="15" fill="#c4b5fd" opacity="0.9"/>
  </g>
  <rect width="1600" height="900" filter="url(#grain)" opacity="0.34"/>
</svg>
