<svg xmlns="http://www.w3.org/2000/svg" width="1600" height="900" viewBox="0 0 1600 900" role="img" aria-label="जगन्नाथ पुरी: रथ यात्रा और इस भव्य मंदिर के 5 अनसुलझे चमत्कार">
  <defs>
    <radialGradient id="bgGlow" cx="50%" cy="43%" r="75%">
      <stop offset="0%" stop-color="#fb923c" stop-opacity="0.46"/>
      <stop offset="45%" stop-color="#67330f" stop-opacity="0.92"/>
      <stop offset="100%" stop-color="#210b05"/>
    </radialGradient>
    <linearGradient id="glassPanel" x1="0%" y1="0%" x2="100%" y2="100%">
      <stop offset="0%" stop-color="#ffffff" stop-opacity="0.58"/>
      <stop offset="42%" stop-color="#fb923c" stop-opacity="0.22"/>
      <stop offset="100%" stop-color="#ffffff" stop-opacity="0.08"/>
    </linearGradient>
    <radialGradient id="glassOrb" cx="34%" cy="24%" r="68%">
      <stop offset="0%" stop-color="#ffffff" stop-opacity="0.94"/>
      <stop offset="34%" stop-color="#fb923c" stop-opacity="0.62"/>
      <stop offset="100%" stop-color="#67330f" stop-opacity="0.22"/>
    </radialGradient>
    <linearGradient id="glassMountain" x1="0%" y1="0%" x2="100%" y2="100%">
      <stop offset="0%" stop-color="#ffffff" stop-opacity="0.48"/>
      <stop offset="100%" stop-color="#fb923c" stop-opacity="0.22"/>
    </linearGradient>
    <filter id="softGlow" x="-30%" y="-30%" width="160%" height="160%">
      <feGaussianBlur stdDeviation="18" result="blur"/>
      <feColorMatrix in="blur" type="matrix" values="1 0 0 0 0  0 1 0 0 0  0 0 1 0 0  0 0 0 0.75 0"/>
      <feMerge>
        <feMergeNode/>
        <feMergeNode in="SourceGraphic"/>
      </feMerge>
    </filter>
    <filter id="grain">
      <feTurbulence type="fractalNoise" baseFrequency="0.82" numOctaves="3" seed="716"/>
      <feColorMatrix type="saturate" values="0"/>
      <feComponentTransfer>
        <feFuncA type="table" tableValues="0 0.075"/>
      </feComponentTransfer>
    </filter>
  </defs>
  <rect width="1600" height="900" fill="url(#bgGlow)"/>
  <g opacity="0.72"><circle cx="67" cy="352" r="1.3" fill="#fef3c7" opacity="0.24" />
<circle cx="48" cy="171" r="2.6" fill="#fef3c7" opacity="0.43" />
<circle cx="105" cy="890" r="1.5" fill="#fef3c7" opacity="0.36" />
<circle cx="86" cy="709" r="2.8" fill="#fef3c7" opacity="0.55" />
<circle cx="143" cy="176" r="1.7" fill="#fef3c7" opacity="0.48" />
<circle cx="124" cy="895" r="3.0" fill="#fef3c7" opacity="0.67" />
<circle cx="181" cy="714" r="1.9" fill="#fef3c7" opacity="0.60" />
<circle cx="162" cy="533" r="0.8" fill="#fef3c7" opacity="0.29" />
<circle cx="219" cy="0" r="2.1" fill="#fef3c7" opacity="0.26" />
<circle cx="200" cy="719" r="1.0" fill="#fef3c7" opacity="0.45" />
<circle cx="1344" cy="17" r="2.2" fill="#fef3c7" opacity="0.33" />
<circle cx="1363" cy="198" r="0.9" fill="#fef3c7" opacity="0.64" />
<circle cx="1382" cy="379" r="2.4" fill="#fef3c7" opacity="0.21" />
<circle cx="1401" cy="560" r="1.1" fill="#fef3c7" opacity="0.52" />
<circle cx="1420" cy="741" r="1.8" fill="#fef3c7" opacity="0.57" />
<circle cx="1439" cy="22" r="2.9" fill="#fef3c7" opacity="0.38" />
<circle cx="1458" cy="203" r="2.0" fill="#fef3c7" opacity="0.45" />
<circle cx="1477" cy="384" r="3.1" fill="#fef3c7" opacity="0.26" />
<circle cx="1496" cy="369" r="3.0" fill="#fef3c7" opacity="0.35" />
<circle cx="1515" cy="550" r="1.7" fill="#fef3c7" opacity="0.66" />
<circle cx="1307" cy="226" r="2.9" fill="#fef3c7" opacity="0.28" />
<circle cx="1288" cy="45" r="1.8" fill="#fef3c7" opacity="0.47" />
<circle cx="1345" cy="588" r="3.1" fill="#fef3c7" opacity="0.66" />
<circle cx="1326" cy="407" r="2.0" fill="#fef3c7" opacity="0.35" />
<circle cx="1383" cy="402" r="0.9" fill="#fef3c7" opacity="0.52" />
<circle cx="1364" cy="221" r="2.2" fill="#fef3c7" opacity="0.21" />
<circle cx="1421" cy="764" r="1.1" fill="#fef3c7" opacity="0.40" />
<circle cx="1402" cy="583" r="2.4" fill="#fef3c7" opacity="0.59" />
<circle cx="1155" cy="774" r="2.1" fill="#fef3c7" opacity="0.26" />
<circle cx="1136" cy="593" r="1.0" fill="#fef3c7" opacity="0.45" />
<circle cx="1298" cy="435" r="1.2" fill="#fef3c7" opacity="0.37" />
<circle cx="1317" cy="616" r="2.3" fill="#fef3c7" opacity="0.18" />
<circle cx="1260" cy="73" r="1.0" fill="#fef3c7" opacity="0.49" />
<circle cx="1279" cy="254" r="2.1" fill="#fef3c7" opacity="0.30" />
<circle cx="1222" cy="259" r="1.6" fill="#fef3c7" opacity="0.61" />
<circle cx="1241" cy="440" r="2.7" fill="#fef3c7" opacity="0.42" />
<circle cx="1184" cy="797" r="1.4" fill="#fef3c7" opacity="0.23" />
<circle cx="1203" cy="78" r="2.5" fill="#fef3c7" opacity="0.54" />
<circle cx="1450" cy="83" r="2.8" fill="#fef3c7" opacity="0.35" />
<circle cx="1469" cy="264" r="1.5" fill="#fef3c7" opacity="0.66" />
<circle cx="557" cy="712" r="1.9" fill="#fef3c7" opacity="0.28" />
<circle cx="538" cy="531" r="0.8" fill="#fef3c7" opacity="0.47" />
<circle cx="519" cy="350" r="1.7" fill="#fef3c7" opacity="0.40" />
<circle cx="500" cy="169" r="3.0" fill="#fef3c7" opacity="0.59" />
<circle cx="481" cy="888" r="1.5" fill="#fef3c7" opacity="0.52" />
<circle cx="462" cy="707" r="2.8" fill="#fef3c7" opacity="0.21" />
<circle cx="443" cy="526" r="1.3" fill="#fef3c7" opacity="0.64" />
<circle cx="424" cy="345" r="2.6" fill="#fef3c7" opacity="0.33" />
<circle cx="405" cy="360" r="1.1" fill="#fef3c7" opacity="0.30" />
<circle cx="386" cy="179" r="2.4" fill="#fef3c7" opacity="0.49" />
<circle cx="1316" cy="21" r="2.6" fill="#fef3c7" opacity="0.37" />
<circle cx="1335" cy="202" r="1.3" fill="#fef3c7" opacity="0.18" />
<circle cx="1354" cy="383" r="2.8" fill="#fef3c7" opacity="0.25" />
<circle cx="1373" cy="564" r="1.5" fill="#fef3c7" opacity="0.56" />
<circle cx="1240" cy="197" r="3.0" fill="#fef3c7" opacity="0.63" />
<circle cx="1259" cy="378" r="1.7" fill="#fef3c7" opacity="0.44" />
<circle cx="1278" cy="559" r="0.8" fill="#fef3c7" opacity="0.51" />
<circle cx="1297" cy="740" r="1.9" fill="#fef3c7" opacity="0.32" />
<circle cx="1164" cy="569" r="1.0" fill="#fef3c7" opacity="0.35" />
<circle cx="1183" cy="750" r="2.1" fill="#fef3c7" opacity="0.66" />
<circle cx="1567" cy="462" r="0.9" fill="#fef3c7" opacity="0.60" />
<circle cx="1548" cy="281" r="2.2" fill="#fef3c7" opacity="0.29" />
<circle cx="5" cy="824" r="1.1" fill="#fef3c7" opacity="0.48" />
<circle cx="1586" cy="643" r="2.4" fill="#fef3c7" opacity="0.67" />
<circle cx="1491" cy="286" r="2.9" fill="#fef3c7" opacity="0.36" />
<circle cx="1472" cy="105" r="1.8" fill="#fef3c7" opacity="0.55" />
<circle cx="1529" cy="648" r="3.1" fill="#fef3c7" opacity="0.24" />
<circle cx="1510" cy="467" r="2.0" fill="#fef3c7" opacity="0.43" /></g>
  <circle cx="505" cy="258" r="230" fill="#fb923c" opacity="0.08"/>
  <circle cx="1107" cy="647" r="275" fill="#fef3c7" opacity="0.08"/>
  <g filter="url(#softGlow)">
    
      <path d="M450 705 h700 v-48 H450 Z" fill="url(#glassPanel)" opacity="0.72"/>
      <path d="M535 657 v-250 h530 v250 Z" fill="url(#glassPanel)" opacity="0.48"/>
      <path d="M495 407 h610 L800 210 Z" fill="#fef3c7" opacity="0.6"/>
      <path d="M645 657 V500 a155 155 0 0 1 310 0 v157 Z" fill="#210b05" opacity="0.74"/>
      <path d="M800 210 v-88" stroke="#fb923c" stroke-width="9" opacity="0.88"/>
      <path d="M800 126 c48 -26 72 6 115 -15 c-34 60 -78 38 -115 64 Z" fill="#fb923c" opacity="0.82"/>
    
  </g>
  <g opacity="0.78">
    <rect x="88" y="82" width="1424" height="736" rx="46" fill="none" stroke="#ffffff" stroke-opacity="0.2" stroke-width="2"/>
    <path d="M150 150 C320 82 525 78 720 126" stroke="#fff7ed" stroke-opacity="0.44" stroke-width="7" stroke-linecap="round"/>
    <path d="M1332 710 C1215 775 1005 792 855 752" stroke="#fb923c" stroke-opacity="0.42" stroke-width="8" stroke-linecap="round"/>
  </g>
  <g transform="translate(126 714)">
    <rect width="420" height="86" rx="28" fill="#ffffff" opacity="0.12"/>
    <rect x="1" y="1" width="418" height="84" rx="27" fill="none" stroke="#ffffff" stroke-opacity="0.22"/>
    <text x="36" y="56" font-family="Georgia, 'Noto Serif Devanagari', serif" font-size="40" font-weight="700" fill="#fff7ed">मंदिर</text>
    <circle cx="352" cy="43" r="15" fill="#fb923c" opacity="0.9"/>
  </g>
  <rect width="1600" height="900" filter="url(#grain)" opacity="0.34"/>
</svg>
