<svg xmlns="http://www.w3.org/2000/svg" width="1600" height="900" viewBox="0 0 1600 900" role="img" aria-label="जीवात्मा और परमात्मा का संबंध: मुंडक उपनिषद के दो पक्षियों का प्रसिद्ध रूपक और हमारी चेतना के दो स्तर">
  <defs>
    <radialGradient id="bgGlow" cx="50%" cy="43%" r="75%">
      <stop offset="0%" stop-color="#fdba74" stop-opacity="0.46"/>
      <stop offset="45%" stop-color="#5b2a0a" stop-opacity="0.92"/>
      <stop offset="100%" stop-color="#1f1208"/>
    </radialGradient>
    <linearGradient id="glassPanel" x1="0%" y1="0%" x2="100%" y2="100%">
      <stop offset="0%" stop-color="#ffffff" stop-opacity="0.58"/>
      <stop offset="42%" stop-color="#fdba74" stop-opacity="0.22"/>
      <stop offset="100%" stop-color="#ffffff" stop-opacity="0.08"/>
    </linearGradient>
    <radialGradient id="glassOrb" cx="34%" cy="24%" r="68%">
      <stop offset="0%" stop-color="#ffffff" stop-opacity="0.94"/>
      <stop offset="34%" stop-color="#fdba74" stop-opacity="0.62"/>
      <stop offset="100%" stop-color="#5b2a0a" stop-opacity="0.22"/>
    </radialGradient>
    <linearGradient id="glassMountain" x1="0%" y1="0%" x2="100%" y2="100%">
      <stop offset="0%" stop-color="#ffffff" stop-opacity="0.48"/>
      <stop offset="100%" stop-color="#fdba74" stop-opacity="0.22"/>
    </linearGradient>
    <filter id="softGlow" x="-30%" y="-30%" width="160%" height="160%">
      <feGaussianBlur stdDeviation="18" result="blur"/>
      <feColorMatrix in="blur" type="matrix" values="1 0 0 0 0  0 1 0 0 0  0 0 1 0 0  0 0 0 0.75 0"/>
      <feMerge>
        <feMergeNode/>
        <feMergeNode in="SourceGraphic"/>
      </feMerge>
    </filter>
    <filter id="grain">
      <feTurbulence type="fractalNoise" baseFrequency="0.82" numOctaves="3" seed="284"/>
      <feColorMatrix type="saturate" values="0"/>
      <feComponentTransfer>
        <feFuncA type="table" tableValues="0 0.075"/>
      </feComponentTransfer>
    </filter>
  </defs>
  <rect width="1600" height="900" fill="url(#bgGlow)"/>
  <g opacity="0.72"><circle cx="412" cy="603" r="1.4" fill="#86efac" opacity="0.53" />
<circle cx="431" cy="784" r="2.5" fill="#86efac" opacity="0.34" />
<circle cx="450" cy="241" r="1.6" fill="#86efac" opacity="0.65" />
<circle cx="469" cy="422" r="2.7" fill="#86efac" opacity="0.46" />
<circle cx="336" cy="779" r="1.0" fill="#86efac" opacity="0.29" />
<circle cx="355" cy="60" r="2.1" fill="#86efac" opacity="0.60" />
<circle cx="374" cy="417" r="1.2" fill="#86efac" opacity="0.41" />
<circle cx="393" cy="598" r="2.3" fill="#86efac" opacity="0.22" />
<circle cx="564" cy="251" r="2.2" fill="#86efac" opacity="0.51" />
<circle cx="583" cy="432" r="0.9" fill="#86efac" opacity="0.32" />
<circle cx="1549" cy="132" r="2.7" fill="#86efac" opacity="0.62" />
<circle cx="1530" cy="851" r="1.6" fill="#86efac" opacity="0.31" />
<circle cx="1511" cy="670" r="2.5" fill="#86efac" opacity="0.24" />
<circle cx="1492" cy="489" r="1.4" fill="#86efac" opacity="0.43" />
<circle cx="1473" cy="308" r="2.3" fill="#86efac" opacity="0.36" />
<circle cx="1454" cy="127" r="1.2" fill="#86efac" opacity="0.55" />
<circle cx="1435" cy="846" r="2.1" fill="#86efac" opacity="0.48" />
<circle cx="1416" cy="665" r="1.0" fill="#86efac" opacity="0.67" />
<circle cx="1397" cy="680" r="1.9" fill="#86efac" opacity="0.60" />
<circle cx="1378" cy="499" r="0.8" fill="#86efac" opacity="0.29" />
<circle cx="182" cy="587" r="1.6" fill="#86efac" opacity="0.53" />
<circle cx="201" cy="664" r="2.7" fill="#86efac" opacity="0.34" />
<circle cx="144" cy="225" r="1.4" fill="#86efac" opacity="0.65" />
<circle cx="163" cy="406" r="2.5" fill="#86efac" opacity="0.46" />
<circle cx="258" cy="763" r="1.2" fill="#86efac" opacity="0.29" />
<circle cx="277" cy="44" r="2.3" fill="#86efac" opacity="0.60" />
<circle cx="220" cy="401" r="1.0" fill="#86efac" opacity="0.41" />
<circle cx="239" cy="582" r="2.1" fill="#86efac" opacity="0.22" />
<circle cx="334" cy="39" r="2.4" fill="#86efac" opacity="0.51" />
<circle cx="353" cy="220" r="1.1" fill="#86efac" opacity="0.32" />
<circle cx="191" cy="550" r="0.9" fill="#86efac" opacity="0.44" />
<circle cx="172" cy="369" r="2.2" fill="#86efac" opacity="0.63" />
<circle cx="229" cy="12" r="1.1" fill="#86efac" opacity="0.32" />
<circle cx="210" cy="731" r="2.4" fill="#86efac" opacity="0.51" />
<circle cx="115" cy="374" r="2.9" fill="#86efac" opacity="0.20" />
<circle cx="96" cy="193" r="1.8" fill="#86efac" opacity="0.39" />
<circle cx="153" cy="736" r="3.1" fill="#86efac" opacity="0.58" />
<circle cx="134" cy="555" r="2.0" fill="#86efac" opacity="0.27" />
<circle cx="343" cy="198" r="1.7" fill="#86efac" opacity="0.42" />
<circle cx="324" cy="17" r="3.0" fill="#86efac" opacity="0.61" />
<circle cx="1568" cy="105" r="3.0" fill="#86efac" opacity="0.67" />
<circle cx="1587" cy="286" r="1.7" fill="#86efac" opacity="0.48" />
<circle cx="6" cy="467" r="0.8" fill="#86efac" opacity="0.55" />
<circle cx="25" cy="648" r="1.9" fill="#86efac" opacity="0.36" />
<circle cx="44" cy="829" r="2.6" fill="#86efac" opacity="0.41" />
<circle cx="63" cy="110" r="1.3" fill="#86efac" opacity="0.22" />
<circle cx="82" cy="291" r="2.8" fill="#86efac" opacity="0.29" />
<circle cx="101" cy="472" r="1.5" fill="#86efac" opacity="0.60" />
<circle cx="120" cy="457" r="1.4" fill="#86efac" opacity="0.65" />
<circle cx="139" cy="638" r="2.5" fill="#86efac" opacity="0.46" />
<circle cx="1577" cy="796" r="1.5" fill="#86efac" opacity="0.26" />
<circle cx="1558" cy="615" r="2.8" fill="#86efac" opacity="0.45" />
<circle cx="1539" cy="434" r="1.3" fill="#86efac" opacity="0.38" />
<circle cx="1520" cy="253" r="2.6" fill="#86efac" opacity="0.57" />
<circle cx="53" cy="620" r="1.9" fill="#86efac" opacity="0.52" />
<circle cx="34" cy="439" r="0.8" fill="#86efac" opacity="0.21" />
<circle cx="15" cy="258" r="1.7" fill="#86efac" opacity="0.64" />
<circle cx="1596" cy="77" r="3.0" fill="#86efac" opacity="0.33" />
<circle cx="129" cy="248" r="2.3" fill="#86efac" opacity="0.24" />
<circle cx="110" cy="67" r="1.2" fill="#86efac" opacity="0.43" />
<circle cx="1586" cy="755" r="2.0" fill="#86efac" opacity="0.67" />
<circle cx="5" cy="36" r="3.1" fill="#86efac" opacity="0.48" />
<circle cx="1548" cy="393" r="1.8" fill="#86efac" opacity="0.29" />
<circle cx="1567" cy="574" r="2.9" fill="#86efac" opacity="0.60" />
<circle cx="1510" cy="579" r="2.4" fill="#86efac" opacity="0.41" />
<circle cx="1529" cy="760" r="1.1" fill="#86efac" opacity="0.22" />
<circle cx="1472" cy="217" r="2.2" fill="#86efac" opacity="0.53" />
<circle cx="1491" cy="398" r="0.9" fill="#86efac" opacity="0.34" /></g>
  <circle cx="482" cy="253" r="230" fill="#fdba74" opacity="0.08"/>
  <circle cx="1104" cy="702" r="275" fill="#86efac" opacity="0.08"/>
  <g filter="url(#softGlow)">
    
      <path d="M660 225 C500 405 500 610 660 770" fill="none" stroke="#86efac" stroke-width="23" stroke-linecap="round" opacity="0.78"/>
      <path d="M660 225 C760 410 760 585 660 770" fill="none" stroke="#fdba74" stroke-width="7" opacity="0.74"/>
      <line x1="658" y1="225" x2="658" y2="770" stroke="#fff7ed" stroke-width="4" opacity="0.68"/>
      <line x1="700" y1="505" x2="1045" y2="505" stroke="#86efac" stroke-width="13" stroke-linecap="round" opacity="0.82"/>
      <path d="M1045 505 l-58 -32 l16 32 l-16 32 Z" fill="#86efac" opacity="0.86"/>
    
  </g>
  <g opacity="0.78">
    <rect x="88" y="82" width="1424" height="736" rx="46" fill="none" stroke="#ffffff" stroke-opacity="0.2" stroke-width="2"/>
    <path d="M150 150 C320 82 525 78 720 126" stroke="#fff7ed" stroke-opacity="0.44" stroke-width="7" stroke-linecap="round"/>
    <path d="M1332 710 C1215 775 1005 792 855 752" stroke="#fdba74" stroke-opacity="0.42" stroke-width="8" stroke-linecap="round"/>
  </g>
  <g transform="translate(126 714)">
    <rect width="420" height="86" rx="28" fill="#ffffff" opacity="0.12"/>
    <rect x="1" y="1" width="418" height="84" rx="27" fill="none" stroke="#ffffff" stroke-opacity="0.22"/>
    <text x="36" y="56" font-family="Georgia, 'Noto Serif Devanagari', serif" font-size="40" font-weight="700" fill="#fff7ed">धनुष</text>
    <circle cx="352" cy="43" r="15" fill="#fdba74" opacity="0.9"/>
  </g>
  <rect width="1600" height="900" filter="url(#grain)" opacity="0.34"/>
</svg>
