<svg xmlns="http://www.w3.org/2000/svg" width="1600" height="900" viewBox="0 0 1600 900" role="img" aria-label="काल भैरव साधना और महत्व: रहस्य, पौराणिक कथाएँ और भय-संकट मुक्ति के अचूक उपाय">
  <defs>
    <radialGradient id="bgGlow" cx="50%" cy="43%" r="75%">
      <stop offset="0%" stop-color="#6ee7f9" stop-opacity="0.46"/>
      <stop offset="45%" stop-color="#19233f" stop-opacity="0.92"/>
      <stop offset="100%" stop-color="#07111f"/>
    </radialGradient>
    <linearGradient id="glassPanel" x1="0%" y1="0%" x2="100%" y2="100%">
      <stop offset="0%" stop-color="#ffffff" stop-opacity="0.58"/>
      <stop offset="42%" stop-color="#6ee7f9" stop-opacity="0.22"/>
      <stop offset="100%" stop-color="#ffffff" stop-opacity="0.08"/>
    </linearGradient>
    <radialGradient id="glassOrb" cx="34%" cy="24%" r="68%">
      <stop offset="0%" stop-color="#ffffff" stop-opacity="0.94"/>
      <stop offset="34%" stop-color="#6ee7f9" stop-opacity="0.62"/>
      <stop offset="100%" stop-color="#19233f" stop-opacity="0.22"/>
    </radialGradient>
    <linearGradient id="glassMountain" x1="0%" y1="0%" x2="100%" y2="100%">
      <stop offset="0%" stop-color="#ffffff" stop-opacity="0.48"/>
      <stop offset="100%" stop-color="#6ee7f9" stop-opacity="0.22"/>
    </linearGradient>
    <filter id="softGlow" x="-30%" y="-30%" width="160%" height="160%">
      <feGaussianBlur stdDeviation="18" result="blur"/>
      <feColorMatrix in="blur" type="matrix" values="1 0 0 0 0  0 1 0 0 0  0 0 1 0 0  0 0 0 0.75 0"/>
      <feMerge>
        <feMergeNode/>
        <feMergeNode in="SourceGraphic"/>
      </feMerge>
    </filter>
    <filter id="grain">
      <feTurbulence type="fractalNoise" baseFrequency="0.82" numOctaves="3" seed="765"/>
      <feColorMatrix type="saturate" values="0"/>
      <feComponentTransfer>
        <feFuncA type="table" tableValues="0 0.075"/>
      </feComponentTransfer>
    </filter>
  </defs>
  <rect width="1600" height="900" fill="url(#bgGlow)"/>
  <g opacity="0.72"><circle cx="893" cy="118" r="1.1" fill="#c4b5fd" opacity="0.20" />
<circle cx="874" cy="837" r="2.4" fill="#c4b5fd" opacity="0.39" />
<circle cx="855" cy="480" r="0.9" fill="#c4b5fd" opacity="0.58" />
<circle cx="836" cy="299" r="2.2" fill="#c4b5fd" opacity="0.27" />
<circle cx="817" cy="294" r="3.1" fill="#c4b5fd" opacity="0.46" />
<circle cx="798" cy="113" r="2.0" fill="#c4b5fd" opacity="0.65" />
<circle cx="75" cy="656" r="2.9" fill="#c4b5fd" opacity="0.34" />
<circle cx="56" cy="475" r="1.8" fill="#c4b5fd" opacity="0.53" />
<circle cx="37" cy="470" r="2.7" fill="#c4b5fd" opacity="0.22" />
<circle cx="18" cy="289" r="1.6" fill="#c4b5fd" opacity="0.41" />
<circle cx="366" cy="407" r="0.8" fill="#c4b5fd" opacity="0.41" />
<circle cx="385" cy="588" r="1.9" fill="#c4b5fd" opacity="0.22" />
<circle cx="328" cy="45" r="3.0" fill="#c4b5fd" opacity="0.53" />
<circle cx="347" cy="226" r="1.7" fill="#c4b5fd" opacity="0.34" />
<circle cx="442" cy="583" r="2.8" fill="#c4b5fd" opacity="0.67" />
<circle cx="461" cy="764" r="1.5" fill="#c4b5fd" opacity="0.48" />
<circle cx="404" cy="221" r="2.6" fill="#c4b5fd" opacity="0.29" />
<circle cx="423" cy="402" r="1.3" fill="#c4b5fd" opacity="0.60" />
<circle cx="214" cy="55" r="2.4" fill="#c4b5fd" opacity="0.43" />
<circle cx="233" cy="236" r="1.1" fill="#c4b5fd" opacity="0.24" />
<circle cx="357" cy="344" r="1.1" fill="#c4b5fd" opacity="0.50" />
<circle cx="338" cy="163" r="2.4" fill="#c4b5fd" opacity="0.19" />
<circle cx="319" cy="882" r="0.9" fill="#c4b5fd" opacity="0.62" />
<circle cx="300" cy="701" r="2.2" fill="#c4b5fd" opacity="0.31" />
<circle cx="281" cy="520" r="3.1" fill="#c4b5fd" opacity="0.24" />
<circle cx="262" cy="339" r="2.0" fill="#c4b5fd" opacity="0.43" />
<circle cx="243" cy="158" r="2.9" fill="#c4b5fd" opacity="0.36" />
<circle cx="224" cy="877" r="1.8" fill="#c4b5fd" opacity="0.55" />
<circle cx="509" cy="696" r="1.9" fill="#c4b5fd" opacity="0.52" />
<circle cx="490" cy="515" r="0.8" fill="#c4b5fd" opacity="0.21" />
<circle cx="348" cy="889" r="1.8" fill="#c4b5fd" opacity="0.59" />
<circle cx="367" cy="170" r="2.9" fill="#c4b5fd" opacity="0.40" />
<circle cx="386" cy="351" r="2.0" fill="#c4b5fd" opacity="0.47" />
<circle cx="405" cy="532" r="3.1" fill="#c4b5fd" opacity="0.28" />
<circle cx="272" cy="165" r="2.2" fill="#c4b5fd" opacity="0.35" />
<circle cx="291" cy="346" r="0.9" fill="#c4b5fd" opacity="0.66" />
<circle cx="310" cy="527" r="2.4" fill="#c4b5fd" opacity="0.23" />
<circle cx="329" cy="708" r="1.1" fill="#c4b5fd" opacity="0.54" />
<circle cx="500" cy="341" r="1.0" fill="#c4b5fd" opacity="0.57" />
<circle cx="519" cy="522" r="2.1" fill="#c4b5fd" opacity="0.38" />
<circle cx="1107" cy="758" r="2.1" fill="#c4b5fd" opacity="0.50" />
<circle cx="1088" cy="577" r="1.0" fill="#c4b5fd" opacity="0.19" />
<circle cx="1145" cy="220" r="2.3" fill="#c4b5fd" opacity="0.38" />
<circle cx="1126" cy="39" r="1.2" fill="#c4b5fd" opacity="0.57" />
<circle cx="1183" cy="34" r="2.5" fill="#c4b5fd" opacity="0.24" />
<circle cx="1164" cy="753" r="1.4" fill="#c4b5fd" opacity="0.43" />
<circle cx="1221" cy="396" r="2.7" fill="#c4b5fd" opacity="0.62" />
<circle cx="1202" cy="215" r="1.6" fill="#c4b5fd" opacity="0.31" />
<circle cx="1259" cy="210" r="2.9" fill="#c4b5fd" opacity="0.48" />
<circle cx="1240" cy="29" r="1.8" fill="#c4b5fd" opacity="0.67" />
<circle cx="106" cy="67" r="2.8" fill="#c4b5fd" opacity="0.63" />
<circle cx="125" cy="248" r="1.5" fill="#c4b5fd" opacity="0.44" />
<circle cx="68" cy="605" r="2.6" fill="#c4b5fd" opacity="0.21" />
<circle cx="87" cy="786" r="1.3" fill="#c4b5fd" opacity="0.52" />
<circle cx="30" cy="791" r="0.8" fill="#c4b5fd" opacity="0.33" />
<circle cx="49" cy="72" r="1.9" fill="#c4b5fd" opacity="0.64" />
<circle cx="1592" cy="429" r="3.0" fill="#c4b5fd" opacity="0.45" />
<circle cx="11" cy="610" r="1.7" fill="#c4b5fd" opacity="0.26" />
<circle cx="1554" cy="419" r="1.2" fill="#c4b5fd" opacity="0.57" />
<circle cx="1573" cy="600" r="2.3" fill="#c4b5fd" opacity="0.38" />
<circle cx="97" cy="616" r="3.1" fill="#c4b5fd" opacity="0.60" />
<circle cx="78" cy="435" r="2.0" fill="#c4b5fd" opacity="0.29" />
<circle cx="59" cy="254" r="2.9" fill="#c4b5fd" opacity="0.22" />
<circle cx="40" cy="73" r="1.8" fill="#c4b5fd" opacity="0.41" />
<circle cx="173" cy="440" r="1.1" fill="#c4b5fd" opacity="0.36" />
<circle cx="154" cy="259" r="2.4" fill="#c4b5fd" opacity="0.55" />
<circle cx="135" cy="78" r="0.9" fill="#c4b5fd" opacity="0.48" />
<circle cx="116" cy="797" r="2.2" fill="#c4b5fd" opacity="0.67" /></g>
  <circle cx="451" cy="304" r="230" fill="#6ee7f9" opacity="0.08"/>
  <circle cx="1193" cy="677" r="275" fill="#c4b5fd" opacity="0.08"/>
  <g filter="url(#softGlow)">
    
      <path d="M0 760 L260 430 L420 630 L620 315 L860 710 L1100 390 L1370 760 Z" fill="url(#glassMountain)" opacity="0.72"/>
      <path d="M586 360 L620 315 L654 360 L632 350 L620 385 L607 350 Z" fill="#f8fafc" opacity="0.88"/>
      <path d="M1062 442 L1100 390 L1140 446 L1118 432 L1100 472 L1084 432 Z" fill="#f8fafc" opacity="0.82"/>
      <path d="M778 225 v285 M708 332 h140 M738 275 q40 28 80 0" stroke="#c4b5fd" stroke-width="22" stroke-linecap="round" fill="none" opacity="0.84"/>
    
  </g>
  <g opacity="0.78">
    <rect x="88" y="82" width="1424" height="736" rx="46" fill="none" stroke="#ffffff" stroke-opacity="0.2" stroke-width="2"/>
    <path d="M150 150 C320 82 525 78 720 126" stroke="#fff7ed" stroke-opacity="0.44" stroke-width="7" stroke-linecap="round"/>
    <path d="M1332 710 C1215 775 1005 792 855 752" stroke="#6ee7f9" stroke-opacity="0.42" stroke-width="8" stroke-linecap="round"/>
  </g>
  <g transform="translate(126 714)">
    <rect width="420" height="86" rx="28" fill="#ffffff" opacity="0.12"/>
    <rect x="1" y="1" width="418" height="84" rx="27" fill="none" stroke="#ffffff" stroke-opacity="0.22"/>
    <text x="36" y="56" font-family="Georgia, 'Noto Serif Devanagari', serif" font-size="40" font-weight="700" fill="#fff7ed">त्रिशूल</text>
    <circle cx="352" cy="43" r="15" fill="#6ee7f9" opacity="0.9"/>
  </g>
  <rect width="1600" height="900" filter="url(#grain)" opacity="0.34"/>
</svg>
