<svg xmlns="http://www.w3.org/2000/svg" width="1600" height="900" viewBox="0 0 1600 900" role="img" aria-label="कबीरदास के दोहे: सामाजिक पाखंड पर प्रहार और निराकार भक्ति का संदेश">
  <defs>
    <radialGradient id="bgGlow" cx="50%" cy="43%" r="75%">
      <stop offset="0%" stop-color="#c4b5fd" stop-opacity="0.46"/>
      <stop offset="45%" stop-color="#3a2267" stop-opacity="0.92"/>
      <stop offset="100%" stop-color="#130b2a"/>
    </radialGradient>
    <linearGradient id="glassPanel" x1="0%" y1="0%" x2="100%" y2="100%">
      <stop offset="0%" stop-color="#ffffff" stop-opacity="0.58"/>
      <stop offset="42%" stop-color="#c4b5fd" stop-opacity="0.22"/>
      <stop offset="100%" stop-color="#ffffff" stop-opacity="0.08"/>
    </linearGradient>
    <radialGradient id="glassOrb" cx="34%" cy="24%" r="68%">
      <stop offset="0%" stop-color="#ffffff" stop-opacity="0.94"/>
      <stop offset="34%" stop-color="#c4b5fd" stop-opacity="0.62"/>
      <stop offset="100%" stop-color="#3a2267" stop-opacity="0.22"/>
    </radialGradient>
    <linearGradient id="glassMountain" x1="0%" y1="0%" x2="100%" y2="100%">
      <stop offset="0%" stop-color="#ffffff" stop-opacity="0.48"/>
      <stop offset="100%" stop-color="#c4b5fd" stop-opacity="0.22"/>
    </linearGradient>
    <filter id="softGlow" x="-30%" y="-30%" width="160%" height="160%">
      <feGaussianBlur stdDeviation="18" result="blur"/>
      <feColorMatrix in="blur" type="matrix" values="1 0 0 0 0  0 1 0 0 0  0 0 1 0 0  0 0 0 0.75 0"/>
      <feMerge>
        <feMergeNode/>
        <feMergeNode in="SourceGraphic"/>
      </feMerge>
    </filter>
    <filter id="grain">
      <feTurbulence type="fractalNoise" baseFrequency="0.82" numOctaves="3" seed="426"/>
      <feColorMatrix type="saturate" values="0"/>
      <feComponentTransfer>
        <feFuncA type="table" tableValues="0 0.075"/>
      </feComponentTransfer>
    </filter>
  </defs>
  <rect width="1600" height="900" fill="url(#bgGlow)"/>
  <g opacity="0.72"><circle cx="1131" cy="840" r="2.1" fill="#fcd34d" opacity="0.18" />
<circle cx="1112" cy="659" r="1.0" fill="#fcd34d" opacity="0.37" />
<circle cx="1169" cy="478" r="2.3" fill="#fcd34d" opacity="0.30" />
<circle cx="1150" cy="297" r="1.2" fill="#fcd34d" opacity="0.49" />
<circle cx="1207" cy="664" r="2.5" fill="#fcd34d" opacity="0.42" />
<circle cx="1188" cy="483" r="1.4" fill="#fcd34d" opacity="0.61" />
<circle cx="1245" cy="302" r="2.7" fill="#fcd34d" opacity="0.54" />
<circle cx="1226" cy="121" r="1.6" fill="#fcd34d" opacity="0.23" />
<circle cx="979" cy="292" r="1.3" fill="#fcd34d" opacity="0.66" />
<circle cx="960" cy="111" r="2.6" fill="#fcd34d" opacity="0.35" />
<circle cx="760" cy="477" r="2.2" fill="#fcd34d" opacity="0.61" />
<circle cx="779" cy="658" r="0.9" fill="#fcd34d" opacity="0.42" />
<circle cx="798" cy="839" r="2.4" fill="#fcd34d" opacity="0.49" />
<circle cx="817" cy="120" r="1.1" fill="#fcd34d" opacity="0.30" />
<circle cx="836" cy="301" r="2.6" fill="#fcd34d" opacity="0.35" />
<circle cx="855" cy="482" r="1.3" fill="#fcd34d" opacity="0.66" />
<circle cx="874" cy="663" r="2.0" fill="#fcd34d" opacity="0.23" />
<circle cx="893" cy="844" r="1.5" fill="#fcd34d" opacity="0.54" />
<circle cx="608" cy="125" r="2.2" fill="#fcd34d" opacity="0.59" />
<circle cx="627" cy="306" r="0.9" fill="#fcd34d" opacity="0.40" />
<circle cx="115" cy="410" r="2.9" fill="#fcd34d" opacity="0.48" />
<circle cx="96" cy="229" r="1.8" fill="#fcd34d" opacity="0.67" />
<circle cx="153" cy="772" r="3.1" fill="#fcd34d" opacity="0.36" />
<circle cx="134" cy="591" r="2.0" fill="#fcd34d" opacity="0.55" />
<circle cx="191" cy="586" r="0.9" fill="#fcd34d" opacity="0.22" />
<circle cx="172" cy="405" r="2.2" fill="#fcd34d" opacity="0.41" />
<circle cx="229" cy="48" r="1.1" fill="#fcd34d" opacity="0.60" />
<circle cx="210" cy="767" r="2.4" fill="#fcd34d" opacity="0.29" />
<circle cx="267" cy="762" r="1.3" fill="#fcd34d" opacity="0.50" />
<circle cx="248" cy="581" r="2.6" fill="#fcd34d" opacity="0.19" />
<circle cx="778" cy="619" r="1.2" fill="#fcd34d" opacity="0.57" />
<circle cx="797" cy="800" r="2.3" fill="#fcd34d" opacity="0.38" />
<circle cx="740" cy="257" r="1.0" fill="#fcd34d" opacity="0.19" />
<circle cx="759" cy="438" r="2.1" fill="#fcd34d" opacity="0.50" />
<circle cx="702" cy="443" r="1.6" fill="#fcd34d" opacity="0.31" />
<circle cx="721" cy="624" r="2.7" fill="#fcd34d" opacity="0.62" />
<circle cx="664" cy="81" r="1.4" fill="#fcd34d" opacity="0.43" />
<circle cx="683" cy="262" r="2.5" fill="#fcd34d" opacity="0.24" />
<circle cx="626" cy="71" r="2.0" fill="#fcd34d" opacity="0.59" />
<circle cx="645" cy="252" r="3.1" fill="#fcd34d" opacity="0.40" />
<circle cx="133" cy="896" r="1.9" fill="#fcd34d" opacity="0.56" />
<circle cx="114" cy="715" r="0.8" fill="#fcd34d" opacity="0.25" />
<circle cx="95" cy="534" r="1.7" fill="#fcd34d" opacity="0.18" />
<circle cx="76" cy="353" r="3.0" fill="#fcd34d" opacity="0.37" />
<circle cx="57" cy="172" r="1.5" fill="#fcd34d" opacity="0.30" />
<circle cx="38" cy="891" r="2.8" fill="#fcd34d" opacity="0.49" />
<circle cx="19" cy="710" r="1.3" fill="#fcd34d" opacity="0.42" />
<circle cx="0" cy="529" r="2.6" fill="#fcd34d" opacity="0.61" />
<circle cx="285" cy="348" r="2.7" fill="#fcd34d" opacity="0.54" />
<circle cx="266" cy="167" r="1.6" fill="#fcd34d" opacity="0.23" />
<circle cx="124" cy="205" r="2.6" fill="#fcd34d" opacity="0.39" />
<circle cx="143" cy="386" r="1.3" fill="#fcd34d" opacity="0.20" />
<circle cx="162" cy="567" r="2.8" fill="#fcd34d" opacity="0.27" />
<circle cx="181" cy="748" r="1.5" fill="#fcd34d" opacity="0.58" />
<circle cx="48" cy="381" r="3.0" fill="#fcd34d" opacity="0.65" />
<circle cx="67" cy="562" r="1.7" fill="#fcd34d" opacity="0.46" />
<circle cx="86" cy="743" r="0.8" fill="#fcd34d" opacity="0.53" />
<circle cx="105" cy="24" r="1.9" fill="#fcd34d" opacity="0.34" />
<circle cx="276" cy="557" r="1.8" fill="#fcd34d" opacity="0.41" />
<circle cx="295" cy="738" r="2.9" fill="#fcd34d" opacity="0.22" />
<circle cx="983" cy="414" r="0.9" fill="#fcd34d" opacity="0.38" />
<circle cx="964" cy="233" r="2.2" fill="#fcd34d" opacity="0.57" />
<circle cx="1021" cy="776" r="1.1" fill="#fcd34d" opacity="0.26" />
<circle cx="1002" cy="595" r="2.4" fill="#fcd34d" opacity="0.45" />
<circle cx="907" cy="238" r="2.9" fill="#fcd34d" opacity="0.64" />
<circle cx="888" cy="57" r="1.8" fill="#fcd34d" opacity="0.33" />
<circle cx="945" cy="600" r="3.1" fill="#fcd34d" opacity="0.52" />
<circle cx="926" cy="419" r="2.0" fill="#fcd34d" opacity="0.21" /></g>
  <circle cx="465" cy="298" r="230" fill="#c4b5fd" opacity="0.08"/>
  <circle cx="1107" cy="677" r="275" fill="#fcd34d" opacity="0.08"/>
  <g filter="url(#softGlow)">
    
    <ellipse cx="800" cy="285" rx="16" ry="90" fill="#c4b5fd" opacity="0.22" transform="rotate(0 800 460)" />
<ellipse cx="800" cy="285" rx="16" ry="90" fill="#c4b5fd" opacity="0.22" transform="rotate(11.25 800 460)" />
<ellipse cx="800" cy="285" rx="16" ry="90" fill="#c4b5fd" opacity="0.22" transform="rotate(22.5 800 460)" />
<ellipse cx="800" cy="285" rx="16" ry="90" fill="#c4b5fd" opacity="0.22" transform="rotate(33.75 800 460)" />
<ellipse cx="800" cy="285" rx="16" ry="90" fill="#c4b5fd" opacity="0.22" transform="rotate(45 800 460)" />
<ellipse cx="800" cy="285" rx="16" ry="90" fill="#c4b5fd" opacity="0.22" transform="rotate(56.25 800 460)" />
<ellipse cx="800" cy="285" rx="16" ry="90" fill="#c4b5fd" opacity="0.22" transform="rotate(67.5 800 460)" />
<ellipse cx="800" cy="285" rx="16" ry="90" fill="#c4b5fd" opacity="0.22" transform="rotate(78.75 800 460)" />
<ellipse cx="800" cy="285" rx="16" ry="90" fill="#c4b5fd" opacity="0.22" transform="rotate(90 800 460)" />
<ellipse cx="800" cy="285" rx="16" ry="90" fill="#c4b5fd" opacity="0.22" transform="rotate(101.25 800 460)" />
<ellipse cx="800" cy="285" rx="16" ry="90" fill="#c4b5fd" opacity="0.22" transform="rotate(112.5 800 460)" />
<ellipse cx="800" cy="285" rx="16" ry="90" fill="#c4b5fd" opacity="0.22" transform="rotate(123.75 800 460)" />
<ellipse cx="800" cy="285" rx="16" ry="90" fill="#c4b5fd" opacity="0.22" transform="rotate(135 800 460)" />
<ellipse cx="800" cy="285" rx="16" ry="90" fill="#c4b5fd" opacity="0.22" transform="rotate(146.25 800 460)" />
<ellipse cx="800" cy="285" rx="16" ry="90" fill="#c4b5fd" opacity="0.22" transform="rotate(157.5 800 460)" />
<ellipse cx="800" cy="285" rx="16" ry="90" fill="#c4b5fd" opacity="0.22" transform="rotate(168.75 800 460)" />
<ellipse cx="800" cy="285" rx="16" ry="90" fill="#c4b5fd" opacity="0.22" transform="rotate(180 800 460)" />
<ellipse cx="800" cy="285" rx="16" ry="90" fill="#c4b5fd" opacity="0.22" transform="rotate(191.25 800 460)" />
<ellipse cx="800" cy="285" rx="16" ry="90" fill="#c4b5fd" opacity="0.22" transform="rotate(202.5 800 460)" />
<ellipse cx="800" cy="285" rx="16" ry="90" fill="#c4b5fd" opacity="0.22" transform="rotate(213.75 800 460)" />
<ellipse cx="800" cy="285" rx="16" ry="90" fill="#c4b5fd" opacity="0.22" transform="rotate(225 800 460)" />
<ellipse cx="800" cy="285" rx="16" ry="90" fill="#c4b5fd" opacity="0.22" transform="rotate(236.25 800 460)" />
<ellipse cx="800" cy="285" rx="16" ry="90" fill="#c4b5fd" opacity="0.22" transform="rotate(247.5 800 460)" />
<ellipse cx="800" cy="285" rx="16" ry="90" fill="#c4b5fd" opacity="0.22" transform="rotate(258.75 800 460)" />
<ellipse cx="800" cy="285" rx="16" ry="90" fill="#c4b5fd" opacity="0.22" transform="rotate(270 800 460)" />
<ellipse cx="800" cy="285" rx="16" ry="90" fill="#c4b5fd" opacity="0.22" transform="rotate(281.25 800 460)" />
<ellipse cx="800" cy="285" rx="16" ry="90" fill="#c4b5fd" opacity="0.22" transform="rotate(292.5 800 460)" />
<ellipse cx="800" cy="285" rx="16" ry="90" fill="#c4b5fd" opacity="0.22" transform="rotate(303.75 800 460)" />
<ellipse cx="800" cy="285" rx="16" ry="90" fill="#c4b5fd" opacity="0.22" transform="rotate(315 800 460)" />
<ellipse cx="800" cy="285" rx="16" ry="90" fill="#c4b5fd" opacity="0.22" transform="rotate(326.25 800 460)" />
<ellipse cx="800" cy="285" rx="16" ry="90" fill="#c4b5fd" opacity="0.22" transform="rotate(337.5 800 460)" />
<ellipse cx="800" cy="285" rx="16" ry="90" fill="#c4b5fd" opacity="0.22" transform="rotate(348.75 800 460)" />
    <ellipse cx="800" cy="348" rx="20" ry="72" fill="#fcd34d" opacity="0.32" transform="rotate(0 800 460)" />
<ellipse cx="800" cy="348" rx="20" ry="72" fill="#fcd34d" opacity="0.32" transform="rotate(20 800 460)" />
<ellipse cx="800" cy="348" rx="20" ry="72" fill="#fcd34d" opacity="0.32" transform="rotate(40 800 460)" />
<ellipse cx="800" cy="348" rx="20" ry="72" fill="#fcd34d" opacity="0.32" transform="rotate(60 800 460)" />
<ellipse cx="800" cy="348" rx="20" ry="72" fill="#fcd34d" opacity="0.32" transform="rotate(80 800 460)" />
<ellipse cx="800" cy="348" rx="20" ry="72" fill="#fcd34d" opacity="0.32" transform="rotate(100 800 460)" />
<ellipse cx="800" cy="348" rx="20" ry="72" fill="#fcd34d" opacity="0.32" transform="rotate(120 800 460)" />
<ellipse cx="800" cy="348" rx="20" ry="72" fill="#fcd34d" opacity="0.32" transform="rotate(140 800 460)" />
<ellipse cx="800" cy="348" rx="20" ry="72" fill="#fcd34d" opacity="0.32" transform="rotate(160 800 460)" />
<ellipse cx="800" cy="348" rx="20" ry="72" fill="#fcd34d" opacity="0.32" transform="rotate(180 800 460)" />
<ellipse cx="800" cy="348" rx="20" ry="72" fill="#fcd34d" opacity="0.32" transform="rotate(200 800 460)" />
<ellipse cx="800" cy="348" rx="20" ry="72" fill="#fcd34d" opacity="0.32" transform="rotate(220 800 460)" />
<ellipse cx="800" cy="348" rx="20" ry="72" fill="#fcd34d" opacity="0.32" transform="rotate(240 800 460)" />
<ellipse cx="800" cy="348" rx="20" ry="72" fill="#fcd34d" opacity="0.32" transform="rotate(260 800 460)" />
<ellipse cx="800" cy="348" rx="20" ry="72" fill="#fcd34d" opacity="0.32" transform="rotate(280 800 460)" />
<ellipse cx="800" cy="348" rx="20" ry="72" fill="#fcd34d" opacity="0.32" transform="rotate(300 800 460)" />
<ellipse cx="800" cy="348" rx="20" ry="72" fill="#fcd34d" opacity="0.32" transform="rotate(320 800 460)" />
<ellipse cx="800" cy="348" rx="20" ry="72" fill="#fcd34d" opacity="0.32" transform="rotate(340 800 460)" />
    <circle cx="800" cy="460" r="140" fill="url(#glassOrb)" opacity="0.78"/>
    <text x="800" y="525" text-anchor="middle" font-family="Georgia, 'Noto Serif Devanagari', serif" font-size="210" font-weight="700" fill="#fff7ed" opacity="0.9">ॐ</text>
  
  </g>
  <g opacity="0.78">
    <rect x="88" y="82" width="1424" height="736" rx="46" fill="none" stroke="#ffffff" stroke-opacity="0.2" stroke-width="2"/>
    <path d="M150 150 C320 82 525 78 720 126" stroke="#fff7ed" stroke-opacity="0.44" stroke-width="7" stroke-linecap="round"/>
    <path d="M1332 710 C1215 775 1005 792 855 752" stroke="#c4b5fd" stroke-opacity="0.42" stroke-width="8" stroke-linecap="round"/>
  </g>
  <g transform="translate(126 714)">
    <rect width="420" height="86" rx="28" fill="#ffffff" opacity="0.12"/>
    <rect x="1" y="1" width="418" height="84" rx="27" fill="none" stroke="#ffffff" stroke-opacity="0.22"/>
    <text x="36" y="56" font-family="Georgia, 'Noto Serif Devanagari', serif" font-size="40" font-weight="700" fill="#fff7ed">ॐ</text>
    <circle cx="352" cy="43" r="15" fill="#c4b5fd" opacity="0.9"/>
  </g>
  <rect width="1600" height="900" filter="url(#grain)" opacity="0.34"/>
</svg>
