<svg xmlns="http://www.w3.org/2000/svg" width="1600" height="900" viewBox="0 0 1600 900" role="img" aria-label="कैलाश मानसरोवर यात्रा: भगवान शिव के निवास स्थान के अनसुलझे रहस्य">
  <defs>
    <radialGradient id="bgGlow" cx="50%" cy="43%" r="75%">
      <stop offset="0%" stop-color="#6ee7f9" stop-opacity="0.46"/>
      <stop offset="45%" stop-color="#19233f" stop-opacity="0.92"/>
      <stop offset="100%" stop-color="#07111f"/>
    </radialGradient>
    <linearGradient id="glassPanel" x1="0%" y1="0%" x2="100%" y2="100%">
      <stop offset="0%" stop-color="#ffffff" stop-opacity="0.58"/>
      <stop offset="42%" stop-color="#6ee7f9" stop-opacity="0.22"/>
      <stop offset="100%" stop-color="#ffffff" stop-opacity="0.08"/>
    </linearGradient>
    <radialGradient id="glassOrb" cx="34%" cy="24%" r="68%">
      <stop offset="0%" stop-color="#ffffff" stop-opacity="0.94"/>
      <stop offset="34%" stop-color="#6ee7f9" stop-opacity="0.62"/>
      <stop offset="100%" stop-color="#19233f" stop-opacity="0.22"/>
    </radialGradient>
    <linearGradient id="glassMountain" x1="0%" y1="0%" x2="100%" y2="100%">
      <stop offset="0%" stop-color="#ffffff" stop-opacity="0.48"/>
      <stop offset="100%" stop-color="#6ee7f9" stop-opacity="0.22"/>
    </linearGradient>
    <filter id="softGlow" x="-30%" y="-30%" width="160%" height="160%">
      <feGaussianBlur stdDeviation="18" result="blur"/>
      <feColorMatrix in="blur" type="matrix" values="1 0 0 0 0  0 1 0 0 0  0 0 1 0 0  0 0 0 0.75 0"/>
      <feMerge>
        <feMergeNode/>
        <feMergeNode in="SourceGraphic"/>
      </feMerge>
    </filter>
    <filter id="grain">
      <feTurbulence type="fractalNoise" baseFrequency="0.82" numOctaves="3" seed="59"/>
      <feColorMatrix type="saturate" values="0"/>
      <feComponentTransfer>
        <feFuncA type="table" tableValues="0 0.075"/>
      </feComponentTransfer>
    </filter>
  </defs>
  <rect width="1600" height="900" fill="url(#bgGlow)"/>
  <g opacity="0.72"><circle cx="346" cy="409" r="0.8" fill="#c4b5fd" opacity="0.45" />
<circle cx="365" cy="590" r="1.9" fill="#c4b5fd" opacity="0.26" />
<circle cx="308" cy="771" r="3.0" fill="#c4b5fd" opacity="0.33" />
<circle cx="327" cy="52" r="1.7" fill="#c4b5fd" opacity="0.64" />
<circle cx="270" cy="585" r="1.2" fill="#c4b5fd" opacity="0.21" />
<circle cx="289" cy="766" r="2.3" fill="#c4b5fd" opacity="0.52" />
<circle cx="232" cy="47" r="1.0" fill="#c4b5fd" opacity="0.59" />
<circle cx="251" cy="228" r="2.1" fill="#c4b5fd" opacity="0.40" />
<circle cx="194" cy="57" r="1.6" fill="#c4b5fd" opacity="0.43" />
<circle cx="213" cy="238" r="2.7" fill="#c4b5fd" opacity="0.24" />
<circle cx="1383" cy="198" r="0.9" fill="#c4b5fd" opacity="0.22" />
<circle cx="1364" cy="17" r="2.2" fill="#c4b5fd" opacity="0.41" />
<circle cx="1421" cy="560" r="1.1" fill="#c4b5fd" opacity="0.60" />
<circle cx="1402" cy="379" r="2.4" fill="#c4b5fd" opacity="0.29" />
<circle cx="1307" cy="22" r="2.9" fill="#c4b5fd" opacity="0.48" />
<circle cx="1288" cy="741" r="1.8" fill="#c4b5fd" opacity="0.67" />
<circle cx="1345" cy="384" r="3.1" fill="#c4b5fd" opacity="0.36" />
<circle cx="1326" cy="203" r="2.0" fill="#c4b5fd" opacity="0.55" />
<circle cx="1231" cy="746" r="1.7" fill="#c4b5fd" opacity="0.20" />
<circle cx="1212" cy="565" r="3.0" fill="#c4b5fd" opacity="0.39" />
<circle cx="524" cy="657" r="2.6" fill="#c4b5fd" opacity="0.23" />
<circle cx="543" cy="838" r="1.3" fill="#c4b5fd" opacity="0.54" />
<circle cx="562" cy="119" r="2.8" fill="#c4b5fd" opacity="0.61" />
<circle cx="581" cy="300" r="1.5" fill="#c4b5fd" opacity="0.42" />
<circle cx="448" cy="833" r="3.0" fill="#c4b5fd" opacity="0.49" />
<circle cx="467" cy="114" r="1.7" fill="#c4b5fd" opacity="0.30" />
<circle cx="486" cy="295" r="0.8" fill="#c4b5fd" opacity="0.37" />
<circle cx="505" cy="476" r="1.9" fill="#c4b5fd" opacity="0.18" />
<circle cx="676" cy="305" r="1.0" fill="#c4b5fd" opacity="0.25" />
<circle cx="695" cy="486" r="2.1" fill="#c4b5fd" opacity="0.56" />
<circle cx="1365" cy="448" r="2.7" fill="#c4b5fd" opacity="0.22" />
<circle cx="1346" cy="267" r="1.6" fill="#c4b5fd" opacity="0.41" />
<circle cx="1327" cy="86" r="2.5" fill="#c4b5fd" opacity="0.34" />
<circle cx="1308" cy="805" r="1.4" fill="#c4b5fd" opacity="0.53" />
<circle cx="1289" cy="624" r="2.3" fill="#c4b5fd" opacity="0.46" />
<circle cx="1270" cy="443" r="1.2" fill="#c4b5fd" opacity="0.65" />
<circle cx="1251" cy="262" r="2.1" fill="#c4b5fd" opacity="0.58" />
<circle cx="1232" cy="81" r="1.0" fill="#c4b5fd" opacity="0.27" />
<circle cx="1517" cy="96" r="1.9" fill="#c4b5fd" opacity="0.20" />
<circle cx="1498" cy="815" r="0.8" fill="#c4b5fd" opacity="0.39" />
<circle cx="1114" cy="171" r="2.0" fill="#c4b5fd" opacity="0.27" />
<circle cx="1133" cy="352" r="3.1" fill="#c4b5fd" opacity="0.58" />
<circle cx="1076" cy="709" r="1.8" fill="#c4b5fd" opacity="0.39" />
<circle cx="1095" cy="890" r="2.9" fill="#c4b5fd" opacity="0.20" />
<circle cx="1038" cy="895" r="2.4" fill="#c4b5fd" opacity="0.51" />
<circle cx="1057" cy="176" r="1.1" fill="#c4b5fd" opacity="0.32" />
<circle cx="1000" cy="533" r="2.2" fill="#c4b5fd" opacity="0.63" />
<circle cx="1019" cy="714" r="0.9" fill="#c4b5fd" opacity="0.44" />
<circle cx="962" cy="719" r="1.2" fill="#c4b5fd" opacity="0.29" />
<circle cx="981" cy="0" r="2.3" fill="#c4b5fd" opacity="0.60" />
<circle cx="515" cy="862" r="1.3" fill="#c4b5fd" opacity="0.18" />
<circle cx="496" cy="681" r="2.6" fill="#c4b5fd" opacity="0.37" />
<circle cx="553" cy="324" r="1.5" fill="#c4b5fd" opacity="0.56" />
<circle cx="534" cy="143" r="2.8" fill="#c4b5fd" opacity="0.25" />
<circle cx="591" cy="138" r="1.7" fill="#c4b5fd" opacity="0.42" />
<circle cx="572" cy="857" r="3.0" fill="#c4b5fd" opacity="0.61" />
<circle cx="629" cy="500" r="1.9" fill="#c4b5fd" opacity="0.30" />
<circle cx="610" cy="319" r="0.8" fill="#c4b5fd" opacity="0.49" />
<circle cx="667" cy="510" r="2.9" fill="#c4b5fd" opacity="0.20" />
<circle cx="648" cy="329" r="1.8" fill="#c4b5fd" opacity="0.39" />
<circle cx="1160" cy="653" r="3.0" fill="#c4b5fd" opacity="0.45" />
<circle cx="1179" cy="834" r="1.7" fill="#c4b5fd" opacity="0.26" />
<circle cx="1198" cy="115" r="0.8" fill="#c4b5fd" opacity="0.33" />
<circle cx="1217" cy="296" r="1.9" fill="#c4b5fd" opacity="0.64" />
<circle cx="1236" cy="477" r="2.6" fill="#c4b5fd" opacity="0.19" />
<circle cx="1255" cy="658" r="1.3" fill="#c4b5fd" opacity="0.50" />
<circle cx="1274" cy="839" r="2.8" fill="#c4b5fd" opacity="0.57" />
<circle cx="1293" cy="120" r="1.5" fill="#c4b5fd" opacity="0.38" /></g>
  <circle cx="488" cy="255" r="230" fill="#6ee7f9" opacity="0.08"/>
  <circle cx="1146" cy="636" r="275" fill="#c4b5fd" opacity="0.08"/>
  <g filter="url(#softGlow)">
    
      <path d="M0 760 L260 430 L420 630 L620 315 L860 710 L1100 390 L1370 760 Z" fill="url(#glassMountain)" opacity="0.72"/>
      <path d="M586 360 L620 315 L654 360 L632 350 L620 385 L607 350 Z" fill="#f8fafc" opacity="0.88"/>
      <path d="M1062 442 L1100 390 L1140 446 L1118 432 L1100 472 L1084 432 Z" fill="#f8fafc" opacity="0.82"/>
      <path d="M778 225 v285 M708 332 h140 M738 275 q40 28 80 0" stroke="#c4b5fd" stroke-width="22" stroke-linecap="round" fill="none" opacity="0.84"/>
    
  </g>
  <g opacity="0.78">
    <rect x="88" y="82" width="1424" height="736" rx="46" fill="none" stroke="#ffffff" stroke-opacity="0.2" stroke-width="2"/>
    <path d="M150 150 C320 82 525 78 720 126" stroke="#fff7ed" stroke-opacity="0.44" stroke-width="7" stroke-linecap="round"/>
    <path d="M1332 710 C1215 775 1005 792 855 752" stroke="#6ee7f9" stroke-opacity="0.42" stroke-width="8" stroke-linecap="round"/>
  </g>
  <g transform="translate(126 714)">
    <rect width="420" height="86" rx="28" fill="#ffffff" opacity="0.12"/>
    <rect x="1" y="1" width="418" height="84" rx="27" fill="none" stroke="#ffffff" stroke-opacity="0.22"/>
    <text x="36" y="56" font-family="Georgia, 'Noto Serif Devanagari', serif" font-size="40" font-weight="700" fill="#fff7ed">त्रिशूल</text>
    <circle cx="352" cy="43" r="15" fill="#6ee7f9" opacity="0.9"/>
  </g>
  <rect width="1600" height="900" filter="url(#grain)" opacity="0.34"/>
</svg>
