<svg xmlns="http://www.w3.org/2000/svg" width="1600" height="900" viewBox="0 0 1600 900" role="img" aria-label="कांवड़ यात्रा: सावन मास में जल लाने की परंपरा और इसका शारीरिक विज्ञान">
  <defs>
    <radialGradient id="bgGlow" cx="50%" cy="43%" r="75%">
      <stop offset="0%" stop-color="#fb923c" stop-opacity="0.46"/>
      <stop offset="45%" stop-color="#67330f" stop-opacity="0.92"/>
      <stop offset="100%" stop-color="#210b05"/>
    </radialGradient>
    <linearGradient id="glassPanel" x1="0%" y1="0%" x2="100%" y2="100%">
      <stop offset="0%" stop-color="#ffffff" stop-opacity="0.58"/>
      <stop offset="42%" stop-color="#fb923c" stop-opacity="0.22"/>
      <stop offset="100%" stop-color="#ffffff" stop-opacity="0.08"/>
    </linearGradient>
    <radialGradient id="glassOrb" cx="34%" cy="24%" r="68%">
      <stop offset="0%" stop-color="#ffffff" stop-opacity="0.94"/>
      <stop offset="34%" stop-color="#fb923c" stop-opacity="0.62"/>
      <stop offset="100%" stop-color="#67330f" stop-opacity="0.22"/>
    </radialGradient>
    <linearGradient id="glassMountain" x1="0%" y1="0%" x2="100%" y2="100%">
      <stop offset="0%" stop-color="#ffffff" stop-opacity="0.48"/>
      <stop offset="100%" stop-color="#fb923c" stop-opacity="0.22"/>
    </linearGradient>
    <filter id="softGlow" x="-30%" y="-30%" width="160%" height="160%">
      <feGaussianBlur stdDeviation="18" result="blur"/>
      <feColorMatrix in="blur" type="matrix" values="1 0 0 0 0  0 1 0 0 0  0 0 1 0 0  0 0 0 0.75 0"/>
      <feMerge>
        <feMergeNode/>
        <feMergeNode in="SourceGraphic"/>
      </feMerge>
    </filter>
    <filter id="grain">
      <feTurbulence type="fractalNoise" baseFrequency="0.82" numOctaves="3" seed="235"/>
      <feColorMatrix type="saturate" values="0"/>
      <feComponentTransfer>
        <feFuncA type="table" tableValues="0 0.075"/>
      </feComponentTransfer>
    </filter>
  </defs>
  <rect width="1600" height="900" fill="url(#bgGlow)"/>
  <g opacity="0.72"><circle cx="925" cy="586" r="1.9" fill="#fef3c7" opacity="0.38" />
<circle cx="906" cy="405" r="0.8" fill="#fef3c7" opacity="0.57" />
<circle cx="887" cy="48" r="1.7" fill="#fef3c7" opacity="0.26" />
<circle cx="868" cy="767" r="3.0" fill="#fef3c7" opacity="0.45" />
<circle cx="849" cy="762" r="1.5" fill="#fef3c7" opacity="0.64" />
<circle cx="830" cy="581" r="2.8" fill="#fef3c7" opacity="0.33" />
<circle cx="811" cy="224" r="1.3" fill="#fef3c7" opacity="0.52" />
<circle cx="792" cy="43" r="2.6" fill="#fef3c7" opacity="0.21" />
<circle cx="773" cy="38" r="1.1" fill="#fef3c7" opacity="0.40" />
<circle cx="754" cy="757" r="2.4" fill="#fef3c7" opacity="0.59" />
<circle cx="1358" cy="151" r="1.6" fill="#fef3c7" opacity="0.53" />
<circle cx="1377" cy="332" r="2.7" fill="#fef3c7" opacity="0.34" />
<circle cx="1320" cy="689" r="1.4" fill="#fef3c7" opacity="0.65" />
<circle cx="1339" cy="870" r="2.5" fill="#fef3c7" opacity="0.46" />
<circle cx="1434" cy="327" r="1.2" fill="#fef3c7" opacity="0.29" />
<circle cx="557" cy="508" r="2.3" fill="#fef3c7" opacity="0.60" />
<circle cx="1396" cy="865" r="1.0" fill="#fef3c7" opacity="0.41" />
<circle cx="1415" cy="146" r="2.1" fill="#fef3c7" opacity="0.22" />
<circle cx="1206" cy="699" r="0.8" fill="#fef3c7" opacity="0.55" />
<circle cx="1225" cy="880" r="1.9" fill="#fef3c7" opacity="0.36" />
<circle cx="517" cy="88" r="1.9" fill="#fef3c7" opacity="0.44" />
<circle cx="498" cy="807" r="0.8" fill="#fef3c7" opacity="0.63" />
<circle cx="479" cy="626" r="1.7" fill="#fef3c7" opacity="0.56" />
<circle cx="460" cy="445" r="3.0" fill="#fef3c7" opacity="0.25" />
<circle cx="441" cy="264" r="1.5" fill="#fef3c7" opacity="0.18" />
<circle cx="422" cy="83" r="2.8" fill="#fef3c7" opacity="0.37" />
<circle cx="403" cy="802" r="1.3" fill="#fef3c7" opacity="0.30" />
<circle cx="384" cy="621" r="2.6" fill="#fef3c7" opacity="0.49" />
<circle cx="669" cy="440" r="1.9" fill="#fef3c7" opacity="0.46" />
<circle cx="650" cy="259" r="0.8" fill="#fef3c7" opacity="0.65" />
<circle cx="508" cy="297" r="1.8" fill="#fef3c7" opacity="0.53" />
<circle cx="527" cy="478" r="2.9" fill="#fef3c7" opacity="0.34" />
<circle cx="546" cy="659" r="2.0" fill="#fef3c7" opacity="0.41" />
<circle cx="565" cy="840" r="3.1" fill="#fef3c7" opacity="0.22" />
<circle cx="432" cy="473" r="2.2" fill="#fef3c7" opacity="0.29" />
<circle cx="451" cy="654" r="0.9" fill="#fef3c7" opacity="0.60" />
<circle cx="470" cy="835" r="2.4" fill="#fef3c7" opacity="0.67" />
<circle cx="489" cy="116" r="1.1" fill="#fef3c7" opacity="0.48" />
<circle cx="660" cy="649" r="1.8" fill="#fef3c7" opacity="0.51" />
<circle cx="679" cy="830" r="2.9" fill="#fef3c7" opacity="0.32" />
<circle cx="499" cy="502" r="2.1" fill="#fef3c7" opacity="0.62" />
<circle cx="480" cy="321" r="1.0" fill="#fef3c7" opacity="0.31" />
<circle cx="537" cy="864" r="2.3" fill="#fef3c7" opacity="0.50" />
<circle cx="518" cy="683" r="1.2" fill="#fef3c7" opacity="0.19" />
<circle cx="575" cy="678" r="2.5" fill="#fef3c7" opacity="0.36" />
<circle cx="556" cy="497" r="1.4" fill="#fef3c7" opacity="0.55" />
<circle cx="613" cy="140" r="2.7" fill="#fef3c7" opacity="0.24" />
<circle cx="594" cy="859" r="1.6" fill="#fef3c7" opacity="0.43" />
<circle cx="651" cy="854" r="2.9" fill="#fef3c7" opacity="0.60" />
<circle cx="632" cy="673" r="1.8" fill="#fef3c7" opacity="0.29" />
<circle cx="266" cy="711" r="1.2" fill="#fef3c7" opacity="0.21" />
<circle cx="285" cy="892" r="2.3" fill="#fef3c7" opacity="0.52" />
<circle cx="228" cy="349" r="1.0" fill="#fef3c7" opacity="0.33" />
<circle cx="247" cy="530" r="2.1" fill="#fef3c7" opacity="0.64" />
<circle cx="1086" cy="535" r="1.6" fill="#fef3c7" opacity="0.45" />
<circle cx="209" cy="716" r="2.7" fill="#fef3c7" opacity="0.26" />
<circle cx="1048" cy="173" r="1.4" fill="#fef3c7" opacity="0.57" />
<circle cx="1067" cy="354" r="2.5" fill="#fef3c7" opacity="0.38" />
<circle cx="1010" cy="163" r="2.0" fill="#fef3c7" opacity="0.19" />
<circle cx="1029" cy="344" r="3.1" fill="#fef3c7" opacity="0.50" />
<circle cx="1153" cy="360" r="1.5" fill="#fef3c7" opacity="0.58" />
<circle cx="1134" cy="179" r="2.8" fill="#fef3c7" opacity="0.27" />
<circle cx="1115" cy="898" r="1.3" fill="#fef3c7" opacity="0.20" />
<circle cx="1096" cy="717" r="2.6" fill="#fef3c7" opacity="0.39" />
<circle cx="333" cy="184" r="1.9" fill="#fef3c7" opacity="0.34" />
<circle cx="314" cy="3" r="0.8" fill="#fef3c7" opacity="0.53" />
<circle cx="1191" cy="722" r="1.7" fill="#fef3c7" opacity="0.46" />
<circle cx="1172" cy="541" r="3.0" fill="#fef3c7" opacity="0.65" /></g>
  <circle cx="431" cy="320" r="230" fill="#fb923c" opacity="0.08"/>
  <circle cx="1129" cy="643" r="275" fill="#fef3c7" opacity="0.08"/>
  <g filter="url(#softGlow)">
    
      <path d="M450 705 h700 v-48 H450 Z" fill="url(#glassPanel)" opacity="0.72"/>
      <path d="M535 657 v-250 h530 v250 Z" fill="url(#glassPanel)" opacity="0.48"/>
      <path d="M495 407 h610 L800 210 Z" fill="#fef3c7" opacity="0.6"/>
      <path d="M645 657 V500 a155 155 0 0 1 310 0 v157 Z" fill="#210b05" opacity="0.74"/>
      <path d="M800 210 v-88" stroke="#fb923c" stroke-width="9" opacity="0.88"/>
      <path d="M800 126 c48 -26 72 6 115 -15 c-34 60 -78 38 -115 64 Z" fill="#fb923c" opacity="0.82"/>
    
  </g>
  <g opacity="0.78">
    <rect x="88" y="82" width="1424" height="736" rx="46" fill="none" stroke="#ffffff" stroke-opacity="0.2" stroke-width="2"/>
    <path d="M150 150 C320 82 525 78 720 126" stroke="#fff7ed" stroke-opacity="0.44" stroke-width="7" stroke-linecap="round"/>
    <path d="M1332 710 C1215 775 1005 792 855 752" stroke="#fb923c" stroke-opacity="0.42" stroke-width="8" stroke-linecap="round"/>
  </g>
  <g transform="translate(126 714)">
    <rect width="420" height="86" rx="28" fill="#ffffff" opacity="0.12"/>
    <rect x="1" y="1" width="418" height="84" rx="27" fill="none" stroke="#ffffff" stroke-opacity="0.22"/>
    <text x="36" y="56" font-family="Georgia, 'Noto Serif Devanagari', serif" font-size="40" font-weight="700" fill="#fff7ed">मंदिर</text>
    <circle cx="352" cy="43" r="15" fill="#fb923c" opacity="0.9"/>
  </g>
  <rect width="1600" height="900" filter="url(#grain)" opacity="0.34"/>
</svg>
