<svg xmlns="http://www.w3.org/2000/svg" width="1600" height="900" viewBox="0 0 1600 900" role="img" aria-label="कर्म योग क्या है? निष्काम कर्म का व्यावहारिक रहस्य">
  <defs>
    <radialGradient id="bgGlow" cx="50%" cy="43%" r="75%">
      <stop offset="0%" stop-color="#a7f3d0" stop-opacity="0.46"/>
      <stop offset="45%" stop-color="#0f4d3f" stop-opacity="0.92"/>
      <stop offset="100%" stop-color="#05231d"/>
    </radialGradient>
    <linearGradient id="glassPanel" x1="0%" y1="0%" x2="100%" y2="100%">
      <stop offset="0%" stop-color="#ffffff" stop-opacity="0.58"/>
      <stop offset="42%" stop-color="#a7f3d0" stop-opacity="0.22"/>
      <stop offset="100%" stop-color="#ffffff" stop-opacity="0.08"/>
    </linearGradient>
    <radialGradient id="glassOrb" cx="34%" cy="24%" r="68%">
      <stop offset="0%" stop-color="#ffffff" stop-opacity="0.94"/>
      <stop offset="34%" stop-color="#a7f3d0" stop-opacity="0.62"/>
      <stop offset="100%" stop-color="#0f4d3f" stop-opacity="0.22"/>
    </radialGradient>
    <linearGradient id="glassMountain" x1="0%" y1="0%" x2="100%" y2="100%">
      <stop offset="0%" stop-color="#ffffff" stop-opacity="0.48"/>
      <stop offset="100%" stop-color="#a7f3d0" stop-opacity="0.22"/>
    </linearGradient>
    <filter id="softGlow" x="-30%" y="-30%" width="160%" height="160%">
      <feGaussianBlur stdDeviation="18" result="blur"/>
      <feColorMatrix in="blur" type="matrix" values="1 0 0 0 0  0 1 0 0 0  0 0 1 0 0  0 0 0 0.75 0"/>
      <feMerge>
        <feMergeNode/>
        <feMergeNode in="SourceGraphic"/>
      </feMerge>
    </filter>
    <filter id="grain">
      <feTurbulence type="fractalNoise" baseFrequency="0.82" numOctaves="3" seed="254"/>
      <feColorMatrix type="saturate" values="0"/>
      <feComponentTransfer>
        <feFuncA type="table" tableValues="0 0.075"/>
      </feComponentTransfer>
    </filter>
  </defs>
  <rect width="1600" height="900" fill="url(#bgGlow)"/>
  <g opacity="0.72"><circle cx="871" cy="148" r="1.7" fill="#fde68a" opacity="0.36" />
<circle cx="852" cy="867" r="3.0" fill="#fde68a" opacity="0.55" />
<circle cx="909" cy="686" r="1.9" fill="#fde68a" opacity="0.48" />
<circle cx="890" cy="505" r="0.8" fill="#fde68a" opacity="0.67" />
<circle cx="795" cy="324" r="1.3" fill="#fde68a" opacity="0.62" />
<circle cx="776" cy="143" r="2.6" fill="#fde68a" opacity="0.31" />
<circle cx="833" cy="862" r="1.5" fill="#fde68a" opacity="0.24" />
<circle cx="814" cy="681" r="2.8" fill="#fde68a" opacity="0.43" />
<circle cx="719" cy="696" r="2.5" fill="#fde68a" opacity="0.34" />
<circle cx="700" cy="515" r="1.4" fill="#fde68a" opacity="0.53" />
<circle cx="620" cy="213" r="1.0" fill="#fde68a" opacity="0.53" />
<circle cx="639" cy="394" r="2.1" fill="#fde68a" opacity="0.34" />
<circle cx="658" cy="575" r="1.2" fill="#fde68a" opacity="0.41" />
<circle cx="677" cy="756" r="2.3" fill="#fde68a" opacity="0.22" />
<circle cx="544" cy="389" r="1.4" fill="#fde68a" opacity="0.29" />
<circle cx="563" cy="570" r="2.5" fill="#fde68a" opacity="0.60" />
<circle cx="582" cy="751" r="1.6" fill="#fde68a" opacity="0.67" />
<circle cx="601" cy="32" r="2.7" fill="#fde68a" opacity="0.48" />
<circle cx="772" cy="761" r="1.8" fill="#fde68a" opacity="0.55" />
<circle cx="791" cy="42" r="2.9" fill="#fde68a" opacity="0.36" />
<circle cx="583" cy="422" r="1.7" fill="#fde68a" opacity="0.52" />
<circle cx="564" cy="241" r="3.0" fill="#fde68a" opacity="0.21" />
<circle cx="621" cy="784" r="1.9" fill="#fde68a" opacity="0.40" />
<circle cx="602" cy="603" r="0.8" fill="#fde68a" opacity="0.59" />
<circle cx="507" cy="246" r="1.3" fill="#fde68a" opacity="0.28" />
<circle cx="488" cy="65" r="2.6" fill="#fde68a" opacity="0.47" />
<circle cx="545" cy="608" r="1.5" fill="#fde68a" opacity="0.66" />
<circle cx="526" cy="427" r="2.8" fill="#fde68a" opacity="0.35" />
<circle cx="431" cy="70" r="2.5" fill="#fde68a" opacity="0.50" />
<circle cx="412" cy="789" r="1.4" fill="#fde68a" opacity="0.19" />
<circle cx="638" cy="123" r="2.4" fill="#fde68a" opacity="0.61" />
<circle cx="657" cy="304" r="1.1" fill="#fde68a" opacity="0.42" />
<circle cx="600" cy="661" r="2.2" fill="#fde68a" opacity="0.23" />
<circle cx="619" cy="842" r="0.9" fill="#fde68a" opacity="0.54" />
<circle cx="714" cy="299" r="2.0" fill="#fde68a" opacity="0.37" />
<circle cx="733" cy="480" r="3.1" fill="#fde68a" opacity="0.18" />
<circle cx="676" cy="837" r="1.8" fill="#fde68a" opacity="0.49" />
<circle cx="695" cy="118" r="2.9" fill="#fde68a" opacity="0.30" />
<circle cx="486" cy="475" r="0.8" fill="#fde68a" opacity="0.59" />
<circle cx="505" cy="656" r="1.9" fill="#fde68a" opacity="0.40" />
<circle cx="369" cy="564" r="2.3" fill="#fde68a" opacity="0.66" />
<circle cx="350" cy="383" r="1.2" fill="#fde68a" opacity="0.35" />
<circle cx="331" cy="202" r="2.1" fill="#fde68a" opacity="0.28" />
<circle cx="312" cy="21" r="1.0" fill="#fde68a" opacity="0.47" />
<circle cx="445" cy="388" r="2.7" fill="#fde68a" opacity="0.42" />
<circle cx="426" cy="207" r="1.6" fill="#fde68a" opacity="0.61" />
<circle cx="407" cy="26" r="2.5" fill="#fde68a" opacity="0.54" />
<circle cx="388" cy="745" r="1.4" fill="#fde68a" opacity="0.23" />
<circle cx="217" cy="16" r="3.1" fill="#fde68a" opacity="0.64" />
<circle cx="198" cy="735" r="2.0" fill="#fde68a" opacity="0.33" />
<circle cx="360" cy="773" r="3.0" fill="#fde68a" opacity="0.25" />
<circle cx="379" cy="54" r="1.7" fill="#fde68a" opacity="0.56" />
<circle cx="398" cy="235" r="0.8" fill="#fde68a" opacity="0.63" />
<circle cx="417" cy="416" r="1.9" fill="#fde68a" opacity="0.44" />
<circle cx="436" cy="597" r="2.6" fill="#fde68a" opacity="0.49" />
<circle cx="455" cy="778" r="1.3" fill="#fde68a" opacity="0.30" />
<circle cx="474" cy="59" r="2.8" fill="#fde68a" opacity="0.37" />
<circle cx="493" cy="240" r="1.5" fill="#fde68a" opacity="0.18" />
<circle cx="208" cy="225" r="1.4" fill="#fde68a" opacity="0.23" />
<circle cx="227" cy="406" r="2.5" fill="#fde68a" opacity="0.54" />
<circle cx="611" cy="82" r="1.3" fill="#fde68a" opacity="0.62" />
<circle cx="592" cy="801" r="2.6" fill="#fde68a" opacity="0.31" />
<circle cx="649" cy="444" r="1.5" fill="#fde68a" opacity="0.50" />
<circle cx="630" cy="263" r="2.8" fill="#fde68a" opacity="0.19" />
<circle cx="687" cy="258" r="1.7" fill="#fde68a" opacity="0.36" />
<circle cx="668" cy="77" r="3.0" fill="#fde68a" opacity="0.55" />
<circle cx="725" cy="620" r="1.9" fill="#fde68a" opacity="0.24" />
<circle cx="706" cy="439" r="0.8" fill="#fde68a" opacity="0.43" /></g>
  <circle cx="445" cy="318" r="230" fill="#a7f3d0" opacity="0.08"/>
  <circle cx="1167" cy="655" r="275" fill="#fde68a" opacity="0.08"/>
  <g filter="url(#softGlow)">
    
      <circle cx="800" cy="455" r="245" fill="none" stroke="#a7f3d0" stroke-width="18" opacity="0.28"/>
      <circle cx="800" cy="455" r="175" fill="none" stroke="#fde68a" stroke-width="12" opacity="0.42"/>
      <text x="800" y="520" text-anchor="middle" font-family="Georgia, 'Noto Serif Devanagari', serif" font-size="230" font-weight="700" fill="#fff7ed" opacity="0.92">ॐ</text>
      <path d="M596 700 C700 624 900 624 1004 700" stroke="#a7f3d0" stroke-width="22" stroke-linecap="round" opacity="0.42" fill="none"/>
    
  </g>
  <g opacity="0.78">
    <rect x="88" y="82" width="1424" height="736" rx="46" fill="none" stroke="#ffffff" stroke-opacity="0.2" stroke-width="2"/>
    <path d="M150 150 C320 82 525 78 720 126" stroke="#fff7ed" stroke-opacity="0.44" stroke-width="7" stroke-linecap="round"/>
    <path d="M1332 710 C1215 775 1005 792 855 752" stroke="#a7f3d0" stroke-opacity="0.42" stroke-width="8" stroke-linecap="round"/>
  </g>
  <g transform="translate(126 714)">
    <rect width="420" height="86" rx="28" fill="#ffffff" opacity="0.12"/>
    <rect x="1" y="1" width="418" height="84" rx="27" fill="none" stroke="#ffffff" stroke-opacity="0.22"/>
    <text x="36" y="56" font-family="Georgia, 'Noto Serif Devanagari', serif" font-size="40" font-weight="700" fill="#fff7ed">ॐ</text>
    <circle cx="352" cy="43" r="15" fill="#a7f3d0" opacity="0.9"/>
  </g>
  <rect width="1600" height="900" filter="url(#grain)" opacity="0.34"/>
</svg>
