<svg xmlns="http://www.w3.org/2000/svg" width="1600" height="900" viewBox="0 0 1600 900" role="img" aria-label="भगवान कार्तिकेय (मुरुगन) की पूजा और महत्व: कथाएँ, रहस्य और दक्षिण भारत में आस्था">
  <defs>
    <radialGradient id="bgGlow" cx="50%" cy="43%" r="75%">
      <stop offset="0%" stop-color="#c4b5fd" stop-opacity="0.46"/>
      <stop offset="45%" stop-color="#3a2267" stop-opacity="0.92"/>
      <stop offset="100%" stop-color="#130b2a"/>
    </radialGradient>
    <linearGradient id="glassPanel" x1="0%" y1="0%" x2="100%" y2="100%">
      <stop offset="0%" stop-color="#ffffff" stop-opacity="0.58"/>
      <stop offset="42%" stop-color="#c4b5fd" stop-opacity="0.22"/>
      <stop offset="100%" stop-color="#ffffff" stop-opacity="0.08"/>
    </linearGradient>
    <radialGradient id="glassOrb" cx="34%" cy="24%" r="68%">
      <stop offset="0%" stop-color="#ffffff" stop-opacity="0.94"/>
      <stop offset="34%" stop-color="#c4b5fd" stop-opacity="0.62"/>
      <stop offset="100%" stop-color="#3a2267" stop-opacity="0.22"/>
    </radialGradient>
    <linearGradient id="glassMountain" x1="0%" y1="0%" x2="100%" y2="100%">
      <stop offset="0%" stop-color="#ffffff" stop-opacity="0.48"/>
      <stop offset="100%" stop-color="#c4b5fd" stop-opacity="0.22"/>
    </linearGradient>
    <filter id="softGlow" x="-30%" y="-30%" width="160%" height="160%">
      <feGaussianBlur stdDeviation="18" result="blur"/>
      <feColorMatrix in="blur" type="matrix" values="1 0 0 0 0  0 1 0 0 0  0 0 1 0 0  0 0 0 0.75 0"/>
      <feMerge>
        <feMergeNode/>
        <feMergeNode in="SourceGraphic"/>
      </feMerge>
    </filter>
    <filter id="grain">
      <feTurbulence type="fractalNoise" baseFrequency="0.82" numOctaves="3" seed="222"/>
      <feColorMatrix type="saturate" values="0"/>
      <feComponentTransfer>
        <feFuncA type="table" tableValues="0 0.075"/>
      </feComponentTransfer>
    </filter>
  </defs>
  <rect width="1600" height="900" fill="url(#bgGlow)"/>
  <g opacity="0.72"><circle cx="72" cy="667" r="2.6" fill="#fcd34d" opacity="0.25" />
<circle cx="91" cy="848" r="1.3" fill="#fcd34d" opacity="0.56" />
<circle cx="110" cy="305" r="2.8" fill="#fcd34d" opacity="0.37" />
<circle cx="129" cy="486" r="1.5" fill="#fcd34d" opacity="0.18" />
<circle cx="148" cy="491" r="3.0" fill="#fcd34d" opacity="0.49" />
<circle cx="167" cy="672" r="1.7" fill="#fcd34d" opacity="0.30" />
<circle cx="186" cy="129" r="0.8" fill="#fcd34d" opacity="0.61" />
<circle cx="205" cy="310" r="1.9" fill="#fcd34d" opacity="0.42" />
<circle cx="1520" cy="315" r="1.0" fill="#fcd34d" opacity="0.27" />
<circle cx="1539" cy="496" r="2.1" fill="#fcd34d" opacity="0.58" />
<circle cx="1009" cy="512" r="1.5" fill="#fcd34d" opacity="0.38" />
<circle cx="990" cy="331" r="2.8" fill="#fcd34d" opacity="0.57" />
<circle cx="971" cy="150" r="1.3" fill="#fcd34d" opacity="0.50" />
<circle cx="952" cy="869" r="2.6" fill="#fcd34d" opacity="0.19" />
<circle cx="1085" cy="336" r="1.9" fill="#fcd34d" opacity="0.64" />
<circle cx="1066" cy="155" r="0.8" fill="#fcd34d" opacity="0.33" />
<circle cx="1047" cy="874" r="1.7" fill="#fcd34d" opacity="0.26" />
<circle cx="1028" cy="693" r="3.0" fill="#fcd34d" opacity="0.45" />
<circle cx="857" cy="864" r="2.3" fill="#fcd34d" opacity="0.40" />
<circle cx="838" cy="683" r="1.2" fill="#fcd34d" opacity="0.59" />
<circle cx="1018" cy="575" r="1.2" fill="#fcd34d" opacity="0.37" />
<circle cx="1037" cy="756" r="2.3" fill="#fcd34d" opacity="0.18" />
<circle cx="980" cy="213" r="1.0" fill="#fcd34d" opacity="0.49" />
<circle cx="999" cy="394" r="2.1" fill="#fcd34d" opacity="0.30" />
<circle cx="942" cy="399" r="1.6" fill="#fcd34d" opacity="0.61" />
<circle cx="961" cy="580" r="2.7" fill="#fcd34d" opacity="0.42" />
<circle cx="904" cy="37" r="1.4" fill="#fcd34d" opacity="0.23" />
<circle cx="923" cy="218" r="2.5" fill="#fcd34d" opacity="0.54" />
<circle cx="866" cy="223" r="2.8" fill="#fcd34d" opacity="0.35" />
<circle cx="885" cy="404" r="1.5" fill="#fcd34d" opacity="0.66" />
<circle cx="355" cy="366" r="2.9" fill="#fcd34d" opacity="0.28" />
<circle cx="336" cy="185" r="1.8" fill="#fcd34d" opacity="0.47" />
<circle cx="393" cy="728" r="3.1" fill="#fcd34d" opacity="0.66" />
<circle cx="374" cy="547" r="2.0" fill="#fcd34d" opacity="0.35" />
<circle cx="431" cy="542" r="0.9" fill="#fcd34d" opacity="0.52" />
<circle cx="412" cy="361" r="2.2" fill="#fcd34d" opacity="0.21" />
<circle cx="469" cy="4" r="1.1" fill="#fcd34d" opacity="0.40" />
<circle cx="450" cy="723" r="2.4" fill="#fcd34d" opacity="0.59" />
<circle cx="507" cy="14" r="2.1" fill="#fcd34d" opacity="0.26" />
<circle cx="488" cy="733" r="1.0" fill="#fcd34d" opacity="0.45" />
<circle cx="364" cy="161" r="2.6" fill="#fcd34d" opacity="0.37" />
<circle cx="383" cy="342" r="1.3" fill="#fcd34d" opacity="0.18" />
<circle cx="402" cy="523" r="2.8" fill="#fcd34d" opacity="0.25" />
<circle cx="421" cy="704" r="1.5" fill="#fcd34d" opacity="0.56" />
<circle cx="288" cy="337" r="3.0" fill="#fcd34d" opacity="0.63" />
<circle cx="307" cy="518" r="1.7" fill="#fcd34d" opacity="0.44" />
<circle cx="326" cy="699" r="0.8" fill="#fcd34d" opacity="0.51" />
<circle cx="345" cy="880" r="1.9" fill="#fcd34d" opacity="0.32" />
<circle cx="516" cy="709" r="1.0" fill="#fcd34d" opacity="0.35" />
<circle cx="535" cy="890" r="2.1" fill="#fcd34d" opacity="0.66" />
<circle cx="373" cy="852" r="2.7" fill="#fcd34d" opacity="0.28" />
<circle cx="354" cy="671" r="1.6" fill="#fcd34d" opacity="0.47" />
<circle cx="335" cy="490" r="2.5" fill="#fcd34d" opacity="0.40" />
<circle cx="316" cy="309" r="1.4" fill="#fcd34d" opacity="0.59" />
<circle cx="297" cy="128" r="2.3" fill="#fcd34d" opacity="0.52" />
<circle cx="278" cy="847" r="1.2" fill="#fcd34d" opacity="0.21" />
<circle cx="259" cy="666" r="2.1" fill="#fcd34d" opacity="0.64" />
<circle cx="240" cy="485" r="1.0" fill="#fcd34d" opacity="0.33" />
<circle cx="525" cy="500" r="1.9" fill="#fcd34d" opacity="0.30" />
<circle cx="506" cy="319" r="0.8" fill="#fcd34d" opacity="0.49" />
<circle cx="382" cy="303" r="1.6" fill="#fcd34d" opacity="0.19" />
<circle cx="401" cy="484" r="2.7" fill="#fcd34d" opacity="0.50" />
<circle cx="344" cy="841" r="1.4" fill="#fcd34d" opacity="0.31" />
<circle cx="363" cy="122" r="2.5" fill="#fcd34d" opacity="0.62" />
<circle cx="458" cy="479" r="1.2" fill="#fcd34d" opacity="0.45" />
<circle cx="477" cy="660" r="2.3" fill="#fcd34d" opacity="0.26" />
<circle cx="420" cy="117" r="1.0" fill="#fcd34d" opacity="0.57" />
<circle cx="439" cy="298" r="2.1" fill="#fcd34d" opacity="0.38" /></g>
  <circle cx="430" cy="321" r="230" fill="#c4b5fd" opacity="0.08"/>
  <circle cx="1092" cy="668" r="275" fill="#fcd34d" opacity="0.08"/>
  <g filter="url(#softGlow)">
    
    <ellipse cx="800" cy="285" rx="16" ry="90" fill="#c4b5fd" opacity="0.22" transform="rotate(0 800 460)" />
<ellipse cx="800" cy="285" rx="16" ry="90" fill="#c4b5fd" opacity="0.22" transform="rotate(11.25 800 460)" />
<ellipse cx="800" cy="285" rx="16" ry="90" fill="#c4b5fd" opacity="0.22" transform="rotate(22.5 800 460)" />
<ellipse cx="800" cy="285" rx="16" ry="90" fill="#c4b5fd" opacity="0.22" transform="rotate(33.75 800 460)" />
<ellipse cx="800" cy="285" rx="16" ry="90" fill="#c4b5fd" opacity="0.22" transform="rotate(45 800 460)" />
<ellipse cx="800" cy="285" rx="16" ry="90" fill="#c4b5fd" opacity="0.22" transform="rotate(56.25 800 460)" />
<ellipse cx="800" cy="285" rx="16" ry="90" fill="#c4b5fd" opacity="0.22" transform="rotate(67.5 800 460)" />
<ellipse cx="800" cy="285" rx="16" ry="90" fill="#c4b5fd" opacity="0.22" transform="rotate(78.75 800 460)" />
<ellipse cx="800" cy="285" rx="16" ry="90" fill="#c4b5fd" opacity="0.22" transform="rotate(90 800 460)" />
<ellipse cx="800" cy="285" rx="16" ry="90" fill="#c4b5fd" opacity="0.22" transform="rotate(101.25 800 460)" />
<ellipse cx="800" cy="285" rx="16" ry="90" fill="#c4b5fd" opacity="0.22" transform="rotate(112.5 800 460)" />
<ellipse cx="800" cy="285" rx="16" ry="90" fill="#c4b5fd" opacity="0.22" transform="rotate(123.75 800 460)" />
<ellipse cx="800" cy="285" rx="16" ry="90" fill="#c4b5fd" opacity="0.22" transform="rotate(135 800 460)" />
<ellipse cx="800" cy="285" rx="16" ry="90" fill="#c4b5fd" opacity="0.22" transform="rotate(146.25 800 460)" />
<ellipse cx="800" cy="285" rx="16" ry="90" fill="#c4b5fd" opacity="0.22" transform="rotate(157.5 800 460)" />
<ellipse cx="800" cy="285" rx="16" ry="90" fill="#c4b5fd" opacity="0.22" transform="rotate(168.75 800 460)" />
<ellipse cx="800" cy="285" rx="16" ry="90" fill="#c4b5fd" opacity="0.22" transform="rotate(180 800 460)" />
<ellipse cx="800" cy="285" rx="16" ry="90" fill="#c4b5fd" opacity="0.22" transform="rotate(191.25 800 460)" />
<ellipse cx="800" cy="285" rx="16" ry="90" fill="#c4b5fd" opacity="0.22" transform="rotate(202.5 800 460)" />
<ellipse cx="800" cy="285" rx="16" ry="90" fill="#c4b5fd" opacity="0.22" transform="rotate(213.75 800 460)" />
<ellipse cx="800" cy="285" rx="16" ry="90" fill="#c4b5fd" opacity="0.22" transform="rotate(225 800 460)" />
<ellipse cx="800" cy="285" rx="16" ry="90" fill="#c4b5fd" opacity="0.22" transform="rotate(236.25 800 460)" />
<ellipse cx="800" cy="285" rx="16" ry="90" fill="#c4b5fd" opacity="0.22" transform="rotate(247.5 800 460)" />
<ellipse cx="800" cy="285" rx="16" ry="90" fill="#c4b5fd" opacity="0.22" transform="rotate(258.75 800 460)" />
<ellipse cx="800" cy="285" rx="16" ry="90" fill="#c4b5fd" opacity="0.22" transform="rotate(270 800 460)" />
<ellipse cx="800" cy="285" rx="16" ry="90" fill="#c4b5fd" opacity="0.22" transform="rotate(281.25 800 460)" />
<ellipse cx="800" cy="285" rx="16" ry="90" fill="#c4b5fd" opacity="0.22" transform="rotate(292.5 800 460)" />
<ellipse cx="800" cy="285" rx="16" ry="90" fill="#c4b5fd" opacity="0.22" transform="rotate(303.75 800 460)" />
<ellipse cx="800" cy="285" rx="16" ry="90" fill="#c4b5fd" opacity="0.22" transform="rotate(315 800 460)" />
<ellipse cx="800" cy="285" rx="16" ry="90" fill="#c4b5fd" opacity="0.22" transform="rotate(326.25 800 460)" />
<ellipse cx="800" cy="285" rx="16" ry="90" fill="#c4b5fd" opacity="0.22" transform="rotate(337.5 800 460)" />
<ellipse cx="800" cy="285" rx="16" ry="90" fill="#c4b5fd" opacity="0.22" transform="rotate(348.75 800 460)" />
    <ellipse cx="800" cy="348" rx="20" ry="72" fill="#fcd34d" opacity="0.32" transform="rotate(0 800 460)" />
<ellipse cx="800" cy="348" rx="20" ry="72" fill="#fcd34d" opacity="0.32" transform="rotate(20 800 460)" />
<ellipse cx="800" cy="348" rx="20" ry="72" fill="#fcd34d" opacity="0.32" transform="rotate(40 800 460)" />
<ellipse cx="800" cy="348" rx="20" ry="72" fill="#fcd34d" opacity="0.32" transform="rotate(60 800 460)" />
<ellipse cx="800" cy="348" rx="20" ry="72" fill="#fcd34d" opacity="0.32" transform="rotate(80 800 460)" />
<ellipse cx="800" cy="348" rx="20" ry="72" fill="#fcd34d" opacity="0.32" transform="rotate(100 800 460)" />
<ellipse cx="800" cy="348" rx="20" ry="72" fill="#fcd34d" opacity="0.32" transform="rotate(120 800 460)" />
<ellipse cx="800" cy="348" rx="20" ry="72" fill="#fcd34d" opacity="0.32" transform="rotate(140 800 460)" />
<ellipse cx="800" cy="348" rx="20" ry="72" fill="#fcd34d" opacity="0.32" transform="rotate(160 800 460)" />
<ellipse cx="800" cy="348" rx="20" ry="72" fill="#fcd34d" opacity="0.32" transform="rotate(180 800 460)" />
<ellipse cx="800" cy="348" rx="20" ry="72" fill="#fcd34d" opacity="0.32" transform="rotate(200 800 460)" />
<ellipse cx="800" cy="348" rx="20" ry="72" fill="#fcd34d" opacity="0.32" transform="rotate(220 800 460)" />
<ellipse cx="800" cy="348" rx="20" ry="72" fill="#fcd34d" opacity="0.32" transform="rotate(240 800 460)" />
<ellipse cx="800" cy="348" rx="20" ry="72" fill="#fcd34d" opacity="0.32" transform="rotate(260 800 460)" />
<ellipse cx="800" cy="348" rx="20" ry="72" fill="#fcd34d" opacity="0.32" transform="rotate(280 800 460)" />
<ellipse cx="800" cy="348" rx="20" ry="72" fill="#fcd34d" opacity="0.32" transform="rotate(300 800 460)" />
<ellipse cx="800" cy="348" rx="20" ry="72" fill="#fcd34d" opacity="0.32" transform="rotate(320 800 460)" />
<ellipse cx="800" cy="348" rx="20" ry="72" fill="#fcd34d" opacity="0.32" transform="rotate(340 800 460)" />
    <circle cx="800" cy="460" r="140" fill="url(#glassOrb)" opacity="0.78"/>
    <text x="800" y="525" text-anchor="middle" font-family="Georgia, 'Noto Serif Devanagari', serif" font-size="210" font-weight="700" fill="#fff7ed" opacity="0.9">ॐ</text>
  
  </g>
  <g opacity="0.78">
    <rect x="88" y="82" width="1424" height="736" rx="46" fill="none" stroke="#ffffff" stroke-opacity="0.2" stroke-width="2"/>
    <path d="M150 150 C320 82 525 78 720 126" stroke="#fff7ed" stroke-opacity="0.44" stroke-width="7" stroke-linecap="round"/>
    <path d="M1332 710 C1215 775 1005 792 855 752" stroke="#c4b5fd" stroke-opacity="0.42" stroke-width="8" stroke-linecap="round"/>
  </g>
  <g transform="translate(126 714)">
    <rect width="420" height="86" rx="28" fill="#ffffff" opacity="0.12"/>
    <rect x="1" y="1" width="418" height="84" rx="27" fill="none" stroke="#ffffff" stroke-opacity="0.22"/>
    <text x="36" y="56" font-family="Georgia, 'Noto Serif Devanagari', serif" font-size="40" font-weight="700" fill="#fff7ed">ॐ</text>
    <circle cx="352" cy="43" r="15" fill="#c4b5fd" opacity="0.9"/>
  </g>
  <rect width="1600" height="900" filter="url(#grain)" opacity="0.34"/>
</svg>
