<svg xmlns="http://www.w3.org/2000/svg" width="1600" height="900" viewBox="0 0 1600 900" role="img" aria-label="काशी (वाराणसी) का रहस्य: भगवान शिव के त्रिशूल पर बसी पावन नगरी">
  <defs>
    <radialGradient id="bgGlow" cx="50%" cy="43%" r="75%">
      <stop offset="0%" stop-color="#6ee7f9" stop-opacity="0.46"/>
      <stop offset="45%" stop-color="#19233f" stop-opacity="0.92"/>
      <stop offset="100%" stop-color="#07111f"/>
    </radialGradient>
    <linearGradient id="glassPanel" x1="0%" y1="0%" x2="100%" y2="100%">
      <stop offset="0%" stop-color="#ffffff" stop-opacity="0.58"/>
      <stop offset="42%" stop-color="#6ee7f9" stop-opacity="0.22"/>
      <stop offset="100%" stop-color="#ffffff" stop-opacity="0.08"/>
    </linearGradient>
    <radialGradient id="glassOrb" cx="34%" cy="24%" r="68%">
      <stop offset="0%" stop-color="#ffffff" stop-opacity="0.94"/>
      <stop offset="34%" stop-color="#6ee7f9" stop-opacity="0.62"/>
      <stop offset="100%" stop-color="#19233f" stop-opacity="0.22"/>
    </radialGradient>
    <linearGradient id="glassMountain" x1="0%" y1="0%" x2="100%" y2="100%">
      <stop offset="0%" stop-color="#ffffff" stop-opacity="0.48"/>
      <stop offset="100%" stop-color="#6ee7f9" stop-opacity="0.22"/>
    </linearGradient>
    <filter id="softGlow" x="-30%" y="-30%" width="160%" height="160%">
      <feGaussianBlur stdDeviation="18" result="blur"/>
      <feColorMatrix in="blur" type="matrix" values="1 0 0 0 0  0 1 0 0 0  0 0 1 0 0  0 0 0 0.75 0"/>
      <feMerge>
        <feMergeNode/>
        <feMergeNode in="SourceGraphic"/>
      </feMerge>
    </filter>
    <filter id="grain">
      <feTurbulence type="fractalNoise" baseFrequency="0.82" numOctaves="3" seed="389"/>
      <feColorMatrix type="saturate" values="0"/>
      <feComponentTransfer>
        <feFuncA type="table" tableValues="0 0.075"/>
      </feComponentTransfer>
    </filter>
  </defs>
  <rect width="1600" height="900" fill="url(#bgGlow)"/>
  <g opacity="0.72"><circle cx="194" cy="233" r="2.4" fill="#c4b5fd" opacity="0.29" />
<circle cx="213" cy="414" r="1.1" fill="#c4b5fd" opacity="0.60" />
<circle cx="156" cy="595" r="2.2" fill="#c4b5fd" opacity="0.67" />
<circle cx="175" cy="776" r="0.9" fill="#c4b5fd" opacity="0.48" />
<circle cx="118" cy="409" r="2.0" fill="#c4b5fd" opacity="0.55" />
<circle cx="137" cy="590" r="3.1" fill="#c4b5fd" opacity="0.36" />
<circle cx="80" cy="771" r="1.8" fill="#c4b5fd" opacity="0.43" />
<circle cx="99" cy="52" r="2.9" fill="#c4b5fd" opacity="0.24" />
<circle cx="346" cy="585" r="1.6" fill="#c4b5fd" opacity="0.31" />
<circle cx="365" cy="766" r="2.7" fill="#c4b5fd" opacity="0.62" />
<circle cx="1535" cy="810" r="2.5" fill="#c4b5fd" opacity="0.42" />
<circle cx="1516" cy="629" r="1.4" fill="#c4b5fd" opacity="0.61" />
<circle cx="1573" cy="272" r="2.7" fill="#c4b5fd" opacity="0.30" />
<circle cx="1554" cy="91" r="1.6" fill="#c4b5fd" opacity="0.49" />
<circle cx="1459" cy="634" r="2.1" fill="#c4b5fd" opacity="0.18" />
<circle cx="1440" cy="453" r="1.0" fill="#c4b5fd" opacity="0.37" />
<circle cx="1497" cy="96" r="2.3" fill="#c4b5fd" opacity="0.56" />
<circle cx="1478" cy="815" r="1.2" fill="#c4b5fd" opacity="0.25" />
<circle cx="87" cy="262" r="1.7" fill="#c4b5fd" opacity="0.44" />
<circle cx="68" cy="81" r="3.0" fill="#c4b5fd" opacity="0.63" />
<circle cx="1284" cy="601" r="1.8" fill="#c4b5fd" opacity="0.55" />
<circle cx="1303" cy="782" r="2.9" fill="#c4b5fd" opacity="0.36" />
<circle cx="1322" cy="63" r="2.0" fill="#c4b5fd" opacity="0.43" />
<circle cx="1341" cy="244" r="3.1" fill="#c4b5fd" opacity="0.24" />
<circle cx="1208" cy="777" r="2.2" fill="#c4b5fd" opacity="0.31" />
<circle cx="1227" cy="58" r="0.9" fill="#c4b5fd" opacity="0.62" />
<circle cx="1246" cy="239" r="2.4" fill="#c4b5fd" opacity="0.19" />
<circle cx="1265" cy="420" r="1.1" fill="#c4b5fd" opacity="0.50" />
<circle cx="1132" cy="53" r="1.0" fill="#c4b5fd" opacity="0.53" />
<circle cx="1151" cy="234" r="2.1" fill="#c4b5fd" opacity="0.34" />
<circle cx="1293" cy="392" r="1.1" fill="#c4b5fd" opacity="0.46" />
<circle cx="1274" cy="211" r="2.4" fill="#c4b5fd" opacity="0.65" />
<circle cx="1255" cy="30" r="0.9" fill="#c4b5fd" opacity="0.58" />
<circle cx="1236" cy="749" r="2.2" fill="#c4b5fd" opacity="0.27" />
<circle cx="1217" cy="568" r="3.1" fill="#c4b5fd" opacity="0.20" />
<circle cx="1198" cy="387" r="2.0" fill="#c4b5fd" opacity="0.39" />
<circle cx="1179" cy="206" r="2.9" fill="#c4b5fd" opacity="0.32" />
<circle cx="1160" cy="25" r="1.8" fill="#c4b5fd" opacity="0.51" />
<circle cx="1141" cy="744" r="1.9" fill="#c4b5fd" opacity="0.48" />
<circle cx="1122" cy="563" r="0.8" fill="#c4b5fd" opacity="0.67" />
<circle cx="1330" cy="115" r="2.8" fill="#c4b5fd" opacity="0.23" />
<circle cx="1349" cy="296" r="1.5" fill="#c4b5fd" opacity="0.54" />
<circle cx="1292" cy="653" r="2.6" fill="#c4b5fd" opacity="0.35" />
<circle cx="1311" cy="834" r="1.3" fill="#c4b5fd" opacity="0.66" />
<circle cx="1254" cy="839" r="0.8" fill="#c4b5fd" opacity="0.47" />
<circle cx="1273" cy="120" r="1.9" fill="#c4b5fd" opacity="0.28" />
<circle cx="1216" cy="477" r="3.0" fill="#c4b5fd" opacity="0.59" />
<circle cx="1235" cy="658" r="1.7" fill="#c4b5fd" opacity="0.40" />
<circle cx="1482" cy="467" r="1.2" fill="#c4b5fd" opacity="0.21" />
<circle cx="1501" cy="648" r="2.3" fill="#c4b5fd" opacity="0.52" />
<circle cx="1275" cy="806" r="2.1" fill="#c4b5fd" opacity="0.64" />
<circle cx="1256" cy="625" r="1.0" fill="#c4b5fd" opacity="0.33" />
<circle cx="1313" cy="268" r="2.3" fill="#c4b5fd" opacity="0.52" />
<circle cx="1294" cy="87" r="1.2" fill="#c4b5fd" opacity="0.21" />
<circle cx="1351" cy="82" r="2.5" fill="#c4b5fd" opacity="0.38" />
<circle cx="1332" cy="801" r="1.4" fill="#c4b5fd" opacity="0.57" />
<circle cx="1389" cy="444" r="2.7" fill="#c4b5fd" opacity="0.26" />
<circle cx="1370" cy="263" r="1.6" fill="#c4b5fd" opacity="0.45" />
<circle cx="1123" cy="258" r="2.9" fill="#c4b5fd" opacity="0.62" />
<circle cx="1104" cy="77" r="1.8" fill="#c4b5fd" opacity="0.31" />
<circle cx="1312" cy="873" r="2.2" fill="#c4b5fd" opacity="0.65" />
<circle cx="1331" cy="154" r="0.9" fill="#c4b5fd" opacity="0.46" />
<circle cx="1350" cy="335" r="2.4" fill="#c4b5fd" opacity="0.53" />
<circle cx="1369" cy="516" r="1.1" fill="#c4b5fd" opacity="0.34" />
<circle cx="1388" cy="697" r="1.8" fill="#c4b5fd" opacity="0.39" />
<circle cx="1407" cy="878" r="2.9" fill="#c4b5fd" opacity="0.20" />
<circle cx="1426" cy="159" r="2.0" fill="#c4b5fd" opacity="0.27" />
<circle cx="1445" cy="340" r="3.1" fill="#c4b5fd" opacity="0.58" /></g>
  <circle cx="480" cy="327" r="230" fill="#6ee7f9" opacity="0.08"/>
  <circle cx="1178" cy="698" r="275" fill="#c4b5fd" opacity="0.08"/>
  <g filter="url(#softGlow)">
    
      <path d="M0 760 L260 430 L420 630 L620 315 L860 710 L1100 390 L1370 760 Z" fill="url(#glassMountain)" opacity="0.72"/>
      <path d="M586 360 L620 315 L654 360 L632 350 L620 385 L607 350 Z" fill="#f8fafc" opacity="0.88"/>
      <path d="M1062 442 L1100 390 L1140 446 L1118 432 L1100 472 L1084 432 Z" fill="#f8fafc" opacity="0.82"/>
      <path d="M778 225 v285 M708 332 h140 M738 275 q40 28 80 0" stroke="#c4b5fd" stroke-width="22" stroke-linecap="round" fill="none" opacity="0.84"/>
    
  </g>
  <g opacity="0.78">
    <rect x="88" y="82" width="1424" height="736" rx="46" fill="none" stroke="#ffffff" stroke-opacity="0.2" stroke-width="2"/>
    <path d="M150 150 C320 82 525 78 720 126" stroke="#fff7ed" stroke-opacity="0.44" stroke-width="7" stroke-linecap="round"/>
    <path d="M1332 710 C1215 775 1005 792 855 752" stroke="#6ee7f9" stroke-opacity="0.42" stroke-width="8" stroke-linecap="round"/>
  </g>
  <g transform="translate(126 714)">
    <rect width="420" height="86" rx="28" fill="#ffffff" opacity="0.12"/>
    <rect x="1" y="1" width="418" height="84" rx="27" fill="none" stroke="#ffffff" stroke-opacity="0.22"/>
    <text x="36" y="56" font-family="Georgia, 'Noto Serif Devanagari', serif" font-size="40" font-weight="700" fill="#fff7ed">त्रिशूल</text>
    <circle cx="352" cy="43" r="15" fill="#6ee7f9" opacity="0.9"/>
  </g>
  <rect width="1600" height="900" filter="url(#grain)" opacity="0.34"/>
</svg>
