<svg xmlns="http://www.w3.org/2000/svg" width="1600" height="900" viewBox="0 0 1600 900" role="img" aria-label="श्री कृष्ण की 16 कलाएँ: अर्थ, रहस्य और सोलह कलाओं का आध्यात्मिक व व्यावहारिक महत्व">
  <defs>
    <radialGradient id="bgGlow" cx="50%" cy="43%" r="75%">
      <stop offset="0%" stop-color="#7dd3fc" stop-opacity="0.46"/>
      <stop offset="45%" stop-color="#0f3a5f" stop-opacity="0.92"/>
      <stop offset="100%" stop-color="#06152f"/>
    </radialGradient>
    <linearGradient id="glassPanel" x1="0%" y1="0%" x2="100%" y2="100%">
      <stop offset="0%" stop-color="#ffffff" stop-opacity="0.58"/>
      <stop offset="42%" stop-color="#7dd3fc" stop-opacity="0.22"/>
      <stop offset="100%" stop-color="#ffffff" stop-opacity="0.08"/>
    </linearGradient>
    <radialGradient id="glassOrb" cx="34%" cy="24%" r="68%">
      <stop offset="0%" stop-color="#ffffff" stop-opacity="0.94"/>
      <stop offset="34%" stop-color="#7dd3fc" stop-opacity="0.62"/>
      <stop offset="100%" stop-color="#0f3a5f" stop-opacity="0.22"/>
    </radialGradient>
    <linearGradient id="glassMountain" x1="0%" y1="0%" x2="100%" y2="100%">
      <stop offset="0%" stop-color="#ffffff" stop-opacity="0.48"/>
      <stop offset="100%" stop-color="#7dd3fc" stop-opacity="0.22"/>
    </linearGradient>
    <filter id="softGlow" x="-30%" y="-30%" width="160%" height="160%">
      <feGaussianBlur stdDeviation="18" result="blur"/>
      <feColorMatrix in="blur" type="matrix" values="1 0 0 0 0  0 1 0 0 0  0 0 1 0 0  0 0 0 0.75 0"/>
      <feMerge>
        <feMergeNode/>
        <feMergeNode in="SourceGraphic"/>
      </feMerge>
    </filter>
    <filter id="grain">
      <feTurbulence type="fractalNoise" baseFrequency="0.82" numOctaves="3" seed="640"/>
      <feColorMatrix type="saturate" values="0"/>
      <feComponentTransfer>
        <feFuncA type="table" tableValues="0 0.075"/>
      </feComponentTransfer>
    </filter>
  </defs>
  <rect width="1600" height="900" fill="url(#bgGlow)"/>
  <g opacity="0.72"><circle cx="786" cy="349" r="0.8" fill="#facc15" opacity="0.65" />
<circle cx="805" cy="530" r="1.9" fill="#facc15" opacity="0.46" />
<circle cx="748" cy="711" r="3.0" fill="#facc15" opacity="0.53" />
<circle cx="767" cy="892" r="1.7" fill="#facc15" opacity="0.34" />
<circle cx="710" cy="525" r="2.8" fill="#facc15" opacity="0.41" />
<circle cx="729" cy="706" r="1.5" fill="#facc15" opacity="0.22" />
<circle cx="672" cy="887" r="2.6" fill="#facc15" opacity="0.29" />
<circle cx="691" cy="168" r="1.3" fill="#facc15" opacity="0.60" />
<circle cx="938" cy="701" r="2.4" fill="#facc15" opacity="0.67" />
<circle cx="957" cy="882" r="1.1" fill="#facc15" opacity="0.48" />
<circle cx="1551" cy="666" r="2.5" fill="#facc15" opacity="0.34" />
<circle cx="1532" cy="485" r="1.4" fill="#facc15" opacity="0.53" />
<circle cx="1589" cy="128" r="2.7" fill="#facc15" opacity="0.22" />
<circle cx="1570" cy="847" r="1.6" fill="#facc15" opacity="0.41" />
<circle cx="1475" cy="490" r="2.1" fill="#facc15" opacity="0.60" />
<circle cx="1456" cy="309" r="1.0" fill="#facc15" opacity="0.29" />
<circle cx="1513" cy="852" r="2.3" fill="#facc15" opacity="0.48" />
<circle cx="1494" cy="671" r="1.2" fill="#facc15" opacity="0.67" />
<circle cx="103" cy="118" r="1.7" fill="#facc15" opacity="0.36" />
<circle cx="84" cy="837" r="3.0" fill="#facc15" opacity="0.55" />
<circle cx="1300" cy="225" r="1.8" fill="#facc15" opacity="0.47" />
<circle cx="1319" cy="406" r="2.9" fill="#facc15" opacity="0.28" />
<circle cx="1338" cy="587" r="2.0" fill="#facc15" opacity="0.35" />
<circle cx="1357" cy="768" r="3.1" fill="#facc15" opacity="0.66" />
<circle cx="1224" cy="401" r="2.2" fill="#facc15" opacity="0.23" />
<circle cx="1243" cy="582" r="0.9" fill="#facc15" opacity="0.54" />
<circle cx="1262" cy="763" r="2.4" fill="#facc15" opacity="0.61" />
<circle cx="1281" cy="44" r="1.1" fill="#facc15" opacity="0.42" />
<circle cx="1148" cy="577" r="1.0" fill="#facc15" opacity="0.45" />
<circle cx="1167" cy="758" r="2.1" fill="#facc15" opacity="0.26" />
<circle cx="1309" cy="16" r="1.1" fill="#facc15" opacity="0.52" />
<circle cx="1290" cy="735" r="2.4" fill="#facc15" opacity="0.21" />
<circle cx="1271" cy="554" r="0.9" fill="#facc15" opacity="0.64" />
<circle cx="1252" cy="373" r="2.2" fill="#facc15" opacity="0.33" />
<circle cx="1233" cy="192" r="3.1" fill="#facc15" opacity="0.26" />
<circle cx="1214" cy="11" r="2.0" fill="#facc15" opacity="0.45" />
<circle cx="1195" cy="730" r="2.9" fill="#facc15" opacity="0.38" />
<circle cx="1176" cy="549" r="1.8" fill="#facc15" opacity="0.57" />
<circle cx="1157" cy="368" r="1.9" fill="#facc15" opacity="0.54" />
<circle cx="1138" cy="187" r="0.8" fill="#facc15" opacity="0.23" />
<circle cx="1282" cy="639" r="2.8" fill="#facc15" opacity="0.65" />
<circle cx="1301" cy="820" r="1.5" fill="#facc15" opacity="0.46" />
<circle cx="1244" cy="277" r="2.6" fill="#facc15" opacity="0.27" />
<circle cx="1263" cy="458" r="1.3" fill="#facc15" opacity="0.58" />
<circle cx="1206" cy="463" r="0.8" fill="#facc15" opacity="0.39" />
<circle cx="1225" cy="644" r="1.9" fill="#facc15" opacity="0.20" />
<circle cx="1168" cy="101" r="3.0" fill="#facc15" opacity="0.51" />
<circle cx="1187" cy="282" r="1.7" fill="#facc15" opacity="0.32" />
<circle cx="1434" cy="91" r="1.2" fill="#facc15" opacity="0.63" />
<circle cx="1453" cy="272" r="2.3" fill="#facc15" opacity="0.44" />
<circle cx="1291" cy="430" r="2.1" fill="#facc15" opacity="0.56" />
<circle cx="1272" cy="249" r="1.0" fill="#facc15" opacity="0.25" />
<circle cx="1329" cy="792" r="2.3" fill="#facc15" opacity="0.44" />
<circle cx="1310" cy="611" r="1.2" fill="#facc15" opacity="0.63" />
<circle cx="1367" cy="606" r="2.5" fill="#facc15" opacity="0.30" />
<circle cx="1348" cy="425" r="1.4" fill="#facc15" opacity="0.49" />
<circle cx="1405" cy="68" r="2.7" fill="#facc15" opacity="0.18" />
<circle cx="1386" cy="787" r="1.6" fill="#facc15" opacity="0.37" />
<circle cx="1139" cy="782" r="2.9" fill="#facc15" opacity="0.54" />
<circle cx="1120" cy="601" r="1.8" fill="#facc15" opacity="0.23" />
<circle cx="1328" cy="497" r="2.2" fill="#facc15" opacity="0.57" />
<circle cx="1347" cy="678" r="0.9" fill="#facc15" opacity="0.38" />
<circle cx="1366" cy="859" r="2.4" fill="#facc15" opacity="0.45" />
<circle cx="1385" cy="140" r="1.1" fill="#facc15" opacity="0.26" />
<circle cx="1404" cy="321" r="1.8" fill="#facc15" opacity="0.31" />
<circle cx="1423" cy="502" r="2.9" fill="#facc15" opacity="0.62" />
<circle cx="1442" cy="683" r="2.0" fill="#facc15" opacity="0.19" />
<circle cx="1461" cy="864" r="3.1" fill="#facc15" opacity="0.50" /></g>
  <circle cx="444" cy="311" r="230" fill="#7dd3fc" opacity="0.08"/>
  <circle cx="1162" cy="682" r="275" fill="#facc15" opacity="0.08"/>
  <g filter="url(#softGlow)">
    
      <circle cx="775" cy="430" r="185" fill="none" stroke="#facc15" stroke-width="20" opacity="0.78"/>
      <line x1="775" y1="430" x2="775" y2="245" stroke="#facc15" stroke-width="7" opacity="0.58" transform="rotate(0 775 430)" />
<line x1="775" y1="430" x2="775" y2="245" stroke="#facc15" stroke-width="7" opacity="0.58" transform="rotate(15 775 430)" />
<line x1="775" y1="430" x2="775" y2="245" stroke="#facc15" stroke-width="7" opacity="0.58" transform="rotate(30 775 430)" />
<line x1="775" y1="430" x2="775" y2="245" stroke="#facc15" stroke-width="7" opacity="0.58" transform="rotate(45 775 430)" />
<line x1="775" y1="430" x2="775" y2="245" stroke="#facc15" stroke-width="7" opacity="0.58" transform="rotate(60 775 430)" />
<line x1="775" y1="430" x2="775" y2="245" stroke="#facc15" stroke-width="7" opacity="0.58" transform="rotate(75 775 430)" />
<line x1="775" y1="430" x2="775" y2="245" stroke="#facc15" stroke-width="7" opacity="0.58" transform="rotate(90 775 430)" />
<line x1="775" y1="430" x2="775" y2="245" stroke="#facc15" stroke-width="7" opacity="0.58" transform="rotate(105 775 430)" />
<line x1="775" y1="430" x2="775" y2="245" stroke="#facc15" stroke-width="7" opacity="0.58" transform="rotate(120 775 430)" />
<line x1="775" y1="430" x2="775" y2="245" stroke="#facc15" stroke-width="7" opacity="0.58" transform="rotate(135 775 430)" />
<line x1="775" y1="430" x2="775" y2="245" stroke="#facc15" stroke-width="7" opacity="0.58" transform="rotate(150 775 430)" />
<line x1="775" y1="430" x2="775" y2="245" stroke="#facc15" stroke-width="7" opacity="0.58" transform="rotate(165 775 430)" />
<line x1="775" y1="430" x2="775" y2="245" stroke="#facc15" stroke-width="7" opacity="0.58" transform="rotate(180 775 430)" />
<line x1="775" y1="430" x2="775" y2="245" stroke="#facc15" stroke-width="7" opacity="0.58" transform="rotate(195 775 430)" />
<line x1="775" y1="430" x2="775" y2="245" stroke="#facc15" stroke-width="7" opacity="0.58" transform="rotate(210 775 430)" />
<line x1="775" y1="430" x2="775" y2="245" stroke="#facc15" stroke-width="7" opacity="0.58" transform="rotate(225 775 430)" />
<line x1="775" y1="430" x2="775" y2="245" stroke="#facc15" stroke-width="7" opacity="0.58" transform="rotate(240 775 430)" />
<line x1="775" y1="430" x2="775" y2="245" stroke="#facc15" stroke-width="7" opacity="0.58" transform="rotate(255 775 430)" />
<line x1="775" y1="430" x2="775" y2="245" stroke="#facc15" stroke-width="7" opacity="0.58" transform="rotate(270 775 430)" />
<line x1="775" y1="430" x2="775" y2="245" stroke="#facc15" stroke-width="7" opacity="0.58" transform="rotate(285 775 430)" />
<line x1="775" y1="430" x2="775" y2="245" stroke="#facc15" stroke-width="7" opacity="0.58" transform="rotate(300 775 430)" />
<line x1="775" y1="430" x2="775" y2="245" stroke="#facc15" stroke-width="7" opacity="0.58" transform="rotate(315 775 430)" />
<line x1="775" y1="430" x2="775" y2="245" stroke="#facc15" stroke-width="7" opacity="0.58" transform="rotate(330 775 430)" />
<line x1="775" y1="430" x2="775" y2="245" stroke="#facc15" stroke-width="7" opacity="0.58" transform="rotate(345 775 430)" />
      <circle cx="775" cy="430" r="64" fill="url(#glassOrb)" opacity="0.92"/>
      <path d="M545 585 C660 525 940 525 1055 585 C975 655 625 655 545 585 Z" fill="#7dd3fc" opacity="0.18"/>
    
  </g>
  <g opacity="0.78">
    <rect x="88" y="82" width="1424" height="736" rx="46" fill="none" stroke="#ffffff" stroke-opacity="0.2" stroke-width="2"/>
    <path d="M150 150 C320 82 525 78 720 126" stroke="#fff7ed" stroke-opacity="0.44" stroke-width="7" stroke-linecap="round"/>
    <path d="M1332 710 C1215 775 1005 792 855 752" stroke="#7dd3fc" stroke-opacity="0.42" stroke-width="8" stroke-linecap="round"/>
  </g>
  <g transform="translate(126 714)">
    <rect width="420" height="86" rx="28" fill="#ffffff" opacity="0.12"/>
    <rect x="1" y="1" width="418" height="84" rx="27" fill="none" stroke="#ffffff" stroke-opacity="0.22"/>
    <text x="36" y="56" font-family="Georgia, 'Noto Serif Devanagari', serif" font-size="40" font-weight="700" fill="#fff7ed">चक्र</text>
    <circle cx="352" cy="43" r="15" fill="#7dd3fc" opacity="0.9"/>
  </g>
  <rect width="1600" height="900" filter="url(#grain)" opacity="0.34"/>
</svg>
