<svg xmlns="http://www.w3.org/2000/svg" width="1600" height="900" viewBox="0 0 1600 900" role="img" aria-label="कुंभ मेला: दुनिया का सबसे बड़ा शांतिपूर्ण जन-आंदोलन और खगोलीय विज्ञान">
  <defs>
    <radialGradient id="bgGlow" cx="50%" cy="43%" r="75%">
      <stop offset="0%" stop-color="#fb923c" stop-opacity="0.46"/>
      <stop offset="45%" stop-color="#67330f" stop-opacity="0.92"/>
      <stop offset="100%" stop-color="#210b05"/>
    </radialGradient>
    <linearGradient id="glassPanel" x1="0%" y1="0%" x2="100%" y2="100%">
      <stop offset="0%" stop-color="#ffffff" stop-opacity="0.58"/>
      <stop offset="42%" stop-color="#fb923c" stop-opacity="0.22"/>
      <stop offset="100%" stop-color="#ffffff" stop-opacity="0.08"/>
    </linearGradient>
    <radialGradient id="glassOrb" cx="34%" cy="24%" r="68%">
      <stop offset="0%" stop-color="#ffffff" stop-opacity="0.94"/>
      <stop offset="34%" stop-color="#fb923c" stop-opacity="0.62"/>
      <stop offset="100%" stop-color="#67330f" stop-opacity="0.22"/>
    </radialGradient>
    <linearGradient id="glassMountain" x1="0%" y1="0%" x2="100%" y2="100%">
      <stop offset="0%" stop-color="#ffffff" stop-opacity="0.48"/>
      <stop offset="100%" stop-color="#fb923c" stop-opacity="0.22"/>
    </linearGradient>
    <filter id="softGlow" x="-30%" y="-30%" width="160%" height="160%">
      <feGaussianBlur stdDeviation="18" result="blur"/>
      <feColorMatrix in="blur" type="matrix" values="1 0 0 0 0  0 1 0 0 0  0 0 1 0 0  0 0 0 0.75 0"/>
      <feMerge>
        <feMergeNode/>
        <feMergeNode in="SourceGraphic"/>
      </feMerge>
    </filter>
    <filter id="grain">
      <feTurbulence type="fractalNoise" baseFrequency="0.82" numOctaves="3" seed="352"/>
      <feColorMatrix type="saturate" values="0"/>
      <feComponentTransfer>
        <feFuncA type="table" tableValues="0 0.075"/>
      </feComponentTransfer>
    </filter>
  </defs>
  <rect width="1600" height="900" fill="url(#bgGlow)"/>
  <g opacity="0.72"><circle cx="44" cy="719" r="2.2" fill="#fef3c7" opacity="0.29" />
<circle cx="63" cy="0" r="0.9" fill="#fef3c7" opacity="0.60" />
<circle cx="82" cy="357" r="2.4" fill="#fef3c7" opacity="0.41" />
<circle cx="101" cy="538" r="1.1" fill="#fef3c7" opacity="0.22" />
<circle cx="1568" cy="895" r="1.8" fill="#fef3c7" opacity="0.55" />
<circle cx="1587" cy="176" r="2.9" fill="#fef3c7" opacity="0.36" />
<circle cx="6" cy="533" r="2.0" fill="#fef3c7" opacity="0.67" />
<circle cx="25" cy="714" r="3.1" fill="#fef3c7" opacity="0.48" />
<circle cx="196" cy="367" r="3.0" fill="#fef3c7" opacity="0.27" />
<circle cx="215" cy="548" r="1.7" fill="#fef3c7" opacity="0.58" />
<circle cx="605" cy="356" r="1.1" fill="#fef3c7" opacity="0.48" />
<circle cx="586" cy="175" r="2.4" fill="#fef3c7" opacity="0.67" />
<circle cx="567" cy="894" r="0.9" fill="#fef3c7" opacity="0.60" />
<circle cx="548" cy="713" r="2.2" fill="#fef3c7" opacity="0.29" />
<circle cx="529" cy="532" r="3.1" fill="#fef3c7" opacity="0.22" />
<circle cx="510" cy="351" r="2.0" fill="#fef3c7" opacity="0.41" />
<circle cx="491" cy="170" r="2.9" fill="#fef3c7" opacity="0.34" />
<circle cx="472" cy="889" r="1.8" fill="#fef3c7" opacity="0.53" />
<circle cx="453" cy="4" r="2.7" fill="#fef3c7" opacity="0.46" />
<circle cx="434" cy="723" r="1.6" fill="#fef3c7" opacity="0.65" />
<circle cx="838" cy="707" r="2.4" fill="#fef3c7" opacity="0.39" />
<circle cx="857" cy="888" r="1.1" fill="#fef3c7" opacity="0.20" />
<circle cx="800" cy="345" r="2.2" fill="#fef3c7" opacity="0.51" />
<circle cx="819" cy="526" r="0.9" fill="#fef3c7" opacity="0.32" />
<circle cx="18" cy="883" r="2.0" fill="#fef3c7" opacity="0.65" />
<circle cx="37" cy="164" r="3.1" fill="#fef3c7" opacity="0.46" />
<circle cx="876" cy="521" r="1.8" fill="#fef3c7" opacity="0.27" />
<circle cx="895" cy="702" r="2.9" fill="#fef3c7" opacity="0.58" />
<circle cx="94" cy="159" r="0.8" fill="#fef3c7" opacity="0.37" />
<circle cx="113" cy="340" r="1.9" fill="#fef3c7" opacity="0.18" />
<circle cx="1551" cy="106" r="1.7" fill="#fef3c7" opacity="0.44" />
<circle cx="1532" cy="825" r="3.0" fill="#fef3c7" opacity="0.63" />
<circle cx="1589" cy="468" r="1.9" fill="#fef3c7" opacity="0.32" />
<circle cx="1570" cy="287" r="0.8" fill="#fef3c7" opacity="0.51" />
<circle cx="771" cy="830" r="1.3" fill="#fef3c7" opacity="0.20" />
<circle cx="752" cy="649" r="2.6" fill="#fef3c7" opacity="0.39" />
<circle cx="1513" cy="292" r="1.5" fill="#fef3c7" opacity="0.58" />
<circle cx="790" cy="111" r="2.8" fill="#fef3c7" opacity="0.27" />
<circle cx="103" cy="654" r="2.5" fill="#fef3c7" opacity="0.42" />
<circle cx="84" cy="473" r="1.4" fill="#fef3c7" opacity="0.61" />
<circle cx="624" cy="561" r="3.0" fill="#fef3c7" opacity="0.67" />
<circle cx="643" cy="742" r="1.7" fill="#fef3c7" opacity="0.48" />
<circle cx="662" cy="23" r="0.8" fill="#fef3c7" opacity="0.55" />
<circle cx="681" cy="204" r="1.9" fill="#fef3c7" opacity="0.36" />
<circle cx="700" cy="385" r="2.6" fill="#fef3c7" opacity="0.41" />
<circle cx="719" cy="566" r="1.3" fill="#fef3c7" opacity="0.22" />
<circle cx="738" cy="747" r="2.8" fill="#fef3c7" opacity="0.29" />
<circle cx="757" cy="28" r="1.5" fill="#fef3c7" opacity="0.60" />
<circle cx="1480" cy="13" r="1.4" fill="#fef3c7" opacity="0.65" />
<circle cx="1499" cy="194" r="2.5" fill="#fef3c7" opacity="0.46" />
<circle cx="633" cy="16" r="2.3" fill="#fef3c7" opacity="0.58" />
<circle cx="614" cy="735" r="1.2" fill="#fef3c7" opacity="0.27" />
<circle cx="595" cy="554" r="2.1" fill="#fef3c7" opacity="0.20" />
<circle cx="576" cy="373" r="1.0" fill="#fef3c7" opacity="0.39" />
<circle cx="1413" cy="740" r="2.7" fill="#fef3c7" opacity="0.34" />
<circle cx="1394" cy="559" r="1.6" fill="#fef3c7" opacity="0.53" />
<circle cx="1375" cy="378" r="2.5" fill="#fef3c7" opacity="0.46" />
<circle cx="652" cy="197" r="1.4" fill="#fef3c7" opacity="0.65" />
<circle cx="1489" cy="368" r="3.1" fill="#fef3c7" opacity="0.56" />
<circle cx="1470" cy="187" r="2.0" fill="#fef3c7" opacity="0.25" />
<circle cx="578" cy="79" r="2.8" fill="#fef3c7" opacity="0.49" />
<circle cx="597" cy="260" r="1.5" fill="#fef3c7" opacity="0.30" />
<circle cx="540" cy="617" r="2.6" fill="#fef3c7" opacity="0.61" />
<circle cx="559" cy="798" r="1.3" fill="#fef3c7" opacity="0.42" />
<circle cx="502" cy="803" r="0.8" fill="#fef3c7" opacity="0.23" />
<circle cx="521" cy="84" r="1.9" fill="#fef3c7" opacity="0.54" />
<circle cx="464" cy="441" r="3.0" fill="#fef3c7" opacity="0.35" />
<circle cx="483" cy="622" r="1.7" fill="#fef3c7" opacity="0.66" /></g>
  <circle cx="478" cy="269" r="230" fill="#fb923c" opacity="0.08"/>
  <circle cx="1160" cy="668" r="275" fill="#fef3c7" opacity="0.08"/>
  <g filter="url(#softGlow)">
    
      <path d="M450 705 h700 v-48 H450 Z" fill="url(#glassPanel)" opacity="0.72"/>
      <path d="M535 657 v-250 h530 v250 Z" fill="url(#glassPanel)" opacity="0.48"/>
      <path d="M495 407 h610 L800 210 Z" fill="#fef3c7" opacity="0.6"/>
      <path d="M645 657 V500 a155 155 0 0 1 310 0 v157 Z" fill="#210b05" opacity="0.74"/>
      <path d="M800 210 v-88" stroke="#fb923c" stroke-width="9" opacity="0.88"/>
      <path d="M800 126 c48 -26 72 6 115 -15 c-34 60 -78 38 -115 64 Z" fill="#fb923c" opacity="0.82"/>
    
  </g>
  <g opacity="0.78">
    <rect x="88" y="82" width="1424" height="736" rx="46" fill="none" stroke="#ffffff" stroke-opacity="0.2" stroke-width="2"/>
    <path d="M150 150 C320 82 525 78 720 126" stroke="#fff7ed" stroke-opacity="0.44" stroke-width="7" stroke-linecap="round"/>
    <path d="M1332 710 C1215 775 1005 792 855 752" stroke="#fb923c" stroke-opacity="0.42" stroke-width="8" stroke-linecap="round"/>
  </g>
  <g transform="translate(126 714)">
    <rect width="420" height="86" rx="28" fill="#ffffff" opacity="0.12"/>
    <rect x="1" y="1" width="418" height="84" rx="27" fill="none" stroke="#ffffff" stroke-opacity="0.22"/>
    <text x="36" y="56" font-family="Georgia, 'Noto Serif Devanagari', serif" font-size="40" font-weight="700" fill="#fff7ed">मंदिर</text>
    <circle cx="352" cy="43" r="15" fill="#fb923c" opacity="0.9"/>
  </g>
  <rect width="1600" height="900" filter="url(#grain)" opacity="0.34"/>
</svg>
