<svg xmlns="http://www.w3.org/2000/svg" width="1600" height="900" viewBox="0 0 1600 900" role="img" aria-label="कुंडलिनी जागरण: सात चक्र, नाड़ी तंत्र और रीढ़ की हड्डी में छिपी अलौकिक शक्ति का यौगिक विज्ञान">
  <defs>
    <radialGradient id="bgGlow" cx="50%" cy="43%" r="75%">
      <stop offset="0%" stop-color="#f9a8d4" stop-opacity="0.46"/>
      <stop offset="45%" stop-color="#5a1237" stop-opacity="0.92"/>
      <stop offset="100%" stop-color="#2b0718"/>
    </radialGradient>
    <linearGradient id="glassPanel" x1="0%" y1="0%" x2="100%" y2="100%">
      <stop offset="0%" stop-color="#ffffff" stop-opacity="0.58"/>
      <stop offset="42%" stop-color="#f9a8d4" stop-opacity="0.22"/>
      <stop offset="100%" stop-color="#ffffff" stop-opacity="0.08"/>
    </linearGradient>
    <radialGradient id="glassOrb" cx="34%" cy="24%" r="68%">
      <stop offset="0%" stop-color="#ffffff" stop-opacity="0.94"/>
      <stop offset="34%" stop-color="#f9a8d4" stop-opacity="0.62"/>
      <stop offset="100%" stop-color="#5a1237" stop-opacity="0.22"/>
    </radialGradient>
    <linearGradient id="glassMountain" x1="0%" y1="0%" x2="100%" y2="100%">
      <stop offset="0%" stop-color="#ffffff" stop-opacity="0.48"/>
      <stop offset="100%" stop-color="#f9a8d4" stop-opacity="0.22"/>
    </linearGradient>
    <filter id="softGlow" x="-30%" y="-30%" width="160%" height="160%">
      <feGaussianBlur stdDeviation="18" result="blur"/>
      <feColorMatrix in="blur" type="matrix" values="1 0 0 0 0  0 1 0 0 0  0 0 1 0 0  0 0 0 0.75 0"/>
      <feMerge>
        <feMergeNode/>
        <feMergeNode in="SourceGraphic"/>
      </feMerge>
    </filter>
    <filter id="grain">
      <feTurbulence type="fractalNoise" baseFrequency="0.82" numOctaves="3" seed="444"/>
      <feColorMatrix type="saturate" values="0"/>
      <feComponentTransfer>
        <feFuncA type="table" tableValues="0 0.075"/>
      </feComponentTransfer>
    </filter>
  </defs>
  <rect width="1600" height="900" fill="url(#bgGlow)"/>
  <g opacity="0.72"><circle cx="514" cy="653" r="0.8" fill="#fbbf24" opacity="0.49" />
<circle cx="533" cy="834" r="1.9" fill="#fbbf24" opacity="0.30" />
<circle cx="476" cy="115" r="3.0" fill="#fbbf24" opacity="0.37" />
<circle cx="495" cy="296" r="1.7" fill="#fbbf24" opacity="0.18" />
<circle cx="438" cy="829" r="2.8" fill="#fbbf24" opacity="0.25" />
<circle cx="457" cy="110" r="1.5" fill="#fbbf24" opacity="0.56" />
<circle cx="400" cy="291" r="2.6" fill="#fbbf24" opacity="0.63" />
<circle cx="419" cy="472" r="1.3" fill="#fbbf24" opacity="0.44" />
<circle cx="666" cy="105" r="2.4" fill="#fbbf24" opacity="0.51" />
<circle cx="685" cy="286" r="1.1" fill="#fbbf24" opacity="0.32" />
<circle cx="1279" cy="754" r="1.7" fill="#fbbf24" opacity="0.32" />
<circle cx="1260" cy="573" r="3.0" fill="#fbbf24" opacity="0.51" />
<circle cx="1317" cy="216" r="1.9" fill="#fbbf24" opacity="0.20" />
<circle cx="1298" cy="35" r="0.8" fill="#fbbf24" opacity="0.39" />
<circle cx="1203" cy="578" r="1.3" fill="#fbbf24" opacity="0.58" />
<circle cx="1184" cy="397" r="2.6" fill="#fbbf24" opacity="0.27" />
<circle cx="1241" cy="40" r="1.5" fill="#fbbf24" opacity="0.50" />
<circle cx="1222" cy="759" r="2.8" fill="#fbbf24" opacity="0.19" />
<circle cx="1431" cy="206" r="0.9" fill="#fbbf24" opacity="0.38" />
<circle cx="1412" cy="25" r="2.2" fill="#fbbf24" opacity="0.57" />
<circle cx="324" cy="545" r="1.0" fill="#fbbf24" opacity="0.45" />
<circle cx="343" cy="726" r="2.1" fill="#fbbf24" opacity="0.26" />
<circle cx="362" cy="7" r="1.2" fill="#fbbf24" opacity="0.33" />
<circle cx="381" cy="188" r="2.3" fill="#fbbf24" opacity="0.64" />
<circle cx="248" cy="721" r="1.4" fill="#fbbf24" opacity="0.21" />
<circle cx="267" cy="2" r="2.5" fill="#fbbf24" opacity="0.52" />
<circle cx="286" cy="183" r="1.6" fill="#fbbf24" opacity="0.59" />
<circle cx="305" cy="364" r="2.7" fill="#fbbf24" opacity="0.40" />
<circle cx="172" cy="897" r="2.6" fill="#fbbf24" opacity="0.43" />
<circle cx="191" cy="178" r="1.3" fill="#fbbf24" opacity="0.24" />
<circle cx="333" cy="336" r="2.7" fill="#fbbf24" opacity="0.36" />
<circle cx="314" cy="155" r="1.6" fill="#fbbf24" opacity="0.55" />
<circle cx="295" cy="874" r="2.5" fill="#fbbf24" opacity="0.48" />
<circle cx="276" cy="693" r="1.4" fill="#fbbf24" opacity="0.67" />
<circle cx="257" cy="512" r="2.3" fill="#fbbf24" opacity="0.60" />
<circle cx="238" cy="331" r="1.2" fill="#fbbf24" opacity="0.29" />
<circle cx="219" cy="150" r="2.1" fill="#fbbf24" opacity="0.22" />
<circle cx="200" cy="869" r="1.0" fill="#fbbf24" opacity="0.41" />
<circle cx="181" cy="688" r="1.1" fill="#fbbf24" opacity="0.38" />
<circle cx="162" cy="507" r="2.4" fill="#fbbf24" opacity="0.57" />
<circle cx="1074" cy="59" r="2.0" fill="#fbbf24" opacity="0.63" />
<circle cx="1093" cy="240" r="3.1" fill="#fbbf24" opacity="0.44" />
<circle cx="1036" cy="597" r="1.8" fill="#fbbf24" opacity="0.25" />
<circle cx="1055" cy="778" r="2.9" fill="#fbbf24" opacity="0.56" />
<circle cx="998" cy="783" r="2.4" fill="#fbbf24" opacity="0.37" />
<circle cx="1017" cy="64" r="1.1" fill="#fbbf24" opacity="0.18" />
<circle cx="960" cy="421" r="2.2" fill="#fbbf24" opacity="0.49" />
<circle cx="979" cy="602" r="0.9" fill="#fbbf24" opacity="0.30" />
<circle cx="1226" cy="411" r="2.8" fill="#fbbf24" opacity="0.61" />
<circle cx="1245" cy="592" r="1.5" fill="#fbbf24" opacity="0.42" />
<circle cx="315" cy="750" r="2.9" fill="#fbbf24" opacity="0.54" />
<circle cx="296" cy="569" r="1.8" fill="#fbbf24" opacity="0.23" />
<circle cx="353" cy="212" r="3.1" fill="#fbbf24" opacity="0.42" />
<circle cx="334" cy="31" r="2.0" fill="#fbbf24" opacity="0.61" />
<circle cx="391" cy="26" r="0.9" fill="#fbbf24" opacity="0.28" />
<circle cx="372" cy="745" r="2.2" fill="#fbbf24" opacity="0.47" />
<circle cx="429" cy="388" r="1.1" fill="#fbbf24" opacity="0.66" />
<circle cx="410" cy="207" r="2.4" fill="#fbbf24" opacity="0.35" />
<circle cx="163" cy="202" r="1.3" fill="#fbbf24" opacity="0.52" />
<circle cx="144" cy="21" r="2.6" fill="#fbbf24" opacity="0.21" />
<circle cx="1056" cy="713" r="3.0" fill="#fbbf24" opacity="0.59" />
<circle cx="1075" cy="894" r="1.7" fill="#fbbf24" opacity="0.40" />
<circle cx="1094" cy="175" r="0.8" fill="#fbbf24" opacity="0.47" />
<circle cx="1113" cy="356" r="1.9" fill="#fbbf24" opacity="0.28" />
<circle cx="1132" cy="537" r="2.6" fill="#fbbf24" opacity="0.33" />
<circle cx="1151" cy="718" r="1.3" fill="#fbbf24" opacity="0.60" />
<circle cx="1170" cy="899" r="2.8" fill="#fbbf24" opacity="0.21" />
<circle cx="1189" cy="180" r="1.5" fill="#fbbf24" opacity="0.52" /></g>
  <circle cx="476" cy="263" r="230" fill="#f9a8d4" opacity="0.08"/>
  <circle cx="1194" cy="654" r="275" fill="#fbbf24" opacity="0.08"/>
  <g filter="url(#softGlow)">
    
      <ellipse cx="800" cy="404" rx="34" ry="110" fill="#f9a8d4" opacity="0.42" transform="rotate(0 800 500)" />
<ellipse cx="800" cy="404" rx="34" ry="110" fill="#f9a8d4" opacity="0.42" transform="rotate(20 800 500)" />
<ellipse cx="800" cy="404" rx="34" ry="110" fill="#f9a8d4" opacity="0.42" transform="rotate(40 800 500)" />
<ellipse cx="800" cy="404" rx="34" ry="110" fill="#f9a8d4" opacity="0.42" transform="rotate(60 800 500)" />
<ellipse cx="800" cy="404" rx="34" ry="110" fill="#f9a8d4" opacity="0.42" transform="rotate(80 800 500)" />
<ellipse cx="800" cy="404" rx="34" ry="110" fill="#f9a8d4" opacity="0.42" transform="rotate(100 800 500)" />
<ellipse cx="800" cy="404" rx="34" ry="110" fill="#f9a8d4" opacity="0.42" transform="rotate(120 800 500)" />
<ellipse cx="800" cy="404" rx="34" ry="110" fill="#f9a8d4" opacity="0.42" transform="rotate(140 800 500)" />
<ellipse cx="800" cy="404" rx="34" ry="110" fill="#f9a8d4" opacity="0.42" transform="rotate(160 800 500)" />
<ellipse cx="800" cy="404" rx="34" ry="110" fill="#f9a8d4" opacity="0.42" transform="rotate(180 800 500)" />
<ellipse cx="800" cy="404" rx="34" ry="110" fill="#f9a8d4" opacity="0.42" transform="rotate(200 800 500)" />
<ellipse cx="800" cy="404" rx="34" ry="110" fill="#f9a8d4" opacity="0.42" transform="rotate(220 800 500)" />
<ellipse cx="800" cy="404" rx="34" ry="110" fill="#f9a8d4" opacity="0.42" transform="rotate(240 800 500)" />
<ellipse cx="800" cy="404" rx="34" ry="110" fill="#f9a8d4" opacity="0.42" transform="rotate(260 800 500)" />
<ellipse cx="800" cy="404" rx="34" ry="110" fill="#f9a8d4" opacity="0.42" transform="rotate(280 800 500)" />
<ellipse cx="800" cy="404" rx="34" ry="110" fill="#f9a8d4" opacity="0.42" transform="rotate(300 800 500)" />
<ellipse cx="800" cy="404" rx="34" ry="110" fill="#f9a8d4" opacity="0.42" transform="rotate(320 800 500)" />
<ellipse cx="800" cy="404" rx="34" ry="110" fill="#f9a8d4" opacity="0.42" transform="rotate(340 800 500)" />
      <ellipse cx="800" cy="438" rx="26" ry="82" fill="#fbbf24" opacity="0.5" transform="rotate(0 800 500)" />
<ellipse cx="800" cy="438" rx="26" ry="82" fill="#fbbf24" opacity="0.5" transform="rotate(30 800 500)" />
<ellipse cx="800" cy="438" rx="26" ry="82" fill="#fbbf24" opacity="0.5" transform="rotate(60 800 500)" />
<ellipse cx="800" cy="438" rx="26" ry="82" fill="#fbbf24" opacity="0.5" transform="rotate(90 800 500)" />
<ellipse cx="800" cy="438" rx="26" ry="82" fill="#fbbf24" opacity="0.5" transform="rotate(120 800 500)" />
<ellipse cx="800" cy="438" rx="26" ry="82" fill="#fbbf24" opacity="0.5" transform="rotate(150 800 500)" />
<ellipse cx="800" cy="438" rx="26" ry="82" fill="#fbbf24" opacity="0.5" transform="rotate(180 800 500)" />
<ellipse cx="800" cy="438" rx="26" ry="82" fill="#fbbf24" opacity="0.5" transform="rotate(210 800 500)" />
<ellipse cx="800" cy="438" rx="26" ry="82" fill="#fbbf24" opacity="0.5" transform="rotate(240 800 500)" />
<ellipse cx="800" cy="438" rx="26" ry="82" fill="#fbbf24" opacity="0.5" transform="rotate(270 800 500)" />
<ellipse cx="800" cy="438" rx="26" ry="82" fill="#fbbf24" opacity="0.5" transform="rotate(300 800 500)" />
<ellipse cx="800" cy="438" rx="26" ry="82" fill="#fbbf24" opacity="0.5" transform="rotate(330 800 500)" />
      <circle cx="800" cy="500" r="74" fill="url(#glassOrb)" opacity="0.92"/>
      <path d="M585 690 C680 590 920 590 1015 690 C890 735 710 735 585 690 Z" fill="#f9a8d4" opacity="0.32"/>
    
  </g>
  <g opacity="0.78">
    <rect x="88" y="82" width="1424" height="736" rx="46" fill="none" stroke="#ffffff" stroke-opacity="0.2" stroke-width="2"/>
    <path d="M150 150 C320 82 525 78 720 126" stroke="#fff7ed" stroke-opacity="0.44" stroke-width="7" stroke-linecap="round"/>
    <path d="M1332 710 C1215 775 1005 792 855 752" stroke="#f9a8d4" stroke-opacity="0.42" stroke-width="8" stroke-linecap="round"/>
  </g>
  <g transform="translate(126 714)">
    <rect width="420" height="86" rx="28" fill="#ffffff" opacity="0.12"/>
    <rect x="1" y="1" width="418" height="84" rx="27" fill="none" stroke="#ffffff" stroke-opacity="0.22"/>
    <text x="36" y="56" font-family="Georgia, 'Noto Serif Devanagari', serif" font-size="40" font-weight="700" fill="#fff7ed">कमल</text>
    <circle cx="352" cy="43" r="15" fill="#f9a8d4" opacity="0.9"/>
  </g>
  <rect width="1600" height="900" filter="url(#grain)" opacity="0.34"/>
</svg>
