<svg xmlns="http://www.w3.org/2000/svg" width="1600" height="900" viewBox="0 0 1600 900" role="img" aria-label="ललिता सहस्रनाम: त्रिपुर सुंदरी की महिमा, श्री विद्या साधना का रहस्य और चमत्कारी लाभ">
  <defs>
    <radialGradient id="bgGlow" cx="50%" cy="43%" r="75%">
      <stop offset="0%" stop-color="#7dd3fc" stop-opacity="0.46"/>
      <stop offset="45%" stop-color="#0f3a5f" stop-opacity="0.92"/>
      <stop offset="100%" stop-color="#06152f"/>
    </radialGradient>
    <linearGradient id="glassPanel" x1="0%" y1="0%" x2="100%" y2="100%">
      <stop offset="0%" stop-color="#ffffff" stop-opacity="0.58"/>
      <stop offset="42%" stop-color="#7dd3fc" stop-opacity="0.22"/>
      <stop offset="100%" stop-color="#ffffff" stop-opacity="0.08"/>
    </linearGradient>
    <radialGradient id="glassOrb" cx="34%" cy="24%" r="68%">
      <stop offset="0%" stop-color="#ffffff" stop-opacity="0.94"/>
      <stop offset="34%" stop-color="#7dd3fc" stop-opacity="0.62"/>
      <stop offset="100%" stop-color="#0f3a5f" stop-opacity="0.22"/>
    </radialGradient>
    <linearGradient id="glassMountain" x1="0%" y1="0%" x2="100%" y2="100%">
      <stop offset="0%" stop-color="#ffffff" stop-opacity="0.48"/>
      <stop offset="100%" stop-color="#7dd3fc" stop-opacity="0.22"/>
    </linearGradient>
    <filter id="softGlow" x="-30%" y="-30%" width="160%" height="160%">
      <feGaussianBlur stdDeviation="18" result="blur"/>
      <feColorMatrix in="blur" type="matrix" values="1 0 0 0 0  0 1 0 0 0  0 0 1 0 0  0 0 0 0.75 0"/>
      <feMerge>
        <feMergeNode/>
        <feMergeNode in="SourceGraphic"/>
      </feMerge>
    </filter>
    <filter id="grain">
      <feTurbulence type="fractalNoise" baseFrequency="0.82" numOctaves="3" seed="163"/>
      <feColorMatrix type="saturate" values="0"/>
      <feComponentTransfer>
        <feFuncA type="table" tableValues="0 0.075"/>
      </feComponentTransfer>
    </filter>
  </defs>
  <rect width="1600" height="900" fill="url(#bgGlow)"/>
  <g opacity="0.72"><circle cx="139" cy="364" r="1.3" fill="#facc15" opacity="0.26" />
<circle cx="120" cy="183" r="2.6" fill="#facc15" opacity="0.45" />
<circle cx="177" cy="2" r="1.5" fill="#facc15" opacity="0.38" />
<circle cx="158" cy="721" r="2.8" fill="#facc15" opacity="0.57" />
<circle cx="215" cy="188" r="1.7" fill="#facc15" opacity="0.50" />
<circle cx="196" cy="7" r="3.0" fill="#facc15" opacity="0.19" />
<circle cx="253" cy="726" r="1.9" fill="#facc15" opacity="0.62" />
<circle cx="234" cy="545" r="0.8" fill="#facc15" opacity="0.31" />
<circle cx="1587" cy="716" r="2.9" fill="#facc15" opacity="0.24" />
<circle cx="1568" cy="535" r="1.8" fill="#facc15" opacity="0.43" />
<circle cx="280" cy="565" r="1.4" fill="#facc15" opacity="0.27" />
<circle cx="299" cy="746" r="2.5" fill="#facc15" opacity="0.58" />
<circle cx="318" cy="27" r="1.6" fill="#facc15" opacity="0.65" />
<circle cx="337" cy="208" r="2.7" fill="#facc15" opacity="0.46" />
<circle cx="356" cy="389" r="1.0" fill="#facc15" opacity="0.51" />
<circle cx="375" cy="570" r="2.1" fill="#facc15" opacity="0.32" />
<circle cx="394" cy="751" r="1.2" fill="#facc15" opacity="0.39" />
<circle cx="413" cy="32" r="2.3" fill="#facc15" opacity="0.20" />
<circle cx="128" cy="213" r="3.0" fill="#facc15" opacity="0.25" />
<circle cx="147" cy="394" r="1.7" fill="#facc15" opacity="0.56" />
<circle cx="531" cy="162" r="1.3" fill="#facc15" opacity="0.18" />
<circle cx="512" cy="881" r="2.6" fill="#facc15" opacity="0.37" />
<circle cx="569" cy="524" r="1.5" fill="#facc15" opacity="0.56" />
<circle cx="550" cy="343" r="2.8" fill="#facc15" opacity="0.25" />
<circle cx="607" cy="338" r="1.7" fill="#facc15" opacity="0.42" />
<circle cx="588" cy="157" r="3.0" fill="#facc15" opacity="0.61" />
<circle cx="645" cy="700" r="1.9" fill="#facc15" opacity="0.30" />
<circle cx="626" cy="519" r="0.8" fill="#facc15" opacity="0.49" />
<circle cx="683" cy="514" r="2.1" fill="#facc15" opacity="0.20" />
<circle cx="664" cy="437" r="1.0" fill="#facc15" opacity="0.39" />
<circle cx="1130" cy="371" r="2.0" fill="#facc15" opacity="0.59" />
<circle cx="1149" cy="552" r="3.1" fill="#facc15" opacity="0.40" />
<circle cx="1092" cy="9" r="1.8" fill="#facc15" opacity="0.21" />
<circle cx="1111" cy="190" r="2.9" fill="#facc15" opacity="0.52" />
<circle cx="1054" cy="195" r="2.4" fill="#facc15" opacity="0.33" />
<circle cx="1073" cy="376" r="1.1" fill="#facc15" opacity="0.64" />
<circle cx="1016" cy="733" r="2.2" fill="#facc15" opacity="0.45" />
<circle cx="1035" cy="14" r="0.9" fill="#facc15" opacity="0.26" />
<circle cx="978" cy="827" r="2.8" fill="#facc15" opacity="0.61" />
<circle cx="997" cy="108" r="1.5" fill="#facc15" opacity="0.42" />
<circle cx="485" cy="648" r="2.7" fill="#facc15" opacity="0.58" />
<circle cx="466" cy="467" r="1.6" fill="#facc15" opacity="0.27" />
<circle cx="447" cy="286" r="2.5" fill="#facc15" opacity="0.20" />
<circle cx="428" cy="105" r="1.4" fill="#facc15" opacity="0.39" />
<circle cx="409" cy="824" r="2.3" fill="#facc15" opacity="0.32" />
<circle cx="390" cy="643" r="1.2" fill="#facc15" opacity="0.51" />
<circle cx="371" cy="462" r="2.1" fill="#facc15" opacity="0.44" />
<circle cx="352" cy="281" r="1.0" fill="#facc15" opacity="0.63" />
<circle cx="637" cy="100" r="1.1" fill="#facc15" opacity="0.56" />
<circle cx="618" cy="819" r="2.4" fill="#facc15" opacity="0.25" />
<circle cx="476" cy="293" r="1.8" fill="#facc15" opacity="0.59" />
<circle cx="495" cy="474" r="2.9" fill="#facc15" opacity="0.40" />
<circle cx="514" cy="655" r="2.0" fill="#facc15" opacity="0.47" />
<circle cx="533" cy="836" r="3.1" fill="#facc15" opacity="0.28" />
<circle cx="400" cy="469" r="2.2" fill="#facc15" opacity="0.35" />
<circle cx="419" cy="650" r="0.9" fill="#facc15" opacity="0.66" />
<circle cx="438" cy="831" r="2.4" fill="#facc15" opacity="0.23" />
<circle cx="457" cy="112" r="1.1" fill="#facc15" opacity="0.54" />
<circle cx="628" cy="645" r="1.0" fill="#facc15" opacity="0.61" />
<circle cx="647" cy="826" r="2.1" fill="#facc15" opacity="0.42" />
<circle cx="503" cy="502" r="2.5" fill="#facc15" opacity="0.54" />
<circle cx="484" cy="321" r="1.4" fill="#facc15" opacity="0.23" />
<circle cx="541" cy="864" r="2.7" fill="#facc15" opacity="0.42" />
<circle cx="522" cy="683" r="1.6" fill="#facc15" opacity="0.61" />
<circle cx="427" cy="326" r="2.1" fill="#facc15" opacity="0.30" />
<circle cx="408" cy="145" r="1.0" fill="#facc15" opacity="0.49" />
<circle cx="465" cy="688" r="2.3" fill="#facc15" opacity="0.18" />
<circle cx="446" cy="507" r="1.2" fill="#facc15" opacity="0.37" /></g>
  <circle cx="481" cy="314" r="230" fill="#7dd3fc" opacity="0.08"/>
  <circle cx="1123" cy="663" r="275" fill="#facc15" opacity="0.08"/>
  <g filter="url(#softGlow)">
    
      <circle cx="804" cy="430" r="185" fill="none" stroke="#facc15" stroke-width="20" opacity="0.78"/>
      <line x1="804" y1="430" x2="804" y2="245" stroke="#facc15" stroke-width="7" opacity="0.58" transform="rotate(0 804 430)" />
<line x1="804" y1="430" x2="804" y2="245" stroke="#facc15" stroke-width="7" opacity="0.58" transform="rotate(15 804 430)" />
<line x1="804" y1="430" x2="804" y2="245" stroke="#facc15" stroke-width="7" opacity="0.58" transform="rotate(30 804 430)" />
<line x1="804" y1="430" x2="804" y2="245" stroke="#facc15" stroke-width="7" opacity="0.58" transform="rotate(45 804 430)" />
<line x1="804" y1="430" x2="804" y2="245" stroke="#facc15" stroke-width="7" opacity="0.58" transform="rotate(60 804 430)" />
<line x1="804" y1="430" x2="804" y2="245" stroke="#facc15" stroke-width="7" opacity="0.58" transform="rotate(75 804 430)" />
<line x1="804" y1="430" x2="804" y2="245" stroke="#facc15" stroke-width="7" opacity="0.58" transform="rotate(90 804 430)" />
<line x1="804" y1="430" x2="804" y2="245" stroke="#facc15" stroke-width="7" opacity="0.58" transform="rotate(105 804 430)" />
<line x1="804" y1="430" x2="804" y2="245" stroke="#facc15" stroke-width="7" opacity="0.58" transform="rotate(120 804 430)" />
<line x1="804" y1="430" x2="804" y2="245" stroke="#facc15" stroke-width="7" opacity="0.58" transform="rotate(135 804 430)" />
<line x1="804" y1="430" x2="804" y2="245" stroke="#facc15" stroke-width="7" opacity="0.58" transform="rotate(150 804 430)" />
<line x1="804" y1="430" x2="804" y2="245" stroke="#facc15" stroke-width="7" opacity="0.58" transform="rotate(165 804 430)" />
<line x1="804" y1="430" x2="804" y2="245" stroke="#facc15" stroke-width="7" opacity="0.58" transform="rotate(180 804 430)" />
<line x1="804" y1="430" x2="804" y2="245" stroke="#facc15" stroke-width="7" opacity="0.58" transform="rotate(195 804 430)" />
<line x1="804" y1="430" x2="804" y2="245" stroke="#facc15" stroke-width="7" opacity="0.58" transform="rotate(210 804 430)" />
<line x1="804" y1="430" x2="804" y2="245" stroke="#facc15" stroke-width="7" opacity="0.58" transform="rotate(225 804 430)" />
<line x1="804" y1="430" x2="804" y2="245" stroke="#facc15" stroke-width="7" opacity="0.58" transform="rotate(240 804 430)" />
<line x1="804" y1="430" x2="804" y2="245" stroke="#facc15" stroke-width="7" opacity="0.58" transform="rotate(255 804 430)" />
<line x1="804" y1="430" x2="804" y2="245" stroke="#facc15" stroke-width="7" opacity="0.58" transform="rotate(270 804 430)" />
<line x1="804" y1="430" x2="804" y2="245" stroke="#facc15" stroke-width="7" opacity="0.58" transform="rotate(285 804 430)" />
<line x1="804" y1="430" x2="804" y2="245" stroke="#facc15" stroke-width="7" opacity="0.58" transform="rotate(300 804 430)" />
<line x1="804" y1="430" x2="804" y2="245" stroke="#facc15" stroke-width="7" opacity="0.58" transform="rotate(315 804 430)" />
<line x1="804" y1="430" x2="804" y2="245" stroke="#facc15" stroke-width="7" opacity="0.58" transform="rotate(330 804 430)" />
<line x1="804" y1="430" x2="804" y2="245" stroke="#facc15" stroke-width="7" opacity="0.58" transform="rotate(345 804 430)" />
      <circle cx="804" cy="430" r="64" fill="url(#glassOrb)" opacity="0.92"/>
      <path d="M545 585 C660 525 940 525 1055 585 C975 655 625 655 545 585 Z" fill="#7dd3fc" opacity="0.18"/>
    
  </g>
  <g opacity="0.78">
    <rect x="88" y="82" width="1424" height="736" rx="46" fill="none" stroke="#ffffff" stroke-opacity="0.2" stroke-width="2"/>
    <path d="M150 150 C320 82 525 78 720 126" stroke="#fff7ed" stroke-opacity="0.44" stroke-width="7" stroke-linecap="round"/>
    <path d="M1332 710 C1215 775 1005 792 855 752" stroke="#7dd3fc" stroke-opacity="0.42" stroke-width="8" stroke-linecap="round"/>
  </g>
  <g transform="translate(126 714)">
    <rect width="420" height="86" rx="28" fill="#ffffff" opacity="0.12"/>
    <rect x="1" y="1" width="418" height="84" rx="27" fill="none" stroke="#ffffff" stroke-opacity="0.22"/>
    <text x="36" y="56" font-family="Georgia, 'Noto Serif Devanagari', serif" font-size="40" font-weight="700" fill="#fff7ed">चक्र</text>
    <circle cx="352" cy="43" r="15" fill="#7dd3fc" opacity="0.9"/>
  </g>
  <rect width="1600" height="900" filter="url(#grain)" opacity="0.34"/>
</svg>
