<svg xmlns="http://www.w3.org/2000/svg" width="1600" height="900" viewBox="0 0 1600 900" role="img" aria-label="लक्ष्मी कृपा और धन प्राप्ति के शास्त्रोक्त उपाय: धार्मिक नियम, वास्तु शास्त्र और वैज्ञानिक दृष्टिकोण">
  <defs>
    <radialGradient id="bgGlow" cx="50%" cy="43%" r="75%">
      <stop offset="0%" stop-color="#f9a8d4" stop-opacity="0.46"/>
      <stop offset="45%" stop-color="#5a1237" stop-opacity="0.92"/>
      <stop offset="100%" stop-color="#2b0718"/>
    </radialGradient>
    <linearGradient id="glassPanel" x1="0%" y1="0%" x2="100%" y2="100%">
      <stop offset="0%" stop-color="#ffffff" stop-opacity="0.58"/>
      <stop offset="42%" stop-color="#f9a8d4" stop-opacity="0.22"/>
      <stop offset="100%" stop-color="#ffffff" stop-opacity="0.08"/>
    </linearGradient>
    <radialGradient id="glassOrb" cx="34%" cy="24%" r="68%">
      <stop offset="0%" stop-color="#ffffff" stop-opacity="0.94"/>
      <stop offset="34%" stop-color="#f9a8d4" stop-opacity="0.62"/>
      <stop offset="100%" stop-color="#5a1237" stop-opacity="0.22"/>
    </radialGradient>
    <linearGradient id="glassMountain" x1="0%" y1="0%" x2="100%" y2="100%">
      <stop offset="0%" stop-color="#ffffff" stop-opacity="0.48"/>
      <stop offset="100%" stop-color="#f9a8d4" stop-opacity="0.22"/>
    </linearGradient>
    <filter id="softGlow" x="-30%" y="-30%" width="160%" height="160%">
      <feGaussianBlur stdDeviation="18" result="blur"/>
      <feColorMatrix in="blur" type="matrix" values="1 0 0 0 0  0 1 0 0 0  0 0 1 0 0  0 0 0 0.75 0"/>
      <feMerge>
        <feMergeNode/>
        <feMergeNode in="SourceGraphic"/>
      </feMerge>
    </filter>
    <filter id="grain">
      <feTurbulence type="fractalNoise" baseFrequency="0.82" numOctaves="3" seed="291"/>
      <feColorMatrix type="saturate" values="0"/>
      <feComponentTransfer>
        <feFuncA type="table" tableValues="0 0.075"/>
      </feComponentTransfer>
    </filter>
  </defs>
  <rect width="1600" height="900" fill="url(#bgGlow)"/>
  <g opacity="0.72"><circle cx="969" cy="530" r="3.1" fill="#fbbf24" opacity="0.42" />
<circle cx="950" cy="349" r="2.0" fill="#fbbf24" opacity="0.61" />
<circle cx="931" cy="892" r="2.9" fill="#fbbf24" opacity="0.30" />
<circle cx="912" cy="711" r="1.8" fill="#fbbf24" opacity="0.49" />
<circle cx="1045" cy="354" r="1.1" fill="#fbbf24" opacity="0.66" />
<circle cx="1026" cy="173" r="2.4" fill="#fbbf24" opacity="0.35" />
<circle cx="1007" cy="716" r="0.9" fill="#fbbf24" opacity="0.54" />
<circle cx="988" cy="535" r="2.2" fill="#fbbf24" opacity="0.23" />
<circle cx="1121" cy="882" r="2.3" fill="#fbbf24" opacity="0.40" />
<circle cx="1102" cy="701" r="1.2" fill="#fbbf24" opacity="0.59" />
<circle cx="1330" cy="855" r="2.8" fill="#fbbf24" opacity="0.51" />
<circle cx="1349" cy="136" r="1.5" fill="#fbbf24" opacity="0.32" />
<circle cx="1292" cy="493" r="2.6" fill="#fbbf24" opacity="0.63" />
<circle cx="1311" cy="674" r="1.3" fill="#fbbf24" opacity="0.44" />
<circle cx="1254" cy="679" r="0.8" fill="#fbbf24" opacity="0.25" />
<circle cx="1273" cy="860" r="1.9" fill="#fbbf24" opacity="0.56" />
<circle cx="1216" cy="317" r="3.0" fill="#fbbf24" opacity="0.37" />
<circle cx="1235" cy="498" r="1.7" fill="#fbbf24" opacity="0.18" />
<circle cx="1482" cy="307" r="1.2" fill="#fbbf24" opacity="0.53" />
<circle cx="1501" cy="488" r="2.3" fill="#fbbf24" opacity="0.34" />
<circle cx="1321" cy="504" r="1.5" fill="#fbbf24" opacity="0.46" />
<circle cx="1302" cy="323" r="2.8" fill="#fbbf24" opacity="0.65" />
<circle cx="1283" cy="142" r="1.3" fill="#fbbf24" opacity="0.58" />
<circle cx="1264" cy="861" r="2.6" fill="#fbbf24" opacity="0.27" />
<circle cx="1397" cy="328" r="1.9" fill="#fbbf24" opacity="0.22" />
<circle cx="1378" cy="147" r="0.8" fill="#fbbf24" opacity="0.41" />
<circle cx="1359" cy="866" r="1.7" fill="#fbbf24" opacity="0.34" />
<circle cx="1340" cy="685" r="3.0" fill="#fbbf24" opacity="0.53" />
<circle cx="1473" cy="152" r="3.1" fill="#fbbf24" opacity="0.44" />
<circle cx="1454" cy="871" r="2.0" fill="#fbbf24" opacity="0.63" />
<circle cx="1312" cy="713" r="2.2" fill="#fbbf24" opacity="0.55" />
<circle cx="1331" cy="894" r="0.9" fill="#fbbf24" opacity="0.36" />
<circle cx="1350" cy="175" r="2.4" fill="#fbbf24" opacity="0.43" />
<circle cx="1369" cy="356" r="1.1" fill="#fbbf24" opacity="0.24" />
<circle cx="1388" cy="537" r="1.8" fill="#fbbf24" opacity="0.29" />
<circle cx="1407" cy="718" r="2.9" fill="#fbbf24" opacity="0.60" />
<circle cx="1426" cy="899" r="2.0" fill="#fbbf24" opacity="0.67" />
<circle cx="1445" cy="180" r="3.1" fill="#fbbf24" opacity="0.48" />
<circle cx="1464" cy="361" r="1.4" fill="#fbbf24" opacity="0.53" />
<circle cx="1483" cy="542" r="2.5" fill="#fbbf24" opacity="0.34" />
<circle cx="1535" cy="650" r="0.9" fill="#fbbf24" opacity="0.32" />
<circle cx="1516" cy="469" r="2.2" fill="#fbbf24" opacity="0.51" />
<circle cx="1573" cy="112" r="1.1" fill="#fbbf24" opacity="0.20" />
<circle cx="1554" cy="831" r="2.4" fill="#fbbf24" opacity="0.39" />
<circle cx="1459" cy="474" r="2.9" fill="#fbbf24" opacity="0.58" />
<circle cx="1440" cy="293" r="1.8" fill="#fbbf24" opacity="0.27" />
<circle cx="1497" cy="836" r="3.1" fill="#fbbf24" opacity="0.46" />
<circle cx="1478" cy="655" r="2.0" fill="#fbbf24" opacity="0.65" />
<circle cx="87" cy="102" r="2.5" fill="#fbbf24" opacity="0.30" />
<circle cx="68" cy="821" r="1.4" fill="#fbbf24" opacity="0.49" />
<circle cx="1526" cy="295" r="1.6" fill="#fbbf24" opacity="0.41" />
<circle cx="1545" cy="476" r="2.7" fill="#fbbf24" opacity="0.22" />
<circle cx="1488" cy="833" r="1.4" fill="#fbbf24" opacity="0.53" />
<circle cx="1507" cy="114" r="2.5" fill="#fbbf24" opacity="0.34" />
<circle cx="2" cy="471" r="1.2" fill="#fbbf24" opacity="0.67" />
<circle cx="21" cy="652" r="2.3" fill="#fbbf24" opacity="0.48" />
<circle cx="1564" cy="109" r="1.0" fill="#fbbf24" opacity="0.29" />
<circle cx="1583" cy="290" r="2.1" fill="#fbbf24" opacity="0.60" />
<circle cx="78" cy="843" r="0.8" fill="#fbbf24" opacity="0.39" />
<circle cx="97" cy="124" r="1.9" fill="#fbbf24" opacity="0.20" />
<circle cx="1293" cy="232" r="1.9" fill="#fbbf24" opacity="0.50" />
<circle cx="1274" cy="51" r="0.8" fill="#fbbf24" opacity="0.19" />
<circle cx="1255" cy="770" r="1.7" fill="#fbbf24" opacity="0.62" />
<circle cx="1236" cy="589" r="3.0" fill="#fbbf24" opacity="0.31" />
<circle cx="1217" cy="408" r="1.5" fill="#fbbf24" opacity="0.24" />
<circle cx="1198" cy="227" r="2.8" fill="#fbbf24" opacity="0.43" />
<circle cx="1179" cy="46" r="1.3" fill="#fbbf24" opacity="0.36" />
<circle cx="1160" cy="765" r="2.6" fill="#fbbf24" opacity="0.55" /></g>
  <circle cx="507" cy="276" r="230" fill="#f9a8d4" opacity="0.08"/>
  <circle cx="1165" cy="687" r="275" fill="#fbbf24" opacity="0.08"/>
  <g filter="url(#softGlow)">
    
      <ellipse cx="800" cy="404" rx="34" ry="110" fill="#f9a8d4" opacity="0.42" transform="rotate(0 800 500)" />
<ellipse cx="800" cy="404" rx="34" ry="110" fill="#f9a8d4" opacity="0.42" transform="rotate(20 800 500)" />
<ellipse cx="800" cy="404" rx="34" ry="110" fill="#f9a8d4" opacity="0.42" transform="rotate(40 800 500)" />
<ellipse cx="800" cy="404" rx="34" ry="110" fill="#f9a8d4" opacity="0.42" transform="rotate(60 800 500)" />
<ellipse cx="800" cy="404" rx="34" ry="110" fill="#f9a8d4" opacity="0.42" transform="rotate(80 800 500)" />
<ellipse cx="800" cy="404" rx="34" ry="110" fill="#f9a8d4" opacity="0.42" transform="rotate(100 800 500)" />
<ellipse cx="800" cy="404" rx="34" ry="110" fill="#f9a8d4" opacity="0.42" transform="rotate(120 800 500)" />
<ellipse cx="800" cy="404" rx="34" ry="110" fill="#f9a8d4" opacity="0.42" transform="rotate(140 800 500)" />
<ellipse cx="800" cy="404" rx="34" ry="110" fill="#f9a8d4" opacity="0.42" transform="rotate(160 800 500)" />
<ellipse cx="800" cy="404" rx="34" ry="110" fill="#f9a8d4" opacity="0.42" transform="rotate(180 800 500)" />
<ellipse cx="800" cy="404" rx="34" ry="110" fill="#f9a8d4" opacity="0.42" transform="rotate(200 800 500)" />
<ellipse cx="800" cy="404" rx="34" ry="110" fill="#f9a8d4" opacity="0.42" transform="rotate(220 800 500)" />
<ellipse cx="800" cy="404" rx="34" ry="110" fill="#f9a8d4" opacity="0.42" transform="rotate(240 800 500)" />
<ellipse cx="800" cy="404" rx="34" ry="110" fill="#f9a8d4" opacity="0.42" transform="rotate(260 800 500)" />
<ellipse cx="800" cy="404" rx="34" ry="110" fill="#f9a8d4" opacity="0.42" transform="rotate(280 800 500)" />
<ellipse cx="800" cy="404" rx="34" ry="110" fill="#f9a8d4" opacity="0.42" transform="rotate(300 800 500)" />
<ellipse cx="800" cy="404" rx="34" ry="110" fill="#f9a8d4" opacity="0.42" transform="rotate(320 800 500)" />
<ellipse cx="800" cy="404" rx="34" ry="110" fill="#f9a8d4" opacity="0.42" transform="rotate(340 800 500)" />
      <ellipse cx="800" cy="438" rx="26" ry="82" fill="#fbbf24" opacity="0.5" transform="rotate(0 800 500)" />
<ellipse cx="800" cy="438" rx="26" ry="82" fill="#fbbf24" opacity="0.5" transform="rotate(30 800 500)" />
<ellipse cx="800" cy="438" rx="26" ry="82" fill="#fbbf24" opacity="0.5" transform="rotate(60 800 500)" />
<ellipse cx="800" cy="438" rx="26" ry="82" fill="#fbbf24" opacity="0.5" transform="rotate(90 800 500)" />
<ellipse cx="800" cy="438" rx="26" ry="82" fill="#fbbf24" opacity="0.5" transform="rotate(120 800 500)" />
<ellipse cx="800" cy="438" rx="26" ry="82" fill="#fbbf24" opacity="0.5" transform="rotate(150 800 500)" />
<ellipse cx="800" cy="438" rx="26" ry="82" fill="#fbbf24" opacity="0.5" transform="rotate(180 800 500)" />
<ellipse cx="800" cy="438" rx="26" ry="82" fill="#fbbf24" opacity="0.5" transform="rotate(210 800 500)" />
<ellipse cx="800" cy="438" rx="26" ry="82" fill="#fbbf24" opacity="0.5" transform="rotate(240 800 500)" />
<ellipse cx="800" cy="438" rx="26" ry="82" fill="#fbbf24" opacity="0.5" transform="rotate(270 800 500)" />
<ellipse cx="800" cy="438" rx="26" ry="82" fill="#fbbf24" opacity="0.5" transform="rotate(300 800 500)" />
<ellipse cx="800" cy="438" rx="26" ry="82" fill="#fbbf24" opacity="0.5" transform="rotate(330 800 500)" />
      <circle cx="800" cy="500" r="74" fill="url(#glassOrb)" opacity="0.92"/>
      <path d="M585 690 C680 590 920 590 1015 690 C890 735 710 735 585 690 Z" fill="#f9a8d4" opacity="0.32"/>
    
  </g>
  <g opacity="0.78">
    <rect x="88" y="82" width="1424" height="736" rx="46" fill="none" stroke="#ffffff" stroke-opacity="0.2" stroke-width="2"/>
    <path d="M150 150 C320 82 525 78 720 126" stroke="#fff7ed" stroke-opacity="0.44" stroke-width="7" stroke-linecap="round"/>
    <path d="M1332 710 C1215 775 1005 792 855 752" stroke="#f9a8d4" stroke-opacity="0.42" stroke-width="8" stroke-linecap="round"/>
  </g>
  <g transform="translate(126 714)">
    <rect width="420" height="86" rx="28" fill="#ffffff" opacity="0.12"/>
    <rect x="1" y="1" width="418" height="84" rx="27" fill="none" stroke="#ffffff" stroke-opacity="0.22"/>
    <text x="36" y="56" font-family="Georgia, 'Noto Serif Devanagari', serif" font-size="40" font-weight="700" fill="#fff7ed">कमल</text>
    <circle cx="352" cy="43" r="15" fill="#f9a8d4" opacity="0.9"/>
  </g>
  <rect width="1600" height="900" filter="url(#grain)" opacity="0.34"/>
</svg>
