<svg xmlns="http://www.w3.org/2000/svg" width="1600" height="900" viewBox="0 0 1600 900" role="img" aria-label="महाभारत के युद्ध के अनसुने पहलू और आधुनिक जीवन के लिए 10 सबक: कूटनीति, संबंध प्रबंधन और धर्म-अधर्म का विश्लेषण">
  <defs>
    <radialGradient id="bgGlow" cx="50%" cy="43%" r="75%">
      <stop offset="0%" stop-color="#c4b5fd" stop-opacity="0.46"/>
      <stop offset="45%" stop-color="#3a2267" stop-opacity="0.92"/>
      <stop offset="100%" stop-color="#130b2a"/>
    </radialGradient>
    <linearGradient id="glassPanel" x1="0%" y1="0%" x2="100%" y2="100%">
      <stop offset="0%" stop-color="#ffffff" stop-opacity="0.58"/>
      <stop offset="42%" stop-color="#c4b5fd" stop-opacity="0.22"/>
      <stop offset="100%" stop-color="#ffffff" stop-opacity="0.08"/>
    </linearGradient>
    <radialGradient id="glassOrb" cx="34%" cy="24%" r="68%">
      <stop offset="0%" stop-color="#ffffff" stop-opacity="0.94"/>
      <stop offset="34%" stop-color="#c4b5fd" stop-opacity="0.62"/>
      <stop offset="100%" stop-color="#3a2267" stop-opacity="0.22"/>
    </radialGradient>
    <linearGradient id="glassMountain" x1="0%" y1="0%" x2="100%" y2="100%">
      <stop offset="0%" stop-color="#ffffff" stop-opacity="0.48"/>
      <stop offset="100%" stop-color="#c4b5fd" stop-opacity="0.22"/>
    </linearGradient>
    <filter id="softGlow" x="-30%" y="-30%" width="160%" height="160%">
      <feGaussianBlur stdDeviation="18" result="blur"/>
      <feColorMatrix in="blur" type="matrix" values="1 0 0 0 0  0 1 0 0 0  0 0 1 0 0  0 0 0 0.75 0"/>
      <feMerge>
        <feMergeNode/>
        <feMergeNode in="SourceGraphic"/>
      </feMerge>
    </filter>
    <filter id="grain">
      <feTurbulence type="fractalNoise" baseFrequency="0.82" numOctaves="3" seed="108"/>
      <feColorMatrix type="saturate" values="0"/>
      <feComponentTransfer>
        <feFuncA type="table" tableValues="0 0.075"/>
      </feComponentTransfer>
    </filter>
  </defs>
  <rect width="1600" height="900" fill="url(#bgGlow)"/>
  <g opacity="0.72"><circle cx="1211" cy="636" r="2.1" fill="#fcd34d" opacity="0.36" />
<circle cx="1192" cy="455" r="1.0" fill="#fcd34d" opacity="0.55" />
<circle cx="1249" cy="274" r="2.3" fill="#fcd34d" opacity="0.48" />
<circle cx="1230" cy="93" r="1.2" fill="#fcd34d" opacity="0.67" />
<circle cx="1287" cy="460" r="2.5" fill="#fcd34d" opacity="0.60" />
<circle cx="1268" cy="279" r="1.4" fill="#fcd34d" opacity="0.29" />
<circle cx="1325" cy="98" r="2.7" fill="#fcd34d" opacity="0.22" />
<circle cx="1306" cy="817" r="1.6" fill="#fcd34d" opacity="0.41" />
<circle cx="1059" cy="88" r="1.3" fill="#fcd34d" opacity="0.34" />
<circle cx="1040" cy="807" r="2.6" fill="#fcd34d" opacity="0.53" />
<circle cx="200" cy="349" r="3.0" fill="#fcd34d" opacity="0.35" />
<circle cx="219" cy="530" r="1.7" fill="#fcd34d" opacity="0.66" />
<circle cx="238" cy="711" r="0.8" fill="#fcd34d" opacity="0.23" />
<circle cx="257" cy="892" r="1.9" fill="#fcd34d" opacity="0.54" />
<circle cx="276" cy="173" r="2.6" fill="#fcd34d" opacity="0.59" />
<circle cx="295" cy="354" r="1.3" fill="#fcd34d" opacity="0.40" />
<circle cx="314" cy="535" r="2.8" fill="#fcd34d" opacity="0.47" />
<circle cx="333" cy="716" r="1.5" fill="#fcd34d" opacity="0.28" />
<circle cx="48" cy="897" r="2.2" fill="#fcd34d" opacity="0.33" />
<circle cx="67" cy="178" r="0.9" fill="#fcd34d" opacity="0.64" />
<circle cx="451" cy="386" r="2.9" fill="#fcd34d" opacity="0.58" />
<circle cx="432" cy="205" r="1.8" fill="#fcd34d" opacity="0.27" />
<circle cx="1193" cy="748" r="3.1" fill="#fcd34d" opacity="0.46" />
<circle cx="470" cy="567" r="2.0" fill="#fcd34d" opacity="0.65" />
<circle cx="1231" cy="562" r="0.9" fill="#fcd34d" opacity="0.32" />
<circle cx="1212" cy="381" r="2.2" fill="#fcd34d" opacity="0.51" />
<circle cx="1269" cy="24" r="1.1" fill="#fcd34d" opacity="0.20" />
<circle cx="1250" cy="743" r="2.4" fill="#fcd34d" opacity="0.39" />
<circle cx="1307" cy="738" r="1.3" fill="#fcd34d" opacity="0.60" />
<circle cx="1288" cy="557" r="2.6" fill="#fcd34d" opacity="0.29" />
<circle cx="154" cy="595" r="1.2" fill="#fcd34d" opacity="0.67" />
<circle cx="173" cy="776" r="2.3" fill="#fcd34d" opacity="0.48" />
<circle cx="116" cy="233" r="1.0" fill="#fcd34d" opacity="0.29" />
<circle cx="135" cy="414" r="2.1" fill="#fcd34d" opacity="0.60" />
<circle cx="78" cy="419" r="1.6" fill="#fcd34d" opacity="0.41" />
<circle cx="97" cy="600" r="2.7" fill="#fcd34d" opacity="0.22" />
<circle cx="40" cy="57" r="1.4" fill="#fcd34d" opacity="0.53" />
<circle cx="59" cy="238" r="2.5" fill="#fcd34d" opacity="0.34" />
<circle cx="2" cy="47" r="2.0" fill="#fcd34d" opacity="0.19" />
<circle cx="21" cy="228" r="3.1" fill="#fcd34d" opacity="0.50" />
<circle cx="405" cy="872" r="1.9" fill="#fcd34d" opacity="0.62" />
<circle cx="386" cy="691" r="0.8" fill="#fcd34d" opacity="0.31" />
<circle cx="367" cy="510" r="1.7" fill="#fcd34d" opacity="0.24" />
<circle cx="348" cy="329" r="3.0" fill="#fcd34d" opacity="0.43" />
<circle cx="329" cy="148" r="1.5" fill="#fcd34d" opacity="0.36" />
<circle cx="310" cy="867" r="2.8" fill="#fcd34d" opacity="0.55" />
<circle cx="291" cy="686" r="1.3" fill="#fcd34d" opacity="0.48" />
<circle cx="272" cy="505" r="2.6" fill="#fcd34d" opacity="0.67" />
<circle cx="557" cy="324" r="2.7" fill="#fcd34d" opacity="0.60" />
<circle cx="538" cy="143" r="1.6" fill="#fcd34d" opacity="0.29" />
<circle cx="1164" cy="181" r="2.6" fill="#fcd34d" opacity="0.63" />
<circle cx="1183" cy="362" r="1.3" fill="#fcd34d" opacity="0.44" />
<circle cx="1202" cy="543" r="2.8" fill="#fcd34d" opacity="0.51" />
<circle cx="1221" cy="724" r="1.5" fill="#fcd34d" opacity="0.32" />
<circle cx="1088" cy="357" r="3.0" fill="#fcd34d" opacity="0.39" />
<circle cx="1107" cy="538" r="1.7" fill="#fcd34d" opacity="0.20" />
<circle cx="1126" cy="719" r="0.8" fill="#fcd34d" opacity="0.27" />
<circle cx="1145" cy="0" r="1.9" fill="#fcd34d" opacity="0.58" />
<circle cx="1316" cy="533" r="1.8" fill="#fcd34d" opacity="0.65" />
<circle cx="1335" cy="714" r="2.9" fill="#fcd34d" opacity="0.46" />
<circle cx="423" cy="622" r="0.9" fill="#fcd34d" opacity="0.62" />
<circle cx="404" cy="441" r="2.2" fill="#fcd34d" opacity="0.31" />
<circle cx="461" cy="84" r="1.1" fill="#fcd34d" opacity="0.50" />
<circle cx="442" cy="803" r="2.4" fill="#fcd34d" opacity="0.19" />
<circle cx="347" cy="446" r="2.9" fill="#fcd34d" opacity="0.38" />
<circle cx="328" cy="265" r="1.8" fill="#fcd34d" opacity="0.57" />
<circle cx="385" cy="808" r="3.1" fill="#fcd34d" opacity="0.26" />
<circle cx="366" cy="627" r="2.0" fill="#fcd34d" opacity="0.45" /></g>
  <circle cx="421" cy="314" r="230" fill="#c4b5fd" opacity="0.08"/>
  <circle cx="1083" cy="683" r="275" fill="#fcd34d" opacity="0.08"/>
  <g filter="url(#softGlow)">
    
    <ellipse cx="800" cy="285" rx="16" ry="90" fill="#c4b5fd" opacity="0.22" transform="rotate(0 800 460)" />
<ellipse cx="800" cy="285" rx="16" ry="90" fill="#c4b5fd" opacity="0.22" transform="rotate(11.25 800 460)" />
<ellipse cx="800" cy="285" rx="16" ry="90" fill="#c4b5fd" opacity="0.22" transform="rotate(22.5 800 460)" />
<ellipse cx="800" cy="285" rx="16" ry="90" fill="#c4b5fd" opacity="0.22" transform="rotate(33.75 800 460)" />
<ellipse cx="800" cy="285" rx="16" ry="90" fill="#c4b5fd" opacity="0.22" transform="rotate(45 800 460)" />
<ellipse cx="800" cy="285" rx="16" ry="90" fill="#c4b5fd" opacity="0.22" transform="rotate(56.25 800 460)" />
<ellipse cx="800" cy="285" rx="16" ry="90" fill="#c4b5fd" opacity="0.22" transform="rotate(67.5 800 460)" />
<ellipse cx="800" cy="285" rx="16" ry="90" fill="#c4b5fd" opacity="0.22" transform="rotate(78.75 800 460)" />
<ellipse cx="800" cy="285" rx="16" ry="90" fill="#c4b5fd" opacity="0.22" transform="rotate(90 800 460)" />
<ellipse cx="800" cy="285" rx="16" ry="90" fill="#c4b5fd" opacity="0.22" transform="rotate(101.25 800 460)" />
<ellipse cx="800" cy="285" rx="16" ry="90" fill="#c4b5fd" opacity="0.22" transform="rotate(112.5 800 460)" />
<ellipse cx="800" cy="285" rx="16" ry="90" fill="#c4b5fd" opacity="0.22" transform="rotate(123.75 800 460)" />
<ellipse cx="800" cy="285" rx="16" ry="90" fill="#c4b5fd" opacity="0.22" transform="rotate(135 800 460)" />
<ellipse cx="800" cy="285" rx="16" ry="90" fill="#c4b5fd" opacity="0.22" transform="rotate(146.25 800 460)" />
<ellipse cx="800" cy="285" rx="16" ry="90" fill="#c4b5fd" opacity="0.22" transform="rotate(157.5 800 460)" />
<ellipse cx="800" cy="285" rx="16" ry="90" fill="#c4b5fd" opacity="0.22" transform="rotate(168.75 800 460)" />
<ellipse cx="800" cy="285" rx="16" ry="90" fill="#c4b5fd" opacity="0.22" transform="rotate(180 800 460)" />
<ellipse cx="800" cy="285" rx="16" ry="90" fill="#c4b5fd" opacity="0.22" transform="rotate(191.25 800 460)" />
<ellipse cx="800" cy="285" rx="16" ry="90" fill="#c4b5fd" opacity="0.22" transform="rotate(202.5 800 460)" />
<ellipse cx="800" cy="285" rx="16" ry="90" fill="#c4b5fd" opacity="0.22" transform="rotate(213.75 800 460)" />
<ellipse cx="800" cy="285" rx="16" ry="90" fill="#c4b5fd" opacity="0.22" transform="rotate(225 800 460)" />
<ellipse cx="800" cy="285" rx="16" ry="90" fill="#c4b5fd" opacity="0.22" transform="rotate(236.25 800 460)" />
<ellipse cx="800" cy="285" rx="16" ry="90" fill="#c4b5fd" opacity="0.22" transform="rotate(247.5 800 460)" />
<ellipse cx="800" cy="285" rx="16" ry="90" fill="#c4b5fd" opacity="0.22" transform="rotate(258.75 800 460)" />
<ellipse cx="800" cy="285" rx="16" ry="90" fill="#c4b5fd" opacity="0.22" transform="rotate(270 800 460)" />
<ellipse cx="800" cy="285" rx="16" ry="90" fill="#c4b5fd" opacity="0.22" transform="rotate(281.25 800 460)" />
<ellipse cx="800" cy="285" rx="16" ry="90" fill="#c4b5fd" opacity="0.22" transform="rotate(292.5 800 460)" />
<ellipse cx="800" cy="285" rx="16" ry="90" fill="#c4b5fd" opacity="0.22" transform="rotate(303.75 800 460)" />
<ellipse cx="800" cy="285" rx="16" ry="90" fill="#c4b5fd" opacity="0.22" transform="rotate(315 800 460)" />
<ellipse cx="800" cy="285" rx="16" ry="90" fill="#c4b5fd" opacity="0.22" transform="rotate(326.25 800 460)" />
<ellipse cx="800" cy="285" rx="16" ry="90" fill="#c4b5fd" opacity="0.22" transform="rotate(337.5 800 460)" />
<ellipse cx="800" cy="285" rx="16" ry="90" fill="#c4b5fd" opacity="0.22" transform="rotate(348.75 800 460)" />
    <ellipse cx="800" cy="348" rx="20" ry="72" fill="#fcd34d" opacity="0.32" transform="rotate(0 800 460)" />
<ellipse cx="800" cy="348" rx="20" ry="72" fill="#fcd34d" opacity="0.32" transform="rotate(20 800 460)" />
<ellipse cx="800" cy="348" rx="20" ry="72" fill="#fcd34d" opacity="0.32" transform="rotate(40 800 460)" />
<ellipse cx="800" cy="348" rx="20" ry="72" fill="#fcd34d" opacity="0.32" transform="rotate(60 800 460)" />
<ellipse cx="800" cy="348" rx="20" ry="72" fill="#fcd34d" opacity="0.32" transform="rotate(80 800 460)" />
<ellipse cx="800" cy="348" rx="20" ry="72" fill="#fcd34d" opacity="0.32" transform="rotate(100 800 460)" />
<ellipse cx="800" cy="348" rx="20" ry="72" fill="#fcd34d" opacity="0.32" transform="rotate(120 800 460)" />
<ellipse cx="800" cy="348" rx="20" ry="72" fill="#fcd34d" opacity="0.32" transform="rotate(140 800 460)" />
<ellipse cx="800" cy="348" rx="20" ry="72" fill="#fcd34d" opacity="0.32" transform="rotate(160 800 460)" />
<ellipse cx="800" cy="348" rx="20" ry="72" fill="#fcd34d" opacity="0.32" transform="rotate(180 800 460)" />
<ellipse cx="800" cy="348" rx="20" ry="72" fill="#fcd34d" opacity="0.32" transform="rotate(200 800 460)" />
<ellipse cx="800" cy="348" rx="20" ry="72" fill="#fcd34d" opacity="0.32" transform="rotate(220 800 460)" />
<ellipse cx="800" cy="348" rx="20" ry="72" fill="#fcd34d" opacity="0.32" transform="rotate(240 800 460)" />
<ellipse cx="800" cy="348" rx="20" ry="72" fill="#fcd34d" opacity="0.32" transform="rotate(260 800 460)" />
<ellipse cx="800" cy="348" rx="20" ry="72" fill="#fcd34d" opacity="0.32" transform="rotate(280 800 460)" />
<ellipse cx="800" cy="348" rx="20" ry="72" fill="#fcd34d" opacity="0.32" transform="rotate(300 800 460)" />
<ellipse cx="800" cy="348" rx="20" ry="72" fill="#fcd34d" opacity="0.32" transform="rotate(320 800 460)" />
<ellipse cx="800" cy="348" rx="20" ry="72" fill="#fcd34d" opacity="0.32" transform="rotate(340 800 460)" />
    <circle cx="800" cy="460" r="140" fill="url(#glassOrb)" opacity="0.78"/>
    <text x="800" y="525" text-anchor="middle" font-family="Georgia, 'Noto Serif Devanagari', serif" font-size="210" font-weight="700" fill="#fff7ed" opacity="0.9">ॐ</text>
  
  </g>
  <g opacity="0.78">
    <rect x="88" y="82" width="1424" height="736" rx="46" fill="none" stroke="#ffffff" stroke-opacity="0.2" stroke-width="2"/>
    <path d="M150 150 C320 82 525 78 720 126" stroke="#fff7ed" stroke-opacity="0.44" stroke-width="7" stroke-linecap="round"/>
    <path d="M1332 710 C1215 775 1005 792 855 752" stroke="#c4b5fd" stroke-opacity="0.42" stroke-width="8" stroke-linecap="round"/>
  </g>
  <g transform="translate(126 714)">
    <rect width="420" height="86" rx="28" fill="#ffffff" opacity="0.12"/>
    <rect x="1" y="1" width="418" height="84" rx="27" fill="none" stroke="#ffffff" stroke-opacity="0.22"/>
    <text x="36" y="56" font-family="Georgia, 'Noto Serif Devanagari', serif" font-size="40" font-weight="700" fill="#fff7ed">ॐ</text>
    <circle cx="352" cy="43" r="15" fill="#c4b5fd" opacity="0.9"/>
  </g>
  <rect width="1600" height="900" filter="url(#grain)" opacity="0.34"/>
</svg>
