<svg xmlns="http://www.w3.org/2000/svg" width="1600" height="900" viewBox="0 0 1600 900" role="img" aria-label="मंदिर दर्शन का वैज्ञानिक और आध्यात्मिक महत्व">
  <defs>
    <radialGradient id="bgGlow" cx="50%" cy="43%" r="75%">
      <stop offset="0%" stop-color="#fb923c" stop-opacity="0.46"/>
      <stop offset="45%" stop-color="#67330f" stop-opacity="0.92"/>
      <stop offset="100%" stop-color="#210b05"/>
    </radialGradient>
    <linearGradient id="glassPanel" x1="0%" y1="0%" x2="100%" y2="100%">
      <stop offset="0%" stop-color="#ffffff" stop-opacity="0.58"/>
      <stop offset="42%" stop-color="#fb923c" stop-opacity="0.22"/>
      <stop offset="100%" stop-color="#ffffff" stop-opacity="0.08"/>
    </linearGradient>
    <radialGradient id="glassOrb" cx="34%" cy="24%" r="68%">
      <stop offset="0%" stop-color="#ffffff" stop-opacity="0.94"/>
      <stop offset="34%" stop-color="#fb923c" stop-opacity="0.62"/>
      <stop offset="100%" stop-color="#67330f" stop-opacity="0.22"/>
    </radialGradient>
    <linearGradient id="glassMountain" x1="0%" y1="0%" x2="100%" y2="100%">
      <stop offset="0%" stop-color="#ffffff" stop-opacity="0.48"/>
      <stop offset="100%" stop-color="#fb923c" stop-opacity="0.22"/>
    </linearGradient>
    <filter id="softGlow" x="-30%" y="-30%" width="160%" height="160%">
      <feGaussianBlur stdDeviation="18" result="blur"/>
      <feColorMatrix in="blur" type="matrix" values="1 0 0 0 0  0 1 0 0 0  0 0 1 0 0  0 0 0 0.75 0"/>
      <feMerge>
        <feMergeNode/>
        <feMergeNode in="SourceGraphic"/>
      </feMerge>
    </filter>
    <filter id="grain">
      <feTurbulence type="fractalNoise" baseFrequency="0.82" numOctaves="3" seed="715"/>
      <feColorMatrix type="saturate" values="0"/>
      <feComponentTransfer>
        <feFuncA type="table" tableValues="0 0.075"/>
      </feComponentTransfer>
    </filter>
  </defs>
  <rect width="1600" height="900" fill="url(#bgGlow)"/>
  <g opacity="0.72"><circle cx="1140" cy="751" r="2.2" fill="#fef3c7" opacity="0.21" />
<circle cx="1159" cy="32" r="0.9" fill="#fef3c7" opacity="0.52" />
<circle cx="1178" cy="389" r="2.4" fill="#fef3c7" opacity="0.33" />
<circle cx="1197" cy="570" r="1.1" fill="#fef3c7" opacity="0.64" />
<circle cx="1064" cy="27" r="1.8" fill="#fef3c7" opacity="0.47" />
<circle cx="1083" cy="208" r="2.9" fill="#fef3c7" opacity="0.28" />
<circle cx="1102" cy="565" r="2.0" fill="#fef3c7" opacity="0.59" />
<circle cx="1121" cy="746" r="3.1" fill="#fef3c7" opacity="0.40" />
<circle cx="988" cy="203" r="1.4" fill="#fef3c7" opacity="0.23" />
<circle cx="1007" cy="384" r="2.5" fill="#fef3c7" opacity="0.54" />
<circle cx="21" cy="752" r="2.7" fill="#fef3c7" opacity="0.20" />
<circle cx="2" cy="571" r="1.6" fill="#fef3c7" opacity="0.39" />
<circle cx="1583" cy="390" r="2.5" fill="#fef3c7" opacity="0.32" />
<circle cx="1564" cy="209" r="1.4" fill="#fef3c7" opacity="0.51" />
<circle cx="1545" cy="28" r="2.3" fill="#fef3c7" opacity="0.44" />
<circle cx="1526" cy="747" r="1.2" fill="#fef3c7" opacity="0.63" />
<circle cx="1507" cy="566" r="2.1" fill="#fef3c7" opacity="0.56" />
<circle cx="1488" cy="385" r="1.0" fill="#fef3c7" opacity="0.25" />
<circle cx="173" cy="204" r="1.1" fill="#fef3c7" opacity="0.22" />
<circle cx="154" cy="23" r="2.4" fill="#fef3c7" opacity="0.41" />
<circle cx="30" cy="815" r="2.4" fill="#fef3c7" opacity="0.61" />
<circle cx="49" cy="96" r="1.1" fill="#fef3c7" opacity="0.42" />
<circle cx="1592" cy="453" r="2.2" fill="#fef3c7" opacity="0.23" />
<circle cx="11" cy="634" r="0.9" fill="#fef3c7" opacity="0.54" />
<circle cx="106" cy="91" r="2.0" fill="#fef3c7" opacity="0.37" />
<circle cx="125" cy="272" r="3.1" fill="#fef3c7" opacity="0.18" />
<circle cx="68" cy="629" r="1.8" fill="#fef3c7" opacity="0.49" />
<circle cx="87" cy="810" r="2.9" fill="#fef3c7" opacity="0.30" />
<circle cx="1478" cy="463" r="1.6" fill="#fef3c7" opacity="0.63" />
<circle cx="1497" cy="644" r="2.7" fill="#fef3c7" opacity="0.44" />
<circle cx="39" cy="606" r="1.7" fill="#fef3c7" opacity="0.52" />
<circle cx="20" cy="425" r="3.0" fill="#fef3c7" opacity="0.21" />
<circle cx="77" cy="68" r="1.9" fill="#fef3c7" opacity="0.40" />
<circle cx="58" cy="787" r="0.8" fill="#fef3c7" opacity="0.59" />
<circle cx="1563" cy="430" r="1.3" fill="#fef3c7" opacity="0.28" />
<circle cx="1544" cy="249" r="2.6" fill="#fef3c7" opacity="0.47" />
<circle cx="1" cy="792" r="1.5" fill="#fef3c7" opacity="0.66" />
<circle cx="1582" cy="611" r="2.8" fill="#fef3c7" opacity="0.35" />
<circle cx="1487" cy="58" r="0.9" fill="#fef3c7" opacity="0.54" />
<circle cx="1468" cy="777" r="2.2" fill="#fef3c7" opacity="0.23" />
<circle cx="1416" cy="565" r="3.0" fill="#fef3c7" opacity="0.25" />
<circle cx="1435" cy="746" r="1.7" fill="#fef3c7" opacity="0.56" />
<circle cx="1454" cy="27" r="0.8" fill="#fef3c7" opacity="0.63" />
<circle cx="1473" cy="208" r="1.9" fill="#fef3c7" opacity="0.44" />
<circle cx="1492" cy="389" r="2.6" fill="#fef3c7" opacity="0.49" />
<circle cx="1511" cy="570" r="1.3" fill="#fef3c7" opacity="0.30" />
<circle cx="1530" cy="751" r="2.8" fill="#fef3c7" opacity="0.37" />
<circle cx="1549" cy="32" r="1.5" fill="#fef3c7" opacity="0.18" />
<circle cx="1264" cy="213" r="2.2" fill="#fef3c7" opacity="0.27" />
<circle cx="1283" cy="394" r="0.9" fill="#fef3c7" opacity="0.58" />
<circle cx="1425" cy="124" r="2.3" fill="#fef3c7" opacity="0.34" />
<circle cx="1406" cy="843" r="1.2" fill="#fef3c7" opacity="0.53" />
<circle cx="1387" cy="662" r="2.1" fill="#fef3c7" opacity="0.46" />
<circle cx="1368" cy="481" r="1.0" fill="#fef3c7" opacity="0.65" />
<circle cx="1501" cy="848" r="2.7" fill="#fef3c7" opacity="0.60" />
<circle cx="1482" cy="667" r="1.6" fill="#fef3c7" opacity="0.29" />
<circle cx="1463" cy="486" r="2.5" fill="#fef3c7" opacity="0.22" />
<circle cx="1444" cy="305" r="1.4" fill="#fef3c7" opacity="0.41" />
<circle cx="1273" cy="672" r="1.5" fill="#fef3c7" opacity="0.36" />
<circle cx="1254" cy="491" r="2.8" fill="#fef3c7" opacity="0.55" />
<circle cx="1370" cy="475" r="2.0" fill="#fef3c7" opacity="0.33" />
<circle cx="1389" cy="656" r="3.1" fill="#fef3c7" opacity="0.64" />
<circle cx="1332" cy="113" r="1.8" fill="#fef3c7" opacity="0.45" />
<circle cx="1351" cy="294" r="2.9" fill="#fef3c7" opacity="0.26" />
<circle cx="1294" cy="299" r="2.4" fill="#fef3c7" opacity="0.57" />
<circle cx="1313" cy="480" r="1.1" fill="#fef3c7" opacity="0.38" />
<circle cx="1256" cy="837" r="2.2" fill="#fef3c7" opacity="0.19" />
<circle cx="1275" cy="118" r="0.9" fill="#fef3c7" opacity="0.50" /></g>
  <circle cx="470" cy="261" r="230" fill="#fb923c" opacity="0.08"/>
  <circle cx="1112" cy="680" r="275" fill="#fef3c7" opacity="0.08"/>
  <g filter="url(#softGlow)">
    
      <path d="M450 705 h700 v-48 H450 Z" fill="url(#glassPanel)" opacity="0.72"/>
      <path d="M535 657 v-250 h530 v250 Z" fill="url(#glassPanel)" opacity="0.48"/>
      <path d="M495 407 h610 L800 210 Z" fill="#fef3c7" opacity="0.6"/>
      <path d="M645 657 V500 a155 155 0 0 1 310 0 v157 Z" fill="#210b05" opacity="0.74"/>
      <path d="M800 210 v-88" stroke="#fb923c" stroke-width="9" opacity="0.88"/>
      <path d="M800 126 c48 -26 72 6 115 -15 c-34 60 -78 38 -115 64 Z" fill="#fb923c" opacity="0.82"/>
    
  </g>
  <g opacity="0.78">
    <rect x="88" y="82" width="1424" height="736" rx="46" fill="none" stroke="#ffffff" stroke-opacity="0.2" stroke-width="2"/>
    <path d="M150 150 C320 82 525 78 720 126" stroke="#fff7ed" stroke-opacity="0.44" stroke-width="7" stroke-linecap="round"/>
    <path d="M1332 710 C1215 775 1005 792 855 752" stroke="#fb923c" stroke-opacity="0.42" stroke-width="8" stroke-linecap="round"/>
  </g>
  <g transform="translate(126 714)">
    <rect width="420" height="86" rx="28" fill="#ffffff" opacity="0.12"/>
    <rect x="1" y="1" width="418" height="84" rx="27" fill="none" stroke="#ffffff" stroke-opacity="0.22"/>
    <text x="36" y="56" font-family="Georgia, 'Noto Serif Devanagari', serif" font-size="40" font-weight="700" fill="#fff7ed">मंदिर</text>
    <circle cx="352" cy="43" r="15" fill="#fb923c" opacity="0.9"/>
  </g>
  <rect width="1600" height="900" filter="url(#grain)" opacity="0.34"/>
</svg>
