<svg xmlns="http://www.w3.org/2000/svg" width="1600" height="900" viewBox="0 0 1600 900" role="img" aria-label="मार्कंडेय पुराण: महामृत्युंजय मंत्र की चमत्कारी कथा, ऋषि मार्कंडेय की यमराज पर विजय और अकाल मृत्यु निवारण का रहस्य">
  <defs>
    <radialGradient id="bgGlow" cx="50%" cy="43%" r="75%">
      <stop offset="0%" stop-color="#6ee7f9" stop-opacity="0.46"/>
      <stop offset="45%" stop-color="#19233f" stop-opacity="0.92"/>
      <stop offset="100%" stop-color="#07111f"/>
    </radialGradient>
    <linearGradient id="glassPanel" x1="0%" y1="0%" x2="100%" y2="100%">
      <stop offset="0%" stop-color="#ffffff" stop-opacity="0.58"/>
      <stop offset="42%" stop-color="#6ee7f9" stop-opacity="0.22"/>
      <stop offset="100%" stop-color="#ffffff" stop-opacity="0.08"/>
    </linearGradient>
    <radialGradient id="glassOrb" cx="34%" cy="24%" r="68%">
      <stop offset="0%" stop-color="#ffffff" stop-opacity="0.94"/>
      <stop offset="34%" stop-color="#6ee7f9" stop-opacity="0.62"/>
      <stop offset="100%" stop-color="#19233f" stop-opacity="0.22"/>
    </radialGradient>
    <linearGradient id="glassMountain" x1="0%" y1="0%" x2="100%" y2="100%">
      <stop offset="0%" stop-color="#ffffff" stop-opacity="0.48"/>
      <stop offset="100%" stop-color="#6ee7f9" stop-opacity="0.22"/>
    </linearGradient>
    <filter id="softGlow" x="-30%" y="-30%" width="160%" height="160%">
      <feGaussianBlur stdDeviation="18" result="blur"/>
      <feColorMatrix in="blur" type="matrix" values="1 0 0 0 0  0 1 0 0 0  0 0 1 0 0  0 0 0 0.75 0"/>
      <feMerge>
        <feMergeNode/>
        <feMergeNode in="SourceGraphic"/>
      </feMerge>
    </filter>
    <filter id="grain">
      <feTurbulence type="fractalNoise" baseFrequency="0.82" numOctaves="3" seed="674"/>
      <feColorMatrix type="saturate" values="0"/>
      <feComponentTransfer>
        <feFuncA type="table" tableValues="0 0.075"/>
      </feComponentTransfer>
    </filter>
  </defs>
  <rect width="1600" height="900" fill="url(#bgGlow)"/>
  <g opacity="0.72"><circle cx="246" cy="385" r="2.0" fill="#c4b5fd" opacity="0.39" />
<circle cx="265" cy="566" r="3.1" fill="#c4b5fd" opacity="0.20" />
<circle cx="208" cy="747" r="1.8" fill="#c4b5fd" opacity="0.27" />
<circle cx="227" cy="28" r="2.9" fill="#c4b5fd" opacity="0.58" />
<circle cx="322" cy="209" r="2.4" fill="#c4b5fd" opacity="0.63" />
<circle cx="341" cy="390" r="1.1" fill="#c4b5fd" opacity="0.44" />
<circle cx="284" cy="571" r="2.2" fill="#c4b5fd" opacity="0.51" />
<circle cx="303" cy="752" r="0.9" fill="#c4b5fd" opacity="0.32" />
<circle cx="398" cy="33" r="2.8" fill="#c4b5fd" opacity="0.41" />
<circle cx="417" cy="214" r="1.5" fill="#c4b5fd" opacity="0.22" />
<circle cx="1019" cy="726" r="2.9" fill="#c4b5fd" opacity="0.32" />
<circle cx="1000" cy="545" r="1.8" fill="#c4b5fd" opacity="0.51" />
<circle cx="1057" cy="188" r="3.1" fill="#c4b5fd" opacity="0.20" />
<circle cx="1038" cy="7" r="2.0" fill="#c4b5fd" opacity="0.39" />
<circle cx="1095" cy="2" r="0.9" fill="#c4b5fd" opacity="0.56" />
<circle cx="1076" cy="721" r="2.2" fill="#c4b5fd" opacity="0.25" />
<circle cx="1133" cy="364" r="1.1" fill="#c4b5fd" opacity="0.44" />
<circle cx="1114" cy="183" r="2.4" fill="#c4b5fd" opacity="0.63" />
<circle cx="867" cy="374" r="2.1" fill="#c4b5fd" opacity="0.30" />
<circle cx="848" cy="193" r="1.0" fill="#c4b5fd" opacity="0.49" />
<circle cx="1056" cy="285" r="2.2" fill="#c4b5fd" opacity="0.33" />
<circle cx="1075" cy="466" r="0.9" fill="#c4b5fd" opacity="0.64" />
<circle cx="1094" cy="647" r="2.4" fill="#c4b5fd" opacity="0.21" />
<circle cx="1113" cy="828" r="1.1" fill="#c4b5fd" opacity="0.52" />
<circle cx="1132" cy="109" r="1.8" fill="#c4b5fd" opacity="0.57" />
<circle cx="1151" cy="290" r="2.9" fill="#c4b5fd" opacity="0.38" />
<circle cx="1170" cy="471" r="2.0" fill="#c4b5fd" opacity="0.45" />
<circle cx="1189" cy="652" r="3.1" fill="#c4b5fd" opacity="0.26" />
<circle cx="1208" cy="637" r="3.0" fill="#c4b5fd" opacity="0.35" />
<circle cx="1227" cy="818" r="1.7" fill="#c4b5fd" opacity="0.66" />
<circle cx="1065" cy="76" r="1.5" fill="#c4b5fd" opacity="0.24" />
<circle cx="1046" cy="795" r="2.8" fill="#c4b5fd" opacity="0.43" />
<circle cx="1027" cy="614" r="1.3" fill="#c4b5fd" opacity="0.36" />
<circle cx="1008" cy="433" r="2.6" fill="#c4b5fd" opacity="0.55" />
<circle cx="1141" cy="800" r="1.9" fill="#c4b5fd" opacity="0.50" />
<circle cx="1122" cy="619" r="0.8" fill="#c4b5fd" opacity="0.19" />
<circle cx="1103" cy="438" r="1.7" fill="#c4b5fd" opacity="0.62" />
<circle cx="1084" cy="257" r="3.0" fill="#c4b5fd" opacity="0.31" />
<circle cx="1217" cy="428" r="2.3" fill="#c4b5fd" opacity="0.26" />
<circle cx="1198" cy="247" r="1.2" fill="#c4b5fd" opacity="0.45" />
<circle cx="1270" cy="767" r="1.6" fill="#c4b5fd" opacity="0.55" />
<circle cx="1289" cy="48" r="2.7" fill="#c4b5fd" opacity="0.36" />
<circle cx="1232" cy="405" r="1.4" fill="#c4b5fd" opacity="0.67" />
<circle cx="1251" cy="586" r="2.5" fill="#c4b5fd" opacity="0.48" />
<circle cx="1346" cy="43" r="1.2" fill="#c4b5fd" opacity="0.31" />
<circle cx="1365" cy="224" r="2.3" fill="#c4b5fd" opacity="0.62" />
<circle cx="1308" cy="581" r="1.0" fill="#c4b5fd" opacity="0.43" />
<circle cx="1327" cy="762" r="2.1" fill="#c4b5fd" opacity="0.24" />
<circle cx="1422" cy="219" r="2.4" fill="#c4b5fd" opacity="0.57" />
<circle cx="1441" cy="400" r="1.1" fill="#c4b5fd" opacity="0.38" />
<circle cx="1279" cy="730" r="0.9" fill="#c4b5fd" opacity="0.60" />
<circle cx="1260" cy="549" r="2.2" fill="#c4b5fd" opacity="0.29" />
<circle cx="1317" cy="192" r="1.1" fill="#c4b5fd" opacity="0.48" />
<circle cx="1298" cy="11" r="2.4" fill="#c4b5fd" opacity="0.67" />
<circle cx="1203" cy="554" r="2.9" fill="#c4b5fd" opacity="0.36" />
<circle cx="1184" cy="373" r="1.8" fill="#c4b5fd" opacity="0.55" />
<circle cx="1241" cy="16" r="3.1" fill="#c4b5fd" opacity="0.24" />
<circle cx="1222" cy="735" r="2.0" fill="#c4b5fd" opacity="0.43" />
<circle cx="1431" cy="378" r="1.7" fill="#c4b5fd" opacity="0.62" />
<circle cx="1412" cy="197" r="3.0" fill="#c4b5fd" opacity="0.31" />
<circle cx="1028" cy="521" r="2.6" fill="#c4b5fd" opacity="0.23" />
<circle cx="1047" cy="702" r="1.3" fill="#c4b5fd" opacity="0.54" />
<circle cx="1066" cy="883" r="2.8" fill="#c4b5fd" opacity="0.61" />
<circle cx="1085" cy="164" r="1.5" fill="#c4b5fd" opacity="0.42" />
<circle cx="952" cy="697" r="3.0" fill="#c4b5fd" opacity="0.49" />
<circle cx="971" cy="878" r="1.7" fill="#c4b5fd" opacity="0.30" />
<circle cx="990" cy="159" r="0.8" fill="#c4b5fd" opacity="0.37" />
<circle cx="1009" cy="340" r="1.9" fill="#c4b5fd" opacity="0.18" /></g>
  <circle cx="476" cy="323" r="230" fill="#6ee7f9" opacity="0.08"/>
  <circle cx="1174" cy="686" r="275" fill="#c4b5fd" opacity="0.08"/>
  <g filter="url(#softGlow)">
    
      <path d="M0 760 L260 430 L420 630 L620 315 L860 710 L1100 390 L1370 760 Z" fill="url(#glassMountain)" opacity="0.72"/>
      <path d="M586 360 L620 315 L654 360 L632 350 L620 385 L607 350 Z" fill="#f8fafc" opacity="0.88"/>
      <path d="M1062 442 L1100 390 L1140 446 L1118 432 L1100 472 L1084 432 Z" fill="#f8fafc" opacity="0.82"/>
      <path d="M778 225 v285 M708 332 h140 M738 275 q40 28 80 0" stroke="#c4b5fd" stroke-width="22" stroke-linecap="round" fill="none" opacity="0.84"/>
    
  </g>
  <g opacity="0.78">
    <rect x="88" y="82" width="1424" height="736" rx="46" fill="none" stroke="#ffffff" stroke-opacity="0.2" stroke-width="2"/>
    <path d="M150 150 C320 82 525 78 720 126" stroke="#fff7ed" stroke-opacity="0.44" stroke-width="7" stroke-linecap="round"/>
    <path d="M1332 710 C1215 775 1005 792 855 752" stroke="#6ee7f9" stroke-opacity="0.42" stroke-width="8" stroke-linecap="round"/>
  </g>
  <g transform="translate(126 714)">
    <rect width="420" height="86" rx="28" fill="#ffffff" opacity="0.12"/>
    <rect x="1" y="1" width="418" height="84" rx="27" fill="none" stroke="#ffffff" stroke-opacity="0.22"/>
    <text x="36" y="56" font-family="Georgia, 'Noto Serif Devanagari', serif" font-size="40" font-weight="700" fill="#fff7ed">त्रिशूल</text>
    <circle cx="352" cy="43" r="15" fill="#6ee7f9" opacity="0.9"/>
  </g>
  <rect width="1600" height="900" filter="url(#grain)" opacity="0.34"/>
</svg>
