<svg xmlns="http://www.w3.org/2000/svg" width="1600" height="900" viewBox="0 0 1600 900" role="img" aria-label="मौन साधना: शांत रहने का वैज्ञानिक व आध्यात्मिक महत्व, वाणी का तप, प्राण ऊर्जा का संरक्षण और व्यावहारिक मौन व्रत विधि">
  <defs>
    <radialGradient id="bgGlow" cx="50%" cy="43%" r="75%">
      <stop offset="0%" stop-color="#a7f3d0" stop-opacity="0.46"/>
      <stop offset="45%" stop-color="#0f4d3f" stop-opacity="0.92"/>
      <stop offset="100%" stop-color="#05231d"/>
    </radialGradient>
    <linearGradient id="glassPanel" x1="0%" y1="0%" x2="100%" y2="100%">
      <stop offset="0%" stop-color="#ffffff" stop-opacity="0.58"/>
      <stop offset="42%" stop-color="#a7f3d0" stop-opacity="0.22"/>
      <stop offset="100%" stop-color="#ffffff" stop-opacity="0.08"/>
    </linearGradient>
    <radialGradient id="glassOrb" cx="34%" cy="24%" r="68%">
      <stop offset="0%" stop-color="#ffffff" stop-opacity="0.94"/>
      <stop offset="34%" stop-color="#a7f3d0" stop-opacity="0.62"/>
      <stop offset="100%" stop-color="#0f4d3f" stop-opacity="0.22"/>
    </radialGradient>
    <linearGradient id="glassMountain" x1="0%" y1="0%" x2="100%" y2="100%">
      <stop offset="0%" stop-color="#ffffff" stop-opacity="0.48"/>
      <stop offset="100%" stop-color="#a7f3d0" stop-opacity="0.22"/>
    </linearGradient>
    <filter id="softGlow" x="-30%" y="-30%" width="160%" height="160%">
      <feGaussianBlur stdDeviation="18" result="blur"/>
      <feColorMatrix in="blur" type="matrix" values="1 0 0 0 0  0 1 0 0 0  0 0 1 0 0  0 0 0 0.75 0"/>
      <feMerge>
        <feMergeNode/>
        <feMergeNode in="SourceGraphic"/>
      </feMerge>
    </filter>
    <filter id="grain">
      <feTurbulence type="fractalNoise" baseFrequency="0.82" numOctaves="3" seed="615"/>
      <feColorMatrix type="saturate" values="0"/>
      <feComponentTransfer>
        <feFuncA type="table" tableValues="0 0.075"/>
      </feComponentTransfer>
    </filter>
  </defs>
  <rect width="1600" height="900" fill="url(#bgGlow)"/>
  <g opacity="0.72"><circle cx="129" cy="166" r="2.3" fill="#fde68a" opacity="0.24" />
<circle cx="110" cy="885" r="1.2" fill="#fde68a" opacity="0.43" />
<circle cx="91" cy="528" r="2.1" fill="#fde68a" opacity="0.62" />
<circle cx="72" cy="347" r="1.0" fill="#fde68a" opacity="0.31" />
<circle cx="205" cy="890" r="2.7" fill="#fde68a" opacity="0.48" />
<circle cx="186" cy="709" r="1.6" fill="#fde68a" opacity="0.67" />
<circle cx="167" cy="352" r="2.5" fill="#fde68a" opacity="0.36" />
<circle cx="148" cy="171" r="1.4" fill="#fde68a" opacity="0.55" />
<circle cx="1577" cy="714" r="3.1" fill="#fde68a" opacity="0.26" />
<circle cx="1558" cy="533" r="2.0" fill="#fde68a" opacity="0.45" />
<circle cx="890" cy="507" r="2.0" fill="#fde68a" opacity="0.63" />
<circle cx="909" cy="688" r="3.1" fill="#fde68a" opacity="0.44" />
<circle cx="852" cy="145" r="1.8" fill="#fde68a" opacity="0.25" />
<circle cx="871" cy="326" r="2.9" fill="#fde68a" opacity="0.56" />
<circle cx="814" cy="331" r="2.4" fill="#fde68a" opacity="0.37" />
<circle cx="833" cy="512" r="1.1" fill="#fde68a" opacity="0.18" />
<circle cx="776" cy="869" r="2.2" fill="#fde68a" opacity="0.49" />
<circle cx="795" cy="150" r="0.9" fill="#fde68a" opacity="0.30" />
<circle cx="738" cy="155" r="1.2" fill="#fde68a" opacity="0.61" />
<circle cx="757" cy="336" r="2.3" fill="#fde68a" opacity="0.42" />
<circle cx="881" cy="548" r="2.3" fill="#fde68a" opacity="0.46" />
<circle cx="862" cy="367" r="1.2" fill="#fde68a" opacity="0.65" />
<circle cx="843" cy="186" r="2.1" fill="#fde68a" opacity="0.58" />
<circle cx="824" cy="5" r="1.0" fill="#fde68a" opacity="0.27" />
<circle cx="957" cy="372" r="2.7" fill="#fde68a" opacity="0.22" />
<circle cx="938" cy="191" r="1.6" fill="#fde68a" opacity="0.41" />
<circle cx="919" cy="10" r="2.5" fill="#fde68a" opacity="0.34" />
<circle cx="900" cy="729" r="1.4" fill="#fde68a" opacity="0.53" />
<circle cx="729" cy="0" r="3.1" fill="#fde68a" opacity="0.48" />
<circle cx="710" cy="719" r="2.0" fill="#fde68a" opacity="0.67" />
<circle cx="872" cy="757" r="3.0" fill="#fde68a" opacity="0.55" />
<circle cx="891" cy="38" r="1.7" fill="#fde68a" opacity="0.36" />
<circle cx="910" cy="219" r="0.8" fill="#fde68a" opacity="0.43" />
<circle cx="929" cy="400" r="1.9" fill="#fde68a" opacity="0.24" />
<circle cx="948" cy="581" r="2.6" fill="#fde68a" opacity="0.29" />
<circle cx="967" cy="762" r="1.3" fill="#fde68a" opacity="0.60" />
<circle cx="986" cy="43" r="2.8" fill="#fde68a" opacity="0.67" />
<circle cx="1005" cy="224" r="1.5" fill="#fde68a" opacity="0.48" />
<circle cx="720" cy="209" r="1.4" fill="#fde68a" opacity="0.57" />
<circle cx="739" cy="390" r="2.5" fill="#fde68a" opacity="0.38" />
<circle cx="1095" cy="302" r="1.7" fill="#fde68a" opacity="0.32" />
<circle cx="1076" cy="121" r="3.0" fill="#fde68a" opacity="0.51" />
<circle cx="1133" cy="664" r="1.9" fill="#fde68a" opacity="0.20" />
<circle cx="1114" cy="483" r="0.8" fill="#fde68a" opacity="0.39" />
<circle cx="1019" cy="126" r="1.3" fill="#fde68a" opacity="0.58" />
<circle cx="1000" cy="845" r="2.6" fill="#fde68a" opacity="0.27" />
<circle cx="1057" cy="488" r="1.5" fill="#fde68a" opacity="0.46" />
<circle cx="1038" cy="307" r="2.8" fill="#fde68a" opacity="0.65" />
<circle cx="943" cy="850" r="2.5" fill="#fde68a" opacity="0.34" />
<circle cx="924" cy="669" r="1.4" fill="#fde68a" opacity="0.53" />
<circle cx="1150" cy="339" r="2.4" fill="#fde68a" opacity="0.41" />
<circle cx="1169" cy="520" r="1.1" fill="#fde68a" opacity="0.22" />
<circle cx="1112" cy="877" r="2.2" fill="#fde68a" opacity="0.53" />
<circle cx="1131" cy="158" r="0.9" fill="#fde68a" opacity="0.34" />
<circle cx="1226" cy="515" r="2.0" fill="#fde68a" opacity="0.67" />
<circle cx="1245" cy="696" r="3.1" fill="#fde68a" opacity="0.48" />
<circle cx="1188" cy="153" r="1.8" fill="#fde68a" opacity="0.29" />
<circle cx="1207" cy="334" r="2.9" fill="#fde68a" opacity="0.60" />
<circle cx="998" cy="691" r="0.8" fill="#fde68a" opacity="0.43" />
<circle cx="1017" cy="872" r="1.9" fill="#fde68a" opacity="0.24" />
<circle cx="1141" cy="784" r="2.7" fill="#fde68a" opacity="0.50" />
<circle cx="1122" cy="603" r="1.6" fill="#fde68a" opacity="0.19" />
<circle cx="1103" cy="422" r="2.5" fill="#fde68a" opacity="0.62" />
<circle cx="1084" cy="241" r="1.4" fill="#fde68a" opacity="0.31" />
<circle cx="1065" cy="60" r="2.3" fill="#fde68a" opacity="0.24" />
<circle cx="1046" cy="779" r="1.2" fill="#fde68a" opacity="0.43" />
<circle cx="1027" cy="598" r="2.1" fill="#fde68a" opacity="0.36" />
<circle cx="1008" cy="417" r="1.0" fill="#fde68a" opacity="0.55" /></g>
  <circle cx="499" cy="268" r="230" fill="#a7f3d0" opacity="0.08"/>
  <circle cx="1117" cy="669" r="275" fill="#fde68a" opacity="0.08"/>
  <g filter="url(#softGlow)">
    
      <circle cx="800" cy="455" r="245" fill="none" stroke="#a7f3d0" stroke-width="18" opacity="0.28"/>
      <circle cx="800" cy="455" r="175" fill="none" stroke="#fde68a" stroke-width="12" opacity="0.42"/>
      <text x="800" y="520" text-anchor="middle" font-family="Georgia, 'Noto Serif Devanagari', serif" font-size="230" font-weight="700" fill="#fff7ed" opacity="0.92">ॐ</text>
      <path d="M596 700 C700 624 900 624 1004 700" stroke="#a7f3d0" stroke-width="22" stroke-linecap="round" opacity="0.42" fill="none"/>
    
  </g>
  <g opacity="0.78">
    <rect x="88" y="82" width="1424" height="736" rx="46" fill="none" stroke="#ffffff" stroke-opacity="0.2" stroke-width="2"/>
    <path d="M150 150 C320 82 525 78 720 126" stroke="#fff7ed" stroke-opacity="0.44" stroke-width="7" stroke-linecap="round"/>
    <path d="M1332 710 C1215 775 1005 792 855 752" stroke="#a7f3d0" stroke-opacity="0.42" stroke-width="8" stroke-linecap="round"/>
  </g>
  <g transform="translate(126 714)">
    <rect width="420" height="86" rx="28" fill="#ffffff" opacity="0.12"/>
    <rect x="1" y="1" width="418" height="84" rx="27" fill="none" stroke="#ffffff" stroke-opacity="0.22"/>
    <text x="36" y="56" font-family="Georgia, 'Noto Serif Devanagari', serif" font-size="40" font-weight="700" fill="#fff7ed">ॐ</text>
    <circle cx="352" cy="43" r="15" fill="#a7f3d0" opacity="0.9"/>
  </g>
  <rect width="1600" height="900" filter="url(#grain)" opacity="0.34"/>
</svg>
