<svg xmlns="http://www.w3.org/2000/svg" width="1600" height="900" viewBox="0 0 1600 900" role="img" aria-label="मीराबाई: प्रेम और समर्पण की प्रतिमूर्ति तथा उनकी अनन्य कृष्ण भक्ति">
  <defs>
    <radialGradient id="bgGlow" cx="50%" cy="43%" r="75%">
      <stop offset="0%" stop-color="#7dd3fc" stop-opacity="0.46"/>
      <stop offset="45%" stop-color="#0f3a5f" stop-opacity="0.92"/>
      <stop offset="100%" stop-color="#06152f"/>
    </radialGradient>
    <linearGradient id="glassPanel" x1="0%" y1="0%" x2="100%" y2="100%">
      <stop offset="0%" stop-color="#ffffff" stop-opacity="0.58"/>
      <stop offset="42%" stop-color="#7dd3fc" stop-opacity="0.22"/>
      <stop offset="100%" stop-color="#ffffff" stop-opacity="0.08"/>
    </linearGradient>
    <radialGradient id="glassOrb" cx="34%" cy="24%" r="68%">
      <stop offset="0%" stop-color="#ffffff" stop-opacity="0.94"/>
      <stop offset="34%" stop-color="#7dd3fc" stop-opacity="0.62"/>
      <stop offset="100%" stop-color="#0f3a5f" stop-opacity="0.22"/>
    </radialGradient>
    <linearGradient id="glassMountain" x1="0%" y1="0%" x2="100%" y2="100%">
      <stop offset="0%" stop-color="#ffffff" stop-opacity="0.48"/>
      <stop offset="100%" stop-color="#7dd3fc" stop-opacity="0.22"/>
    </linearGradient>
    <filter id="softGlow" x="-30%" y="-30%" width="160%" height="160%">
      <feGaussianBlur stdDeviation="18" result="blur"/>
      <feColorMatrix in="blur" type="matrix" values="1 0 0 0 0  0 1 0 0 0  0 0 1 0 0  0 0 0 0.75 0"/>
      <feMerge>
        <feMergeNode/>
        <feMergeNode in="SourceGraphic"/>
      </feMerge>
    </filter>
    <filter id="grain">
      <feTurbulence type="fractalNoise" baseFrequency="0.82" numOctaves="3" seed="149"/>
      <feColorMatrix type="saturate" values="0"/>
      <feComponentTransfer>
        <feFuncA type="table" tableValues="0 0.075"/>
      </feComponentTransfer>
    </filter>
  </defs>
  <rect width="1600" height="900" fill="url(#bgGlow)"/>
  <g opacity="0.72"><circle cx="269" cy="574" r="1.1" fill="#facc15" opacity="0.66" />
<circle cx="250" cy="393" r="2.4" fill="#facc15" opacity="0.35" />
<circle cx="231" cy="36" r="0.9" fill="#facc15" opacity="0.54" />
<circle cx="212" cy="755" r="2.2" fill="#facc15" opacity="0.23" />
<circle cx="193" cy="750" r="3.1" fill="#facc15" opacity="0.42" />
<circle cx="174" cy="569" r="2.0" fill="#facc15" opacity="0.61" />
<circle cx="155" cy="212" r="2.9" fill="#facc15" opacity="0.30" />
<circle cx="136" cy="31" r="1.8" fill="#facc15" opacity="0.49" />
<circle cx="117" cy="26" r="2.7" fill="#facc15" opacity="0.18" />
<circle cx="98" cy="745" r="1.6" fill="#facc15" opacity="0.37" />
<circle cx="1150" cy="79" r="2.4" fill="#facc15" opacity="0.43" />
<circle cx="1169" cy="260" r="1.1" fill="#facc15" opacity="0.24" />
<circle cx="1112" cy="617" r="2.2" fill="#facc15" opacity="0.55" />
<circle cx="1131" cy="798" r="0.9" fill="#facc15" opacity="0.36" />
<circle cx="1226" cy="255" r="2.0" fill="#facc15" opacity="0.19" />
<circle cx="1245" cy="436" r="3.1" fill="#facc15" opacity="0.50" />
<circle cx="1188" cy="793" r="1.8" fill="#facc15" opacity="0.31" />
<circle cx="1207" cy="74" r="2.9" fill="#facc15" opacity="0.62" />
<circle cx="998" cy="627" r="1.6" fill="#facc15" opacity="0.45" />
<circle cx="1017" cy="808" r="2.7" fill="#facc15" opacity="0.26" />
<circle cx="1141" cy="352" r="2.7" fill="#facc15" opacity="0.52" />
<circle cx="1122" cy="171" r="1.6" fill="#facc15" opacity="0.21" />
<circle cx="1103" cy="890" r="2.5" fill="#facc15" opacity="0.64" />
<circle cx="1084" cy="709" r="1.4" fill="#facc15" opacity="0.33" />
<circle cx="1065" cy="528" r="2.3" fill="#facc15" opacity="0.26" />
<circle cx="1046" cy="347" r="1.2" fill="#facc15" opacity="0.45" />
<circle cx="1027" cy="166" r="2.1" fill="#facc15" opacity="0.38" />
<circle cx="1008" cy="885" r="1.0" fill="#facc15" opacity="0.57" />
<circle cx="1293" cy="704" r="1.1" fill="#facc15" opacity="0.54" />
<circle cx="1274" cy="523" r="2.4" fill="#facc15" opacity="0.23" />
<circle cx="1132" cy="561" r="1.0" fill="#facc15" opacity="0.61" />
<circle cx="1151" cy="742" r="2.1" fill="#facc15" opacity="0.42" />
<circle cx="1170" cy="23" r="1.2" fill="#facc15" opacity="0.49" />
<circle cx="1189" cy="204" r="2.3" fill="#facc15" opacity="0.30" />
<circle cx="1056" cy="737" r="1.4" fill="#facc15" opacity="0.37" />
<circle cx="1075" cy="18" r="2.5" fill="#facc15" opacity="0.18" />
<circle cx="1094" cy="199" r="1.6" fill="#facc15" opacity="0.25" />
<circle cx="1113" cy="380" r="2.7" fill="#facc15" opacity="0.56" />
<circle cx="1284" cy="13" r="2.6" fill="#facc15" opacity="0.59" />
<circle cx="1303" cy="194" r="1.3" fill="#facc15" opacity="0.40" />
<circle cx="1123" cy="534" r="1.3" fill="#facc15" opacity="0.20" />
<circle cx="1104" cy="353" r="2.6" fill="#facc15" opacity="0.39" />
<circle cx="1161" cy="896" r="1.5" fill="#facc15" opacity="0.58" />
<circle cx="1142" cy="715" r="2.8" fill="#facc15" opacity="0.27" />
<circle cx="1199" cy="710" r="1.7" fill="#facc15" opacity="0.44" />
<circle cx="1180" cy="529" r="3.0" fill="#facc15" opacity="0.63" />
<circle cx="1237" cy="172" r="1.9" fill="#facc15" opacity="0.32" />
<circle cx="1218" cy="891" r="0.8" fill="#facc15" opacity="0.51" />
<circle cx="1275" cy="886" r="2.1" fill="#facc15" opacity="0.18" />
<circle cx="1256" cy="705" r="1.0" fill="#facc15" opacity="0.37" />
<circle cx="186" cy="75" r="2.0" fill="#facc15" opacity="0.65" />
<circle cx="205" cy="256" r="3.1" fill="#facc15" opacity="0.46" />
<circle cx="148" cy="613" r="1.8" fill="#facc15" opacity="0.27" />
<circle cx="167" cy="794" r="2.9" fill="#facc15" opacity="0.58" />
<circle cx="110" cy="799" r="2.4" fill="#facc15" opacity="0.39" />
<circle cx="129" cy="80" r="1.1" fill="#facc15" opacity="0.20" />
<circle cx="72" cy="437" r="2.2" fill="#facc15" opacity="0.51" />
<circle cx="91" cy="618" r="0.9" fill="#facc15" opacity="0.32" />
<circle cx="34" cy="427" r="2.8" fill="#facc15" opacity="0.63" />
<circle cx="53" cy="608" r="1.5" fill="#facc15" opacity="0.44" />
<circle cx="177" cy="624" r="2.3" fill="#facc15" opacity="0.66" />
<circle cx="158" cy="443" r="1.2" fill="#facc15" opacity="0.35" />
<circle cx="139" cy="262" r="2.1" fill="#facc15" opacity="0.28" />
<circle cx="120" cy="81" r="1.0" fill="#facc15" opacity="0.47" />
<circle cx="253" cy="448" r="2.7" fill="#facc15" opacity="0.42" />
<circle cx="234" cy="267" r="1.6" fill="#facc15" opacity="0.61" />
<circle cx="215" cy="86" r="2.5" fill="#facc15" opacity="0.54" />
<circle cx="196" cy="805" r="1.4" fill="#facc15" opacity="0.23" /></g>
  <circle cx="491" cy="320" r="230" fill="#7dd3fc" opacity="0.08"/>
  <circle cx="1089" cy="633" r="275" fill="#facc15" opacity="0.08"/>
  <g filter="url(#softGlow)">
    
      <circle cx="832" cy="430" r="185" fill="none" stroke="#facc15" stroke-width="20" opacity="0.78"/>
      <line x1="832" y1="430" x2="832" y2="245" stroke="#facc15" stroke-width="7" opacity="0.58" transform="rotate(0 832 430)" />
<line x1="832" y1="430" x2="832" y2="245" stroke="#facc15" stroke-width="7" opacity="0.58" transform="rotate(15 832 430)" />
<line x1="832" y1="430" x2="832" y2="245" stroke="#facc15" stroke-width="7" opacity="0.58" transform="rotate(30 832 430)" />
<line x1="832" y1="430" x2="832" y2="245" stroke="#facc15" stroke-width="7" opacity="0.58" transform="rotate(45 832 430)" />
<line x1="832" y1="430" x2="832" y2="245" stroke="#facc15" stroke-width="7" opacity="0.58" transform="rotate(60 832 430)" />
<line x1="832" y1="430" x2="832" y2="245" stroke="#facc15" stroke-width="7" opacity="0.58" transform="rotate(75 832 430)" />
<line x1="832" y1="430" x2="832" y2="245" stroke="#facc15" stroke-width="7" opacity="0.58" transform="rotate(90 832 430)" />
<line x1="832" y1="430" x2="832" y2="245" stroke="#facc15" stroke-width="7" opacity="0.58" transform="rotate(105 832 430)" />
<line x1="832" y1="430" x2="832" y2="245" stroke="#facc15" stroke-width="7" opacity="0.58" transform="rotate(120 832 430)" />
<line x1="832" y1="430" x2="832" y2="245" stroke="#facc15" stroke-width="7" opacity="0.58" transform="rotate(135 832 430)" />
<line x1="832" y1="430" x2="832" y2="245" stroke="#facc15" stroke-width="7" opacity="0.58" transform="rotate(150 832 430)" />
<line x1="832" y1="430" x2="832" y2="245" stroke="#facc15" stroke-width="7" opacity="0.58" transform="rotate(165 832 430)" />
<line x1="832" y1="430" x2="832" y2="245" stroke="#facc15" stroke-width="7" opacity="0.58" transform="rotate(180 832 430)" />
<line x1="832" y1="430" x2="832" y2="245" stroke="#facc15" stroke-width="7" opacity="0.58" transform="rotate(195 832 430)" />
<line x1="832" y1="430" x2="832" y2="245" stroke="#facc15" stroke-width="7" opacity="0.58" transform="rotate(210 832 430)" />
<line x1="832" y1="430" x2="832" y2="245" stroke="#facc15" stroke-width="7" opacity="0.58" transform="rotate(225 832 430)" />
<line x1="832" y1="430" x2="832" y2="245" stroke="#facc15" stroke-width="7" opacity="0.58" transform="rotate(240 832 430)" />
<line x1="832" y1="430" x2="832" y2="245" stroke="#facc15" stroke-width="7" opacity="0.58" transform="rotate(255 832 430)" />
<line x1="832" y1="430" x2="832" y2="245" stroke="#facc15" stroke-width="7" opacity="0.58" transform="rotate(270 832 430)" />
<line x1="832" y1="430" x2="832" y2="245" stroke="#facc15" stroke-width="7" opacity="0.58" transform="rotate(285 832 430)" />
<line x1="832" y1="430" x2="832" y2="245" stroke="#facc15" stroke-width="7" opacity="0.58" transform="rotate(300 832 430)" />
<line x1="832" y1="430" x2="832" y2="245" stroke="#facc15" stroke-width="7" opacity="0.58" transform="rotate(315 832 430)" />
<line x1="832" y1="430" x2="832" y2="245" stroke="#facc15" stroke-width="7" opacity="0.58" transform="rotate(330 832 430)" />
<line x1="832" y1="430" x2="832" y2="245" stroke="#facc15" stroke-width="7" opacity="0.58" transform="rotate(345 832 430)" />
      <circle cx="832" cy="430" r="64" fill="url(#glassOrb)" opacity="0.92"/>
      <path d="M545 585 C660 525 940 525 1055 585 C975 655 625 655 545 585 Z" fill="#7dd3fc" opacity="0.18"/>
    
  </g>
  <g opacity="0.78">
    <rect x="88" y="82" width="1424" height="736" rx="46" fill="none" stroke="#ffffff" stroke-opacity="0.2" stroke-width="2"/>
    <path d="M150 150 C320 82 525 78 720 126" stroke="#fff7ed" stroke-opacity="0.44" stroke-width="7" stroke-linecap="round"/>
    <path d="M1332 710 C1215 775 1005 792 855 752" stroke="#7dd3fc" stroke-opacity="0.42" stroke-width="8" stroke-linecap="round"/>
  </g>
  <g transform="translate(126 714)">
    <rect width="420" height="86" rx="28" fill="#ffffff" opacity="0.12"/>
    <rect x="1" y="1" width="418" height="84" rx="27" fill="none" stroke="#ffffff" stroke-opacity="0.22"/>
    <text x="36" y="56" font-family="Georgia, 'Noto Serif Devanagari', serif" font-size="40" font-weight="700" fill="#fff7ed">चक्र</text>
    <circle cx="352" cy="43" r="15" fill="#7dd3fc" opacity="0.9"/>
  </g>
  <rect width="1600" height="900" filter="url(#grain)" opacity="0.34"/>
</svg>
