<svg xmlns="http://www.w3.org/2000/svg" width="1600" height="900" viewBox="0 0 1600 900" role="img" aria-label="नर्मदा परिक्रमा: भारत की एकमात्र नदी जिसकी की जाती है पूरी परिक्रमा">
  <defs>
    <radialGradient id="bgGlow" cx="50%" cy="43%" r="75%">
      <stop offset="0%" stop-color="#fdba74" stop-opacity="0.46"/>
      <stop offset="45%" stop-color="#5b2a0a" stop-opacity="0.92"/>
      <stop offset="100%" stop-color="#1f1208"/>
    </radialGradient>
    <linearGradient id="glassPanel" x1="0%" y1="0%" x2="100%" y2="100%">
      <stop offset="0%" stop-color="#ffffff" stop-opacity="0.58"/>
      <stop offset="42%" stop-color="#fdba74" stop-opacity="0.22"/>
      <stop offset="100%" stop-color="#ffffff" stop-opacity="0.08"/>
    </linearGradient>
    <radialGradient id="glassOrb" cx="34%" cy="24%" r="68%">
      <stop offset="0%" stop-color="#ffffff" stop-opacity="0.94"/>
      <stop offset="34%" stop-color="#fdba74" stop-opacity="0.62"/>
      <stop offset="100%" stop-color="#5b2a0a" stop-opacity="0.22"/>
    </radialGradient>
    <linearGradient id="glassMountain" x1="0%" y1="0%" x2="100%" y2="100%">
      <stop offset="0%" stop-color="#ffffff" stop-opacity="0.48"/>
      <stop offset="100%" stop-color="#fdba74" stop-opacity="0.22"/>
    </linearGradient>
    <filter id="softGlow" x="-30%" y="-30%" width="160%" height="160%">
      <feGaussianBlur stdDeviation="18" result="blur"/>
      <feColorMatrix in="blur" type="matrix" values="1 0 0 0 0  0 1 0 0 0  0 0 1 0 0  0 0 0 0.75 0"/>
      <feMerge>
        <feMergeNode/>
        <feMergeNode in="SourceGraphic"/>
      </feMerge>
    </filter>
    <filter id="grain">
      <feTurbulence type="fractalNoise" baseFrequency="0.82" numOctaves="3" seed="725"/>
      <feColorMatrix type="saturate" values="0"/>
      <feComponentTransfer>
        <feFuncA type="table" tableValues="0 0.075"/>
      </feComponentTransfer>
    </filter>
  </defs>
  <rect width="1600" height="900" fill="url(#bgGlow)"/>
  <g opacity="0.72"><circle cx="71" cy="264" r="2.5" fill="#86efac" opacity="0.52" />
<circle cx="52" cy="83" r="1.4" fill="#86efac" opacity="0.21" />
<circle cx="109" cy="802" r="2.7" fill="#86efac" opacity="0.64" />
<circle cx="90" cy="621" r="1.6" fill="#86efac" opacity="0.33" />
<circle cx="1595" cy="440" r="2.1" fill="#86efac" opacity="0.28" />
<circle cx="1576" cy="259" r="1.0" fill="#86efac" opacity="0.47" />
<circle cx="33" cy="78" r="2.3" fill="#86efac" opacity="0.40" />
<circle cx="14" cy="797" r="1.2" fill="#86efac" opacity="0.59" />
<circle cx="1519" cy="812" r="0.9" fill="#86efac" opacity="0.50" />
<circle cx="1500" cy="631" r="2.2" fill="#86efac" opacity="0.19" />
<circle cx="588" cy="241" r="1.8" fill="#86efac" opacity="0.67" />
<circle cx="607" cy="422" r="2.9" fill="#86efac" opacity="0.48" />
<circle cx="626" cy="603" r="2.0" fill="#86efac" opacity="0.55" />
<circle cx="645" cy="784" r="3.1" fill="#86efac" opacity="0.36" />
<circle cx="512" cy="417" r="2.2" fill="#86efac" opacity="0.43" />
<circle cx="531" cy="598" r="0.9" fill="#86efac" opacity="0.24" />
<circle cx="550" cy="779" r="2.4" fill="#86efac" opacity="0.31" />
<circle cx="569" cy="60" r="1.1" fill="#86efac" opacity="0.62" />
<circle cx="740" cy="789" r="2.6" fill="#86efac" opacity="0.19" />
<circle cx="759" cy="70" r="1.3" fill="#86efac" opacity="0.50" />
<circle cx="551" cy="450" r="2.5" fill="#86efac" opacity="0.66" />
<circle cx="532" cy="269" r="1.4" fill="#86efac" opacity="0.35" />
<circle cx="589" cy="812" r="2.7" fill="#86efac" opacity="0.54" />
<circle cx="570" cy="631" r="1.6" fill="#86efac" opacity="0.23" />
<circle cx="475" cy="274" r="2.1" fill="#86efac" opacity="0.42" />
<circle cx="456" cy="93" r="1.0" fill="#86efac" opacity="0.61" />
<circle cx="513" cy="636" r="2.3" fill="#86efac" opacity="0.30" />
<circle cx="494" cy="455" r="1.2" fill="#86efac" opacity="0.49" />
<circle cx="399" cy="98" r="0.9" fill="#86efac" opacity="0.64" />
<circle cx="380" cy="817" r="2.2" fill="#86efac" opacity="0.33" />
<circle cx="542" cy="487" r="0.8" fill="#86efac" opacity="0.25" />
<circle cx="561" cy="668" r="1.9" fill="#86efac" opacity="0.56" />
<circle cx="504" cy="125" r="3.0" fill="#86efac" opacity="0.37" />
<circle cx="523" cy="306" r="1.7" fill="#86efac" opacity="0.18" />
<circle cx="618" cy="663" r="2.8" fill="#86efac" opacity="0.51" />
<circle cx="637" cy="844" r="1.5" fill="#86efac" opacity="0.32" />
<circle cx="580" cy="301" r="2.6" fill="#86efac" opacity="0.63" />
<circle cx="599" cy="482" r="1.3" fill="#86efac" opacity="0.44" />
<circle cx="390" cy="839" r="1.6" fill="#86efac" opacity="0.23" />
<circle cx="409" cy="120" r="2.7" fill="#86efac" opacity="0.54" />
<circle cx="337" cy="696" r="3.1" fill="#86efac" opacity="0.44" />
<circle cx="318" cy="515" r="2.0" fill="#86efac" opacity="0.63" />
<circle cx="299" cy="334" r="2.9" fill="#86efac" opacity="0.56" />
<circle cx="280" cy="153" r="1.8" fill="#86efac" opacity="0.25" />
<circle cx="413" cy="520" r="1.1" fill="#86efac" opacity="0.20" />
<circle cx="394" cy="339" r="2.4" fill="#86efac" opacity="0.39" />
<circle cx="375" cy="158" r="0.9" fill="#86efac" opacity="0.32" />
<circle cx="356" cy="877" r="2.2" fill="#86efac" opacity="0.51" />
<circle cx="185" cy="148" r="1.5" fill="#86efac" opacity="0.42" />
<circle cx="166" cy="867" r="2.8" fill="#86efac" opacity="0.61" />
<circle cx="328" cy="5" r="1.4" fill="#86efac" opacity="0.39" />
<circle cx="347" cy="186" r="2.5" fill="#86efac" opacity="0.20" />
<circle cx="366" cy="367" r="1.6" fill="#86efac" opacity="0.27" />
<circle cx="385" cy="548" r="2.7" fill="#86efac" opacity="0.58" />
<circle cx="404" cy="729" r="1.0" fill="#86efac" opacity="0.63" />
<circle cx="423" cy="10" r="2.1" fill="#86efac" opacity="0.44" />
<circle cx="442" cy="191" r="1.2" fill="#86efac" opacity="0.51" />
<circle cx="461" cy="372" r="2.3" fill="#86efac" opacity="0.32" />
<circle cx="176" cy="357" r="2.2" fill="#86efac" opacity="0.37" />
<circle cx="195" cy="538" r="0.9" fill="#86efac" opacity="0.18" />
<circle cx="579" cy="446" r="2.1" fill="#86efac" opacity="0.26" />
<circle cx="560" cy="265" r="1.0" fill="#86efac" opacity="0.45" />
<circle cx="617" cy="808" r="2.3" fill="#86efac" opacity="0.64" />
<circle cx="598" cy="627" r="1.2" fill="#86efac" opacity="0.33" />
<circle cx="655" cy="622" r="2.5" fill="#86efac" opacity="0.50" />
<circle cx="636" cy="441" r="1.4" fill="#86efac" opacity="0.19" />
<circle cx="693" cy="84" r="2.7" fill="#86efac" opacity="0.38" />
<circle cx="674" cy="803" r="1.6" fill="#86efac" opacity="0.57" /></g>
  <circle cx="477" cy="270" r="230" fill="#fdba74" opacity="0.08"/>
  <circle cx="1159" cy="677" r="275" fill="#86efac" opacity="0.08"/>
  <g filter="url(#softGlow)">
    
      <path d="M660 225 C500 405 500 610 660 770" fill="none" stroke="#86efac" stroke-width="23" stroke-linecap="round" opacity="0.78"/>
      <path d="M660 225 C760 410 760 585 660 770" fill="none" stroke="#fdba74" stroke-width="7" opacity="0.74"/>
      <line x1="658" y1="225" x2="658" y2="770" stroke="#fff7ed" stroke-width="4" opacity="0.68"/>
      <line x1="700" y1="505" x2="1045" y2="505" stroke="#86efac" stroke-width="13" stroke-linecap="round" opacity="0.82"/>
      <path d="M1045 505 l-58 -32 l16 32 l-16 32 Z" fill="#86efac" opacity="0.86"/>
    
  </g>
  <g opacity="0.78">
    <rect x="88" y="82" width="1424" height="736" rx="46" fill="none" stroke="#ffffff" stroke-opacity="0.2" stroke-width="2"/>
    <path d="M150 150 C320 82 525 78 720 126" stroke="#fff7ed" stroke-opacity="0.44" stroke-width="7" stroke-linecap="round"/>
    <path d="M1332 710 C1215 775 1005 792 855 752" stroke="#fdba74" stroke-opacity="0.42" stroke-width="8" stroke-linecap="round"/>
  </g>
  <g transform="translate(126 714)">
    <rect width="420" height="86" rx="28" fill="#ffffff" opacity="0.12"/>
    <rect x="1" y="1" width="418" height="84" rx="27" fill="none" stroke="#ffffff" stroke-opacity="0.22"/>
    <text x="36" y="56" font-family="Georgia, 'Noto Serif Devanagari', serif" font-size="40" font-weight="700" fill="#fff7ed">धनुष</text>
    <circle cx="352" cy="43" r="15" fill="#fdba74" opacity="0.9"/>
  </g>
  <rect width="1600" height="900" filter="url(#grain)" opacity="0.34"/>
</svg>
