<svg xmlns="http://www.w3.org/2000/svg" width="1600" height="900" viewBox="0 0 1600 900" role="img" aria-label="नवग्रह मंदिर और ज्योतिष विज्ञान: ग्रहों की ऊर्जा का हमारे जीवन पर प्रभाव">
  <defs>
    <radialGradient id="bgGlow" cx="50%" cy="43%" r="75%">
      <stop offset="0%" stop-color="#fb923c" stop-opacity="0.46"/>
      <stop offset="45%" stop-color="#67330f" stop-opacity="0.92"/>
      <stop offset="100%" stop-color="#210b05"/>
    </radialGradient>
    <linearGradient id="glassPanel" x1="0%" y1="0%" x2="100%" y2="100%">
      <stop offset="0%" stop-color="#ffffff" stop-opacity="0.58"/>
      <stop offset="42%" stop-color="#fb923c" stop-opacity="0.22"/>
      <stop offset="100%" stop-color="#ffffff" stop-opacity="0.08"/>
    </linearGradient>
    <radialGradient id="glassOrb" cx="34%" cy="24%" r="68%">
      <stop offset="0%" stop-color="#ffffff" stop-opacity="0.94"/>
      <stop offset="34%" stop-color="#fb923c" stop-opacity="0.62"/>
      <stop offset="100%" stop-color="#67330f" stop-opacity="0.22"/>
    </radialGradient>
    <linearGradient id="glassMountain" x1="0%" y1="0%" x2="100%" y2="100%">
      <stop offset="0%" stop-color="#ffffff" stop-opacity="0.48"/>
      <stop offset="100%" stop-color="#fb923c" stop-opacity="0.22"/>
    </linearGradient>
    <filter id="softGlow" x="-30%" y="-30%" width="160%" height="160%">
      <feGaussianBlur stdDeviation="18" result="blur"/>
      <feColorMatrix in="blur" type="matrix" values="1 0 0 0 0  0 1 0 0 0  0 0 1 0 0  0 0 0 0.75 0"/>
      <feMerge>
        <feMergeNode/>
        <feMergeNode in="SourceGraphic"/>
      </feMerge>
    </filter>
    <filter id="grain">
      <feTurbulence type="fractalNoise" baseFrequency="0.82" numOctaves="3" seed="882"/>
      <feColorMatrix type="saturate" values="0"/>
      <feComponentTransfer>
        <feFuncA type="table" tableValues="0 0.075"/>
      </feComponentTransfer>
    </filter>
  </defs>
  <rect width="1600" height="900" fill="url(#bgGlow)"/>
  <g opacity="0.72"><circle cx="1160" cy="855" r="1.0" fill="#fef3c7" opacity="0.63" />
<circle cx="1179" cy="136" r="2.1" fill="#fef3c7" opacity="0.44" />
<circle cx="1198" cy="493" r="1.2" fill="#fef3c7" opacity="0.25" />
<circle cx="1217" cy="674" r="2.3" fill="#fef3c7" opacity="0.56" />
<circle cx="1236" cy="679" r="1.4" fill="#fef3c7" opacity="0.37" />
<circle cx="1255" cy="860" r="2.5" fill="#fef3c7" opacity="0.18" />
<circle cx="1274" cy="317" r="1.6" fill="#fef3c7" opacity="0.49" />
<circle cx="1293" cy="498" r="2.7" fill="#fef3c7" opacity="0.30" />
<circle cx="1008" cy="503" r="1.8" fill="#fef3c7" opacity="0.65" />
<circle cx="1027" cy="684" r="2.9" fill="#fef3c7" opacity="0.46" />
<circle cx="817" cy="620" r="1.5" fill="#fef3c7" opacity="0.46" />
<circle cx="798" cy="439" r="2.8" fill="#fef3c7" opacity="0.65" />
<circle cx="779" cy="258" r="1.3" fill="#fef3c7" opacity="0.58" />
<circle cx="760" cy="77" r="2.6" fill="#fef3c7" opacity="0.27" />
<circle cx="893" cy="444" r="1.9" fill="#fef3c7" opacity="0.22" />
<circle cx="874" cy="263" r="0.8" fill="#fef3c7" opacity="0.41" />
<circle cx="855" cy="82" r="1.7" fill="#fef3c7" opacity="0.34" />
<circle cx="836" cy="801" r="3.0" fill="#fef3c7" opacity="0.53" />
<circle cx="665" cy="72" r="2.3" fill="#fef3c7" opacity="0.48" />
<circle cx="646" cy="791" r="1.2" fill="#fef3c7" opacity="0.67" />
<circle cx="826" cy="579" r="1.2" fill="#fef3c7" opacity="0.45" />
<circle cx="845" cy="760" r="2.3" fill="#fef3c7" opacity="0.26" />
<circle cx="788" cy="217" r="1.0" fill="#fef3c7" opacity="0.57" />
<circle cx="807" cy="398" r="2.1" fill="#fef3c7" opacity="0.38" />
<circle cx="750" cy="403" r="1.6" fill="#fef3c7" opacity="0.19" />
<circle cx="769" cy="584" r="2.7" fill="#fef3c7" opacity="0.50" />
<circle cx="712" cy="41" r="1.4" fill="#fef3c7" opacity="0.31" />
<circle cx="731" cy="222" r="2.5" fill="#fef3c7" opacity="0.62" />
<circle cx="674" cy="227" r="2.8" fill="#fef3c7" opacity="0.43" />
<circle cx="693" cy="408" r="1.5" fill="#fef3c7" opacity="0.24" />
<circle cx="1059" cy="370" r="2.9" fill="#fef3c7" opacity="0.36" />
<circle cx="1040" cy="189" r="1.8" fill="#fef3c7" opacity="0.55" />
<circle cx="1097" cy="732" r="3.1" fill="#fef3c7" opacity="0.24" />
<circle cx="1078" cy="551" r="2.0" fill="#fef3c7" opacity="0.43" />
<circle cx="1135" cy="546" r="0.9" fill="#fef3c7" opacity="0.60" />
<circle cx="1116" cy="365" r="2.2" fill="#fef3c7" opacity="0.29" />
<circle cx="1173" cy="8" r="1.1" fill="#fef3c7" opacity="0.48" />
<circle cx="1154" cy="727" r="2.4" fill="#fef3c7" opacity="0.67" />
<circle cx="1211" cy="18" r="2.1" fill="#fef3c7" opacity="0.34" />
<circle cx="1192" cy="737" r="1.0" fill="#fef3c7" opacity="0.53" />
<circle cx="1068" cy="165" r="2.6" fill="#fef3c7" opacity="0.45" />
<circle cx="1087" cy="346" r="1.3" fill="#fef3c7" opacity="0.26" />
<circle cx="1106" cy="527" r="2.8" fill="#fef3c7" opacity="0.33" />
<circle cx="1125" cy="708" r="1.5" fill="#fef3c7" opacity="0.64" />
<circle cx="992" cy="341" r="3.0" fill="#fef3c7" opacity="0.21" />
<circle cx="1011" cy="522" r="1.7" fill="#fef3c7" opacity="0.52" />
<circle cx="1030" cy="703" r="0.8" fill="#fef3c7" opacity="0.59" />
<circle cx="1049" cy="884" r="1.9" fill="#fef3c7" opacity="0.40" />
<circle cx="1220" cy="713" r="1.0" fill="#fef3c7" opacity="0.43" />
<circle cx="1239" cy="894" r="2.1" fill="#fef3c7" opacity="0.24" />
<circle cx="1077" cy="856" r="2.7" fill="#fef3c7" opacity="0.36" />
<circle cx="1058" cy="675" r="1.6" fill="#fef3c7" opacity="0.55" />
<circle cx="1039" cy="494" r="2.5" fill="#fef3c7" opacity="0.48" />
<circle cx="1020" cy="313" r="1.4" fill="#fef3c7" opacity="0.67" />
<circle cx="1001" cy="132" r="2.3" fill="#fef3c7" opacity="0.60" />
<circle cx="982" cy="851" r="1.2" fill="#fef3c7" opacity="0.29" />
<circle cx="963" cy="670" r="2.1" fill="#fef3c7" opacity="0.22" />
<circle cx="944" cy="489" r="1.0" fill="#fef3c7" opacity="0.41" />
<circle cx="1229" cy="504" r="1.9" fill="#fef3c7" opacity="0.38" />
<circle cx="1210" cy="323" r="0.8" fill="#fef3c7" opacity="0.57" />
<circle cx="1086" cy="411" r="1.6" fill="#fef3c7" opacity="0.27" />
<circle cx="1105" cy="592" r="2.7" fill="#fef3c7" opacity="0.58" />
<circle cx="1048" cy="49" r="1.4" fill="#fef3c7" opacity="0.39" />
<circle cx="1067" cy="230" r="2.5" fill="#fef3c7" opacity="0.20" />
<circle cx="1162" cy="587" r="1.2" fill="#fef3c7" opacity="0.53" />
<circle cx="1181" cy="768" r="2.3" fill="#fef3c7" opacity="0.34" />
<circle cx="1124" cy="225" r="1.0" fill="#fef3c7" opacity="0.65" />
<circle cx="1143" cy="406" r="2.1" fill="#fef3c7" opacity="0.46" /></g>
  <circle cx="494" cy="305" r="230" fill="#fb923c" opacity="0.08"/>
  <circle cx="1116" cy="692" r="275" fill="#fef3c7" opacity="0.08"/>
  <g filter="url(#softGlow)">
    
      <path d="M450 705 h700 v-48 H450 Z" fill="url(#glassPanel)" opacity="0.72"/>
      <path d="M535 657 v-250 h530 v250 Z" fill="url(#glassPanel)" opacity="0.48"/>
      <path d="M495 407 h610 L800 210 Z" fill="#fef3c7" opacity="0.6"/>
      <path d="M645 657 V500 a155 155 0 0 1 310 0 v157 Z" fill="#210b05" opacity="0.74"/>
      <path d="M800 210 v-88" stroke="#fb923c" stroke-width="9" opacity="0.88"/>
      <path d="M800 126 c48 -26 72 6 115 -15 c-34 60 -78 38 -115 64 Z" fill="#fb923c" opacity="0.82"/>
    
  </g>
  <g opacity="0.78">
    <rect x="88" y="82" width="1424" height="736" rx="46" fill="none" stroke="#ffffff" stroke-opacity="0.2" stroke-width="2"/>
    <path d="M150 150 C320 82 525 78 720 126" stroke="#fff7ed" stroke-opacity="0.44" stroke-width="7" stroke-linecap="round"/>
    <path d="M1332 710 C1215 775 1005 792 855 752" stroke="#fb923c" stroke-opacity="0.42" stroke-width="8" stroke-linecap="round"/>
  </g>
  <g transform="translate(126 714)">
    <rect width="420" height="86" rx="28" fill="#ffffff" opacity="0.12"/>
    <rect x="1" y="1" width="418" height="84" rx="27" fill="none" stroke="#ffffff" stroke-opacity="0.22"/>
    <text x="36" y="56" font-family="Georgia, 'Noto Serif Devanagari', serif" font-size="40" font-weight="700" fill="#fff7ed">मंदिर</text>
    <circle cx="352" cy="43" r="15" fill="#fb923c" opacity="0.9"/>
  </g>
  <rect width="1600" height="900" filter="url(#grain)" opacity="0.34"/>
</svg>
