<svg xmlns="http://www.w3.org/2000/svg" width="1600" height="900" viewBox="0 0 1600 900" role="img" aria-label="नवदुर्गा: मां दुर्गा के 9 रूपों का नाम, आध्यात्मिक रहस्य और पूजन का वैज्ञानिक महत्व">
  <defs>
    <radialGradient id="bgGlow" cx="50%" cy="43%" r="75%">
      <stop offset="0%" stop-color="#f9a8d4" stop-opacity="0.46"/>
      <stop offset="45%" stop-color="#5a1237" stop-opacity="0.92"/>
      <stop offset="100%" stop-color="#2b0718"/>
    </radialGradient>
    <linearGradient id="glassPanel" x1="0%" y1="0%" x2="100%" y2="100%">
      <stop offset="0%" stop-color="#ffffff" stop-opacity="0.58"/>
      <stop offset="42%" stop-color="#f9a8d4" stop-opacity="0.22"/>
      <stop offset="100%" stop-color="#ffffff" stop-opacity="0.08"/>
    </linearGradient>
    <radialGradient id="glassOrb" cx="34%" cy="24%" r="68%">
      <stop offset="0%" stop-color="#ffffff" stop-opacity="0.94"/>
      <stop offset="34%" stop-color="#f9a8d4" stop-opacity="0.62"/>
      <stop offset="100%" stop-color="#5a1237" stop-opacity="0.22"/>
    </radialGradient>
    <linearGradient id="glassMountain" x1="0%" y1="0%" x2="100%" y2="100%">
      <stop offset="0%" stop-color="#ffffff" stop-opacity="0.48"/>
      <stop offset="100%" stop-color="#f9a8d4" stop-opacity="0.22"/>
    </linearGradient>
    <filter id="softGlow" x="-30%" y="-30%" width="160%" height="160%">
      <feGaussianBlur stdDeviation="18" result="blur"/>
      <feColorMatrix in="blur" type="matrix" values="1 0 0 0 0  0 1 0 0 0  0 0 1 0 0  0 0 0 0.75 0"/>
      <feMerge>
        <feMergeNode/>
        <feMergeNode in="SourceGraphic"/>
      </feMerge>
    </filter>
    <filter id="grain">
      <feTurbulence type="fractalNoise" baseFrequency="0.82" numOctaves="3" seed="799"/>
      <feColorMatrix type="saturate" values="0"/>
      <feComponentTransfer>
        <feFuncA type="table" tableValues="0 0.075"/>
      </feComponentTransfer>
    </filter>
  </defs>
  <rect width="1600" height="900" fill="url(#bgGlow)"/>
  <g opacity="0.72"><circle cx="22" cy="393" r="2.0" fill="#fbbf24" opacity="0.47" />
<circle cx="41" cy="574" r="3.1" fill="#fbbf24" opacity="0.28" />
<circle cx="1584" cy="755" r="1.8" fill="#fbbf24" opacity="0.35" />
<circle cx="3" cy="36" r="2.9" fill="#fbbf24" opacity="0.66" />
<circle cx="98" cy="217" r="2.4" fill="#fbbf24" opacity="0.21" />
<circle cx="117" cy="398" r="1.1" fill="#fbbf24" opacity="0.52" />
<circle cx="60" cy="579" r="2.2" fill="#fbbf24" opacity="0.59" />
<circle cx="79" cy="760" r="0.9" fill="#fbbf24" opacity="0.40" />
<circle cx="174" cy="41" r="2.8" fill="#fbbf24" opacity="0.49" />
<circle cx="193" cy="222" r="1.5" fill="#fbbf24" opacity="0.30" />
<circle cx="411" cy="274" r="2.1" fill="#fbbf24" opacity="0.62" />
<circle cx="392" cy="93" r="1.0" fill="#fbbf24" opacity="0.31" />
<circle cx="449" cy="636" r="2.3" fill="#fbbf24" opacity="0.50" />
<circle cx="430" cy="455" r="1.2" fill="#fbbf24" opacity="0.19" />
<circle cx="487" cy="450" r="2.5" fill="#fbbf24" opacity="0.36" />
<circle cx="468" cy="269" r="1.4" fill="#fbbf24" opacity="0.55" />
<circle cx="525" cy="812" r="2.7" fill="#fbbf24" opacity="0.24" />
<circle cx="506" cy="631" r="1.6" fill="#fbbf24" opacity="0.43" />
<circle cx="259" cy="822" r="1.3" fill="#fbbf24" opacity="0.60" />
<circle cx="240" cy="641" r="2.6" fill="#fbbf24" opacity="0.29" />
<circle cx="1152" cy="65" r="1.4" fill="#fbbf24" opacity="0.63" />
<circle cx="1171" cy="246" r="2.5" fill="#fbbf24" opacity="0.44" />
<circle cx="1190" cy="427" r="1.6" fill="#fbbf24" opacity="0.51" />
<circle cx="1209" cy="608" r="2.7" fill="#fbbf24" opacity="0.32" />
<circle cx="1228" cy="789" r="1.0" fill="#fbbf24" opacity="0.37" />
<circle cx="1247" cy="70" r="2.1" fill="#fbbf24" opacity="0.18" />
<circle cx="1266" cy="251" r="1.2" fill="#fbbf24" opacity="0.25" />
<circle cx="1285" cy="432" r="2.3" fill="#fbbf24" opacity="0.56" />
<circle cx="1304" cy="417" r="2.2" fill="#fbbf24" opacity="0.65" />
<circle cx="1323" cy="598" r="0.9" fill="#fbbf24" opacity="0.46" />
<circle cx="393" cy="756" r="3.1" fill="#fbbf24" opacity="0.54" />
<circle cx="374" cy="575" r="2.0" fill="#fbbf24" opacity="0.23" />
<circle cx="355" cy="394" r="2.9" fill="#fbbf24" opacity="0.66" />
<circle cx="336" cy="213" r="1.8" fill="#fbbf24" opacity="0.35" />
<circle cx="469" cy="580" r="1.1" fill="#fbbf24" opacity="0.30" />
<circle cx="450" cy="399" r="2.4" fill="#fbbf24" opacity="0.49" />
<circle cx="431" cy="218" r="0.9" fill="#fbbf24" opacity="0.42" />
<circle cx="412" cy="37" r="2.2" fill="#fbbf24" opacity="0.61" />
<circle cx="545" cy="208" r="1.5" fill="#fbbf24" opacity="0.56" />
<circle cx="526" cy="27" r="2.8" fill="#fbbf24" opacity="0.25" />
<circle cx="1366" cy="211" r="0.8" fill="#fbbf24" opacity="0.49" />
<circle cx="1385" cy="392" r="1.9" fill="#fbbf24" opacity="0.30" />
<circle cx="1328" cy="749" r="3.0" fill="#fbbf24" opacity="0.61" />
<circle cx="1347" cy="30" r="1.7" fill="#fbbf24" opacity="0.42" />
<circle cx="1442" cy="387" r="2.8" fill="#fbbf24" opacity="0.25" />
<circle cx="1461" cy="568" r="1.5" fill="#fbbf24" opacity="0.56" />
<circle cx="1404" cy="25" r="2.6" fill="#fbbf24" opacity="0.37" />
<circle cx="1423" cy="206" r="1.3" fill="#fbbf24" opacity="0.18" />
<circle cx="1518" cy="563" r="1.6" fill="#fbbf24" opacity="0.51" />
<circle cx="1537" cy="744" r="2.7" fill="#fbbf24" opacity="0.32" />
<circle cx="1375" cy="614" r="2.5" fill="#fbbf24" opacity="0.40" />
<circle cx="1356" cy="433" r="1.4" fill="#fbbf24" opacity="0.59" />
<circle cx="1413" cy="872" r="2.7" fill="#fbbf24" opacity="0.28" />
<circle cx="1394" cy="795" r="1.6" fill="#fbbf24" opacity="0.47" />
<circle cx="1299" cy="334" r="2.1" fill="#fbbf24" opacity="0.66" />
<circle cx="1280" cy="153" r="1.0" fill="#fbbf24" opacity="0.35" />
<circle cx="1337" cy="696" r="2.3" fill="#fbbf24" opacity="0.54" />
<circle cx="1318" cy="515" r="1.2" fill="#fbbf24" opacity="0.23" />
<circle cx="1527" cy="158" r="0.9" fill="#fbbf24" opacity="0.42" />
<circle cx="1508" cy="877" r="2.2" fill="#fbbf24" opacity="0.61" />
<circle cx="420" cy="301" r="1.8" fill="#fbbf24" opacity="0.53" />
<circle cx="439" cy="482" r="2.9" fill="#fbbf24" opacity="0.34" />
<circle cx="458" cy="663" r="2.0" fill="#fbbf24" opacity="0.41" />
<circle cx="477" cy="844" r="3.1" fill="#fbbf24" opacity="0.22" />
<circle cx="344" cy="477" r="2.2" fill="#fbbf24" opacity="0.29" />
<circle cx="363" cy="658" r="0.9" fill="#fbbf24" opacity="0.60" />
<circle cx="382" cy="839" r="2.4" fill="#fbbf24" opacity="0.67" />
<circle cx="401" cy="120" r="1.1" fill="#fbbf24" opacity="0.48" /></g>
  <circle cx="484" cy="291" r="230" fill="#f9a8d4" opacity="0.08"/>
  <circle cx="1142" cy="684" r="275" fill="#fbbf24" opacity="0.08"/>
  <g filter="url(#softGlow)">
    
      <ellipse cx="800" cy="404" rx="34" ry="110" fill="#f9a8d4" opacity="0.42" transform="rotate(0 800 500)" />
<ellipse cx="800" cy="404" rx="34" ry="110" fill="#f9a8d4" opacity="0.42" transform="rotate(20 800 500)" />
<ellipse cx="800" cy="404" rx="34" ry="110" fill="#f9a8d4" opacity="0.42" transform="rotate(40 800 500)" />
<ellipse cx="800" cy="404" rx="34" ry="110" fill="#f9a8d4" opacity="0.42" transform="rotate(60 800 500)" />
<ellipse cx="800" cy="404" rx="34" ry="110" fill="#f9a8d4" opacity="0.42" transform="rotate(80 800 500)" />
<ellipse cx="800" cy="404" rx="34" ry="110" fill="#f9a8d4" opacity="0.42" transform="rotate(100 800 500)" />
<ellipse cx="800" cy="404" rx="34" ry="110" fill="#f9a8d4" opacity="0.42" transform="rotate(120 800 500)" />
<ellipse cx="800" cy="404" rx="34" ry="110" fill="#f9a8d4" opacity="0.42" transform="rotate(140 800 500)" />
<ellipse cx="800" cy="404" rx="34" ry="110" fill="#f9a8d4" opacity="0.42" transform="rotate(160 800 500)" />
<ellipse cx="800" cy="404" rx="34" ry="110" fill="#f9a8d4" opacity="0.42" transform="rotate(180 800 500)" />
<ellipse cx="800" cy="404" rx="34" ry="110" fill="#f9a8d4" opacity="0.42" transform="rotate(200 800 500)" />
<ellipse cx="800" cy="404" rx="34" ry="110" fill="#f9a8d4" opacity="0.42" transform="rotate(220 800 500)" />
<ellipse cx="800" cy="404" rx="34" ry="110" fill="#f9a8d4" opacity="0.42" transform="rotate(240 800 500)" />
<ellipse cx="800" cy="404" rx="34" ry="110" fill="#f9a8d4" opacity="0.42" transform="rotate(260 800 500)" />
<ellipse cx="800" cy="404" rx="34" ry="110" fill="#f9a8d4" opacity="0.42" transform="rotate(280 800 500)" />
<ellipse cx="800" cy="404" rx="34" ry="110" fill="#f9a8d4" opacity="0.42" transform="rotate(300 800 500)" />
<ellipse cx="800" cy="404" rx="34" ry="110" fill="#f9a8d4" opacity="0.42" transform="rotate(320 800 500)" />
<ellipse cx="800" cy="404" rx="34" ry="110" fill="#f9a8d4" opacity="0.42" transform="rotate(340 800 500)" />
      <ellipse cx="800" cy="438" rx="26" ry="82" fill="#fbbf24" opacity="0.5" transform="rotate(0 800 500)" />
<ellipse cx="800" cy="438" rx="26" ry="82" fill="#fbbf24" opacity="0.5" transform="rotate(30 800 500)" />
<ellipse cx="800" cy="438" rx="26" ry="82" fill="#fbbf24" opacity="0.5" transform="rotate(60 800 500)" />
<ellipse cx="800" cy="438" rx="26" ry="82" fill="#fbbf24" opacity="0.5" transform="rotate(90 800 500)" />
<ellipse cx="800" cy="438" rx="26" ry="82" fill="#fbbf24" opacity="0.5" transform="rotate(120 800 500)" />
<ellipse cx="800" cy="438" rx="26" ry="82" fill="#fbbf24" opacity="0.5" transform="rotate(150 800 500)" />
<ellipse cx="800" cy="438" rx="26" ry="82" fill="#fbbf24" opacity="0.5" transform="rotate(180 800 500)" />
<ellipse cx="800" cy="438" rx="26" ry="82" fill="#fbbf24" opacity="0.5" transform="rotate(210 800 500)" />
<ellipse cx="800" cy="438" rx="26" ry="82" fill="#fbbf24" opacity="0.5" transform="rotate(240 800 500)" />
<ellipse cx="800" cy="438" rx="26" ry="82" fill="#fbbf24" opacity="0.5" transform="rotate(270 800 500)" />
<ellipse cx="800" cy="438" rx="26" ry="82" fill="#fbbf24" opacity="0.5" transform="rotate(300 800 500)" />
<ellipse cx="800" cy="438" rx="26" ry="82" fill="#fbbf24" opacity="0.5" transform="rotate(330 800 500)" />
      <circle cx="800" cy="500" r="74" fill="url(#glassOrb)" opacity="0.92"/>
      <path d="M585 690 C680 590 920 590 1015 690 C890 735 710 735 585 690 Z" fill="#f9a8d4" opacity="0.32"/>
    
  </g>
  <g opacity="0.78">
    <rect x="88" y="82" width="1424" height="736" rx="46" fill="none" stroke="#ffffff" stroke-opacity="0.2" stroke-width="2"/>
    <path d="M150 150 C320 82 525 78 720 126" stroke="#fff7ed" stroke-opacity="0.44" stroke-width="7" stroke-linecap="round"/>
    <path d="M1332 710 C1215 775 1005 792 855 752" stroke="#f9a8d4" stroke-opacity="0.42" stroke-width="8" stroke-linecap="round"/>
  </g>
  <g transform="translate(126 714)">
    <rect width="420" height="86" rx="28" fill="#ffffff" opacity="0.12"/>
    <rect x="1" y="1" width="418" height="84" rx="27" fill="none" stroke="#ffffff" stroke-opacity="0.22"/>
    <text x="36" y="56" font-family="Georgia, 'Noto Serif Devanagari', serif" font-size="40" font-weight="700" fill="#fff7ed">कमल</text>
    <circle cx="352" cy="43" r="15" fill="#f9a8d4" opacity="0.9"/>
  </g>
  <rect width="1600" height="900" filter="url(#grain)" opacity="0.34"/>
</svg>
