<svg xmlns="http://www.w3.org/2000/svg" width="1600" height="900" viewBox="0 0 1600 900" role="img" aria-label="ॐ (ओम) ध्वनि का उच्चारण और ध्यान: वैज्ञानिक रहस्य, महत्व और शारीरिक व मानसिक लाभ">
  <defs>
    <radialGradient id="bgGlow" cx="50%" cy="43%" r="75%">
      <stop offset="0%" stop-color="#a7f3d0" stop-opacity="0.46"/>
      <stop offset="45%" stop-color="#0f4d3f" stop-opacity="0.92"/>
      <stop offset="100%" stop-color="#05231d"/>
    </radialGradient>
    <linearGradient id="glassPanel" x1="0%" y1="0%" x2="100%" y2="100%">
      <stop offset="0%" stop-color="#ffffff" stop-opacity="0.58"/>
      <stop offset="42%" stop-color="#a7f3d0" stop-opacity="0.22"/>
      <stop offset="100%" stop-color="#ffffff" stop-opacity="0.08"/>
    </linearGradient>
    <radialGradient id="glassOrb" cx="34%" cy="24%" r="68%">
      <stop offset="0%" stop-color="#ffffff" stop-opacity="0.94"/>
      <stop offset="34%" stop-color="#a7f3d0" stop-opacity="0.62"/>
      <stop offset="100%" stop-color="#0f4d3f" stop-opacity="0.22"/>
    </radialGradient>
    <linearGradient id="glassMountain" x1="0%" y1="0%" x2="100%" y2="100%">
      <stop offset="0%" stop-color="#ffffff" stop-opacity="0.48"/>
      <stop offset="100%" stop-color="#a7f3d0" stop-opacity="0.22"/>
    </linearGradient>
    <filter id="softGlow" x="-30%" y="-30%" width="160%" height="160%">
      <feGaussianBlur stdDeviation="18" result="blur"/>
      <feColorMatrix in="blur" type="matrix" values="1 0 0 0 0  0 1 0 0 0  0 0 1 0 0  0 0 0 0.75 0"/>
      <feMerge>
        <feMergeNode/>
        <feMergeNode in="SourceGraphic"/>
      </feMerge>
    </filter>
    <filter id="grain">
      <feTurbulence type="fractalNoise" baseFrequency="0.82" numOctaves="3" seed="240"/>
      <feColorMatrix type="saturate" values="0"/>
      <feComponentTransfer>
        <feFuncA type="table" tableValues="0 0.075"/>
      </feComponentTransfer>
    </filter>
  </defs>
  <rect width="1600" height="900" fill="url(#bgGlow)"/>
  <g opacity="0.72"><circle cx="1328" cy="199" r="1.8" fill="#fde68a" opacity="0.67" />
<circle cx="1347" cy="380" r="2.9" fill="#fde68a" opacity="0.48" />
<circle cx="1366" cy="737" r="2.0" fill="#fde68a" opacity="0.29" />
<circle cx="1385" cy="18" r="3.1" fill="#fde68a" opacity="0.60" />
<circle cx="1404" cy="23" r="2.2" fill="#fde68a" opacity="0.41" />
<circle cx="1423" cy="204" r="0.9" fill="#fde68a" opacity="0.22" />
<circle cx="1442" cy="561" r="2.4" fill="#fde68a" opacity="0.53" />
<circle cx="1461" cy="742" r="1.1" fill="#fde68a" opacity="0.34" />
<circle cx="1480" cy="551" r="1.0" fill="#fde68a" opacity="0.65" />
<circle cx="1499" cy="732" r="2.1" fill="#fde68a" opacity="0.46" />
<circle cx="1161" cy="864" r="1.5" fill="#fde68a" opacity="0.50" />
<circle cx="1142" cy="683" r="2.8" fill="#fde68a" opacity="0.19" />
<circle cx="1123" cy="502" r="1.3" fill="#fde68a" opacity="0.62" />
<circle cx="1104" cy="321" r="2.6" fill="#fde68a" opacity="0.31" />
<circle cx="1237" cy="688" r="1.9" fill="#fde68a" opacity="0.26" />
<circle cx="1218" cy="507" r="0.8" fill="#fde68a" opacity="0.45" />
<circle cx="1199" cy="326" r="1.7" fill="#fde68a" opacity="0.38" />
<circle cx="1180" cy="145" r="3.0" fill="#fde68a" opacity="0.57" />
<circle cx="1313" cy="512" r="3.1" fill="#fde68a" opacity="0.48" />
<circle cx="1294" cy="331" r="2.0" fill="#fde68a" opacity="0.67" />
<circle cx="1170" cy="315" r="2.8" fill="#fde68a" opacity="0.41" />
<circle cx="1189" cy="496" r="1.5" fill="#fde68a" opacity="0.22" />
<circle cx="1132" cy="853" r="2.6" fill="#fde68a" opacity="0.53" />
<circle cx="1151" cy="134" r="1.3" fill="#fde68a" opacity="0.34" />
<circle cx="1094" cy="139" r="0.8" fill="#fde68a" opacity="0.65" />
<circle cx="1113" cy="320" r="1.9" fill="#fde68a" opacity="0.46" />
<circle cx="1056" cy="677" r="3.0" fill="#fde68a" opacity="0.27" />
<circle cx="1075" cy="858" r="1.7" fill="#fde68a" opacity="0.58" />
<circle cx="1322" cy="667" r="1.2" fill="#fde68a" opacity="0.43" />
<circle cx="1341" cy="848" r="2.3" fill="#fde68a" opacity="0.24" />
<circle cx="1179" cy="774" r="2.1" fill="#fde68a" opacity="0.32" />
<circle cx="1160" cy="593" r="1.0" fill="#fde68a" opacity="0.51" />
<circle cx="1217" cy="236" r="2.3" fill="#fde68a" opacity="0.20" />
<circle cx="1198" cy="55" r="1.2" fill="#fde68a" opacity="0.39" />
<circle cx="1255" cy="50" r="2.5" fill="#fde68a" opacity="0.56" />
<circle cx="1236" cy="769" r="1.4" fill="#fde68a" opacity="0.25" />
<circle cx="1293" cy="412" r="2.7" fill="#fde68a" opacity="0.44" />
<circle cx="1274" cy="231" r="1.6" fill="#fde68a" opacity="0.63" />
<circle cx="1027" cy="226" r="2.9" fill="#fde68a" opacity="0.34" />
<circle cx="1008" cy="45" r="1.8" fill="#fde68a" opacity="0.53" />
<circle cx="1188" cy="801" r="2.6" fill="#fde68a" opacity="0.23" />
<circle cx="1207" cy="82" r="1.3" fill="#fde68a" opacity="0.54" />
<circle cx="1226" cy="263" r="2.8" fill="#fde68a" opacity="0.61" />
<circle cx="1245" cy="444" r="1.5" fill="#fde68a" opacity="0.42" />
<circle cx="1112" cy="77" r="3.0" fill="#fde68a" opacity="0.49" />
<circle cx="1131" cy="258" r="1.7" fill="#fde68a" opacity="0.30" />
<circle cx="1150" cy="439" r="0.8" fill="#fde68a" opacity="0.37" />
<circle cx="1169" cy="620" r="1.9" fill="#fde68a" opacity="0.18" />
<circle cx="1036" cy="253" r="1.8" fill="#fde68a" opacity="0.25" />
<circle cx="1055" cy="434" r="2.9" fill="#fde68a" opacity="0.56" />
<circle cx="429" cy="592" r="1.1" fill="#fde68a" opacity="0.40" />
<circle cx="410" cy="411" r="2.4" fill="#fde68a" opacity="0.59" />
<circle cx="391" cy="230" r="0.9" fill="#fde68a" opacity="0.52" />
<circle cx="372" cy="49" r="2.2" fill="#fde68a" opacity="0.21" />
<circle cx="353" cy="768" r="3.1" fill="#fde68a" opacity="0.64" />
<circle cx="334" cy="587" r="2.0" fill="#fde68a" opacity="0.33" />
<circle cx="315" cy="406" r="2.9" fill="#fde68a" opacity="0.26" />
<circle cx="296" cy="225" r="1.8" fill="#fde68a" opacity="0.45" />
<circle cx="277" cy="44" r="1.9" fill="#fde68a" opacity="0.38" />
<circle cx="258" cy="763" r="0.8" fill="#fde68a" opacity="0.57" />
<circle cx="1430" cy="319" r="1.6" fill="#fde68a" opacity="0.31" />
<circle cx="1449" cy="500" r="2.7" fill="#fde68a" opacity="0.62" />
<circle cx="1392" cy="857" r="1.4" fill="#fde68a" opacity="0.43" />
<circle cx="1411" cy="138" r="2.5" fill="#fde68a" opacity="0.24" />
<circle cx="1506" cy="495" r="1.2" fill="#fde68a" opacity="0.57" />
<circle cx="1525" cy="676" r="2.3" fill="#fde68a" opacity="0.38" />
<circle cx="1468" cy="133" r="1.0" fill="#fde68a" opacity="0.19" />
<circle cx="1487" cy="314" r="2.1" fill="#fde68a" opacity="0.50" /></g>
  <circle cx="422" cy="313" r="230" fill="#a7f3d0" opacity="0.08"/>
  <circle cx="1164" cy="710" r="275" fill="#fde68a" opacity="0.08"/>
  <g filter="url(#softGlow)">
    
      <circle cx="800" cy="455" r="245" fill="none" stroke="#a7f3d0" stroke-width="18" opacity="0.28"/>
      <circle cx="800" cy="455" r="175" fill="none" stroke="#fde68a" stroke-width="12" opacity="0.42"/>
      <text x="800" y="520" text-anchor="middle" font-family="Georgia, 'Noto Serif Devanagari', serif" font-size="230" font-weight="700" fill="#fff7ed" opacity="0.92">ॐ</text>
      <path d="M596 700 C700 624 900 624 1004 700" stroke="#a7f3d0" stroke-width="22" stroke-linecap="round" opacity="0.42" fill="none"/>
    
  </g>
  <g opacity="0.78">
    <rect x="88" y="82" width="1424" height="736" rx="46" fill="none" stroke="#ffffff" stroke-opacity="0.2" stroke-width="2"/>
    <path d="M150 150 C320 82 525 78 720 126" stroke="#fff7ed" stroke-opacity="0.44" stroke-width="7" stroke-linecap="round"/>
    <path d="M1332 710 C1215 775 1005 792 855 752" stroke="#a7f3d0" stroke-opacity="0.42" stroke-width="8" stroke-linecap="round"/>
  </g>
  <g transform="translate(126 714)">
    <rect width="420" height="86" rx="28" fill="#ffffff" opacity="0.12"/>
    <rect x="1" y="1" width="418" height="84" rx="27" fill="none" stroke="#ffffff" stroke-opacity="0.22"/>
    <text x="36" y="56" font-family="Georgia, 'Noto Serif Devanagari', serif" font-size="40" font-weight="700" fill="#fff7ed">ॐ</text>
    <circle cx="352" cy="43" r="15" fill="#a7f3d0" opacity="0.9"/>
  </g>
  <rect width="1600" height="900" filter="url(#grain)" opacity="0.34"/>
</svg>
