<svg xmlns="http://www.w3.org/2000/svg" width="1600" height="900" viewBox="0 0 1600 900" role="img" aria-label="पंचमहाभूत क्या हैं? सृष्टि के पांच तत्व, आयुर्वेद के त्रिदोष (वात, पित्त, कफ) और मानव शरीर का दार्शनिक संबंध">
  <defs>
    <radialGradient id="bgGlow" cx="50%" cy="43%" r="75%">
      <stop offset="0%" stop-color="#fcd34d" stop-opacity="0.46"/>
      <stop offset="45%" stop-color="#5b3311" stop-opacity="0.92"/>
      <stop offset="100%" stop-color="#201104"/>
    </radialGradient>
    <linearGradient id="glassPanel" x1="0%" y1="0%" x2="100%" y2="100%">
      <stop offset="0%" stop-color="#ffffff" stop-opacity="0.58"/>
      <stop offset="42%" stop-color="#fcd34d" stop-opacity="0.22"/>
      <stop offset="100%" stop-color="#ffffff" stop-opacity="0.08"/>
    </linearGradient>
    <radialGradient id="glassOrb" cx="34%" cy="24%" r="68%">
      <stop offset="0%" stop-color="#ffffff" stop-opacity="0.94"/>
      <stop offset="34%" stop-color="#fcd34d" stop-opacity="0.62"/>
      <stop offset="100%" stop-color="#5b3311" stop-opacity="0.22"/>
    </radialGradient>
    <linearGradient id="glassMountain" x1="0%" y1="0%" x2="100%" y2="100%">
      <stop offset="0%" stop-color="#ffffff" stop-opacity="0.48"/>
      <stop offset="100%" stop-color="#fcd34d" stop-opacity="0.22"/>
    </linearGradient>
    <filter id="softGlow" x="-30%" y="-30%" width="160%" height="160%">
      <feGaussianBlur stdDeviation="18" result="blur"/>
      <feColorMatrix in="blur" type="matrix" values="1 0 0 0 0  0 1 0 0 0  0 0 1 0 0  0 0 0 0.75 0"/>
      <feMerge>
        <feMergeNode/>
        <feMergeNode in="SourceGraphic"/>
      </feMerge>
    </filter>
    <filter id="grain">
      <feTurbulence type="fractalNoise" baseFrequency="0.82" numOctaves="3" seed="500"/>
      <feColorMatrix type="saturate" values="0"/>
      <feComponentTransfer>
        <feFuncA type="table" tableValues="0 0.075"/>
      </feComponentTransfer>
    </filter>
  </defs>
  <rect width="1600" height="900" fill="url(#bgGlow)"/>
  <g opacity="0.72"><circle cx="921" cy="558" r="2.3" fill="#fb923c" opacity="0.42" />
<circle cx="902" cy="377" r="1.2" fill="#fb923c" opacity="0.61" />
<circle cx="883" cy="20" r="2.1" fill="#fb923c" opacity="0.30" />
<circle cx="864" cy="739" r="1.0" fill="#fb923c" opacity="0.49" />
<circle cx="997" cy="382" r="2.7" fill="#fb923c" opacity="0.66" />
<circle cx="978" cy="201" r="1.6" fill="#fb923c" opacity="0.35" />
<circle cx="959" cy="744" r="2.5" fill="#fb923c" opacity="0.54" />
<circle cx="940" cy="563" r="1.4" fill="#fb923c" opacity="0.23" />
<circle cx="1073" cy="10" r="1.5" fill="#fb923c" opacity="0.40" />
<circle cx="1054" cy="729" r="2.8" fill="#fb923c" opacity="0.59" />
<circle cx="1346" cy="231" r="1.2" fill="#fb923c" opacity="0.61" />
<circle cx="1365" cy="412" r="2.3" fill="#fb923c" opacity="0.42" />
<circle cx="1308" cy="769" r="1.0" fill="#fb923c" opacity="0.23" />
<circle cx="1327" cy="50" r="2.1" fill="#fb923c" opacity="0.54" />
<circle cx="1270" cy="851" r="1.6" fill="#fb923c" opacity="0.35" />
<circle cx="1289" cy="132" r="2.7" fill="#fb923c" opacity="0.66" />
<circle cx="1232" cy="489" r="1.4" fill="#fb923c" opacity="0.47" />
<circle cx="1251" cy="670" r="2.5" fill="#fb923c" opacity="0.28" />
<circle cx="1498" cy="583" r="2.0" fill="#fb923c" opacity="0.63" />
<circle cx="1517" cy="764" r="3.1" fill="#fb923c" opacity="0.44" />
<circle cx="1401" cy="676" r="2.3" fill="#fb923c" opacity="0.20" />
<circle cx="1382" cy="495" r="1.2" fill="#fb923c" opacity="0.39" />
<circle cx="1363" cy="314" r="2.1" fill="#fb923c" opacity="0.32" />
<circle cx="1344" cy="133" r="1.0" fill="#fb923c" opacity="0.51" />
<circle cx="1477" cy="500" r="2.7" fill="#fb923c" opacity="0.46" />
<circle cx="1458" cy="319" r="1.6" fill="#fb923c" opacity="0.65" />
<circle cx="1439" cy="138" r="2.5" fill="#fb923c" opacity="0.58" />
<circle cx="1420" cy="857" r="1.4" fill="#fb923c" opacity="0.27" />
<circle cx="1553" cy="324" r="1.5" fill="#fb923c" opacity="0.18" />
<circle cx="1534" cy="143" r="2.8" fill="#fb923c" opacity="0.37" />
<circle cx="1392" cy="885" r="3.0" fill="#fb923c" opacity="0.61" />
<circle cx="1411" cy="166" r="1.7" fill="#fb923c" opacity="0.42" />
<circle cx="1430" cy="347" r="0.8" fill="#fb923c" opacity="0.49" />
<circle cx="1449" cy="528" r="1.9" fill="#fb923c" opacity="0.30" />
<circle cx="1468" cy="709" r="2.6" fill="#fb923c" opacity="0.35" />
<circle cx="1487" cy="890" r="1.3" fill="#fb923c" opacity="0.66" />
<circle cx="1506" cy="171" r="2.8" fill="#fb923c" opacity="0.23" />
<circle cx="1525" cy="352" r="1.5" fill="#fb923c" opacity="0.54" />
<circle cx="1544" cy="533" r="2.2" fill="#fb923c" opacity="0.59" />
<circle cx="1563" cy="714" r="0.9" fill="#fb923c" opacity="0.40" />
<circle cx="15" cy="258" r="1.7" fill="#fb923c" opacity="0.38" />
<circle cx="1596" cy="77" r="3.0" fill="#fb923c" opacity="0.57" />
<circle cx="53" cy="620" r="1.9" fill="#fb923c" opacity="0.26" />
<circle cx="34" cy="439" r="0.8" fill="#fb923c" opacity="0.45" />
<circle cx="1539" cy="82" r="1.3" fill="#fb923c" opacity="0.64" />
<circle cx="1520" cy="801" r="2.6" fill="#fb923c" opacity="0.33" />
<circle cx="1577" cy="444" r="1.5" fill="#fb923c" opacity="0.52" />
<circle cx="1558" cy="263" r="2.8" fill="#fb923c" opacity="0.21" />
<circle cx="167" cy="610" r="0.9" fill="#fb923c" opacity="0.36" />
<circle cx="148" cy="429" r="2.2" fill="#fb923c" opacity="0.55" />
<circle cx="6" cy="467" r="2.4" fill="#fb923c" opacity="0.47" />
<circle cx="25" cy="648" r="1.1" fill="#fb923c" opacity="0.28" />
<circle cx="1568" cy="105" r="2.2" fill="#fb923c" opacity="0.59" />
<circle cx="1587" cy="286" r="0.9" fill="#fb923c" opacity="0.40" />
<circle cx="82" cy="643" r="2.0" fill="#fb923c" opacity="0.23" />
<circle cx="101" cy="824" r="3.1" fill="#fb923c" opacity="0.54" />
<circle cx="44" cy="281" r="1.8" fill="#fb923c" opacity="0.35" />
<circle cx="63" cy="462" r="2.9" fill="#fb923c" opacity="0.66" />
<circle cx="158" cy="115" r="1.6" fill="#fb923c" opacity="0.45" />
<circle cx="177" cy="296" r="2.7" fill="#fb923c" opacity="0.26" />
<circle cx="1373" cy="404" r="1.9" fill="#fb923c" opacity="0.56" />
<circle cx="1354" cy="223" r="0.8" fill="#fb923c" opacity="0.25" />
<circle cx="1335" cy="42" r="1.7" fill="#fb923c" opacity="0.18" />
<circle cx="1316" cy="761" r="3.0" fill="#fb923c" opacity="0.37" />
<circle cx="1297" cy="580" r="1.5" fill="#fb923c" opacity="0.30" />
<circle cx="1278" cy="399" r="2.8" fill="#fb923c" opacity="0.49" />
<circle cx="1259" cy="218" r="1.3" fill="#fb923c" opacity="0.42" />
<circle cx="1240" cy="37" r="2.6" fill="#fb923c" opacity="0.61" /></g>
  <circle cx="451" cy="260" r="230" fill="#fcd34d" opacity="0.08"/>
  <circle cx="1189" cy="711" r="275" fill="#fb923c" opacity="0.08"/>
  <g filter="url(#softGlow)">
    
      <path d="M520 300 h560 a44 44 0 0 1 44 44 v280 a44 44 0 0 1 -44 44 H520 a44 44 0 0 1 -44 -44 V344 a44 44 0 0 1 44 -44 Z" fill="url(#glassPanel)" opacity="0.72"/>
      <path d="M800 320 v330" stroke="#fff7ed" stroke-width="9" opacity="0.48"/>
      <path d="M555 380 h185" stroke="#fb923c" stroke-width="10" stroke-linecap="round" opacity="0.35" />
<path d="M555 416 h185" stroke="#fb923c" stroke-width="10" stroke-linecap="round" opacity="0.385" />
<path d="M555 452 h185" stroke="#fb923c" stroke-width="10" stroke-linecap="round" opacity="0.42" />
<path d="M555 488 h185" stroke="#fb923c" stroke-width="10" stroke-linecap="round" opacity="0.45499999999999996" />
<path d="M555 524 h185" stroke="#fb923c" stroke-width="10" stroke-linecap="round" opacity="0.49" />
<path d="M555 560 h185" stroke="#fb923c" stroke-width="10" stroke-linecap="round" opacity="0.525" />
<path d="M555 596 h185" stroke="#fb923c" stroke-width="10" stroke-linecap="round" opacity="0.56" />
      <path d="M865 380 h185" stroke="#fcd34d" stroke-width="10" stroke-linecap="round" opacity="0.35" />
<path d="M865 416 h185" stroke="#fcd34d" stroke-width="10" stroke-linecap="round" opacity="0.385" />
<path d="M865 452 h185" stroke="#fcd34d" stroke-width="10" stroke-linecap="round" opacity="0.42" />
<path d="M865 488 h185" stroke="#fcd34d" stroke-width="10" stroke-linecap="round" opacity="0.45499999999999996" />
<path d="M865 524 h185" stroke="#fcd34d" stroke-width="10" stroke-linecap="round" opacity="0.49" />
<path d="M865 560 h185" stroke="#fcd34d" stroke-width="10" stroke-linecap="round" opacity="0.525" />
<path d="M865 596 h185" stroke="#fcd34d" stroke-width="10" stroke-linecap="round" opacity="0.56" />
    
  </g>
  <g opacity="0.78">
    <rect x="88" y="82" width="1424" height="736" rx="46" fill="none" stroke="#ffffff" stroke-opacity="0.2" stroke-width="2"/>
    <path d="M150 150 C320 82 525 78 720 126" stroke="#fff7ed" stroke-opacity="0.44" stroke-width="7" stroke-linecap="round"/>
    <path d="M1332 710 C1215 775 1005 792 855 752" stroke="#fcd34d" stroke-opacity="0.42" stroke-width="8" stroke-linecap="round"/>
  </g>
  <g transform="translate(126 714)">
    <rect width="420" height="86" rx="28" fill="#ffffff" opacity="0.12"/>
    <rect x="1" y="1" width="418" height="84" rx="27" fill="none" stroke="#ffffff" stroke-opacity="0.22"/>
    <text x="36" y="56" font-family="Georgia, 'Noto Serif Devanagari', serif" font-size="40" font-weight="700" fill="#fff7ed">ग्रंथ</text>
    <circle cx="352" cy="43" r="15" fill="#fcd34d" opacity="0.9"/>
  </g>
  <rect width="1600" height="900" filter="url(#grain)" opacity="0.34"/>
</svg>
