<svg xmlns="http://www.w3.org/2000/svg" width="1600" height="900" viewBox="0 0 1600 900" role="img" aria-label="स्वामी परमहंस योगानंद: पश्चिम में क्रिया योग का प्रसार और उनकी प्रसिद्ध पुस्तक">
  <defs>
    <radialGradient id="bgGlow" cx="50%" cy="43%" r="75%">
      <stop offset="0%" stop-color="#fdba74" stop-opacity="0.46"/>
      <stop offset="45%" stop-color="#5b2a0a" stop-opacity="0.92"/>
      <stop offset="100%" stop-color="#1f1208"/>
    </radialGradient>
    <linearGradient id="glassPanel" x1="0%" y1="0%" x2="100%" y2="100%">
      <stop offset="0%" stop-color="#ffffff" stop-opacity="0.58"/>
      <stop offset="42%" stop-color="#fdba74" stop-opacity="0.22"/>
      <stop offset="100%" stop-color="#ffffff" stop-opacity="0.08"/>
    </linearGradient>
    <radialGradient id="glassOrb" cx="34%" cy="24%" r="68%">
      <stop offset="0%" stop-color="#ffffff" stop-opacity="0.94"/>
      <stop offset="34%" stop-color="#fdba74" stop-opacity="0.62"/>
      <stop offset="100%" stop-color="#5b2a0a" stop-opacity="0.22"/>
    </radialGradient>
    <linearGradient id="glassMountain" x1="0%" y1="0%" x2="100%" y2="100%">
      <stop offset="0%" stop-color="#ffffff" stop-opacity="0.48"/>
      <stop offset="100%" stop-color="#fdba74" stop-opacity="0.22"/>
    </linearGradient>
    <filter id="softGlow" x="-30%" y="-30%" width="160%" height="160%">
      <feGaussianBlur stdDeviation="18" result="blur"/>
      <feColorMatrix in="blur" type="matrix" values="1 0 0 0 0  0 1 0 0 0  0 0 1 0 0  0 0 0 0.75 0"/>
      <feMerge>
        <feMergeNode/>
        <feMergeNode in="SourceGraphic"/>
      </feMerge>
    </filter>
    <filter id="grain">
      <feTurbulence type="fractalNoise" baseFrequency="0.82" numOctaves="3" seed="205"/>
      <feColorMatrix type="saturate" values="0"/>
      <feComponentTransfer>
        <feFuncA type="table" tableValues="0 0.075"/>
      </feComponentTransfer>
    </filter>
  </defs>
  <rect width="1600" height="900" fill="url(#bgGlow)"/>
  <g opacity="0.72"><circle cx="81" cy="294" r="3.1" fill="#86efac" opacity="0.32" />
<circle cx="62" cy="113" r="2.0" fill="#86efac" opacity="0.51" />
<circle cx="43" cy="656" r="2.9" fill="#86efac" opacity="0.20" />
<circle cx="24" cy="475" r="1.8" fill="#86efac" opacity="0.39" />
<circle cx="157" cy="118" r="1.1" fill="#86efac" opacity="0.56" />
<circle cx="138" cy="837" r="2.4" fill="#86efac" opacity="0.25" />
<circle cx="119" cy="480" r="0.9" fill="#86efac" opacity="0.44" />
<circle cx="100" cy="299" r="2.2" fill="#86efac" opacity="0.63" />
<circle cx="1529" cy="842" r="1.5" fill="#86efac" opacity="0.34" />
<circle cx="1510" cy="661" r="2.8" fill="#86efac" opacity="0.53" />
<circle cx="74" cy="887" r="2.8" fill="#86efac" opacity="0.53" />
<circle cx="93" cy="168" r="1.5" fill="#86efac" opacity="0.34" />
<circle cx="36" cy="525" r="2.6" fill="#86efac" opacity="0.65" />
<circle cx="55" cy="706" r="1.3" fill="#86efac" opacity="0.46" />
<circle cx="1598" cy="711" r="0.8" fill="#86efac" opacity="0.27" />
<circle cx="17" cy="892" r="1.9" fill="#86efac" opacity="0.58" />
<circle cx="1560" cy="349" r="3.0" fill="#86efac" opacity="0.39" />
<circle cx="1579" cy="530" r="1.7" fill="#86efac" opacity="0.20" />
<circle cx="1522" cy="535" r="2.0" fill="#86efac" opacity="0.51" />
<circle cx="1541" cy="716" r="3.1" fill="#86efac" opacity="0.32" />
<circle cx="65" cy="824" r="3.1" fill="#86efac" opacity="0.54" />
<circle cx="46" cy="643" r="2.0" fill="#86efac" opacity="0.23" />
<circle cx="27" cy="462" r="2.9" fill="#86efac" opacity="0.66" />
<circle cx="8" cy="281" r="1.8" fill="#86efac" opacity="0.35" />
<circle cx="141" cy="648" r="1.1" fill="#86efac" opacity="0.30" />
<circle cx="122" cy="467" r="2.4" fill="#86efac" opacity="0.49" />
<circle cx="103" cy="286" r="0.9" fill="#86efac" opacity="0.42" />
<circle cx="84" cy="105" r="2.2" fill="#86efac" opacity="0.61" />
<circle cx="1513" cy="276" r="1.5" fill="#86efac" opacity="0.56" />
<circle cx="1494" cy="95" r="2.8" fill="#86efac" opacity="0.25" />
<circle cx="56" cy="133" r="1.4" fill="#86efac" opacity="0.45" />
<circle cx="75" cy="314" r="2.5" fill="#86efac" opacity="0.26" />
<circle cx="94" cy="495" r="1.6" fill="#86efac" opacity="0.33" />
<circle cx="113" cy="676" r="2.7" fill="#86efac" opacity="0.64" />
<circle cx="132" cy="857" r="1.0" fill="#86efac" opacity="0.19" />
<circle cx="151" cy="138" r="2.1" fill="#86efac" opacity="0.50" />
<circle cx="170" cy="319" r="1.2" fill="#86efac" opacity="0.57" />
<circle cx="189" cy="500" r="2.3" fill="#86efac" opacity="0.38" />
<circle cx="1504" cy="485" r="2.2" fill="#86efac" opacity="0.47" />
<circle cx="1523" cy="666" r="0.9" fill="#86efac" opacity="0.28" />
<circle cx="279" cy="682" r="1.7" fill="#86efac" opacity="0.22" />
<circle cx="260" cy="501" r="3.0" fill="#86efac" opacity="0.41" />
<circle cx="317" cy="144" r="1.9" fill="#86efac" opacity="0.60" />
<circle cx="298" cy="863" r="0.8" fill="#86efac" opacity="0.29" />
<circle cx="203" cy="506" r="1.3" fill="#86efac" opacity="0.48" />
<circle cx="184" cy="325" r="2.6" fill="#86efac" opacity="0.67" />
<circle cx="241" cy="868" r="1.5" fill="#86efac" opacity="0.36" />
<circle cx="222" cy="687" r="2.8" fill="#86efac" opacity="0.55" />
<circle cx="127" cy="330" r="2.5" fill="#86efac" opacity="0.24" />
<circle cx="108" cy="149" r="1.4" fill="#86efac" opacity="0.43" />
<circle cx="270" cy="615" r="0.8" fill="#86efac" opacity="0.31" />
<circle cx="289" cy="796" r="1.9" fill="#86efac" opacity="0.62" />
<circle cx="232" cy="253" r="3.0" fill="#86efac" opacity="0.43" />
<circle cx="251" cy="434" r="1.7" fill="#86efac" opacity="0.24" />
<circle cx="346" cy="791" r="2.8" fill="#86efac" opacity="0.57" />
<circle cx="365" cy="72" r="1.5" fill="#86efac" opacity="0.38" />
<circle cx="308" cy="429" r="2.6" fill="#86efac" opacity="0.19" />
<circle cx="327" cy="610" r="1.3" fill="#86efac" opacity="0.50" />
<circle cx="118" cy="67" r="1.6" fill="#86efac" opacity="0.33" />
<circle cx="137" cy="248" r="2.7" fill="#86efac" opacity="0.64" />
<circle cx="1029" cy="264" r="1.1" fill="#86efac" opacity="0.40" />
<circle cx="1010" cy="83" r="2.4" fill="#86efac" opacity="0.59" />
<circle cx="991" cy="802" r="0.9" fill="#86efac" opacity="0.52" />
<circle cx="972" cy="621" r="2.2" fill="#86efac" opacity="0.21" />
<circle cx="953" cy="440" r="3.1" fill="#86efac" opacity="0.64" />
<circle cx="934" cy="259" r="2.0" fill="#86efac" opacity="0.33" />
<circle cx="915" cy="78" r="2.9" fill="#86efac" opacity="0.26" />
<circle cx="896" cy="797" r="1.8" fill="#86efac" opacity="0.45" /></g>
  <circle cx="499" cy="268" r="230" fill="#fdba74" opacity="0.08"/>
  <circle cx="1197" cy="629" r="275" fill="#86efac" opacity="0.08"/>
  <g filter="url(#softGlow)">
    
      <path d="M660 225 C500 405 500 610 660 770" fill="none" stroke="#86efac" stroke-width="23" stroke-linecap="round" opacity="0.78"/>
      <path d="M660 225 C760 410 760 585 660 770" fill="none" stroke="#fdba74" stroke-width="7" opacity="0.74"/>
      <line x1="658" y1="225" x2="658" y2="770" stroke="#fff7ed" stroke-width="4" opacity="0.68"/>
      <line x1="700" y1="505" x2="1045" y2="505" stroke="#86efac" stroke-width="13" stroke-linecap="round" opacity="0.82"/>
      <path d="M1045 505 l-58 -32 l16 32 l-16 32 Z" fill="#86efac" opacity="0.86"/>
    
  </g>
  <g opacity="0.78">
    <rect x="88" y="82" width="1424" height="736" rx="46" fill="none" stroke="#ffffff" stroke-opacity="0.2" stroke-width="2"/>
    <path d="M150 150 C320 82 525 78 720 126" stroke="#fff7ed" stroke-opacity="0.44" stroke-width="7" stroke-linecap="round"/>
    <path d="M1332 710 C1215 775 1005 792 855 752" stroke="#fdba74" stroke-opacity="0.42" stroke-width="8" stroke-linecap="round"/>
  </g>
  <g transform="translate(126 714)">
    <rect width="420" height="86" rx="28" fill="#ffffff" opacity="0.12"/>
    <rect x="1" y="1" width="418" height="84" rx="27" fill="none" stroke="#ffffff" stroke-opacity="0.22"/>
    <text x="36" y="56" font-family="Georgia, 'Noto Serif Devanagari', serif" font-size="40" font-weight="700" fill="#fff7ed">धनुष</text>
    <circle cx="352" cy="43" r="15" fill="#fdba74" opacity="0.9"/>
  </g>
  <rect width="1600" height="900" filter="url(#grain)" opacity="0.34"/>
</svg>
