<svg xmlns="http://www.w3.org/2000/svg" width="1600" height="900" viewBox="0 0 1600 900" role="img" aria-label="पातंजल योग सूत्र: अष्टांग योग, चित्त वृत्ति निरोध और मन पर विजय पाने का वैज्ञानिक मार्ग">
  <defs>
    <radialGradient id="bgGlow" cx="50%" cy="43%" r="75%">
      <stop offset="0%" stop-color="#a7f3d0" stop-opacity="0.46"/>
      <stop offset="45%" stop-color="#0f4d3f" stop-opacity="0.92"/>
      <stop offset="100%" stop-color="#05231d"/>
    </radialGradient>
    <linearGradient id="glassPanel" x1="0%" y1="0%" x2="100%" y2="100%">
      <stop offset="0%" stop-color="#ffffff" stop-opacity="0.58"/>
      <stop offset="42%" stop-color="#a7f3d0" stop-opacity="0.22"/>
      <stop offset="100%" stop-color="#ffffff" stop-opacity="0.08"/>
    </linearGradient>
    <radialGradient id="glassOrb" cx="34%" cy="24%" r="68%">
      <stop offset="0%" stop-color="#ffffff" stop-opacity="0.94"/>
      <stop offset="34%" stop-color="#a7f3d0" stop-opacity="0.62"/>
      <stop offset="100%" stop-color="#0f4d3f" stop-opacity="0.22"/>
    </radialGradient>
    <linearGradient id="glassMountain" x1="0%" y1="0%" x2="100%" y2="100%">
      <stop offset="0%" stop-color="#ffffff" stop-opacity="0.48"/>
      <stop offset="100%" stop-color="#a7f3d0" stop-opacity="0.22"/>
    </linearGradient>
    <filter id="softGlow" x="-30%" y="-30%" width="160%" height="160%">
      <feGaussianBlur stdDeviation="18" result="blur"/>
      <feColorMatrix in="blur" type="matrix" values="1 0 0 0 0  0 1 0 0 0  0 0 1 0 0  0 0 0 0.75 0"/>
      <feMerge>
        <feMergeNode/>
        <feMergeNode in="SourceGraphic"/>
      </feMerge>
    </filter>
    <filter id="grain">
      <feTurbulence type="fractalNoise" baseFrequency="0.82" numOctaves="3" seed="222"/>
      <feColorMatrix type="saturate" values="0"/>
      <feComponentTransfer>
        <feFuncA type="table" tableValues="0 0.075"/>
      </feComponentTransfer>
    </filter>
  </defs>
  <rect width="1600" height="900" fill="url(#bgGlow)"/>
  <g opacity="0.72"><circle cx="1133" cy="786" r="2.7" fill="#fde68a" opacity="0.30" />
<circle cx="1114" cy="605" r="1.6" fill="#fde68a" opacity="0.49" />
<circle cx="1095" cy="248" r="2.5" fill="#fde68a" opacity="0.18" />
<circle cx="1076" cy="67" r="1.4" fill="#fde68a" opacity="0.37" />
<circle cx="1057" cy="62" r="2.3" fill="#fde68a" opacity="0.56" />
<circle cx="1038" cy="781" r="1.2" fill="#fde68a" opacity="0.25" />
<circle cx="1019" cy="424" r="2.1" fill="#fde68a" opacity="0.44" />
<circle cx="1000" cy="243" r="1.0" fill="#fde68a" opacity="0.63" />
<circle cx="981" cy="238" r="1.9" fill="#fde68a" opacity="0.32" />
<circle cx="962" cy="57" r="0.8" fill="#fde68a" opacity="0.51" />
<circle cx="30" cy="775" r="1.6" fill="#fde68a" opacity="0.41" />
<circle cx="49" cy="56" r="2.7" fill="#fde68a" opacity="0.22" />
<circle cx="1592" cy="413" r="1.4" fill="#fde68a" opacity="0.53" />
<circle cx="11" cy="594" r="2.5" fill="#fde68a" opacity="0.34" />
<circle cx="106" cy="51" r="1.2" fill="#fde68a" opacity="0.67" />
<circle cx="125" cy="232" r="2.3" fill="#fde68a" opacity="0.48" />
<circle cx="68" cy="589" r="1.0" fill="#fde68a" opacity="0.29" />
<circle cx="87" cy="770" r="2.1" fill="#fde68a" opacity="0.60" />
<circle cx="1478" cy="423" r="0.8" fill="#fde68a" opacity="0.43" />
<circle cx="1497" cy="604" r="1.9" fill="#fde68a" opacity="0.24" />
<circle cx="21" cy="712" r="1.9" fill="#fde68a" opacity="0.50" />
<circle cx="2" cy="531" r="0.8" fill="#fde68a" opacity="0.19" />
<circle cx="1583" cy="350" r="1.7" fill="#fde68a" opacity="0.62" />
<circle cx="1564" cy="169" r="3.0" fill="#fde68a" opacity="0.31" />
<circle cx="1545" cy="888" r="1.5" fill="#fde68a" opacity="0.24" />
<circle cx="1526" cy="707" r="2.8" fill="#fde68a" opacity="0.43" />
<circle cx="1507" cy="526" r="1.3" fill="#fde68a" opacity="0.36" />
<circle cx="1488" cy="345" r="2.6" fill="#fde68a" opacity="0.55" />
<circle cx="173" cy="164" r="2.7" fill="#fde68a" opacity="0.52" />
<circle cx="154" cy="883" r="1.6" fill="#fde68a" opacity="0.21" />
<circle cx="76" cy="21" r="2.6" fill="#fde68a" opacity="0.41" />
<circle cx="95" cy="202" r="1.3" fill="#fde68a" opacity="0.22" />
<circle cx="114" cy="383" r="2.8" fill="#fde68a" opacity="0.29" />
<circle cx="133" cy="564" r="1.5" fill="#fde68a" opacity="0.60" />
<circle cx="0" cy="197" r="3.0" fill="#fde68a" opacity="0.67" />
<circle cx="19" cy="378" r="1.7" fill="#fde68a" opacity="0.48" />
<circle cx="38" cy="559" r="0.8" fill="#fde68a" opacity="0.55" />
<circle cx="57" cy="740" r="1.9" fill="#fde68a" opacity="0.36" />
<circle cx="228" cy="373" r="1.8" fill="#fde68a" opacity="0.39" />
<circle cx="247" cy="554" r="2.9" fill="#fde68a" opacity="0.20" />
<circle cx="67" cy="226" r="2.1" fill="#fde68a" opacity="0.50" />
<circle cx="48" cy="45" r="1.0" fill="#fde68a" opacity="0.19" />
<circle cx="105" cy="588" r="2.3" fill="#fde68a" opacity="0.38" />
<circle cx="86" cy="407" r="1.2" fill="#fde68a" opacity="0.57" />
<circle cx="143" cy="402" r="2.5" fill="#fde68a" opacity="0.24" />
<circle cx="124" cy="221" r="1.4" fill="#fde68a" opacity="0.43" />
<circle cx="181" cy="764" r="2.7" fill="#fde68a" opacity="0.62" />
<circle cx="162" cy="583" r="1.6" fill="#fde68a" opacity="0.31" />
<circle cx="219" cy="578" r="2.9" fill="#fde68a" opacity="0.48" />
<circle cx="200" cy="397" r="1.8" fill="#fde68a" opacity="0.67" />
<circle cx="666" cy="435" r="2.8" fill="#fde68a" opacity="0.59" />
<circle cx="685" cy="616" r="1.5" fill="#fde68a" opacity="0.40" />
<circle cx="628" cy="73" r="2.6" fill="#fde68a" opacity="0.21" />
<circle cx="647" cy="254" r="1.3" fill="#fde68a" opacity="0.52" />
<circle cx="590" cy="259" r="0.8" fill="#fde68a" opacity="0.33" />
<circle cx="609" cy="440" r="1.9" fill="#fde68a" opacity="0.64" />
<circle cx="552" cy="797" r="3.0" fill="#fde68a" opacity="0.45" />
<circle cx="571" cy="78" r="1.7" fill="#fde68a" opacity="0.26" />
<circle cx="514" cy="787" r="1.2" fill="#fde68a" opacity="0.57" />
<circle cx="533" cy="68" r="2.3" fill="#fde68a" opacity="0.38" />
<circle cx="1425" cy="84" r="1.5" fill="#fde68a" opacity="0.46" />
<circle cx="1406" cy="803" r="2.8" fill="#fde68a" opacity="0.65" />
<circle cx="1387" cy="622" r="1.3" fill="#fde68a" opacity="0.58" />
<circle cx="1368" cy="441" r="2.6" fill="#fde68a" opacity="0.27" />
<circle cx="1501" cy="808" r="1.9" fill="#fde68a" opacity="0.22" />
<circle cx="1482" cy="627" r="0.8" fill="#fde68a" opacity="0.41" />
<circle cx="1463" cy="446" r="1.7" fill="#fde68a" opacity="0.34" />
<circle cx="1444" cy="265" r="3.0" fill="#fde68a" opacity="0.53" /></g>
  <circle cx="507" cy="256" r="230" fill="#a7f3d0" opacity="0.08"/>
  <circle cx="1145" cy="689" r="275" fill="#fde68a" opacity="0.08"/>
  <g filter="url(#softGlow)">
    
      <circle cx="800" cy="455" r="245" fill="none" stroke="#a7f3d0" stroke-width="18" opacity="0.28"/>
      <circle cx="800" cy="455" r="175" fill="none" stroke="#fde68a" stroke-width="12" opacity="0.42"/>
      <text x="800" y="520" text-anchor="middle" font-family="Georgia, 'Noto Serif Devanagari', serif" font-size="230" font-weight="700" fill="#fff7ed" opacity="0.92">ॐ</text>
      <path d="M596 700 C700 624 900 624 1004 700" stroke="#a7f3d0" stroke-width="22" stroke-linecap="round" opacity="0.42" fill="none"/>
    
  </g>
  <g opacity="0.78">
    <rect x="88" y="82" width="1424" height="736" rx="46" fill="none" stroke="#ffffff" stroke-opacity="0.2" stroke-width="2"/>
    <path d="M150 150 C320 82 525 78 720 126" stroke="#fff7ed" stroke-opacity="0.44" stroke-width="7" stroke-linecap="round"/>
    <path d="M1332 710 C1215 775 1005 792 855 752" stroke="#a7f3d0" stroke-opacity="0.42" stroke-width="8" stroke-linecap="round"/>
  </g>
  <g transform="translate(126 714)">
    <rect width="420" height="86" rx="28" fill="#ffffff" opacity="0.12"/>
    <rect x="1" y="1" width="418" height="84" rx="27" fill="none" stroke="#ffffff" stroke-opacity="0.22"/>
    <text x="36" y="56" font-family="Georgia, 'Noto Serif Devanagari', serif" font-size="40" font-weight="700" fill="#fff7ed">ॐ</text>
    <circle cx="352" cy="43" r="15" fill="#a7f3d0" opacity="0.9"/>
  </g>
  <rect width="1600" height="900" filter="url(#grain)" opacity="0.34"/>
</svg>
