<svg xmlns="http://www.w3.org/2000/svg" width="1600" height="900" viewBox="0 0 1600 900" role="img" aria-label="कर्म के तीन प्रकार: संचित, प्रारब्ध और क्रियमाण कर्म, भाग्य बनाम पुरुषार्थ का वैज्ञानिक व यौगिक विवेचन">
  <defs>
    <radialGradient id="bgGlow" cx="50%" cy="43%" r="75%">
      <stop offset="0%" stop-color="#c4b5fd" stop-opacity="0.46"/>
      <stop offset="45%" stop-color="#3a2267" stop-opacity="0.92"/>
      <stop offset="100%" stop-color="#130b2a"/>
    </radialGradient>
    <linearGradient id="glassPanel" x1="0%" y1="0%" x2="100%" y2="100%">
      <stop offset="0%" stop-color="#ffffff" stop-opacity="0.58"/>
      <stop offset="42%" stop-color="#c4b5fd" stop-opacity="0.22"/>
      <stop offset="100%" stop-color="#ffffff" stop-opacity="0.08"/>
    </linearGradient>
    <radialGradient id="glassOrb" cx="34%" cy="24%" r="68%">
      <stop offset="0%" stop-color="#ffffff" stop-opacity="0.94"/>
      <stop offset="34%" stop-color="#c4b5fd" stop-opacity="0.62"/>
      <stop offset="100%" stop-color="#3a2267" stop-opacity="0.22"/>
    </radialGradient>
    <linearGradient id="glassMountain" x1="0%" y1="0%" x2="100%" y2="100%">
      <stop offset="0%" stop-color="#ffffff" stop-opacity="0.48"/>
      <stop offset="100%" stop-color="#c4b5fd" stop-opacity="0.22"/>
    </linearGradient>
    <filter id="softGlow" x="-30%" y="-30%" width="160%" height="160%">
      <feGaussianBlur stdDeviation="18" result="blur"/>
      <feColorMatrix in="blur" type="matrix" values="1 0 0 0 0  0 1 0 0 0  0 0 1 0 0  0 0 0 0.75 0"/>
      <feMerge>
        <feMergeNode/>
        <feMergeNode in="SourceGraphic"/>
      </feMerge>
    </filter>
    <filter id="grain">
      <feTurbulence type="fractalNoise" baseFrequency="0.82" numOctaves="3" seed="865"/>
      <feColorMatrix type="saturate" values="0"/>
      <feComponentTransfer>
        <feFuncA type="table" tableValues="0 0.075"/>
      </feComponentTransfer>
    </filter>
  </defs>
  <rect width="1600" height="900" fill="url(#bgGlow)"/>
  <g opacity="0.72"><circle cx="1152" cy="383" r="1.0" fill="#fcd34d" opacity="0.61" />
<circle cx="1171" cy="564" r="2.1" fill="#fcd34d" opacity="0.42" />
<circle cx="1190" cy="21" r="1.2" fill="#fcd34d" opacity="0.23" />
<circle cx="1209" cy="202" r="2.3" fill="#fcd34d" opacity="0.54" />
<circle cx="1228" cy="207" r="1.4" fill="#fcd34d" opacity="0.35" />
<circle cx="1247" cy="388" r="2.5" fill="#fcd34d" opacity="0.66" />
<circle cx="1266" cy="745" r="1.6" fill="#fcd34d" opacity="0.47" />
<circle cx="1285" cy="26" r="2.7" fill="#fcd34d" opacity="0.28" />
<circle cx="1304" cy="735" r="2.6" fill="#fcd34d" opacity="0.59" />
<circle cx="1323" cy="16" r="1.3" fill="#fcd34d" opacity="0.40" />
<circle cx="473" cy="36" r="2.3" fill="#fcd34d" opacity="0.34" />
<circle cx="454" cy="755" r="1.2" fill="#fcd34d" opacity="0.53" />
<circle cx="435" cy="574" r="2.1" fill="#fcd34d" opacity="0.46" />
<circle cx="416" cy="393" r="1.0" fill="#fcd34d" opacity="0.65" />
<circle cx="549" cy="760" r="2.7" fill="#fcd34d" opacity="0.60" />
<circle cx="530" cy="579" r="1.6" fill="#fcd34d" opacity="0.29" />
<circle cx="511" cy="398" r="2.5" fill="#fcd34d" opacity="0.22" />
<circle cx="492" cy="217" r="1.4" fill="#fcd34d" opacity="0.41" />
<circle cx="625" cy="584" r="1.5" fill="#fcd34d" opacity="0.32" />
<circle cx="606" cy="403" r="2.8" fill="#fcd34d" opacity="0.51" />
<circle cx="482" cy="387" r="2.0" fill="#fcd34d" opacity="0.25" />
<circle cx="501" cy="568" r="3.1" fill="#fcd34d" opacity="0.56" />
<circle cx="444" cy="25" r="1.8" fill="#fcd34d" opacity="0.37" />
<circle cx="463" cy="206" r="2.9" fill="#fcd34d" opacity="0.18" />
<circle cx="406" cy="211" r="2.4" fill="#fcd34d" opacity="0.49" />
<circle cx="425" cy="392" r="1.1" fill="#fcd34d" opacity="0.30" />
<circle cx="368" cy="749" r="2.2" fill="#fcd34d" opacity="0.61" />
<circle cx="387" cy="30" r="0.9" fill="#fcd34d" opacity="0.42" />
<circle cx="634" cy="739" r="2.8" fill="#fcd34d" opacity="0.27" />
<circle cx="653" cy="20" r="1.5" fill="#fcd34d" opacity="0.58" />
<circle cx="491" cy="178" r="1.3" fill="#fcd34d" opacity="0.66" />
<circle cx="472" cy="897" r="2.6" fill="#fcd34d" opacity="0.35" />
<circle cx="529" cy="540" r="1.5" fill="#fcd34d" opacity="0.54" />
<circle cx="510" cy="359" r="2.8" fill="#fcd34d" opacity="0.23" />
<circle cx="567" cy="354" r="1.7" fill="#fcd34d" opacity="0.40" />
<circle cx="548" cy="173" r="3.0" fill="#fcd34d" opacity="0.59" />
<circle cx="605" cy="716" r="1.9" fill="#fcd34d" opacity="0.28" />
<circle cx="586" cy="535" r="0.8" fill="#fcd34d" opacity="0.47" />
<circle cx="339" cy="530" r="2.1" fill="#fcd34d" opacity="0.18" />
<circle cx="320" cy="349" r="1.0" fill="#fcd34d" opacity="0.37" />
<circle cx="1332" cy="873" r="1.0" fill="#fcd34d" opacity="0.25" />
<circle cx="1351" cy="154" r="2.1" fill="#fcd34d" opacity="0.56" />
<circle cx="1370" cy="335" r="1.2" fill="#fcd34d" opacity="0.63" />
<circle cx="493" cy="516" r="2.3" fill="#fcd34d" opacity="0.44" />
<circle cx="1256" cy="149" r="1.4" fill="#fcd34d" opacity="0.51" />
<circle cx="1275" cy="330" r="2.5" fill="#fcd34d" opacity="0.32" />
<circle cx="1294" cy="511" r="1.6" fill="#fcd34d" opacity="0.39" />
<circle cx="1313" cy="692" r="2.7" fill="#fcd34d" opacity="0.20" />
<circle cx="1180" cy="325" r="2.6" fill="#fcd34d" opacity="0.27" />
<circle cx="1199" cy="506" r="1.3" fill="#fcd34d" opacity="0.58" />
<circle cx="445" cy="664" r="2.7" fill="#fcd34d" opacity="0.24" />
<circle cx="426" cy="483" r="1.6" fill="#fcd34d" opacity="0.43" />
<circle cx="407" cy="302" r="2.5" fill="#fcd34d" opacity="0.36" />
<circle cx="388" cy="121" r="1.4" fill="#fcd34d" opacity="0.55" />
<circle cx="1265" cy="840" r="2.3" fill="#fcd34d" opacity="0.48" />
<circle cx="1246" cy="659" r="1.2" fill="#fcd34d" opacity="0.67" />
<circle cx="1227" cy="478" r="2.1" fill="#fcd34d" opacity="0.60" />
<circle cx="1208" cy="297" r="1.0" fill="#fcd34d" opacity="0.29" />
<circle cx="1189" cy="116" r="1.1" fill="#fcd34d" opacity="0.22" />
<circle cx="1170" cy="835" r="2.4" fill="#fcd34d" opacity="0.41" />
<circle cx="742" cy="727" r="2.4" fill="#fcd34d" opacity="0.65" />
<circle cx="761" cy="8" r="1.1" fill="#fcd34d" opacity="0.46" />
<circle cx="704" cy="365" r="2.2" fill="#fcd34d" opacity="0.27" />
<circle cx="723" cy="546" r="0.9" fill="#fcd34d" opacity="0.58" />
<circle cx="818" cy="3" r="2.0" fill="#fcd34d" opacity="0.41" />
<circle cx="837" cy="184" r="3.1" fill="#fcd34d" opacity="0.22" />
<circle cx="780" cy="541" r="1.8" fill="#fcd34d" opacity="0.53" />
<circle cx="799" cy="722" r="2.9" fill="#fcd34d" opacity="0.34" /></g>
  <circle cx="438" cy="329" r="230" fill="#c4b5fd" opacity="0.08"/>
  <circle cx="1180" cy="666" r="275" fill="#fcd34d" opacity="0.08"/>
  <g filter="url(#softGlow)">
    
    <ellipse cx="800" cy="285" rx="16" ry="90" fill="#c4b5fd" opacity="0.22" transform="rotate(0 800 460)" />
<ellipse cx="800" cy="285" rx="16" ry="90" fill="#c4b5fd" opacity="0.22" transform="rotate(11.25 800 460)" />
<ellipse cx="800" cy="285" rx="16" ry="90" fill="#c4b5fd" opacity="0.22" transform="rotate(22.5 800 460)" />
<ellipse cx="800" cy="285" rx="16" ry="90" fill="#c4b5fd" opacity="0.22" transform="rotate(33.75 800 460)" />
<ellipse cx="800" cy="285" rx="16" ry="90" fill="#c4b5fd" opacity="0.22" transform="rotate(45 800 460)" />
<ellipse cx="800" cy="285" rx="16" ry="90" fill="#c4b5fd" opacity="0.22" transform="rotate(56.25 800 460)" />
<ellipse cx="800" cy="285" rx="16" ry="90" fill="#c4b5fd" opacity="0.22" transform="rotate(67.5 800 460)" />
<ellipse cx="800" cy="285" rx="16" ry="90" fill="#c4b5fd" opacity="0.22" transform="rotate(78.75 800 460)" />
<ellipse cx="800" cy="285" rx="16" ry="90" fill="#c4b5fd" opacity="0.22" transform="rotate(90 800 460)" />
<ellipse cx="800" cy="285" rx="16" ry="90" fill="#c4b5fd" opacity="0.22" transform="rotate(101.25 800 460)" />
<ellipse cx="800" cy="285" rx="16" ry="90" fill="#c4b5fd" opacity="0.22" transform="rotate(112.5 800 460)" />
<ellipse cx="800" cy="285" rx="16" ry="90" fill="#c4b5fd" opacity="0.22" transform="rotate(123.75 800 460)" />
<ellipse cx="800" cy="285" rx="16" ry="90" fill="#c4b5fd" opacity="0.22" transform="rotate(135 800 460)" />
<ellipse cx="800" cy="285" rx="16" ry="90" fill="#c4b5fd" opacity="0.22" transform="rotate(146.25 800 460)" />
<ellipse cx="800" cy="285" rx="16" ry="90" fill="#c4b5fd" opacity="0.22" transform="rotate(157.5 800 460)" />
<ellipse cx="800" cy="285" rx="16" ry="90" fill="#c4b5fd" opacity="0.22" transform="rotate(168.75 800 460)" />
<ellipse cx="800" cy="285" rx="16" ry="90" fill="#c4b5fd" opacity="0.22" transform="rotate(180 800 460)" />
<ellipse cx="800" cy="285" rx="16" ry="90" fill="#c4b5fd" opacity="0.22" transform="rotate(191.25 800 460)" />
<ellipse cx="800" cy="285" rx="16" ry="90" fill="#c4b5fd" opacity="0.22" transform="rotate(202.5 800 460)" />
<ellipse cx="800" cy="285" rx="16" ry="90" fill="#c4b5fd" opacity="0.22" transform="rotate(213.75 800 460)" />
<ellipse cx="800" cy="285" rx="16" ry="90" fill="#c4b5fd" opacity="0.22" transform="rotate(225 800 460)" />
<ellipse cx="800" cy="285" rx="16" ry="90" fill="#c4b5fd" opacity="0.22" transform="rotate(236.25 800 460)" />
<ellipse cx="800" cy="285" rx="16" ry="90" fill="#c4b5fd" opacity="0.22" transform="rotate(247.5 800 460)" />
<ellipse cx="800" cy="285" rx="16" ry="90" fill="#c4b5fd" opacity="0.22" transform="rotate(258.75 800 460)" />
<ellipse cx="800" cy="285" rx="16" ry="90" fill="#c4b5fd" opacity="0.22" transform="rotate(270 800 460)" />
<ellipse cx="800" cy="285" rx="16" ry="90" fill="#c4b5fd" opacity="0.22" transform="rotate(281.25 800 460)" />
<ellipse cx="800" cy="285" rx="16" ry="90" fill="#c4b5fd" opacity="0.22" transform="rotate(292.5 800 460)" />
<ellipse cx="800" cy="285" rx="16" ry="90" fill="#c4b5fd" opacity="0.22" transform="rotate(303.75 800 460)" />
<ellipse cx="800" cy="285" rx="16" ry="90" fill="#c4b5fd" opacity="0.22" transform="rotate(315 800 460)" />
<ellipse cx="800" cy="285" rx="16" ry="90" fill="#c4b5fd" opacity="0.22" transform="rotate(326.25 800 460)" />
<ellipse cx="800" cy="285" rx="16" ry="90" fill="#c4b5fd" opacity="0.22" transform="rotate(337.5 800 460)" />
<ellipse cx="800" cy="285" rx="16" ry="90" fill="#c4b5fd" opacity="0.22" transform="rotate(348.75 800 460)" />
    <ellipse cx="800" cy="348" rx="20" ry="72" fill="#fcd34d" opacity="0.32" transform="rotate(0 800 460)" />
<ellipse cx="800" cy="348" rx="20" ry="72" fill="#fcd34d" opacity="0.32" transform="rotate(20 800 460)" />
<ellipse cx="800" cy="348" rx="20" ry="72" fill="#fcd34d" opacity="0.32" transform="rotate(40 800 460)" />
<ellipse cx="800" cy="348" rx="20" ry="72" fill="#fcd34d" opacity="0.32" transform="rotate(60 800 460)" />
<ellipse cx="800" cy="348" rx="20" ry="72" fill="#fcd34d" opacity="0.32" transform="rotate(80 800 460)" />
<ellipse cx="800" cy="348" rx="20" ry="72" fill="#fcd34d" opacity="0.32" transform="rotate(100 800 460)" />
<ellipse cx="800" cy="348" rx="20" ry="72" fill="#fcd34d" opacity="0.32" transform="rotate(120 800 460)" />
<ellipse cx="800" cy="348" rx="20" ry="72" fill="#fcd34d" opacity="0.32" transform="rotate(140 800 460)" />
<ellipse cx="800" cy="348" rx="20" ry="72" fill="#fcd34d" opacity="0.32" transform="rotate(160 800 460)" />
<ellipse cx="800" cy="348" rx="20" ry="72" fill="#fcd34d" opacity="0.32" transform="rotate(180 800 460)" />
<ellipse cx="800" cy="348" rx="20" ry="72" fill="#fcd34d" opacity="0.32" transform="rotate(200 800 460)" />
<ellipse cx="800" cy="348" rx="20" ry="72" fill="#fcd34d" opacity="0.32" transform="rotate(220 800 460)" />
<ellipse cx="800" cy="348" rx="20" ry="72" fill="#fcd34d" opacity="0.32" transform="rotate(240 800 460)" />
<ellipse cx="800" cy="348" rx="20" ry="72" fill="#fcd34d" opacity="0.32" transform="rotate(260 800 460)" />
<ellipse cx="800" cy="348" rx="20" ry="72" fill="#fcd34d" opacity="0.32" transform="rotate(280 800 460)" />
<ellipse cx="800" cy="348" rx="20" ry="72" fill="#fcd34d" opacity="0.32" transform="rotate(300 800 460)" />
<ellipse cx="800" cy="348" rx="20" ry="72" fill="#fcd34d" opacity="0.32" transform="rotate(320 800 460)" />
<ellipse cx="800" cy="348" rx="20" ry="72" fill="#fcd34d" opacity="0.32" transform="rotate(340 800 460)" />
    <circle cx="800" cy="460" r="140" fill="url(#glassOrb)" opacity="0.78"/>
    <text x="800" y="525" text-anchor="middle" font-family="Georgia, 'Noto Serif Devanagari', serif" font-size="210" font-weight="700" fill="#fff7ed" opacity="0.9">ॐ</text>
  
  </g>
  <g opacity="0.78">
    <rect x="88" y="82" width="1424" height="736" rx="46" fill="none" stroke="#ffffff" stroke-opacity="0.2" stroke-width="2"/>
    <path d="M150 150 C320 82 525 78 720 126" stroke="#fff7ed" stroke-opacity="0.44" stroke-width="7" stroke-linecap="round"/>
    <path d="M1332 710 C1215 775 1005 792 855 752" stroke="#c4b5fd" stroke-opacity="0.42" stroke-width="8" stroke-linecap="round"/>
  </g>
  <g transform="translate(126 714)">
    <rect width="420" height="86" rx="28" fill="#ffffff" opacity="0.12"/>
    <rect x="1" y="1" width="418" height="84" rx="27" fill="none" stroke="#ffffff" stroke-opacity="0.22"/>
    <text x="36" y="56" font-family="Georgia, 'Noto Serif Devanagari', serif" font-size="40" font-weight="700" fill="#fff7ed">ॐ</text>
    <circle cx="352" cy="43" r="15" fill="#c4b5fd" opacity="0.9"/>
  </g>
  <rect width="1600" height="900" filter="url(#grain)" opacity="0.34"/>
</svg>
