<svg xmlns="http://www.w3.org/2000/svg" width="1600" height="900" viewBox="0 0 1600 900" role="img" aria-label="प्रयागराज त्रिवेणी संगम: गंगा, यमुना और अदृश्य सरस्वती का पावन मिलन">
  <defs>
    <radialGradient id="bgGlow" cx="50%" cy="43%" r="75%">
      <stop offset="0%" stop-color="#f9a8d4" stop-opacity="0.46"/>
      <stop offset="45%" stop-color="#5a1237" stop-opacity="0.92"/>
      <stop offset="100%" stop-color="#2b0718"/>
    </radialGradient>
    <linearGradient id="glassPanel" x1="0%" y1="0%" x2="100%" y2="100%">
      <stop offset="0%" stop-color="#ffffff" stop-opacity="0.58"/>
      <stop offset="42%" stop-color="#f9a8d4" stop-opacity="0.22"/>
      <stop offset="100%" stop-color="#ffffff" stop-opacity="0.08"/>
    </linearGradient>
    <radialGradient id="glassOrb" cx="34%" cy="24%" r="68%">
      <stop offset="0%" stop-color="#ffffff" stop-opacity="0.94"/>
      <stop offset="34%" stop-color="#f9a8d4" stop-opacity="0.62"/>
      <stop offset="100%" stop-color="#5a1237" stop-opacity="0.22"/>
    </radialGradient>
    <linearGradient id="glassMountain" x1="0%" y1="0%" x2="100%" y2="100%">
      <stop offset="0%" stop-color="#ffffff" stop-opacity="0.48"/>
      <stop offset="100%" stop-color="#f9a8d4" stop-opacity="0.22"/>
    </linearGradient>
    <filter id="softGlow" x="-30%" y="-30%" width="160%" height="160%">
      <feGaussianBlur stdDeviation="18" result="blur"/>
      <feColorMatrix in="blur" type="matrix" values="1 0 0 0 0  0 1 0 0 0  0 0 1 0 0  0 0 0 0.75 0"/>
      <feMerge>
        <feMergeNode/>
        <feMergeNode in="SourceGraphic"/>
      </feMerge>
    </filter>
    <filter id="grain">
      <feTurbulence type="fractalNoise" baseFrequency="0.82" numOctaves="3" seed="919"/>
      <feColorMatrix type="saturate" values="0"/>
      <feComponentTransfer>
        <feFuncA type="table" tableValues="0 0.075"/>
      </feComponentTransfer>
    </filter>
  </defs>
  <rect width="1600" height="900" fill="url(#bgGlow)"/>
  <g opacity="0.72"><circle cx="426" cy="165" r="2.4" fill="#fbbf24" opacity="0.37" />
<circle cx="445" cy="346" r="1.1" fill="#fbbf24" opacity="0.18" />
<circle cx="388" cy="527" r="3.0" fill="#fbbf24" opacity="0.25" />
<circle cx="407" cy="708" r="1.7" fill="#fbbf24" opacity="0.56" />
<circle cx="350" cy="341" r="2.8" fill="#fbbf24" opacity="0.63" />
<circle cx="369" cy="522" r="1.5" fill="#fbbf24" opacity="0.44" />
<circle cx="312" cy="703" r="2.6" fill="#fbbf24" opacity="0.51" />
<circle cx="331" cy="884" r="1.3" fill="#fbbf24" opacity="0.32" />
<circle cx="274" cy="713" r="0.8" fill="#fbbf24" opacity="0.35" />
<circle cx="293" cy="894" r="1.9" fill="#fbbf24" opacity="0.66" />
<circle cx="1335" cy="542" r="2.5" fill="#fbbf24" opacity="0.36" />
<circle cx="1316" cy="361" r="1.4" fill="#fbbf24" opacity="0.55" />
<circle cx="1373" cy="4" r="2.7" fill="#fbbf24" opacity="0.24" />
<circle cx="1354" cy="723" r="1.6" fill="#fbbf24" opacity="0.43" />
<circle cx="1259" cy="366" r="2.1" fill="#fbbf24" opacity="0.62" />
<circle cx="1240" cy="185" r="1.0" fill="#fbbf24" opacity="0.31" />
<circle cx="1297" cy="728" r="2.3" fill="#fbbf24" opacity="0.50" />
<circle cx="1278" cy="547" r="1.2" fill="#fbbf24" opacity="0.19" />
<circle cx="1183" cy="190" r="0.9" fill="#fbbf24" opacity="0.34" />
<circle cx="1164" cy="9" r="2.2" fill="#fbbf24" opacity="0.53" />
<circle cx="1308" cy="333" r="1.8" fill="#fbbf24" opacity="0.37" />
<circle cx="1327" cy="514" r="2.9" fill="#fbbf24" opacity="0.18" />
<circle cx="1346" cy="695" r="2.0" fill="#fbbf24" opacity="0.25" />
<circle cx="1365" cy="876" r="3.1" fill="#fbbf24" opacity="0.56" />
<circle cx="1232" cy="509" r="2.2" fill="#fbbf24" opacity="0.63" />
<circle cx="1251" cy="690" r="0.9" fill="#fbbf24" opacity="0.44" />
<circle cx="1270" cy="871" r="2.4" fill="#fbbf24" opacity="0.51" />
<circle cx="1289" cy="152" r="1.1" fill="#fbbf24" opacity="0.32" />
<circle cx="1460" cy="881" r="2.6" fill="#fbbf24" opacity="0.39" />
<circle cx="1479" cy="162" r="1.3" fill="#fbbf24" opacity="0.20" />
<circle cx="1317" cy="688" r="1.9" fill="#fbbf24" opacity="0.36" />
<circle cx="1298" cy="507" r="0.8" fill="#fbbf24" opacity="0.55" />
<circle cx="1279" cy="430" r="1.7" fill="#fbbf24" opacity="0.48" />
<circle cx="1260" cy="249" r="3.0" fill="#fbbf24" opacity="0.67" />
<circle cx="1241" cy="68" r="1.5" fill="#fbbf24" opacity="0.60" />
<circle cx="1222" cy="787" r="2.8" fill="#fbbf24" opacity="0.29" />
<circle cx="1203" cy="606" r="1.3" fill="#fbbf24" opacity="0.22" />
<circle cx="1184" cy="425" r="2.6" fill="#fbbf24" opacity="0.41" />
<circle cx="1469" cy="336" r="1.1" fill="#fbbf24" opacity="0.34" />
<circle cx="1450" cy="155" r="2.4" fill="#fbbf24" opacity="0.53" />
<circle cx="362" cy="515" r="1.2" fill="#fbbf24" opacity="0.41" />
<circle cx="381" cy="696" r="2.3" fill="#fbbf24" opacity="0.22" />
<circle cx="324" cy="153" r="1.0" fill="#fbbf24" opacity="0.53" />
<circle cx="343" cy="334" r="2.1" fill="#fbbf24" opacity="0.34" />
<circle cx="286" cy="339" r="1.6" fill="#fbbf24" opacity="0.65" />
<circle cx="305" cy="520" r="2.7" fill="#fbbf24" opacity="0.46" />
<circle cx="248" cy="877" r="1.4" fill="#fbbf24" opacity="0.27" />
<circle cx="267" cy="158" r="2.5" fill="#fbbf24" opacity="0.58" />
<circle cx="210" cy="163" r="2.8" fill="#fbbf24" opacity="0.43" />
<circle cx="229" cy="240" r="1.5" fill="#fbbf24" opacity="0.24" />
<circle cx="1363" cy="306" r="2.9" fill="#fbbf24" opacity="0.46" />
<circle cx="1344" cy="125" r="1.8" fill="#fbbf24" opacity="0.65" />
<circle cx="1401" cy="668" r="3.1" fill="#fbbf24" opacity="0.34" />
<circle cx="1382" cy="487" r="2.0" fill="#fbbf24" opacity="0.53" />
<circle cx="1439" cy="482" r="0.9" fill="#fbbf24" opacity="0.20" />
<circle cx="1420" cy="301" r="2.2" fill="#fbbf24" opacity="0.39" />
<circle cx="1477" cy="844" r="1.1" fill="#fbbf24" opacity="0.58" />
<circle cx="1458" cy="663" r="2.4" fill="#fbbf24" opacity="0.27" />
<circle cx="1515" cy="750" r="2.1" fill="#fbbf24" opacity="0.48" />
<circle cx="1496" cy="569" r="1.0" fill="#fbbf24" opacity="0.67" />
<circle cx="1112" cy="893" r="2.2" fill="#fbbf24" opacity="0.59" />
<circle cx="1131" cy="174" r="0.9" fill="#fbbf24" opacity="0.40" />
<circle cx="1150" cy="355" r="2.4" fill="#fbbf24" opacity="0.47" />
<circle cx="1169" cy="536" r="1.1" fill="#fbbf24" opacity="0.28" />
<circle cx="1188" cy="717" r="1.8" fill="#fbbf24" opacity="0.33" />
<circle cx="1207" cy="898" r="2.9" fill="#fbbf24" opacity="0.64" />
<circle cx="1226" cy="179" r="2.0" fill="#fbbf24" opacity="0.21" />
<circle cx="1245" cy="360" r="3.1" fill="#fbbf24" opacity="0.52" /></g>
  <circle cx="468" cy="255" r="230" fill="#f9a8d4" opacity="0.08"/>
  <circle cx="1106" cy="656" r="275" fill="#fbbf24" opacity="0.08"/>
  <g filter="url(#softGlow)">
    
      <ellipse cx="800" cy="404" rx="34" ry="110" fill="#f9a8d4" opacity="0.42" transform="rotate(0 800 500)" />
<ellipse cx="800" cy="404" rx="34" ry="110" fill="#f9a8d4" opacity="0.42" transform="rotate(20 800 500)" />
<ellipse cx="800" cy="404" rx="34" ry="110" fill="#f9a8d4" opacity="0.42" transform="rotate(40 800 500)" />
<ellipse cx="800" cy="404" rx="34" ry="110" fill="#f9a8d4" opacity="0.42" transform="rotate(60 800 500)" />
<ellipse cx="800" cy="404" rx="34" ry="110" fill="#f9a8d4" opacity="0.42" transform="rotate(80 800 500)" />
<ellipse cx="800" cy="404" rx="34" ry="110" fill="#f9a8d4" opacity="0.42" transform="rotate(100 800 500)" />
<ellipse cx="800" cy="404" rx="34" ry="110" fill="#f9a8d4" opacity="0.42" transform="rotate(120 800 500)" />
<ellipse cx="800" cy="404" rx="34" ry="110" fill="#f9a8d4" opacity="0.42" transform="rotate(140 800 500)" />
<ellipse cx="800" cy="404" rx="34" ry="110" fill="#f9a8d4" opacity="0.42" transform="rotate(160 800 500)" />
<ellipse cx="800" cy="404" rx="34" ry="110" fill="#f9a8d4" opacity="0.42" transform="rotate(180 800 500)" />
<ellipse cx="800" cy="404" rx="34" ry="110" fill="#f9a8d4" opacity="0.42" transform="rotate(200 800 500)" />
<ellipse cx="800" cy="404" rx="34" ry="110" fill="#f9a8d4" opacity="0.42" transform="rotate(220 800 500)" />
<ellipse cx="800" cy="404" rx="34" ry="110" fill="#f9a8d4" opacity="0.42" transform="rotate(240 800 500)" />
<ellipse cx="800" cy="404" rx="34" ry="110" fill="#f9a8d4" opacity="0.42" transform="rotate(260 800 500)" />
<ellipse cx="800" cy="404" rx="34" ry="110" fill="#f9a8d4" opacity="0.42" transform="rotate(280 800 500)" />
<ellipse cx="800" cy="404" rx="34" ry="110" fill="#f9a8d4" opacity="0.42" transform="rotate(300 800 500)" />
<ellipse cx="800" cy="404" rx="34" ry="110" fill="#f9a8d4" opacity="0.42" transform="rotate(320 800 500)" />
<ellipse cx="800" cy="404" rx="34" ry="110" fill="#f9a8d4" opacity="0.42" transform="rotate(340 800 500)" />
      <ellipse cx="800" cy="438" rx="26" ry="82" fill="#fbbf24" opacity="0.5" transform="rotate(0 800 500)" />
<ellipse cx="800" cy="438" rx="26" ry="82" fill="#fbbf24" opacity="0.5" transform="rotate(30 800 500)" />
<ellipse cx="800" cy="438" rx="26" ry="82" fill="#fbbf24" opacity="0.5" transform="rotate(60 800 500)" />
<ellipse cx="800" cy="438" rx="26" ry="82" fill="#fbbf24" opacity="0.5" transform="rotate(90 800 500)" />
<ellipse cx="800" cy="438" rx="26" ry="82" fill="#fbbf24" opacity="0.5" transform="rotate(120 800 500)" />
<ellipse cx="800" cy="438" rx="26" ry="82" fill="#fbbf24" opacity="0.5" transform="rotate(150 800 500)" />
<ellipse cx="800" cy="438" rx="26" ry="82" fill="#fbbf24" opacity="0.5" transform="rotate(180 800 500)" />
<ellipse cx="800" cy="438" rx="26" ry="82" fill="#fbbf24" opacity="0.5" transform="rotate(210 800 500)" />
<ellipse cx="800" cy="438" rx="26" ry="82" fill="#fbbf24" opacity="0.5" transform="rotate(240 800 500)" />
<ellipse cx="800" cy="438" rx="26" ry="82" fill="#fbbf24" opacity="0.5" transform="rotate(270 800 500)" />
<ellipse cx="800" cy="438" rx="26" ry="82" fill="#fbbf24" opacity="0.5" transform="rotate(300 800 500)" />
<ellipse cx="800" cy="438" rx="26" ry="82" fill="#fbbf24" opacity="0.5" transform="rotate(330 800 500)" />
      <circle cx="800" cy="500" r="74" fill="url(#glassOrb)" opacity="0.92"/>
      <path d="M585 690 C680 590 920 590 1015 690 C890 735 710 735 585 690 Z" fill="#f9a8d4" opacity="0.32"/>
    
  </g>
  <g opacity="0.78">
    <rect x="88" y="82" width="1424" height="736" rx="46" fill="none" stroke="#ffffff" stroke-opacity="0.2" stroke-width="2"/>
    <path d="M150 150 C320 82 525 78 720 126" stroke="#fff7ed" stroke-opacity="0.44" stroke-width="7" stroke-linecap="round"/>
    <path d="M1332 710 C1215 775 1005 792 855 752" stroke="#f9a8d4" stroke-opacity="0.42" stroke-width="8" stroke-linecap="round"/>
  </g>
  <g transform="translate(126 714)">
    <rect width="420" height="86" rx="28" fill="#ffffff" opacity="0.12"/>
    <rect x="1" y="1" width="418" height="84" rx="27" fill="none" stroke="#ffffff" stroke-opacity="0.22"/>
    <text x="36" y="56" font-family="Georgia, 'Noto Serif Devanagari', serif" font-size="40" font-weight="700" fill="#fff7ed">कमल</text>
    <circle cx="352" cy="43" r="15" fill="#f9a8d4" opacity="0.9"/>
  </g>
  <rect width="1600" height="900" filter="url(#grain)" opacity="0.34"/>
</svg>
