<svg xmlns="http://www.w3.org/2000/svg" width="1600" height="900" viewBox="0 0 1600 900" role="img" aria-label="रमण महर्षि: 'मैं कौन हूँ?' (Self-Inquiry) आत्म-खोज की सरल और गहन विधि">
  <defs>
    <radialGradient id="bgGlow" cx="50%" cy="43%" r="75%">
      <stop offset="0%" stop-color="#fdba74" stop-opacity="0.46"/>
      <stop offset="45%" stop-color="#5b2a0a" stop-opacity="0.92"/>
      <stop offset="100%" stop-color="#1f1208"/>
    </radialGradient>
    <linearGradient id="glassPanel" x1="0%" y1="0%" x2="100%" y2="100%">
      <stop offset="0%" stop-color="#ffffff" stop-opacity="0.58"/>
      <stop offset="42%" stop-color="#fdba74" stop-opacity="0.22"/>
      <stop offset="100%" stop-color="#ffffff" stop-opacity="0.08"/>
    </linearGradient>
    <radialGradient id="glassOrb" cx="34%" cy="24%" r="68%">
      <stop offset="0%" stop-color="#ffffff" stop-opacity="0.94"/>
      <stop offset="34%" stop-color="#fdba74" stop-opacity="0.62"/>
      <stop offset="100%" stop-color="#5b2a0a" stop-opacity="0.22"/>
    </radialGradient>
    <linearGradient id="glassMountain" x1="0%" y1="0%" x2="100%" y2="100%">
      <stop offset="0%" stop-color="#ffffff" stop-opacity="0.48"/>
      <stop offset="100%" stop-color="#fdba74" stop-opacity="0.22"/>
    </linearGradient>
    <filter id="softGlow" x="-30%" y="-30%" width="160%" height="160%">
      <feGaussianBlur stdDeviation="18" result="blur"/>
      <feColorMatrix in="blur" type="matrix" values="1 0 0 0 0  0 1 0 0 0  0 0 1 0 0  0 0 0 0.75 0"/>
      <feMerge>
        <feMergeNode/>
        <feMergeNode in="SourceGraphic"/>
      </feMerge>
    </filter>
    <filter id="grain">
      <feTurbulence type="fractalNoise" baseFrequency="0.82" numOctaves="3" seed="746"/>
      <feColorMatrix type="saturate" values="0"/>
      <feComponentTransfer>
        <feFuncA type="table" tableValues="0 0.075"/>
      </feComponentTransfer>
    </filter>
  </defs>
  <rect width="1600" height="900" fill="url(#bgGlow)"/>
  <g opacity="0.72"><circle cx="387" cy="672" r="2.1" fill="#86efac" opacity="0.44" />
<circle cx="368" cy="491" r="1.0" fill="#86efac" opacity="0.63" />
<circle cx="425" cy="310" r="2.3" fill="#86efac" opacity="0.56" />
<circle cx="406" cy="129" r="1.2" fill="#86efac" opacity="0.25" />
<circle cx="463" cy="496" r="2.5" fill="#86efac" opacity="0.18" />
<circle cx="444" cy="315" r="1.4" fill="#86efac" opacity="0.37" />
<circle cx="501" cy="134" r="2.7" fill="#86efac" opacity="0.30" />
<circle cx="482" cy="853" r="1.6" fill="#86efac" opacity="0.49" />
<circle cx="539" cy="320" r="2.9" fill="#86efac" opacity="0.46" />
<circle cx="520" cy="139" r="1.8" fill="#86efac" opacity="0.65" />
<circle cx="640" cy="9" r="1.4" fill="#86efac" opacity="0.25" />
<circle cx="659" cy="190" r="2.5" fill="#86efac" opacity="0.56" />
<circle cx="678" cy="371" r="1.6" fill="#86efac" opacity="0.63" />
<circle cx="697" cy="552" r="2.7" fill="#86efac" opacity="0.44" />
<circle cx="716" cy="733" r="1.0" fill="#86efac" opacity="0.49" />
<circle cx="735" cy="14" r="2.1" fill="#86efac" opacity="0.30" />
<circle cx="754" cy="195" r="1.2" fill="#86efac" opacity="0.37" />
<circle cx="773" cy="376" r="2.3" fill="#86efac" opacity="0.18" />
<circle cx="792" cy="361" r="2.2" fill="#86efac" opacity="0.27" />
<circle cx="811" cy="542" r="0.9" fill="#86efac" opacity="0.58" />
<circle cx="1499" cy="218" r="2.9" fill="#86efac" opacity="0.24" />
<circle cx="1480" cy="37" r="1.8" fill="#86efac" opacity="0.43" />
<circle cx="1537" cy="580" r="3.1" fill="#86efac" opacity="0.62" />
<circle cx="1518" cy="399" r="2.0" fill="#86efac" opacity="0.31" />
<circle cx="1575" cy="394" r="0.9" fill="#86efac" opacity="0.48" />
<circle cx="1556" cy="213" r="2.2" fill="#86efac" opacity="0.67" />
<circle cx="13" cy="756" r="1.1" fill="#86efac" opacity="0.36" />
<circle cx="1594" cy="575" r="2.4" fill="#86efac" opacity="0.55" />
<circle cx="1347" cy="766" r="2.1" fill="#86efac" opacity="0.22" />
<circle cx="1328" cy="585" r="1.0" fill="#86efac" opacity="0.41" />
<circle cx="1490" cy="427" r="1.2" fill="#86efac" opacity="0.33" />
<circle cx="1509" cy="608" r="2.3" fill="#86efac" opacity="0.64" />
<circle cx="1452" cy="65" r="1.0" fill="#86efac" opacity="0.45" />
<circle cx="1471" cy="246" r="2.1" fill="#86efac" opacity="0.26" />
<circle cx="1414" cy="251" r="1.6" fill="#86efac" opacity="0.57" />
<circle cx="1433" cy="432" r="2.7" fill="#86efac" opacity="0.38" />
<circle cx="1376" cy="789" r="1.4" fill="#86efac" opacity="0.19" />
<circle cx="1395" cy="70" r="2.5" fill="#86efac" opacity="0.50" />
<circle cx="42" cy="75" r="2.8" fill="#86efac" opacity="0.31" />
<circle cx="61" cy="256" r="1.5" fill="#86efac" opacity="0.62" />
<circle cx="1453" cy="704" r="1.9" fill="#86efac" opacity="0.20" />
<circle cx="1434" cy="523" r="0.8" fill="#86efac" opacity="0.39" />
<circle cx="1415" cy="342" r="1.7" fill="#86efac" opacity="0.32" />
<circle cx="1396" cy="161" r="3.0" fill="#86efac" opacity="0.51" />
<circle cx="1377" cy="880" r="1.5" fill="#86efac" opacity="0.44" />
<circle cx="1358" cy="699" r="2.8" fill="#86efac" opacity="0.63" />
<circle cx="1339" cy="518" r="1.3" fill="#86efac" opacity="0.56" />
<circle cx="1320" cy="337" r="2.6" fill="#86efac" opacity="0.25" />
<circle cx="1301" cy="352" r="1.1" fill="#86efac" opacity="0.22" />
<circle cx="1282" cy="171" r="2.4" fill="#86efac" opacity="0.41" />
<circle cx="1508" cy="13" r="1.8" fill="#86efac" opacity="0.29" />
<circle cx="1527" cy="194" r="2.9" fill="#86efac" opacity="0.60" />
<circle cx="1546" cy="375" r="2.0" fill="#86efac" opacity="0.67" />
<circle cx="1565" cy="556" r="3.1" fill="#86efac" opacity="0.48" />
<circle cx="1432" cy="189" r="2.2" fill="#86efac" opacity="0.55" />
<circle cx="1451" cy="370" r="0.9" fill="#86efac" opacity="0.36" />
<circle cx="1470" cy="551" r="2.4" fill="#86efac" opacity="0.43" />
<circle cx="1489" cy="732" r="1.1" fill="#86efac" opacity="0.24" />
<circle cx="1356" cy="561" r="2.6" fill="#86efac" opacity="0.27" />
<circle cx="1375" cy="742" r="1.3" fill="#86efac" opacity="0.58" />
<circle cx="863" cy="454" r="2.5" fill="#86efac" opacity="0.52" />
<circle cx="844" cy="273" r="1.4" fill="#86efac" opacity="0.21" />
<circle cx="901" cy="816" r="2.7" fill="#86efac" opacity="0.40" />
<circle cx="882" cy="635" r="1.6" fill="#86efac" opacity="0.59" />
<circle cx="787" cy="278" r="2.1" fill="#86efac" opacity="0.28" />
<circle cx="768" cy="97" r="1.0" fill="#86efac" opacity="0.47" />
<circle cx="825" cy="640" r="2.3" fill="#86efac" opacity="0.66" />
<circle cx="806" cy="459" r="1.2" fill="#86efac" opacity="0.35" /></g>
  <circle cx="517" cy="290" r="230" fill="#fdba74" opacity="0.08"/>
  <circle cx="1099" cy="639" r="275" fill="#86efac" opacity="0.08"/>
  <g filter="url(#softGlow)">
    
      <path d="M660 225 C500 405 500 610 660 770" fill="none" stroke="#86efac" stroke-width="23" stroke-linecap="round" opacity="0.78"/>
      <path d="M660 225 C760 410 760 585 660 770" fill="none" stroke="#fdba74" stroke-width="7" opacity="0.74"/>
      <line x1="658" y1="225" x2="658" y2="770" stroke="#fff7ed" stroke-width="4" opacity="0.68"/>
      <line x1="700" y1="505" x2="1045" y2="505" stroke="#86efac" stroke-width="13" stroke-linecap="round" opacity="0.82"/>
      <path d="M1045 505 l-58 -32 l16 32 l-16 32 Z" fill="#86efac" opacity="0.86"/>
    
  </g>
  <g opacity="0.78">
    <rect x="88" y="82" width="1424" height="736" rx="46" fill="none" stroke="#ffffff" stroke-opacity="0.2" stroke-width="2"/>
    <path d="M150 150 C320 82 525 78 720 126" stroke="#fff7ed" stroke-opacity="0.44" stroke-width="7" stroke-linecap="round"/>
    <path d="M1332 710 C1215 775 1005 792 855 752" stroke="#fdba74" stroke-opacity="0.42" stroke-width="8" stroke-linecap="round"/>
  </g>
  <g transform="translate(126 714)">
    <rect width="420" height="86" rx="28" fill="#ffffff" opacity="0.12"/>
    <rect x="1" y="1" width="418" height="84" rx="27" fill="none" stroke="#ffffff" stroke-opacity="0.22"/>
    <text x="36" y="56" font-family="Georgia, 'Noto Serif Devanagari', serif" font-size="40" font-weight="700" fill="#fff7ed">धनुष</text>
    <circle cx="352" cy="43" r="15" fill="#fdba74" opacity="0.9"/>
  </g>
  <rect width="1600" height="900" filter="url(#grain)" opacity="0.34"/>
</svg>
