<svg xmlns="http://www.w3.org/2000/svg" width="1600" height="900" viewBox="0 0 1600 900" role="img" aria-label="पुनर्जन्म का सिद्धांत: आत्मा का सनातन सफर, कर्म बंधन और पिछले जन्म की यादों का वैज्ञानिक दृष्टिकोण">
  <defs>
    <radialGradient id="bgGlow" cx="50%" cy="43%" r="75%">
      <stop offset="0%" stop-color="#c4b5fd" stop-opacity="0.46"/>
      <stop offset="45%" stop-color="#3a2267" stop-opacity="0.92"/>
      <stop offset="100%" stop-color="#130b2a"/>
    </radialGradient>
    <linearGradient id="glassPanel" x1="0%" y1="0%" x2="100%" y2="100%">
      <stop offset="0%" stop-color="#ffffff" stop-opacity="0.58"/>
      <stop offset="42%" stop-color="#c4b5fd" stop-opacity="0.22"/>
      <stop offset="100%" stop-color="#ffffff" stop-opacity="0.08"/>
    </linearGradient>
    <radialGradient id="glassOrb" cx="34%" cy="24%" r="68%">
      <stop offset="0%" stop-color="#ffffff" stop-opacity="0.94"/>
      <stop offset="34%" stop-color="#c4b5fd" stop-opacity="0.62"/>
      <stop offset="100%" stop-color="#3a2267" stop-opacity="0.22"/>
    </radialGradient>
    <linearGradient id="glassMountain" x1="0%" y1="0%" x2="100%" y2="100%">
      <stop offset="0%" stop-color="#ffffff" stop-opacity="0.48"/>
      <stop offset="100%" stop-color="#c4b5fd" stop-opacity="0.22"/>
    </linearGradient>
    <filter id="softGlow" x="-30%" y="-30%" width="160%" height="160%">
      <feGaussianBlur stdDeviation="18" result="blur"/>
      <feColorMatrix in="blur" type="matrix" values="1 0 0 0 0  0 1 0 0 0  0 0 1 0 0  0 0 0 0.75 0"/>
      <feMerge>
        <feMergeNode/>
        <feMergeNode in="SourceGraphic"/>
      </feMerge>
    </filter>
    <filter id="grain">
      <feTurbulence type="fractalNoise" baseFrequency="0.82" numOctaves="3" seed="293"/>
      <feColorMatrix type="saturate" values="0"/>
      <feComponentTransfer>
        <feFuncA type="table" tableValues="0 0.075"/>
      </feComponentTransfer>
    </filter>
  </defs>
  <rect width="1600" height="900" fill="url(#bgGlow)"/>
  <g opacity="0.72"><circle cx="699" cy="124" r="1.3" fill="#fcd34d" opacity="0.24" />
<circle cx="680" cy="843" r="2.6" fill="#fcd34d" opacity="0.43" />
<circle cx="737" cy="662" r="1.5" fill="#fcd34d" opacity="0.36" />
<circle cx="718" cy="481" r="2.8" fill="#fcd34d" opacity="0.55" />
<circle cx="775" cy="848" r="1.7" fill="#fcd34d" opacity="0.48" />
<circle cx="756" cy="667" r="3.0" fill="#fcd34d" opacity="0.67" />
<circle cx="813" cy="486" r="1.9" fill="#fcd34d" opacity="0.60" />
<circle cx="794" cy="305" r="0.8" fill="#fcd34d" opacity="0.29" />
<circle cx="547" cy="476" r="2.9" fill="#fcd34d" opacity="0.22" />
<circle cx="528" cy="295" r="1.8" fill="#fcd34d" opacity="0.41" />
<circle cx="392" cy="641" r="1.4" fill="#fcd34d" opacity="0.23" />
<circle cx="411" cy="822" r="2.5" fill="#fcd34d" opacity="0.54" />
<circle cx="430" cy="103" r="1.6" fill="#fcd34d" opacity="0.61" />
<circle cx="449" cy="284" r="2.7" fill="#fcd34d" opacity="0.42" />
<circle cx="468" cy="465" r="1.0" fill="#fcd34d" opacity="0.47" />
<circle cx="487" cy="646" r="2.1" fill="#fcd34d" opacity="0.28" />
<circle cx="506" cy="827" r="1.2" fill="#fcd34d" opacity="0.35" />
<circle cx="525" cy="108" r="2.3" fill="#fcd34d" opacity="0.66" />
<circle cx="240" cy="289" r="3.0" fill="#fcd34d" opacity="0.21" />
<circle cx="259" cy="470" r="1.7" fill="#fcd34d" opacity="0.52" />
<circle cx="643" cy="574" r="1.3" fill="#fcd34d" opacity="0.46" />
<circle cx="624" cy="393" r="2.6" fill="#fcd34d" opacity="0.65" />
<circle cx="681" cy="36" r="1.5" fill="#fcd34d" opacity="0.34" />
<circle cx="662" cy="755" r="2.8" fill="#fcd34d" opacity="0.53" />
<circle cx="719" cy="750" r="1.7" fill="#fcd34d" opacity="0.20" />
<circle cx="700" cy="569" r="3.0" fill="#fcd34d" opacity="0.39" />
<circle cx="757" cy="212" r="1.9" fill="#fcd34d" opacity="0.58" />
<circle cx="738" cy="31" r="0.8" fill="#fcd34d" opacity="0.27" />
<circle cx="795" cy="26" r="2.1" fill="#fcd34d" opacity="0.48" />
<circle cx="776" cy="745" r="1.0" fill="#fcd34d" opacity="0.67" />
<circle cx="1242" cy="783" r="2.0" fill="#fcd34d" opacity="0.55" />
<circle cx="1261" cy="64" r="3.1" fill="#fcd34d" opacity="0.36" />
<circle cx="1204" cy="421" r="1.8" fill="#fcd34d" opacity="0.67" />
<circle cx="1223" cy="602" r="2.9" fill="#fcd34d" opacity="0.48" />
<circle cx="1166" cy="607" r="2.4" fill="#fcd34d" opacity="0.29" />
<circle cx="1185" cy="788" r="1.1" fill="#fcd34d" opacity="0.60" />
<circle cx="1128" cy="245" r="2.2" fill="#fcd34d" opacity="0.41" />
<circle cx="1147" cy="426" r="0.9" fill="#fcd34d" opacity="0.22" />
<circle cx="1090" cy="235" r="2.8" fill="#fcd34d" opacity="0.57" />
<circle cx="1109" cy="416" r="1.5" fill="#fcd34d" opacity="0.38" />
<circle cx="597" cy="160" r="1.1" fill="#fcd34d" opacity="0.54" />
<circle cx="578" cy="879" r="2.4" fill="#fcd34d" opacity="0.23" />
<circle cx="559" cy="698" r="0.9" fill="#fcd34d" opacity="0.66" />
<circle cx="540" cy="517" r="2.2" fill="#fcd34d" opacity="0.35" />
<circle cx="521" cy="336" r="3.1" fill="#fcd34d" opacity="0.28" />
<circle cx="502" cy="155" r="2.0" fill="#fcd34d" opacity="0.47" />
<circle cx="483" cy="874" r="2.9" fill="#fcd34d" opacity="0.40" />
<circle cx="464" cy="693" r="1.8" fill="#fcd34d" opacity="0.59" />
<circle cx="749" cy="512" r="1.9" fill="#fcd34d" opacity="0.52" />
<circle cx="730" cy="331" r="0.8" fill="#fcd34d" opacity="0.21" />
<circle cx="652" cy="369" r="1.8" fill="#fcd34d" opacity="0.55" />
<circle cx="671" cy="550" r="2.9" fill="#fcd34d" opacity="0.36" />
<circle cx="690" cy="731" r="2.0" fill="#fcd34d" opacity="0.43" />
<circle cx="709" cy="12" r="3.1" fill="#fcd34d" opacity="0.24" />
<circle cx="576" cy="545" r="2.2" fill="#fcd34d" opacity="0.31" />
<circle cx="595" cy="726" r="0.9" fill="#fcd34d" opacity="0.62" />
<circle cx="614" cy="7" r="2.4" fill="#fcd34d" opacity="0.19" />
<circle cx="633" cy="188" r="1.1" fill="#fcd34d" opacity="0.50" />
<circle cx="804" cy="721" r="1.0" fill="#fcd34d" opacity="0.57" />
<circle cx="823" cy="2" r="2.1" fill="#fcd34d" opacity="0.38" />
<circle cx="615" cy="14" r="2.5" fill="#fcd34d" opacity="0.50" />
<circle cx="596" cy="733" r="1.4" fill="#fcd34d" opacity="0.19" />
<circle cx="653" cy="376" r="2.7" fill="#fcd34d" opacity="0.38" />
<circle cx="634" cy="195" r="1.6" fill="#fcd34d" opacity="0.57" />
<circle cx="539" cy="738" r="2.1" fill="#fcd34d" opacity="0.26" />
<circle cx="520" cy="557" r="1.0" fill="#fcd34d" opacity="0.45" />
<circle cx="577" cy="200" r="2.3" fill="#fcd34d" opacity="0.64" />
<circle cx="558" cy="19" r="1.2" fill="#fcd34d" opacity="0.33" /></g>
  <circle cx="505" cy="298" r="230" fill="#c4b5fd" opacity="0.08"/>
  <circle cx="1187" cy="667" r="275" fill="#fcd34d" opacity="0.08"/>
  <g filter="url(#softGlow)">
    
    <ellipse cx="800" cy="285" rx="16" ry="90" fill="#c4b5fd" opacity="0.22" transform="rotate(0 800 460)" />
<ellipse cx="800" cy="285" rx="16" ry="90" fill="#c4b5fd" opacity="0.22" transform="rotate(11.25 800 460)" />
<ellipse cx="800" cy="285" rx="16" ry="90" fill="#c4b5fd" opacity="0.22" transform="rotate(22.5 800 460)" />
<ellipse cx="800" cy="285" rx="16" ry="90" fill="#c4b5fd" opacity="0.22" transform="rotate(33.75 800 460)" />
<ellipse cx="800" cy="285" rx="16" ry="90" fill="#c4b5fd" opacity="0.22" transform="rotate(45 800 460)" />
<ellipse cx="800" cy="285" rx="16" ry="90" fill="#c4b5fd" opacity="0.22" transform="rotate(56.25 800 460)" />
<ellipse cx="800" cy="285" rx="16" ry="90" fill="#c4b5fd" opacity="0.22" transform="rotate(67.5 800 460)" />
<ellipse cx="800" cy="285" rx="16" ry="90" fill="#c4b5fd" opacity="0.22" transform="rotate(78.75 800 460)" />
<ellipse cx="800" cy="285" rx="16" ry="90" fill="#c4b5fd" opacity="0.22" transform="rotate(90 800 460)" />
<ellipse cx="800" cy="285" rx="16" ry="90" fill="#c4b5fd" opacity="0.22" transform="rotate(101.25 800 460)" />
<ellipse cx="800" cy="285" rx="16" ry="90" fill="#c4b5fd" opacity="0.22" transform="rotate(112.5 800 460)" />
<ellipse cx="800" cy="285" rx="16" ry="90" fill="#c4b5fd" opacity="0.22" transform="rotate(123.75 800 460)" />
<ellipse cx="800" cy="285" rx="16" ry="90" fill="#c4b5fd" opacity="0.22" transform="rotate(135 800 460)" />
<ellipse cx="800" cy="285" rx="16" ry="90" fill="#c4b5fd" opacity="0.22" transform="rotate(146.25 800 460)" />
<ellipse cx="800" cy="285" rx="16" ry="90" fill="#c4b5fd" opacity="0.22" transform="rotate(157.5 800 460)" />
<ellipse cx="800" cy="285" rx="16" ry="90" fill="#c4b5fd" opacity="0.22" transform="rotate(168.75 800 460)" />
<ellipse cx="800" cy="285" rx="16" ry="90" fill="#c4b5fd" opacity="0.22" transform="rotate(180 800 460)" />
<ellipse cx="800" cy="285" rx="16" ry="90" fill="#c4b5fd" opacity="0.22" transform="rotate(191.25 800 460)" />
<ellipse cx="800" cy="285" rx="16" ry="90" fill="#c4b5fd" opacity="0.22" transform="rotate(202.5 800 460)" />
<ellipse cx="800" cy="285" rx="16" ry="90" fill="#c4b5fd" opacity="0.22" transform="rotate(213.75 800 460)" />
<ellipse cx="800" cy="285" rx="16" ry="90" fill="#c4b5fd" opacity="0.22" transform="rotate(225 800 460)" />
<ellipse cx="800" cy="285" rx="16" ry="90" fill="#c4b5fd" opacity="0.22" transform="rotate(236.25 800 460)" />
<ellipse cx="800" cy="285" rx="16" ry="90" fill="#c4b5fd" opacity="0.22" transform="rotate(247.5 800 460)" />
<ellipse cx="800" cy="285" rx="16" ry="90" fill="#c4b5fd" opacity="0.22" transform="rotate(258.75 800 460)" />
<ellipse cx="800" cy="285" rx="16" ry="90" fill="#c4b5fd" opacity="0.22" transform="rotate(270 800 460)" />
<ellipse cx="800" cy="285" rx="16" ry="90" fill="#c4b5fd" opacity="0.22" transform="rotate(281.25 800 460)" />
<ellipse cx="800" cy="285" rx="16" ry="90" fill="#c4b5fd" opacity="0.22" transform="rotate(292.5 800 460)" />
<ellipse cx="800" cy="285" rx="16" ry="90" fill="#c4b5fd" opacity="0.22" transform="rotate(303.75 800 460)" />
<ellipse cx="800" cy="285" rx="16" ry="90" fill="#c4b5fd" opacity="0.22" transform="rotate(315 800 460)" />
<ellipse cx="800" cy="285" rx="16" ry="90" fill="#c4b5fd" opacity="0.22" transform="rotate(326.25 800 460)" />
<ellipse cx="800" cy="285" rx="16" ry="90" fill="#c4b5fd" opacity="0.22" transform="rotate(337.5 800 460)" />
<ellipse cx="800" cy="285" rx="16" ry="90" fill="#c4b5fd" opacity="0.22" transform="rotate(348.75 800 460)" />
    <ellipse cx="800" cy="348" rx="20" ry="72" fill="#fcd34d" opacity="0.32" transform="rotate(0 800 460)" />
<ellipse cx="800" cy="348" rx="20" ry="72" fill="#fcd34d" opacity="0.32" transform="rotate(20 800 460)" />
<ellipse cx="800" cy="348" rx="20" ry="72" fill="#fcd34d" opacity="0.32" transform="rotate(40 800 460)" />
<ellipse cx="800" cy="348" rx="20" ry="72" fill="#fcd34d" opacity="0.32" transform="rotate(60 800 460)" />
<ellipse cx="800" cy="348" rx="20" ry="72" fill="#fcd34d" opacity="0.32" transform="rotate(80 800 460)" />
<ellipse cx="800" cy="348" rx="20" ry="72" fill="#fcd34d" opacity="0.32" transform="rotate(100 800 460)" />
<ellipse cx="800" cy="348" rx="20" ry="72" fill="#fcd34d" opacity="0.32" transform="rotate(120 800 460)" />
<ellipse cx="800" cy="348" rx="20" ry="72" fill="#fcd34d" opacity="0.32" transform="rotate(140 800 460)" />
<ellipse cx="800" cy="348" rx="20" ry="72" fill="#fcd34d" opacity="0.32" transform="rotate(160 800 460)" />
<ellipse cx="800" cy="348" rx="20" ry="72" fill="#fcd34d" opacity="0.32" transform="rotate(180 800 460)" />
<ellipse cx="800" cy="348" rx="20" ry="72" fill="#fcd34d" opacity="0.32" transform="rotate(200 800 460)" />
<ellipse cx="800" cy="348" rx="20" ry="72" fill="#fcd34d" opacity="0.32" transform="rotate(220 800 460)" />
<ellipse cx="800" cy="348" rx="20" ry="72" fill="#fcd34d" opacity="0.32" transform="rotate(240 800 460)" />
<ellipse cx="800" cy="348" rx="20" ry="72" fill="#fcd34d" opacity="0.32" transform="rotate(260 800 460)" />
<ellipse cx="800" cy="348" rx="20" ry="72" fill="#fcd34d" opacity="0.32" transform="rotate(280 800 460)" />
<ellipse cx="800" cy="348" rx="20" ry="72" fill="#fcd34d" opacity="0.32" transform="rotate(300 800 460)" />
<ellipse cx="800" cy="348" rx="20" ry="72" fill="#fcd34d" opacity="0.32" transform="rotate(320 800 460)" />
<ellipse cx="800" cy="348" rx="20" ry="72" fill="#fcd34d" opacity="0.32" transform="rotate(340 800 460)" />
    <circle cx="800" cy="460" r="140" fill="url(#glassOrb)" opacity="0.78"/>
    <text x="800" y="525" text-anchor="middle" font-family="Georgia, 'Noto Serif Devanagari', serif" font-size="210" font-weight="700" fill="#fff7ed" opacity="0.9">ॐ</text>
  
  </g>
  <g opacity="0.78">
    <rect x="88" y="82" width="1424" height="736" rx="46" fill="none" stroke="#ffffff" stroke-opacity="0.2" stroke-width="2"/>
    <path d="M150 150 C320 82 525 78 720 126" stroke="#fff7ed" stroke-opacity="0.44" stroke-width="7" stroke-linecap="round"/>
    <path d="M1332 710 C1215 775 1005 792 855 752" stroke="#c4b5fd" stroke-opacity="0.42" stroke-width="8" stroke-linecap="round"/>
  </g>
  <g transform="translate(126 714)">
    <rect width="420" height="86" rx="28" fill="#ffffff" opacity="0.12"/>
    <rect x="1" y="1" width="418" height="84" rx="27" fill="none" stroke="#ffffff" stroke-opacity="0.22"/>
    <text x="36" y="56" font-family="Georgia, 'Noto Serif Devanagari', serif" font-size="40" font-weight="700" fill="#fff7ed">ॐ</text>
    <circle cx="352" cy="43" r="15" fill="#c4b5fd" opacity="0.9"/>
  </g>
  <rect width="1600" height="900" filter="url(#grain)" opacity="0.34"/>
</svg>
