<svg xmlns="http://www.w3.org/2000/svg" width="1600" height="900" viewBox="0 0 1600 900" role="img" aria-label="भारत की नदियाँ: सनातन संस्कृति में नदियों को माता का दर्जा क्यों?">
  <defs>
    <radialGradient id="bgGlow" cx="50%" cy="43%" r="75%">
      <stop offset="0%" stop-color="#c4b5fd" stop-opacity="0.46"/>
      <stop offset="45%" stop-color="#3a2267" stop-opacity="0.92"/>
      <stop offset="100%" stop-color="#130b2a"/>
    </radialGradient>
    <linearGradient id="glassPanel" x1="0%" y1="0%" x2="100%" y2="100%">
      <stop offset="0%" stop-color="#ffffff" stop-opacity="0.58"/>
      <stop offset="42%" stop-color="#c4b5fd" stop-opacity="0.22"/>
      <stop offset="100%" stop-color="#ffffff" stop-opacity="0.08"/>
    </linearGradient>
    <radialGradient id="glassOrb" cx="34%" cy="24%" r="68%">
      <stop offset="0%" stop-color="#ffffff" stop-opacity="0.94"/>
      <stop offset="34%" stop-color="#c4b5fd" stop-opacity="0.62"/>
      <stop offset="100%" stop-color="#3a2267" stop-opacity="0.22"/>
    </radialGradient>
    <linearGradient id="glassMountain" x1="0%" y1="0%" x2="100%" y2="100%">
      <stop offset="0%" stop-color="#ffffff" stop-opacity="0.48"/>
      <stop offset="100%" stop-color="#c4b5fd" stop-opacity="0.22"/>
    </linearGradient>
    <filter id="softGlow" x="-30%" y="-30%" width="160%" height="160%">
      <feGaussianBlur stdDeviation="18" result="blur"/>
      <feColorMatrix in="blur" type="matrix" values="1 0 0 0 0  0 1 0 0 0  0 0 1 0 0  0 0 0 0.75 0"/>
      <feMerge>
        <feMergeNode/>
        <feMergeNode in="SourceGraphic"/>
      </feMerge>
    </filter>
    <filter id="grain">
      <feTurbulence type="fractalNoise" baseFrequency="0.82" numOctaves="3" seed="286"/>
      <feColorMatrix type="saturate" values="0"/>
      <feComponentTransfer>
        <feFuncA type="table" tableValues="0 0.075"/>
      </feComponentTransfer>
    </filter>
  </defs>
  <rect width="1600" height="900" fill="url(#bgGlow)"/>
  <g opacity="0.72"><circle cx="1226" cy="117" r="1.6" fill="#fcd34d" opacity="0.41" />
<circle cx="1245" cy="298" r="2.7" fill="#fcd34d" opacity="0.22" />
<circle cx="1188" cy="479" r="1.4" fill="#fcd34d" opacity="0.29" />
<circle cx="1207" cy="660" r="2.5" fill="#fcd34d" opacity="0.60" />
<circle cx="1150" cy="293" r="1.2" fill="#fcd34d" opacity="0.67" />
<circle cx="1169" cy="474" r="2.3" fill="#fcd34d" opacity="0.48" />
<circle cx="1112" cy="655" r="1.0" fill="#fcd34d" opacity="0.55" />
<circle cx="1131" cy="836" r="2.1" fill="#fcd34d" opacity="0.36" />
<circle cx="1074" cy="665" r="2.4" fill="#fcd34d" opacity="0.39" />
<circle cx="1093" cy="846" r="1.1" fill="#fcd34d" opacity="0.20" />
<circle cx="1303" cy="290" r="2.5" fill="#fcd34d" opacity="0.54" />
<circle cx="1284" cy="109" r="1.4" fill="#fcd34d" opacity="0.23" />
<circle cx="1341" cy="652" r="2.7" fill="#fcd34d" opacity="0.42" />
<circle cx="1322" cy="471" r="1.6" fill="#fcd34d" opacity="0.61" />
<circle cx="1227" cy="114" r="2.1" fill="#fcd34d" opacity="0.30" />
<circle cx="1208" cy="833" r="1.0" fill="#fcd34d" opacity="0.49" />
<circle cx="1265" cy="476" r="2.3" fill="#fcd34d" opacity="0.18" />
<circle cx="1246" cy="295" r="1.2" fill="#fcd34d" opacity="0.37" />
<circle cx="1151" cy="838" r="0.9" fill="#fcd34d" opacity="0.52" />
<circle cx="1132" cy="657" r="2.2" fill="#fcd34d" opacity="0.21" />
<circle cx="1340" cy="81" r="1.8" fill="#fcd34d" opacity="0.59" />
<circle cx="1359" cy="262" r="2.9" fill="#fcd34d" opacity="0.40" />
<circle cx="1378" cy="443" r="2.0" fill="#fcd34d" opacity="0.47" />
<circle cx="1397" cy="624" r="3.1" fill="#fcd34d" opacity="0.28" />
<circle cx="1264" cy="257" r="2.2" fill="#fcd34d" opacity="0.35" />
<circle cx="1283" cy="438" r="0.9" fill="#fcd34d" opacity="0.66" />
<circle cx="1302" cy="619" r="2.4" fill="#fcd34d" opacity="0.23" />
<circle cx="1321" cy="800" r="1.1" fill="#fcd34d" opacity="0.54" />
<circle cx="1492" cy="629" r="2.6" fill="#fcd34d" opacity="0.61" />
<circle cx="1511" cy="810" r="1.3" fill="#fcd34d" opacity="0.42" />
<circle cx="1349" cy="772" r="1.9" fill="#fcd34d" opacity="0.22" />
<circle cx="1330" cy="591" r="0.8" fill="#fcd34d" opacity="0.41" />
<circle cx="1311" cy="410" r="1.7" fill="#fcd34d" opacity="0.34" />
<circle cx="1292" cy="229" r="3.0" fill="#fcd34d" opacity="0.53" />
<circle cx="1273" cy="48" r="1.5" fill="#fcd34d" opacity="0.46" />
<circle cx="1254" cy="767" r="2.8" fill="#fcd34d" opacity="0.65" />
<circle cx="1235" cy="586" r="1.3" fill="#fcd34d" opacity="0.58" />
<circle cx="1216" cy="405" r="2.6" fill="#fcd34d" opacity="0.27" />
<circle cx="1501" cy="420" r="1.1" fill="#fcd34d" opacity="0.20" />
<circle cx="1482" cy="239" r="2.4" fill="#fcd34d" opacity="0.39" />
<circle cx="1098" cy="495" r="1.2" fill="#fcd34d" opacity="0.27" />
<circle cx="1117" cy="676" r="2.3" fill="#fcd34d" opacity="0.58" />
<circle cx="1060" cy="133" r="1.0" fill="#fcd34d" opacity="0.39" />
<circle cx="1079" cy="314" r="2.1" fill="#fcd34d" opacity="0.20" />
<circle cx="1022" cy="319" r="1.6" fill="#fcd34d" opacity="0.51" />
<circle cx="1041" cy="500" r="2.7" fill="#fcd34d" opacity="0.32" />
<circle cx="984" cy="857" r="1.4" fill="#fcd34d" opacity="0.63" />
<circle cx="1003" cy="138" r="2.5" fill="#fcd34d" opacity="0.44" />
<circle cx="946" cy="143" r="2.8" fill="#fcd34d" opacity="0.29" />
<circle cx="965" cy="324" r="1.5" fill="#fcd34d" opacity="0.60" />
<circle cx="1331" cy="286" r="2.1" fill="#fcd34d" opacity="0.18" />
<circle cx="1312" cy="105" r="1.0" fill="#fcd34d" opacity="0.37" />
<circle cx="1369" cy="648" r="2.3" fill="#fcd34d" opacity="0.56" />
<circle cx="1350" cy="467" r="1.2" fill="#fcd34d" opacity="0.25" />
<circle cx="1407" cy="462" r="2.5" fill="#fcd34d" opacity="0.42" />
<circle cx="1388" cy="281" r="1.4" fill="#fcd34d" opacity="0.61" />
<circle cx="1445" cy="824" r="2.7" fill="#fcd34d" opacity="0.30" />
<circle cx="1426" cy="643" r="1.6" fill="#fcd34d" opacity="0.49" />
<circle cx="1483" cy="834" r="1.3" fill="#fcd34d" opacity="0.20" />
<circle cx="1464" cy="653" r="2.6" fill="#fcd34d" opacity="0.39" />
<circle cx="1080" cy="745" r="1.4" fill="#fcd34d" opacity="0.27" />
<circle cx="1099" cy="26" r="2.5" fill="#fcd34d" opacity="0.58" />
<circle cx="1118" cy="207" r="1.6" fill="#fcd34d" opacity="0.65" />
<circle cx="1137" cy="388" r="2.7" fill="#fcd34d" opacity="0.46" />
<circle cx="1156" cy="569" r="1.0" fill="#fcd34d" opacity="0.51" />
<circle cx="1175" cy="750" r="2.1" fill="#fcd34d" opacity="0.32" />
<circle cx="1194" cy="31" r="1.2" fill="#fcd34d" opacity="0.39" />
<circle cx="1213" cy="212" r="2.3" fill="#fcd34d" opacity="0.20" /></g>
  <circle cx="456" cy="303" r="230" fill="#c4b5fd" opacity="0.08"/>
  <circle cx="1194" cy="684" r="275" fill="#fcd34d" opacity="0.08"/>
  <g filter="url(#softGlow)">
    
    <ellipse cx="800" cy="285" rx="16" ry="90" fill="#c4b5fd" opacity="0.22" transform="rotate(0 800 460)" />
<ellipse cx="800" cy="285" rx="16" ry="90" fill="#c4b5fd" opacity="0.22" transform="rotate(11.25 800 460)" />
<ellipse cx="800" cy="285" rx="16" ry="90" fill="#c4b5fd" opacity="0.22" transform="rotate(22.5 800 460)" />
<ellipse cx="800" cy="285" rx="16" ry="90" fill="#c4b5fd" opacity="0.22" transform="rotate(33.75 800 460)" />
<ellipse cx="800" cy="285" rx="16" ry="90" fill="#c4b5fd" opacity="0.22" transform="rotate(45 800 460)" />
<ellipse cx="800" cy="285" rx="16" ry="90" fill="#c4b5fd" opacity="0.22" transform="rotate(56.25 800 460)" />
<ellipse cx="800" cy="285" rx="16" ry="90" fill="#c4b5fd" opacity="0.22" transform="rotate(67.5 800 460)" />
<ellipse cx="800" cy="285" rx="16" ry="90" fill="#c4b5fd" opacity="0.22" transform="rotate(78.75 800 460)" />
<ellipse cx="800" cy="285" rx="16" ry="90" fill="#c4b5fd" opacity="0.22" transform="rotate(90 800 460)" />
<ellipse cx="800" cy="285" rx="16" ry="90" fill="#c4b5fd" opacity="0.22" transform="rotate(101.25 800 460)" />
<ellipse cx="800" cy="285" rx="16" ry="90" fill="#c4b5fd" opacity="0.22" transform="rotate(112.5 800 460)" />
<ellipse cx="800" cy="285" rx="16" ry="90" fill="#c4b5fd" opacity="0.22" transform="rotate(123.75 800 460)" />
<ellipse cx="800" cy="285" rx="16" ry="90" fill="#c4b5fd" opacity="0.22" transform="rotate(135 800 460)" />
<ellipse cx="800" cy="285" rx="16" ry="90" fill="#c4b5fd" opacity="0.22" transform="rotate(146.25 800 460)" />
<ellipse cx="800" cy="285" rx="16" ry="90" fill="#c4b5fd" opacity="0.22" transform="rotate(157.5 800 460)" />
<ellipse cx="800" cy="285" rx="16" ry="90" fill="#c4b5fd" opacity="0.22" transform="rotate(168.75 800 460)" />
<ellipse cx="800" cy="285" rx="16" ry="90" fill="#c4b5fd" opacity="0.22" transform="rotate(180 800 460)" />
<ellipse cx="800" cy="285" rx="16" ry="90" fill="#c4b5fd" opacity="0.22" transform="rotate(191.25 800 460)" />
<ellipse cx="800" cy="285" rx="16" ry="90" fill="#c4b5fd" opacity="0.22" transform="rotate(202.5 800 460)" />
<ellipse cx="800" cy="285" rx="16" ry="90" fill="#c4b5fd" opacity="0.22" transform="rotate(213.75 800 460)" />
<ellipse cx="800" cy="285" rx="16" ry="90" fill="#c4b5fd" opacity="0.22" transform="rotate(225 800 460)" />
<ellipse cx="800" cy="285" rx="16" ry="90" fill="#c4b5fd" opacity="0.22" transform="rotate(236.25 800 460)" />
<ellipse cx="800" cy="285" rx="16" ry="90" fill="#c4b5fd" opacity="0.22" transform="rotate(247.5 800 460)" />
<ellipse cx="800" cy="285" rx="16" ry="90" fill="#c4b5fd" opacity="0.22" transform="rotate(258.75 800 460)" />
<ellipse cx="800" cy="285" rx="16" ry="90" fill="#c4b5fd" opacity="0.22" transform="rotate(270 800 460)" />
<ellipse cx="800" cy="285" rx="16" ry="90" fill="#c4b5fd" opacity="0.22" transform="rotate(281.25 800 460)" />
<ellipse cx="800" cy="285" rx="16" ry="90" fill="#c4b5fd" opacity="0.22" transform="rotate(292.5 800 460)" />
<ellipse cx="800" cy="285" rx="16" ry="90" fill="#c4b5fd" opacity="0.22" transform="rotate(303.75 800 460)" />
<ellipse cx="800" cy="285" rx="16" ry="90" fill="#c4b5fd" opacity="0.22" transform="rotate(315 800 460)" />
<ellipse cx="800" cy="285" rx="16" ry="90" fill="#c4b5fd" opacity="0.22" transform="rotate(326.25 800 460)" />
<ellipse cx="800" cy="285" rx="16" ry="90" fill="#c4b5fd" opacity="0.22" transform="rotate(337.5 800 460)" />
<ellipse cx="800" cy="285" rx="16" ry="90" fill="#c4b5fd" opacity="0.22" transform="rotate(348.75 800 460)" />
    <ellipse cx="800" cy="348" rx="20" ry="72" fill="#fcd34d" opacity="0.32" transform="rotate(0 800 460)" />
<ellipse cx="800" cy="348" rx="20" ry="72" fill="#fcd34d" opacity="0.32" transform="rotate(20 800 460)" />
<ellipse cx="800" cy="348" rx="20" ry="72" fill="#fcd34d" opacity="0.32" transform="rotate(40 800 460)" />
<ellipse cx="800" cy="348" rx="20" ry="72" fill="#fcd34d" opacity="0.32" transform="rotate(60 800 460)" />
<ellipse cx="800" cy="348" rx="20" ry="72" fill="#fcd34d" opacity="0.32" transform="rotate(80 800 460)" />
<ellipse cx="800" cy="348" rx="20" ry="72" fill="#fcd34d" opacity="0.32" transform="rotate(100 800 460)" />
<ellipse cx="800" cy="348" rx="20" ry="72" fill="#fcd34d" opacity="0.32" transform="rotate(120 800 460)" />
<ellipse cx="800" cy="348" rx="20" ry="72" fill="#fcd34d" opacity="0.32" transform="rotate(140 800 460)" />
<ellipse cx="800" cy="348" rx="20" ry="72" fill="#fcd34d" opacity="0.32" transform="rotate(160 800 460)" />
<ellipse cx="800" cy="348" rx="20" ry="72" fill="#fcd34d" opacity="0.32" transform="rotate(180 800 460)" />
<ellipse cx="800" cy="348" rx="20" ry="72" fill="#fcd34d" opacity="0.32" transform="rotate(200 800 460)" />
<ellipse cx="800" cy="348" rx="20" ry="72" fill="#fcd34d" opacity="0.32" transform="rotate(220 800 460)" />
<ellipse cx="800" cy="348" rx="20" ry="72" fill="#fcd34d" opacity="0.32" transform="rotate(240 800 460)" />
<ellipse cx="800" cy="348" rx="20" ry="72" fill="#fcd34d" opacity="0.32" transform="rotate(260 800 460)" />
<ellipse cx="800" cy="348" rx="20" ry="72" fill="#fcd34d" opacity="0.32" transform="rotate(280 800 460)" />
<ellipse cx="800" cy="348" rx="20" ry="72" fill="#fcd34d" opacity="0.32" transform="rotate(300 800 460)" />
<ellipse cx="800" cy="348" rx="20" ry="72" fill="#fcd34d" opacity="0.32" transform="rotate(320 800 460)" />
<ellipse cx="800" cy="348" rx="20" ry="72" fill="#fcd34d" opacity="0.32" transform="rotate(340 800 460)" />
    <circle cx="800" cy="460" r="140" fill="url(#glassOrb)" opacity="0.78"/>
    <text x="800" y="525" text-anchor="middle" font-family="Georgia, 'Noto Serif Devanagari', serif" font-size="210" font-weight="700" fill="#fff7ed" opacity="0.9">ॐ</text>
  
  </g>
  <g opacity="0.78">
    <rect x="88" y="82" width="1424" height="736" rx="46" fill="none" stroke="#ffffff" stroke-opacity="0.2" stroke-width="2"/>
    <path d="M150 150 C320 82 525 78 720 126" stroke="#fff7ed" stroke-opacity="0.44" stroke-width="7" stroke-linecap="round"/>
    <path d="M1332 710 C1215 775 1005 792 855 752" stroke="#c4b5fd" stroke-opacity="0.42" stroke-width="8" stroke-linecap="round"/>
  </g>
  <g transform="translate(126 714)">
    <rect width="420" height="86" rx="28" fill="#ffffff" opacity="0.12"/>
    <rect x="1" y="1" width="418" height="84" rx="27" fill="none" stroke="#ffffff" stroke-opacity="0.22"/>
    <text x="36" y="56" font-family="Georgia, 'Noto Serif Devanagari', serif" font-size="40" font-weight="700" fill="#fff7ed">ॐ</text>
    <circle cx="352" cy="43" r="15" fill="#c4b5fd" opacity="0.9"/>
  </g>
  <rect width="1600" height="900" filter="url(#grain)" opacity="0.34"/>
</svg>
