<svg xmlns="http://www.w3.org/2000/svg" width="1600" height="900" viewBox="0 0 1600 900" role="img" aria-label="सगुण और निर्गुण ईश्वर: साकार बनाम निराकार भक्ति, हिंदू पूजा पद्धतियों का दार्शनिक आधार और रामचरितमानस में समन्वय">
  <defs>
    <radialGradient id="bgGlow" cx="50%" cy="43%" r="75%">
      <stop offset="0%" stop-color="#fdba74" stop-opacity="0.46"/>
      <stop offset="45%" stop-color="#5b2a0a" stop-opacity="0.92"/>
      <stop offset="100%" stop-color="#1f1208"/>
    </radialGradient>
    <linearGradient id="glassPanel" x1="0%" y1="0%" x2="100%" y2="100%">
      <stop offset="0%" stop-color="#ffffff" stop-opacity="0.58"/>
      <stop offset="42%" stop-color="#fdba74" stop-opacity="0.22"/>
      <stop offset="100%" stop-color="#ffffff" stop-opacity="0.08"/>
    </linearGradient>
    <radialGradient id="glassOrb" cx="34%" cy="24%" r="68%">
      <stop offset="0%" stop-color="#ffffff" stop-opacity="0.94"/>
      <stop offset="34%" stop-color="#fdba74" stop-opacity="0.62"/>
      <stop offset="100%" stop-color="#5b2a0a" stop-opacity="0.22"/>
    </radialGradient>
    <linearGradient id="glassMountain" x1="0%" y1="0%" x2="100%" y2="100%">
      <stop offset="0%" stop-color="#ffffff" stop-opacity="0.48"/>
      <stop offset="100%" stop-color="#fdba74" stop-opacity="0.22"/>
    </linearGradient>
    <filter id="softGlow" x="-30%" y="-30%" width="160%" height="160%">
      <feGaussianBlur stdDeviation="18" result="blur"/>
      <feColorMatrix in="blur" type="matrix" values="1 0 0 0 0  0 1 0 0 0  0 0 1 0 0  0 0 0 0.75 0"/>
      <feMerge>
        <feMergeNode/>
        <feMergeNode in="SourceGraphic"/>
      </feMerge>
    </filter>
    <filter id="grain">
      <feTurbulence type="fractalNoise" baseFrequency="0.82" numOctaves="3" seed="448"/>
      <feColorMatrix type="saturate" values="0"/>
      <feComponentTransfer>
        <feFuncA type="table" tableValues="0 0.075"/>
      </feComponentTransfer>
    </filter>
  </defs>
  <rect width="1600" height="900" fill="url(#bgGlow)"/>
  <g opacity="0.72"><circle cx="297" cy="206" r="1.5" fill="#86efac" opacity="0.56" />
<circle cx="278" cy="25" r="2.8" fill="#86efac" opacity="0.25" />
<circle cx="259" cy="568" r="1.3" fill="#86efac" opacity="0.44" />
<circle cx="240" cy="387" r="2.6" fill="#86efac" opacity="0.63" />
<circle cx="373" cy="30" r="1.9" fill="#86efac" opacity="0.30" />
<circle cx="354" cy="749" r="0.8" fill="#86efac" opacity="0.49" />
<circle cx="335" cy="392" r="1.7" fill="#86efac" opacity="0.18" />
<circle cx="316" cy="211" r="3.0" fill="#86efac" opacity="0.37" />
<circle cx="449" cy="558" r="3.1" fill="#86efac" opacity="0.54" />
<circle cx="430" cy="377" r="2.0" fill="#86efac" opacity="0.23" />
<circle cx="530" cy="307" r="2.0" fill="#86efac" opacity="0.53" />
<circle cx="549" cy="488" r="3.1" fill="#86efac" opacity="0.34" />
<circle cx="492" cy="845" r="1.8" fill="#86efac" opacity="0.65" />
<circle cx="511" cy="126" r="2.9" fill="#86efac" opacity="0.46" />
<circle cx="454" cy="131" r="2.4" fill="#86efac" opacity="0.27" />
<circle cx="473" cy="312" r="1.1" fill="#86efac" opacity="0.58" />
<circle cx="416" cy="669" r="2.2" fill="#86efac" opacity="0.39" />
<circle cx="435" cy="850" r="0.9" fill="#86efac" opacity="0.20" />
<circle cx="682" cy="659" r="2.8" fill="#86efac" opacity="0.55" />
<circle cx="701" cy="840" r="1.5" fill="#86efac" opacity="0.36" />
<circle cx="521" cy="856" r="2.3" fill="#86efac" opacity="0.62" />
<circle cx="502" cy="675" r="1.2" fill="#86efac" opacity="0.31" />
<circle cx="483" cy="494" r="2.1" fill="#86efac" opacity="0.24" />
<circle cx="464" cy="313" r="1.0" fill="#86efac" opacity="0.43" />
<circle cx="597" cy="680" r="2.7" fill="#86efac" opacity="0.38" />
<circle cx="578" cy="499" r="1.6" fill="#86efac" opacity="0.57" />
<circle cx="559" cy="318" r="2.5" fill="#86efac" opacity="0.50" />
<circle cx="540" cy="137" r="1.4" fill="#86efac" opacity="0.19" />
<circle cx="673" cy="504" r="1.5" fill="#86efac" opacity="0.60" />
<circle cx="654" cy="323" r="2.8" fill="#86efac" opacity="0.29" />
<circle cx="576" cy="397" r="3.0" fill="#86efac" opacity="0.21" />
<circle cx="595" cy="578" r="1.7" fill="#86efac" opacity="0.52" />
<circle cx="614" cy="759" r="0.8" fill="#86efac" opacity="0.59" />
<circle cx="633" cy="40" r="1.9" fill="#86efac" opacity="0.40" />
<circle cx="652" cy="221" r="2.6" fill="#86efac" opacity="0.45" />
<circle cx="671" cy="402" r="1.3" fill="#86efac" opacity="0.26" />
<circle cx="690" cy="583" r="2.8" fill="#86efac" opacity="0.33" />
<circle cx="709" cy="764" r="1.5" fill="#86efac" opacity="0.64" />
<circle cx="728" cy="45" r="2.2" fill="#86efac" opacity="0.19" />
<circle cx="747" cy="226" r="0.9" fill="#86efac" opacity="0.50" />
<circle cx="799" cy="334" r="1.7" fill="#86efac" opacity="0.48" />
<circle cx="780" cy="257" r="3.0" fill="#86efac" opacity="0.67" />
<circle cx="837" cy="696" r="1.9" fill="#86efac" opacity="0.36" />
<circle cx="818" cy="515" r="0.8" fill="#86efac" opacity="0.55" />
<circle cx="723" cy="158" r="1.3" fill="#86efac" opacity="0.24" />
<circle cx="704" cy="877" r="2.6" fill="#86efac" opacity="0.43" />
<circle cx="761" cy="520" r="1.5" fill="#86efac" opacity="0.62" />
<circle cx="742" cy="339" r="2.8" fill="#86efac" opacity="0.31" />
<circle cx="951" cy="790" r="0.9" fill="#86efac" opacity="0.46" />
<circle cx="932" cy="609" r="2.2" fill="#86efac" opacity="0.65" />
<circle cx="790" cy="647" r="2.4" fill="#86efac" opacity="0.43" />
<circle cx="809" cy="828" r="1.1" fill="#86efac" opacity="0.24" />
<circle cx="752" cy="285" r="2.2" fill="#86efac" opacity="0.55" />
<circle cx="771" cy="466" r="0.9" fill="#86efac" opacity="0.36" />
<circle cx="866" cy="823" r="2.0" fill="#86efac" opacity="0.19" />
<circle cx="885" cy="104" r="3.1" fill="#86efac" opacity="0.50" />
<circle cx="828" cy="461" r="1.8" fill="#86efac" opacity="0.31" />
<circle cx="847" cy="642" r="2.9" fill="#86efac" opacity="0.62" />
<circle cx="942" cy="191" r="1.6" fill="#86efac" opacity="0.41" />
<circle cx="961" cy="372" r="2.7" fill="#86efac" opacity="0.22" />
<circle cx="1389" cy="584" r="2.7" fill="#86efac" opacity="0.52" />
<circle cx="1370" cy="403" r="1.6" fill="#86efac" opacity="0.21" />
<circle cx="1351" cy="222" r="2.5" fill="#86efac" opacity="0.64" />
<circle cx="1332" cy="41" r="1.4" fill="#86efac" opacity="0.33" />
<circle cx="1313" cy="760" r="2.3" fill="#86efac" opacity="0.26" />
<circle cx="1294" cy="579" r="1.2" fill="#86efac" opacity="0.45" />
<circle cx="1275" cy="398" r="2.1" fill="#86efac" opacity="0.38" />
<circle cx="1256" cy="217" r="1.0" fill="#86efac" opacity="0.57" /></g>
  <circle cx="447" cy="276" r="230" fill="#fdba74" opacity="0.08"/>
  <circle cx="1165" cy="687" r="275" fill="#86efac" opacity="0.08"/>
  <g filter="url(#softGlow)">
    
      <path d="M660 225 C500 405 500 610 660 770" fill="none" stroke="#86efac" stroke-width="23" stroke-linecap="round" opacity="0.78"/>
      <path d="M660 225 C760 410 760 585 660 770" fill="none" stroke="#fdba74" stroke-width="7" opacity="0.74"/>
      <line x1="658" y1="225" x2="658" y2="770" stroke="#fff7ed" stroke-width="4" opacity="0.68"/>
      <line x1="700" y1="505" x2="1045" y2="505" stroke="#86efac" stroke-width="13" stroke-linecap="round" opacity="0.82"/>
      <path d="M1045 505 l-58 -32 l16 32 l-16 32 Z" fill="#86efac" opacity="0.86"/>
    
  </g>
  <g opacity="0.78">
    <rect x="88" y="82" width="1424" height="736" rx="46" fill="none" stroke="#ffffff" stroke-opacity="0.2" stroke-width="2"/>
    <path d="M150 150 C320 82 525 78 720 126" stroke="#fff7ed" stroke-opacity="0.44" stroke-width="7" stroke-linecap="round"/>
    <path d="M1332 710 C1215 775 1005 792 855 752" stroke="#fdba74" stroke-opacity="0.42" stroke-width="8" stroke-linecap="round"/>
  </g>
  <g transform="translate(126 714)">
    <rect width="420" height="86" rx="28" fill="#ffffff" opacity="0.12"/>
    <rect x="1" y="1" width="418" height="84" rx="27" fill="none" stroke="#ffffff" stroke-opacity="0.22"/>
    <text x="36" y="56" font-family="Georgia, 'Noto Serif Devanagari', serif" font-size="40" font-weight="700" fill="#fff7ed">धनुष</text>
    <circle cx="352" cy="43" r="15" fill="#fdba74" opacity="0.9"/>
  </g>
  <rect width="1600" height="900" filter="url(#grain)" opacity="0.34"/>
</svg>
