<svg xmlns="http://www.w3.org/2000/svg" width="1600" height="900" viewBox="0 0 1600 900" role="img" aria-label="सनातन धर्म का परिचय: उत्पत्ति, सिद्धांत और आधुनिक प्रासंगिकता">
  <defs>
    <radialGradient id="bgGlow" cx="50%" cy="43%" r="75%">
      <stop offset="0%" stop-color="#c4b5fd" stop-opacity="0.46"/>
      <stop offset="45%" stop-color="#3a2267" stop-opacity="0.92"/>
      <stop offset="100%" stop-color="#130b2a"/>
    </radialGradient>
    <linearGradient id="glassPanel" x1="0%" y1="0%" x2="100%" y2="100%">
      <stop offset="0%" stop-color="#ffffff" stop-opacity="0.58"/>
      <stop offset="42%" stop-color="#c4b5fd" stop-opacity="0.22"/>
      <stop offset="100%" stop-color="#ffffff" stop-opacity="0.08"/>
    </linearGradient>
    <radialGradient id="glassOrb" cx="34%" cy="24%" r="68%">
      <stop offset="0%" stop-color="#ffffff" stop-opacity="0.94"/>
      <stop offset="34%" stop-color="#c4b5fd" stop-opacity="0.62"/>
      <stop offset="100%" stop-color="#3a2267" stop-opacity="0.22"/>
    </radialGradient>
    <linearGradient id="glassMountain" x1="0%" y1="0%" x2="100%" y2="100%">
      <stop offset="0%" stop-color="#ffffff" stop-opacity="0.48"/>
      <stop offset="100%" stop-color="#c4b5fd" stop-opacity="0.22"/>
    </linearGradient>
    <filter id="softGlow" x="-30%" y="-30%" width="160%" height="160%">
      <feGaussianBlur stdDeviation="18" result="blur"/>
      <feColorMatrix in="blur" type="matrix" values="1 0 0 0 0  0 1 0 0 0  0 0 1 0 0  0 0 0 0.75 0"/>
      <feMerge>
        <feMergeNode/>
        <feMergeNode in="SourceGraphic"/>
      </feMerge>
    </filter>
    <filter id="grain">
      <feTurbulence type="fractalNoise" baseFrequency="0.82" numOctaves="3" seed="182"/>
      <feColorMatrix type="saturate" values="0"/>
      <feComponentTransfer>
        <feFuncA type="table" tableValues="0 0.075"/>
      </feComponentTransfer>
    </filter>
  </defs>
  <rect width="1600" height="900" fill="url(#bgGlow)"/>
  <g opacity="0.72"><circle cx="1415" cy="512" r="2.5" fill="#fcd34d" opacity="0.50" />
<circle cx="1396" cy="331" r="1.4" fill="#fcd34d" opacity="0.19" />
<circle cx="1453" cy="150" r="2.7" fill="#fcd34d" opacity="0.62" />
<circle cx="1434" cy="869" r="1.6" fill="#fcd34d" opacity="0.31" />
<circle cx="1339" cy="688" r="2.1" fill="#fcd34d" opacity="0.26" />
<circle cx="1320" cy="507" r="1.0" fill="#fcd34d" opacity="0.45" />
<circle cx="1377" cy="326" r="2.3" fill="#fcd34d" opacity="0.38" />
<circle cx="1358" cy="145" r="1.2" fill="#fcd34d" opacity="0.57" />
<circle cx="1263" cy="160" r="0.9" fill="#fcd34d" opacity="0.48" />
<circle cx="1244" cy="879" r="2.2" fill="#fcd34d" opacity="0.67" />
<circle cx="1420" cy="469" r="1.8" fill="#fcd34d" opacity="0.45" />
<circle cx="1439" cy="650" r="2.9" fill="#fcd34d" opacity="0.26" />
<circle cx="1458" cy="831" r="2.0" fill="#fcd34d" opacity="0.33" />
<circle cx="1477" cy="112" r="3.1" fill="#fcd34d" opacity="0.64" />
<circle cx="1344" cy="645" r="2.2" fill="#fcd34d" opacity="0.21" />
<circle cx="1363" cy="826" r="0.9" fill="#fcd34d" opacity="0.52" />
<circle cx="1382" cy="107" r="2.4" fill="#fcd34d" opacity="0.59" />
<circle cx="1401" cy="288" r="1.1" fill="#fcd34d" opacity="0.40" />
<circle cx="1572" cy="117" r="2.6" fill="#fcd34d" opacity="0.47" />
<circle cx="1591" cy="298" r="1.3" fill="#fcd34d" opacity="0.28" />
<circle cx="679" cy="678" r="2.5" fill="#fcd34d" opacity="0.44" />
<circle cx="660" cy="497" r="1.4" fill="#fcd34d" opacity="0.63" />
<circle cx="717" cy="140" r="2.7" fill="#fcd34d" opacity="0.32" />
<circle cx="698" cy="859" r="1.6" fill="#fcd34d" opacity="0.51" />
<circle cx="603" cy="502" r="2.1" fill="#fcd34d" opacity="0.20" />
<circle cx="584" cy="321" r="1.0" fill="#fcd34d" opacity="0.39" />
<circle cx="641" cy="864" r="2.3" fill="#fcd34d" opacity="0.58" />
<circle cx="622" cy="683" r="1.2" fill="#fcd34d" opacity="0.27" />
<circle cx="527" cy="326" r="0.9" fill="#fcd34d" opacity="0.42" />
<circle cx="508" cy="145" r="2.2" fill="#fcd34d" opacity="0.61" />
<circle cx="670" cy="715" r="0.8" fill="#fcd34d" opacity="0.53" />
<circle cx="689" cy="896" r="1.9" fill="#fcd34d" opacity="0.34" />
<circle cx="632" cy="353" r="3.0" fill="#fcd34d" opacity="0.65" />
<circle cx="651" cy="534" r="1.7" fill="#fcd34d" opacity="0.46" />
<circle cx="746" cy="891" r="2.8" fill="#fcd34d" opacity="0.29" />
<circle cx="765" cy="172" r="1.5" fill="#fcd34d" opacity="0.60" />
<circle cx="708" cy="529" r="2.6" fill="#fcd34d" opacity="0.41" />
<circle cx="727" cy="710" r="1.3" fill="#fcd34d" opacity="0.22" />
<circle cx="518" cy="167" r="1.6" fill="#fcd34d" opacity="0.51" />
<circle cx="537" cy="348" r="2.7" fill="#fcd34d" opacity="0.32" />
<circle cx="465" cy="24" r="3.1" fill="#fcd34d" opacity="0.22" />
<circle cx="446" cy="743" r="2.0" fill="#fcd34d" opacity="0.41" />
<circle cx="427" cy="562" r="2.9" fill="#fcd34d" opacity="0.34" />
<circle cx="408" cy="381" r="1.8" fill="#fcd34d" opacity="0.53" />
<circle cx="541" cy="748" r="1.1" fill="#fcd34d" opacity="0.48" />
<circle cx="522" cy="567" r="2.4" fill="#fcd34d" opacity="0.67" />
<circle cx="503" cy="386" r="0.9" fill="#fcd34d" opacity="0.60" />
<circle cx="484" cy="205" r="2.2" fill="#fcd34d" opacity="0.29" />
<circle cx="313" cy="376" r="1.5" fill="#fcd34d" opacity="0.20" />
<circle cx="294" cy="195" r="2.8" fill="#fcd34d" opacity="0.39" />
<circle cx="456" cy="233" r="2.2" fill="#fcd34d" opacity="0.67" />
<circle cx="475" cy="414" r="0.9" fill="#fcd34d" opacity="0.48" />
<circle cx="494" cy="595" r="2.4" fill="#fcd34d" opacity="0.55" />
<circle cx="513" cy="776" r="1.1" fill="#fcd34d" opacity="0.36" />
<circle cx="532" cy="57" r="1.8" fill="#fcd34d" opacity="0.41" />
<circle cx="551" cy="238" r="2.9" fill="#fcd34d" opacity="0.22" />
<circle cx="570" cy="419" r="2.0" fill="#fcd34d" opacity="0.29" />
<circle cx="589" cy="600" r="3.1" fill="#fcd34d" opacity="0.60" />
<circle cx="304" cy="585" r="3.0" fill="#fcd34d" opacity="0.65" />
<circle cx="323" cy="766" r="1.7" fill="#fcd34d" opacity="0.46" />
<circle cx="1411" cy="674" r="2.9" fill="#fcd34d" opacity="0.54" />
<circle cx="1392" cy="493" r="1.8" fill="#fcd34d" opacity="0.23" />
<circle cx="1449" cy="136" r="3.1" fill="#fcd34d" opacity="0.42" />
<circle cx="1430" cy="855" r="2.0" fill="#fcd34d" opacity="0.61" />
<circle cx="1487" cy="850" r="0.9" fill="#fcd34d" opacity="0.28" />
<circle cx="1468" cy="669" r="2.2" fill="#fcd34d" opacity="0.47" />
<circle cx="1525" cy="312" r="1.1" fill="#fcd34d" opacity="0.66" />
<circle cx="1506" cy="131" r="2.4" fill="#fcd34d" opacity="0.35" /></g>
  <circle cx="493" cy="286" r="230" fill="#c4b5fd" opacity="0.08"/>
  <circle cx="1095" cy="643" r="275" fill="#fcd34d" opacity="0.08"/>
  <g filter="url(#softGlow)">
    
    <ellipse cx="800" cy="285" rx="16" ry="90" fill="#c4b5fd" opacity="0.22" transform="rotate(0 800 460)" />
<ellipse cx="800" cy="285" rx="16" ry="90" fill="#c4b5fd" opacity="0.22" transform="rotate(11.25 800 460)" />
<ellipse cx="800" cy="285" rx="16" ry="90" fill="#c4b5fd" opacity="0.22" transform="rotate(22.5 800 460)" />
<ellipse cx="800" cy="285" rx="16" ry="90" fill="#c4b5fd" opacity="0.22" transform="rotate(33.75 800 460)" />
<ellipse cx="800" cy="285" rx="16" ry="90" fill="#c4b5fd" opacity="0.22" transform="rotate(45 800 460)" />
<ellipse cx="800" cy="285" rx="16" ry="90" fill="#c4b5fd" opacity="0.22" transform="rotate(56.25 800 460)" />
<ellipse cx="800" cy="285" rx="16" ry="90" fill="#c4b5fd" opacity="0.22" transform="rotate(67.5 800 460)" />
<ellipse cx="800" cy="285" rx="16" ry="90" fill="#c4b5fd" opacity="0.22" transform="rotate(78.75 800 460)" />
<ellipse cx="800" cy="285" rx="16" ry="90" fill="#c4b5fd" opacity="0.22" transform="rotate(90 800 460)" />
<ellipse cx="800" cy="285" rx="16" ry="90" fill="#c4b5fd" opacity="0.22" transform="rotate(101.25 800 460)" />
<ellipse cx="800" cy="285" rx="16" ry="90" fill="#c4b5fd" opacity="0.22" transform="rotate(112.5 800 460)" />
<ellipse cx="800" cy="285" rx="16" ry="90" fill="#c4b5fd" opacity="0.22" transform="rotate(123.75 800 460)" />
<ellipse cx="800" cy="285" rx="16" ry="90" fill="#c4b5fd" opacity="0.22" transform="rotate(135 800 460)" />
<ellipse cx="800" cy="285" rx="16" ry="90" fill="#c4b5fd" opacity="0.22" transform="rotate(146.25 800 460)" />
<ellipse cx="800" cy="285" rx="16" ry="90" fill="#c4b5fd" opacity="0.22" transform="rotate(157.5 800 460)" />
<ellipse cx="800" cy="285" rx="16" ry="90" fill="#c4b5fd" opacity="0.22" transform="rotate(168.75 800 460)" />
<ellipse cx="800" cy="285" rx="16" ry="90" fill="#c4b5fd" opacity="0.22" transform="rotate(180 800 460)" />
<ellipse cx="800" cy="285" rx="16" ry="90" fill="#c4b5fd" opacity="0.22" transform="rotate(191.25 800 460)" />
<ellipse cx="800" cy="285" rx="16" ry="90" fill="#c4b5fd" opacity="0.22" transform="rotate(202.5 800 460)" />
<ellipse cx="800" cy="285" rx="16" ry="90" fill="#c4b5fd" opacity="0.22" transform="rotate(213.75 800 460)" />
<ellipse cx="800" cy="285" rx="16" ry="90" fill="#c4b5fd" opacity="0.22" transform="rotate(225 800 460)" />
<ellipse cx="800" cy="285" rx="16" ry="90" fill="#c4b5fd" opacity="0.22" transform="rotate(236.25 800 460)" />
<ellipse cx="800" cy="285" rx="16" ry="90" fill="#c4b5fd" opacity="0.22" transform="rotate(247.5 800 460)" />
<ellipse cx="800" cy="285" rx="16" ry="90" fill="#c4b5fd" opacity="0.22" transform="rotate(258.75 800 460)" />
<ellipse cx="800" cy="285" rx="16" ry="90" fill="#c4b5fd" opacity="0.22" transform="rotate(270 800 460)" />
<ellipse cx="800" cy="285" rx="16" ry="90" fill="#c4b5fd" opacity="0.22" transform="rotate(281.25 800 460)" />
<ellipse cx="800" cy="285" rx="16" ry="90" fill="#c4b5fd" opacity="0.22" transform="rotate(292.5 800 460)" />
<ellipse cx="800" cy="285" rx="16" ry="90" fill="#c4b5fd" opacity="0.22" transform="rotate(303.75 800 460)" />
<ellipse cx="800" cy="285" rx="16" ry="90" fill="#c4b5fd" opacity="0.22" transform="rotate(315 800 460)" />
<ellipse cx="800" cy="285" rx="16" ry="90" fill="#c4b5fd" opacity="0.22" transform="rotate(326.25 800 460)" />
<ellipse cx="800" cy="285" rx="16" ry="90" fill="#c4b5fd" opacity="0.22" transform="rotate(337.5 800 460)" />
<ellipse cx="800" cy="285" rx="16" ry="90" fill="#c4b5fd" opacity="0.22" transform="rotate(348.75 800 460)" />
    <ellipse cx="800" cy="348" rx="20" ry="72" fill="#fcd34d" opacity="0.32" transform="rotate(0 800 460)" />
<ellipse cx="800" cy="348" rx="20" ry="72" fill="#fcd34d" opacity="0.32" transform="rotate(20 800 460)" />
<ellipse cx="800" cy="348" rx="20" ry="72" fill="#fcd34d" opacity="0.32" transform="rotate(40 800 460)" />
<ellipse cx="800" cy="348" rx="20" ry="72" fill="#fcd34d" opacity="0.32" transform="rotate(60 800 460)" />
<ellipse cx="800" cy="348" rx="20" ry="72" fill="#fcd34d" opacity="0.32" transform="rotate(80 800 460)" />
<ellipse cx="800" cy="348" rx="20" ry="72" fill="#fcd34d" opacity="0.32" transform="rotate(100 800 460)" />
<ellipse cx="800" cy="348" rx="20" ry="72" fill="#fcd34d" opacity="0.32" transform="rotate(120 800 460)" />
<ellipse cx="800" cy="348" rx="20" ry="72" fill="#fcd34d" opacity="0.32" transform="rotate(140 800 460)" />
<ellipse cx="800" cy="348" rx="20" ry="72" fill="#fcd34d" opacity="0.32" transform="rotate(160 800 460)" />
<ellipse cx="800" cy="348" rx="20" ry="72" fill="#fcd34d" opacity="0.32" transform="rotate(180 800 460)" />
<ellipse cx="800" cy="348" rx="20" ry="72" fill="#fcd34d" opacity="0.32" transform="rotate(200 800 460)" />
<ellipse cx="800" cy="348" rx="20" ry="72" fill="#fcd34d" opacity="0.32" transform="rotate(220 800 460)" />
<ellipse cx="800" cy="348" rx="20" ry="72" fill="#fcd34d" opacity="0.32" transform="rotate(240 800 460)" />
<ellipse cx="800" cy="348" rx="20" ry="72" fill="#fcd34d" opacity="0.32" transform="rotate(260 800 460)" />
<ellipse cx="800" cy="348" rx="20" ry="72" fill="#fcd34d" opacity="0.32" transform="rotate(280 800 460)" />
<ellipse cx="800" cy="348" rx="20" ry="72" fill="#fcd34d" opacity="0.32" transform="rotate(300 800 460)" />
<ellipse cx="800" cy="348" rx="20" ry="72" fill="#fcd34d" opacity="0.32" transform="rotate(320 800 460)" />
<ellipse cx="800" cy="348" rx="20" ry="72" fill="#fcd34d" opacity="0.32" transform="rotate(340 800 460)" />
    <circle cx="800" cy="460" r="140" fill="url(#glassOrb)" opacity="0.78"/>
    <text x="800" y="525" text-anchor="middle" font-family="Georgia, 'Noto Serif Devanagari', serif" font-size="210" font-weight="700" fill="#fff7ed" opacity="0.9">ॐ</text>
  
  </g>
  <g opacity="0.78">
    <rect x="88" y="82" width="1424" height="736" rx="46" fill="none" stroke="#ffffff" stroke-opacity="0.2" stroke-width="2"/>
    <path d="M150 150 C320 82 525 78 720 126" stroke="#fff7ed" stroke-opacity="0.44" stroke-width="7" stroke-linecap="round"/>
    <path d="M1332 710 C1215 775 1005 792 855 752" stroke="#c4b5fd" stroke-opacity="0.42" stroke-width="8" stroke-linecap="round"/>
  </g>
  <g transform="translate(126 714)">
    <rect width="420" height="86" rx="28" fill="#ffffff" opacity="0.12"/>
    <rect x="1" y="1" width="418" height="84" rx="27" fill="none" stroke="#ffffff" stroke-opacity="0.22"/>
    <text x="36" y="56" font-family="Georgia, 'Noto Serif Devanagari', serif" font-size="40" font-weight="700" fill="#fff7ed">ॐ</text>
    <circle cx="352" cy="43" r="15" fill="#c4b5fd" opacity="0.9"/>
  </g>
  <rect width="1600" height="900" filter="url(#grain)" opacity="0.34"/>
</svg>
