<svg xmlns="http://www.w3.org/2000/svg" width="1600" height="900" viewBox="0 0 1600 900" role="img" aria-label="सप्त पुरियाँ: मोक्ष प्रदान करने वाली भारत की सात सबसे पवित्र नगरियाँ">
  <defs>
    <radialGradient id="bgGlow" cx="50%" cy="43%" r="75%">
      <stop offset="0%" stop-color="#fb923c" stop-opacity="0.46"/>
      <stop offset="45%" stop-color="#67330f" stop-opacity="0.92"/>
      <stop offset="100%" stop-color="#210b05"/>
    </radialGradient>
    <linearGradient id="glassPanel" x1="0%" y1="0%" x2="100%" y2="100%">
      <stop offset="0%" stop-color="#ffffff" stop-opacity="0.58"/>
      <stop offset="42%" stop-color="#fb923c" stop-opacity="0.22"/>
      <stop offset="100%" stop-color="#ffffff" stop-opacity="0.08"/>
    </linearGradient>
    <radialGradient id="glassOrb" cx="34%" cy="24%" r="68%">
      <stop offset="0%" stop-color="#ffffff" stop-opacity="0.94"/>
      <stop offset="34%" stop-color="#fb923c" stop-opacity="0.62"/>
      <stop offset="100%" stop-color="#67330f" stop-opacity="0.22"/>
    </radialGradient>
    <linearGradient id="glassMountain" x1="0%" y1="0%" x2="100%" y2="100%">
      <stop offset="0%" stop-color="#ffffff" stop-opacity="0.48"/>
      <stop offset="100%" stop-color="#fb923c" stop-opacity="0.22"/>
    </linearGradient>
    <filter id="softGlow" x="-30%" y="-30%" width="160%" height="160%">
      <feGaussianBlur stdDeviation="18" result="blur"/>
      <feColorMatrix in="blur" type="matrix" values="1 0 0 0 0  0 1 0 0 0  0 0 1 0 0  0 0 0 0.75 0"/>
      <feMerge>
        <feMergeNode/>
        <feMergeNode in="SourceGraphic"/>
      </feMerge>
    </filter>
    <filter id="grain">
      <feTurbulence type="fractalNoise" baseFrequency="0.82" numOctaves="3" seed="656"/>
      <feColorMatrix type="saturate" values="0"/>
      <feComponentTransfer>
        <feFuncA type="table" tableValues="0 0.075"/>
      </feComponentTransfer>
    </filter>
  </defs>
  <rect width="1600" height="900" fill="url(#bgGlow)"/>
  <g opacity="0.72"><circle cx="1154" cy="293" r="0.8" fill="#fef3c7" opacity="0.39" />
<circle cx="1173" cy="474" r="1.9" fill="#fef3c7" opacity="0.20" />
<circle cx="1116" cy="655" r="3.0" fill="#fef3c7" opacity="0.27" />
<circle cx="1135" cy="836" r="1.7" fill="#fef3c7" opacity="0.58" />
<circle cx="1078" cy="469" r="2.8" fill="#fef3c7" opacity="0.65" />
<circle cx="1097" cy="650" r="1.5" fill="#fef3c7" opacity="0.46" />
<circle cx="1040" cy="831" r="2.6" fill="#fef3c7" opacity="0.53" />
<circle cx="1059" cy="112" r="1.3" fill="#fef3c7" opacity="0.34" />
<circle cx="1306" cy="645" r="2.4" fill="#fef3c7" opacity="0.41" />
<circle cx="1325" cy="826" r="1.1" fill="#fef3c7" opacity="0.22" />
<circle cx="639" cy="614" r="0.9" fill="#fef3c7" opacity="0.46" />
<circle cx="620" cy="433" r="2.2" fill="#fef3c7" opacity="0.65" />
<circle cx="677" cy="76" r="1.1" fill="#fef3c7" opacity="0.34" />
<circle cx="658" cy="795" r="2.4" fill="#fef3c7" opacity="0.53" />
<circle cx="563" cy="438" r="2.9" fill="#fef3c7" opacity="0.22" />
<circle cx="544" cy="257" r="1.8" fill="#fef3c7" opacity="0.41" />
<circle cx="601" cy="800" r="3.1" fill="#fef3c7" opacity="0.60" />
<circle cx="582" cy="619" r="2.0" fill="#fef3c7" opacity="0.29" />
<circle cx="791" cy="66" r="2.5" fill="#fef3c7" opacity="0.48" />
<circle cx="772" cy="785" r="1.4" fill="#fef3c7" opacity="0.67" />
<circle cx="388" cy="405" r="2.6" fill="#fef3c7" opacity="0.55" />
<circle cx="407" cy="586" r="1.3" fill="#fef3c7" opacity="0.36" />
<circle cx="426" cy="767" r="2.8" fill="#fef3c7" opacity="0.43" />
<circle cx="445" cy="48" r="1.5" fill="#fef3c7" opacity="0.24" />
<circle cx="312" cy="581" r="3.0" fill="#fef3c7" opacity="0.31" />
<circle cx="331" cy="762" r="1.7" fill="#fef3c7" opacity="0.62" />
<circle cx="350" cy="43" r="0.8" fill="#fef3c7" opacity="0.19" />
<circle cx="369" cy="224" r="1.9" fill="#fef3c7" opacity="0.50" />
<circle cx="236" cy="757" r="1.8" fill="#fef3c7" opacity="0.53" />
<circle cx="255" cy="38" r="2.9" fill="#fef3c7" opacity="0.34" />
<circle cx="397" cy="196" r="1.9" fill="#fef3c7" opacity="0.46" />
<circle cx="378" cy="15" r="0.8" fill="#fef3c7" opacity="0.65" />
<circle cx="359" cy="734" r="1.7" fill="#fef3c7" opacity="0.58" />
<circle cx="340" cy="553" r="3.0" fill="#fef3c7" opacity="0.27" />
<circle cx="321" cy="372" r="1.5" fill="#fef3c7" opacity="0.20" />
<circle cx="302" cy="191" r="2.8" fill="#fef3c7" opacity="0.39" />
<circle cx="283" cy="10" r="1.3" fill="#fef3c7" opacity="0.32" />
<circle cx="264" cy="729" r="2.6" fill="#fef3c7" opacity="0.51" />
<circle cx="245" cy="548" r="2.7" fill="#fef3c7" opacity="0.48" />
<circle cx="226" cy="367" r="1.6" fill="#fef3c7" opacity="0.67" />
<circle cx="434" cy="819" r="1.2" fill="#fef3c7" opacity="0.23" />
<circle cx="453" cy="100" r="2.3" fill="#fef3c7" opacity="0.54" />
<circle cx="396" cy="457" r="1.0" fill="#fef3c7" opacity="0.35" />
<circle cx="415" cy="638" r="2.1" fill="#fef3c7" opacity="0.66" />
<circle cx="358" cy="643" r="1.6" fill="#fef3c7" opacity="0.47" />
<circle cx="377" cy="824" r="2.7" fill="#fef3c7" opacity="0.28" />
<circle cx="320" cy="281" r="1.4" fill="#fef3c7" opacity="0.59" />
<circle cx="339" cy="462" r="2.5" fill="#fef3c7" opacity="0.40" />
<circle cx="586" cy="271" r="2.0" fill="#fef3c7" opacity="0.21" />
<circle cx="605" cy="452" r="3.1" fill="#fef3c7" opacity="0.52" />
<circle cx="379" cy="610" r="2.9" fill="#fef3c7" opacity="0.64" />
<circle cx="360" cy="429" r="1.8" fill="#fef3c7" opacity="0.33" />
<circle cx="417" cy="72" r="3.1" fill="#fef3c7" opacity="0.52" />
<circle cx="398" cy="791" r="2.0" fill="#fef3c7" opacity="0.21" />
<circle cx="455" cy="786" r="0.9" fill="#fef3c7" opacity="0.38" />
<circle cx="436" cy="605" r="2.2" fill="#fef3c7" opacity="0.57" />
<circle cx="493" cy="248" r="1.1" fill="#fef3c7" opacity="0.26" />
<circle cx="474" cy="67" r="1.6" fill="#fef3c7" opacity="0.45" />
<circle cx="227" cy="62" r="2.9" fill="#fef3c7" opacity="0.62" />
<circle cx="208" cy="781" r="1.8" fill="#fef3c7" opacity="0.31" />
<circle cx="416" cy="677" r="2.2" fill="#fef3c7" opacity="0.19" />
<circle cx="435" cy="858" r="0.9" fill="#fef3c7" opacity="0.50" />
<circle cx="454" cy="139" r="2.4" fill="#fef3c7" opacity="0.57" />
<circle cx="473" cy="320" r="1.1" fill="#fef3c7" opacity="0.38" />
<circle cx="492" cy="501" r="1.8" fill="#fef3c7" opacity="0.43" />
<circle cx="511" cy="682" r="2.9" fill="#fef3c7" opacity="0.24" />
<circle cx="530" cy="863" r="2.0" fill="#fef3c7" opacity="0.31" />
<circle cx="549" cy="144" r="3.1" fill="#fef3c7" opacity="0.62" /></g>
  <circle cx="428" cy="279" r="230" fill="#fb923c" opacity="0.08"/>
  <circle cx="1090" cy="686" r="275" fill="#fef3c7" opacity="0.08"/>
  <g filter="url(#softGlow)">
    
      <path d="M450 705 h700 v-48 H450 Z" fill="url(#glassPanel)" opacity="0.72"/>
      <path d="M535 657 v-250 h530 v250 Z" fill="url(#glassPanel)" opacity="0.48"/>
      <path d="M495 407 h610 L800 210 Z" fill="#fef3c7" opacity="0.6"/>
      <path d="M645 657 V500 a155 155 0 0 1 310 0 v157 Z" fill="#210b05" opacity="0.74"/>
      <path d="M800 210 v-88" stroke="#fb923c" stroke-width="9" opacity="0.88"/>
      <path d="M800 126 c48 -26 72 6 115 -15 c-34 60 -78 38 -115 64 Z" fill="#fb923c" opacity="0.82"/>
    
  </g>
  <g opacity="0.78">
    <rect x="88" y="82" width="1424" height="736" rx="46" fill="none" stroke="#ffffff" stroke-opacity="0.2" stroke-width="2"/>
    <path d="M150 150 C320 82 525 78 720 126" stroke="#fff7ed" stroke-opacity="0.44" stroke-width="7" stroke-linecap="round"/>
    <path d="M1332 710 C1215 775 1005 792 855 752" stroke="#fb923c" stroke-opacity="0.42" stroke-width="8" stroke-linecap="round"/>
  </g>
  <g transform="translate(126 714)">
    <rect width="420" height="86" rx="28" fill="#ffffff" opacity="0.12"/>
    <rect x="1" y="1" width="418" height="84" rx="27" fill="none" stroke="#ffffff" stroke-opacity="0.22"/>
    <text x="36" y="56" font-family="Georgia, 'Noto Serif Devanagari', serif" font-size="40" font-weight="700" fill="#fff7ed">मंदिर</text>
    <circle cx="352" cy="43" r="15" fill="#fb923c" opacity="0.9"/>
  </g>
  <rect width="1600" height="900" filter="url(#grain)" opacity="0.34"/>
</svg>
