<svg xmlns="http://www.w3.org/2000/svg" width="1600" height="900" viewBox="0 0 1600 900" role="img" aria-label="मां सरस्वती और विद्या का महत्व: स्वरूप का आध्यात्मिक रहस्य, मंत्र और बुद्धि विकास के वैज्ञानिक उपाय">
  <defs>
    <radialGradient id="bgGlow" cx="50%" cy="43%" r="75%">
      <stop offset="0%" stop-color="#f9a8d4" stop-opacity="0.46"/>
      <stop offset="45%" stop-color="#5a1237" stop-opacity="0.92"/>
      <stop offset="100%" stop-color="#2b0718"/>
    </radialGradient>
    <linearGradient id="glassPanel" x1="0%" y1="0%" x2="100%" y2="100%">
      <stop offset="0%" stop-color="#ffffff" stop-opacity="0.58"/>
      <stop offset="42%" stop-color="#f9a8d4" stop-opacity="0.22"/>
      <stop offset="100%" stop-color="#ffffff" stop-opacity="0.08"/>
    </linearGradient>
    <radialGradient id="glassOrb" cx="34%" cy="24%" r="68%">
      <stop offset="0%" stop-color="#ffffff" stop-opacity="0.94"/>
      <stop offset="34%" stop-color="#f9a8d4" stop-opacity="0.62"/>
      <stop offset="100%" stop-color="#5a1237" stop-opacity="0.22"/>
    </radialGradient>
    <linearGradient id="glassMountain" x1="0%" y1="0%" x2="100%" y2="100%">
      <stop offset="0%" stop-color="#ffffff" stop-opacity="0.48"/>
      <stop offset="100%" stop-color="#f9a8d4" stop-opacity="0.22"/>
    </linearGradient>
    <filter id="softGlow" x="-30%" y="-30%" width="160%" height="160%">
      <feGaussianBlur stdDeviation="18" result="blur"/>
      <feColorMatrix in="blur" type="matrix" values="1 0 0 0 0  0 1 0 0 0  0 0 1 0 0  0 0 0 0.75 0"/>
      <feMerge>
        <feMergeNode/>
        <feMergeNode in="SourceGraphic"/>
      </feMerge>
    </filter>
    <filter id="grain">
      <feTurbulence type="fractalNoise" baseFrequency="0.82" numOctaves="3" seed="752"/>
      <feColorMatrix type="saturate" values="0"/>
      <feComponentTransfer>
        <feFuncA type="table" tableValues="0 0.075"/>
      </feComponentTransfer>
    </filter>
  </defs>
  <rect width="1600" height="900" fill="url(#bgGlow)"/>
  <g opacity="0.72"><circle cx="15" cy="520" r="2.5" fill="#fbbf24" opacity="0.54" />
<circle cx="1596" cy="339" r="1.4" fill="#fbbf24" opacity="0.23" />
<circle cx="53" cy="158" r="2.7" fill="#fbbf24" opacity="0.66" />
<circle cx="34" cy="877" r="1.6" fill="#fbbf24" opacity="0.35" />
<circle cx="1539" cy="696" r="2.1" fill="#fbbf24" opacity="0.30" />
<circle cx="1520" cy="515" r="1.0" fill="#fbbf24" opacity="0.49" />
<circle cx="1577" cy="334" r="2.3" fill="#fbbf24" opacity="0.42" />
<circle cx="1558" cy="153" r="1.2" fill="#fbbf24" opacity="0.61" />
<circle cx="167" cy="872" r="1.7" fill="#fbbf24" opacity="0.56" />
<circle cx="148" cy="691" r="3.0" fill="#fbbf24" opacity="0.25" />
<circle cx="804" cy="289" r="1.0" fill="#fbbf24" opacity="0.27" />
<circle cx="823" cy="470" r="2.1" fill="#fbbf24" opacity="0.58" />
<circle cx="842" cy="651" r="1.2" fill="#fbbf24" opacity="0.65" />
<circle cx="861" cy="832" r="2.3" fill="#fbbf24" opacity="0.46" />
<circle cx="728" cy="465" r="1.4" fill="#fbbf24" opacity="0.53" />
<circle cx="747" cy="646" r="2.5" fill="#fbbf24" opacity="0.34" />
<circle cx="766" cy="827" r="1.6" fill="#fbbf24" opacity="0.41" />
<circle cx="785" cy="108" r="2.7" fill="#fbbf24" opacity="0.22" />
<circle cx="652" cy="641" r="2.6" fill="#fbbf24" opacity="0.25" />
<circle cx="671" cy="822" r="1.3" fill="#fbbf24" opacity="0.56" />
<circle cx="1055" cy="834" r="1.7" fill="#fbbf24" opacity="0.64" />
<circle cx="1036" cy="653" r="3.0" fill="#fbbf24" opacity="0.33" />
<circle cx="1093" cy="296" r="1.9" fill="#fbbf24" opacity="0.52" />
<circle cx="1074" cy="115" r="0.8" fill="#fbbf24" opacity="0.21" />
<circle cx="979" cy="658" r="1.3" fill="#fbbf24" opacity="0.40" />
<circle cx="960" cy="477" r="2.6" fill="#fbbf24" opacity="0.59" />
<circle cx="1017" cy="120" r="1.5" fill="#fbbf24" opacity="0.28" />
<circle cx="998" cy="839" r="2.8" fill="#fbbf24" opacity="0.47" />
<circle cx="1207" cy="286" r="0.9" fill="#fbbf24" opacity="0.66" />
<circle cx="1188" cy="105" r="2.2" fill="#fbbf24" opacity="0.35" />
<circle cx="1046" cy="143" r="2.4" fill="#fbbf24" opacity="0.23" />
<circle cx="1065" cy="324" r="1.1" fill="#fbbf24" opacity="0.54" />
<circle cx="1008" cy="681" r="2.2" fill="#fbbf24" opacity="0.35" />
<circle cx="1027" cy="862" r="0.9" fill="#fbbf24" opacity="0.66" />
<circle cx="1122" cy="319" r="2.0" fill="#fbbf24" opacity="0.49" />
<circle cx="1141" cy="500" r="3.1" fill="#fbbf24" opacity="0.30" />
<circle cx="1084" cy="857" r="1.8" fill="#fbbf24" opacity="0.61" />
<circle cx="1103" cy="138" r="2.9" fill="#fbbf24" opacity="0.42" />
<circle cx="1198" cy="691" r="1.6" fill="#fbbf24" opacity="0.25" />
<circle cx="1217" cy="872" r="2.7" fill="#fbbf24" opacity="0.56" />
<circle cx="73" cy="352" r="2.3" fill="#fbbf24" opacity="0.28" />
<circle cx="54" cy="171" r="1.2" fill="#fbbf24" opacity="0.47" />
<circle cx="35" cy="890" r="2.1" fill="#fbbf24" opacity="0.40" />
<circle cx="16" cy="709" r="1.0" fill="#fbbf24" opacity="0.59" />
<circle cx="149" cy="176" r="2.7" fill="#fbbf24" opacity="0.54" />
<circle cx="130" cy="895" r="1.6" fill="#fbbf24" opacity="0.23" />
<circle cx="111" cy="714" r="2.5" fill="#fbbf24" opacity="0.66" />
<circle cx="92" cy="533" r="1.4" fill="#fbbf24" opacity="0.35" />
<circle cx="929" cy="0" r="1.5" fill="#fbbf24" opacity="0.30" />
<circle cx="910" cy="719" r="2.8" fill="#fbbf24" opacity="0.49" />
<circle cx="832" cy="561" r="3.0" fill="#fbbf24" opacity="0.37" />
<circle cx="851" cy="742" r="1.7" fill="#fbbf24" opacity="0.18" />
<circle cx="870" cy="23" r="0.8" fill="#fbbf24" opacity="0.25" />
<circle cx="889" cy="204" r="1.9" fill="#fbbf24" opacity="0.56" />
<circle cx="908" cy="385" r="2.6" fill="#fbbf24" opacity="0.61" />
<circle cx="927" cy="566" r="1.3" fill="#fbbf24" opacity="0.42" />
<circle cx="946" cy="747" r="2.8" fill="#fbbf24" opacity="0.49" />
<circle cx="965" cy="28" r="1.5" fill="#fbbf24" opacity="0.30" />
<circle cx="984" cy="209" r="2.2" fill="#fbbf24" opacity="0.39" />
<circle cx="1003" cy="390" r="0.9" fill="#fbbf24" opacity="0.20" />
<circle cx="795" cy="494" r="2.9" fill="#fbbf24" opacity="0.36" />
<circle cx="776" cy="313" r="1.8" fill="#fbbf24" opacity="0.55" />
<circle cx="833" cy="856" r="3.1" fill="#fbbf24" opacity="0.24" />
<circle cx="814" cy="675" r="2.0" fill="#fbbf24" opacity="0.43" />
<circle cx="871" cy="670" r="0.9" fill="#fbbf24" opacity="0.60" />
<circle cx="852" cy="489" r="2.2" fill="#fbbf24" opacity="0.29" />
<circle cx="909" cy="132" r="1.1" fill="#fbbf24" opacity="0.48" />
<circle cx="890" cy="851" r="2.4" fill="#fbbf24" opacity="0.67" /></g>
  <circle cx="477" cy="310" r="230" fill="#f9a8d4" opacity="0.08"/>
  <circle cx="1159" cy="707" r="275" fill="#fbbf24" opacity="0.08"/>
  <g filter="url(#softGlow)">
    
      <ellipse cx="800" cy="404" rx="34" ry="110" fill="#f9a8d4" opacity="0.42" transform="rotate(0 800 500)" />
<ellipse cx="800" cy="404" rx="34" ry="110" fill="#f9a8d4" opacity="0.42" transform="rotate(20 800 500)" />
<ellipse cx="800" cy="404" rx="34" ry="110" fill="#f9a8d4" opacity="0.42" transform="rotate(40 800 500)" />
<ellipse cx="800" cy="404" rx="34" ry="110" fill="#f9a8d4" opacity="0.42" transform="rotate(60 800 500)" />
<ellipse cx="800" cy="404" rx="34" ry="110" fill="#f9a8d4" opacity="0.42" transform="rotate(80 800 500)" />
<ellipse cx="800" cy="404" rx="34" ry="110" fill="#f9a8d4" opacity="0.42" transform="rotate(100 800 500)" />
<ellipse cx="800" cy="404" rx="34" ry="110" fill="#f9a8d4" opacity="0.42" transform="rotate(120 800 500)" />
<ellipse cx="800" cy="404" rx="34" ry="110" fill="#f9a8d4" opacity="0.42" transform="rotate(140 800 500)" />
<ellipse cx="800" cy="404" rx="34" ry="110" fill="#f9a8d4" opacity="0.42" transform="rotate(160 800 500)" />
<ellipse cx="800" cy="404" rx="34" ry="110" fill="#f9a8d4" opacity="0.42" transform="rotate(180 800 500)" />
<ellipse cx="800" cy="404" rx="34" ry="110" fill="#f9a8d4" opacity="0.42" transform="rotate(200 800 500)" />
<ellipse cx="800" cy="404" rx="34" ry="110" fill="#f9a8d4" opacity="0.42" transform="rotate(220 800 500)" />
<ellipse cx="800" cy="404" rx="34" ry="110" fill="#f9a8d4" opacity="0.42" transform="rotate(240 800 500)" />
<ellipse cx="800" cy="404" rx="34" ry="110" fill="#f9a8d4" opacity="0.42" transform="rotate(260 800 500)" />
<ellipse cx="800" cy="404" rx="34" ry="110" fill="#f9a8d4" opacity="0.42" transform="rotate(280 800 500)" />
<ellipse cx="800" cy="404" rx="34" ry="110" fill="#f9a8d4" opacity="0.42" transform="rotate(300 800 500)" />
<ellipse cx="800" cy="404" rx="34" ry="110" fill="#f9a8d4" opacity="0.42" transform="rotate(320 800 500)" />
<ellipse cx="800" cy="404" rx="34" ry="110" fill="#f9a8d4" opacity="0.42" transform="rotate(340 800 500)" />
      <ellipse cx="800" cy="438" rx="26" ry="82" fill="#fbbf24" opacity="0.5" transform="rotate(0 800 500)" />
<ellipse cx="800" cy="438" rx="26" ry="82" fill="#fbbf24" opacity="0.5" transform="rotate(30 800 500)" />
<ellipse cx="800" cy="438" rx="26" ry="82" fill="#fbbf24" opacity="0.5" transform="rotate(60 800 500)" />
<ellipse cx="800" cy="438" rx="26" ry="82" fill="#fbbf24" opacity="0.5" transform="rotate(90 800 500)" />
<ellipse cx="800" cy="438" rx="26" ry="82" fill="#fbbf24" opacity="0.5" transform="rotate(120 800 500)" />
<ellipse cx="800" cy="438" rx="26" ry="82" fill="#fbbf24" opacity="0.5" transform="rotate(150 800 500)" />
<ellipse cx="800" cy="438" rx="26" ry="82" fill="#fbbf24" opacity="0.5" transform="rotate(180 800 500)" />
<ellipse cx="800" cy="438" rx="26" ry="82" fill="#fbbf24" opacity="0.5" transform="rotate(210 800 500)" />
<ellipse cx="800" cy="438" rx="26" ry="82" fill="#fbbf24" opacity="0.5" transform="rotate(240 800 500)" />
<ellipse cx="800" cy="438" rx="26" ry="82" fill="#fbbf24" opacity="0.5" transform="rotate(270 800 500)" />
<ellipse cx="800" cy="438" rx="26" ry="82" fill="#fbbf24" opacity="0.5" transform="rotate(300 800 500)" />
<ellipse cx="800" cy="438" rx="26" ry="82" fill="#fbbf24" opacity="0.5" transform="rotate(330 800 500)" />
      <circle cx="800" cy="500" r="74" fill="url(#glassOrb)" opacity="0.92"/>
      <path d="M585 690 C680 590 920 590 1015 690 C890 735 710 735 585 690 Z" fill="#f9a8d4" opacity="0.32"/>
    
  </g>
  <g opacity="0.78">
    <rect x="88" y="82" width="1424" height="736" rx="46" fill="none" stroke="#ffffff" stroke-opacity="0.2" stroke-width="2"/>
    <path d="M150 150 C320 82 525 78 720 126" stroke="#fff7ed" stroke-opacity="0.44" stroke-width="7" stroke-linecap="round"/>
    <path d="M1332 710 C1215 775 1005 792 855 752" stroke="#f9a8d4" stroke-opacity="0.42" stroke-width="8" stroke-linecap="round"/>
  </g>
  <g transform="translate(126 714)">
    <rect width="420" height="86" rx="28" fill="#ffffff" opacity="0.12"/>
    <rect x="1" y="1" width="418" height="84" rx="27" fill="none" stroke="#ffffff" stroke-opacity="0.22"/>
    <text x="36" y="56" font-family="Georgia, 'Noto Serif Devanagari', serif" font-size="40" font-weight="700" fill="#fff7ed">कमल</text>
    <circle cx="352" cy="43" r="15" fill="#f9a8d4" opacity="0.9"/>
  </g>
  <rect width="1600" height="900" filter="url(#grain)" opacity="0.34"/>
</svg>
