<svg xmlns="http://www.w3.org/2000/svg" width="1600" height="900" viewBox="0 0 1600 900" role="img" aria-label="सत्संग का महत्व: जीवन बदलने वाली अच्छी संगति की शक्ति, विचारों का शुद्धिकरण और रामचरितमानस में सत्संग की महिमा">
  <defs>
    <radialGradient id="bgGlow" cx="50%" cy="43%" r="75%">
      <stop offset="0%" stop-color="#f9a8d4" stop-opacity="0.46"/>
      <stop offset="45%" stop-color="#5a1237" stop-opacity="0.92"/>
      <stop offset="100%" stop-color="#2b0718"/>
    </radialGradient>
    <linearGradient id="glassPanel" x1="0%" y1="0%" x2="100%" y2="100%">
      <stop offset="0%" stop-color="#ffffff" stop-opacity="0.58"/>
      <stop offset="42%" stop-color="#f9a8d4" stop-opacity="0.22"/>
      <stop offset="100%" stop-color="#ffffff" stop-opacity="0.08"/>
    </linearGradient>
    <radialGradient id="glassOrb" cx="34%" cy="24%" r="68%">
      <stop offset="0%" stop-color="#ffffff" stop-opacity="0.94"/>
      <stop offset="34%" stop-color="#f9a8d4" stop-opacity="0.62"/>
      <stop offset="100%" stop-color="#5a1237" stop-opacity="0.22"/>
    </radialGradient>
    <linearGradient id="glassMountain" x1="0%" y1="0%" x2="100%" y2="100%">
      <stop offset="0%" stop-color="#ffffff" stop-opacity="0.48"/>
      <stop offset="100%" stop-color="#f9a8d4" stop-opacity="0.22"/>
    </linearGradient>
    <filter id="softGlow" x="-30%" y="-30%" width="160%" height="160%">
      <feGaussianBlur stdDeviation="18" result="blur"/>
      <feColorMatrix in="blur" type="matrix" values="1 0 0 0 0  0 1 0 0 0  0 0 1 0 0  0 0 0 0.75 0"/>
      <feMerge>
        <feMergeNode/>
        <feMergeNode in="SourceGraphic"/>
      </feMerge>
    </filter>
    <filter id="grain">
      <feTurbulence type="fractalNoise" baseFrequency="0.82" numOctaves="3" seed="139"/>
      <feColorMatrix type="saturate" values="0"/>
      <feComponentTransfer>
        <feFuncA type="table" tableValues="0 0.075"/>
      </feComponentTransfer>
    </filter>
  </defs>
  <rect width="1600" height="900" fill="url(#bgGlow)"/>
  <g opacity="0.72"><circle cx="982" cy="853" r="1.2" fill="#fbbf24" opacity="0.61" />
<circle cx="1001" cy="134" r="2.3" fill="#fbbf24" opacity="0.42" />
<circle cx="944" cy="315" r="1.0" fill="#fbbf24" opacity="0.49" />
<circle cx="963" cy="496" r="2.1" fill="#fbbf24" opacity="0.30" />
<circle cx="1058" cy="677" r="1.6" fill="#fbbf24" opacity="0.35" />
<circle cx="1077" cy="858" r="2.7" fill="#fbbf24" opacity="0.66" />
<circle cx="1020" cy="139" r="1.4" fill="#fbbf24" opacity="0.23" />
<circle cx="1039" cy="320" r="2.5" fill="#fbbf24" opacity="0.54" />
<circle cx="1134" cy="501" r="2.0" fill="#fbbf24" opacity="0.63" />
<circle cx="1153" cy="682" r="3.1" fill="#fbbf24" opacity="0.44" />
<circle cx="1307" cy="470" r="1.3" fill="#fbbf24" opacity="0.58" />
<circle cx="1288" cy="289" r="2.6" fill="#fbbf24" opacity="0.27" />
<circle cx="1345" cy="832" r="1.5" fill="#fbbf24" opacity="0.46" />
<circle cx="1326" cy="651" r="2.8" fill="#fbbf24" opacity="0.65" />
<circle cx="1383" cy="646" r="1.7" fill="#fbbf24" opacity="0.32" />
<circle cx="1364" cy="465" r="3.0" fill="#fbbf24" opacity="0.51" />
<circle cx="1421" cy="108" r="1.9" fill="#fbbf24" opacity="0.20" />
<circle cx="1402" cy="827" r="0.8" fill="#fbbf24" opacity="0.39" />
<circle cx="1155" cy="118" r="2.9" fill="#fbbf24" opacity="0.56" />
<circle cx="1136" cy="837" r="1.8" fill="#fbbf24" opacity="0.25" />
<circle cx="448" cy="261" r="3.0" fill="#fbbf24" opacity="0.59" />
<circle cx="467" cy="442" r="1.7" fill="#fbbf24" opacity="0.40" />
<circle cx="486" cy="623" r="0.8" fill="#fbbf24" opacity="0.47" />
<circle cx="505" cy="804" r="1.9" fill="#fbbf24" opacity="0.28" />
<circle cx="524" cy="85" r="2.6" fill="#fbbf24" opacity="0.33" />
<circle cx="543" cy="266" r="1.3" fill="#fbbf24" opacity="0.64" />
<circle cx="562" cy="447" r="2.8" fill="#fbbf24" opacity="0.21" />
<circle cx="581" cy="628" r="1.5" fill="#fbbf24" opacity="0.52" />
<circle cx="600" cy="613" r="1.4" fill="#fbbf24" opacity="0.61" />
<circle cx="619" cy="794" r="2.5" fill="#fbbf24" opacity="0.42" />
<circle cx="1289" cy="52" r="2.3" fill="#fbbf24" opacity="0.50" />
<circle cx="1270" cy="771" r="1.2" fill="#fbbf24" opacity="0.19" />
<circle cx="1251" cy="590" r="2.1" fill="#fbbf24" opacity="0.62" />
<circle cx="1232" cy="409" r="1.0" fill="#fbbf24" opacity="0.31" />
<circle cx="1365" cy="776" r="2.7" fill="#fbbf24" opacity="0.26" />
<circle cx="1346" cy="595" r="1.6" fill="#fbbf24" opacity="0.45" />
<circle cx="1327" cy="414" r="2.5" fill="#fbbf24" opacity="0.38" />
<circle cx="1308" cy="233" r="1.4" fill="#fbbf24" opacity="0.57" />
<circle cx="1441" cy="404" r="3.1" fill="#fbbf24" opacity="0.52" />
<circle cx="1422" cy="223" r="2.0" fill="#fbbf24" opacity="0.21" />
<circle cx="662" cy="407" r="2.4" fill="#fbbf24" opacity="0.45" />
<circle cx="681" cy="588" r="1.1" fill="#fbbf24" opacity="0.26" />
<circle cx="624" cy="45" r="2.2" fill="#fbbf24" opacity="0.57" />
<circle cx="643" cy="226" r="0.9" fill="#fbbf24" opacity="0.38" />
<circle cx="738" cy="583" r="2.0" fill="#fbbf24" opacity="0.21" />
<circle cx="757" cy="764" r="3.1" fill="#fbbf24" opacity="0.52" />
<circle cx="700" cy="221" r="1.8" fill="#fbbf24" opacity="0.33" />
<circle cx="719" cy="402" r="2.9" fill="#fbbf24" opacity="0.64" />
<circle cx="814" cy="759" r="0.8" fill="#fbbf24" opacity="0.47" />
<circle cx="833" cy="40" r="1.9" fill="#fbbf24" opacity="0.28" />
<circle cx="671" cy="706" r="1.7" fill="#fbbf24" opacity="0.36" />
<circle cx="652" cy="525" r="3.0" fill="#fbbf24" opacity="0.55" />
<circle cx="709" cy="168" r="1.9" fill="#fbbf24" opacity="0.24" />
<circle cx="690" cy="887" r="0.8" fill="#fbbf24" opacity="0.43" />
<circle cx="595" cy="530" r="1.3" fill="#fbbf24" opacity="0.62" />
<circle cx="576" cy="349" r="2.6" fill="#fbbf24" opacity="0.31" />
<circle cx="633" cy="892" r="1.5" fill="#fbbf24" opacity="0.50" />
<circle cx="614" cy="711" r="2.8" fill="#fbbf24" opacity="0.19" />
<circle cx="823" cy="354" r="2.5" fill="#fbbf24" opacity="0.38" />
<circle cx="804" cy="173" r="1.4" fill="#fbbf24" opacity="0.57" />
<circle cx="1316" cy="497" r="1.0" fill="#fbbf24" opacity="0.49" />
<circle cx="1335" cy="678" r="2.1" fill="#fbbf24" opacity="0.30" />
<circle cx="1354" cy="859" r="1.2" fill="#fbbf24" opacity="0.37" />
<circle cx="1373" cy="140" r="2.3" fill="#fbbf24" opacity="0.18" />
<circle cx="1240" cy="673" r="1.4" fill="#fbbf24" opacity="0.25" />
<circle cx="1259" cy="854" r="2.5" fill="#fbbf24" opacity="0.56" />
<circle cx="1278" cy="135" r="1.6" fill="#fbbf24" opacity="0.63" />
<circle cx="1297" cy="316" r="2.7" fill="#fbbf24" opacity="0.44" /></g>
  <circle cx="488" cy="275" r="230" fill="#f9a8d4" opacity="0.08"/>
  <circle cx="1126" cy="668" r="275" fill="#fbbf24" opacity="0.08"/>
  <g filter="url(#softGlow)">
    
      <ellipse cx="800" cy="404" rx="34" ry="110" fill="#f9a8d4" opacity="0.42" transform="rotate(0 800 500)" />
<ellipse cx="800" cy="404" rx="34" ry="110" fill="#f9a8d4" opacity="0.42" transform="rotate(20 800 500)" />
<ellipse cx="800" cy="404" rx="34" ry="110" fill="#f9a8d4" opacity="0.42" transform="rotate(40 800 500)" />
<ellipse cx="800" cy="404" rx="34" ry="110" fill="#f9a8d4" opacity="0.42" transform="rotate(60 800 500)" />
<ellipse cx="800" cy="404" rx="34" ry="110" fill="#f9a8d4" opacity="0.42" transform="rotate(80 800 500)" />
<ellipse cx="800" cy="404" rx="34" ry="110" fill="#f9a8d4" opacity="0.42" transform="rotate(100 800 500)" />
<ellipse cx="800" cy="404" rx="34" ry="110" fill="#f9a8d4" opacity="0.42" transform="rotate(120 800 500)" />
<ellipse cx="800" cy="404" rx="34" ry="110" fill="#f9a8d4" opacity="0.42" transform="rotate(140 800 500)" />
<ellipse cx="800" cy="404" rx="34" ry="110" fill="#f9a8d4" opacity="0.42" transform="rotate(160 800 500)" />
<ellipse cx="800" cy="404" rx="34" ry="110" fill="#f9a8d4" opacity="0.42" transform="rotate(180 800 500)" />
<ellipse cx="800" cy="404" rx="34" ry="110" fill="#f9a8d4" opacity="0.42" transform="rotate(200 800 500)" />
<ellipse cx="800" cy="404" rx="34" ry="110" fill="#f9a8d4" opacity="0.42" transform="rotate(220 800 500)" />
<ellipse cx="800" cy="404" rx="34" ry="110" fill="#f9a8d4" opacity="0.42" transform="rotate(240 800 500)" />
<ellipse cx="800" cy="404" rx="34" ry="110" fill="#f9a8d4" opacity="0.42" transform="rotate(260 800 500)" />
<ellipse cx="800" cy="404" rx="34" ry="110" fill="#f9a8d4" opacity="0.42" transform="rotate(280 800 500)" />
<ellipse cx="800" cy="404" rx="34" ry="110" fill="#f9a8d4" opacity="0.42" transform="rotate(300 800 500)" />
<ellipse cx="800" cy="404" rx="34" ry="110" fill="#f9a8d4" opacity="0.42" transform="rotate(320 800 500)" />
<ellipse cx="800" cy="404" rx="34" ry="110" fill="#f9a8d4" opacity="0.42" transform="rotate(340 800 500)" />
      <ellipse cx="800" cy="438" rx="26" ry="82" fill="#fbbf24" opacity="0.5" transform="rotate(0 800 500)" />
<ellipse cx="800" cy="438" rx="26" ry="82" fill="#fbbf24" opacity="0.5" transform="rotate(30 800 500)" />
<ellipse cx="800" cy="438" rx="26" ry="82" fill="#fbbf24" opacity="0.5" transform="rotate(60 800 500)" />
<ellipse cx="800" cy="438" rx="26" ry="82" fill="#fbbf24" opacity="0.5" transform="rotate(90 800 500)" />
<ellipse cx="800" cy="438" rx="26" ry="82" fill="#fbbf24" opacity="0.5" transform="rotate(120 800 500)" />
<ellipse cx="800" cy="438" rx="26" ry="82" fill="#fbbf24" opacity="0.5" transform="rotate(150 800 500)" />
<ellipse cx="800" cy="438" rx="26" ry="82" fill="#fbbf24" opacity="0.5" transform="rotate(180 800 500)" />
<ellipse cx="800" cy="438" rx="26" ry="82" fill="#fbbf24" opacity="0.5" transform="rotate(210 800 500)" />
<ellipse cx="800" cy="438" rx="26" ry="82" fill="#fbbf24" opacity="0.5" transform="rotate(240 800 500)" />
<ellipse cx="800" cy="438" rx="26" ry="82" fill="#fbbf24" opacity="0.5" transform="rotate(270 800 500)" />
<ellipse cx="800" cy="438" rx="26" ry="82" fill="#fbbf24" opacity="0.5" transform="rotate(300 800 500)" />
<ellipse cx="800" cy="438" rx="26" ry="82" fill="#fbbf24" opacity="0.5" transform="rotate(330 800 500)" />
      <circle cx="800" cy="500" r="74" fill="url(#glassOrb)" opacity="0.92"/>
      <path d="M585 690 C680 590 920 590 1015 690 C890 735 710 735 585 690 Z" fill="#f9a8d4" opacity="0.32"/>
    
  </g>
  <g opacity="0.78">
    <rect x="88" y="82" width="1424" height="736" rx="46" fill="none" stroke="#ffffff" stroke-opacity="0.2" stroke-width="2"/>
    <path d="M150 150 C320 82 525 78 720 126" stroke="#fff7ed" stroke-opacity="0.44" stroke-width="7" stroke-linecap="round"/>
    <path d="M1332 710 C1215 775 1005 792 855 752" stroke="#f9a8d4" stroke-opacity="0.42" stroke-width="8" stroke-linecap="round"/>
  </g>
  <g transform="translate(126 714)">
    <rect width="420" height="86" rx="28" fill="#ffffff" opacity="0.12"/>
    <rect x="1" y="1" width="418" height="84" rx="27" fill="none" stroke="#ffffff" stroke-opacity="0.22"/>
    <text x="36" y="56" font-family="Georgia, 'Noto Serif Devanagari', serif" font-size="40" font-weight="700" fill="#fff7ed">कमल</text>
    <circle cx="352" cy="43" r="15" fill="#f9a8d4" opacity="0.9"/>
  </g>
  <rect width="1600" height="900" filter="url(#grain)" opacity="0.34"/>
</svg>
