<svg xmlns="http://www.w3.org/2000/svg" width="1600" height="900" viewBox="0 0 1600 900" role="img" aria-label="शिखा (चोटी) रखने का वैज्ञानिक महत्व: बुद्धि और ऊर्जा का नियंत्रण केंद्र">
  <defs>
    <radialGradient id="bgGlow" cx="50%" cy="43%" r="75%">
      <stop offset="0%" stop-color="#fde047" stop-opacity="0.46"/>
      <stop offset="45%" stop-color="#5a2508" stop-opacity="0.92"/>
      <stop offset="100%" stop-color="#1e1404"/>
    </radialGradient>
    <linearGradient id="glassPanel" x1="0%" y1="0%" x2="100%" y2="100%">
      <stop offset="0%" stop-color="#ffffff" stop-opacity="0.58"/>
      <stop offset="42%" stop-color="#fde047" stop-opacity="0.22"/>
      <stop offset="100%" stop-color="#ffffff" stop-opacity="0.08"/>
    </linearGradient>
    <radialGradient id="glassOrb" cx="34%" cy="24%" r="68%">
      <stop offset="0%" stop-color="#ffffff" stop-opacity="0.94"/>
      <stop offset="34%" stop-color="#fde047" stop-opacity="0.62"/>
      <stop offset="100%" stop-color="#5a2508" stop-opacity="0.22"/>
    </radialGradient>
    <linearGradient id="glassMountain" x1="0%" y1="0%" x2="100%" y2="100%">
      <stop offset="0%" stop-color="#ffffff" stop-opacity="0.48"/>
      <stop offset="100%" stop-color="#fde047" stop-opacity="0.22"/>
    </linearGradient>
    <filter id="softGlow" x="-30%" y="-30%" width="160%" height="160%">
      <feGaussianBlur stdDeviation="18" result="blur"/>
      <feColorMatrix in="blur" type="matrix" values="1 0 0 0 0  0 1 0 0 0  0 0 1 0 0  0 0 0 0.75 0"/>
      <feMerge>
        <feMergeNode/>
        <feMergeNode in="SourceGraphic"/>
      </feMerge>
    </filter>
    <filter id="grain">
      <feTurbulence type="fractalNoise" baseFrequency="0.82" numOctaves="3" seed="279"/>
      <feColorMatrix type="saturate" values="0"/>
      <feComponentTransfer>
        <feFuncA type="table" tableValues="0 0.075"/>
      </feComponentTransfer>
    </filter>
  </defs>
  <rect width="1600" height="900" fill="url(#bgGlow)"/>
  <g opacity="0.72"><circle cx="469" cy="482" r="1.9" fill="#f97316" opacity="0.30" />
<circle cx="450" cy="301" r="0.8" fill="#f97316" opacity="0.49" />
<circle cx="431" cy="844" r="1.7" fill="#f97316" opacity="0.18" />
<circle cx="412" cy="663" r="3.0" fill="#f97316" opacity="0.37" />
<circle cx="393" cy="658" r="1.5" fill="#f97316" opacity="0.56" />
<circle cx="374" cy="477" r="2.8" fill="#f97316" opacity="0.25" />
<circle cx="355" cy="120" r="1.3" fill="#f97316" opacity="0.44" />
<circle cx="336" cy="839" r="2.6" fill="#f97316" opacity="0.63" />
<circle cx="621" cy="130" r="2.7" fill="#f97316" opacity="0.28" />
<circle cx="602" cy="849" r="1.6" fill="#f97316" opacity="0.47" />
<circle cx="1334" cy="211" r="2.4" fill="#f97316" opacity="0.57" />
<circle cx="1353" cy="392" r="1.1" fill="#f97316" opacity="0.38" />
<circle cx="1296" cy="749" r="2.2" fill="#f97316" opacity="0.19" />
<circle cx="1315" cy="30" r="0.9" fill="#f97316" opacity="0.50" />
<circle cx="1410" cy="387" r="2.0" fill="#f97316" opacity="0.33" />
<circle cx="1429" cy="568" r="3.1" fill="#f97316" opacity="0.64" />
<circle cx="1372" cy="25" r="1.8" fill="#f97316" opacity="0.45" />
<circle cx="1391" cy="206" r="2.9" fill="#f97316" opacity="0.26" />
<circle cx="1486" cy="563" r="0.8" fill="#f97316" opacity="0.55" />
<circle cx="1505" cy="744" r="1.9" fill="#f97316" opacity="0.36" />
<circle cx="1101" cy="760" r="1.1" fill="#f97316" opacity="0.66" />
<circle cx="1082" cy="579" r="2.4" fill="#f97316" opacity="0.35" />
<circle cx="1063" cy="398" r="0.9" fill="#f97316" opacity="0.28" />
<circle cx="1044" cy="217" r="2.2" fill="#f97316" opacity="0.47" />
<circle cx="1025" cy="36" r="3.1" fill="#f97316" opacity="0.40" />
<circle cx="1006" cy="755" r="2.0" fill="#f97316" opacity="0.59" />
<circle cx="987" cy="574" r="2.9" fill="#f97316" opacity="0.52" />
<circle cx="968" cy="393" r="1.8" fill="#f97316" opacity="0.21" />
<circle cx="949" cy="408" r="2.7" fill="#f97316" opacity="0.64" />
<circle cx="930" cy="227" r="1.6" fill="#f97316" opacity="0.33" />
<circle cx="1092" cy="69" r="1.0" fill="#f97316" opacity="0.67" />
<circle cx="1111" cy="250" r="2.1" fill="#f97316" opacity="0.48" />
<circle cx="1130" cy="431" r="1.2" fill="#f97316" opacity="0.55" />
<circle cx="1149" cy="612" r="2.3" fill="#f97316" opacity="0.36" />
<circle cx="1016" cy="245" r="1.4" fill="#f97316" opacity="0.43" />
<circle cx="1035" cy="426" r="2.5" fill="#f97316" opacity="0.24" />
<circle cx="1054" cy="607" r="1.6" fill="#f97316" opacity="0.31" />
<circle cx="1073" cy="788" r="2.7" fill="#f97316" opacity="0.62" />
<circle cx="940" cy="617" r="1.8" fill="#f97316" opacity="0.19" />
<circle cx="959" cy="798" r="2.9" fill="#f97316" opacity="0.50" />
<circle cx="1083" cy="274" r="1.3" fill="#f97316" opacity="0.58" />
<circle cx="1064" cy="93" r="2.6" fill="#f97316" opacity="0.27" />
<circle cx="1121" cy="636" r="1.5" fill="#f97316" opacity="0.46" />
<circle cx="1102" cy="455" r="2.8" fill="#f97316" opacity="0.65" />
<circle cx="1159" cy="450" r="1.7" fill="#f97316" opacity="0.32" />
<circle cx="1140" cy="269" r="3.0" fill="#f97316" opacity="0.51" />
<circle cx="1197" cy="812" r="1.9" fill="#f97316" opacity="0.20" />
<circle cx="1178" cy="631" r="0.8" fill="#f97316" opacity="0.39" />
<circle cx="931" cy="822" r="2.9" fill="#f97316" opacity="0.60" />
<circle cx="912" cy="641" r="1.8" fill="#f97316" opacity="0.29" />
<circle cx="1138" cy="483" r="2.0" fill="#f97316" opacity="0.67" />
<circle cx="1157" cy="664" r="3.1" fill="#f97316" opacity="0.48" />
<circle cx="1100" cy="121" r="1.8" fill="#f97316" opacity="0.29" />
<circle cx="1119" cy="302" r="2.9" fill="#f97316" opacity="0.60" />
<circle cx="1062" cy="307" r="2.4" fill="#f97316" opacity="0.41" />
<circle cx="1081" cy="488" r="1.1" fill="#f97316" opacity="0.22" />
<circle cx="1024" cy="845" r="2.2" fill="#f97316" opacity="0.53" />
<circle cx="1043" cy="126" r="0.9" fill="#f97316" opacity="0.34" />
<circle cx="1290" cy="131" r="1.2" fill="#f97316" opacity="0.19" />
<circle cx="1309" cy="312" r="2.3" fill="#f97316" opacity="0.50" />
<circle cx="1129" cy="420" r="2.3" fill="#f97316" opacity="0.26" />
<circle cx="1110" cy="239" r="1.2" fill="#f97316" opacity="0.45" />
<circle cx="1091" cy="58" r="2.1" fill="#f97316" opacity="0.38" />
<circle cx="1072" cy="777" r="1.0" fill="#f97316" opacity="0.57" />
<circle cx="1205" cy="244" r="2.7" fill="#f97316" opacity="0.52" />
<circle cx="1186" cy="63" r="1.6" fill="#f97316" opacity="0.21" />
<circle cx="1167" cy="782" r="2.5" fill="#f97316" opacity="0.64" />
<circle cx="1148" cy="601" r="1.4" fill="#f97316" opacity="0.33" /></g>
  <circle cx="511" cy="280" r="230" fill="#fde047" opacity="0.08"/>
  <circle cx="1129" cy="673" r="275" fill="#f97316" opacity="0.08"/>
  <g filter="url(#softGlow)">
    
      <path d="M800 705 C635 585 690 445 772 358 C765 458 875 465 842 275 C995 405 1025 595 800 705 Z" fill="#f97316" opacity="0.75"/>
      <path d="M805 670 C725 598 742 506 807 438 C802 514 888 535 878 442 C950 538 928 632 805 670 Z" fill="#fde047" opacity="0.84"/>
      <path d="M615 728 h370" stroke="#fff7ed" stroke-width="20" stroke-linecap="round" opacity="0.44"/>
      <path d="M690 760 h220" stroke="#f97316" stroke-width="18" stroke-linecap="round" opacity="0.52"/>
    
  </g>
  <g opacity="0.78">
    <rect x="88" y="82" width="1424" height="736" rx="46" fill="none" stroke="#ffffff" stroke-opacity="0.2" stroke-width="2"/>
    <path d="M150 150 C320 82 525 78 720 126" stroke="#fff7ed" stroke-opacity="0.44" stroke-width="7" stroke-linecap="round"/>
    <path d="M1332 710 C1215 775 1005 792 855 752" stroke="#fde047" stroke-opacity="0.42" stroke-width="8" stroke-linecap="round"/>
  </g>
  <g transform="translate(126 714)">
    <rect width="420" height="86" rx="28" fill="#ffffff" opacity="0.12"/>
    <rect x="1" y="1" width="418" height="84" rx="27" fill="none" stroke="#ffffff" stroke-opacity="0.22"/>
    <text x="36" y="56" font-family="Georgia, 'Noto Serif Devanagari', serif" font-size="40" font-weight="700" fill="#fff7ed">दीप</text>
    <circle cx="352" cy="43" r="15" fill="#fde047" opacity="0.9"/>
  </g>
  <rect width="1600" height="900" filter="url(#grain)" opacity="0.34"/>
</svg>
