<svg xmlns="http://www.w3.org/2000/svg" width="1600" height="900" viewBox="0 0 1600 900" role="img" aria-label="हिंदू रीति-रिवाजों के पीछे का विज्ञान: नमस्ते करने से लेकर तिलक लगाने तक">
  <defs>
    <radialGradient id="bgGlow" cx="50%" cy="43%" r="75%">
      <stop offset="0%" stop-color="#c4b5fd" stop-opacity="0.46"/>
      <stop offset="45%" stop-color="#3a2267" stop-opacity="0.92"/>
      <stop offset="100%" stop-color="#130b2a"/>
    </radialGradient>
    <linearGradient id="glassPanel" x1="0%" y1="0%" x2="100%" y2="100%">
      <stop offset="0%" stop-color="#ffffff" stop-opacity="0.58"/>
      <stop offset="42%" stop-color="#c4b5fd" stop-opacity="0.22"/>
      <stop offset="100%" stop-color="#ffffff" stop-opacity="0.08"/>
    </linearGradient>
    <radialGradient id="glassOrb" cx="34%" cy="24%" r="68%">
      <stop offset="0%" stop-color="#ffffff" stop-opacity="0.94"/>
      <stop offset="34%" stop-color="#c4b5fd" stop-opacity="0.62"/>
      <stop offset="100%" stop-color="#3a2267" stop-opacity="0.22"/>
    </radialGradient>
    <linearGradient id="glassMountain" x1="0%" y1="0%" x2="100%" y2="100%">
      <stop offset="0%" stop-color="#ffffff" stop-opacity="0.48"/>
      <stop offset="100%" stop-color="#c4b5fd" stop-opacity="0.22"/>
    </linearGradient>
    <filter id="softGlow" x="-30%" y="-30%" width="160%" height="160%">
      <feGaussianBlur stdDeviation="18" result="blur"/>
      <feColorMatrix in="blur" type="matrix" values="1 0 0 0 0  0 1 0 0 0  0 0 1 0 0  0 0 0 0.75 0"/>
      <feMerge>
        <feMergeNode/>
        <feMergeNode in="SourceGraphic"/>
      </feMerge>
    </filter>
    <filter id="grain">
      <feTurbulence type="fractalNoise" baseFrequency="0.82" numOctaves="3" seed="471"/>
      <feColorMatrix type="saturate" values="0"/>
      <feComponentTransfer>
        <feFuncA type="table" tableValues="0 0.075"/>
      </feComponentTransfer>
    </filter>
  </defs>
  <rect width="1600" height="900" fill="url(#bgGlow)"/>
  <g opacity="0.72"><circle cx="596" cy="591" r="2.2" fill="#fcd34d" opacity="0.61" />
<circle cx="615" cy="668" r="0.9" fill="#fcd34d" opacity="0.42" />
<circle cx="634" cy="229" r="2.4" fill="#fcd34d" opacity="0.23" />
<circle cx="653" cy="410" r="1.1" fill="#fcd34d" opacity="0.54" />
<circle cx="1416" cy="767" r="2.6" fill="#fcd34d" opacity="0.37" />
<circle cx="539" cy="48" r="1.3" fill="#fcd34d" opacity="0.18" />
<circle cx="558" cy="405" r="2.0" fill="#fcd34d" opacity="0.49" />
<circle cx="577" cy="586" r="3.1" fill="#fcd34d" opacity="0.30" />
<circle cx="1340" cy="43" r="2.2" fill="#fcd34d" opacity="0.63" />
<circle cx="1359" cy="224" r="0.9" fill="#fcd34d" opacity="0.44" />
<circle cx="1269" cy="768" r="1.9" fill="#fcd34d" opacity="0.36" />
<circle cx="1250" cy="587" r="0.8" fill="#fcd34d" opacity="0.55" />
<circle cx="1231" cy="406" r="1.7" fill="#fcd34d" opacity="0.48" />
<circle cx="1212" cy="225" r="3.0" fill="#fcd34d" opacity="0.67" />
<circle cx="1193" cy="44" r="1.5" fill="#fcd34d" opacity="0.60" />
<circle cx="1174" cy="763" r="2.8" fill="#fcd34d" opacity="0.29" />
<circle cx="1155" cy="582" r="1.3" fill="#fcd34d" opacity="0.22" />
<circle cx="1136" cy="401" r="2.6" fill="#fcd34d" opacity="0.41" />
<circle cx="1421" cy="220" r="2.7" fill="#fcd34d" opacity="0.38" />
<circle cx="1402" cy="39" r="1.6" fill="#fcd34d" opacity="0.57" />
<circle cx="1278" cy="831" r="1.6" fill="#fcd34d" opacity="0.45" />
<circle cx="1297" cy="112" r="2.7" fill="#fcd34d" opacity="0.26" />
<circle cx="1240" cy="469" r="1.4" fill="#fcd34d" opacity="0.57" />
<circle cx="1259" cy="650" r="2.5" fill="#fcd34d" opacity="0.38" />
<circle cx="1354" cy="107" r="1.2" fill="#fcd34d" opacity="0.21" />
<circle cx="1373" cy="288" r="2.3" fill="#fcd34d" opacity="0.52" />
<circle cx="1316" cy="645" r="1.0" fill="#fcd34d" opacity="0.33" />
<circle cx="1335" cy="826" r="2.1" fill="#fcd34d" opacity="0.64" />
<circle cx="1126" cy="479" r="0.8" fill="#fcd34d" opacity="0.47" />
<circle cx="1145" cy="660" r="1.9" fill="#fcd34d" opacity="0.28" />
<circle cx="519" cy="286" r="0.9" fill="#fcd34d" opacity="0.36" />
<circle cx="500" cy="105" r="2.2" fill="#fcd34d" opacity="0.55" />
<circle cx="557" cy="648" r="1.1" fill="#fcd34d" opacity="0.24" />
<circle cx="538" cy="467" r="2.4" fill="#fcd34d" opacity="0.43" />
<circle cx="443" cy="110" r="2.9" fill="#fcd34d" opacity="0.62" />
<circle cx="424" cy="829" r="1.8" fill="#fcd34d" opacity="0.31" />
<circle cx="481" cy="472" r="3.1" fill="#fcd34d" opacity="0.50" />
<circle cx="462" cy="291" r="2.0" fill="#fcd34d" opacity="0.19" />
<circle cx="367" cy="638" r="2.5" fill="#fcd34d" opacity="0.38" />
<circle cx="348" cy="457" r="1.4" fill="#fcd34d" opacity="0.57" />
<circle cx="296" cy="349" r="2.2" fill="#fcd34d" opacity="0.59" />
<circle cx="315" cy="530" r="0.9" fill="#fcd34d" opacity="0.40" />
<circle cx="334" cy="711" r="2.4" fill="#fcd34d" opacity="0.47" />
<circle cx="353" cy="892" r="1.1" fill="#fcd34d" opacity="0.28" />
<circle cx="372" cy="173" r="1.8" fill="#fcd34d" opacity="0.33" />
<circle cx="391" cy="354" r="2.9" fill="#fcd34d" opacity="0.64" />
<circle cx="410" cy="535" r="2.0" fill="#fcd34d" opacity="0.21" />
<circle cx="429" cy="716" r="3.1" fill="#fcd34d" opacity="0.52" />
<circle cx="144" cy="897" r="1.4" fill="#fcd34d" opacity="0.61" />
<circle cx="163" cy="178" r="2.5" fill="#fcd34d" opacity="0.42" />
<circle cx="305" cy="140" r="1.5" fill="#fcd34d" opacity="0.50" />
<circle cx="286" cy="859" r="2.8" fill="#fcd34d" opacity="0.19" />
<circle cx="267" cy="678" r="1.3" fill="#fcd34d" opacity="0.62" />
<circle cx="248" cy="497" r="2.6" fill="#fcd34d" opacity="0.31" />
<circle cx="381" cy="864" r="1.9" fill="#fcd34d" opacity="0.26" />
<circle cx="362" cy="683" r="0.8" fill="#fcd34d" opacity="0.45" />
<circle cx="343" cy="502" r="1.7" fill="#fcd34d" opacity="0.38" />
<circle cx="324" cy="321" r="3.0" fill="#fcd34d" opacity="0.57" />
<circle cx="153" cy="688" r="3.1" fill="#fcd34d" opacity="0.52" />
<circle cx="134" cy="507" r="2.0" fill="#fcd34d" opacity="0.21" />
<circle cx="314" cy="491" r="1.2" fill="#fcd34d" opacity="0.63" />
<circle cx="333" cy="672" r="2.3" fill="#fcd34d" opacity="0.44" />
<circle cx="276" cy="129" r="1.0" fill="#fcd34d" opacity="0.25" />
<circle cx="295" cy="310" r="2.1" fill="#fcd34d" opacity="0.56" />
<circle cx="238" cy="315" r="1.6" fill="#fcd34d" opacity="0.37" />
<circle cx="257" cy="496" r="2.7" fill="#fcd34d" opacity="0.18" />
<circle cx="200" cy="853" r="1.4" fill="#fcd34d" opacity="0.49" />
<circle cx="219" cy="134" r="2.5" fill="#fcd34d" opacity="0.30" /></g>
  <circle cx="438" cy="309" r="230" fill="#c4b5fd" opacity="0.08"/>
  <circle cx="1120" cy="658" r="275" fill="#fcd34d" opacity="0.08"/>
  <g filter="url(#softGlow)">
    
    <ellipse cx="800" cy="285" rx="16" ry="90" fill="#c4b5fd" opacity="0.22" transform="rotate(0 800 460)" />
<ellipse cx="800" cy="285" rx="16" ry="90" fill="#c4b5fd" opacity="0.22" transform="rotate(11.25 800 460)" />
<ellipse cx="800" cy="285" rx="16" ry="90" fill="#c4b5fd" opacity="0.22" transform="rotate(22.5 800 460)" />
<ellipse cx="800" cy="285" rx="16" ry="90" fill="#c4b5fd" opacity="0.22" transform="rotate(33.75 800 460)" />
<ellipse cx="800" cy="285" rx="16" ry="90" fill="#c4b5fd" opacity="0.22" transform="rotate(45 800 460)" />
<ellipse cx="800" cy="285" rx="16" ry="90" fill="#c4b5fd" opacity="0.22" transform="rotate(56.25 800 460)" />
<ellipse cx="800" cy="285" rx="16" ry="90" fill="#c4b5fd" opacity="0.22" transform="rotate(67.5 800 460)" />
<ellipse cx="800" cy="285" rx="16" ry="90" fill="#c4b5fd" opacity="0.22" transform="rotate(78.75 800 460)" />
<ellipse cx="800" cy="285" rx="16" ry="90" fill="#c4b5fd" opacity="0.22" transform="rotate(90 800 460)" />
<ellipse cx="800" cy="285" rx="16" ry="90" fill="#c4b5fd" opacity="0.22" transform="rotate(101.25 800 460)" />
<ellipse cx="800" cy="285" rx="16" ry="90" fill="#c4b5fd" opacity="0.22" transform="rotate(112.5 800 460)" />
<ellipse cx="800" cy="285" rx="16" ry="90" fill="#c4b5fd" opacity="0.22" transform="rotate(123.75 800 460)" />
<ellipse cx="800" cy="285" rx="16" ry="90" fill="#c4b5fd" opacity="0.22" transform="rotate(135 800 460)" />
<ellipse cx="800" cy="285" rx="16" ry="90" fill="#c4b5fd" opacity="0.22" transform="rotate(146.25 800 460)" />
<ellipse cx="800" cy="285" rx="16" ry="90" fill="#c4b5fd" opacity="0.22" transform="rotate(157.5 800 460)" />
<ellipse cx="800" cy="285" rx="16" ry="90" fill="#c4b5fd" opacity="0.22" transform="rotate(168.75 800 460)" />
<ellipse cx="800" cy="285" rx="16" ry="90" fill="#c4b5fd" opacity="0.22" transform="rotate(180 800 460)" />
<ellipse cx="800" cy="285" rx="16" ry="90" fill="#c4b5fd" opacity="0.22" transform="rotate(191.25 800 460)" />
<ellipse cx="800" cy="285" rx="16" ry="90" fill="#c4b5fd" opacity="0.22" transform="rotate(202.5 800 460)" />
<ellipse cx="800" cy="285" rx="16" ry="90" fill="#c4b5fd" opacity="0.22" transform="rotate(213.75 800 460)" />
<ellipse cx="800" cy="285" rx="16" ry="90" fill="#c4b5fd" opacity="0.22" transform="rotate(225 800 460)" />
<ellipse cx="800" cy="285" rx="16" ry="90" fill="#c4b5fd" opacity="0.22" transform="rotate(236.25 800 460)" />
<ellipse cx="800" cy="285" rx="16" ry="90" fill="#c4b5fd" opacity="0.22" transform="rotate(247.5 800 460)" />
<ellipse cx="800" cy="285" rx="16" ry="90" fill="#c4b5fd" opacity="0.22" transform="rotate(258.75 800 460)" />
<ellipse cx="800" cy="285" rx="16" ry="90" fill="#c4b5fd" opacity="0.22" transform="rotate(270 800 460)" />
<ellipse cx="800" cy="285" rx="16" ry="90" fill="#c4b5fd" opacity="0.22" transform="rotate(281.25 800 460)" />
<ellipse cx="800" cy="285" rx="16" ry="90" fill="#c4b5fd" opacity="0.22" transform="rotate(292.5 800 460)" />
<ellipse cx="800" cy="285" rx="16" ry="90" fill="#c4b5fd" opacity="0.22" transform="rotate(303.75 800 460)" />
<ellipse cx="800" cy="285" rx="16" ry="90" fill="#c4b5fd" opacity="0.22" transform="rotate(315 800 460)" />
<ellipse cx="800" cy="285" rx="16" ry="90" fill="#c4b5fd" opacity="0.22" transform="rotate(326.25 800 460)" />
<ellipse cx="800" cy="285" rx="16" ry="90" fill="#c4b5fd" opacity="0.22" transform="rotate(337.5 800 460)" />
<ellipse cx="800" cy="285" rx="16" ry="90" fill="#c4b5fd" opacity="0.22" transform="rotate(348.75 800 460)" />
    <ellipse cx="800" cy="348" rx="20" ry="72" fill="#fcd34d" opacity="0.32" transform="rotate(0 800 460)" />
<ellipse cx="800" cy="348" rx="20" ry="72" fill="#fcd34d" opacity="0.32" transform="rotate(20 800 460)" />
<ellipse cx="800" cy="348" rx="20" ry="72" fill="#fcd34d" opacity="0.32" transform="rotate(40 800 460)" />
<ellipse cx="800" cy="348" rx="20" ry="72" fill="#fcd34d" opacity="0.32" transform="rotate(60 800 460)" />
<ellipse cx="800" cy="348" rx="20" ry="72" fill="#fcd34d" opacity="0.32" transform="rotate(80 800 460)" />
<ellipse cx="800" cy="348" rx="20" ry="72" fill="#fcd34d" opacity="0.32" transform="rotate(100 800 460)" />
<ellipse cx="800" cy="348" rx="20" ry="72" fill="#fcd34d" opacity="0.32" transform="rotate(120 800 460)" />
<ellipse cx="800" cy="348" rx="20" ry="72" fill="#fcd34d" opacity="0.32" transform="rotate(140 800 460)" />
<ellipse cx="800" cy="348" rx="20" ry="72" fill="#fcd34d" opacity="0.32" transform="rotate(160 800 460)" />
<ellipse cx="800" cy="348" rx="20" ry="72" fill="#fcd34d" opacity="0.32" transform="rotate(180 800 460)" />
<ellipse cx="800" cy="348" rx="20" ry="72" fill="#fcd34d" opacity="0.32" transform="rotate(200 800 460)" />
<ellipse cx="800" cy="348" rx="20" ry="72" fill="#fcd34d" opacity="0.32" transform="rotate(220 800 460)" />
<ellipse cx="800" cy="348" rx="20" ry="72" fill="#fcd34d" opacity="0.32" transform="rotate(240 800 460)" />
<ellipse cx="800" cy="348" rx="20" ry="72" fill="#fcd34d" opacity="0.32" transform="rotate(260 800 460)" />
<ellipse cx="800" cy="348" rx="20" ry="72" fill="#fcd34d" opacity="0.32" transform="rotate(280 800 460)" />
<ellipse cx="800" cy="348" rx="20" ry="72" fill="#fcd34d" opacity="0.32" transform="rotate(300 800 460)" />
<ellipse cx="800" cy="348" rx="20" ry="72" fill="#fcd34d" opacity="0.32" transform="rotate(320 800 460)" />
<ellipse cx="800" cy="348" rx="20" ry="72" fill="#fcd34d" opacity="0.32" transform="rotate(340 800 460)" />
    <circle cx="800" cy="460" r="140" fill="url(#glassOrb)" opacity="0.78"/>
    <text x="800" y="525" text-anchor="middle" font-family="Georgia, 'Noto Serif Devanagari', serif" font-size="210" font-weight="700" fill="#fff7ed" opacity="0.9">ॐ</text>
  
  </g>
  <g opacity="0.78">
    <rect x="88" y="82" width="1424" height="736" rx="46" fill="none" stroke="#ffffff" stroke-opacity="0.2" stroke-width="2"/>
    <path d="M150 150 C320 82 525 78 720 126" stroke="#fff7ed" stroke-opacity="0.44" stroke-width="7" stroke-linecap="round"/>
    <path d="M1332 710 C1215 775 1005 792 855 752" stroke="#c4b5fd" stroke-opacity="0.42" stroke-width="8" stroke-linecap="round"/>
  </g>
  <g transform="translate(126 714)">
    <rect width="420" height="86" rx="28" fill="#ffffff" opacity="0.12"/>
    <rect x="1" y="1" width="418" height="84" rx="27" fill="none" stroke="#ffffff" stroke-opacity="0.22"/>
    <text x="36" y="56" font-family="Georgia, 'Noto Serif Devanagari', serif" font-size="40" font-weight="700" fill="#fff7ed">ॐ</text>
    <circle cx="352" cy="43" r="15" fill="#c4b5fd" opacity="0.9"/>
  </g>
  <rect width="1600" height="900" filter="url(#grain)" opacity="0.34"/>
</svg>
