<svg xmlns="http://www.w3.org/2000/svg" width="1600" height="900" viewBox="0 0 1600 900" role="img" aria-label="शरीर के 7 चक्र: उनके नाम, स्थिति, बीज मंत्र, सक्रिय करने के यौगिक तरीके और मानसिक व शारीरिक लाभ">
  <defs>
    <radialGradient id="bgGlow" cx="50%" cy="43%" r="75%">
      <stop offset="0%" stop-color="#a7f3d0" stop-opacity="0.46"/>
      <stop offset="45%" stop-color="#0f4d3f" stop-opacity="0.92"/>
      <stop offset="100%" stop-color="#05231d"/>
    </radialGradient>
    <linearGradient id="glassPanel" x1="0%" y1="0%" x2="100%" y2="100%">
      <stop offset="0%" stop-color="#ffffff" stop-opacity="0.58"/>
      <stop offset="42%" stop-color="#a7f3d0" stop-opacity="0.22"/>
      <stop offset="100%" stop-color="#ffffff" stop-opacity="0.08"/>
    </linearGradient>
    <radialGradient id="glassOrb" cx="34%" cy="24%" r="68%">
      <stop offset="0%" stop-color="#ffffff" stop-opacity="0.94"/>
      <stop offset="34%" stop-color="#a7f3d0" stop-opacity="0.62"/>
      <stop offset="100%" stop-color="#0f4d3f" stop-opacity="0.22"/>
    </radialGradient>
    <linearGradient id="glassMountain" x1="0%" y1="0%" x2="100%" y2="100%">
      <stop offset="0%" stop-color="#ffffff" stop-opacity="0.48"/>
      <stop offset="100%" stop-color="#a7f3d0" stop-opacity="0.22"/>
    </linearGradient>
    <filter id="softGlow" x="-30%" y="-30%" width="160%" height="160%">
      <feGaussianBlur stdDeviation="18" result="blur"/>
      <feColorMatrix in="blur" type="matrix" values="1 0 0 0 0  0 1 0 0 0  0 0 1 0 0  0 0 0 0.75 0"/>
      <feMerge>
        <feMergeNode/>
        <feMergeNode in="SourceGraphic"/>
      </feMerge>
    </filter>
    <filter id="grain">
      <feTurbulence type="fractalNoise" baseFrequency="0.82" numOctaves="3" seed="580"/>
      <feColorMatrix type="saturate" values="0"/>
      <feComponentTransfer>
        <feFuncA type="table" tableValues="0 0.075"/>
      </feComponentTransfer>
    </filter>
  </defs>
  <rect width="1600" height="900" fill="url(#bgGlow)"/>
  <g opacity="0.72"><circle cx="1196" cy="771" r="1.4" fill="#fde68a" opacity="0.31" />
<circle cx="1215" cy="52" r="2.5" fill="#fde68a" opacity="0.62" />
<circle cx="1234" cy="409" r="1.6" fill="#fde68a" opacity="0.43" />
<circle cx="1253" cy="590" r="2.7" fill="#fde68a" opacity="0.24" />
<circle cx="1120" cy="47" r="1.0" fill="#fde68a" opacity="0.57" />
<circle cx="1139" cy="228" r="2.1" fill="#fde68a" opacity="0.38" />
<circle cx="1158" cy="585" r="1.2" fill="#fde68a" opacity="0.19" />
<circle cx="1177" cy="766" r="2.3" fill="#fde68a" opacity="0.50" />
<circle cx="1348" cy="419" r="2.2" fill="#fde68a" opacity="0.29" />
<circle cx="1367" cy="600" r="0.9" fill="#fde68a" opacity="0.60" />
<circle cx="157" cy="304" r="1.9" fill="#fde68a" opacity="0.50" />
<circle cx="138" cy="123" r="0.8" fill="#fde68a" opacity="0.19" />
<circle cx="119" cy="842" r="1.7" fill="#fde68a" opacity="0.62" />
<circle cx="100" cy="661" r="3.0" fill="#fde68a" opacity="0.31" />
<circle cx="81" cy="480" r="1.5" fill="#fde68a" opacity="0.24" />
<circle cx="62" cy="299" r="2.8" fill="#fde68a" opacity="0.43" />
<circle cx="43" cy="118" r="1.3" fill="#fde68a" opacity="0.36" />
<circle cx="24" cy="837" r="2.6" fill="#fde68a" opacity="0.55" />
<circle cx="5" cy="852" r="1.1" fill="#fde68a" opacity="0.48" />
<circle cx="1586" cy="671" r="2.4" fill="#fde68a" opacity="0.67" />
<circle cx="390" cy="759" r="1.6" fill="#fde68a" opacity="0.41" />
<circle cx="409" cy="40" r="2.7" fill="#fde68a" opacity="0.22" />
<circle cx="352" cy="397" r="1.4" fill="#fde68a" opacity="0.53" />
<circle cx="371" cy="578" r="2.5" fill="#fde68a" opacity="0.34" />
<circle cx="466" cy="35" r="1.2" fill="#fde68a" opacity="0.67" />
<circle cx="485" cy="216" r="2.3" fill="#fde68a" opacity="0.48" />
<circle cx="428" cy="573" r="1.0" fill="#fde68a" opacity="0.29" />
<circle cx="447" cy="754" r="2.1" fill="#fde68a" opacity="0.60" />
<circle cx="542" cy="211" r="2.4" fill="#fde68a" opacity="0.39" />
<circle cx="561" cy="392" r="1.1" fill="#fde68a" opacity="0.20" />
<circle cx="399" cy="158" r="0.9" fill="#fde68a" opacity="0.46" />
<circle cx="380" cy="877" r="2.2" fill="#fde68a" opacity="0.65" />
<circle cx="437" cy="520" r="1.1" fill="#fde68a" opacity="0.34" />
<circle cx="418" cy="339" r="2.4" fill="#fde68a" opacity="0.53" />
<circle cx="323" cy="882" r="2.9" fill="#fde68a" opacity="0.22" />
<circle cx="304" cy="701" r="1.8" fill="#fde68a" opacity="0.41" />
<circle cx="361" cy="344" r="3.1" fill="#fde68a" opacity="0.60" />
<circle cx="342" cy="163" r="2.0" fill="#fde68a" opacity="0.29" />
<circle cx="551" cy="706" r="1.7" fill="#fde68a" opacity="0.44" />
<circle cx="532" cy="525" r="3.0" fill="#fde68a" opacity="0.63" />
<circle cx="176" cy="509" r="2.2" fill="#fde68a" opacity="0.19" />
<circle cx="195" cy="690" r="0.9" fill="#fde68a" opacity="0.50" />
<circle cx="214" cy="871" r="2.4" fill="#fde68a" opacity="0.57" />
<circle cx="233" cy="152" r="1.1" fill="#fde68a" opacity="0.38" />
<circle cx="252" cy="333" r="1.8" fill="#fde68a" opacity="0.43" />
<circle cx="271" cy="514" r="2.9" fill="#fde68a" opacity="0.24" />
<circle cx="290" cy="695" r="2.0" fill="#fde68a" opacity="0.31" />
<circle cx="309" cy="876" r="3.1" fill="#fde68a" opacity="0.62" />
<circle cx="328" cy="861" r="3.0" fill="#fde68a" opacity="0.67" />
<circle cx="347" cy="142" r="1.7" fill="#fde68a" opacity="0.48" />
<circle cx="185" cy="68" r="1.5" fill="#fde68a" opacity="0.60" />
<circle cx="166" cy="787" r="2.8" fill="#fde68a" opacity="0.29" />
<circle cx="147" cy="606" r="1.3" fill="#fde68a" opacity="0.22" />
<circle cx="128" cy="425" r="2.6" fill="#fde68a" opacity="0.41" />
<circle cx="261" cy="792" r="1.9" fill="#fde68a" opacity="0.36" />
<circle cx="242" cy="611" r="0.8" fill="#fde68a" opacity="0.55" />
<circle cx="223" cy="430" r="1.7" fill="#fde68a" opacity="0.48" />
<circle cx="204" cy="249" r="3.0" fill="#fde68a" opacity="0.67" />
<circle cx="337" cy="420" r="2.3" fill="#fde68a" opacity="0.58" />
<circle cx="318" cy="239" r="1.2" fill="#fde68a" opacity="0.27" />
<circle cx="130" cy="27" r="1.2" fill="#fde68a" opacity="0.51" />
<circle cx="149" cy="208" r="2.3" fill="#fde68a" opacity="0.32" />
<circle cx="92" cy="565" r="1.0" fill="#fde68a" opacity="0.63" />
<circle cx="111" cy="746" r="2.1" fill="#fde68a" opacity="0.44" />
<circle cx="54" cy="751" r="1.6" fill="#fde68a" opacity="0.25" />
<circle cx="73" cy="32" r="2.7" fill="#fde68a" opacity="0.56" />
<circle cx="16" cy="389" r="1.4" fill="#fde68a" opacity="0.37" />
<circle cx="35" cy="570" r="2.5" fill="#fde68a" opacity="0.18" /></g>
  <circle cx="446" cy="317" r="230" fill="#a7f3d0" opacity="0.08"/>
  <circle cx="1128" cy="636" r="275" fill="#fde68a" opacity="0.08"/>
  <g filter="url(#softGlow)">
    
      <circle cx="800" cy="455" r="245" fill="none" stroke="#a7f3d0" stroke-width="18" opacity="0.28"/>
      <circle cx="800" cy="455" r="175" fill="none" stroke="#fde68a" stroke-width="12" opacity="0.42"/>
      <text x="800" y="520" text-anchor="middle" font-family="Georgia, 'Noto Serif Devanagari', serif" font-size="230" font-weight="700" fill="#fff7ed" opacity="0.92">ॐ</text>
      <path d="M596 700 C700 624 900 624 1004 700" stroke="#a7f3d0" stroke-width="22" stroke-linecap="round" opacity="0.42" fill="none"/>
    
  </g>
  <g opacity="0.78">
    <rect x="88" y="82" width="1424" height="736" rx="46" fill="none" stroke="#ffffff" stroke-opacity="0.2" stroke-width="2"/>
    <path d="M150 150 C320 82 525 78 720 126" stroke="#fff7ed" stroke-opacity="0.44" stroke-width="7" stroke-linecap="round"/>
    <path d="M1332 710 C1215 775 1005 792 855 752" stroke="#a7f3d0" stroke-opacity="0.42" stroke-width="8" stroke-linecap="round"/>
  </g>
  <g transform="translate(126 714)">
    <rect width="420" height="86" rx="28" fill="#ffffff" opacity="0.12"/>
    <rect x="1" y="1" width="418" height="84" rx="27" fill="none" stroke="#ffffff" stroke-opacity="0.22"/>
    <text x="36" y="56" font-family="Georgia, 'Noto Serif Devanagari', serif" font-size="40" font-weight="700" fill="#fff7ed">ॐ</text>
    <circle cx="352" cy="43" r="15" fill="#a7f3d0" opacity="0.9"/>
  </g>
  <rect width="1600" height="900" filter="url(#grain)" opacity="0.34"/>
</svg>
