<svg xmlns="http://www.w3.org/2000/svg" width="1600" height="900" viewBox="0 0 1600 900" role="img" aria-label="शेषनाग और क्षीर सागर का आध्यात्मिक रहस्य: पौराणिक कथाएँ, महत्व और दार्शनिक संकेत">
  <defs>
    <radialGradient id="bgGlow" cx="50%" cy="43%" r="75%">
      <stop offset="0%" stop-color="#7dd3fc" stop-opacity="0.46"/>
      <stop offset="45%" stop-color="#0f3a5f" stop-opacity="0.92"/>
      <stop offset="100%" stop-color="#06152f"/>
    </radialGradient>
    <linearGradient id="glassPanel" x1="0%" y1="0%" x2="100%" y2="100%">
      <stop offset="0%" stop-color="#ffffff" stop-opacity="0.58"/>
      <stop offset="42%" stop-color="#7dd3fc" stop-opacity="0.22"/>
      <stop offset="100%" stop-color="#ffffff" stop-opacity="0.08"/>
    </linearGradient>
    <radialGradient id="glassOrb" cx="34%" cy="24%" r="68%">
      <stop offset="0%" stop-color="#ffffff" stop-opacity="0.94"/>
      <stop offset="34%" stop-color="#7dd3fc" stop-opacity="0.62"/>
      <stop offset="100%" stop-color="#0f3a5f" stop-opacity="0.22"/>
    </radialGradient>
    <linearGradient id="glassMountain" x1="0%" y1="0%" x2="100%" y2="100%">
      <stop offset="0%" stop-color="#ffffff" stop-opacity="0.48"/>
      <stop offset="100%" stop-color="#7dd3fc" stop-opacity="0.22"/>
    </linearGradient>
    <filter id="softGlow" x="-30%" y="-30%" width="160%" height="160%">
      <feGaussianBlur stdDeviation="18" result="blur"/>
      <feColorMatrix in="blur" type="matrix" values="1 0 0 0 0  0 1 0 0 0  0 0 1 0 0  0 0 0 0.75 0"/>
      <feMerge>
        <feMergeNode/>
        <feMergeNode in="SourceGraphic"/>
      </feMerge>
    </filter>
    <filter id="grain">
      <feTurbulence type="fractalNoise" baseFrequency="0.82" numOctaves="3" seed="754"/>
      <feColorMatrix type="saturate" values="0"/>
      <feComponentTransfer>
        <feFuncA type="table" tableValues="0 0.075"/>
      </feComponentTransfer>
    </filter>
  </defs>
  <rect width="1600" height="900" fill="url(#bgGlow)"/>
  <g opacity="0.72"><circle cx="769" cy="206" r="1.5" fill="#facc15" opacity="0.64" />
<circle cx="750" cy="25" r="2.8" fill="#facc15" opacity="0.33" />
<circle cx="731" cy="568" r="1.3" fill="#facc15" opacity="0.52" />
<circle cx="712" cy="387" r="2.6" fill="#facc15" opacity="0.21" />
<circle cx="845" cy="30" r="1.9" fill="#facc15" opacity="0.38" />
<circle cx="826" cy="749" r="0.8" fill="#facc15" opacity="0.57" />
<circle cx="807" cy="392" r="1.7" fill="#facc15" opacity="0.26" />
<circle cx="788" cy="211" r="3.0" fill="#facc15" opacity="0.45" />
<circle cx="617" cy="754" r="2.3" fill="#facc15" opacity="0.66" />
<circle cx="598" cy="573" r="1.2" fill="#facc15" opacity="0.35" />
<circle cx="1338" cy="55" r="1.2" fill="#facc15" opacity="0.61" />
<circle cx="1357" cy="236" r="2.3" fill="#facc15" opacity="0.42" />
<circle cx="1300" cy="593" r="1.0" fill="#facc15" opacity="0.23" />
<circle cx="1319" cy="774" r="2.1" fill="#facc15" opacity="0.54" />
<circle cx="1262" cy="779" r="1.6" fill="#facc15" opacity="0.35" />
<circle cx="1281" cy="60" r="2.7" fill="#facc15" opacity="0.66" />
<circle cx="1224" cy="417" r="1.4" fill="#facc15" opacity="0.47" />
<circle cx="1243" cy="598" r="2.5" fill="#facc15" opacity="0.28" />
<circle cx="1186" cy="603" r="2.8" fill="#facc15" opacity="0.59" />
<circle cx="1205" cy="784" r="1.5" fill="#facc15" opacity="0.40" />
<circle cx="1329" cy="96" r="1.5" fill="#facc15" opacity="0.44" />
<circle cx="1310" cy="815" r="2.8" fill="#facc15" opacity="0.63" />
<circle cx="1291" cy="634" r="1.3" fill="#facc15" opacity="0.56" />
<circle cx="1272" cy="453" r="2.6" fill="#facc15" opacity="0.25" />
<circle cx="1405" cy="820" r="1.9" fill="#facc15" opacity="0.20" />
<circle cx="1386" cy="639" r="0.8" fill="#facc15" opacity="0.39" />
<circle cx="1367" cy="458" r="1.7" fill="#facc15" opacity="0.32" />
<circle cx="1348" cy="277" r="3.0" fill="#facc15" opacity="0.51" />
<circle cx="1177" cy="448" r="2.3" fill="#facc15" opacity="0.46" />
<circle cx="1158" cy="267" r="1.2" fill="#facc15" opacity="0.65" />
<circle cx="1320" cy="305" r="2.2" fill="#facc15" opacity="0.53" />
<circle cx="1339" cy="486" r="0.9" fill="#facc15" opacity="0.34" />
<circle cx="1358" cy="667" r="2.4" fill="#facc15" opacity="0.41" />
<circle cx="1377" cy="848" r="1.1" fill="#facc15" opacity="0.22" />
<circle cx="1396" cy="129" r="1.8" fill="#facc15" opacity="0.27" />
<circle cx="1415" cy="310" r="2.9" fill="#facc15" opacity="0.58" />
<circle cx="1434" cy="491" r="2.0" fill="#facc15" opacity="0.65" />
<circle cx="1453" cy="672" r="3.1" fill="#facc15" opacity="0.46" />
<circle cx="1168" cy="657" r="3.0" fill="#facc15" opacity="0.55" />
<circle cx="1187" cy="838" r="1.7" fill="#facc15" opacity="0.36" />
<circle cx="1543" cy="750" r="0.9" fill="#facc15" opacity="0.30" />
<circle cx="1524" cy="569" r="2.2" fill="#facc15" opacity="0.49" />
<circle cx="1581" cy="212" r="1.1" fill="#facc15" opacity="0.18" />
<circle cx="1562" cy="31" r="2.4" fill="#facc15" opacity="0.37" />
<circle cx="1467" cy="574" r="2.9" fill="#facc15" opacity="0.56" />
<circle cx="1448" cy="393" r="1.8" fill="#facc15" opacity="0.25" />
<circle cx="1505" cy="36" r="3.1" fill="#facc15" opacity="0.44" />
<circle cx="1486" cy="755" r="2.0" fill="#facc15" opacity="0.63" />
<circle cx="1391" cy="398" r="1.7" fill="#facc15" opacity="0.32" />
<circle cx="1372" cy="217" r="3.0" fill="#facc15" opacity="0.51" />
<circle cx="1598" cy="787" r="1.6" fill="#facc15" opacity="0.39" />
<circle cx="17" cy="68" r="2.7" fill="#facc15" opacity="0.20" />
<circle cx="1560" cy="425" r="1.4" fill="#facc15" opacity="0.51" />
<circle cx="1579" cy="606" r="2.5" fill="#facc15" opacity="0.32" />
<circle cx="74" cy="63" r="1.2" fill="#facc15" opacity="0.65" />
<circle cx="93" cy="244" r="2.3" fill="#facc15" opacity="0.46" />
<circle cx="36" cy="601" r="1.0" fill="#facc15" opacity="0.27" />
<circle cx="55" cy="782" r="2.1" fill="#facc15" opacity="0.58" />
<circle cx="1446" cy="239" r="2.4" fill="#facc15" opacity="0.41" />
<circle cx="1465" cy="420" r="1.1" fill="#facc15" opacity="0.22" />
<circle cx="1589" cy="332" r="1.9" fill="#facc15" opacity="0.48" />
<circle cx="1570" cy="151" r="0.8" fill="#facc15" opacity="0.67" />
<circle cx="1551" cy="870" r="1.7" fill="#facc15" opacity="0.60" />
<circle cx="1532" cy="689" r="3.0" fill="#facc15" opacity="0.29" />
<circle cx="1513" cy="508" r="1.5" fill="#facc15" opacity="0.22" />
<circle cx="1494" cy="327" r="2.8" fill="#facc15" opacity="0.41" />
<circle cx="1475" cy="146" r="1.3" fill="#facc15" opacity="0.34" />
<circle cx="1456" cy="865" r="2.6" fill="#facc15" opacity="0.53" /></g>
  <circle cx="463" cy="252" r="230" fill="#7dd3fc" opacity="0.08"/>
  <circle cx="1141" cy="693" r="275" fill="#facc15" opacity="0.08"/>
  <g filter="url(#softGlow)">
    
      <circle cx="790" cy="430" r="185" fill="none" stroke="#facc15" stroke-width="20" opacity="0.78"/>
      <line x1="790" y1="430" x2="790" y2="245" stroke="#facc15" stroke-width="7" opacity="0.58" transform="rotate(0 790 430)" />
<line x1="790" y1="430" x2="790" y2="245" stroke="#facc15" stroke-width="7" opacity="0.58" transform="rotate(15 790 430)" />
<line x1="790" y1="430" x2="790" y2="245" stroke="#facc15" stroke-width="7" opacity="0.58" transform="rotate(30 790 430)" />
<line x1="790" y1="430" x2="790" y2="245" stroke="#facc15" stroke-width="7" opacity="0.58" transform="rotate(45 790 430)" />
<line x1="790" y1="430" x2="790" y2="245" stroke="#facc15" stroke-width="7" opacity="0.58" transform="rotate(60 790 430)" />
<line x1="790" y1="430" x2="790" y2="245" stroke="#facc15" stroke-width="7" opacity="0.58" transform="rotate(75 790 430)" />
<line x1="790" y1="430" x2="790" y2="245" stroke="#facc15" stroke-width="7" opacity="0.58" transform="rotate(90 790 430)" />
<line x1="790" y1="430" x2="790" y2="245" stroke="#facc15" stroke-width="7" opacity="0.58" transform="rotate(105 790 430)" />
<line x1="790" y1="430" x2="790" y2="245" stroke="#facc15" stroke-width="7" opacity="0.58" transform="rotate(120 790 430)" />
<line x1="790" y1="430" x2="790" y2="245" stroke="#facc15" stroke-width="7" opacity="0.58" transform="rotate(135 790 430)" />
<line x1="790" y1="430" x2="790" y2="245" stroke="#facc15" stroke-width="7" opacity="0.58" transform="rotate(150 790 430)" />
<line x1="790" y1="430" x2="790" y2="245" stroke="#facc15" stroke-width="7" opacity="0.58" transform="rotate(165 790 430)" />
<line x1="790" y1="430" x2="790" y2="245" stroke="#facc15" stroke-width="7" opacity="0.58" transform="rotate(180 790 430)" />
<line x1="790" y1="430" x2="790" y2="245" stroke="#facc15" stroke-width="7" opacity="0.58" transform="rotate(195 790 430)" />
<line x1="790" y1="430" x2="790" y2="245" stroke="#facc15" stroke-width="7" opacity="0.58" transform="rotate(210 790 430)" />
<line x1="790" y1="430" x2="790" y2="245" stroke="#facc15" stroke-width="7" opacity="0.58" transform="rotate(225 790 430)" />
<line x1="790" y1="430" x2="790" y2="245" stroke="#facc15" stroke-width="7" opacity="0.58" transform="rotate(240 790 430)" />
<line x1="790" y1="430" x2="790" y2="245" stroke="#facc15" stroke-width="7" opacity="0.58" transform="rotate(255 790 430)" />
<line x1="790" y1="430" x2="790" y2="245" stroke="#facc15" stroke-width="7" opacity="0.58" transform="rotate(270 790 430)" />
<line x1="790" y1="430" x2="790" y2="245" stroke="#facc15" stroke-width="7" opacity="0.58" transform="rotate(285 790 430)" />
<line x1="790" y1="430" x2="790" y2="245" stroke="#facc15" stroke-width="7" opacity="0.58" transform="rotate(300 790 430)" />
<line x1="790" y1="430" x2="790" y2="245" stroke="#facc15" stroke-width="7" opacity="0.58" transform="rotate(315 790 430)" />
<line x1="790" y1="430" x2="790" y2="245" stroke="#facc15" stroke-width="7" opacity="0.58" transform="rotate(330 790 430)" />
<line x1="790" y1="430" x2="790" y2="245" stroke="#facc15" stroke-width="7" opacity="0.58" transform="rotate(345 790 430)" />
      <circle cx="790" cy="430" r="64" fill="url(#glassOrb)" opacity="0.92"/>
      <path d="M545 585 C660 525 940 525 1055 585 C975 655 625 655 545 585 Z" fill="#7dd3fc" opacity="0.18"/>
    
  </g>
  <g opacity="0.78">
    <rect x="88" y="82" width="1424" height="736" rx="46" fill="none" stroke="#ffffff" stroke-opacity="0.2" stroke-width="2"/>
    <path d="M150 150 C320 82 525 78 720 126" stroke="#fff7ed" stroke-opacity="0.44" stroke-width="7" stroke-linecap="round"/>
    <path d="M1332 710 C1215 775 1005 792 855 752" stroke="#7dd3fc" stroke-opacity="0.42" stroke-width="8" stroke-linecap="round"/>
  </g>
  <g transform="translate(126 714)">
    <rect width="420" height="86" rx="28" fill="#ffffff" opacity="0.12"/>
    <rect x="1" y="1" width="418" height="84" rx="27" fill="none" stroke="#ffffff" stroke-opacity="0.22"/>
    <text x="36" y="56" font-family="Georgia, 'Noto Serif Devanagari', serif" font-size="40" font-weight="700" fill="#fff7ed">चक्र</text>
    <circle cx="352" cy="43" r="15" fill="#7dd3fc" opacity="0.9"/>
  </g>
  <rect width="1600" height="900" filter="url(#grain)" opacity="0.34"/>
</svg>
