<svg xmlns="http://www.w3.org/2000/svg" width="1600" height="900" viewBox="0 0 1600 900" role="img" aria-label="शिव पुराण से जानें जीवन के 5 गहरे और कल्याणकारी रहस्य: पंचाक्षरी मंत्र, भस्म और रुद्राक्ष का विज्ञान">
  <defs>
    <radialGradient id="bgGlow" cx="50%" cy="43%" r="75%">
      <stop offset="0%" stop-color="#6ee7f9" stop-opacity="0.46"/>
      <stop offset="45%" stop-color="#19233f" stop-opacity="0.92"/>
      <stop offset="100%" stop-color="#07111f"/>
    </radialGradient>
    <linearGradient id="glassPanel" x1="0%" y1="0%" x2="100%" y2="100%">
      <stop offset="0%" stop-color="#ffffff" stop-opacity="0.58"/>
      <stop offset="42%" stop-color="#6ee7f9" stop-opacity="0.22"/>
      <stop offset="100%" stop-color="#ffffff" stop-opacity="0.08"/>
    </linearGradient>
    <radialGradient id="glassOrb" cx="34%" cy="24%" r="68%">
      <stop offset="0%" stop-color="#ffffff" stop-opacity="0.94"/>
      <stop offset="34%" stop-color="#6ee7f9" stop-opacity="0.62"/>
      <stop offset="100%" stop-color="#19233f" stop-opacity="0.22"/>
    </radialGradient>
    <linearGradient id="glassMountain" x1="0%" y1="0%" x2="100%" y2="100%">
      <stop offset="0%" stop-color="#ffffff" stop-opacity="0.48"/>
      <stop offset="100%" stop-color="#6ee7f9" stop-opacity="0.22"/>
    </linearGradient>
    <filter id="softGlow" x="-30%" y="-30%" width="160%" height="160%">
      <feGaussianBlur stdDeviation="18" result="blur"/>
      <feColorMatrix in="blur" type="matrix" values="1 0 0 0 0  0 1 0 0 0  0 0 1 0 0  0 0 0 0.75 0"/>
      <feMerge>
        <feMergeNode/>
        <feMergeNode in="SourceGraphic"/>
      </feMerge>
    </filter>
    <filter id="grain">
      <feTurbulence type="fractalNoise" baseFrequency="0.82" numOctaves="3" seed="185"/>
      <feColorMatrix type="saturate" values="0"/>
      <feComponentTransfer>
        <feFuncA type="table" tableValues="0 0.075"/>
      </feComponentTransfer>
    </filter>
  </defs>
  <rect width="1600" height="900" fill="url(#bgGlow)"/>
  <g opacity="0.72"><circle cx="445" cy="174" r="1.9" fill="#c4b5fd" opacity="0.22" />
<circle cx="426" cy="893" r="0.8" fill="#c4b5fd" opacity="0.41" />
<circle cx="407" cy="536" r="1.7" fill="#c4b5fd" opacity="0.60" />
<circle cx="388" cy="355" r="3.0" fill="#c4b5fd" opacity="0.29" />
<circle cx="369" cy="350" r="1.5" fill="#c4b5fd" opacity="0.48" />
<circle cx="350" cy="169" r="2.8" fill="#c4b5fd" opacity="0.67" />
<circle cx="331" cy="712" r="1.3" fill="#c4b5fd" opacity="0.36" />
<circle cx="312" cy="531" r="2.6" fill="#c4b5fd" opacity="0.55" />
<circle cx="293" cy="526" r="1.1" fill="#c4b5fd" opacity="0.24" />
<circle cx="274" cy="345" r="2.4" fill="#c4b5fd" opacity="0.43" />
<circle cx="1198" cy="835" r="2.4" fill="#c4b5fd" opacity="0.19" />
<circle cx="1217" cy="116" r="1.1" fill="#c4b5fd" opacity="0.50" />
<circle cx="1160" cy="473" r="2.2" fill="#c4b5fd" opacity="0.31" />
<circle cx="1179" cy="654" r="0.9" fill="#c4b5fd" opacity="0.62" />
<circle cx="1274" cy="111" r="2.0" fill="#c4b5fd" opacity="0.45" />
<circle cx="1293" cy="292" r="3.1" fill="#c4b5fd" opacity="0.26" />
<circle cx="1236" cy="649" r="1.8" fill="#c4b5fd" opacity="0.57" />
<circle cx="1255" cy="830" r="2.9" fill="#c4b5fd" opacity="0.38" />
<circle cx="1046" cy="483" r="1.6" fill="#c4b5fd" opacity="0.21" />
<circle cx="1065" cy="664" r="2.7" fill="#c4b5fd" opacity="0.52" />
<circle cx="1189" cy="876" r="1.9" fill="#c4b5fd" opacity="0.28" />
<circle cx="1170" cy="695" r="0.8" fill="#c4b5fd" opacity="0.47" />
<circle cx="1151" cy="514" r="1.7" fill="#c4b5fd" opacity="0.40" />
<circle cx="1132" cy="333" r="3.0" fill="#c4b5fd" opacity="0.59" />
<circle cx="1113" cy="152" r="1.5" fill="#c4b5fd" opacity="0.52" />
<circle cx="1094" cy="871" r="2.8" fill="#c4b5fd" opacity="0.21" />
<circle cx="1075" cy="690" r="1.3" fill="#c4b5fd" opacity="0.64" />
<circle cx="1056" cy="509" r="2.6" fill="#c4b5fd" opacity="0.33" />
<circle cx="1341" cy="328" r="2.7" fill="#c4b5fd" opacity="0.30" />
<circle cx="1322" cy="147" r="1.6" fill="#c4b5fd" opacity="0.49" />
<circle cx="1180" cy="417" r="1.0" fill="#c4b5fd" opacity="0.37" />
<circle cx="1199" cy="598" r="2.1" fill="#c4b5fd" opacity="0.18" />
<circle cx="1218" cy="779" r="1.2" fill="#c4b5fd" opacity="0.25" />
<circle cx="1237" cy="60" r="2.3" fill="#c4b5fd" opacity="0.56" />
<circle cx="1104" cy="593" r="1.4" fill="#c4b5fd" opacity="0.63" />
<circle cx="1123" cy="774" r="2.5" fill="#c4b5fd" opacity="0.44" />
<circle cx="1142" cy="55" r="1.6" fill="#c4b5fd" opacity="0.55" />
<circle cx="1161" cy="236" r="2.7" fill="#c4b5fd" opacity="0.32" />
<circle cx="1332" cy="769" r="2.6" fill="#c4b5fd" opacity="0.35" />
<circle cx="1351" cy="50" r="1.3" fill="#c4b5fd" opacity="0.66" />
<circle cx="1235" cy="390" r="2.9" fill="#c4b5fd" opacity="0.32" />
<circle cx="1216" cy="209" r="1.8" fill="#c4b5fd" opacity="0.51" />
<circle cx="1273" cy="752" r="3.1" fill="#c4b5fd" opacity="0.20" />
<circle cx="1254" cy="571" r="2.0" fill="#c4b5fd" opacity="0.39" />
<circle cx="1311" cy="566" r="0.9" fill="#c4b5fd" opacity="0.56" />
<circle cx="1292" cy="385" r="2.2" fill="#c4b5fd" opacity="0.25" />
<circle cx="1349" cy="28" r="1.1" fill="#c4b5fd" opacity="0.44" />
<circle cx="1330" cy="747" r="2.4" fill="#c4b5fd" opacity="0.63" />
<circle cx="1387" cy="742" r="1.3" fill="#c4b5fd" opacity="0.30" />
<circle cx="1368" cy="561" r="2.6" fill="#c4b5fd" opacity="0.49" />
<circle cx="234" cy="599" r="1.2" fill="#c4b5fd" opacity="0.41" />
<circle cx="253" cy="780" r="2.3" fill="#c4b5fd" opacity="0.22" />
<circle cx="196" cy="237" r="1.0" fill="#c4b5fd" opacity="0.53" />
<circle cx="215" cy="418" r="2.1" fill="#c4b5fd" opacity="0.34" />
<circle cx="158" cy="423" r="1.6" fill="#c4b5fd" opacity="0.65" />
<circle cx="177" cy="604" r="2.7" fill="#c4b5fd" opacity="0.46" />
<circle cx="120" cy="61" r="1.4" fill="#c4b5fd" opacity="0.27" />
<circle cx="139" cy="242" r="2.5" fill="#c4b5fd" opacity="0.58" />
<circle cx="82" cy="51" r="2.0" fill="#c4b5fd" opacity="0.39" />
<circle cx="101" cy="232" r="3.1" fill="#c4b5fd" opacity="0.20" />
<circle cx="225" cy="144" r="2.3" fill="#c4b5fd" opacity="0.42" />
<circle cx="206" cy="863" r="1.2" fill="#c4b5fd" opacity="0.61" />
<circle cx="187" cy="682" r="2.1" fill="#c4b5fd" opacity="0.54" />
<circle cx="168" cy="501" r="1.0" fill="#c4b5fd" opacity="0.23" />
<circle cx="301" cy="868" r="2.7" fill="#c4b5fd" opacity="0.18" />
<circle cx="282" cy="687" r="1.6" fill="#c4b5fd" opacity="0.37" />
<circle cx="263" cy="506" r="2.5" fill="#c4b5fd" opacity="0.30" />
<circle cx="244" cy="325" r="1.4" fill="#c4b5fd" opacity="0.49" /></g>
  <circle cx="503" cy="272" r="230" fill="#6ee7f9" opacity="0.08"/>
  <circle cx="1081" cy="625" r="275" fill="#c4b5fd" opacity="0.08"/>
  <g filter="url(#softGlow)">
    
      <path d="M0 760 L260 430 L420 630 L620 315 L860 710 L1100 390 L1370 760 Z" fill="url(#glassMountain)" opacity="0.72"/>
      <path d="M586 360 L620 315 L654 360 L632 350 L620 385 L607 350 Z" fill="#f8fafc" opacity="0.88"/>
      <path d="M1062 442 L1100 390 L1140 446 L1118 432 L1100 472 L1084 432 Z" fill="#f8fafc" opacity="0.82"/>
      <path d="M778 225 v285 M708 332 h140 M738 275 q40 28 80 0" stroke="#c4b5fd" stroke-width="22" stroke-linecap="round" fill="none" opacity="0.84"/>
    
  </g>
  <g opacity="0.78">
    <rect x="88" y="82" width="1424" height="736" rx="46" fill="none" stroke="#ffffff" stroke-opacity="0.2" stroke-width="2"/>
    <path d="M150 150 C320 82 525 78 720 126" stroke="#fff7ed" stroke-opacity="0.44" stroke-width="7" stroke-linecap="round"/>
    <path d="M1332 710 C1215 775 1005 792 855 752" stroke="#6ee7f9" stroke-opacity="0.42" stroke-width="8" stroke-linecap="round"/>
  </g>
  <g transform="translate(126 714)">
    <rect width="420" height="86" rx="28" fill="#ffffff" opacity="0.12"/>
    <rect x="1" y="1" width="418" height="84" rx="27" fill="none" stroke="#ffffff" stroke-opacity="0.22"/>
    <text x="36" y="56" font-family="Georgia, 'Noto Serif Devanagari', serif" font-size="40" font-weight="700" fill="#fff7ed">त्रिशूल</text>
    <circle cx="352" cy="43" r="15" fill="#6ee7f9" opacity="0.9"/>
  </g>
  <rect width="1600" height="900" filter="url(#grain)" opacity="0.34"/>
</svg>
