<svg xmlns="http://www.w3.org/2000/svg" width="1600" height="900" viewBox="0 0 1600 900" role="img" aria-label="श्रीमद्भागवत महापुराण: भक्ति का महासागर, श्री कृष्ण की लीलाएँ और मोक्ष प्राप्ति का सरल मार्ग">
  <defs>
    <radialGradient id="bgGlow" cx="50%" cy="43%" r="75%">
      <stop offset="0%" stop-color="#7dd3fc" stop-opacity="0.46"/>
      <stop offset="45%" stop-color="#0f3a5f" stop-opacity="0.92"/>
      <stop offset="100%" stop-color="#06152f"/>
    </radialGradient>
    <linearGradient id="glassPanel" x1="0%" y1="0%" x2="100%" y2="100%">
      <stop offset="0%" stop-color="#ffffff" stop-opacity="0.58"/>
      <stop offset="42%" stop-color="#7dd3fc" stop-opacity="0.22"/>
      <stop offset="100%" stop-color="#ffffff" stop-opacity="0.08"/>
    </linearGradient>
    <radialGradient id="glassOrb" cx="34%" cy="24%" r="68%">
      <stop offset="0%" stop-color="#ffffff" stop-opacity="0.94"/>
      <stop offset="34%" stop-color="#7dd3fc" stop-opacity="0.62"/>
      <stop offset="100%" stop-color="#0f3a5f" stop-opacity="0.22"/>
    </radialGradient>
    <linearGradient id="glassMountain" x1="0%" y1="0%" x2="100%" y2="100%">
      <stop offset="0%" stop-color="#ffffff" stop-opacity="0.48"/>
      <stop offset="100%" stop-color="#7dd3fc" stop-opacity="0.22"/>
    </linearGradient>
    <filter id="softGlow" x="-30%" y="-30%" width="160%" height="160%">
      <feGaussianBlur stdDeviation="18" result="blur"/>
      <feColorMatrix in="blur" type="matrix" values="1 0 0 0 0  0 1 0 0 0  0 0 1 0 0  0 0 0 0.75 0"/>
      <feMerge>
        <feMergeNode/>
        <feMergeNode in="SourceGraphic"/>
      </feMerge>
    </filter>
    <filter id="grain">
      <feTurbulence type="fractalNoise" baseFrequency="0.82" numOctaves="3" seed="71"/>
      <feColorMatrix type="saturate" values="0"/>
      <feComponentTransfer>
        <feFuncA type="table" tableValues="0 0.075"/>
      </feComponentTransfer>
    </filter>
  </defs>
  <rect width="1600" height="900" fill="url(#bgGlow)"/>
  <g opacity="0.72"><circle cx="35" cy="640" r="2.1" fill="#facc15" opacity="0.42" />
<circle cx="16" cy="459" r="1.0" fill="#facc15" opacity="0.61" />
<circle cx="73" cy="278" r="2.3" fill="#facc15" opacity="0.54" />
<circle cx="54" cy="97" r="1.2" fill="#facc15" opacity="0.23" />
<circle cx="111" cy="464" r="2.5" fill="#facc15" opacity="0.66" />
<circle cx="92" cy="283" r="1.4" fill="#facc15" opacity="0.35" />
<circle cx="149" cy="102" r="2.7" fill="#facc15" opacity="0.28" />
<circle cx="130" cy="821" r="1.6" fill="#facc15" opacity="0.47" />
<circle cx="187" cy="288" r="2.9" fill="#facc15" opacity="0.44" />
<circle cx="168" cy="107" r="1.8" fill="#facc15" opacity="0.63" />
<circle cx="32" cy="29" r="2.2" fill="#facc15" opacity="0.35" />
<circle cx="51" cy="210" r="0.9" fill="#facc15" opacity="0.66" />
<circle cx="70" cy="391" r="2.4" fill="#facc15" opacity="0.23" />
<circle cx="89" cy="572" r="1.1" fill="#facc15" opacity="0.54" />
<circle cx="108" cy="753" r="1.8" fill="#facc15" opacity="0.59" />
<circle cx="127" cy="34" r="2.9" fill="#facc15" opacity="0.40" />
<circle cx="146" cy="215" r="2.0" fill="#facc15" opacity="0.47" />
<circle cx="165" cy="396" r="3.1" fill="#facc15" opacity="0.28" />
<circle cx="184" cy="381" r="3.0" fill="#facc15" opacity="0.37" />
<circle cx="203" cy="562" r="1.7" fill="#facc15" opacity="0.18" />
<circle cx="891" cy="238" r="2.9" fill="#facc15" opacity="0.30" />
<circle cx="872" cy="57" r="1.8" fill="#facc15" opacity="0.49" />
<circle cx="929" cy="600" r="3.1" fill="#facc15" opacity="0.18" />
<circle cx="910" cy="419" r="2.0" fill="#facc15" opacity="0.37" />
<circle cx="967" cy="414" r="0.9" fill="#facc15" opacity="0.54" />
<circle cx="948" cy="233" r="2.2" fill="#facc15" opacity="0.23" />
<circle cx="1005" cy="776" r="1.1" fill="#facc15" opacity="0.42" />
<circle cx="986" cy="595" r="2.4" fill="#facc15" opacity="0.61" />
<circle cx="739" cy="786" r="2.1" fill="#facc15" opacity="0.28" />
<circle cx="720" cy="605" r="1.0" fill="#facc15" opacity="0.47" />
<circle cx="50" cy="679" r="1.2" fill="#facc15" opacity="0.39" />
<circle cx="69" cy="860" r="2.3" fill="#facc15" opacity="0.20" />
<circle cx="12" cy="317" r="1.0" fill="#facc15" opacity="0.51" />
<circle cx="31" cy="498" r="2.1" fill="#facc15" opacity="0.32" />
<circle cx="1574" cy="503" r="1.6" fill="#facc15" opacity="0.63" />
<circle cx="1593" cy="684" r="2.7" fill="#facc15" opacity="0.44" />
<circle cx="1536" cy="141" r="1.4" fill="#facc15" opacity="0.25" />
<circle cx="1555" cy="322" r="2.5" fill="#facc15" opacity="0.56" />
<circle cx="202" cy="327" r="2.8" fill="#facc15" opacity="0.37" />
<circle cx="221" cy="508" r="1.5" fill="#facc15" opacity="0.18" />
<circle cx="909" cy="56" r="1.9" fill="#facc15" opacity="0.62" />
<circle cx="890" cy="775" r="0.8" fill="#facc15" opacity="0.31" />
<circle cx="871" cy="594" r="1.7" fill="#facc15" opacity="0.24" />
<circle cx="852" cy="413" r="3.0" fill="#facc15" opacity="0.43" />
<circle cx="833" cy="232" r="1.5" fill="#facc15" opacity="0.36" />
<circle cx="814" cy="51" r="2.8" fill="#facc15" opacity="0.55" />
<circle cx="795" cy="770" r="1.3" fill="#facc15" opacity="0.48" />
<circle cx="776" cy="589" r="2.6" fill="#facc15" opacity="0.67" />
<circle cx="757" cy="604" r="1.1" fill="#facc15" opacity="0.64" />
<circle cx="738" cy="423" r="2.4" fill="#facc15" opacity="0.33" />
<circle cx="900" cy="265" r="1.8" fill="#facc15" opacity="0.21" />
<circle cx="919" cy="446" r="2.9" fill="#facc15" opacity="0.52" />
<circle cx="938" cy="627" r="2.0" fill="#facc15" opacity="0.59" />
<circle cx="957" cy="808" r="3.1" fill="#facc15" opacity="0.40" />
<circle cx="824" cy="441" r="2.2" fill="#facc15" opacity="0.47" />
<circle cx="843" cy="622" r="0.9" fill="#facc15" opacity="0.28" />
<circle cx="862" cy="803" r="2.4" fill="#facc15" opacity="0.35" />
<circle cx="881" cy="84" r="1.1" fill="#facc15" opacity="0.66" />
<circle cx="748" cy="813" r="2.6" fill="#facc15" opacity="0.19" />
<circle cx="767" cy="94" r="1.3" fill="#facc15" opacity="0.50" />
<circle cx="255" cy="474" r="2.5" fill="#facc15" opacity="0.62" />
<circle cx="236" cy="293" r="1.4" fill="#facc15" opacity="0.31" />
<circle cx="293" cy="836" r="2.7" fill="#facc15" opacity="0.50" />
<circle cx="274" cy="655" r="1.6" fill="#facc15" opacity="0.19" />
<circle cx="179" cy="298" r="2.1" fill="#facc15" opacity="0.38" />
<circle cx="160" cy="117" r="1.0" fill="#facc15" opacity="0.57" />
<circle cx="217" cy="660" r="2.3" fill="#facc15" opacity="0.26" />
<circle cx="198" cy="479" r="1.2" fill="#facc15" opacity="0.45" /></g>
  <circle cx="473" cy="306" r="230" fill="#7dd3fc" opacity="0.08"/>
  <circle cx="1115" cy="625" r="275" fill="#facc15" opacity="0.08"/>
  <g filter="url(#softGlow)">
    
      <circle cx="794" cy="430" r="185" fill="none" stroke="#facc15" stroke-width="20" opacity="0.78"/>
      <line x1="794" y1="430" x2="794" y2="245" stroke="#facc15" stroke-width="7" opacity="0.58" transform="rotate(0 794 430)" />
<line x1="794" y1="430" x2="794" y2="245" stroke="#facc15" stroke-width="7" opacity="0.58" transform="rotate(15 794 430)" />
<line x1="794" y1="430" x2="794" y2="245" stroke="#facc15" stroke-width="7" opacity="0.58" transform="rotate(30 794 430)" />
<line x1="794" y1="430" x2="794" y2="245" stroke="#facc15" stroke-width="7" opacity="0.58" transform="rotate(45 794 430)" />
<line x1="794" y1="430" x2="794" y2="245" stroke="#facc15" stroke-width="7" opacity="0.58" transform="rotate(60 794 430)" />
<line x1="794" y1="430" x2="794" y2="245" stroke="#facc15" stroke-width="7" opacity="0.58" transform="rotate(75 794 430)" />
<line x1="794" y1="430" x2="794" y2="245" stroke="#facc15" stroke-width="7" opacity="0.58" transform="rotate(90 794 430)" />
<line x1="794" y1="430" x2="794" y2="245" stroke="#facc15" stroke-width="7" opacity="0.58" transform="rotate(105 794 430)" />
<line x1="794" y1="430" x2="794" y2="245" stroke="#facc15" stroke-width="7" opacity="0.58" transform="rotate(120 794 430)" />
<line x1="794" y1="430" x2="794" y2="245" stroke="#facc15" stroke-width="7" opacity="0.58" transform="rotate(135 794 430)" />
<line x1="794" y1="430" x2="794" y2="245" stroke="#facc15" stroke-width="7" opacity="0.58" transform="rotate(150 794 430)" />
<line x1="794" y1="430" x2="794" y2="245" stroke="#facc15" stroke-width="7" opacity="0.58" transform="rotate(165 794 430)" />
<line x1="794" y1="430" x2="794" y2="245" stroke="#facc15" stroke-width="7" opacity="0.58" transform="rotate(180 794 430)" />
<line x1="794" y1="430" x2="794" y2="245" stroke="#facc15" stroke-width="7" opacity="0.58" transform="rotate(195 794 430)" />
<line x1="794" y1="430" x2="794" y2="245" stroke="#facc15" stroke-width="7" opacity="0.58" transform="rotate(210 794 430)" />
<line x1="794" y1="430" x2="794" y2="245" stroke="#facc15" stroke-width="7" opacity="0.58" transform="rotate(225 794 430)" />
<line x1="794" y1="430" x2="794" y2="245" stroke="#facc15" stroke-width="7" opacity="0.58" transform="rotate(240 794 430)" />
<line x1="794" y1="430" x2="794" y2="245" stroke="#facc15" stroke-width="7" opacity="0.58" transform="rotate(255 794 430)" />
<line x1="794" y1="430" x2="794" y2="245" stroke="#facc15" stroke-width="7" opacity="0.58" transform="rotate(270 794 430)" />
<line x1="794" y1="430" x2="794" y2="245" stroke="#facc15" stroke-width="7" opacity="0.58" transform="rotate(285 794 430)" />
<line x1="794" y1="430" x2="794" y2="245" stroke="#facc15" stroke-width="7" opacity="0.58" transform="rotate(300 794 430)" />
<line x1="794" y1="430" x2="794" y2="245" stroke="#facc15" stroke-width="7" opacity="0.58" transform="rotate(315 794 430)" />
<line x1="794" y1="430" x2="794" y2="245" stroke="#facc15" stroke-width="7" opacity="0.58" transform="rotate(330 794 430)" />
<line x1="794" y1="430" x2="794" y2="245" stroke="#facc15" stroke-width="7" opacity="0.58" transform="rotate(345 794 430)" />
      <circle cx="794" cy="430" r="64" fill="url(#glassOrb)" opacity="0.92"/>
      <path d="M545 585 C660 525 940 525 1055 585 C975 655 625 655 545 585 Z" fill="#7dd3fc" opacity="0.18"/>
    
  </g>
  <g opacity="0.78">
    <rect x="88" y="82" width="1424" height="736" rx="46" fill="none" stroke="#ffffff" stroke-opacity="0.2" stroke-width="2"/>
    <path d="M150 150 C320 82 525 78 720 126" stroke="#fff7ed" stroke-opacity="0.44" stroke-width="7" stroke-linecap="round"/>
    <path d="M1332 710 C1215 775 1005 792 855 752" stroke="#7dd3fc" stroke-opacity="0.42" stroke-width="8" stroke-linecap="round"/>
  </g>
  <g transform="translate(126 714)">
    <rect width="420" height="86" rx="28" fill="#ffffff" opacity="0.12"/>
    <rect x="1" y="1" width="418" height="84" rx="27" fill="none" stroke="#ffffff" stroke-opacity="0.22"/>
    <text x="36" y="56" font-family="Georgia, 'Noto Serif Devanagari', serif" font-size="40" font-weight="700" fill="#fff7ed">चक्र</text>
    <circle cx="352" cy="43" r="15" fill="#7dd3fc" opacity="0.9"/>
  </g>
  <rect width="1600" height="900" filter="url(#grain)" opacity="0.34"/>
</svg>
