<svg xmlns="http://www.w3.org/2000/svg" width="1600" height="900" viewBox="0 0 1600 900" role="img" aria-label="स्कंद पुराण: सबसे विशाल पुराण, भारत के पवित्र तीर्थ स्थल, काशी, केदारनाथ और पुरी की महिमा">
  <defs>
    <radialGradient id="bgGlow" cx="50%" cy="43%" r="75%">
      <stop offset="0%" stop-color="#fcd34d" stop-opacity="0.46"/>
      <stop offset="45%" stop-color="#5b3311" stop-opacity="0.92"/>
      <stop offset="100%" stop-color="#201104"/>
    </radialGradient>
    <linearGradient id="glassPanel" x1="0%" y1="0%" x2="100%" y2="100%">
      <stop offset="0%" stop-color="#ffffff" stop-opacity="0.58"/>
      <stop offset="42%" stop-color="#fcd34d" stop-opacity="0.22"/>
      <stop offset="100%" stop-color="#ffffff" stop-opacity="0.08"/>
    </linearGradient>
    <radialGradient id="glassOrb" cx="34%" cy="24%" r="68%">
      <stop offset="0%" stop-color="#ffffff" stop-opacity="0.94"/>
      <stop offset="34%" stop-color="#fcd34d" stop-opacity="0.62"/>
      <stop offset="100%" stop-color="#5b3311" stop-opacity="0.22"/>
    </radialGradient>
    <linearGradient id="glassMountain" x1="0%" y1="0%" x2="100%" y2="100%">
      <stop offset="0%" stop-color="#ffffff" stop-opacity="0.48"/>
      <stop offset="100%" stop-color="#fcd34d" stop-opacity="0.22"/>
    </linearGradient>
    <filter id="softGlow" x="-30%" y="-30%" width="160%" height="160%">
      <feGaussianBlur stdDeviation="18" result="blur"/>
      <feColorMatrix in="blur" type="matrix" values="1 0 0 0 0  0 1 0 0 0  0 0 1 0 0  0 0 0 0.75 0"/>
      <feMerge>
        <feMergeNode/>
        <feMergeNode in="SourceGraphic"/>
      </feMerge>
    </filter>
    <filter id="grain">
      <feTurbulence type="fractalNoise" baseFrequency="0.82" numOctaves="3" seed="338"/>
      <feColorMatrix type="saturate" values="0"/>
      <feComponentTransfer>
        <feFuncA type="table" tableValues="0 0.075"/>
      </feComponentTransfer>
    </filter>
  </defs>
  <rect width="1600" height="900" fill="url(#bgGlow)"/>
  <g opacity="0.72"><circle cx="1488" cy="107" r="1.0" fill="#fb923c" opacity="0.23" />
<circle cx="1507" cy="288" r="2.1" fill="#fb923c" opacity="0.54" />
<circle cx="1526" cy="645" r="1.2" fill="#fb923c" opacity="0.35" />
<circle cx="1545" cy="826" r="2.3" fill="#fb923c" opacity="0.66" />
<circle cx="1564" cy="831" r="1.4" fill="#fb923c" opacity="0.47" />
<circle cx="1583" cy="112" r="2.5" fill="#fb923c" opacity="0.28" />
<circle cx="2" cy="469" r="1.6" fill="#fb923c" opacity="0.59" />
<circle cx="21" cy="650" r="2.7" fill="#fb923c" opacity="0.40" />
<circle cx="40" cy="459" r="2.6" fill="#fb923c" opacity="0.21" />
<circle cx="59" cy="640" r="1.3" fill="#fb923c" opacity="0.52" />
<circle cx="1577" cy="692" r="3.1" fill="#fb923c" opacity="0.52" />
<circle cx="1558" cy="511" r="2.0" fill="#fb923c" opacity="0.21" />
<circle cx="1539" cy="330" r="2.9" fill="#fb923c" opacity="0.64" />
<circle cx="1520" cy="149" r="1.8" fill="#fb923c" opacity="0.33" />
<circle cx="53" cy="516" r="1.1" fill="#fb923c" opacity="0.28" />
<circle cx="34" cy="335" r="2.4" fill="#fb923c" opacity="0.47" />
<circle cx="15" cy="154" r="0.9" fill="#fb923c" opacity="0.40" />
<circle cx="1596" cy="873" r="2.2" fill="#fb923c" opacity="0.59" />
<circle cx="129" cy="340" r="2.3" fill="#fb923c" opacity="0.50" />
<circle cx="110" cy="159" r="1.2" fill="#fb923c" opacity="0.19" />
<circle cx="1586" cy="247" r="2.0" fill="#fb923c" opacity="0.43" />
<circle cx="5" cy="428" r="3.1" fill="#fb923c" opacity="0.24" />
<circle cx="1548" cy="785" r="1.8" fill="#fb923c" opacity="0.55" />
<circle cx="1567" cy="66" r="2.9" fill="#fb923c" opacity="0.36" />
<circle cx="1510" cy="71" r="2.4" fill="#fb923c" opacity="0.67" />
<circle cx="1529" cy="252" r="1.1" fill="#fb923c" opacity="0.48" />
<circle cx="1472" cy="609" r="2.2" fill="#fb923c" opacity="0.29" />
<circle cx="1491" cy="790" r="0.9" fill="#fb923c" opacity="0.60" />
<circle cx="138" cy="599" r="2.8" fill="#fb923c" opacity="0.45" />
<circle cx="157" cy="780" r="1.5" fill="#fb923c" opacity="0.26" />
<circle cx="827" cy="38" r="1.3" fill="#fb923c" opacity="0.48" />
<circle cx="808" cy="757" r="2.6" fill="#fb923c" opacity="0.67" />
<circle cx="865" cy="400" r="1.5" fill="#fb923c" opacity="0.36" />
<circle cx="846" cy="219" r="2.8" fill="#fb923c" opacity="0.55" />
<circle cx="903" cy="214" r="1.7" fill="#fb923c" opacity="0.22" />
<circle cx="884" cy="33" r="3.0" fill="#fb923c" opacity="0.41" />
<circle cx="941" cy="576" r="1.9" fill="#fb923c" opacity="0.60" />
<circle cx="922" cy="395" r="0.8" fill="#fb923c" opacity="0.29" />
<circle cx="675" cy="390" r="2.1" fill="#fb923c" opacity="0.50" />
<circle cx="656" cy="209" r="1.0" fill="#fb923c" opacity="0.19" />
<circle cx="836" cy="733" r="1.0" fill="#fb923c" opacity="0.39" />
<circle cx="855" cy="14" r="2.1" fill="#fb923c" opacity="0.20" />
<circle cx="874" cy="195" r="1.2" fill="#fb923c" opacity="0.27" />
<circle cx="893" cy="376" r="2.3" fill="#fb923c" opacity="0.58" />
<circle cx="760" cy="9" r="1.4" fill="#fb923c" opacity="0.65" />
<circle cx="779" cy="190" r="2.5" fill="#fb923c" opacity="0.46" />
<circle cx="798" cy="371" r="1.6" fill="#fb923c" opacity="0.53" />
<circle cx="817" cy="552" r="2.7" fill="#fb923c" opacity="0.34" />
<circle cx="684" cy="185" r="2.6" fill="#fb923c" opacity="0.41" />
<circle cx="703" cy="366" r="1.3" fill="#fb923c" opacity="0.22" />
<circle cx="845" cy="524" r="2.7" fill="#fb923c" opacity="0.38" />
<circle cx="826" cy="343" r="1.6" fill="#fb923c" opacity="0.57" />
<circle cx="807" cy="162" r="2.5" fill="#fb923c" opacity="0.50" />
<circle cx="788" cy="881" r="1.4" fill="#fb923c" opacity="0.19" />
<circle cx="769" cy="700" r="2.3" fill="#fb923c" opacity="0.62" />
<circle cx="750" cy="519" r="1.2" fill="#fb923c" opacity="0.31" />
<circle cx="731" cy="338" r="2.1" fill="#fb923c" opacity="0.24" />
<circle cx="712" cy="157" r="1.0" fill="#fb923c" opacity="0.43" />
<circle cx="693" cy="876" r="1.1" fill="#fb923c" opacity="0.36" />
<circle cx="674" cy="695" r="2.4" fill="#fb923c" opacity="0.55" />
<circle cx="182" cy="483" r="0.8" fill="#fb923c" opacity="0.47" />
<circle cx="201" cy="664" r="1.9" fill="#fb923c" opacity="0.28" />
<circle cx="144" cy="121" r="3.0" fill="#fb923c" opacity="0.59" />
<circle cx="163" cy="302" r="1.7" fill="#fb923c" opacity="0.40" />
<circle cx="258" cy="659" r="2.8" fill="#fb923c" opacity="0.23" />
<circle cx="277" cy="840" r="1.5" fill="#fb923c" opacity="0.54" />
<circle cx="220" cy="297" r="2.6" fill="#fb923c" opacity="0.35" />
<circle cx="239" cy="478" r="1.3" fill="#fb923c" opacity="0.66" /></g>
  <circle cx="490" cy="281" r="230" fill="#fcd34d" opacity="0.08"/>
  <circle cx="1132" cy="708" r="275" fill="#fb923c" opacity="0.08"/>
  <g filter="url(#softGlow)">
    
      <path d="M520 300 h560 a44 44 0 0 1 44 44 v280 a44 44 0 0 1 -44 44 H520 a44 44 0 0 1 -44 -44 V344 a44 44 0 0 1 44 -44 Z" fill="url(#glassPanel)" opacity="0.72"/>
      <path d="M800 320 v330" stroke="#fff7ed" stroke-width="9" opacity="0.48"/>
      <path d="M555 380 h185" stroke="#fb923c" stroke-width="10" stroke-linecap="round" opacity="0.35" />
<path d="M555 416 h185" stroke="#fb923c" stroke-width="10" stroke-linecap="round" opacity="0.385" />
<path d="M555 452 h185" stroke="#fb923c" stroke-width="10" stroke-linecap="round" opacity="0.42" />
<path d="M555 488 h185" stroke="#fb923c" stroke-width="10" stroke-linecap="round" opacity="0.45499999999999996" />
<path d="M555 524 h185" stroke="#fb923c" stroke-width="10" stroke-linecap="round" opacity="0.49" />
<path d="M555 560 h185" stroke="#fb923c" stroke-width="10" stroke-linecap="round" opacity="0.525" />
<path d="M555 596 h185" stroke="#fb923c" stroke-width="10" stroke-linecap="round" opacity="0.56" />
      <path d="M865 380 h185" stroke="#fcd34d" stroke-width="10" stroke-linecap="round" opacity="0.35" />
<path d="M865 416 h185" stroke="#fcd34d" stroke-width="10" stroke-linecap="round" opacity="0.385" />
<path d="M865 452 h185" stroke="#fcd34d" stroke-width="10" stroke-linecap="round" opacity="0.42" />
<path d="M865 488 h185" stroke="#fcd34d" stroke-width="10" stroke-linecap="round" opacity="0.45499999999999996" />
<path d="M865 524 h185" stroke="#fcd34d" stroke-width="10" stroke-linecap="round" opacity="0.49" />
<path d="M865 560 h185" stroke="#fcd34d" stroke-width="10" stroke-linecap="round" opacity="0.525" />
<path d="M865 596 h185" stroke="#fcd34d" stroke-width="10" stroke-linecap="round" opacity="0.56" />
    
  </g>
  <g opacity="0.78">
    <rect x="88" y="82" width="1424" height="736" rx="46" fill="none" stroke="#ffffff" stroke-opacity="0.2" stroke-width="2"/>
    <path d="M150 150 C320 82 525 78 720 126" stroke="#fff7ed" stroke-opacity="0.44" stroke-width="7" stroke-linecap="round"/>
    <path d="M1332 710 C1215 775 1005 792 855 752" stroke="#fcd34d" stroke-opacity="0.42" stroke-width="8" stroke-linecap="round"/>
  </g>
  <g transform="translate(126 714)">
    <rect width="420" height="86" rx="28" fill="#ffffff" opacity="0.12"/>
    <rect x="1" y="1" width="418" height="84" rx="27" fill="none" stroke="#ffffff" stroke-opacity="0.22"/>
    <text x="36" y="56" font-family="Georgia, 'Noto Serif Devanagari', serif" font-size="40" font-weight="700" fill="#fff7ed">ग्रंथ</text>
    <circle cx="352" cy="43" r="15" fill="#fcd34d" opacity="0.9"/>
  </g>
  <rect width="1600" height="900" filter="url(#grain)" opacity="0.34"/>
</svg>
