<svg xmlns="http://www.w3.org/2000/svg" width="1600" height="900" viewBox="0 0 1600 900" role="img" aria-label="स्मृति ग्रंथ क्या हैं? श्रुति (वेद) और स्मृति में मुख्य अंतर, कलयुग के नियम और सनातन धर्म की लचीली व्यवस्था">
  <defs>
    <radialGradient id="bgGlow" cx="50%" cy="43%" r="75%">
      <stop offset="0%" stop-color="#fcd34d" stop-opacity="0.46"/>
      <stop offset="45%" stop-color="#5b3311" stop-opacity="0.92"/>
      <stop offset="100%" stop-color="#201104"/>
    </radialGradient>
    <linearGradient id="glassPanel" x1="0%" y1="0%" x2="100%" y2="100%">
      <stop offset="0%" stop-color="#ffffff" stop-opacity="0.58"/>
      <stop offset="42%" stop-color="#fcd34d" stop-opacity="0.22"/>
      <stop offset="100%" stop-color="#ffffff" stop-opacity="0.08"/>
    </linearGradient>
    <radialGradient id="glassOrb" cx="34%" cy="24%" r="68%">
      <stop offset="0%" stop-color="#ffffff" stop-opacity="0.94"/>
      <stop offset="34%" stop-color="#fcd34d" stop-opacity="0.62"/>
      <stop offset="100%" stop-color="#5b3311" stop-opacity="0.22"/>
    </radialGradient>
    <linearGradient id="glassMountain" x1="0%" y1="0%" x2="100%" y2="100%">
      <stop offset="0%" stop-color="#ffffff" stop-opacity="0.48"/>
      <stop offset="100%" stop-color="#fcd34d" stop-opacity="0.22"/>
    </linearGradient>
    <filter id="softGlow" x="-30%" y="-30%" width="160%" height="160%">
      <feGaussianBlur stdDeviation="18" result="blur"/>
      <feColorMatrix in="blur" type="matrix" values="1 0 0 0 0  0 1 0 0 0  0 0 1 0 0  0 0 0 0.75 0"/>
      <feMerge>
        <feMergeNode/>
        <feMergeNode in="SourceGraphic"/>
      </feMerge>
    </filter>
    <filter id="grain">
      <feTurbulence type="fractalNoise" baseFrequency="0.82" numOctaves="3" seed="473"/>
      <feColorMatrix type="saturate" values="0"/>
      <feComponentTransfer>
        <feFuncA type="table" tableValues="0 0.075"/>
      </feComponentTransfer>
    </filter>
  </defs>
  <rect width="1600" height="900" fill="url(#bgGlow)"/>
  <g opacity="0.72"><circle cx="323" cy="708" r="2.1" fill="#fb923c" opacity="0.30" />
<circle cx="304" cy="631" r="1.0" fill="#fb923c" opacity="0.49" />
<circle cx="361" cy="450" r="2.3" fill="#fb923c" opacity="0.42" />
<circle cx="342" cy="269" r="1.2" fill="#fb923c" opacity="0.61" />
<circle cx="399" cy="532" r="2.5" fill="#fb923c" opacity="0.54" />
<circle cx="380" cy="351" r="1.4" fill="#fb923c" opacity="0.23" />
<circle cx="437" cy="170" r="2.7" fill="#fb923c" opacity="0.66" />
<circle cx="418" cy="889" r="1.6" fill="#fb923c" opacity="0.35" />
<circle cx="475" cy="356" r="2.9" fill="#fb923c" opacity="0.32" />
<circle cx="456" cy="175" r="1.8" fill="#fb923c" opacity="0.51" />
<circle cx="1472" cy="741" r="1.4" fill="#fb923c" opacity="0.57" />
<circle cx="1491" cy="22" r="2.5" fill="#fb923c" opacity="0.38" />
<circle cx="1510" cy="203" r="1.6" fill="#fb923c" opacity="0.45" />
<circle cx="1529" cy="384" r="2.7" fill="#fb923c" opacity="0.26" />
<circle cx="1548" cy="565" r="1.0" fill="#fb923c" opacity="0.31" />
<circle cx="1567" cy="746" r="2.1" fill="#fb923c" opacity="0.62" />
<circle cx="1586" cy="27" r="1.2" fill="#fb923c" opacity="0.19" />
<circle cx="5" cy="208" r="2.3" fill="#fb923c" opacity="0.50" />
<circle cx="24" cy="193" r="2.2" fill="#fb923c" opacity="0.59" />
<circle cx="43" cy="374" r="0.9" fill="#fb923c" opacity="0.40" />
<circle cx="731" cy="50" r="2.9" fill="#fb923c" opacity="0.56" />
<circle cx="712" cy="769" r="1.8" fill="#fb923c" opacity="0.25" />
<circle cx="769" cy="412" r="3.1" fill="#fb923c" opacity="0.44" />
<circle cx="750" cy="231" r="2.0" fill="#fb923c" opacity="0.63" />
<circle cx="1511" cy="226" r="0.9" fill="#fb923c" opacity="0.30" />
<circle cx="1492" cy="45" r="2.2" fill="#fb923c" opacity="0.49" />
<circle cx="1549" cy="588" r="1.1" fill="#fb923c" opacity="0.18" />
<circle cx="1530" cy="407" r="2.4" fill="#fb923c" opacity="0.37" />
<circle cx="579" cy="598" r="2.1" fill="#fb923c" opacity="0.54" />
<circle cx="560" cy="417" r="1.0" fill="#fb923c" opacity="0.23" />
<circle cx="722" cy="259" r="1.2" fill="#fb923c" opacity="0.65" />
<circle cx="741" cy="440" r="2.3" fill="#fb923c" opacity="0.46" />
<circle cx="684" cy="797" r="1.0" fill="#fb923c" opacity="0.27" />
<circle cx="703" cy="78" r="2.1" fill="#fb923c" opacity="0.58" />
<circle cx="646" cy="83" r="1.6" fill="#fb923c" opacity="0.39" />
<circle cx="665" cy="264" r="2.7" fill="#fb923c" opacity="0.20" />
<circle cx="608" cy="621" r="1.4" fill="#fb923c" opacity="0.51" />
<circle cx="627" cy="802" r="2.5" fill="#fb923c" opacity="0.32" />
<circle cx="874" cy="807" r="2.8" fill="#fb923c" opacity="0.63" />
<circle cx="1597" cy="88" r="1.5" fill="#fb923c" opacity="0.44" />
<circle cx="685" cy="536" r="1.9" fill="#fb923c" opacity="0.52" />
<circle cx="666" cy="355" r="0.8" fill="#fb923c" opacity="0.21" />
<circle cx="647" cy="174" r="1.7" fill="#fb923c" opacity="0.64" />
<circle cx="628" cy="893" r="3.0" fill="#fb923c" opacity="0.33" />
<circle cx="609" cy="712" r="1.5" fill="#fb923c" opacity="0.26" />
<circle cx="590" cy="531" r="2.8" fill="#fb923c" opacity="0.45" />
<circle cx="571" cy="350" r="1.3" fill="#fb923c" opacity="0.38" />
<circle cx="552" cy="169" r="2.6" fill="#fb923c" opacity="0.57" />
<circle cx="533" cy="184" r="1.1" fill="#fb923c" opacity="0.54" />
<circle cx="514" cy="3" r="2.4" fill="#fb923c" opacity="0.23" />
<circle cx="1444" cy="745" r="1.8" fill="#fb923c" opacity="0.61" />
<circle cx="1463" cy="26" r="2.9" fill="#fb923c" opacity="0.42" />
<circle cx="1482" cy="207" r="2.0" fill="#fb923c" opacity="0.49" />
<circle cx="1501" cy="388" r="3.1" fill="#fb923c" opacity="0.30" />
<circle cx="664" cy="21" r="2.2" fill="#fb923c" opacity="0.37" />
<circle cx="1387" cy="202" r="0.9" fill="#fb923c" opacity="0.18" />
<circle cx="1406" cy="383" r="2.4" fill="#fb923c" opacity="0.25" />
<circle cx="1425" cy="564" r="1.1" fill="#fb923c" opacity="0.56" />
<circle cx="588" cy="393" r="2.6" fill="#fb923c" opacity="0.59" />
<circle cx="607" cy="574" r="1.3" fill="#fb923c" opacity="0.40" />
<circle cx="95" cy="390" r="2.5" fill="#fb923c" opacity="0.34" />
<circle cx="76" cy="209" r="1.4" fill="#fb923c" opacity="0.53" />
<circle cx="133" cy="752" r="2.7" fill="#fb923c" opacity="0.22" />
<circle cx="114" cy="571" r="1.6" fill="#fb923c" opacity="0.41" />
<circle cx="19" cy="214" r="2.1" fill="#fb923c" opacity="0.60" />
<circle cx="0" cy="33" r="1.0" fill="#fb923c" opacity="0.29" />
<circle cx="57" cy="576" r="2.3" fill="#fb923c" opacity="0.48" />
<circle cx="38" cy="395" r="1.2" fill="#fb923c" opacity="0.67" /></g>
  <circle cx="429" cy="322" r="230" fill="#fcd34d" opacity="0.08"/>
  <circle cx="1091" cy="691" r="275" fill="#fb923c" opacity="0.08"/>
  <g filter="url(#softGlow)">
    
      <path d="M520 300 h560 a44 44 0 0 1 44 44 v280 a44 44 0 0 1 -44 44 H520 a44 44 0 0 1 -44 -44 V344 a44 44 0 0 1 44 -44 Z" fill="url(#glassPanel)" opacity="0.72"/>
      <path d="M800 320 v330" stroke="#fff7ed" stroke-width="9" opacity="0.48"/>
      <path d="M555 380 h185" stroke="#fb923c" stroke-width="10" stroke-linecap="round" opacity="0.35" />
<path d="M555 416 h185" stroke="#fb923c" stroke-width="10" stroke-linecap="round" opacity="0.385" />
<path d="M555 452 h185" stroke="#fb923c" stroke-width="10" stroke-linecap="round" opacity="0.42" />
<path d="M555 488 h185" stroke="#fb923c" stroke-width="10" stroke-linecap="round" opacity="0.45499999999999996" />
<path d="M555 524 h185" stroke="#fb923c" stroke-width="10" stroke-linecap="round" opacity="0.49" />
<path d="M555 560 h185" stroke="#fb923c" stroke-width="10" stroke-linecap="round" opacity="0.525" />
<path d="M555 596 h185" stroke="#fb923c" stroke-width="10" stroke-linecap="round" opacity="0.56" />
      <path d="M865 380 h185" stroke="#fcd34d" stroke-width="10" stroke-linecap="round" opacity="0.35" />
<path d="M865 416 h185" stroke="#fcd34d" stroke-width="10" stroke-linecap="round" opacity="0.385" />
<path d="M865 452 h185" stroke="#fcd34d" stroke-width="10" stroke-linecap="round" opacity="0.42" />
<path d="M865 488 h185" stroke="#fcd34d" stroke-width="10" stroke-linecap="round" opacity="0.45499999999999996" />
<path d="M865 524 h185" stroke="#fcd34d" stroke-width="10" stroke-linecap="round" opacity="0.49" />
<path d="M865 560 h185" stroke="#fcd34d" stroke-width="10" stroke-linecap="round" opacity="0.525" />
<path d="M865 596 h185" stroke="#fcd34d" stroke-width="10" stroke-linecap="round" opacity="0.56" />
    
  </g>
  <g opacity="0.78">
    <rect x="88" y="82" width="1424" height="736" rx="46" fill="none" stroke="#ffffff" stroke-opacity="0.2" stroke-width="2"/>
    <path d="M150 150 C320 82 525 78 720 126" stroke="#fff7ed" stroke-opacity="0.44" stroke-width="7" stroke-linecap="round"/>
    <path d="M1332 710 C1215 775 1005 792 855 752" stroke="#fcd34d" stroke-opacity="0.42" stroke-width="8" stroke-linecap="round"/>
  </g>
  <g transform="translate(126 714)">
    <rect width="420" height="86" rx="28" fill="#ffffff" opacity="0.12"/>
    <rect x="1" y="1" width="418" height="84" rx="27" fill="none" stroke="#ffffff" stroke-opacity="0.22"/>
    <text x="36" y="56" font-family="Georgia, 'Noto Serif Devanagari', serif" font-size="40" font-weight="700" fill="#fff7ed">ग्रंथ</text>
    <circle cx="352" cy="43" r="15" fill="#fcd34d" opacity="0.9"/>
  </g>
  <rect width="1600" height="900" filter="url(#grain)" opacity="0.34"/>
</svg>
