<svg xmlns="http://www.w3.org/2000/svg" width="1600" height="900" viewBox="0 0 1600 900" role="img" aria-label="दक्षिण भारत के मंदिर और द्रविड़ वास्तुकला (Dravidian Architecture) का विज्ञान">
  <defs>
    <radialGradient id="bgGlow" cx="50%" cy="43%" r="75%">
      <stop offset="0%" stop-color="#fb923c" stop-opacity="0.46"/>
      <stop offset="45%" stop-color="#67330f" stop-opacity="0.92"/>
      <stop offset="100%" stop-color="#210b05"/>
    </radialGradient>
    <linearGradient id="glassPanel" x1="0%" y1="0%" x2="100%" y2="100%">
      <stop offset="0%" stop-color="#ffffff" stop-opacity="0.58"/>
      <stop offset="42%" stop-color="#fb923c" stop-opacity="0.22"/>
      <stop offset="100%" stop-color="#ffffff" stop-opacity="0.08"/>
    </linearGradient>
    <radialGradient id="glassOrb" cx="34%" cy="24%" r="68%">
      <stop offset="0%" stop-color="#ffffff" stop-opacity="0.94"/>
      <stop offset="34%" stop-color="#fb923c" stop-opacity="0.62"/>
      <stop offset="100%" stop-color="#67330f" stop-opacity="0.22"/>
    </radialGradient>
    <linearGradient id="glassMountain" x1="0%" y1="0%" x2="100%" y2="100%">
      <stop offset="0%" stop-color="#ffffff" stop-opacity="0.48"/>
      <stop offset="100%" stop-color="#fb923c" stop-opacity="0.22"/>
    </linearGradient>
    <filter id="softGlow" x="-30%" y="-30%" width="160%" height="160%">
      <feGaussianBlur stdDeviation="18" result="blur"/>
      <feColorMatrix in="blur" type="matrix" values="1 0 0 0 0  0 1 0 0 0  0 0 1 0 0  0 0 0 0.75 0"/>
      <feMerge>
        <feMergeNode/>
        <feMergeNode in="SourceGraphic"/>
      </feMerge>
    </filter>
    <filter id="grain">
      <feTurbulence type="fractalNoise" baseFrequency="0.82" numOctaves="3" seed="905"/>
      <feColorMatrix type="saturate" values="0"/>
      <feComponentTransfer>
        <feFuncA type="table" tableValues="0 0.075"/>
      </feComponentTransfer>
    </filter>
  </defs>
  <rect width="1600" height="900" fill="url(#bgGlow)"/>
  <g opacity="0.72"><circle cx="550" cy="449" r="2.0" fill="#fef3c7" opacity="0.67" />
<circle cx="569" cy="630" r="3.1" fill="#fef3c7" opacity="0.48" />
<circle cx="512" cy="811" r="1.8" fill="#fef3c7" opacity="0.55" />
<circle cx="531" cy="92" r="2.9" fill="#fef3c7" opacity="0.36" />
<circle cx="626" cy="273" r="2.4" fill="#fef3c7" opacity="0.41" />
<circle cx="645" cy="454" r="1.1" fill="#fef3c7" opacity="0.22" />
<circle cx="588" cy="635" r="2.2" fill="#fef3c7" opacity="0.29" />
<circle cx="607" cy="816" r="0.9" fill="#fef3c7" opacity="0.60" />
<circle cx="702" cy="97" r="2.8" fill="#fef3c7" opacity="0.19" />
<circle cx="721" cy="278" r="1.5" fill="#fef3c7" opacity="0.50" />
<circle cx="107" cy="174" r="2.1" fill="#fef3c7" opacity="0.24" />
<circle cx="88" cy="893" r="1.0" fill="#fef3c7" opacity="0.43" />
<circle cx="145" cy="536" r="2.3" fill="#fef3c7" opacity="0.62" />
<circle cx="126" cy="355" r="1.2" fill="#fef3c7" opacity="0.31" />
<circle cx="183" cy="350" r="2.5" fill="#fef3c7" opacity="0.48" />
<circle cx="164" cy="169" r="1.4" fill="#fef3c7" opacity="0.67" />
<circle cx="221" cy="712" r="2.7" fill="#fef3c7" opacity="0.36" />
<circle cx="202" cy="531" r="1.6" fill="#fef3c7" opacity="0.55" />
<circle cx="1555" cy="722" r="1.3" fill="#fef3c7" opacity="0.22" />
<circle cx="1536" cy="541" r="2.6" fill="#fef3c7" opacity="0.41" />
<circle cx="80" cy="865" r="1.4" fill="#fef3c7" opacity="0.29" />
<circle cx="99" cy="146" r="2.5" fill="#fef3c7" opacity="0.56" />
<circle cx="118" cy="327" r="1.6" fill="#fef3c7" opacity="0.67" />
<circle cx="137" cy="508" r="2.7" fill="#fef3c7" opacity="0.48" />
<circle cx="156" cy="689" r="1.0" fill="#fef3c7" opacity="0.49" />
<circle cx="175" cy="870" r="2.1" fill="#fef3c7" opacity="0.30" />
<circle cx="194" cy="151" r="1.2" fill="#fef3c7" opacity="0.37" />
<circle cx="213" cy="332" r="2.3" fill="#fef3c7" opacity="0.18" />
<circle cx="232" cy="317" r="2.2" fill="#fef3c7" opacity="0.31" />
<circle cx="251" cy="498" r="0.9" fill="#fef3c7" opacity="0.62" />
<circle cx="89" cy="656" r="3.1" fill="#fef3c7" opacity="0.34" />
<circle cx="70" cy="475" r="2.0" fill="#fef3c7" opacity="0.53" />
<circle cx="51" cy="294" r="2.9" fill="#fef3c7" opacity="0.46" />
<circle cx="32" cy="113" r="1.8" fill="#fef3c7" opacity="0.65" />
<circle cx="165" cy="480" r="1.1" fill="#fef3c7" opacity="0.60" />
<circle cx="146" cy="299" r="2.4" fill="#fef3c7" opacity="0.29" />
<circle cx="127" cy="118" r="0.9" fill="#fef3c7" opacity="0.22" />
<circle cx="108" cy="837" r="2.2" fill="#fef3c7" opacity="0.41" />
<circle cx="241" cy="108" r="1.5" fill="#fef3c7" opacity="0.36" />
<circle cx="222" cy="827" r="2.8" fill="#fef3c7" opacity="0.55" />
<circle cx="358" cy="447" r="0.8" fill="#fef3c7" opacity="0.61" />
<circle cx="377" cy="628" r="1.9" fill="#fef3c7" opacity="0.42" />
<circle cx="320" cy="85" r="3.0" fill="#fef3c7" opacity="0.23" />
<circle cx="339" cy="266" r="1.7" fill="#fef3c7" opacity="0.54" />
<circle cx="434" cy="623" r="2.8" fill="#fef3c7" opacity="0.37" />
<circle cx="453" cy="804" r="1.5" fill="#fef3c7" opacity="0.18" />
<circle cx="396" cy="261" r="2.6" fill="#fef3c7" opacity="0.49" />
<circle cx="415" cy="442" r="1.3" fill="#fef3c7" opacity="0.30" />
<circle cx="510" cy="799" r="1.6" fill="#fef3c7" opacity="0.67" />
<circle cx="529" cy="80" r="2.7" fill="#fef3c7" opacity="0.48" />
<circle cx="303" cy="514" r="2.5" fill="#fef3c7" opacity="0.52" />
<circle cx="284" cy="333" r="1.4" fill="#fef3c7" opacity="0.21" />
<circle cx="341" cy="876" r="2.7" fill="#fef3c7" opacity="0.40" />
<circle cx="322" cy="695" r="1.6" fill="#fef3c7" opacity="0.59" />
<circle cx="227" cy="338" r="2.1" fill="#fef3c7" opacity="0.28" />
<circle cx="208" cy="157" r="1.0" fill="#fef3c7" opacity="0.47" />
<circle cx="265" cy="700" r="2.3" fill="#fef3c7" opacity="0.66" />
<circle cx="246" cy="519" r="1.2" fill="#fef3c7" opacity="0.35" />
<circle cx="455" cy="162" r="0.9" fill="#fef3c7" opacity="0.54" />
<circle cx="436" cy="881" r="2.2" fill="#fef3c7" opacity="0.23" />
<circle cx="948" cy="305" r="1.8" fill="#fef3c7" opacity="0.33" />
<circle cx="967" cy="486" r="2.9" fill="#fef3c7" opacity="0.64" />
<circle cx="986" cy="667" r="2.0" fill="#fef3c7" opacity="0.21" />
<circle cx="1005" cy="848" r="3.1" fill="#fef3c7" opacity="0.52" />
<circle cx="872" cy="481" r="2.2" fill="#fef3c7" opacity="0.59" />
<circle cx="891" cy="662" r="0.9" fill="#fef3c7" opacity="0.40" />
<circle cx="910" cy="843" r="2.4" fill="#fef3c7" opacity="0.47" />
<circle cx="929" cy="124" r="1.1" fill="#fef3c7" opacity="0.28" /></g>
  <circle cx="468" cy="275" r="230" fill="#fb923c" opacity="0.08"/>
  <circle cx="1086" cy="658" r="275" fill="#fef3c7" opacity="0.08"/>
  <g filter="url(#softGlow)">
    
      <path d="M450 705 h700 v-48 H450 Z" fill="url(#glassPanel)" opacity="0.72"/>
      <path d="M535 657 v-250 h530 v250 Z" fill="url(#glassPanel)" opacity="0.48"/>
      <path d="M495 407 h610 L800 210 Z" fill="#fef3c7" opacity="0.6"/>
      <path d="M645 657 V500 a155 155 0 0 1 310 0 v157 Z" fill="#210b05" opacity="0.74"/>
      <path d="M800 210 v-88" stroke="#fb923c" stroke-width="9" opacity="0.88"/>
      <path d="M800 126 c48 -26 72 6 115 -15 c-34 60 -78 38 -115 64 Z" fill="#fb923c" opacity="0.82"/>
    
  </g>
  <g opacity="0.78">
    <rect x="88" y="82" width="1424" height="736" rx="46" fill="none" stroke="#ffffff" stroke-opacity="0.2" stroke-width="2"/>
    <path d="M150 150 C320 82 525 78 720 126" stroke="#fff7ed" stroke-opacity="0.44" stroke-width="7" stroke-linecap="round"/>
    <path d="M1332 710 C1215 775 1005 792 855 752" stroke="#fb923c" stroke-opacity="0.42" stroke-width="8" stroke-linecap="round"/>
  </g>
  <g transform="translate(126 714)">
    <rect width="420" height="86" rx="28" fill="#ffffff" opacity="0.12"/>
    <rect x="1" y="1" width="418" height="84" rx="27" fill="none" stroke="#ffffff" stroke-opacity="0.22"/>
    <text x="36" y="56" font-family="Georgia, 'Noto Serif Devanagari', serif" font-size="40" font-weight="700" fill="#fff7ed">मंदिर</text>
    <circle cx="352" cy="43" r="15" fill="#fb923c" opacity="0.9"/>
  </g>
  <rect width="1600" height="900" filter="url(#grain)" opacity="0.34"/>
</svg>
