<svg xmlns="http://www.w3.org/2000/svg" width="1600" height="900" viewBox="0 0 1600 900" role="img" aria-label="स्वामी विवेकानंद का शिकागो भाषण: जब हिंदू दर्शन ने पूरी दुनिया को मंत्रमुग्ध कर दिया">
  <defs>
    <radialGradient id="bgGlow" cx="50%" cy="43%" r="75%">
      <stop offset="0%" stop-color="#fb923c" stop-opacity="0.46"/>
      <stop offset="45%" stop-color="#67330f" stop-opacity="0.92"/>
      <stop offset="100%" stop-color="#210b05"/>
    </radialGradient>
    <linearGradient id="glassPanel" x1="0%" y1="0%" x2="100%" y2="100%">
      <stop offset="0%" stop-color="#ffffff" stop-opacity="0.58"/>
      <stop offset="42%" stop-color="#fb923c" stop-opacity="0.22"/>
      <stop offset="100%" stop-color="#ffffff" stop-opacity="0.08"/>
    </linearGradient>
    <radialGradient id="glassOrb" cx="34%" cy="24%" r="68%">
      <stop offset="0%" stop-color="#ffffff" stop-opacity="0.94"/>
      <stop offset="34%" stop-color="#fb923c" stop-opacity="0.62"/>
      <stop offset="100%" stop-color="#67330f" stop-opacity="0.22"/>
    </radialGradient>
    <linearGradient id="glassMountain" x1="0%" y1="0%" x2="100%" y2="100%">
      <stop offset="0%" stop-color="#ffffff" stop-opacity="0.48"/>
      <stop offset="100%" stop-color="#fb923c" stop-opacity="0.22"/>
    </linearGradient>
    <filter id="softGlow" x="-30%" y="-30%" width="160%" height="160%">
      <feGaussianBlur stdDeviation="18" result="blur"/>
      <feColorMatrix in="blur" type="matrix" values="1 0 0 0 0  0 1 0 0 0  0 0 1 0 0  0 0 0 0.75 0"/>
      <feMerge>
        <feMergeNode/>
        <feMergeNode in="SourceGraphic"/>
      </feMerge>
    </filter>
    <filter id="grain">
      <feTurbulence type="fractalNoise" baseFrequency="0.82" numOctaves="3" seed="100"/>
      <feColorMatrix type="saturate" values="0"/>
      <feComponentTransfer>
        <feFuncA type="table" tableValues="0 0.075"/>
      </feComponentTransfer>
    </filter>
  </defs>
  <rect width="1600" height="900" fill="url(#bgGlow)"/>
  <g opacity="0.72"><circle cx="874" cy="609" r="0.8" fill="#fef3c7" opacity="0.35" />
<circle cx="893" cy="790" r="1.9" fill="#fef3c7" opacity="0.66" />
<circle cx="836" cy="71" r="3.0" fill="#fef3c7" opacity="0.23" />
<circle cx="855" cy="252" r="1.7" fill="#fef3c7" opacity="0.54" />
<circle cx="798" cy="785" r="2.8" fill="#fef3c7" opacity="0.61" />
<circle cx="817" cy="66" r="1.5" fill="#fef3c7" opacity="0.42" />
<circle cx="760" cy="247" r="2.6" fill="#fef3c7" opacity="0.49" />
<circle cx="779" cy="428" r="1.3" fill="#fef3c7" opacity="0.30" />
<circle cx="722" cy="257" r="1.6" fill="#fef3c7" opacity="0.33" />
<circle cx="741" cy="438" r="2.7" fill="#fef3c7" opacity="0.64" />
<circle cx="503" cy="810" r="2.5" fill="#fef3c7" opacity="0.54" />
<circle cx="484" cy="629" r="1.4" fill="#fef3c7" opacity="0.23" />
<circle cx="541" cy="272" r="2.7" fill="#fef3c7" opacity="0.42" />
<circle cx="522" cy="91" r="1.6" fill="#fef3c7" opacity="0.61" />
<circle cx="427" cy="634" r="2.1" fill="#fef3c7" opacity="0.30" />
<circle cx="408" cy="453" r="1.0" fill="#fef3c7" opacity="0.49" />
<circle cx="465" cy="96" r="2.3" fill="#fef3c7" opacity="0.18" />
<circle cx="446" cy="815" r="1.2" fill="#fef3c7" opacity="0.37" />
<circle cx="351" cy="458" r="0.9" fill="#fef3c7" opacity="0.52" />
<circle cx="332" cy="277" r="2.2" fill="#fef3c7" opacity="0.21" />
<circle cx="476" cy="601" r="1.8" fill="#fef3c7" opacity="0.59" />
<circle cx="495" cy="782" r="2.9" fill="#fef3c7" opacity="0.40" />
<circle cx="514" cy="63" r="2.0" fill="#fef3c7" opacity="0.47" />
<circle cx="533" cy="244" r="3.1" fill="#fef3c7" opacity="0.28" />
<circle cx="400" cy="777" r="2.2" fill="#fef3c7" opacity="0.35" />
<circle cx="419" cy="58" r="0.9" fill="#fef3c7" opacity="0.66" />
<circle cx="438" cy="239" r="2.4" fill="#fef3c7" opacity="0.23" />
<circle cx="457" cy="420" r="1.1" fill="#fef3c7" opacity="0.54" />
<circle cx="628" cy="249" r="2.6" fill="#fef3c7" opacity="0.61" />
<circle cx="647" cy="430" r="1.3" fill="#fef3c7" opacity="0.42" />
<circle cx="485" cy="160" r="1.1" fill="#fef3c7" opacity="0.58" />
<circle cx="466" cy="879" r="2.4" fill="#fef3c7" opacity="0.27" />
<circle cx="447" cy="698" r="0.9" fill="#fef3c7" opacity="0.20" />
<circle cx="428" cy="517" r="2.2" fill="#fef3c7" opacity="0.39" />
<circle cx="409" cy="336" r="3.1" fill="#fef3c7" opacity="0.32" />
<circle cx="390" cy="155" r="2.0" fill="#fef3c7" opacity="0.51" />
<circle cx="371" cy="874" r="2.9" fill="#fef3c7" opacity="0.44" />
<circle cx="352" cy="693" r="1.8" fill="#fef3c7" opacity="0.63" />
<circle cx="637" cy="708" r="2.7" fill="#fef3c7" opacity="0.56" />
<circle cx="618" cy="527" r="1.6" fill="#fef3c7" opacity="0.25" />
<circle cx="1130" cy="783" r="2.8" fill="#fef3c7" opacity="0.59" />
<circle cx="1149" cy="64" r="1.5" fill="#fef3c7" opacity="0.40" />
<circle cx="1092" cy="421" r="2.6" fill="#fef3c7" opacity="0.21" />
<circle cx="1111" cy="602" r="1.3" fill="#fef3c7" opacity="0.52" />
<circle cx="1054" cy="607" r="0.8" fill="#fef3c7" opacity="0.33" />
<circle cx="1073" cy="788" r="1.9" fill="#fef3c7" opacity="0.64" />
<circle cx="1016" cy="245" r="3.0" fill="#fef3c7" opacity="0.45" />
<circle cx="1035" cy="426" r="1.7" fill="#fef3c7" opacity="0.26" />
<circle cx="978" cy="431" r="2.0" fill="#fef3c7" opacity="0.61" />
<circle cx="997" cy="612" r="3.1" fill="#fef3c7" opacity="0.42" />
<circle cx="531" cy="574" r="2.1" fill="#fef3c7" opacity="0.18" />
<circle cx="512" cy="393" r="1.0" fill="#fef3c7" opacity="0.37" />
<circle cx="569" cy="36" r="2.3" fill="#fef3c7" opacity="0.56" />
<circle cx="550" cy="755" r="1.2" fill="#fef3c7" opacity="0.25" />
<circle cx="607" cy="750" r="2.5" fill="#fef3c7" opacity="0.42" />
<circle cx="588" cy="569" r="1.4" fill="#fef3c7" opacity="0.61" />
<circle cx="645" cy="212" r="2.7" fill="#fef3c7" opacity="0.30" />
<circle cx="626" cy="31" r="1.6" fill="#fef3c7" opacity="0.49" />
<circle cx="683" cy="222" r="1.3" fill="#fef3c7" opacity="0.20" />
<circle cx="664" cy="41" r="2.6" fill="#fef3c7" opacity="0.39" />
<circle cx="280" cy="365" r="1.4" fill="#fef3c7" opacity="0.27" />
<circle cx="299" cy="546" r="2.5" fill="#fef3c7" opacity="0.58" />
<circle cx="318" cy="727" r="1.6" fill="#fef3c7" opacity="0.65" />
<circle cx="337" cy="8" r="2.7" fill="#fef3c7" opacity="0.46" />
<circle cx="356" cy="189" r="1.0" fill="#fef3c7" opacity="0.51" />
<circle cx="375" cy="370" r="2.1" fill="#fef3c7" opacity="0.32" />
<circle cx="394" cy="551" r="1.2" fill="#fef3c7" opacity="0.39" />
<circle cx="413" cy="732" r="2.3" fill="#fef3c7" opacity="0.20" /></g>
  <circle cx="444" cy="271" r="230" fill="#fb923c" opacity="0.08"/>
  <circle cx="1082" cy="692" r="275" fill="#fef3c7" opacity="0.08"/>
  <g filter="url(#softGlow)">
    
      <path d="M450 705 h700 v-48 H450 Z" fill="url(#glassPanel)" opacity="0.72"/>
      <path d="M535 657 v-250 h530 v250 Z" fill="url(#glassPanel)" opacity="0.48"/>
      <path d="M495 407 h610 L800 210 Z" fill="#fef3c7" opacity="0.6"/>
      <path d="M645 657 V500 a155 155 0 0 1 310 0 v157 Z" fill="#210b05" opacity="0.74"/>
      <path d="M800 210 v-88" stroke="#fb923c" stroke-width="9" opacity="0.88"/>
      <path d="M800 126 c48 -26 72 6 115 -15 c-34 60 -78 38 -115 64 Z" fill="#fb923c" opacity="0.82"/>
    
  </g>
  <g opacity="0.78">
    <rect x="88" y="82" width="1424" height="736" rx="46" fill="none" stroke="#ffffff" stroke-opacity="0.2" stroke-width="2"/>
    <path d="M150 150 C320 82 525 78 720 126" stroke="#fff7ed" stroke-opacity="0.44" stroke-width="7" stroke-linecap="round"/>
    <path d="M1332 710 C1215 775 1005 792 855 752" stroke="#fb923c" stroke-opacity="0.42" stroke-width="8" stroke-linecap="round"/>
  </g>
  <g transform="translate(126 714)">
    <rect width="420" height="86" rx="28" fill="#ffffff" opacity="0.12"/>
    <rect x="1" y="1" width="418" height="84" rx="27" fill="none" stroke="#ffffff" stroke-opacity="0.22"/>
    <text x="36" y="56" font-family="Georgia, 'Noto Serif Devanagari', serif" font-size="40" font-weight="700" fill="#fff7ed">मंदिर</text>
    <circle cx="352" cy="43" r="15" fill="#fb923c" opacity="0.9"/>
  </g>
  <rect width="1600" height="900" filter="url(#grain)" opacity="0.34"/>
</svg>
