<svg xmlns="http://www.w3.org/2000/svg" width="1600" height="900" viewBox="0 0 1600 900" role="img" aria-label="स्वास्तिक चिह्न का वैज्ञानिक और आध्यात्मिक रहस्य: अर्थ, महत्व और सकारात्मक ऊर्जा का स्रोत">
  <defs>
    <radialGradient id="bgGlow" cx="50%" cy="43%" r="75%">
      <stop offset="0%" stop-color="#fde047" stop-opacity="0.46"/>
      <stop offset="45%" stop-color="#5a2508" stop-opacity="0.92"/>
      <stop offset="100%" stop-color="#1e1404"/>
    </radialGradient>
    <linearGradient id="glassPanel" x1="0%" y1="0%" x2="100%" y2="100%">
      <stop offset="0%" stop-color="#ffffff" stop-opacity="0.58"/>
      <stop offset="42%" stop-color="#fde047" stop-opacity="0.22"/>
      <stop offset="100%" stop-color="#ffffff" stop-opacity="0.08"/>
    </linearGradient>
    <radialGradient id="glassOrb" cx="34%" cy="24%" r="68%">
      <stop offset="0%" stop-color="#ffffff" stop-opacity="0.94"/>
      <stop offset="34%" stop-color="#fde047" stop-opacity="0.62"/>
      <stop offset="100%" stop-color="#5a2508" stop-opacity="0.22"/>
    </radialGradient>
    <linearGradient id="glassMountain" x1="0%" y1="0%" x2="100%" y2="100%">
      <stop offset="0%" stop-color="#ffffff" stop-opacity="0.48"/>
      <stop offset="100%" stop-color="#fde047" stop-opacity="0.22"/>
    </linearGradient>
    <filter id="softGlow" x="-30%" y="-30%" width="160%" height="160%">
      <feGaussianBlur stdDeviation="18" result="blur"/>
      <feColorMatrix in="blur" type="matrix" values="1 0 0 0 0  0 1 0 0 0  0 0 1 0 0  0 0 0 0.75 0"/>
      <feMerge>
        <feMergeNode/>
        <feMergeNode in="SourceGraphic"/>
      </feMerge>
    </filter>
    <filter id="grain">
      <feTurbulence type="fractalNoise" baseFrequency="0.82" numOctaves="3" seed="816"/>
      <feColorMatrix type="saturate" values="0"/>
      <feComponentTransfer>
        <feFuncA type="table" tableValues="0 0.075"/>
      </feComponentTransfer>
    </filter>
  </defs>
  <rect width="1600" height="900" fill="url(#bgGlow)"/>
  <g opacity="0.72"><circle cx="350" cy="13" r="2.0" fill="#f97316" opacity="0.39" />
<circle cx="369" cy="194" r="3.1" fill="#f97316" opacity="0.20" />
<circle cx="312" cy="375" r="1.8" fill="#f97316" opacity="0.27" />
<circle cx="331" cy="556" r="2.9" fill="#f97316" opacity="0.58" />
<circle cx="426" cy="737" r="2.4" fill="#f97316" opacity="0.63" />
<circle cx="445" cy="18" r="1.1" fill="#f97316" opacity="0.44" />
<circle cx="388" cy="199" r="2.2" fill="#f97316" opacity="0.51" />
<circle cx="407" cy="380" r="0.9" fill="#f97316" opacity="0.32" />
<circle cx="198" cy="365" r="1.2" fill="#f97316" opacity="0.37" />
<circle cx="217" cy="546" r="2.3" fill="#f97316" opacity="0.18" />
<circle cx="595" cy="410" r="1.3" fill="#f97316" opacity="0.58" />
<circle cx="576" cy="229" r="2.6" fill="#f97316" opacity="0.27" />
<circle cx="633" cy="772" r="1.5" fill="#f97316" opacity="0.46" />
<circle cx="614" cy="591" r="2.8" fill="#f97316" opacity="0.65" />
<circle cx="671" cy="586" r="1.7" fill="#f97316" opacity="0.32" />
<circle cx="652" cy="405" r="3.0" fill="#f97316" opacity="0.51" />
<circle cx="709" cy="48" r="1.9" fill="#f97316" opacity="0.20" />
<circle cx="690" cy="767" r="0.8" fill="#f97316" opacity="0.39" />
<circle cx="747" cy="762" r="2.1" fill="#f97316" opacity="0.60" />
<circle cx="728" cy="581" r="1.0" fill="#f97316" opacity="0.29" />
<circle cx="344" cy="477" r="1.4" fill="#f97316" opacity="0.35" />
<circle cx="363" cy="658" r="2.5" fill="#f97316" opacity="0.66" />
<circle cx="382" cy="839" r="1.6" fill="#f97316" opacity="0.23" />
<circle cx="401" cy="120" r="2.7" fill="#f97316" opacity="0.54" />
<circle cx="420" cy="301" r="1.0" fill="#f97316" opacity="0.59" />
<circle cx="439" cy="482" r="2.1" fill="#f97316" opacity="0.40" />
<circle cx="458" cy="663" r="1.2" fill="#f97316" opacity="0.47" />
<circle cx="477" cy="844" r="2.3" fill="#f97316" opacity="0.28" />
<circle cx="192" cy="125" r="3.0" fill="#f97316" opacity="0.33" />
<circle cx="211" cy="306" r="1.7" fill="#f97316" opacity="0.64" />
<circle cx="1185" cy="268" r="3.1" fill="#f97316" opacity="0.26" />
<circle cx="1166" cy="87" r="2.0" fill="#f97316" opacity="0.45" />
<circle cx="1147" cy="806" r="2.9" fill="#f97316" opacity="0.38" />
<circle cx="1128" cy="625" r="1.8" fill="#f97316" opacity="0.57" />
<circle cx="1261" cy="92" r="1.1" fill="#f97316" opacity="0.52" />
<circle cx="1242" cy="811" r="2.4" fill="#f97316" opacity="0.21" />
<circle cx="1223" cy="630" r="0.9" fill="#f97316" opacity="0.64" />
<circle cx="1204" cy="449" r="2.2" fill="#f97316" opacity="0.33" />
<circle cx="1033" cy="816" r="2.3" fill="#f97316" opacity="0.24" />
<circle cx="1014" cy="635" r="1.2" fill="#f97316" opacity="0.43" />
<circle cx="558" cy="59" r="0.8" fill="#f97316" opacity="0.53" />
<circle cx="577" cy="240" r="1.9" fill="#f97316" opacity="0.34" />
<circle cx="520" cy="597" r="3.0" fill="#f97316" opacity="0.65" />
<circle cx="539" cy="778" r="1.7" fill="#f97316" opacity="0.46" />
<circle cx="634" cy="235" r="2.8" fill="#f97316" opacity="0.29" />
<circle cx="653" cy="416" r="1.5" fill="#f97316" opacity="0.60" />
<circle cx="596" cy="773" r="2.6" fill="#f97316" opacity="0.41" />
<circle cx="615" cy="54" r="1.3" fill="#f97316" opacity="0.22" />
<circle cx="406" cy="607" r="2.4" fill="#f97316" opacity="0.51" />
<circle cx="425" cy="788" r="1.1" fill="#f97316" opacity="0.32" />
<circle cx="567" cy="750" r="2.5" fill="#f97316" opacity="0.62" />
<circle cx="548" cy="569" r="1.4" fill="#f97316" opacity="0.31" />
<circle cx="605" cy="212" r="2.7" fill="#f97316" opacity="0.50" />
<circle cx="586" cy="31" r="1.6" fill="#f97316" opacity="0.19" />
<circle cx="491" cy="574" r="2.1" fill="#f97316" opacity="0.38" />
<circle cx="472" cy="393" r="1.0" fill="#f97316" opacity="0.57" />
<circle cx="529" cy="36" r="2.3" fill="#f97316" opacity="0.26" />
<circle cx="510" cy="755" r="1.2" fill="#f97316" opacity="0.45" />
<circle cx="415" cy="202" r="1.7" fill="#f97316" opacity="0.60" />
<circle cx="396" cy="21" r="3.0" fill="#f97316" opacity="0.29" />
<circle cx="540" cy="205" r="1.8" fill="#f97316" opacity="0.63" />
<circle cx="559" cy="386" r="2.9" fill="#f97316" opacity="0.44" />
<circle cx="578" cy="567" r="2.0" fill="#f97316" opacity="0.51" />
<circle cx="597" cy="748" r="3.1" fill="#f97316" opacity="0.32" />
<circle cx="464" cy="381" r="2.2" fill="#f97316" opacity="0.39" />
<circle cx="483" cy="562" r="0.9" fill="#f97316" opacity="0.20" />
<circle cx="502" cy="743" r="2.4" fill="#f97316" opacity="0.27" />
<circle cx="521" cy="24" r="1.1" fill="#f97316" opacity="0.58" /></g>
  <circle cx="420" cy="267" r="230" fill="#fde047" opacity="0.08"/>
  <circle cx="1158" cy="640" r="275" fill="#f97316" opacity="0.08"/>
  <g filter="url(#softGlow)">
    
      <path d="M800 705 C635 585 690 445 772 358 C765 458 875 465 842 275 C995 405 1025 595 800 705 Z" fill="#f97316" opacity="0.75"/>
      <path d="M805 670 C725 598 742 506 807 438 C802 514 888 535 878 442 C950 538 928 632 805 670 Z" fill="#fde047" opacity="0.84"/>
      <path d="M615 728 h370" stroke="#fff7ed" stroke-width="20" stroke-linecap="round" opacity="0.44"/>
      <path d="M690 760 h220" stroke="#f97316" stroke-width="18" stroke-linecap="round" opacity="0.52"/>
    
  </g>
  <g opacity="0.78">
    <rect x="88" y="82" width="1424" height="736" rx="46" fill="none" stroke="#ffffff" stroke-opacity="0.2" stroke-width="2"/>
    <path d="M150 150 C320 82 525 78 720 126" stroke="#fff7ed" stroke-opacity="0.44" stroke-width="7" stroke-linecap="round"/>
    <path d="M1332 710 C1215 775 1005 792 855 752" stroke="#fde047" stroke-opacity="0.42" stroke-width="8" stroke-linecap="round"/>
  </g>
  <g transform="translate(126 714)">
    <rect width="420" height="86" rx="28" fill="#ffffff" opacity="0.12"/>
    <rect x="1" y="1" width="418" height="84" rx="27" fill="none" stroke="#ffffff" stroke-opacity="0.22"/>
    <text x="36" y="56" font-family="Georgia, 'Noto Serif Devanagari', serif" font-size="40" font-weight="700" fill="#fff7ed">दीप</text>
    <circle cx="352" cy="43" r="15" fill="#fde047" opacity="0.9"/>
  </g>
  <rect width="1600" height="900" filter="url(#grain)" opacity="0.34"/>
</svg>
