<svg xmlns="http://www.w3.org/2000/svg" width="1600" height="900" viewBox="0 0 1600 900" role="img" aria-label="त्रिगुण विज्ञान: सत्त्व, रजस और तमस गुण, मनुष्य का स्वभाव, आहार-व्यवहार और गुणातीत बनने का भगवद गीता का मार्ग">
  <defs>
    <radialGradient id="bgGlow" cx="50%" cy="43%" r="75%">
      <stop offset="0%" stop-color="#7dd3fc" stop-opacity="0.46"/>
      <stop offset="45%" stop-color="#0f3a5f" stop-opacity="0.92"/>
      <stop offset="100%" stop-color="#06152f"/>
    </radialGradient>
    <linearGradient id="glassPanel" x1="0%" y1="0%" x2="100%" y2="100%">
      <stop offset="0%" stop-color="#ffffff" stop-opacity="0.58"/>
      <stop offset="42%" stop-color="#7dd3fc" stop-opacity="0.22"/>
      <stop offset="100%" stop-color="#ffffff" stop-opacity="0.08"/>
    </linearGradient>
    <radialGradient id="glassOrb" cx="34%" cy="24%" r="68%">
      <stop offset="0%" stop-color="#ffffff" stop-opacity="0.94"/>
      <stop offset="34%" stop-color="#7dd3fc" stop-opacity="0.62"/>
      <stop offset="100%" stop-color="#0f3a5f" stop-opacity="0.22"/>
    </radialGradient>
    <linearGradient id="glassMountain" x1="0%" y1="0%" x2="100%" y2="100%">
      <stop offset="0%" stop-color="#ffffff" stop-opacity="0.48"/>
      <stop offset="100%" stop-color="#7dd3fc" stop-opacity="0.22"/>
    </linearGradient>
    <filter id="softGlow" x="-30%" y="-30%" width="160%" height="160%">
      <feGaussianBlur stdDeviation="18" result="blur"/>
      <feColorMatrix in="blur" type="matrix" values="1 0 0 0 0  0 1 0 0 0  0 0 1 0 0  0 0 0 0.75 0"/>
      <feMerge>
        <feMergeNode/>
        <feMergeNode in="SourceGraphic"/>
      </feMerge>
    </filter>
    <filter id="grain">
      <feTurbulence type="fractalNoise" baseFrequency="0.82" numOctaves="3" seed="443"/>
      <feColorMatrix type="saturate" values="0"/>
      <feComponentTransfer>
        <feFuncA type="table" tableValues="0 0.075"/>
      </feComponentTransfer>
    </filter>
  </defs>
  <rect width="1600" height="900" fill="url(#bgGlow)"/>
  <g opacity="0.72"><circle cx="1463" cy="568" r="0.9" fill="#facc15" opacity="0.58" />
<circle cx="1444" cy="387" r="2.2" fill="#facc15" opacity="0.27" />
<circle cx="1501" cy="206" r="1.1" fill="#facc15" opacity="0.20" />
<circle cx="1482" cy="25" r="2.4" fill="#facc15" opacity="0.39" />
<circle cx="1387" cy="744" r="2.9" fill="#facc15" opacity="0.34" />
<circle cx="1368" cy="563" r="1.8" fill="#facc15" opacity="0.53" />
<circle cx="1425" cy="382" r="3.1" fill="#facc15" opacity="0.46" />
<circle cx="1406" cy="201" r="2.0" fill="#facc15" opacity="0.65" />
<circle cx="1311" cy="216" r="1.7" fill="#facc15" opacity="0.56" />
<circle cx="1292" cy="35" r="3.0" fill="#facc15" opacity="0.25" />
<circle cx="1468" cy="765" r="2.6" fill="#facc15" opacity="0.65" />
<circle cx="1487" cy="46" r="1.3" fill="#facc15" opacity="0.46" />
<circle cx="1506" cy="227" r="2.8" fill="#facc15" opacity="0.53" />
<circle cx="1525" cy="408" r="1.5" fill="#facc15" opacity="0.34" />
<circle cx="1392" cy="41" r="3.0" fill="#facc15" opacity="0.41" />
<circle cx="1411" cy="222" r="1.7" fill="#facc15" opacity="0.22" />
<circle cx="1430" cy="403" r="0.8" fill="#facc15" opacity="0.29" />
<circle cx="1449" cy="584" r="1.9" fill="#facc15" opacity="0.60" />
<circle cx="20" cy="413" r="1.0" fill="#facc15" opacity="0.67" />
<circle cx="39" cy="594" r="2.1" fill="#facc15" opacity="0.48" />
<circle cx="1431" cy="74" r="0.9" fill="#facc15" opacity="0.60" />
<circle cx="1412" cy="793" r="2.2" fill="#facc15" opacity="0.29" />
<circle cx="1469" cy="436" r="1.1" fill="#facc15" opacity="0.48" />
<circle cx="1450" cy="255" r="2.4" fill="#facc15" opacity="0.67" />
<circle cx="1355" cy="798" r="2.9" fill="#facc15" opacity="0.36" />
<circle cx="1336" cy="617" r="1.8" fill="#facc15" opacity="0.55" />
<circle cx="1393" cy="260" r="3.1" fill="#facc15" opacity="0.24" />
<circle cx="1374" cy="79" r="2.0" fill="#facc15" opacity="0.43" />
<circle cx="1279" cy="622" r="1.7" fill="#facc15" opacity="0.58" />
<circle cx="1260" cy="441" r="3.0" fill="#facc15" opacity="0.27" />
<circle cx="1422" cy="111" r="2.4" fill="#facc15" opacity="0.19" />
<circle cx="1441" cy="292" r="1.1" fill="#facc15" opacity="0.50" />
<circle cx="1384" cy="649" r="2.2" fill="#facc15" opacity="0.31" />
<circle cx="1403" cy="830" r="0.9" fill="#facc15" opacity="0.62" />
<circle cx="1498" cy="287" r="2.0" fill="#facc15" opacity="0.45" />
<circle cx="1517" cy="468" r="3.1" fill="#facc15" opacity="0.26" />
<circle cx="1460" cy="825" r="1.8" fill="#facc15" opacity="0.57" />
<circle cx="1479" cy="106" r="2.9" fill="#facc15" opacity="0.38" />
<circle cx="1270" cy="463" r="2.4" fill="#facc15" opacity="0.67" />
<circle cx="1289" cy="644" r="1.1" fill="#facc15" opacity="0.48" />
<circle cx="1217" cy="320" r="2.3" fill="#facc15" opacity="0.24" />
<circle cx="1198" cy="139" r="1.2" fill="#facc15" opacity="0.43" />
<circle cx="1179" cy="858" r="2.1" fill="#facc15" opacity="0.36" />
<circle cx="1160" cy="677" r="1.0" fill="#facc15" opacity="0.55" />
<circle cx="1293" cy="144" r="2.7" fill="#facc15" opacity="0.50" />
<circle cx="1274" cy="863" r="1.6" fill="#facc15" opacity="0.19" />
<circle cx="1255" cy="682" r="2.5" fill="#facc15" opacity="0.62" />
<circle cx="1236" cy="501" r="1.4" fill="#facc15" opacity="0.31" />
<circle cx="1065" cy="672" r="3.1" fill="#facc15" opacity="0.22" />
<circle cx="1046" cy="491" r="2.0" fill="#facc15" opacity="0.41" />
<circle cx="1208" cy="529" r="3.0" fill="#facc15" opacity="0.33" />
<circle cx="1227" cy="710" r="1.7" fill="#facc15" opacity="0.64" />
<circle cx="1246" cy="891" r="0.8" fill="#facc15" opacity="0.21" />
<circle cx="1265" cy="172" r="1.9" fill="#facc15" opacity="0.52" />
<circle cx="1284" cy="353" r="2.6" fill="#facc15" opacity="0.57" />
<circle cx="1303" cy="534" r="1.3" fill="#facc15" opacity="0.38" />
<circle cx="1322" cy="715" r="2.8" fill="#facc15" opacity="0.45" />
<circle cx="1341" cy="896" r="1.5" fill="#facc15" opacity="0.26" />
<circle cx="1056" cy="881" r="3.0" fill="#facc15" opacity="0.31" />
<circle cx="1075" cy="162" r="1.7" fill="#facc15" opacity="0.62" />
<circle cx="1459" cy="738" r="1.3" fill="#facc15" opacity="0.24" />
<circle cx="1440" cy="557" r="1.8" fill="#facc15" opacity="0.43" />
<circle cx="1497" cy="200" r="3.1" fill="#facc15" opacity="0.62" />
<circle cx="1478" cy="19" r="2.0" fill="#facc15" opacity="0.31" />
<circle cx="1535" cy="14" r="0.9" fill="#facc15" opacity="0.48" />
<circle cx="1516" cy="733" r="2.2" fill="#facc15" opacity="0.67" />
<circle cx="1573" cy="376" r="1.1" fill="#facc15" opacity="0.36" />
<circle cx="1554" cy="195" r="2.4" fill="#facc15" opacity="0.55" /></g>
  <circle cx="453" cy="286" r="230" fill="#7dd3fc" opacity="0.08"/>
  <circle cx="1135" cy="653" r="275" fill="#facc15" opacity="0.08"/>
  <g filter="url(#softGlow)">
    
      <circle cx="782" cy="430" r="185" fill="none" stroke="#facc15" stroke-width="20" opacity="0.78"/>
      <line x1="782" y1="430" x2="782" y2="245" stroke="#facc15" stroke-width="7" opacity="0.58" transform="rotate(0 782 430)" />
<line x1="782" y1="430" x2="782" y2="245" stroke="#facc15" stroke-width="7" opacity="0.58" transform="rotate(15 782 430)" />
<line x1="782" y1="430" x2="782" y2="245" stroke="#facc15" stroke-width="7" opacity="0.58" transform="rotate(30 782 430)" />
<line x1="782" y1="430" x2="782" y2="245" stroke="#facc15" stroke-width="7" opacity="0.58" transform="rotate(45 782 430)" />
<line x1="782" y1="430" x2="782" y2="245" stroke="#facc15" stroke-width="7" opacity="0.58" transform="rotate(60 782 430)" />
<line x1="782" y1="430" x2="782" y2="245" stroke="#facc15" stroke-width="7" opacity="0.58" transform="rotate(75 782 430)" />
<line x1="782" y1="430" x2="782" y2="245" stroke="#facc15" stroke-width="7" opacity="0.58" transform="rotate(90 782 430)" />
<line x1="782" y1="430" x2="782" y2="245" stroke="#facc15" stroke-width="7" opacity="0.58" transform="rotate(105 782 430)" />
<line x1="782" y1="430" x2="782" y2="245" stroke="#facc15" stroke-width="7" opacity="0.58" transform="rotate(120 782 430)" />
<line x1="782" y1="430" x2="782" y2="245" stroke="#facc15" stroke-width="7" opacity="0.58" transform="rotate(135 782 430)" />
<line x1="782" y1="430" x2="782" y2="245" stroke="#facc15" stroke-width="7" opacity="0.58" transform="rotate(150 782 430)" />
<line x1="782" y1="430" x2="782" y2="245" stroke="#facc15" stroke-width="7" opacity="0.58" transform="rotate(165 782 430)" />
<line x1="782" y1="430" x2="782" y2="245" stroke="#facc15" stroke-width="7" opacity="0.58" transform="rotate(180 782 430)" />
<line x1="782" y1="430" x2="782" y2="245" stroke="#facc15" stroke-width="7" opacity="0.58" transform="rotate(195 782 430)" />
<line x1="782" y1="430" x2="782" y2="245" stroke="#facc15" stroke-width="7" opacity="0.58" transform="rotate(210 782 430)" />
<line x1="782" y1="430" x2="782" y2="245" stroke="#facc15" stroke-width="7" opacity="0.58" transform="rotate(225 782 430)" />
<line x1="782" y1="430" x2="782" y2="245" stroke="#facc15" stroke-width="7" opacity="0.58" transform="rotate(240 782 430)" />
<line x1="782" y1="430" x2="782" y2="245" stroke="#facc15" stroke-width="7" opacity="0.58" transform="rotate(255 782 430)" />
<line x1="782" y1="430" x2="782" y2="245" stroke="#facc15" stroke-width="7" opacity="0.58" transform="rotate(270 782 430)" />
<line x1="782" y1="430" x2="782" y2="245" stroke="#facc15" stroke-width="7" opacity="0.58" transform="rotate(285 782 430)" />
<line x1="782" y1="430" x2="782" y2="245" stroke="#facc15" stroke-width="7" opacity="0.58" transform="rotate(300 782 430)" />
<line x1="782" y1="430" x2="782" y2="245" stroke="#facc15" stroke-width="7" opacity="0.58" transform="rotate(315 782 430)" />
<line x1="782" y1="430" x2="782" y2="245" stroke="#facc15" stroke-width="7" opacity="0.58" transform="rotate(330 782 430)" />
<line x1="782" y1="430" x2="782" y2="245" stroke="#facc15" stroke-width="7" opacity="0.58" transform="rotate(345 782 430)" />
      <circle cx="782" cy="430" r="64" fill="url(#glassOrb)" opacity="0.92"/>
      <path d="M545 585 C660 525 940 525 1055 585 C975 655 625 655 545 585 Z" fill="#7dd3fc" opacity="0.18"/>
    
  </g>
  <g opacity="0.78">
    <rect x="88" y="82" width="1424" height="736" rx="46" fill="none" stroke="#ffffff" stroke-opacity="0.2" stroke-width="2"/>
    <path d="M150 150 C320 82 525 78 720 126" stroke="#fff7ed" stroke-opacity="0.44" stroke-width="7" stroke-linecap="round"/>
    <path d="M1332 710 C1215 775 1005 792 855 752" stroke="#7dd3fc" stroke-opacity="0.42" stroke-width="8" stroke-linecap="round"/>
  </g>
  <g transform="translate(126 714)">
    <rect width="420" height="86" rx="28" fill="#ffffff" opacity="0.12"/>
    <rect x="1" y="1" width="418" height="84" rx="27" fill="none" stroke="#ffffff" stroke-opacity="0.22"/>
    <text x="36" y="56" font-family="Georgia, 'Noto Serif Devanagari', serif" font-size="40" font-weight="700" fill="#fff7ed">चक्र</text>
    <circle cx="352" cy="43" r="15" fill="#7dd3fc" opacity="0.9"/>
  </g>
  <rect width="1600" height="900" filter="url(#grain)" opacity="0.34"/>
</svg>
