<svg xmlns="http://www.w3.org/2000/svg" width="1600" height="900" viewBox="0 0 1600 900" role="img" aria-label="त्रिदेव (ब्रह्मा, विष्णु और महेश) की भूमिकाएँ: पौराणिक कथाएँ, दार्शनिक आधार और ब्रह्मांडीय नियम">
  <defs>
    <radialGradient id="bgGlow" cx="50%" cy="43%" r="75%">
      <stop offset="0%" stop-color="#6ee7f9" stop-opacity="0.46"/>
      <stop offset="45%" stop-color="#19233f" stop-opacity="0.92"/>
      <stop offset="100%" stop-color="#07111f"/>
    </radialGradient>
    <linearGradient id="glassPanel" x1="0%" y1="0%" x2="100%" y2="100%">
      <stop offset="0%" stop-color="#ffffff" stop-opacity="0.58"/>
      <stop offset="42%" stop-color="#6ee7f9" stop-opacity="0.22"/>
      <stop offset="100%" stop-color="#ffffff" stop-opacity="0.08"/>
    </linearGradient>
    <radialGradient id="glassOrb" cx="34%" cy="24%" r="68%">
      <stop offset="0%" stop-color="#ffffff" stop-opacity="0.94"/>
      <stop offset="34%" stop-color="#6ee7f9" stop-opacity="0.62"/>
      <stop offset="100%" stop-color="#19233f" stop-opacity="0.22"/>
    </radialGradient>
    <linearGradient id="glassMountain" x1="0%" y1="0%" x2="100%" y2="100%">
      <stop offset="0%" stop-color="#ffffff" stop-opacity="0.48"/>
      <stop offset="100%" stop-color="#6ee7f9" stop-opacity="0.22"/>
    </linearGradient>
    <filter id="softGlow" x="-30%" y="-30%" width="160%" height="160%">
      <feGaussianBlur stdDeviation="18" result="blur"/>
      <feColorMatrix in="blur" type="matrix" values="1 0 0 0 0  0 1 0 0 0  0 0 1 0 0  0 0 0 0.75 0"/>
      <feMerge>
        <feMergeNode/>
        <feMergeNode in="SourceGraphic"/>
      </feMerge>
    </filter>
    <filter id="grain">
      <feTurbulence type="fractalNoise" baseFrequency="0.82" numOctaves="3" seed="314"/>
      <feColorMatrix type="saturate" values="0"/>
      <feComponentTransfer>
        <feFuncA type="table" tableValues="0 0.075"/>
      </feComponentTransfer>
    </filter>
  </defs>
  <rect width="1600" height="900" fill="url(#bgGlow)"/>
  <g opacity="0.72"><circle cx="398" cy="289" r="1.2" fill="#c4b5fd" opacity="0.19" />
<circle cx="417" cy="470" r="2.3" fill="#c4b5fd" opacity="0.50" />
<circle cx="360" cy="651" r="1.0" fill="#c4b5fd" opacity="0.57" />
<circle cx="379" cy="832" r="2.1" fill="#c4b5fd" opacity="0.38" />
<circle cx="474" cy="113" r="1.6" fill="#c4b5fd" opacity="0.43" />
<circle cx="493" cy="294" r="2.7" fill="#c4b5fd" opacity="0.24" />
<circle cx="436" cy="475" r="1.4" fill="#c4b5fd" opacity="0.31" />
<circle cx="455" cy="656" r="2.5" fill="#c4b5fd" opacity="0.62" />
<circle cx="246" cy="641" r="2.8" fill="#c4b5fd" opacity="0.67" />
<circle cx="265" cy="822" r="1.5" fill="#c4b5fd" opacity="0.48" />
<circle cx="771" cy="294" r="2.1" fill="#c4b5fd" opacity="0.24" />
<circle cx="752" cy="113" r="1.0" fill="#c4b5fd" opacity="0.43" />
<circle cx="809" cy="656" r="2.3" fill="#c4b5fd" opacity="0.62" />
<circle cx="790" cy="475" r="1.2" fill="#c4b5fd" opacity="0.31" />
<circle cx="847" cy="470" r="2.5" fill="#c4b5fd" opacity="0.48" />
<circle cx="828" cy="289" r="1.4" fill="#c4b5fd" opacity="0.67" />
<circle cx="885" cy="832" r="2.7" fill="#c4b5fd" opacity="0.36" />
<circle cx="866" cy="651" r="1.6" fill="#c4b5fd" opacity="0.55" />
<circle cx="923" cy="646" r="2.9" fill="#c4b5fd" opacity="0.26" />
<circle cx="904" cy="465" r="1.8" fill="#c4b5fd" opacity="0.45" />
<circle cx="520" cy="361" r="2.2" fill="#c4b5fd" opacity="0.37" />
<circle cx="539" cy="542" r="0.9" fill="#c4b5fd" opacity="0.18" />
<circle cx="558" cy="723" r="2.4" fill="#c4b5fd" opacity="0.25" />
<circle cx="577" cy="4" r="1.1" fill="#c4b5fd" opacity="0.56" />
<circle cx="596" cy="185" r="1.8" fill="#c4b5fd" opacity="0.61" />
<circle cx="615" cy="366" r="2.9" fill="#c4b5fd" opacity="0.42" />
<circle cx="634" cy="547" r="2.0" fill="#c4b5fd" opacity="0.49" />
<circle cx="653" cy="728" r="3.1" fill="#c4b5fd" opacity="0.30" />
<circle cx="368" cy="9" r="1.4" fill="#c4b5fd" opacity="0.35" />
<circle cx="387" cy="190" r="2.5" fill="#c4b5fd" opacity="0.66" />
<circle cx="529" cy="152" r="1.5" fill="#c4b5fd" opacity="0.42" />
<circle cx="510" cy="871" r="2.8" fill="#c4b5fd" opacity="0.61" />
<circle cx="491" cy="690" r="1.3" fill="#c4b5fd" opacity="0.54" />
<circle cx="472" cy="509" r="2.6" fill="#c4b5fd" opacity="0.23" />
<circle cx="605" cy="876" r="1.9" fill="#c4b5fd" opacity="0.18" />
<circle cx="586" cy="695" r="0.8" fill="#c4b5fd" opacity="0.37" />
<circle cx="567" cy="514" r="1.7" fill="#c4b5fd" opacity="0.30" />
<circle cx="548" cy="333" r="3.0" fill="#c4b5fd" opacity="0.49" />
<circle cx="377" cy="700" r="3.1" fill="#c4b5fd" opacity="0.40" />
<circle cx="358" cy="519" r="2.0" fill="#c4b5fd" opacity="0.59" />
<circle cx="734" cy="843" r="1.6" fill="#c4b5fd" opacity="0.23" />
<circle cx="753" cy="124" r="2.7" fill="#c4b5fd" opacity="0.54" />
<circle cx="696" cy="481" r="1.4" fill="#c4b5fd" opacity="0.35" />
<circle cx="715" cy="662" r="2.5" fill="#c4b5fd" opacity="0.66" />
<circle cx="810" cy="119" r="1.2" fill="#c4b5fd" opacity="0.49" />
<circle cx="829" cy="300" r="2.3" fill="#c4b5fd" opacity="0.30" />
<circle cx="772" cy="657" r="1.0" fill="#c4b5fd" opacity="0.61" />
<circle cx="791" cy="838" r="2.1" fill="#c4b5fd" opacity="0.42" />
<circle cx="582" cy="387" r="0.8" fill="#c4b5fd" opacity="0.21" />
<circle cx="601" cy="568" r="1.9" fill="#c4b5fd" opacity="0.52" />
<circle cx="743" cy="298" r="2.5" fill="#c4b5fd" opacity="0.64" />
<circle cx="724" cy="117" r="1.4" fill="#c4b5fd" opacity="0.33" />
<circle cx="781" cy="660" r="2.7" fill="#c4b5fd" opacity="0.52" />
<circle cx="762" cy="479" r="1.6" fill="#c4b5fd" opacity="0.21" />
<circle cx="667" cy="122" r="2.1" fill="#c4b5fd" opacity="0.40" />
<circle cx="648" cy="841" r="1.0" fill="#c4b5fd" opacity="0.59" />
<circle cx="705" cy="484" r="2.3" fill="#c4b5fd" opacity="0.28" />
<circle cx="686" cy="303" r="1.2" fill="#c4b5fd" opacity="0.47" />
<circle cx="591" cy="650" r="1.7" fill="#c4b5fd" opacity="0.62" />
<circle cx="572" cy="469" r="3.0" fill="#c4b5fd" opacity="0.31" />
<circle cx="780" cy="89" r="1.8" fill="#c4b5fd" opacity="0.65" />
<circle cx="799" cy="270" r="2.9" fill="#c4b5fd" opacity="0.46" />
<circle cx="818" cy="451" r="2.0" fill="#c4b5fd" opacity="0.53" />
<circle cx="837" cy="632" r="3.1" fill="#c4b5fd" opacity="0.34" />
<circle cx="704" cy="265" r="2.2" fill="#c4b5fd" opacity="0.41" />
<circle cx="723" cy="446" r="0.9" fill="#c4b5fd" opacity="0.22" />
<circle cx="742" cy="627" r="2.4" fill="#c4b5fd" opacity="0.29" />
<circle cx="761" cy="808" r="1.1" fill="#c4b5fd" opacity="0.60" /></g>
  <circle cx="508" cy="315" r="230" fill="#6ee7f9" opacity="0.08"/>
  <circle cx="1126" cy="638" r="275" fill="#c4b5fd" opacity="0.08"/>
  <g filter="url(#softGlow)">
    
      <path d="M0 760 L260 430 L420 630 L620 315 L860 710 L1100 390 L1370 760 Z" fill="url(#glassMountain)" opacity="0.72"/>
      <path d="M586 360 L620 315 L654 360 L632 350 L620 385 L607 350 Z" fill="#f8fafc" opacity="0.88"/>
      <path d="M1062 442 L1100 390 L1140 446 L1118 432 L1100 472 L1084 432 Z" fill="#f8fafc" opacity="0.82"/>
      <path d="M778 225 v285 M708 332 h140 M738 275 q40 28 80 0" stroke="#c4b5fd" stroke-width="22" stroke-linecap="round" fill="none" opacity="0.84"/>
    
  </g>
  <g opacity="0.78">
    <rect x="88" y="82" width="1424" height="736" rx="46" fill="none" stroke="#ffffff" stroke-opacity="0.2" stroke-width="2"/>
    <path d="M150 150 C320 82 525 78 720 126" stroke="#fff7ed" stroke-opacity="0.44" stroke-width="7" stroke-linecap="round"/>
    <path d="M1332 710 C1215 775 1005 792 855 752" stroke="#6ee7f9" stroke-opacity="0.42" stroke-width="8" stroke-linecap="round"/>
  </g>
  <g transform="translate(126 714)">
    <rect width="420" height="86" rx="28" fill="#ffffff" opacity="0.12"/>
    <rect x="1" y="1" width="418" height="84" rx="27" fill="none" stroke="#ffffff" stroke-opacity="0.22"/>
    <text x="36" y="56" font-family="Georgia, 'Noto Serif Devanagari', serif" font-size="40" font-weight="700" fill="#fff7ed">त्रिशूल</text>
    <circle cx="352" cy="43" r="15" fill="#6ee7f9" opacity="0.9"/>
  </g>
  <rect width="1600" height="900" filter="url(#grain)" opacity="0.34"/>
</svg>
