<svg xmlns="http://www.w3.org/2000/svg" width="1600" height="900" viewBox="0 0 1600 900" role="img" aria-label="तुलसी का आध्यात्मिक महत्व और आयुर्वेद में उपयोग: वैज्ञानिक कारण और स्वास्थ्य लाभ">
  <defs>
    <radialGradient id="bgGlow" cx="50%" cy="43%" r="75%">
      <stop offset="0%" stop-color="#fcd34d" stop-opacity="0.46"/>
      <stop offset="45%" stop-color="#5b3311" stop-opacity="0.92"/>
      <stop offset="100%" stop-color="#201104"/>
    </radialGradient>
    <linearGradient id="glassPanel" x1="0%" y1="0%" x2="100%" y2="100%">
      <stop offset="0%" stop-color="#ffffff" stop-opacity="0.58"/>
      <stop offset="42%" stop-color="#fcd34d" stop-opacity="0.22"/>
      <stop offset="100%" stop-color="#ffffff" stop-opacity="0.08"/>
    </linearGradient>
    <radialGradient id="glassOrb" cx="34%" cy="24%" r="68%">
      <stop offset="0%" stop-color="#ffffff" stop-opacity="0.94"/>
      <stop offset="34%" stop-color="#fcd34d" stop-opacity="0.62"/>
      <stop offset="100%" stop-color="#5b3311" stop-opacity="0.22"/>
    </radialGradient>
    <linearGradient id="glassMountain" x1="0%" y1="0%" x2="100%" y2="100%">
      <stop offset="0%" stop-color="#ffffff" stop-opacity="0.48"/>
      <stop offset="100%" stop-color="#fcd34d" stop-opacity="0.22"/>
    </linearGradient>
    <filter id="softGlow" x="-30%" y="-30%" width="160%" height="160%">
      <feGaussianBlur stdDeviation="18" result="blur"/>
      <feColorMatrix in="blur" type="matrix" values="1 0 0 0 0  0 1 0 0 0  0 0 1 0 0  0 0 0 0.75 0"/>
      <feMerge>
        <feMergeNode/>
        <feMergeNode in="SourceGraphic"/>
      </feMerge>
    </filter>
    <filter id="grain">
      <feTurbulence type="fractalNoise" baseFrequency="0.82" numOctaves="3" seed="339"/>
      <feColorMatrix type="saturate" values="0"/>
      <feComponentTransfer>
        <feFuncA type="table" tableValues="0 0.075"/>
      </feComponentTransfer>
    </filter>
  </defs>
  <rect width="1600" height="900" fill="url(#bgGlow)"/>
  <g opacity="0.72"><circle cx="124" cy="99" r="1.4" fill="#fb923c" opacity="0.49" />
<circle cx="143" cy="280" r="2.5" fill="#fb923c" opacity="0.30" />
<circle cx="162" cy="637" r="1.6" fill="#fb923c" opacity="0.61" />
<circle cx="181" cy="818" r="2.7" fill="#fb923c" opacity="0.42" />
<circle cx="48" cy="275" r="1.0" fill="#fb923c" opacity="0.25" />
<circle cx="67" cy="456" r="2.1" fill="#fb923c" opacity="0.56" />
<circle cx="86" cy="813" r="1.2" fill="#fb923c" opacity="0.37" />
<circle cx="105" cy="94" r="2.3" fill="#fb923c" opacity="0.18" />
<circle cx="276" cy="647" r="2.2" fill="#fb923c" opacity="0.47" />
<circle cx="295" cy="828" r="0.9" fill="#fb923c" opacity="0.28" />
<circle cx="237" cy="52" r="2.7" fill="#fb923c" opacity="0.64" />
<circle cx="218" cy="771" r="1.6" fill="#fb923c" opacity="0.33" />
<circle cx="199" cy="590" r="2.5" fill="#fb923c" opacity="0.26" />
<circle cx="180" cy="409" r="1.4" fill="#fb923c" opacity="0.45" />
<circle cx="161" cy="228" r="2.3" fill="#fb923c" opacity="0.38" />
<circle cx="142" cy="47" r="1.2" fill="#fb923c" opacity="0.57" />
<circle cx="123" cy="766" r="2.1" fill="#fb923c" opacity="0.50" />
<circle cx="104" cy="585" r="1.0" fill="#fb923c" opacity="0.19" />
<circle cx="85" cy="600" r="1.9" fill="#fb923c" opacity="0.62" />
<circle cx="66" cy="419" r="0.8" fill="#fb923c" opacity="0.31" />
<circle cx="534" cy="403" r="1.6" fill="#fb923c" opacity="0.23" />
<circle cx="553" cy="584" r="2.7" fill="#fb923c" opacity="0.54" />
<circle cx="496" cy="41" r="1.4" fill="#fb923c" opacity="0.35" />
<circle cx="515" cy="222" r="2.5" fill="#fb923c" opacity="0.66" />
<circle cx="610" cy="579" r="1.2" fill="#fb923c" opacity="0.49" />
<circle cx="629" cy="760" r="2.3" fill="#fb923c" opacity="0.30" />
<circle cx="572" cy="217" r="1.0" fill="#fb923c" opacity="0.61" />
<circle cx="591" cy="398" r="2.1" fill="#fb923c" opacity="0.42" />
<circle cx="686" cy="755" r="2.4" fill="#fb923c" opacity="0.21" />
<circle cx="705" cy="36" r="1.1" fill="#fb923c" opacity="0.52" />
<circle cx="543" cy="702" r="0.9" fill="#fb923c" opacity="0.64" />
<circle cx="524" cy="521" r="2.2" fill="#fb923c" opacity="0.33" />
<circle cx="581" cy="164" r="1.1" fill="#fb923c" opacity="0.52" />
<circle cx="562" cy="883" r="2.4" fill="#fb923c" opacity="0.21" />
<circle cx="467" cy="526" r="2.9" fill="#fb923c" opacity="0.40" />
<circle cx="448" cy="345" r="1.8" fill="#fb923c" opacity="0.59" />
<circle cx="505" cy="888" r="3.1" fill="#fb923c" opacity="0.28" />
<circle cx="486" cy="707" r="2.0" fill="#fb923c" opacity="0.47" />
<circle cx="1399" cy="350" r="1.7" fill="#fb923c" opacity="0.62" />
<circle cx="1380" cy="169" r="3.0" fill="#fb923c" opacity="0.31" />
<circle cx="320" cy="257" r="2.2" fill="#fb923c" opacity="0.37" />
<circle cx="339" cy="438" r="0.9" fill="#fb923c" opacity="0.18" />
<circle cx="358" cy="619" r="2.4" fill="#fb923c" opacity="0.25" />
<circle cx="377" cy="800" r="1.1" fill="#fb923c" opacity="0.56" />
<circle cx="396" cy="81" r="1.8" fill="#fb923c" opacity="0.61" />
<circle cx="415" cy="262" r="2.9" fill="#fb923c" opacity="0.42" />
<circle cx="434" cy="443" r="2.0" fill="#fb923c" opacity="0.49" />
<circle cx="453" cy="624" r="3.1" fill="#fb923c" opacity="0.30" />
<circle cx="472" cy="609" r="3.0" fill="#fb923c" opacity="0.35" />
<circle cx="491" cy="790" r="1.7" fill="#fb923c" opacity="0.66" />
<circle cx="265" cy="48" r="1.5" fill="#fb923c" opacity="0.28" />
<circle cx="246" cy="767" r="2.8" fill="#fb923c" opacity="0.47" />
<circle cx="227" cy="586" r="1.3" fill="#fb923c" opacity="0.40" />
<circle cx="208" cy="405" r="2.6" fill="#fb923c" opacity="0.59" />
<circle cx="341" cy="772" r="1.9" fill="#fb923c" opacity="0.54" />
<circle cx="322" cy="591" r="0.8" fill="#fb923c" opacity="0.23" />
<circle cx="303" cy="410" r="1.7" fill="#fb923c" opacity="0.66" />
<circle cx="284" cy="229" r="3.0" fill="#fb923c" opacity="0.35" />
<circle cx="417" cy="400" r="2.3" fill="#fb923c" opacity="0.26" />
<circle cx="398" cy="219" r="1.2" fill="#fb923c" opacity="0.45" />
<circle cx="274" cy="675" r="2.0" fill="#fb923c" opacity="0.19" />
<circle cx="293" cy="856" r="3.1" fill="#fb923c" opacity="0.50" />
<circle cx="236" cy="313" r="1.8" fill="#fb923c" opacity="0.31" />
<circle cx="255" cy="494" r="2.9" fill="#fb923c" opacity="0.62" />
<circle cx="198" cy="499" r="2.4" fill="#fb923c" opacity="0.43" />
<circle cx="217" cy="680" r="1.1" fill="#fb923c" opacity="0.24" />
<circle cx="160" cy="137" r="2.2" fill="#fb923c" opacity="0.55" />
<circle cx="179" cy="318" r="0.9" fill="#fb923c" opacity="0.36" /></g>
  <circle cx="426" cy="317" r="230" fill="#fcd34d" opacity="0.08"/>
  <circle cx="1168" cy="646" r="275" fill="#fb923c" opacity="0.08"/>
  <g filter="url(#softGlow)">
    
      <path d="M520 300 h560 a44 44 0 0 1 44 44 v280 a44 44 0 0 1 -44 44 H520 a44 44 0 0 1 -44 -44 V344 a44 44 0 0 1 44 -44 Z" fill="url(#glassPanel)" opacity="0.72"/>
      <path d="M800 320 v330" stroke="#fff7ed" stroke-width="9" opacity="0.48"/>
      <path d="M555 380 h185" stroke="#fb923c" stroke-width="10" stroke-linecap="round" opacity="0.35" />
<path d="M555 416 h185" stroke="#fb923c" stroke-width="10" stroke-linecap="round" opacity="0.385" />
<path d="M555 452 h185" stroke="#fb923c" stroke-width="10" stroke-linecap="round" opacity="0.42" />
<path d="M555 488 h185" stroke="#fb923c" stroke-width="10" stroke-linecap="round" opacity="0.45499999999999996" />
<path d="M555 524 h185" stroke="#fb923c" stroke-width="10" stroke-linecap="round" opacity="0.49" />
<path d="M555 560 h185" stroke="#fb923c" stroke-width="10" stroke-linecap="round" opacity="0.525" />
<path d="M555 596 h185" stroke="#fb923c" stroke-width="10" stroke-linecap="round" opacity="0.56" />
      <path d="M865 380 h185" stroke="#fcd34d" stroke-width="10" stroke-linecap="round" opacity="0.35" />
<path d="M865 416 h185" stroke="#fcd34d" stroke-width="10" stroke-linecap="round" opacity="0.385" />
<path d="M865 452 h185" stroke="#fcd34d" stroke-width="10" stroke-linecap="round" opacity="0.42" />
<path d="M865 488 h185" stroke="#fcd34d" stroke-width="10" stroke-linecap="round" opacity="0.45499999999999996" />
<path d="M865 524 h185" stroke="#fcd34d" stroke-width="10" stroke-linecap="round" opacity="0.49" />
<path d="M865 560 h185" stroke="#fcd34d" stroke-width="10" stroke-linecap="round" opacity="0.525" />
<path d="M865 596 h185" stroke="#fcd34d" stroke-width="10" stroke-linecap="round" opacity="0.56" />
    
  </g>
  <g opacity="0.78">
    <rect x="88" y="82" width="1424" height="736" rx="46" fill="none" stroke="#ffffff" stroke-opacity="0.2" stroke-width="2"/>
    <path d="M150 150 C320 82 525 78 720 126" stroke="#fff7ed" stroke-opacity="0.44" stroke-width="7" stroke-linecap="round"/>
    <path d="M1332 710 C1215 775 1005 792 855 752" stroke="#fcd34d" stroke-opacity="0.42" stroke-width="8" stroke-linecap="round"/>
  </g>
  <g transform="translate(126 714)">
    <rect width="420" height="86" rx="28" fill="#ffffff" opacity="0.12"/>
    <rect x="1" y="1" width="418" height="84" rx="27" fill="none" stroke="#ffffff" stroke-opacity="0.22"/>
    <text x="36" y="56" font-family="Georgia, 'Noto Serif Devanagari', serif" font-size="40" font-weight="700" fill="#fff7ed">ग्रंथ</text>
    <circle cx="352" cy="43" r="15" fill="#fcd34d" opacity="0.9"/>
  </g>
  <rect width="1600" height="900" filter="url(#grain)" opacity="0.34"/>
</svg>
