<svg xmlns="http://www.w3.org/2000/svg" width="1600" height="900" viewBox="0 0 1600 900" role="img" aria-label="उपनिषदों का ज्ञान: भारतीय दर्शन का सर्वोच्च शिखर और दर्शन">
  <defs>
    <radialGradient id="bgGlow" cx="50%" cy="43%" r="75%">
      <stop offset="0%" stop-color="#fcd34d" stop-opacity="0.46"/>
      <stop offset="45%" stop-color="#5b3311" stop-opacity="0.92"/>
      <stop offset="100%" stop-color="#201104"/>
    </radialGradient>
    <linearGradient id="glassPanel" x1="0%" y1="0%" x2="100%" y2="100%">
      <stop offset="0%" stop-color="#ffffff" stop-opacity="0.58"/>
      <stop offset="42%" stop-color="#fcd34d" stop-opacity="0.22"/>
      <stop offset="100%" stop-color="#ffffff" stop-opacity="0.08"/>
    </linearGradient>
    <radialGradient id="glassOrb" cx="34%" cy="24%" r="68%">
      <stop offset="0%" stop-color="#ffffff" stop-opacity="0.94"/>
      <stop offset="34%" stop-color="#fcd34d" stop-opacity="0.62"/>
      <stop offset="100%" stop-color="#5b3311" stop-opacity="0.22"/>
    </radialGradient>
    <linearGradient id="glassMountain" x1="0%" y1="0%" x2="100%" y2="100%">
      <stop offset="0%" stop-color="#ffffff" stop-opacity="0.48"/>
      <stop offset="100%" stop-color="#fcd34d" stop-opacity="0.22"/>
    </linearGradient>
    <filter id="softGlow" x="-30%" y="-30%" width="160%" height="160%">
      <feGaussianBlur stdDeviation="18" result="blur"/>
      <feColorMatrix in="blur" type="matrix" values="1 0 0 0 0  0 1 0 0 0  0 0 1 0 0  0 0 0 0.75 0"/>
      <feMerge>
        <feMergeNode/>
        <feMergeNode in="SourceGraphic"/>
      </feMerge>
    </filter>
    <filter id="grain">
      <feTurbulence type="fractalNoise" baseFrequency="0.82" numOctaves="3" seed="175"/>
      <feColorMatrix type="saturate" values="0"/>
      <feComponentTransfer>
        <feFuncA type="table" tableValues="0 0.075"/>
      </feComponentTransfer>
    </filter>
  </defs>
  <rect width="1600" height="900" fill="url(#bgGlow)"/>
  <g opacity="0.72"><circle cx="1113" cy="550" r="1.5" fill="#fb923c" opacity="0.34" />
<circle cx="1094" cy="369" r="2.8" fill="#fb923c" opacity="0.53" />
<circle cx="1075" cy="12" r="1.3" fill="#fb923c" opacity="0.22" />
<circle cx="1056" cy="731" r="2.6" fill="#fb923c" opacity="0.41" />
<circle cx="1189" cy="374" r="1.9" fill="#fb923c" opacity="0.58" />
<circle cx="1170" cy="193" r="0.8" fill="#fb923c" opacity="0.27" />
<circle cx="1151" cy="736" r="1.7" fill="#fb923c" opacity="0.46" />
<circle cx="1132" cy="555" r="3.0" fill="#fb923c" opacity="0.65" />
<circle cx="1265" cy="2" r="3.1" fill="#fb923c" opacity="0.32" />
<circle cx="1246" cy="721" r="2.0" fill="#fb923c" opacity="0.51" />
<circle cx="1282" cy="667" r="1.2" fill="#fb923c" opacity="0.47" />
<circle cx="1301" cy="848" r="2.3" fill="#fb923c" opacity="0.28" />
<circle cx="1244" cy="305" r="1.0" fill="#fb923c" opacity="0.59" />
<circle cx="1263" cy="486" r="2.1" fill="#fb923c" opacity="0.40" />
<circle cx="1206" cy="491" r="1.6" fill="#fb923c" opacity="0.21" />
<circle cx="1225" cy="672" r="2.7" fill="#fb923c" opacity="0.52" />
<circle cx="1168" cy="129" r="1.4" fill="#fb923c" opacity="0.33" />
<circle cx="1187" cy="310" r="2.5" fill="#fb923c" opacity="0.64" />
<circle cx="1434" cy="119" r="2.0" fill="#fb923c" opacity="0.49" />
<circle cx="1453" cy="300" r="3.1" fill="#fb923c" opacity="0.30" />
<circle cx="441" cy="316" r="1.5" fill="#fb923c" opacity="0.56" />
<circle cx="422" cy="135" r="2.8" fill="#fb923c" opacity="0.25" />
<circle cx="403" cy="854" r="1.3" fill="#fb923c" opacity="0.18" />
<circle cx="384" cy="673" r="2.6" fill="#fb923c" opacity="0.37" />
<circle cx="517" cy="140" r="1.9" fill="#fb923c" opacity="0.32" />
<circle cx="498" cy="859" r="0.8" fill="#fb923c" opacity="0.51" />
<circle cx="479" cy="678" r="1.7" fill="#fb923c" opacity="0.44" />
<circle cx="460" cy="497" r="3.0" fill="#fb923c" opacity="0.63" />
<circle cx="593" cy="864" r="3.1" fill="#fb923c" opacity="0.54" />
<circle cx="574" cy="683" r="2.0" fill="#fb923c" opacity="0.23" />
<circle cx="432" cy="525" r="2.2" fill="#fb923c" opacity="0.51" />
<circle cx="451" cy="706" r="0.9" fill="#fb923c" opacity="0.32" />
<circle cx="470" cy="887" r="2.4" fill="#fb923c" opacity="0.39" />
<circle cx="489" cy="168" r="1.1" fill="#fb923c" opacity="0.20" />
<circle cx="508" cy="349" r="1.8" fill="#fb923c" opacity="0.25" />
<circle cx="527" cy="530" r="2.9" fill="#fb923c" opacity="0.56" />
<circle cx="546" cy="711" r="2.0" fill="#fb923c" opacity="0.63" />
<circle cx="565" cy="892" r="3.1" fill="#fb923c" opacity="0.44" />
<circle cx="584" cy="173" r="1.4" fill="#fb923c" opacity="0.49" />
<circle cx="603" cy="354" r="2.5" fill="#fb923c" opacity="0.30" />
<circle cx="655" cy="798" r="0.9" fill="#fb923c" opacity="0.28" />
<circle cx="636" cy="617" r="2.2" fill="#fb923c" opacity="0.47" />
<circle cx="693" cy="260" r="1.1" fill="#fb923c" opacity="0.66" />
<circle cx="674" cy="79" r="2.4" fill="#fb923c" opacity="0.35" />
<circle cx="579" cy="622" r="2.9" fill="#fb923c" opacity="0.54" />
<circle cx="560" cy="441" r="1.8" fill="#fb923c" opacity="0.23" />
<circle cx="617" cy="84" r="3.1" fill="#fb923c" opacity="0.42" />
<circle cx="598" cy="803" r="2.0" fill="#fb923c" opacity="0.61" />
<circle cx="807" cy="250" r="2.5" fill="#fb923c" opacity="0.26" />
<circle cx="788" cy="69" r="1.4" fill="#fb923c" opacity="0.45" />
<circle cx="646" cy="107" r="1.6" fill="#fb923c" opacity="0.37" />
<circle cx="665" cy="288" r="2.7" fill="#fb923c" opacity="0.18" />
<circle cx="608" cy="645" r="1.4" fill="#fb923c" opacity="0.49" />
<circle cx="627" cy="826" r="2.5" fill="#fb923c" opacity="0.30" />
<circle cx="722" cy="283" r="1.2" fill="#fb923c" opacity="0.63" />
<circle cx="741" cy="464" r="2.3" fill="#fb923c" opacity="0.44" />
<circle cx="684" cy="821" r="1.0" fill="#fb923c" opacity="0.25" />
<circle cx="703" cy="102" r="2.1" fill="#fb923c" opacity="0.56" />
<circle cx="798" cy="655" r="0.8" fill="#fb923c" opacity="0.35" />
<circle cx="817" cy="836" r="1.9" fill="#fb923c" opacity="0.66" />
<circle cx="1309" cy="44" r="1.9" fill="#fb923c" opacity="0.46" />
<circle cx="1290" cy="763" r="0.8" fill="#fb923c" opacity="0.65" />
<circle cx="1271" cy="582" r="1.7" fill="#fb923c" opacity="0.58" />
<circle cx="1252" cy="401" r="3.0" fill="#fb923c" opacity="0.27" />
<circle cx="1233" cy="220" r="1.5" fill="#fb923c" opacity="0.20" />
<circle cx="1214" cy="39" r="2.8" fill="#fb923c" opacity="0.39" />
<circle cx="1195" cy="758" r="1.3" fill="#fb923c" opacity="0.32" />
<circle cx="1176" cy="577" r="2.6" fill="#fb923c" opacity="0.51" /></g>
  <circle cx="475" cy="324" r="230" fill="#fcd34d" opacity="0.08"/>
  <circle cx="1173" cy="665" r="275" fill="#fb923c" opacity="0.08"/>
  <g filter="url(#softGlow)">
    
      <path d="M520 300 h560 a44 44 0 0 1 44 44 v280 a44 44 0 0 1 -44 44 H520 a44 44 0 0 1 -44 -44 V344 a44 44 0 0 1 44 -44 Z" fill="url(#glassPanel)" opacity="0.72"/>
      <path d="M800 320 v330" stroke="#fff7ed" stroke-width="9" opacity="0.48"/>
      <path d="M555 380 h185" stroke="#fb923c" stroke-width="10" stroke-linecap="round" opacity="0.35" />
<path d="M555 416 h185" stroke="#fb923c" stroke-width="10" stroke-linecap="round" opacity="0.385" />
<path d="M555 452 h185" stroke="#fb923c" stroke-width="10" stroke-linecap="round" opacity="0.42" />
<path d="M555 488 h185" stroke="#fb923c" stroke-width="10" stroke-linecap="round" opacity="0.45499999999999996" />
<path d="M555 524 h185" stroke="#fb923c" stroke-width="10" stroke-linecap="round" opacity="0.49" />
<path d="M555 560 h185" stroke="#fb923c" stroke-width="10" stroke-linecap="round" opacity="0.525" />
<path d="M555 596 h185" stroke="#fb923c" stroke-width="10" stroke-linecap="round" opacity="0.56" />
      <path d="M865 380 h185" stroke="#fcd34d" stroke-width="10" stroke-linecap="round" opacity="0.35" />
<path d="M865 416 h185" stroke="#fcd34d" stroke-width="10" stroke-linecap="round" opacity="0.385" />
<path d="M865 452 h185" stroke="#fcd34d" stroke-width="10" stroke-linecap="round" opacity="0.42" />
<path d="M865 488 h185" stroke="#fcd34d" stroke-width="10" stroke-linecap="round" opacity="0.45499999999999996" />
<path d="M865 524 h185" stroke="#fcd34d" stroke-width="10" stroke-linecap="round" opacity="0.49" />
<path d="M865 560 h185" stroke="#fcd34d" stroke-width="10" stroke-linecap="round" opacity="0.525" />
<path d="M865 596 h185" stroke="#fcd34d" stroke-width="10" stroke-linecap="round" opacity="0.56" />
    
  </g>
  <g opacity="0.78">
    <rect x="88" y="82" width="1424" height="736" rx="46" fill="none" stroke="#ffffff" stroke-opacity="0.2" stroke-width="2"/>
    <path d="M150 150 C320 82 525 78 720 126" stroke="#fff7ed" stroke-opacity="0.44" stroke-width="7" stroke-linecap="round"/>
    <path d="M1332 710 C1215 775 1005 792 855 752" stroke="#fcd34d" stroke-opacity="0.42" stroke-width="8" stroke-linecap="round"/>
  </g>
  <g transform="translate(126 714)">
    <rect width="420" height="86" rx="28" fill="#ffffff" opacity="0.12"/>
    <rect x="1" y="1" width="418" height="84" rx="27" fill="none" stroke="#ffffff" stroke-opacity="0.22"/>
    <text x="36" y="56" font-family="Georgia, 'Noto Serif Devanagari', serif" font-size="40" font-weight="700" fill="#fff7ed">ग्रंथ</text>
    <circle cx="352" cy="43" r="15" fill="#fcd34d" opacity="0.9"/>
  </g>
  <rect width="1600" height="900" filter="url(#grain)" opacity="0.34"/>
</svg>
