<svg xmlns="http://www.w3.org/2000/svg" width="1600" height="900" viewBox="0 0 1600 900" role="img" aria-label="वाल्मीकि रामायण और रामचरितमानस में अंतर: भाषा, पात्रों का चित्रण, लक्ष्मण रेखा और सीता हरण के 5 मुख्य रहस्यों का तुलनात्मक विश्लेषण">
  <defs>
    <radialGradient id="bgGlow" cx="50%" cy="43%" r="75%">
      <stop offset="0%" stop-color="#fdba74" stop-opacity="0.46"/>
      <stop offset="45%" stop-color="#5b2a0a" stop-opacity="0.92"/>
      <stop offset="100%" stop-color="#1f1208"/>
    </radialGradient>
    <linearGradient id="glassPanel" x1="0%" y1="0%" x2="100%" y2="100%">
      <stop offset="0%" stop-color="#ffffff" stop-opacity="0.58"/>
      <stop offset="42%" stop-color="#fdba74" stop-opacity="0.22"/>
      <stop offset="100%" stop-color="#ffffff" stop-opacity="0.08"/>
    </linearGradient>
    <radialGradient id="glassOrb" cx="34%" cy="24%" r="68%">
      <stop offset="0%" stop-color="#ffffff" stop-opacity="0.94"/>
      <stop offset="34%" stop-color="#fdba74" stop-opacity="0.62"/>
      <stop offset="100%" stop-color="#5b2a0a" stop-opacity="0.22"/>
    </radialGradient>
    <linearGradient id="glassMountain" x1="0%" y1="0%" x2="100%" y2="100%">
      <stop offset="0%" stop-color="#ffffff" stop-opacity="0.48"/>
      <stop offset="100%" stop-color="#fdba74" stop-opacity="0.22"/>
    </linearGradient>
    <filter id="softGlow" x="-30%" y="-30%" width="160%" height="160%">
      <feGaussianBlur stdDeviation="18" result="blur"/>
      <feColorMatrix in="blur" type="matrix" values="1 0 0 0 0  0 1 0 0 0  0 0 1 0 0  0 0 0 0.75 0"/>
      <feMerge>
        <feMergeNode/>
        <feMergeNode in="SourceGraphic"/>
      </feMerge>
    </filter>
    <filter id="grain">
      <feTurbulence type="fractalNoise" baseFrequency="0.82" numOctaves="3" seed="244"/>
      <feColorMatrix type="saturate" values="0"/>
      <feComponentTransfer>
        <feFuncA type="table" tableValues="0 0.075"/>
      </feComponentTransfer>
    </filter>
  </defs>
  <rect width="1600" height="900" fill="url(#bgGlow)"/>
  <g opacity="0.72"><circle cx="1027" cy="516" r="1.3" fill="#86efac" opacity="0.34" />
<circle cx="1008" cy="335" r="2.6" fill="#86efac" opacity="0.53" />
<circle cx="1065" cy="154" r="1.5" fill="#86efac" opacity="0.46" />
<circle cx="1046" cy="873" r="2.8" fill="#86efac" opacity="0.65" />
<circle cx="1103" cy="340" r="1.7" fill="#86efac" opacity="0.58" />
<circle cx="1084" cy="159" r="3.0" fill="#86efac" opacity="0.27" />
<circle cx="1141" cy="878" r="1.9" fill="#86efac" opacity="0.20" />
<circle cx="1122" cy="697" r="0.8" fill="#86efac" opacity="0.39" />
<circle cx="1179" cy="164" r="2.1" fill="#86efac" opacity="0.36" />
<circle cx="1160" cy="883" r="1.0" fill="#86efac" opacity="0.55" />
<circle cx="128" cy="497" r="3.0" fill="#86efac" opacity="0.63" />
<circle cx="147" cy="678" r="1.7" fill="#86efac" opacity="0.44" />
<circle cx="166" cy="859" r="0.8" fill="#86efac" opacity="0.51" />
<circle cx="185" cy="140" r="1.9" fill="#86efac" opacity="0.32" />
<circle cx="204" cy="321" r="2.6" fill="#86efac" opacity="0.37" />
<circle cx="223" cy="502" r="1.3" fill="#86efac" opacity="0.18" />
<circle cx="242" cy="683" r="2.8" fill="#86efac" opacity="0.25" />
<circle cx="261" cy="864" r="1.5" fill="#86efac" opacity="0.56" />
<circle cx="280" cy="849" r="3.0" fill="#86efac" opacity="0.65" />
<circle cx="299" cy="130" r="1.7" fill="#86efac" opacity="0.46" />
<circle cx="91" cy="706" r="1.3" fill="#86efac" opacity="0.62" />
<circle cx="72" cy="525" r="2.6" fill="#86efac" opacity="0.31" />
<circle cx="129" cy="168" r="1.5" fill="#86efac" opacity="0.50" />
<circle cx="110" cy="887" r="2.8" fill="#86efac" opacity="0.19" />
<circle cx="167" cy="882" r="1.7" fill="#86efac" opacity="0.36" />
<circle cx="148" cy="701" r="3.0" fill="#86efac" opacity="0.55" />
<circle cx="205" cy="344" r="1.9" fill="#86efac" opacity="0.24" />
<circle cx="186" cy="163" r="0.8" fill="#86efac" opacity="0.43" />
<circle cx="1539" cy="354" r="2.9" fill="#86efac" opacity="0.60" />
<circle cx="1520" cy="173" r="1.8" fill="#86efac" opacity="0.29" />
<circle cx="82" cy="15" r="2.0" fill="#86efac" opacity="0.21" />
<circle cx="101" cy="196" r="3.1" fill="#86efac" opacity="0.52" />
<circle cx="44" cy="553" r="1.8" fill="#86efac" opacity="0.33" />
<circle cx="63" cy="734" r="2.9" fill="#86efac" opacity="0.64" />
<circle cx="6" cy="739" r="2.4" fill="#86efac" opacity="0.45" />
<circle cx="25" cy="20" r="1.1" fill="#86efac" opacity="0.26" />
<circle cx="1568" cy="377" r="2.2" fill="#86efac" opacity="0.57" />
<circle cx="1587" cy="558" r="0.9" fill="#86efac" opacity="0.38" />
<circle cx="234" cy="563" r="1.2" fill="#86efac" opacity="0.19" />
<circle cx="253" cy="744" r="2.3" fill="#86efac" opacity="0.50" />
<circle cx="941" cy="292" r="2.7" fill="#86efac" opacity="0.58" />
<circle cx="922" cy="111" r="1.6" fill="#86efac" opacity="0.27" />
<circle cx="903" cy="830" r="2.5" fill="#86efac" opacity="0.20" />
<circle cx="884" cy="649" r="1.4" fill="#86efac" opacity="0.39" />
<circle cx="865" cy="468" r="2.3" fill="#86efac" opacity="0.32" />
<circle cx="846" cy="287" r="1.2" fill="#86efac" opacity="0.51" />
<circle cx="827" cy="106" r="2.1" fill="#86efac" opacity="0.44" />
<circle cx="808" cy="825" r="1.0" fill="#86efac" opacity="0.63" />
<circle cx="789" cy="840" r="1.9" fill="#86efac" opacity="0.60" />
<circle cx="770" cy="659" r="0.8" fill="#86efac" opacity="0.29" />
<circle cx="100" cy="501" r="1.0" fill="#86efac" opacity="0.67" />
<circle cx="119" cy="682" r="2.1" fill="#86efac" opacity="0.48" />
<circle cx="138" cy="863" r="1.2" fill="#86efac" opacity="0.55" />
<circle cx="157" cy="144" r="2.3" fill="#86efac" opacity="0.36" />
<circle cx="24" cy="677" r="1.4" fill="#86efac" opacity="0.43" />
<circle cx="43" cy="858" r="2.5" fill="#86efac" opacity="0.24" />
<circle cx="62" cy="139" r="1.6" fill="#86efac" opacity="0.31" />
<circle cx="81" cy="320" r="2.7" fill="#86efac" opacity="0.62" />
<circle cx="1548" cy="149" r="1.8" fill="#86efac" opacity="0.65" />
<circle cx="1567" cy="330" r="2.9" fill="#86efac" opacity="0.46" />
<circle cx="351" cy="146" r="1.7" fill="#86efac" opacity="0.40" />
<circle cx="332" cy="865" r="3.0" fill="#86efac" opacity="0.59" />
<circle cx="389" cy="508" r="1.9" fill="#86efac" opacity="0.28" />
<circle cx="370" cy="327" r="0.8" fill="#86efac" opacity="0.47" />
<circle cx="275" cy="870" r="1.3" fill="#86efac" opacity="0.66" />
<circle cx="256" cy="689" r="2.6" fill="#86efac" opacity="0.35" />
<circle cx="313" cy="332" r="1.5" fill="#86efac" opacity="0.54" />
<circle cx="294" cy="151" r="2.8" fill="#86efac" opacity="0.23" /></g>
  <circle cx="433" cy="306" r="230" fill="#fdba74" opacity="0.08"/>
  <circle cx="1195" cy="645" r="275" fill="#86efac" opacity="0.08"/>
  <g filter="url(#softGlow)">
    
      <path d="M660 225 C500 405 500 610 660 770" fill="none" stroke="#86efac" stroke-width="23" stroke-linecap="round" opacity="0.78"/>
      <path d="M660 225 C760 410 760 585 660 770" fill="none" stroke="#fdba74" stroke-width="7" opacity="0.74"/>
      <line x1="658" y1="225" x2="658" y2="770" stroke="#fff7ed" stroke-width="4" opacity="0.68"/>
      <line x1="700" y1="505" x2="1045" y2="505" stroke="#86efac" stroke-width="13" stroke-linecap="round" opacity="0.82"/>
      <path d="M1045 505 l-58 -32 l16 32 l-16 32 Z" fill="#86efac" opacity="0.86"/>
    
  </g>
  <g opacity="0.78">
    <rect x="88" y="82" width="1424" height="736" rx="46" fill="none" stroke="#ffffff" stroke-opacity="0.2" stroke-width="2"/>
    <path d="M150 150 C320 82 525 78 720 126" stroke="#fff7ed" stroke-opacity="0.44" stroke-width="7" stroke-linecap="round"/>
    <path d="M1332 710 C1215 775 1005 792 855 752" stroke="#fdba74" stroke-opacity="0.42" stroke-width="8" stroke-linecap="round"/>
  </g>
  <g transform="translate(126 714)">
    <rect width="420" height="86" rx="28" fill="#ffffff" opacity="0.12"/>
    <rect x="1" y="1" width="418" height="84" rx="27" fill="none" stroke="#ffffff" stroke-opacity="0.22"/>
    <text x="36" y="56" font-family="Georgia, 'Noto Serif Devanagari', serif" font-size="40" font-weight="700" fill="#fff7ed">धनुष</text>
    <circle cx="352" cy="43" r="15" fill="#fdba74" opacity="0.9"/>
  </g>
  <rect width="1600" height="900" filter="url(#grain)" opacity="0.34"/>
</svg>
