<svg xmlns="http://www.w3.org/2000/svg" width="1600" height="900" viewBox="0 0 1600 900" role="img" aria-label="वास्तु शास्त्र: दिशाओं का विज्ञान और घर में सुख-समृद्धि बढ़ाने के सरल नियम">
  <defs>
    <radialGradient id="bgGlow" cx="50%" cy="43%" r="75%">
      <stop offset="0%" stop-color="#a7f3d0" stop-opacity="0.46"/>
      <stop offset="45%" stop-color="#0f4d3f" stop-opacity="0.92"/>
      <stop offset="100%" stop-color="#05231d"/>
    </radialGradient>
    <linearGradient id="glassPanel" x1="0%" y1="0%" x2="100%" y2="100%">
      <stop offset="0%" stop-color="#ffffff" stop-opacity="0.58"/>
      <stop offset="42%" stop-color="#a7f3d0" stop-opacity="0.22"/>
      <stop offset="100%" stop-color="#ffffff" stop-opacity="0.08"/>
    </linearGradient>
    <radialGradient id="glassOrb" cx="34%" cy="24%" r="68%">
      <stop offset="0%" stop-color="#ffffff" stop-opacity="0.94"/>
      <stop offset="34%" stop-color="#a7f3d0" stop-opacity="0.62"/>
      <stop offset="100%" stop-color="#0f4d3f" stop-opacity="0.22"/>
    </radialGradient>
    <linearGradient id="glassMountain" x1="0%" y1="0%" x2="100%" y2="100%">
      <stop offset="0%" stop-color="#ffffff" stop-opacity="0.48"/>
      <stop offset="100%" stop-color="#a7f3d0" stop-opacity="0.22"/>
    </linearGradient>
    <filter id="softGlow" x="-30%" y="-30%" width="160%" height="160%">
      <feGaussianBlur stdDeviation="18" result="blur"/>
      <feColorMatrix in="blur" type="matrix" values="1 0 0 0 0  0 1 0 0 0  0 0 1 0 0  0 0 0 0.75 0"/>
      <feMerge>
        <feMergeNode/>
        <feMergeNode in="SourceGraphic"/>
      </feMerge>
    </filter>
    <filter id="grain">
      <feTurbulence type="fractalNoise" baseFrequency="0.82" numOctaves="3" seed="840"/>
      <feColorMatrix type="saturate" values="0"/>
      <feComponentTransfer>
        <feFuncA type="table" tableValues="0 0.075"/>
      </feComponentTransfer>
    </filter>
  </defs>
  <rect width="1600" height="900" fill="url(#bgGlow)"/>
  <g opacity="0.72"><circle cx="879" cy="452" r="1.7" fill="#fde68a" opacity="0.40" />
<circle cx="860" cy="271" r="3.0" fill="#fde68a" opacity="0.59" />
<circle cx="917" cy="90" r="1.9" fill="#fde68a" opacity="0.48" />
<circle cx="898" cy="809" r="0.8" fill="#fde68a" opacity="0.67" />
<circle cx="803" cy="628" r="1.3" fill="#fde68a" opacity="0.66" />
<circle cx="784" cy="447" r="2.6" fill="#fde68a" opacity="0.35" />
<circle cx="841" cy="266" r="1.5" fill="#fde68a" opacity="0.28" />
<circle cx="822" cy="85" r="2.8" fill="#fde68a" opacity="0.47" />
<circle cx="1031" cy="804" r="0.9" fill="#fde68a" opacity="0.42" />
<circle cx="1012" cy="623" r="2.2" fill="#fde68a" opacity="0.61" />
<circle cx="964" cy="701" r="1.0" fill="#fde68a" opacity="0.53" />
<circle cx="983" cy="882" r="2.1" fill="#fde68a" opacity="0.34" />
<circle cx="1002" cy="163" r="1.2" fill="#fde68a" opacity="0.41" />
<circle cx="1021" cy="344" r="2.3" fill="#fde68a" opacity="0.22" />
<circle cx="888" cy="877" r="1.4" fill="#fde68a" opacity="0.29" />
<circle cx="907" cy="158" r="2.5" fill="#fde68a" opacity="0.60" />
<circle cx="926" cy="339" r="1.6" fill="#fde68a" opacity="0.67" />
<circle cx="945" cy="520" r="2.7" fill="#fde68a" opacity="0.48" />
<circle cx="812" cy="153" r="2.6" fill="#fde68a" opacity="0.51" />
<circle cx="831" cy="334" r="1.3" fill="#fde68a" opacity="0.32" />
<circle cx="319" cy="10" r="1.7" fill="#fde68a" opacity="0.40" />
<circle cx="300" cy="729" r="3.0" fill="#fde68a" opacity="0.59" />
<circle cx="357" cy="372" r="1.9" fill="#fde68a" opacity="0.28" />
<circle cx="338" cy="191" r="0.8" fill="#fde68a" opacity="0.47" />
<circle cx="243" cy="734" r="1.3" fill="#fde68a" opacity="0.66" />
<circle cx="224" cy="553" r="2.6" fill="#fde68a" opacity="0.35" />
<circle cx="281" cy="196" r="1.5" fill="#fde68a" opacity="0.54" />
<circle cx="262" cy="15" r="2.8" fill="#fde68a" opacity="0.23" />
<circle cx="471" cy="362" r="0.9" fill="#fde68a" opacity="0.42" />
<circle cx="452" cy="181" r="2.2" fill="#fde68a" opacity="0.61" />
<circle cx="310" cy="219" r="2.4" fill="#fde68a" opacity="0.35" />
<circle cx="329" cy="400" r="1.1" fill="#fde68a" opacity="0.66" />
<circle cx="272" cy="757" r="2.2" fill="#fde68a" opacity="0.47" />
<circle cx="291" cy="38" r="0.9" fill="#fde68a" opacity="0.28" />
<circle cx="386" cy="395" r="2.0" fill="#fde68a" opacity="0.61" />
<circle cx="405" cy="576" r="3.1" fill="#fde68a" opacity="0.42" />
<circle cx="348" cy="33" r="1.8" fill="#fde68a" opacity="0.23" />
<circle cx="367" cy="214" r="2.9" fill="#fde68a" opacity="0.54" />
<circle cx="462" cy="767" r="1.6" fill="#fde68a" opacity="0.37" />
<circle cx="481" cy="48" r="2.7" fill="#fde68a" opacity="0.18" />
<circle cx="105" cy="764" r="2.3" fill="#fde68a" opacity="0.54" />
<circle cx="86" cy="583" r="1.2" fill="#fde68a" opacity="0.23" />
<circle cx="67" cy="402" r="2.1" fill="#fde68a" opacity="0.66" />
<circle cx="48" cy="221" r="1.0" fill="#fde68a" opacity="0.35" />
<circle cx="181" cy="588" r="2.7" fill="#fde68a" opacity="0.30" />
<circle cx="162" cy="407" r="1.6" fill="#fde68a" opacity="0.49" />
<circle cx="143" cy="226" r="2.5" fill="#fde68a" opacity="0.42" />
<circle cx="124" cy="45" r="1.4" fill="#fde68a" opacity="0.61" />
<circle cx="257" cy="412" r="1.5" fill="#fde68a" opacity="0.56" />
<circle cx="238" cy="231" r="2.8" fill="#fde68a" opacity="0.25" />
<circle cx="96" cy="73" r="3.0" fill="#fde68a" opacity="0.63" />
<circle cx="115" cy="254" r="1.7" fill="#fde68a" opacity="0.44" />
<circle cx="134" cy="435" r="0.8" fill="#fde68a" opacity="0.51" />
<circle cx="153" cy="616" r="1.9" fill="#fde68a" opacity="0.32" />
<circle cx="172" cy="797" r="2.6" fill="#fde68a" opacity="0.37" />
<circle cx="191" cy="78" r="1.3" fill="#fde68a" opacity="0.18" />
<circle cx="210" cy="259" r="2.8" fill="#fde68a" opacity="0.25" />
<circle cx="229" cy="440" r="1.5" fill="#fde68a" opacity="0.56" />
<circle cx="248" cy="621" r="2.2" fill="#fde68a" opacity="0.65" />
<circle cx="267" cy="802" r="0.9" fill="#fde68a" opacity="0.46" />
<circle cx="955" cy="674" r="1.3" fill="#fde68a" opacity="0.62" />
<circle cx="936" cy="493" r="2.6" fill="#fde68a" opacity="0.31" />
<circle cx="993" cy="136" r="1.5" fill="#fde68a" opacity="0.50" />
<circle cx="974" cy="855" r="2.8" fill="#fde68a" opacity="0.19" />
<circle cx="1031" cy="850" r="1.7" fill="#fde68a" opacity="0.36" />
<circle cx="1012" cy="669" r="3.0" fill="#fde68a" opacity="0.55" />
<circle cx="1069" cy="312" r="1.9" fill="#fde68a" opacity="0.24" />
<circle cx="1050" cy="131" r="0.8" fill="#fde68a" opacity="0.43" /></g>
  <circle cx="433" cy="326" r="230" fill="#a7f3d0" opacity="0.08"/>
  <circle cx="1175" cy="663" r="275" fill="#fde68a" opacity="0.08"/>
  <g filter="url(#softGlow)">
    
      <circle cx="800" cy="455" r="245" fill="none" stroke="#a7f3d0" stroke-width="18" opacity="0.28"/>
      <circle cx="800" cy="455" r="175" fill="none" stroke="#fde68a" stroke-width="12" opacity="0.42"/>
      <text x="800" y="520" text-anchor="middle" font-family="Georgia, 'Noto Serif Devanagari', serif" font-size="230" font-weight="700" fill="#fff7ed" opacity="0.92">ॐ</text>
      <path d="M596 700 C700 624 900 624 1004 700" stroke="#a7f3d0" stroke-width="22" stroke-linecap="round" opacity="0.42" fill="none"/>
    
  </g>
  <g opacity="0.78">
    <rect x="88" y="82" width="1424" height="736" rx="46" fill="none" stroke="#ffffff" stroke-opacity="0.2" stroke-width="2"/>
    <path d="M150 150 C320 82 525 78 720 126" stroke="#fff7ed" stroke-opacity="0.44" stroke-width="7" stroke-linecap="round"/>
    <path d="M1332 710 C1215 775 1005 792 855 752" stroke="#a7f3d0" stroke-opacity="0.42" stroke-width="8" stroke-linecap="round"/>
  </g>
  <g transform="translate(126 714)">
    <rect width="420" height="86" rx="28" fill="#ffffff" opacity="0.12"/>
    <rect x="1" y="1" width="418" height="84" rx="27" fill="none" stroke="#ffffff" stroke-opacity="0.22"/>
    <text x="36" y="56" font-family="Georgia, 'Noto Serif Devanagari', serif" font-size="40" font-weight="700" fill="#fff7ed">ॐ</text>
    <circle cx="352" cy="43" r="15" fill="#a7f3d0" opacity="0.9"/>
  </g>
  <rect width="1600" height="900" filter="url(#grain)" opacity="0.34"/>
</svg>
