<svg xmlns="http://www.w3.org/2000/svg" width="1600" height="900" viewBox="0 0 1600 900" role="img" aria-label="माया क्या है? आदि शंकराचार्य का अद्वैत वेदांत, भ्रम का सिद्धांत और रस्सी-साँप का प्रसिद्ध दार्शनिक उदाहरण">
  <defs>
    <radialGradient id="bgGlow" cx="50%" cy="43%" r="75%">
      <stop offset="0%" stop-color="#fcd34d" stop-opacity="0.46"/>
      <stop offset="45%" stop-color="#5b3311" stop-opacity="0.92"/>
      <stop offset="100%" stop-color="#201104"/>
    </radialGradient>
    <linearGradient id="glassPanel" x1="0%" y1="0%" x2="100%" y2="100%">
      <stop offset="0%" stop-color="#ffffff" stop-opacity="0.58"/>
      <stop offset="42%" stop-color="#fcd34d" stop-opacity="0.22"/>
      <stop offset="100%" stop-color="#ffffff" stop-opacity="0.08"/>
    </linearGradient>
    <radialGradient id="glassOrb" cx="34%" cy="24%" r="68%">
      <stop offset="0%" stop-color="#ffffff" stop-opacity="0.94"/>
      <stop offset="34%" stop-color="#fcd34d" stop-opacity="0.62"/>
      <stop offset="100%" stop-color="#5b3311" stop-opacity="0.22"/>
    </radialGradient>
    <linearGradient id="glassMountain" x1="0%" y1="0%" x2="100%" y2="100%">
      <stop offset="0%" stop-color="#ffffff" stop-opacity="0.48"/>
      <stop offset="100%" stop-color="#fcd34d" stop-opacity="0.22"/>
    </linearGradient>
    <filter id="softGlow" x="-30%" y="-30%" width="160%" height="160%">
      <feGaussianBlur stdDeviation="18" result="blur"/>
      <feColorMatrix in="blur" type="matrix" values="1 0 0 0 0  0 1 0 0 0  0 0 1 0 0  0 0 0 0.75 0"/>
      <feMerge>
        <feMergeNode/>
        <feMergeNode in="SourceGraphic"/>
      </feMerge>
    </filter>
    <filter id="grain">
      <feTurbulence type="fractalNoise" baseFrequency="0.82" numOctaves="3" seed="488"/>
      <feColorMatrix type="saturate" values="0"/>
      <feComponentTransfer>
        <feFuncA type="table" tableValues="0 0.075"/>
      </feComponentTransfer>
    </filter>
  </defs>
  <rect width="1600" height="900" fill="url(#bgGlow)"/>
  <g opacity="0.72"><circle cx="348" cy="439" r="3.0" fill="#fb923c" opacity="0.39" />
<circle cx="367" cy="620" r="1.7" fill="#fb923c" opacity="0.20" />
<circle cx="386" cy="77" r="0.8" fill="#fb923c" opacity="0.51" />
<circle cx="405" cy="258" r="1.9" fill="#fb923c" opacity="0.32" />
<circle cx="272" cy="615" r="2.6" fill="#fb923c" opacity="0.65" />
<circle cx="291" cy="796" r="1.3" fill="#fb923c" opacity="0.46" />
<circle cx="310" cy="253" r="2.8" fill="#fb923c" opacity="0.27" />
<circle cx="329" cy="434" r="1.5" fill="#fb923c" opacity="0.58" />
<circle cx="500" cy="87" r="1.4" fill="#fb923c" opacity="0.37" />
<circle cx="519" cy="268" r="2.5" fill="#fb923c" opacity="0.18" />
<circle cx="973" cy="756" r="1.9" fill="#fb923c" opacity="0.36" />
<circle cx="954" cy="575" r="0.8" fill="#fb923c" opacity="0.55" />
<circle cx="935" cy="394" r="1.7" fill="#fb923c" opacity="0.48" />
<circle cx="916" cy="213" r="3.0" fill="#fb923c" opacity="0.67" />
<circle cx="897" cy="32" r="1.5" fill="#fb923c" opacity="0.60" />
<circle cx="878" cy="751" r="2.8" fill="#fb923c" opacity="0.29" />
<circle cx="859" cy="570" r="1.3" fill="#fb923c" opacity="0.22" />
<circle cx="840" cy="389" r="2.6" fill="#fb923c" opacity="0.41" />
<circle cx="821" cy="404" r="1.1" fill="#fb923c" opacity="0.34" />
<circle cx="802" cy="223" r="2.4" fill="#fb923c" opacity="0.53" />
<circle cx="1206" cy="207" r="1.6" fill="#fb923c" opacity="0.27" />
<circle cx="1225" cy="388" r="2.7" fill="#fb923c" opacity="0.58" />
<circle cx="1168" cy="745" r="1.4" fill="#fb923c" opacity="0.39" />
<circle cx="1187" cy="26" r="2.5" fill="#fb923c" opacity="0.20" />
<circle cx="1282" cy="383" r="1.2" fill="#fb923c" opacity="0.53" />
<circle cx="1301" cy="564" r="2.3" fill="#fb923c" opacity="0.34" />
<circle cx="1244" cy="21" r="1.0" fill="#fb923c" opacity="0.65" />
<circle cx="1263" cy="202" r="2.1" fill="#fb923c" opacity="0.46" />
<circle cx="1358" cy="559" r="2.4" fill="#fb923c" opacity="0.25" />
<circle cx="1377" cy="740" r="1.1" fill="#fb923c" opacity="0.56" />
<circle cx="1215" cy="274" r="0.9" fill="#fb923c" opacity="0.18" />
<circle cx="1196" cy="93" r="2.2" fill="#fb923c" opacity="0.37" />
<circle cx="1253" cy="636" r="1.1" fill="#fb923c" opacity="0.56" />
<circle cx="1234" cy="455" r="2.4" fill="#fb923c" opacity="0.25" />
<circle cx="1139" cy="98" r="2.9" fill="#fb923c" opacity="0.44" />
<circle cx="1120" cy="817" r="1.8" fill="#fb923c" opacity="0.63" />
<circle cx="1177" cy="460" r="3.1" fill="#fb923c" opacity="0.32" />
<circle cx="1158" cy="279" r="2.0" fill="#fb923c" opacity="0.51" />
<circle cx="1367" cy="822" r="1.7" fill="#fb923c" opacity="0.66" />
<circle cx="1348" cy="641" r="3.0" fill="#fb923c" opacity="0.35" />
<circle cx="992" cy="625" r="2.2" fill="#fb923c" opacity="0.41" />
<circle cx="1011" cy="806" r="0.9" fill="#fb923c" opacity="0.22" />
<circle cx="1030" cy="87" r="2.4" fill="#fb923c" opacity="0.29" />
<circle cx="1049" cy="268" r="1.1" fill="#fb923c" opacity="0.60" />
<circle cx="1068" cy="449" r="1.8" fill="#fb923c" opacity="0.65" />
<circle cx="1087" cy="630" r="2.9" fill="#fb923c" opacity="0.46" />
<circle cx="1106" cy="811" r="2.0" fill="#fb923c" opacity="0.53" />
<circle cx="1125" cy="92" r="3.1" fill="#fb923c" opacity="0.34" />
<circle cx="1144" cy="77" r="3.0" fill="#fb923c" opacity="0.39" />
<circle cx="1163" cy="258" r="1.7" fill="#fb923c" opacity="0.20" />
<circle cx="1001" cy="416" r="1.5" fill="#fb923c" opacity="0.50" />
<circle cx="982" cy="235" r="2.8" fill="#fb923c" opacity="0.19" />
<circle cx="963" cy="54" r="1.3" fill="#fb923c" opacity="0.58" />
<circle cx="944" cy="773" r="2.6" fill="#fb923c" opacity="0.27" />
<circle cx="1077" cy="240" r="1.9" fill="#fb923c" opacity="0.26" />
<circle cx="1058" cy="59" r="0.8" fill="#fb923c" opacity="0.45" />
<circle cx="1039" cy="778" r="1.7" fill="#fb923c" opacity="0.38" />
<circle cx="1020" cy="597" r="3.0" fill="#fb923c" opacity="0.57" />
<circle cx="1153" cy="768" r="2.3" fill="#fb923c" opacity="0.44" />
<circle cx="1134" cy="587" r="1.2" fill="#fb923c" opacity="0.63" />
<circle cx="1010" cy="479" r="1.2" fill="#fb923c" opacity="0.37" />
<circle cx="1029" cy="660" r="2.3" fill="#fb923c" opacity="0.18" />
<circle cx="972" cy="117" r="1.0" fill="#fb923c" opacity="0.49" />
<circle cx="991" cy="298" r="2.1" fill="#fb923c" opacity="0.30" />
<circle cx="934" cy="303" r="1.6" fill="#fb923c" opacity="0.61" />
<circle cx="953" cy="484" r="2.7" fill="#fb923c" opacity="0.42" />
<circle cx="896" cy="841" r="1.4" fill="#fb923c" opacity="0.23" />
<circle cx="915" cy="122" r="2.5" fill="#fb923c" opacity="0.54" /></g>
  <circle cx="474" cy="285" r="230" fill="#fcd34d" opacity="0.08"/>
  <circle cx="1096" cy="664" r="275" fill="#fb923c" opacity="0.08"/>
  <g filter="url(#softGlow)">
    
      <path d="M520 300 h560 a44 44 0 0 1 44 44 v280 a44 44 0 0 1 -44 44 H520 a44 44 0 0 1 -44 -44 V344 a44 44 0 0 1 44 -44 Z" fill="url(#glassPanel)" opacity="0.72"/>
      <path d="M800 320 v330" stroke="#fff7ed" stroke-width="9" opacity="0.48"/>
      <path d="M555 380 h185" stroke="#fb923c" stroke-width="10" stroke-linecap="round" opacity="0.35" />
<path d="M555 416 h185" stroke="#fb923c" stroke-width="10" stroke-linecap="round" opacity="0.385" />
<path d="M555 452 h185" stroke="#fb923c" stroke-width="10" stroke-linecap="round" opacity="0.42" />
<path d="M555 488 h185" stroke="#fb923c" stroke-width="10" stroke-linecap="round" opacity="0.45499999999999996" />
<path d="M555 524 h185" stroke="#fb923c" stroke-width="10" stroke-linecap="round" opacity="0.49" />
<path d="M555 560 h185" stroke="#fb923c" stroke-width="10" stroke-linecap="round" opacity="0.525" />
<path d="M555 596 h185" stroke="#fb923c" stroke-width="10" stroke-linecap="round" opacity="0.56" />
      <path d="M865 380 h185" stroke="#fcd34d" stroke-width="10" stroke-linecap="round" opacity="0.35" />
<path d="M865 416 h185" stroke="#fcd34d" stroke-width="10" stroke-linecap="round" opacity="0.385" />
<path d="M865 452 h185" stroke="#fcd34d" stroke-width="10" stroke-linecap="round" opacity="0.42" />
<path d="M865 488 h185" stroke="#fcd34d" stroke-width="10" stroke-linecap="round" opacity="0.45499999999999996" />
<path d="M865 524 h185" stroke="#fcd34d" stroke-width="10" stroke-linecap="round" opacity="0.49" />
<path d="M865 560 h185" stroke="#fcd34d" stroke-width="10" stroke-linecap="round" opacity="0.525" />
<path d="M865 596 h185" stroke="#fcd34d" stroke-width="10" stroke-linecap="round" opacity="0.56" />
    
  </g>
  <g opacity="0.78">
    <rect x="88" y="82" width="1424" height="736" rx="46" fill="none" stroke="#ffffff" stroke-opacity="0.2" stroke-width="2"/>
    <path d="M150 150 C320 82 525 78 720 126" stroke="#fff7ed" stroke-opacity="0.44" stroke-width="7" stroke-linecap="round"/>
    <path d="M1332 710 C1215 775 1005 792 855 752" stroke="#fcd34d" stroke-opacity="0.42" stroke-width="8" stroke-linecap="round"/>
  </g>
  <g transform="translate(126 714)">
    <rect width="420" height="86" rx="28" fill="#ffffff" opacity="0.12"/>
    <rect x="1" y="1" width="418" height="84" rx="27" fill="none" stroke="#ffffff" stroke-opacity="0.22"/>
    <text x="36" y="56" font-family="Georgia, 'Noto Serif Devanagari', serif" font-size="40" font-weight="700" fill="#fff7ed">ग्रंथ</text>
    <circle cx="352" cy="43" r="15" fill="#fcd34d" opacity="0.9"/>
  </g>
  <rect width="1600" height="900" filter="url(#grain)" opacity="0.34"/>
</svg>
