<svg xmlns="http://www.w3.org/2000/svg" width="1600" height="900" viewBox="0 0 1600 900" role="img" aria-label="योग वासिष्ठ: श्री राम और महर्षि वशिष्ठ का अद्भुत ज्ञान संवाद, अद्वैत दर्शन और मन की शक्ति का रहस्य">
  <defs>
    <radialGradient id="bgGlow" cx="50%" cy="43%" r="75%">
      <stop offset="0%" stop-color="#f9a8d4" stop-opacity="0.46"/>
      <stop offset="45%" stop-color="#5a1237" stop-opacity="0.92"/>
      <stop offset="100%" stop-color="#2b0718"/>
    </radialGradient>
    <linearGradient id="glassPanel" x1="0%" y1="0%" x2="100%" y2="100%">
      <stop offset="0%" stop-color="#ffffff" stop-opacity="0.58"/>
      <stop offset="42%" stop-color="#f9a8d4" stop-opacity="0.22"/>
      <stop offset="100%" stop-color="#ffffff" stop-opacity="0.08"/>
    </linearGradient>
    <radialGradient id="glassOrb" cx="34%" cy="24%" r="68%">
      <stop offset="0%" stop-color="#ffffff" stop-opacity="0.94"/>
      <stop offset="34%" stop-color="#f9a8d4" stop-opacity="0.62"/>
      <stop offset="100%" stop-color="#5a1237" stop-opacity="0.22"/>
    </radialGradient>
    <linearGradient id="glassMountain" x1="0%" y1="0%" x2="100%" y2="100%">
      <stop offset="0%" stop-color="#ffffff" stop-opacity="0.48"/>
      <stop offset="100%" stop-color="#f9a8d4" stop-opacity="0.22"/>
    </linearGradient>
    <filter id="softGlow" x="-30%" y="-30%" width="160%" height="160%">
      <feGaussianBlur stdDeviation="18" result="blur"/>
      <feColorMatrix in="blur" type="matrix" values="1 0 0 0 0  0 1 0 0 0  0 0 1 0 0  0 0 0 0.75 0"/>
      <feMerge>
        <feMergeNode/>
        <feMergeNode in="SourceGraphic"/>
      </feMerge>
    </filter>
    <filter id="grain">
      <feTurbulence type="fractalNoise" baseFrequency="0.82" numOctaves="3" seed="572"/>
      <feColorMatrix type="saturate" values="0"/>
      <feComponentTransfer>
        <feFuncA type="table" tableValues="0 0.075"/>
      </feComponentTransfer>
    </filter>
  </defs>
  <rect width="1600" height="900" fill="url(#bgGlow)"/>
  <g opacity="0.72"><circle cx="333" cy="38" r="2.7" fill="#fbbf24" opacity="0.34" />
<circle cx="314" cy="757" r="1.6" fill="#fbbf24" opacity="0.53" />
<circle cx="295" cy="400" r="2.5" fill="#fbbf24" opacity="0.22" />
<circle cx="276" cy="219" r="1.4" fill="#fbbf24" opacity="0.41" />
<circle cx="257" cy="214" r="2.3" fill="#fbbf24" opacity="0.60" />
<circle cx="238" cy="33" r="1.2" fill="#fbbf24" opacity="0.29" />
<circle cx="219" cy="576" r="2.1" fill="#fbbf24" opacity="0.48" />
<circle cx="200" cy="395" r="1.0" fill="#fbbf24" opacity="0.67" />
<circle cx="181" cy="390" r="1.9" fill="#fbbf24" opacity="0.36" />
<circle cx="162" cy="209" r="0.8" fill="#fbbf24" opacity="0.55" />
<circle cx="958" cy="887" r="1.6" fill="#fbbf24" opacity="0.51" />
<circle cx="977" cy="168" r="2.7" fill="#fbbf24" opacity="0.32" />
<circle cx="920" cy="525" r="1.4" fill="#fbbf24" opacity="0.63" />
<circle cx="939" cy="706" r="2.5" fill="#fbbf24" opacity="0.44" />
<circle cx="1034" cy="163" r="1.2" fill="#fbbf24" opacity="0.27" />
<circle cx="1053" cy="344" r="2.3" fill="#fbbf24" opacity="0.58" />
<circle cx="996" cy="701" r="1.0" fill="#fbbf24" opacity="0.39" />
<circle cx="1015" cy="882" r="2.1" fill="#fbbf24" opacity="0.20" />
<circle cx="806" cy="535" r="0.8" fill="#fbbf24" opacity="0.53" />
<circle cx="825" cy="716" r="1.9" fill="#fbbf24" opacity="0.34" />
<circle cx="949" cy="260" r="1.1" fill="#fbbf24" opacity="0.60" />
<circle cx="930" cy="79" r="2.4" fill="#fbbf24" opacity="0.29" />
<circle cx="911" cy="798" r="0.9" fill="#fbbf24" opacity="0.22" />
<circle cx="892" cy="617" r="2.2" fill="#fbbf24" opacity="0.41" />
<circle cx="873" cy="436" r="3.1" fill="#fbbf24" opacity="0.34" />
<circle cx="854" cy="255" r="2.0" fill="#fbbf24" opacity="0.53" />
<circle cx="835" cy="74" r="2.9" fill="#fbbf24" opacity="0.46" />
<circle cx="816" cy="793" r="1.8" fill="#fbbf24" opacity="0.65" />
<circle cx="1101" cy="612" r="1.9" fill="#fbbf24" opacity="0.62" />
<circle cx="1082" cy="431" r="0.8" fill="#fbbf24" opacity="0.31" />
<circle cx="940" cy="469" r="1.8" fill="#fbbf24" opacity="0.19" />
<circle cx="959" cy="650" r="2.9" fill="#fbbf24" opacity="0.50" />
<circle cx="978" cy="831" r="2.0" fill="#fbbf24" opacity="0.57" />
<circle cx="997" cy="112" r="3.1" fill="#fbbf24" opacity="0.38" />
<circle cx="864" cy="645" r="2.2" fill="#fbbf24" opacity="0.45" />
<circle cx="883" cy="826" r="0.9" fill="#fbbf24" opacity="0.26" />
<circle cx="902" cy="107" r="2.4" fill="#fbbf24" opacity="0.33" />
<circle cx="921" cy="288" r="1.1" fill="#fbbf24" opacity="0.64" />
<circle cx="1092" cy="821" r="1.0" fill="#fbbf24" opacity="0.67" />
<circle cx="1111" cy="102" r="2.1" fill="#fbbf24" opacity="0.48" />
<circle cx="931" cy="442" r="2.1" fill="#fbbf24" opacity="0.28" />
<circle cx="912" cy="261" r="1.0" fill="#fbbf24" opacity="0.47" />
<circle cx="969" cy="804" r="2.3" fill="#fbbf24" opacity="0.66" />
<circle cx="950" cy="623" r="1.2" fill="#fbbf24" opacity="0.35" />
<circle cx="1007" cy="618" r="2.5" fill="#fbbf24" opacity="0.52" />
<circle cx="988" cy="437" r="1.4" fill="#fbbf24" opacity="0.21" />
<circle cx="1045" cy="80" r="2.7" fill="#fbbf24" opacity="0.40" />
<circle cx="1026" cy="799" r="1.6" fill="#fbbf24" opacity="0.59" />
<circle cx="1083" cy="794" r="2.9" fill="#fbbf24" opacity="0.26" />
<circle cx="1064" cy="613" r="1.8" fill="#fbbf24" opacity="0.45" />
<circle cx="1594" cy="883" r="2.8" fill="#fbbf24" opacity="0.23" />
<circle cx="13" cy="164" r="1.5" fill="#fbbf24" opacity="0.54" />
<circle cx="1556" cy="521" r="2.6" fill="#fbbf24" opacity="0.35" />
<circle cx="1575" cy="702" r="1.3" fill="#fbbf24" opacity="0.66" />
<circle cx="1518" cy="707" r="0.8" fill="#fbbf24" opacity="0.47" />
<circle cx="1537" cy="888" r="1.9" fill="#fbbf24" opacity="0.28" />
<circle cx="1480" cy="345" r="3.0" fill="#fbbf24" opacity="0.59" />
<circle cx="1499" cy="526" r="1.7" fill="#fbbf24" opacity="0.40" />
<circle cx="1442" cy="335" r="1.2" fill="#fbbf24" opacity="0.21" />
<circle cx="1461" cy="516" r="2.3" fill="#fbbf24" opacity="0.52" />
<circle cx="1585" cy="532" r="1.5" fill="#fbbf24" opacity="0.24" />
<circle cx="1566" cy="351" r="2.8" fill="#fbbf24" opacity="0.43" />
<circle cx="1547" cy="170" r="1.3" fill="#fbbf24" opacity="0.36" />
<circle cx="1528" cy="889" r="2.6" fill="#fbbf24" opacity="0.55" />
<circle cx="61" cy="356" r="1.9" fill="#fbbf24" opacity="0.50" />
<circle cx="42" cy="175" r="0.8" fill="#fbbf24" opacity="0.19" />
<circle cx="23" cy="894" r="1.7" fill="#fbbf24" opacity="0.62" />
<circle cx="4" cy="713" r="3.0" fill="#fbbf24" opacity="0.31" /></g>
  <circle cx="503" cy="272" r="230" fill="#f9a8d4" opacity="0.08"/>
  <circle cx="1161" cy="675" r="275" fill="#fbbf24" opacity="0.08"/>
  <g filter="url(#softGlow)">
    
      <ellipse cx="800" cy="404" rx="34" ry="110" fill="#f9a8d4" opacity="0.42" transform="rotate(0 800 500)" />
<ellipse cx="800" cy="404" rx="34" ry="110" fill="#f9a8d4" opacity="0.42" transform="rotate(20 800 500)" />
<ellipse cx="800" cy="404" rx="34" ry="110" fill="#f9a8d4" opacity="0.42" transform="rotate(40 800 500)" />
<ellipse cx="800" cy="404" rx="34" ry="110" fill="#f9a8d4" opacity="0.42" transform="rotate(60 800 500)" />
<ellipse cx="800" cy="404" rx="34" ry="110" fill="#f9a8d4" opacity="0.42" transform="rotate(80 800 500)" />
<ellipse cx="800" cy="404" rx="34" ry="110" fill="#f9a8d4" opacity="0.42" transform="rotate(100 800 500)" />
<ellipse cx="800" cy="404" rx="34" ry="110" fill="#f9a8d4" opacity="0.42" transform="rotate(120 800 500)" />
<ellipse cx="800" cy="404" rx="34" ry="110" fill="#f9a8d4" opacity="0.42" transform="rotate(140 800 500)" />
<ellipse cx="800" cy="404" rx="34" ry="110" fill="#f9a8d4" opacity="0.42" transform="rotate(160 800 500)" />
<ellipse cx="800" cy="404" rx="34" ry="110" fill="#f9a8d4" opacity="0.42" transform="rotate(180 800 500)" />
<ellipse cx="800" cy="404" rx="34" ry="110" fill="#f9a8d4" opacity="0.42" transform="rotate(200 800 500)" />
<ellipse cx="800" cy="404" rx="34" ry="110" fill="#f9a8d4" opacity="0.42" transform="rotate(220 800 500)" />
<ellipse cx="800" cy="404" rx="34" ry="110" fill="#f9a8d4" opacity="0.42" transform="rotate(240 800 500)" />
<ellipse cx="800" cy="404" rx="34" ry="110" fill="#f9a8d4" opacity="0.42" transform="rotate(260 800 500)" />
<ellipse cx="800" cy="404" rx="34" ry="110" fill="#f9a8d4" opacity="0.42" transform="rotate(280 800 500)" />
<ellipse cx="800" cy="404" rx="34" ry="110" fill="#f9a8d4" opacity="0.42" transform="rotate(300 800 500)" />
<ellipse cx="800" cy="404" rx="34" ry="110" fill="#f9a8d4" opacity="0.42" transform="rotate(320 800 500)" />
<ellipse cx="800" cy="404" rx="34" ry="110" fill="#f9a8d4" opacity="0.42" transform="rotate(340 800 500)" />
      <ellipse cx="800" cy="438" rx="26" ry="82" fill="#fbbf24" opacity="0.5" transform="rotate(0 800 500)" />
<ellipse cx="800" cy="438" rx="26" ry="82" fill="#fbbf24" opacity="0.5" transform="rotate(30 800 500)" />
<ellipse cx="800" cy="438" rx="26" ry="82" fill="#fbbf24" opacity="0.5" transform="rotate(60 800 500)" />
<ellipse cx="800" cy="438" rx="26" ry="82" fill="#fbbf24" opacity="0.5" transform="rotate(90 800 500)" />
<ellipse cx="800" cy="438" rx="26" ry="82" fill="#fbbf24" opacity="0.5" transform="rotate(120 800 500)" />
<ellipse cx="800" cy="438" rx="26" ry="82" fill="#fbbf24" opacity="0.5" transform="rotate(150 800 500)" />
<ellipse cx="800" cy="438" rx="26" ry="82" fill="#fbbf24" opacity="0.5" transform="rotate(180 800 500)" />
<ellipse cx="800" cy="438" rx="26" ry="82" fill="#fbbf24" opacity="0.5" transform="rotate(210 800 500)" />
<ellipse cx="800" cy="438" rx="26" ry="82" fill="#fbbf24" opacity="0.5" transform="rotate(240 800 500)" />
<ellipse cx="800" cy="438" rx="26" ry="82" fill="#fbbf24" opacity="0.5" transform="rotate(270 800 500)" />
<ellipse cx="800" cy="438" rx="26" ry="82" fill="#fbbf24" opacity="0.5" transform="rotate(300 800 500)" />
<ellipse cx="800" cy="438" rx="26" ry="82" fill="#fbbf24" opacity="0.5" transform="rotate(330 800 500)" />
      <circle cx="800" cy="500" r="74" fill="url(#glassOrb)" opacity="0.92"/>
      <path d="M585 690 C680 590 920 590 1015 690 C890 735 710 735 585 690 Z" fill="#f9a8d4" opacity="0.32"/>
    
  </g>
  <g opacity="0.78">
    <rect x="88" y="82" width="1424" height="736" rx="46" fill="none" stroke="#ffffff" stroke-opacity="0.2" stroke-width="2"/>
    <path d="M150 150 C320 82 525 78 720 126" stroke="#fff7ed" stroke-opacity="0.44" stroke-width="7" stroke-linecap="round"/>
    <path d="M1332 710 C1215 775 1005 792 855 752" stroke="#f9a8d4" stroke-opacity="0.42" stroke-width="8" stroke-linecap="round"/>
  </g>
  <g transform="translate(126 714)">
    <rect width="420" height="86" rx="28" fill="#ffffff" opacity="0.12"/>
    <rect x="1" y="1" width="418" height="84" rx="27" fill="none" stroke="#ffffff" stroke-opacity="0.22"/>
    <text x="36" y="56" font-family="Georgia, 'Noto Serif Devanagari', serif" font-size="40" font-weight="700" fill="#fff7ed">कमल</text>
    <circle cx="352" cy="43" r="15" fill="#f9a8d4" opacity="0.9"/>
  </g>
  <rect width="1600" height="900" filter="url(#grain)" opacity="0.34"/>
</svg>
